<svg class="main-svg" xmlns="http://www.w3.org/2000/svg" xmlns:xlink="http://www.w3.org/1999/xlink" width="2200" height="1000" style="" viewBox="0 0 1100 500"><rect x="0" y="0" width="1100" height="500" style="fill: rgb(255, 255, 255); fill-opacity: 1;"/><defs id="defs-2be920"><g class="clips"><clipPath id="clip2be920xyplot" class="plotclip"><rect width="1025" height="385"/></clipPath><clipPath class="axesclip" id="clip2be920x"><rect x="60" y="0" width="1025" height="500"/></clipPath><clipPath class="axesclip" id="clip2be920y"><rect x="0" y="50" width="1100" height="385"/></clipPath><clipPath class="axesclip" id="clip2be920xy"><rect x="60" y="50" width="1025" height="385"/></clipPath></g><g class="gradients"/><g class="patterns"/></defs><g class="bglayer"/><g class="layer-below"><g class="imagelayer"/><g class="shapelayer"/></g><g class="cartesianlayer"><g class="subplot xy"><g class="layer-subplot"><g class="shapelayer"/><g class="imagelayer"/></g><g class="minor-gridlayer"><g class="x"/><g class="y"/></g><g class="gridlayer"><g class="x"><path class="xgrid crisp" transform="translate(273.88,0)" d="M0,50v385" style="stroke: rgb(128, 128, 128); stroke-opacity: 0.15; stroke-width: 1px;"/><path class="xgrid crisp" transform="translate(487.88,0)" d="M0,50v385" style="stroke: rgb(128, 128, 128); stroke-opacity: 0.15; stroke-width: 1px;"/><path class="xgrid crisp" transform="translate(701.89,0)" d="M0,50v385" style="stroke: rgb(128, 128, 128); stroke-opacity: 0.15; stroke-width: 1px;"/><path class="xgrid crisp" transform="translate(915.9,0)" d="M0,50v385" style="stroke: rgb(128, 128, 128); stroke-opacity: 0.15; stroke-width: 1px;"/></g><g class="y"><path class="ygrid crisp" transform="translate(0,362.32)" d="M60,0h1025" style="stroke: rgb(128, 128, 128); stroke-opacity: 0.15; stroke-width: 1px;"/><path class="ygrid crisp" transform="translate(0,289.63)" d="M60,0h1025" style="stroke: rgb(128, 128, 128); stroke-opacity: 0.15; stroke-width: 1px;"/><path class="ygrid crisp" transform="translate(0,216.95)" d="M60,0h1025" style="stroke: rgb(128, 128, 128); stroke-opacity: 0.15; stroke-width: 1px;"/><path class="ygrid crisp" transform="translate(0,144.26)" d="M60,0h1025" style="stroke: rgb(128, 128, 128); stroke-opacity: 0.15; stroke-width: 1px;"/><path class="ygrid crisp" transform="translate(0,71.58)" d="M60,0h1025" style="stroke: rgb(128, 128, 128); stroke-opacity: 0.15; stroke-width: 1px;"/></g></g><g class="zerolinelayer"><path class="yzl zl crisp" transform="translate(0,435)" d="M60,0h1025" style="stroke: rgb(128, 128, 128); stroke-opacity: 0.2; stroke-width: 1px;"/></g><g class="layer-between"><g class="shapelayer"/><g class="imagelayer"/></g><path class="xlines-below"/><path class="ylines-below"/><g class="overlines-below"/><g class="xaxislayer-below"/><g class="yaxislayer-below"/><g class="overaxes-below"/><g class="overplot"><g class="xy" transform="translate(60,50)" clip-path="url(#clip2be920xyplot)"><g class="scatterlayer mlayer"><g class="trace scatter tracef85b0f" style="stroke-miterlimit: 2; opacity: 1;"><g class="fills"/><g class="errorbars"/><g class="lines"><path class="js-line" d="M0.73,327.14L2.35,360.14L3.16,364.21L4.78,371.92L5.59,374.82L7.21,373.66L8.02,376.28L8.83,364.36L9.63,376.42L11.26,375.55L12.07,379.48L12.87,378.6L13.68,376.57L14.5,379.33L15.31,377.88L16.11,376.13L16.92,378.46L17.74,379.33L18.55,378.17L20.16,380.35L20.97,377.59L22.59,381.37L23.4,379.77L24.21,379.33L25.03,380.06L26.64,378.89L27.45,378.6L29.07,380.2L29.88,380.49L32.31,378.89L33.12,380.35L33.93,380.93L34.74,379.77L35.55,378.46L36.36,380.93L37.17,378.46L37.98,380.78L38.79,381.08L39.6,379.62L40.41,379.62L41.22,378.31L42.84,380.93L43.65,380.06L46.89,380.2L47.7,381.08L49.32,380.2L50.13,380.64L50.94,379.33L51.75,380.64L52.56,380.2L53.37,380.93L54.18,382.09L54.99,380.2L55.8,381.08L56.61,379.77L57.42,380.2L58.23,381.8L59.04,380.35L59.85,380.93L60.66,380.2L61.47,380.78L63.09,380.35L63.9,381.8L64.71,380.64L65.52,381.22L66.33,381.66L67.14,379.91L67.95,381.95L68.76,380.35L69.56,382.38L70.38,380.93L71.19,381.66L72,380.2L72.8,381.37L73.62,380.35L74.43,380.06L75.24,381.37L76.04,380.93L76.85,381.51L77.67,382.38L78.48,380.93L79.29,382.24L80.09,381.08L84.14,381.8L84.96,381.22L86.57,382.53L87.38,381.51L88.19,381.08L89.01,381.95L89.81,381.8L90.62,382.53L93.86,381.51L94.67,381.95L95.48,382.24L96.29,381.51L97.1,382.24L97.91,381.51L98.72,383.26L99.53,381.37L100.34,381.08L101.15,381.95L102.77,382.82L103.58,381.95L104.39,381.37L105.2,382.96L106.01,382.38L106.82,383.11L107.63,382.09L108.44,383.11L109.25,383.69L110.06,380.93L111.68,383.4L112.49,382.24L114.11,382.38L114.92,382.53L115.73,381.95L116.54,383.55L118.97,382.09L119.78,382.09L122.21,383.26L123.02,380.78L124.64,382.09L125.45,382.09L126.26,382.67L127.07,380.49L127.88,381.66L128.69,381.51L130.31,382.38L131.12,380.49L131.93,382.53L132.74,381.95L133.55,381.22L134.36,382.09L137.6,383.11L138.41,382.24L139.22,382.53L140.02,381.8L141.65,383.26L142.46,381.51L144.89,381.08L145.7,382.96L146.5,381.8L147.31,382.53L150.55,383.11L151.36,381.95L152.18,383.11L152.98,380.93L153.79,383.69L154.6,382.09L155.41,383.4L156.22,382.38L157.03,382.24L157.84,383.69L160.27,382.82L161.08,383.26L161.89,383.55L162.7,382.96L163.51,383.84L164.32,382.53L165.94,382.82L166.75,381.95L167.56,382.96L168.37,382.67L169.99,383.4L170.8,381.51L173.23,383.98L174.04,383.69L174.85,382.38L175.66,382.82L176.47,383.4L177.28,382.38L180.52,383.4L181.33,382.53L182.14,382.82L182.95,382.24L183.76,381.95L184.57,382.96L190.24,384.13L191.05,382.82L191.86,382.09L192.67,382.67L194.29,383.55L195.1,383.69L196.72,382.09L197.53,383.11L199.95,382.67L200.77,382.96L201.58,383.26L202.39,382.24L203.19,383.26L204,382.96L205.63,383.11L206.43,382.53L208.87,383.4L209.67,382.67L211.29,382.38L212.11,382.53L213.72,383.11L214.53,383.69L215.35,383.98L216.15,383.4L217.77,382.09L218.58,383.84L219.39,383.11L220.2,383.69L221.01,383.26L221.82,381.8L223.44,382.82L224.25,383.11L225.06,384.27L225.87,383.98L227.49,381.95L228.3,382.67L229.11,383.84L229.92,383.26L230.73,382.96L231.54,383.98L232.35,382.96L233.16,383.55L233.97,383.98L234.78,383.55L235.59,382.96L236.4,383.84L238.02,382.67L238.83,383.98L239.64,382.53L240.45,384.27L242.88,382.24L243.69,382.82L245.31,383.69L246.12,382.96L246.93,383.84L247.74,382.82L249.36,383.55L250.17,383.69L250.98,381.66L251.79,383.84L252.6,380.64L253.41,383.11L258.27,383.4L259.08,384.13L261.51,383.98L262.32,383.84L263.12,383.11L263.94,383.4L264.75,382.38L265.56,383.4L267.17,382.09L267.99,383.11L272.85,383.84L273.65,383.55L274.46,383.4L275.28,384.27L278.51,382.38L279.33,383.69L280.13,383.11L280.94,383.98L281.75,383.4L282.57,384.13L286.61,383.4L287.42,383.84L288.23,383.4L289.04,383.84L290.66,383.69L291.47,383.4L296.33,383.55L297.14,384.13L302.81,383.26L303.62,383.4L306.05,383.26L306.86,383.84L307.67,383.98L308.48,383.11L309.29,383.55L310.1,383.11L311.72,383.55L312.53,383.26L314.15,383.69L314.96,384.42L316.58,383.4L317.39,383.69L319.01,383.4L319.82,384.27L321.44,383.11L322.25,383.11L325.49,383.84L326.3,383.69L327.92,383.55L328.73,382.67L330.34,383.84L331.16,384.42L332.78,383.11L333.58,383.26L335.21,383.84L336.02,382.82L337.63,383.84L338.45,383.4L341.68,383.4L342.5,383.98L345.73,383.4L346.54,384.42L348.16,382.96L348.97,384.27L351.4,382.96L352.21,383.55L355.45,383.69L356.26,383.11L357.88,383.98L358.69,383.4L359.5,383.11L360.31,383.84L361.93,383.11L362.74,383.55L365.17,383.4L365.98,384.42L366.79,383.69L367.6,383.98L368.41,384.13L369.22,383.26L370.84,383.55L371.65,383.11L372.46,384.13L373.27,383.55L374.08,383.11L374.89,384.13L375.7,383.69L376.51,384.13L379.75,383.4L380.56,384.42L382.18,383.55L382.99,383.98L383.8,384.42L384.61,383.98L385.42,383.69L386.23,384.42L387.04,383.11L387.85,383.84L388.66,383.84L389.47,382.82L391.09,384.27L391.9,383.69L393.51,384.13L394.32,383.26L398.38,384.42L399.19,383.4L399.99,383.26L400.8,384.13L402.43,384.13L403.23,383.11L404.85,384.42L405.67,383.11L408.09,383.98L408.9,383.98L413.76,383.55L414.57,383.26L416.19,384.13L417,383.4L417.81,383.84L418.62,382.82L421.86,384.42L422.67,383.26L424.29,384.27L425.1,383.55L427.53,383.69L432.5,372.35L440.59,371.34L448.68,374.53L456.77,372.79L464.86,372.79L472.99,375.55L481.08,373.23L505.39,374.24L513.48,372.64L521.57,374.82L529.66,373.81L537.75,376.42L545.88,374.1L553.97,373.52L562.06,376.13L570.15,376.42L578.24,375.26L586.37,374.68L594.46,374.97L610.64,377.73L618.77,375.41L626.86,375.41L634.95,376.42L651.13,377.15L659.26,377.3L667.35,377.59L675.44,376.13L699.75,377.59L707.84,376.28L724.02,376.42L732.15,377.3L748.33,377.88L756.42,376.13L772.64,376.86L780.73,376.42L788.82,376.42L796.91,377.44L805.04,377L813.13,377.88L821.22,376.86L829.31,378.17L837.4,374.82L845.53,378.02L853.62,373.23L861.71,374.97L877.93,373.95L886.02,373.81L894.11,373.66L902.2,372.06L910.29,371.92L918.42,373.08L926.51,375.55L934.6,376.42L942.69,378.75L950.78,382.53L975.09,385L983.44,384.85L1025,384.27" style="vector-effect: none; fill: none; stroke: rgb(124, 181, 236); stroke-opacity: 1; stroke-width: 2px; opacity: 1;"/></g><g class="points"/><g class="text"/></g><g class="trace scatter trace3364ee" style="stroke-miterlimit: 2; opacity: 1;"><g class="fills"/><g class="errorbars"/><g class="lines"><path class="js-line" d="M0,19.25L1.62,354.33L2.44,365.67L3.25,365.67L4.06,370.32L4.87,372.21L5.68,370.75L7.31,376.13L8.12,375.41L8.93,374.53L9.74,378.46L11.36,376.71L12.18,377.88L12.99,377.88L13.8,379.33L14.61,377.88L15.43,378.6L17.86,379.33L18.67,378.75L19.48,378.6L20.3,381.22L23.54,378.6L24.35,380.06L25.17,378.17L25.98,380.78L26.79,380.06L27.6,377.73L29.22,380.64L30.04,380.78L30.85,379.77L31.66,381.08L34.1,377.73L34.91,378.6L35.72,380.49L36.53,380.2L37.34,379.77L38.16,378.46L38.97,380.35L39.78,379.19L40.59,381.22L41.4,378.75L42.21,379.33L43.03,378.6L44.65,380.2L45.46,377.15L47.09,380.06L47.9,379.62L48.71,381.22L49.52,379.62L50.33,380.49L51.14,380.06L51.96,382.09L52.77,380.64L53.58,378.89L54.39,381.51L56.83,380.49L57.64,381.66L59.26,380.2L60.08,380.49L62.51,379.77L63.32,381.37L64.13,380.49L64.95,381.66L65.76,380.35L66.57,380.93L68.19,381.37L69,381.51L69.82,380.06L70.63,381.95L71.44,381.95L72.25,380.64L73.87,382.09L74.69,380.49L76.31,382.09L77.12,381.66L77.93,380.93L78.75,382.09L81.99,381.22L82.8,382.09L84.43,381.95L85.24,379.19L86.87,381.8L87.67,382.24L89.3,380.93L90.11,381.66L90.92,380.93L91.74,381.22L92.55,382.24L93.36,381.66L94.17,383.26L94.98,382.38L96.61,380.93L97.42,382.09L98.23,380.93L99.04,382.24L100.66,381.51L101.48,380.93L103.1,382.38L103.91,380.64L105.54,383.11L106.35,382.53L107.16,381.22L107.97,382.24L108.78,382.38L109.6,381.37L112.84,382.96L113.65,382.38L116.9,381.95L117.71,383.26L119.34,381.95L120.15,381.8L120.96,381.51L121.77,382.67L123.4,381.22L124.21,381.95L126.64,383.11L127.45,382.96L129.89,382.53L130.7,383.26L133.14,381.95L133.95,382.67L134.76,382.24L135.57,383.11L136.39,380.64L137.2,381.22L138.01,382.53L138.82,382.38L141.26,383.26L142.07,382.24L144.5,382.09L145.31,383.11L146.13,381.66L146.94,382.67L147.75,382.67L148.56,381.37L150.19,382.38L151,381.66L152.62,382.67L153.43,382.09L154.25,383.98L155.06,382.38L155.87,383.11L156.68,381.95L158.3,383.26L159.12,382.24L159.93,383.11L160.74,382.67L161.55,382.09L162.36,382.53L164.8,382.96L165.61,383.4L167.23,382.82L168.05,382.53L170.48,382.82L171.29,382.53L173.73,383.11L174.54,382.38L175.35,382.67L176.17,381.51L178.6,383.4L179.41,382.82L181.04,382.53L181.85,383.4L183.47,382.24L184.28,383.11L186.72,383.11L187.53,383.84L188.34,382.82L189.15,383.11L189.96,382.38L190.78,383.11L191.59,383.84L192.4,383.26L193.21,382.38L194.02,383.4L195.65,382.24L196.46,383.84L197.27,382.96L198.08,383.55L199.71,382.09L200.52,383.11L201.33,383.55L202.14,382.67L202.95,383.11L203.76,381.51L205.39,382.67L206.2,381.95L207.01,383.69L207.83,382.09L209.45,383.98L210.26,382.09L211.88,382.67L212.7,383.11L214.32,383.55L215.13,383.55L215.95,383.11L216.75,383.55L219.19,382.09L220,383.26L220.82,382.09L221.62,383.26L223.25,383.84L224.06,382.82L225.69,382.82L226.5,381.8L228.12,382.96L228.93,383.11L229.74,383.55L230.56,382.53L231.37,383.4L232.18,382.67L232.99,383.26L233.8,382.53L234.62,383.4L235.43,382.82L237.05,383.98L237.86,382.96L238.67,382.82L239.49,383.98L240.3,382.82L241.11,383.55L243.54,383.4L244.36,382.53L245.17,383.26L245.98,382.96L248.41,383.69L249.23,383.26L250.04,383.84L250.85,382.67L251.66,383.98L252.48,383.69L253.28,382.82L254.1,383.26L254.91,383.11L255.72,383.98L257.35,383.69L258.16,383.55L259.78,382.82L260.59,383.98L263.84,383.55L264.65,383.69L265.46,384.13L266.28,382.96L269.52,383.11L270.33,384.27L271.15,384.13L271.96,382.82L273.58,383.69L274.39,382.82L275.21,383.84L276.02,382.67L278.45,383.84L279.27,383.55L280.89,383.26L281.7,383.98L283.32,383.55L284.14,383.98L287.38,382.82L288.19,384.13L289.01,382.82L289.82,383.69L291.44,384.27L292.26,383.69L293.88,383.84L294.69,383.98L297.13,382.67L297.94,382.82L299.56,383.55L300.37,382.53L302,384.27L302.81,383.55L306.05,382.96L306.87,383.84L309.3,382.24L310.11,382.96L312.55,383.69L313.36,383.84L314.98,383.98L315.8,383.26L320.67,383.26L321.48,383.98L322.29,383.4L323.1,384.13L323.92,383.98L324.72,382.82L327.16,383.69L327.97,383.55L328.79,383.11L329.6,383.69L331.22,384.27L332.03,383.55L333.66,383.98L334.47,383.11L336.91,383.69L337.71,383.55L338.53,384.42L339.34,383.55L340.15,384.27L340.96,382.67L341.78,384.13L342.59,383.55L344.21,381.95L345.02,382.38L346.65,383.84L347.46,384.27L349.08,383.98L349.89,383.84L350.7,384.71L351.52,383.69L353.14,383.98L353.95,383.55L355.58,383.98L356.39,383.98L357.2,384.42L358.01,383.98L359.63,383.4L360.45,383.98L362.07,383.55L362.88,384.27L367.75,383.84L368.57,382.82L369.37,384.42L370.19,382.96L371,384.27L371.81,383.55L374.25,384.13L375.06,383.26L378.31,383.84L379.12,383.84L380.74,382.67L381.55,383.69L383.18,383.26L383.99,384.13L385.61,383.84L386.42,384.27L389.67,383.55L390.48,383.69L393.73,383.84L394.54,382.67L395.36,382.67L396.17,383.55L398.6,383.4L399.41,383.98L400.23,383.26L401.04,384.42L404.28,383.69L405.1,384.27L407.53,383.11L408.35,382.82L410.78,384.13L411.59,383.84L413.22,384.13L414.03,382.09L414.84,384.85L415.65,384.71L417.27,383.26L418.09,383.98L418.9,383.26L419.71,383.55L423.77,383.84L424.58,383.11L425.39,384.42L426.2,383.69L427.83,383.26L435.46,373.66L443.59,372.64L451.72,373.81L459.81,371.77L467.94,374.39L484.16,373.95L492.3,375.11L500.43,376.13L508.52,373.66L516.65,373.37L524.78,376.42L541,374.24L549.14,376.86L565.36,374.68L573.49,375.99L589.71,377.88L597.84,376.71L605.93,377.15L614.07,375.26L622.2,378.02L630.29,375.99L638.42,375.55L646.55,376.42L654.64,376.86L662.77,375.7L670.91,376.28L678.99,379.48L695.26,377.73L703.35,377.15L743.97,376.86L752.1,375.99L760.19,375.26L768.32,376.13L776.45,377.59L784.54,377.15L792.67,378.31L800.81,378.31L808.9,377.73L817.03,375.41L825.16,378.02L833.25,376.71L841.38,377.59L849.51,376.57L857.6,375.26L865.74,375.41L873.87,374.39L881.96,371.92L898.22,370.32L906.31,373.66L914.44,372.5L922.58,373.08L930.67,374.68L938.8,378.75L946.93,379.48L955.02,382.82L979.37,385L987.59,385L1025,384.27" style="vector-effect: none; fill: none; stroke: rgb(67, 67, 72); stroke-opacity: 1; stroke-width: 2px; opacity: 1;"/></g><g class="points"/><g class="text"/></g></g></g></g><g class="zerolinelayer-above"/><path class="xlines-above crisp" d="M0,0" style="fill: none;"/><path class="ylines-above crisp" d="M0,0" style="fill: none;"/><g class="overlines-above"/><g class="xaxislayer-above"><g class="xtick"><text text-anchor="middle" x="0" y="451" transform="translate(273.88,0)" style="font-family: system-ui, -apple-system, 'Segoe UI', Roboto, 'Helvetica Neue', 'Noto Sans', 'Liberation Sans', Arial, sans-serif, 'Apple Color Emoji', 'Segoe UI Emoji', 'Segoe UI Symbol', 'Noto Color Emoji'; font-size: 10px; fill: rgb(80, 80, 80); fill-opacity: 1; white-space: pre;">5k</text></g><g class="xtick"><text text-anchor="middle" x="0" y="451" style="font-family: system-ui, -apple-system, 'Segoe UI', Roboto, 'Helvetica Neue', 'Noto Sans', 'Liberation Sans', Arial, sans-serif, 'Apple Color Emoji', 'Segoe UI Emoji', 'Segoe UI Symbol', 'Noto Color Emoji'; font-size: 10px; fill: rgb(80, 80, 80); fill-opacity: 1; white-space: pre;" transform="translate(487.88,0)">10k</text></g><g class="xtick"><text text-anchor="middle" x="0" y="451" style="font-family: system-ui, -apple-system, 'Segoe UI', Roboto, 'Helvetica Neue', 'Noto Sans', 'Liberation Sans', Arial, sans-serif, 'Apple Color Emoji', 'Segoe UI Emoji', 'Segoe UI Symbol', 'Noto Color Emoji'; font-size: 10px; fill: rgb(80, 80, 80); fill-opacity: 1; white-space: pre;" transform="translate(701.89,0)">15k</text></g><g class="xtick"><text text-anchor="middle" x="0" y="451" style="font-family: system-ui, -apple-system, 'Segoe UI', Roboto, 'Helvetica Neue', 'Noto Sans', 'Liberation Sans', Arial, sans-serif, 'Apple Color Emoji', 'Segoe UI Emoji', 'Segoe UI Symbol', 'Noto Color Emoji'; font-size: 10px; fill: rgb(80, 80, 80); fill-opacity: 1; white-space: pre;" transform="translate(915.9,0)">20k</text></g></g><g class="yaxislayer-above"><g class="ytick"><text text-anchor="end" x="54" y="3.5" transform="translate(0,435)" style="font-family: system-ui, -apple-system, 'Segoe UI', Roboto, 'Helvetica Neue', 'Noto Sans', 'Liberation Sans', Arial, sans-serif, 'Apple Color Emoji', 'Segoe UI Emoji', 'Segoe UI Symbol', 'Noto Color Emoji'; font-size: 10px; fill: rgb(80, 80, 80); fill-opacity: 1; white-space: pre;">0</text></g><g class="ytick"><text text-anchor="end" x="54" y="3.5" style="font-family: system-ui, -apple-system, 'Segoe UI', Roboto, 'Helvetica Neue', 'Noto Sans', 'Liberation Sans', Arial, sans-serif, 'Apple Color Emoji', 'Segoe UI Emoji', 'Segoe UI Symbol', 'Noto Color Emoji'; font-size: 10px; fill: rgb(80, 80, 80); fill-opacity: 1; white-space: pre;" transform="translate(0,362.32)">500</text></g><g class="ytick"><text text-anchor="end" x="54" y="3.5" style="font-family: system-ui, -apple-system, 'Segoe UI', Roboto, 'Helvetica Neue', 'Noto Sans', 'Liberation Sans', Arial, sans-serif, 'Apple Color Emoji', 'Segoe UI Emoji', 'Segoe UI Symbol', 'Noto Color Emoji'; font-size: 10px; fill: rgb(80, 80, 80); fill-opacity: 1; white-space: pre;" transform="translate(0,289.63)">1000</text></g><g class="ytick"><text text-anchor="end" x="54" y="3.5" style="font-family: system-ui, -apple-system, 'Segoe UI', Roboto, 'Helvetica Neue', 'Noto Sans', 'Liberation Sans', Arial, sans-serif, 'Apple Color Emoji', 'Segoe UI Emoji', 'Segoe UI Symbol', 'Noto Color Emoji'; font-size: 10px; fill: rgb(80, 80, 80); fill-opacity: 1; white-space: pre;" transform="translate(0,216.95)">1500</text></g><g class="ytick"><text text-anchor="end" x="54" y="3.5" style="font-family: system-ui, -apple-system, 'Segoe UI', Roboto, 'Helvetica Neue', 'Noto Sans', 'Liberation Sans', Arial, sans-serif, 'Apple Color Emoji', 'Segoe UI Emoji', 'Segoe UI Symbol', 'Noto Color Emoji'; font-size: 10px; fill: rgb(80, 80, 80); fill-opacity: 1; white-space: pre;" transform="translate(0,144.26)">2000</text></g><g class="ytick"><text text-anchor="end" x="54" y="3.5" style="font-family: system-ui, -apple-system, 'Segoe UI', Roboto, 'Helvetica Neue', 'Noto Sans', 'Liberation Sans', Arial, sans-serif, 'Apple Color Emoji', 'Segoe UI Emoji', 'Segoe UI Symbol', 'Noto Color Emoji'; font-size: 10px; fill: rgb(80, 80, 80); fill-opacity: 1; white-space: pre;" transform="translate(0,71.58)">2500</text></g></g><g class="overaxes-above"/></g></g><g class="polarlayer"/><g class="smithlayer"/><g class="ternarylayer"/><g class="geolayer"/><g class="funnelarealayer"/><g class="pielayer"/><g class="iciclelayer"/><g class="treemaplayer"/><g class="sunburstlayer"/><g class="glimages"/><defs id="topdefs-2be920"><g class="clips"/></defs><g class="layer-above"><g class="imagelayer"/><g class="shapelayer"/></g><g class="infolayer"><g class="g-gtitle"><text class="gtitle" x="550" y="25" text-anchor="middle" dy="0em" style="opacity: 1; font-family: system-ui, -apple-system, 'Segoe UI', Roboto, 'Helvetica Neue', 'Noto Sans', 'Liberation Sans', Arial, sans-serif, 'Apple Color Emoji', 'Segoe UI Emoji', 'Segoe UI Symbol', 'Noto Color Emoji'; font-size: 20px; fill: rgb(60, 60, 60); fill-opacity: 1; white-space: pre;"><tspan class="line" dy="0em" x="550" y="25">Bcftools Stats: Variant Quality Count</tspan><tspan class="line" dy="1.3em" x="550" y="25">​<tspan style="font-size:70%" dy="-0.6em">Count Transitions, 2 lines</tspan><tspan dy="0.42em">​</tspan></tspan></text></g><g class="g-xtitle"><text class="xtitle" x="572.5" y="487" text-anchor="middle" style="opacity: 1; font-family: system-ui, -apple-system, 'Segoe UI', Roboto, 'Helvetica Neue', 'Noto Sans', 'Liberation Sans', Arial, sans-serif, 'Apple Color Emoji', 'Segoe UI Emoji', 'Segoe UI Symbol', 'Noto Color Emoji'; font-size: 14px; fill: rgb(100, 100, 100); fill-opacity: 1; white-space: pre;">Quality</text></g><g class="g-ytitle"><text class="ytitle" transform="rotate(-90,22,242.5)" x="22" y="242.5" text-anchor="middle" style="opacity: 1; font-family: system-ui, -apple-system, 'Segoe UI', Roboto, 'Helvetica Neue', 'Noto Sans', 'Liberation Sans', Arial, sans-serif, 'Apple Color Emoji', 'Segoe UI Emoji', 'Segoe UI Symbol', 'Noto Color Emoji'; font-size: 14px; fill: rgb(100, 100, 100); fill-opacity: 1; white-space: pre;">Count</text></g></g></svg>