<svg class="main-svg" xmlns="http://www.w3.org/2000/svg" xmlns:xlink="http://www.w3.org/1999/xlink" width="2200" height="1000" style="" viewBox="0 0 1100 500"><rect x="0" y="0" width="1100" height="500" style="fill: rgb(255, 255, 255); fill-opacity: 1;"/><defs id="defs-b97da6"><g class="clips"><clipPath id="clipb97da6xyplot" class="plotclip"><rect width="1025" height="385"/></clipPath><clipPath class="axesclip" id="clipb97da6x"><rect x="60" y="0" width="1025" height="500"/></clipPath><clipPath class="axesclip" id="clipb97da6y"><rect x="0" y="50" width="1100" height="385"/></clipPath><clipPath class="axesclip" id="clipb97da6xy"><rect x="60" y="50" width="1025" height="385"/></clipPath></g><g class="gradients"/><g class="patterns"/></defs><g class="bglayer"/><g class="layer-below"><g class="imagelayer"/><g class="shapelayer"/></g><g class="cartesianlayer"><g class="subplot xy"><g class="layer-subplot"><g class="shapelayer"/><g class="imagelayer"/></g><g class="minor-gridlayer"><g class="x"/><g class="y"/></g><g class="gridlayer"><g class="x"><path class="xgrid crisp" transform="translate(273.88,0)" d="M0,50v385" style="stroke: rgb(128, 128, 128); stroke-opacity: 0.15; stroke-width: 1px;"/><path class="xgrid crisp" transform="translate(487.88,0)" d="M0,50v385" style="stroke: rgb(128, 128, 128); stroke-opacity: 0.15; stroke-width: 1px;"/><path class="xgrid crisp" transform="translate(701.89,0)" d="M0,50v385" style="stroke: rgb(128, 128, 128); stroke-opacity: 0.15; stroke-width: 1px;"/><path class="xgrid crisp" transform="translate(915.9,0)" d="M0,50v385" style="stroke: rgb(128, 128, 128); stroke-opacity: 0.15; stroke-width: 1px;"/></g><g class="y"><path class="ygrid crisp" transform="translate(0,364.89)" d="M60,0h1025" style="stroke: rgb(128, 128, 128); stroke-opacity: 0.15; stroke-width: 1px;"/><path class="ygrid crisp" transform="translate(0,294.78999999999996)" d="M60,0h1025" style="stroke: rgb(128, 128, 128); stroke-opacity: 0.15; stroke-width: 1px;"/><path class="ygrid crisp" transform="translate(0,224.68)" d="M60,0h1025" style="stroke: rgb(128, 128, 128); stroke-opacity: 0.15; stroke-width: 1px;"/><path class="ygrid crisp" transform="translate(0,154.57)" d="M60,0h1025" style="stroke: rgb(128, 128, 128); stroke-opacity: 0.15; stroke-width: 1px;"/><path class="ygrid crisp" transform="translate(0,84.46000000000001)" d="M60,0h1025" style="stroke: rgb(128, 128, 128); stroke-opacity: 0.15; stroke-width: 1px;"/></g></g><g class="zerolinelayer"><path class="yzl zl crisp" transform="translate(0,435)" d="M60,0h1025" style="stroke: rgb(128, 128, 128); stroke-opacity: 0.2; stroke-width: 1px;"/></g><g class="layer-between"><g class="shapelayer"/><g class="imagelayer"/></g><path class="xlines-below"/><path class="ylines-below"/><g class="overlines-below"/><g class="xaxislayer-below"/><g class="yaxislayer-below"/><g class="overaxes-below"/><g class="overplot"><g class="xy" transform="translate(60,50)" clip-path="url(#clipb97da6xyplot)"><g class="scatterlayer mlayer"><g class="trace scatter traceb885ab" style="stroke-miterlimit: 2; opacity: 1;"><g class="fills"/><g class="errorbars"/><g class="lines"><path class="js-line" d="M0.73,317.07L2.35,355.84L3.16,363.41L5.59,371.68L6.4,373.57L7.21,372.94L8.02,373.57L8.83,361.79L9.63,375.54L11.26,373.29L12.07,377.01L12.87,376.38L13.68,374.62L14.5,378.48L15.31,376.8L18.55,377.92L19.35,379.18L20.16,378.97L20.97,377.57L23.4,379.6L24.21,377.43L26.64,378.48L27.45,378.55L29.88,380.09L30.69,379.67L31.5,378.2L32.31,378.76L33.93,379.88L34.74,379.32L35.55,378.76L36.36,379.88L37.17,378.55L37.98,379.95L38.79,380.09L39.6,379.18L42.03,379.11L42.84,380.37L43.65,379.11L44.46,379.6L45.27,379.39L46.08,380.09L47.7,379.88L48.51,380.02L50.94,379.46L51.75,380.3L52.56,379.11L53.37,380.23L56.61,379.18L57.42,380.09L58.23,380.58L59.04,379.95L60.66,379.88L61.47,381.14L63.09,379.88L63.9,380.72L66.33,381.28L67.14,379.81L67.95,381.35L68.76,380.37L69.56,382.06L70.38,380.93L71.19,381.56L72,380.23L76.04,381.49L76.85,380.86L77.67,381.78L78.48,380.93L79.29,381.92L80.09,381.56L80.9,381.78L81.72,380.79L83.33,381.99L84.14,381.42L84.96,380.65L85.77,381.14L86.57,382.13L87.38,380.51L89.01,381.7L89.81,381.49L92.25,381.28L93.05,382.06L93.86,381.07L94.67,381.56L96.29,381.63L97.1,382.34L97.91,381.56L98.72,382.27L100.34,380.58L101.15,381.56L102.77,381.56L103.58,381.99L105.2,381.85L106.01,381.7L106.82,382.27L107.63,381.85L109.25,382.27L110.06,380.93L111.68,382.06L112.49,382.06L113.3,381.14L114.11,381.85L116.54,382.9L117.35,381.7L119.78,381.85L120.59,381.56L121.4,381.21L122.21,382.41L123.02,380.65L123.83,381.14L126.26,382.41L127.07,381.07L127.88,382.27L128.69,381.28L129.5,382.13L130.31,381.42L131.12,380.86L131.93,382.41L133.55,381.7L134.36,381.21L135.98,382.55L136.78,381.85L139.22,382.27L140.02,381.42L140.84,382.9L141.65,382.13L144.07,381.14L144.89,381.49L146.5,382.13L147.31,382.06L150.55,382.76L151.36,381.99L152.18,382.76L152.98,381.92L153.79,382.97L154.6,382.13L155.41,383.11L156.22,382.27L162.7,382.76L163.51,383.04L165.13,382.27L165.94,382.83L166.75,381.99L167.56,382.9L168.37,382.41L169.18,382.9L169.99,382.97L170.8,382.13L174.04,383.18L174.85,382.69L175.66,382.34L176.47,383.25L177.28,382.13L178.09,382.41L180.52,383.53L181.33,382.76L182.95,382.27L183.76,382.55L187.81,382.69L188.62,383.39L189.43,382.83L190.24,383.32L191.86,382.83L192.67,382.76L195.1,382.55L195.91,382.13L196.72,382.27L197.53,383.39L198.34,382.76L199.15,383.11L202.39,382.55L203.19,383.11L204,383.53L204.82,382.9L206.43,382.41L207.24,382.76L208.87,383.39L209.67,382.13L210.48,382.41L211.29,381.85L212.11,383.11L212.91,382.76L217.77,382.55L218.58,383.6L219.39,382.62L220.2,383.11L222.63,382.34L223.44,382.48L225.06,383.32L225.87,383.53L229.11,383.18L229.92,383.32L230.73,382.83L231.54,383.39L233.16,382.9L233.97,383.32L237.21,382.9L238.02,382.55L238.83,383.25L239.64,382.41L240.45,383.53L241.26,383.32L243.69,383.04L244.5,383.74L246.12,383.04L246.93,383.32L248.55,382.41L249.36,383.11L250.17,383.6L250.98,382.06L251.79,383.04L252.6,382.41L254.22,382.76L255.03,383.04L257.46,382.55L258.27,383.39L263.12,383.25L263.94,383.18L264.75,382.76L265.56,383.46L267.17,382.76L267.99,383.39L268.8,382.69L269.61,383.25L270.41,383.53L271.22,382.76L272.85,383.39L273.65,383.18L274.46,382.97L275.28,383.67L278.51,382.55L279.33,383.11L282.57,383.6L283.37,383.53L284.99,383.25L285.8,383.25L286.61,382.83L287.42,383.6L289.04,383.18L289.85,383.39L291.47,383.25L292.28,382.83L293.09,383.53L293.9,383.18L297.14,383.95L297.95,383.53L301.19,383.04L302,383.18L304.43,382.9L305.24,383.6L306.05,382.9L306.86,383.53L309.29,383.32L310.1,382.76L311.72,383.25L312.53,382.9L315.77,383.6L316.58,383.53L323.87,383.32L324.68,383.74L327.92,383.46L328.73,382.76L331.16,383.6L331.97,383.25L332.78,383.04L333.58,383.67L334.39,383.18L335.21,383.81L336.02,382.9L336.82,383.46L338.45,383.04L339.26,382.76L340.87,383.46L341.68,382.83L343.3,383.88L344.11,383.11L346.54,383.81L347.35,383.11L348.97,383.95L349.78,383.46L352.21,383.25L353.02,383.67L354.64,383.46L355.45,383.46L357.07,383.53L357.88,384.02L358.69,383.04L359.5,383.46L360.31,383.88L361.12,383.04L365.17,383.6L365.98,384.23L366.79,383.32L367.6,383.6L368.41,383.95L369.22,383.32L371.65,383.32L372.46,384.16L373.27,382.76L374.08,383.11L374.89,383.88L375.7,383.32L377.32,383.88L378.13,383.32L380.56,383.67L381.37,383.25L383.8,384.02L384.61,384.02L387.04,383.04L387.85,383.95L393.51,383.6L394.32,383.81L400.8,383.81L401.61,384.3L403.23,382.76L404.04,384.16L407.28,383.53L408.09,383.95L411.33,383.39L412.14,384.16L412.95,383.6L413.76,384.02L414.57,382.97L415.38,383.39L417,383.67L417.81,383.95L419.43,383.25L420.24,383.53L421.86,384.3L422.67,383.88L423.48,383.32L424.29,384.09L426.72,383.6L427.53,383.32L432.5,372.03L440.59,371.82L456.77,372.24L464.86,372.66L472.99,374.83L481.08,372.94L513.48,372.66L521.57,374.2L529.66,372.59L537.75,374.41L545.88,374.34L553.97,373.43L570.15,375.18L578.24,374.27L586.37,375.33L594.46,373.15L610.64,375.96L618.77,374.9L626.86,374.55L634.95,375.82L643.04,375.04L651.13,377.36L659.26,375.04L667.35,376.52L675.44,375.11L683.53,375.61L691.66,376.73L699.75,376.45L707.84,375.33L715.93,376.24L724.02,375.96L732.15,377.08L740.24,377.85L748.33,377.15L756.42,376.03L764.51,376.87L772.64,376.03L780.73,376.52L788.82,376.24L796.91,376.73L813.13,376.8L821.22,375.68L829.31,376.45L837.4,374.76L845.53,376.17L853.62,374.2L861.71,374.76L869.8,372.94L902.2,371.75L910.29,370.35L918.42,371.61L926.51,374.69L934.6,375.26L942.69,377.71L950.78,380.93L958.91,382.97L967,384.3L975.09,384.86L1025,384.23" style="vector-effect: none; fill: none; stroke: rgb(124, 181, 236); stroke-opacity: 1; stroke-width: 2px; opacity: 1;"/></g><g class="points"/><g class="text"/></g><g class="trace scatter trace2dff53" style="stroke-miterlimit: 2; opacity: 1;"><g class="fills"/><g class="errorbars"/><g class="lines"><path class="js-line" d="M0,19.25L1.62,347.7L2.44,359.9L4.87,369.86L5.68,369.23L7.31,374.55L8.12,374.2L10.55,376.59L11.36,376.17L12.18,375.47L12.99,376.1L14.61,377.22L15.43,377.78L16.23,377.78L17.05,379.32L17.86,377.5L18.67,378.9L21.11,379.81L21.92,379.39L23.54,377.29L24.35,379.18L25.17,377.01L25.98,378.55L26.79,379.74L27.6,377.71L29.22,379.46L30.04,379.32L30.85,378.9L31.66,380.02L33.29,379.04L34.1,377.57L35.72,379.74L36.53,379.53L37.34,379.95L38.16,378.27L38.97,379.39L39.78,378.76L40.59,380.16L41.4,378.48L42.21,379.18L43.03,378.69L44.65,379.95L45.46,377.29L47.09,380.02L47.9,378.62L48.71,379.95L49.52,379.04L50.33,379.11L51.14,380.02L51.96,380.65L52.77,380.3L53.58,378.83L54.39,380.86L55.21,380.93L56.01,379.11L57.64,381.7L58.45,380.16L59.26,379.74L60.08,380.3L63.32,380.58L64.13,380.86L64.95,381.56L65.76,380.02L67.38,381.07L68.19,380.86L69,381.42L69.82,380.37L71.44,381.35L72.25,379.88L73.87,381.14L74.69,380.16L76.31,381.35L77.12,380.58L79.56,381.78L80.37,381.07L84.43,381.35L85.24,380.16L86.87,381.63L87.67,381.14L89.3,381L90.11,382.13L90.92,380.3L91.74,381.21L92.55,381.63L93.36,381L94.98,382.27L95.79,380.79L96.61,380.44L97.42,381.49L98.23,381.21L99.04,381.78L99.86,381.21L100.66,382.13L101.48,380.72L102.29,381.35L103.1,382.41L103.91,380.79L104.73,382.69L105.54,381.56L106.35,382.06L107.16,380.65L108.78,382.06L109.6,380.72L110.41,382.27L111.22,381.49L113.65,381.85L114.47,381.63L116.09,382.06L116.9,381.56L118.53,382.13L119.34,381.42L121.77,381.7L122.58,380.93L125.83,381.99L126.64,382.06L127.45,382.83L128.27,382.41L129.08,381.85L129.89,382.55L131.52,382.62L132.32,381.56L135.57,382.34L136.39,381.42L140.44,382.55L141.26,382.62L142.88,381.42L143.69,382.13L144.5,381.78L145.31,382.41L146.13,381.35L146.94,382.55L150.19,381.92L151,382.06L152.62,382.41L153.43,382.06L154.25,382.9L155.06,382.27L155.87,382.48L156.68,381.56L157.49,381.78L158.3,382.97L159.12,382.27L159.93,382.69L160.74,382.06L161.55,382.41L163.18,382.97L163.99,381.99L165.61,383.04L166.42,382.34L167.23,382.9L168.05,382.27L168.86,382.97L169.67,382.41L172.1,383.25L172.92,382.34L175.35,382.41L176.17,381.7L178.6,383.18L179.41,382.55L185.91,382.48L186.72,383.6L189.15,382.55L189.96,382.55L192.4,382.76L193.21,382.55L194.02,382.76L194.84,381.99L198.08,383.25L198.89,382.62L200.52,382.76L201.33,383.25L202.14,382.55L202.95,383.18L203.76,381.78L204.58,382.62L205.39,383.04L206.2,382.48L207.01,383.32L207.83,382.41L209.45,383.11L210.26,382.34L213.51,382.69L214.32,383.6L215.95,382.83L216.75,383.32L219.19,382.62L220,383.18L220.82,382.34L221.62,382.97L223.25,383.25L224.06,382.2L226.5,382.83L227.31,382.69L228.12,383.6L228.93,382.97L229.74,383.46L230.56,382.55L231.37,382.97L232.18,382.48L232.99,382.9L233.8,382.34L235.43,383.11L236.24,383.25L238.67,382.97L239.49,383.46L240.3,382.76L241.11,383.67L242.73,383.6L243.54,382.48L245.17,382.48L245.98,382.62L247.61,383.53L248.41,383.32L249.23,383.53L250.04,382.9L251.66,383.46L252.48,383.74L253.28,382.2L254.1,383.25L255.72,383.67L256.53,382.9L258.16,383.04L258.97,383.46L259.78,382.76L260.59,383.95L262.22,383.04L263.03,383.74L264.65,383.04L265.46,383.46L267.09,383.18L267.9,382.9L269.52,383.32L270.33,383.88L271.15,383.88L271.96,382.83L276.02,383.32L276.83,383.32L281.7,383.18L282.51,383.32L285.76,383.32L286.57,382.76L288.19,383.67L289.01,382.97L290.63,383.25L291.44,383.39L293.06,383.32L293.88,383.46L294.69,383.74L295.5,383.04L296.31,383.39L297.13,382.76L298.75,382.97L299.56,383.32L300.37,382.76L301.18,383.53L302.81,383.6L303.62,383.39L305.24,383.6L306.05,382.76L307.68,383.6L308.49,383.18L310.11,382.83L310.93,382.97L314.17,383.74L314.98,383.18L318.23,383.04L319.04,383.32L323.92,383.53L324.72,382.76L326.35,383.67L327.16,383.53L333.66,383.81L334.47,382.9L335.28,383.46L336.09,382.83L338.53,384.02L339.34,383.46L340.15,383.81L340.96,382.97L341.78,383.81L342.59,382.97L343.4,383.04L344.21,381.92L346.65,383.74L347.46,383.67L348.27,383.39L349.08,384.02L349.89,383.39L350.7,384.3L352.33,383.74L353.14,383.74L354.76,383.32L355.58,383.67L358.01,383.67L358.82,383.18L362.07,383.81L362.88,383.53L366.13,383.95L366.94,383.53L368.57,383.04L369.37,383.74L370.19,383.11L371,383.88L376.68,383.67L377.49,384.16L380.74,383.18L381.55,383.67L384.8,383.53L385.61,384.02L389.67,383.46L390.48,384.02L392.92,383.25L393.73,383.95L395.36,383.25L396.17,383.39L399.41,384.09L400.23,383.46L401.85,383.88L402.66,383.53L406.72,383.88L407.53,383.04L409.15,383.39L409.97,383.53L411.59,384.02L412.4,383.46L413.22,384.37L414.03,382.97L415.65,384.44L416.46,383.25L418.09,384.09L418.9,383.39L421.33,383.95L422.14,383.32L423.77,384.02L424.58,382.83L425.39,384.37L426.2,383.39L427.83,383.6L435.46,373.29L443.59,371.75L451.72,373.43L459.81,372.17L467.94,372.52L476.07,372.8L484.16,371.96L492.3,373.78L500.43,374.06L508.52,372.59L516.65,374.41L524.78,375.11L532.87,373.43L549.14,375.54L557.23,375.4L573.49,374.27L581.58,374.69L589.71,376.1L597.84,375.4L605.93,376.03L614.07,374.55L622.2,376.8L630.29,374.69L638.42,374.76L646.55,376.31L670.91,375.11L678.99,378.13L687.13,376.66L695.26,376.8L711.48,375.54L719.61,376.45L727.75,376.03L735.83,377.57L743.97,376.45L752.1,376.66L760.19,375.82L768.32,376.03L776.45,377.08L784.54,376.59L800.81,377.57L808.9,377.01L817.03,376.31L825.16,377.43L833.25,376.1L841.38,376.45L849.51,376.52L857.6,375.26L865.74,375.04L873.87,372.87L898.22,370.35L906.31,373.08L914.44,371.68L922.58,372.59L930.67,373.29L938.8,378.48L946.93,379.95L955.02,382.27L971.28,384.3L979.37,385L1025,384.23" style="vector-effect: none; fill: none; stroke: rgb(67, 67, 72); stroke-opacity: 1; stroke-width: 2px; opacity: 1;"/></g><g class="points"/><g class="text"/></g></g></g></g><g class="zerolinelayer-above"/><path class="xlines-above crisp" d="M0,0" style="fill: none;"/><path class="ylines-above crisp" d="M0,0" style="fill: none;"/><g class="overlines-above"/><g class="xaxislayer-above"><g class="xtick"><text text-anchor="middle" x="0" y="451" transform="translate(273.88,0)" style="font-family: system-ui, -apple-system, 'Segoe UI', Roboto, 'Helvetica Neue', 'Noto Sans', 'Liberation Sans', Arial, sans-serif, 'Apple Color Emoji', 'Segoe UI Emoji', 'Segoe UI Symbol', 'Noto Color Emoji'; font-size: 10px; fill: rgb(80, 80, 80); fill-opacity: 1; white-space: pre;">5k</text></g><g class="xtick"><text text-anchor="middle" x="0" y="451" style="font-family: system-ui, -apple-system, 'Segoe UI', Roboto, 'Helvetica Neue', 'Noto Sans', 'Liberation Sans', Arial, sans-serif, 'Apple Color Emoji', 'Segoe UI Emoji', 'Segoe UI Symbol', 'Noto Color Emoji'; font-size: 10px; fill: rgb(80, 80, 80); fill-opacity: 1; white-space: pre;" transform="translate(487.88,0)">10k</text></g><g class="xtick"><text text-anchor="middle" x="0" y="451" style="font-family: system-ui, -apple-system, 'Segoe UI', Roboto, 'Helvetica Neue', 'Noto Sans', 'Liberation Sans', Arial, sans-serif, 'Apple Color Emoji', 'Segoe UI Emoji', 'Segoe UI Symbol', 'Noto Color Emoji'; font-size: 10px; fill: rgb(80, 80, 80); fill-opacity: 1; white-space: pre;" transform="translate(701.89,0)">15k</text></g><g class="xtick"><text text-anchor="middle" x="0" y="451" style="font-family: system-ui, -apple-system, 'Segoe UI', Roboto, 'Helvetica Neue', 'Noto Sans', 'Liberation Sans', Arial, sans-serif, 'Apple Color Emoji', 'Segoe UI Emoji', 'Segoe UI Symbol', 'Noto Color Emoji'; font-size: 10px; fill: rgb(80, 80, 80); fill-opacity: 1; white-space: pre;" transform="translate(915.9,0)">20k</text></g></g><g class="yaxislayer-above"><g class="ytick"><text text-anchor="end" x="54" y="3.5" transform="translate(0,435)" style="font-family: system-ui, -apple-system, 'Segoe UI', Roboto, 'Helvetica Neue', 'Noto Sans', 'Liberation Sans', Arial, sans-serif, 'Apple Color Emoji', 'Segoe UI Emoji', 'Segoe UI Symbol', 'Noto Color Emoji'; font-size: 10px; fill: rgb(80, 80, 80); fill-opacity: 1; white-space: pre;">0</text></g><g class="ytick"><text text-anchor="end" x="54" y="3.5" style="font-family: system-ui, -apple-system, 'Segoe UI', Roboto, 'Helvetica Neue', 'Noto Sans', 'Liberation Sans', Arial, sans-serif, 'Apple Color Emoji', 'Segoe UI Emoji', 'Segoe UI Symbol', 'Noto Color Emoji'; font-size: 10px; fill: rgb(80, 80, 80); fill-opacity: 1; white-space: pre;" transform="translate(0,364.89)">1000</text></g><g class="ytick"><text text-anchor="end" x="54" y="3.5" style="font-family: system-ui, -apple-system, 'Segoe UI', Roboto, 'Helvetica Neue', 'Noto Sans', 'Liberation Sans', Arial, sans-serif, 'Apple Color Emoji', 'Segoe UI Emoji', 'Segoe UI Symbol', 'Noto Color Emoji'; font-size: 10px; fill: rgb(80, 80, 80); fill-opacity: 1; white-space: pre;" transform="translate(0,294.78999999999996)">2000</text></g><g class="ytick"><text text-anchor="end" x="54" y="3.5" style="font-family: system-ui, -apple-system, 'Segoe UI', Roboto, 'Helvetica Neue', 'Noto Sans', 'Liberation Sans', Arial, sans-serif, 'Apple Color Emoji', 'Segoe UI Emoji', 'Segoe UI Symbol', 'Noto Color Emoji'; font-size: 10px; fill: rgb(80, 80, 80); fill-opacity: 1; white-space: pre;" transform="translate(0,224.68)">3000</text></g><g class="ytick"><text text-anchor="end" x="54" y="3.5" style="font-family: system-ui, -apple-system, 'Segoe UI', Roboto, 'Helvetica Neue', 'Noto Sans', 'Liberation Sans', Arial, sans-serif, 'Apple Color Emoji', 'Segoe UI Emoji', 'Segoe UI Symbol', 'Noto Color Emoji'; font-size: 10px; fill: rgb(80, 80, 80); fill-opacity: 1; white-space: pre;" transform="translate(0,154.57)">4000</text></g><g class="ytick"><text text-anchor="end" x="54" y="3.5" style="font-family: system-ui, -apple-system, 'Segoe UI', Roboto, 'Helvetica Neue', 'Noto Sans', 'Liberation Sans', Arial, sans-serif, 'Apple Color Emoji', 'Segoe UI Emoji', 'Segoe UI Symbol', 'Noto Color Emoji'; font-size: 10px; fill: rgb(80, 80, 80); fill-opacity: 1; white-space: pre;" transform="translate(0,84.46000000000001)">5000</text></g></g><g class="overaxes-above"/></g></g><g class="polarlayer"/><g class="smithlayer"/><g class="ternarylayer"/><g class="geolayer"/><g class="funnelarealayer"/><g class="pielayer"/><g class="iciclelayer"/><g class="treemaplayer"/><g class="sunburstlayer"/><g class="glimages"/><defs id="topdefs-b97da6"><g class="clips"/></defs><g class="layer-above"><g class="imagelayer"/><g class="shapelayer"/></g><g class="infolayer"><g class="g-gtitle"><text class="gtitle" x="550" y="25" text-anchor="middle" dy="0em" style="opacity: 1; font-family: system-ui, -apple-system, 'Segoe UI', Roboto, 'Helvetica Neue', 'Noto Sans', 'Liberation Sans', Arial, sans-serif, 'Apple Color Emoji', 'Segoe UI Emoji', 'Segoe UI Symbol', 'Noto Color Emoji'; font-size: 20px; fill: rgb(60, 60, 60); fill-opacity: 1; white-space: pre;"><tspan class="line" dy="0em" x="550" y="25">Bcftools Stats: Variant Quality Count</tspan><tspan class="line" dy="1.3em" x="550" y="25">​<tspan style="font-size:70%" dy="-0.6em">Count SNP, 2 lines</tspan><tspan dy="0.42em">​</tspan></tspan></text></g><g class="g-xtitle"><text class="xtitle" x="572.5" y="487" text-anchor="middle" style="opacity: 1; font-family: system-ui, -apple-system, 'Segoe UI', Roboto, 'Helvetica Neue', 'Noto Sans', 'Liberation Sans', Arial, sans-serif, 'Apple Color Emoji', 'Segoe UI Emoji', 'Segoe UI Symbol', 'Noto Color Emoji'; font-size: 14px; fill: rgb(100, 100, 100); fill-opacity: 1; white-space: pre;">Quality</text></g><g class="g-ytitle"><text class="ytitle" transform="rotate(-90,22,242.5)" x="22" y="242.5" text-anchor="middle" style="opacity: 1; font-family: system-ui, -apple-system, 'Segoe UI', Roboto, 'Helvetica Neue', 'Noto Sans', 'Liberation Sans', Arial, sans-serif, 'Apple Color Emoji', 'Segoe UI Emoji', 'Segoe UI Symbol', 'Noto Color Emoji'; font-size: 14px; fill: rgb(100, 100, 100); fill-opacity: 1; white-space: pre;">Count</text></g></g></svg>