<svg class="main-svg" xmlns="http://www.w3.org/2000/svg" xmlns:xlink="http://www.w3.org/1999/xlink" width="2200" height="1000" style="" viewBox="0 0 1100 500"><rect x="0" y="0" width="1100" height="500" style="fill: rgb(255, 255, 255); fill-opacity: 1;"/><defs id="defs-06f5b3"><g class="clips"><clipPath id="clip06f5b3xyplot" class="plotclip"><rect width="1025" height="385"/></clipPath><clipPath class="axesclip" id="clip06f5b3x"><rect x="60" y="0" width="1025" height="500"/></clipPath><clipPath class="axesclip" id="clip06f5b3y"><rect x="0" y="50" width="1100" height="385"/></clipPath><clipPath class="axesclip" id="clip06f5b3xy"><rect x="60" y="50" width="1025" height="385"/></clipPath></g><g class="gradients"/><g class="patterns"/></defs><g class="bglayer"/><g class="layer-below"><g class="imagelayer"/><g class="shapelayer"/></g><g class="cartesianlayer"><g class="subplot xy"><g class="layer-subplot"><g class="shapelayer"/><g class="imagelayer"/></g><g class="minor-gridlayer"><g class="x"/><g class="y"/></g><g class="gridlayer"><g class="x"><path class="xgrid crisp" transform="translate(273.88,0)" d="M0,50v385" style="stroke: rgb(128, 128, 128); stroke-opacity: 0.15; stroke-width: 1px;"/><path class="xgrid crisp" transform="translate(487.88,0)" d="M0,50v385" style="stroke: rgb(128, 128, 128); stroke-opacity: 0.15; stroke-width: 1px;"/><path class="xgrid crisp" transform="translate(701.89,0)" d="M0,50v385" style="stroke: rgb(128, 128, 128); stroke-opacity: 0.15; stroke-width: 1px;"/><path class="xgrid crisp" transform="translate(915.9,0)" d="M0,50v385" style="stroke: rgb(128, 128, 128); stroke-opacity: 0.15; stroke-width: 1px;"/></g><g class="y"><path class="ygrid crisp" transform="translate(0,381.61)" d="M60,0h1025" style="stroke: rgb(128, 128, 128); stroke-opacity: 0.15; stroke-width: 1px;"/><path class="ygrid crisp" transform="translate(0,328.21)" d="M60,0h1025" style="stroke: rgb(128, 128, 128); stroke-opacity: 0.15; stroke-width: 1px;"/><path class="ygrid crisp" transform="translate(0,274.82)" d="M60,0h1025" style="stroke: rgb(128, 128, 128); stroke-opacity: 0.15; stroke-width: 1px;"/><path class="ygrid crisp" transform="translate(0,221.42)" d="M60,0h1025" style="stroke: rgb(128, 128, 128); stroke-opacity: 0.15; stroke-width: 1px;"/><path class="ygrid crisp" transform="translate(0,168.03)" d="M60,0h1025" style="stroke: rgb(128, 128, 128); stroke-opacity: 0.15; stroke-width: 1px;"/><path class="ygrid crisp" transform="translate(0,114.64)" d="M60,0h1025" style="stroke: rgb(128, 128, 128); stroke-opacity: 0.15; stroke-width: 1px;"/><path class="ygrid crisp" transform="translate(0,61.24)" d="M60,0h1025" style="stroke: rgb(128, 128, 128); stroke-opacity: 0.15; stroke-width: 1px;"/></g></g><g class="zerolinelayer"><path class="yzl zl crisp" transform="translate(0,435)" d="M60,0h1025" style="stroke: rgb(128, 128, 128); stroke-opacity: 0.2; stroke-width: 1px;"/></g><g class="layer-between"><g class="shapelayer"/><g class="imagelayer"/></g><path class="xlines-below"/><path class="ylines-below"/><g class="overlines-below"/><g class="xaxislayer-below"/><g class="yaxislayer-below"/><g class="overaxes-below"/><g class="overplot"><g class="xy" transform="translate(60,50)" clip-path="url(#clip06f5b3xyplot)"><g class="scatterlayer mlayer"><g class="trace scatter tracecbda46" style="stroke-miterlimit: 2; opacity: 1;"><g class="fills"/><g class="errorbars"/><g class="lines"><path class="js-line" d="M0.73,385L1025,385" style="vector-effect: none; fill: none; stroke: rgb(124, 181, 236); stroke-opacity: 1; stroke-width: 2px; opacity: 1;"/></g><g class="points"/><g class="text"/></g><g class="trace scatter tracedddcc9" style="stroke-miterlimit: 2; opacity: 1;"><g class="fills"/><g class="errorbars"/><g class="lines"><path class="js-line" d="M0,19.25L1.62,299.57L2.44,299.57L4.06,304.91L4.87,320.93L5.68,307.58L6.49,320.93L8.12,352.96L8.93,342.28L9.74,342.28L10.55,336.95L12.18,360.97L12.99,360.97L13.8,347.62L14.61,347.62L15.43,347.62L16.23,352.96L17.05,360.97L17.86,347.62L18.67,360.97L19.48,360.97L20.3,355.63L21.11,360.97L21.92,366.31L22.73,358.3L23.54,352.96L24.35,358.3L25.17,352.96L25.98,358.3L26.79,360.97L27.6,360.97L28.41,342.28L29.22,352.96L30.04,360.97L30.85,344.95L31.66,358.3L32.47,347.62L33.29,358.3L34.1,355.63L35.72,363.64L36.53,352.96L37.34,368.98L38.16,355.63L38.97,360.97L39.78,360.97L40.59,366.31L41.4,347.62L43.03,366.31L43.84,358.3L44.65,355.63L45.46,339.61L47.09,371.65L47.9,352.96L48.71,347.62L49.52,355.63L50.33,363.64L51.14,363.64L51.96,368.98L52.77,366.31L53.58,368.98L54.39,352.96L55.21,371.65L56.01,358.3L56.83,352.96L57.64,358.3L58.45,344.95L59.26,371.65L60.08,347.62L60.88,352.96L61.7,355.63L62.51,344.95L64.95,371.65L65.76,360.97L66.57,371.65L67.38,368.98L68.19,371.65L69,368.98L70.63,358.3L71.44,358.3L72.25,355.63L73.06,342.28L73.87,355.63L74.69,355.63L75.5,366.31L76.31,360.97L77.12,363.64L77.93,368.98L78.75,371.65L79.56,360.97L80.37,344.95L81.18,360.97L81.99,352.96L82.8,360.97L83.62,347.62L84.43,352.96L85.24,368.98L86.05,334.28L86.87,368.98L87.67,366.31L88.49,350.29L89.3,363.64L90.11,347.62L90.92,352.96L91.74,366.31L92.55,355.63L93.36,352.96L94.17,352.96L94.98,355.63L95.79,368.98L96.61,360.97L97.42,342.28L98.23,355.63L99.04,336.95L100.66,358.3L101.48,358.3L102.29,366.31L103.1,366.31L103.91,360.97L104.73,336.95L107.16,360.97L107.97,358.3L109.6,350.29L110.41,360.97L111.22,371.65L112.03,363.64L113.65,352.96L114.47,366.31L115.28,363.64L116.09,355.63L116.9,352.96L117.71,355.63L119.34,368.98L120.15,342.28L120.96,358.3L121.77,358.3L122.58,363.64L123.4,342.28L125.02,376.99L125.83,355.63L128.27,363.64L129.08,352.96L129.89,347.62L130.7,371.65L132.32,360.97L133.14,347.62L133.95,374.32L134.76,368.98L135.57,358.3L136.39,371.65L137.2,371.65L138.01,358.3L138.82,355.63L139.63,371.65L140.44,363.64L141.26,366.31L142.07,368.98L142.88,374.32L143.69,366.31L144.5,366.31L145.31,360.97L146.13,374.32L146.94,352.96L147.75,366.31L148.56,371.65L149.37,366.31L151,371.65L151.81,371.65L152.62,374.32L153.43,374.32L154.25,368.98L155.06,368.98L155.87,368.98L156.68,363.64L157.49,363.64L158.3,355.63L159.12,371.65L159.93,371.65L160.74,368.98L161.55,368.98L162.36,363.64L163.18,363.64L163.99,363.64L164.8,379.66L165.61,376.99L166.42,371.65L167.23,371.65L168.05,358.3L168.86,371.65L169.67,360.97L170.48,368.98L171.29,358.3L172.92,374.32L173.73,363.64L175.35,368.98L176.17,374.32L176.97,358.3L177.79,374.32L178.6,371.65L179.41,366.31L181.04,352.96L181.85,376.99L182.66,358.3L183.47,374.32L184.28,368.98L185.09,368.98L185.91,368.98L186.72,358.3L187.53,371.65L188.34,360.97L189.15,360.97L189.96,376.99L190.78,355.63L191.59,374.32L192.4,376.99L193.21,366.31L194.02,366.31L194.84,368.98L195.65,363.64L196.46,366.31L197.27,358.3L198.08,374.32L198.89,366.31L199.71,374.32L200.52,376.99L201.33,371.65L202.14,368.98L202.95,371.65L204.58,366.31L205.39,366.31L207.01,371.65L207.83,371.65L209.45,363.64L210.26,363.64L211.07,371.65L211.88,368.98L212.7,374.32L213.51,374.32L214.32,363.64L215.13,371.65L215.95,368.98L216.75,358.3L218.38,376.99L219.19,363.64L220,376.99L220.82,376.99L222.44,355.63L223.25,374.32L224.06,371.65L224.87,363.64L226.5,376.99L227.31,360.97L228.12,379.66L228.93,363.64L230.56,376.99L231.37,368.98L232.18,376.99L232.99,376.99L233.8,382.33L234.62,374.32L235.43,360.97L236.24,374.32L237.05,374.32L237.86,382.33L238.67,363.64L239.49,368.98L240.3,358.3L241.11,376.99L242.73,371.65L243.54,366.31L244.36,376.99L245.17,371.65L245.98,379.66L246.79,360.97L248.41,374.32L249.23,374.32L250.04,376.99L250.85,376.99L251.66,360.97L252.48,374.32L253.28,379.66L254.1,368.98L255.72,379.66L256.53,376.99L257.35,368.98L258.16,371.65L258.97,366.31L259.78,374.32L260.59,379.66L261.4,374.32L262.22,371.65L263.03,374.32L263.84,363.64L264.65,385L265.46,366.31L266.28,366.31L267.09,371.65L267.9,360.97L268.71,379.66L269.52,371.65L270.33,366.31L271.15,376.99L271.96,379.66L272.77,374.32L273.58,376.99L274.39,371.65L275.21,376.99L276.02,366.31L276.83,376.99L277.64,363.64L278.45,366.31L279.27,366.31L281.7,382.33L282.51,374.32L284.14,360.97L284.95,376.99L286.57,382.33L287.38,366.31L289.01,371.65L289.82,379.66L290.63,376.99L291.44,368.98L292.26,376.99L293.06,363.64L293.88,379.66L294.69,379.66L295.5,368.98L296.31,376.99L297.13,358.3L297.94,371.65L298.75,379.66L299.56,371.65L300.37,374.32L301.18,371.65L302,379.66L302.81,374.32L303.62,382.33L304.43,376.99L305.24,371.65L306.05,374.32L306.87,366.31L307.68,366.31L308.49,368.98L309.3,379.66L310.11,371.65L310.93,371.65L311.74,376.99L312.55,371.65L313.36,376.99L314.17,371.65L314.98,371.65L315.8,363.64L316.61,379.66L317.42,374.32L318.23,368.98L319.04,371.65L319.85,371.65L320.67,374.32L321.48,371.65L322.29,379.66L323.1,374.32L323.92,363.64L324.72,379.66L325.54,374.32L326.35,382.33L327.16,371.65L327.97,379.66L328.79,376.99L329.6,371.65L330.41,376.99L331.22,371.65L332.03,360.97L333.66,376.99L334.47,376.99L335.28,371.65L336.09,374.32L336.91,371.65L337.71,374.32L339.34,368.98L340.15,368.98L340.96,379.66L341.78,363.64L342.59,371.65L343.4,371.65L344.21,371.65L345.02,376.99L345.83,382.33L346.65,376.99L347.46,374.32L348.27,374.32L349.89,368.98L350.7,376.99L351.52,371.65L352.33,374.32L353.14,374.32L353.95,363.64L354.76,374.32L355.58,368.98L356.39,371.65L357.2,376.99L358.82,368.98L359.63,368.98L361.26,382.33L362.07,371.65L362.88,374.32L363.7,368.98L364.5,374.32L365.32,371.65L366.13,376.99L366.94,376.99L367.75,374.32L368.57,379.66L369.37,366.31L370.19,385L371,374.32L371.81,385L372.62,374.32L373.44,376.99L374.25,385L375.06,366.31L375.87,379.66L376.68,374.32L377.49,382.33L378.31,368.98L379.12,379.66L379.93,379.66L381.55,363.64L382.36,382.33L383.18,376.99L383.99,385L384.8,382.33L385.61,371.65L386.42,376.99L387.24,374.32L388.05,385L388.86,379.66L389.67,368.98L390.48,371.65L391.29,382.33L392.11,376.99L392.92,371.65L393.73,376.99L394.54,368.98L395.36,368.98L396.17,371.65L396.98,379.66L397.79,376.99L398.6,376.99L399.41,371.65L400.23,379.66L401.04,374.32L401.85,382.33L402.66,374.32L403.47,374.32L404.28,374.32L405.1,385L405.91,368.98L406.72,371.65L407.53,379.66L408.35,374.32L409.15,382.33L409.97,379.66L410.78,376.99L411.59,376.99L412.4,382.33L413.22,376.99L414.03,368.98L414.84,374.32L415.65,376.99L416.46,376.99L417.27,382.33L418.09,371.65L419.71,385L420.52,379.66L421.33,385L422.14,382.33L422.96,368.98L423.77,382.33L424.58,376.99L425.39,379.66L426.2,382.33L427.02,374.32L427.83,379.66L435.46,315.59L443.59,315.59L451.72,296.9L459.81,302.24L467.94,312.92L476.07,312.92L484.16,291.56L492.3,331.61L500.43,323.6L508.52,320.93L516.65,302.24L524.78,320.93L532.87,310.25L541,326.27L549.14,320.93L557.23,358.3L565.36,307.58L573.49,326.27L581.58,334.28L589.71,334.28L597.84,318.26L605.93,318.26L614.07,323.6L622.2,339.61L630.29,323.6L638.42,328.94L646.55,328.94L654.64,331.61L662.77,336.95L670.91,288.89L678.99,315.59L687.13,355.63L695.26,336.95L703.35,326.27L711.48,328.94L719.61,350.29L727.75,331.61L735.83,307.58L743.97,334.28L752.1,336.95L760.19,334.28L768.32,328.94L776.45,339.61L784.54,331.61L792.67,334.28L800.81,360.97L808.9,352.96L817.03,350.29L825.16,320.93L833.25,336.95L841.38,344.95L849.51,355.63L857.6,342.28L865.74,344.95L873.87,344.95L881.96,342.28L890.09,352.96L898.22,326.27L906.31,336.95L914.44,328.94L922.58,352.96L930.67,344.95L938.8,342.28L955.02,347.62L963.15,363.64L971.28,358.3L979.37,374.32L987.59,382.33L996.32,385L1025,385" style="vector-effect: none; fill: none; stroke: rgb(67, 67, 72); stroke-opacity: 1; stroke-width: 2px; opacity: 1;"/></g><g class="points"/><g class="text"/></g></g></g></g><g class="zerolinelayer-above"/><path class="xlines-above crisp" d="M0,0" style="fill: none;"/><path class="ylines-above crisp" d="M0,0" style="fill: none;"/><g class="overlines-above"/><g class="xaxislayer-above"><g class="xtick"><text text-anchor="middle" x="0" y="451" transform="translate(273.88,0)" style="font-family: system-ui, -apple-system, 'Segoe UI', Roboto, 'Helvetica Neue', 'Noto Sans', 'Liberation Sans', Arial, sans-serif, 'Apple Color Emoji', 'Segoe UI Emoji', 'Segoe UI Symbol', 'Noto Color Emoji'; font-size: 10px; fill: rgb(80, 80, 80); fill-opacity: 1; white-space: pre;">5k</text></g><g class="xtick"><text text-anchor="middle" x="0" y="451" style="font-family: system-ui, -apple-system, 'Segoe UI', Roboto, 'Helvetica Neue', 'Noto Sans', 'Liberation Sans', Arial, sans-serif, 'Apple Color Emoji', 'Segoe UI Emoji', 'Segoe UI Symbol', 'Noto Color Emoji'; font-size: 10px; fill: rgb(80, 80, 80); fill-opacity: 1; white-space: pre;" transform="translate(487.88,0)">10k</text></g><g class="xtick"><text text-anchor="middle" x="0" y="451" style="font-family: system-ui, -apple-system, 'Segoe UI', Roboto, 'Helvetica Neue', 'Noto Sans', 'Liberation Sans', Arial, sans-serif, 'Apple Color Emoji', 'Segoe UI Emoji', 'Segoe UI Symbol', 'Noto Color Emoji'; font-size: 10px; fill: rgb(80, 80, 80); fill-opacity: 1; white-space: pre;" transform="translate(701.89,0)">15k</text></g><g class="xtick"><text text-anchor="middle" x="0" y="451" style="font-family: system-ui, -apple-system, 'Segoe UI', Roboto, 'Helvetica Neue', 'Noto Sans', 'Liberation Sans', Arial, sans-serif, 'Apple Color Emoji', 'Segoe UI Emoji', 'Segoe UI Symbol', 'Noto Color Emoji'; font-size: 10px; fill: rgb(80, 80, 80); fill-opacity: 1; white-space: pre;" transform="translate(915.9,0)">20k</text></g></g><g class="yaxislayer-above"><g class="ytick"><text text-anchor="end" x="54" y="3.5" transform="translate(0,435)" style="font-family: system-ui, -apple-system, 'Segoe UI', Roboto, 'Helvetica Neue', 'Noto Sans', 'Liberation Sans', Arial, sans-serif, 'Apple Color Emoji', 'Segoe UI Emoji', 'Segoe UI Symbol', 'Noto Color Emoji'; font-size: 10px; fill: rgb(80, 80, 80); fill-opacity: 1; white-space: pre;">0</text></g><g class="ytick"><text text-anchor="end" x="54" y="3.5" style="font-family: system-ui, -apple-system, 'Segoe UI', Roboto, 'Helvetica Neue', 'Noto Sans', 'Liberation Sans', Arial, sans-serif, 'Apple Color Emoji', 'Segoe UI Emoji', 'Segoe UI Symbol', 'Noto Color Emoji'; font-size: 10px; fill: rgb(80, 80, 80); fill-opacity: 1; white-space: pre;" transform="translate(0,381.61)">20</text></g><g class="ytick"><text text-anchor="end" x="54" y="3.5" style="font-family: system-ui, -apple-system, 'Segoe UI', Roboto, 'Helvetica Neue', 'Noto Sans', 'Liberation Sans', Arial, sans-serif, 'Apple Color Emoji', 'Segoe UI Emoji', 'Segoe UI Symbol', 'Noto Color Emoji'; font-size: 10px; fill: rgb(80, 80, 80); fill-opacity: 1; white-space: pre;" transform="translate(0,328.21)">40</text></g><g class="ytick"><text text-anchor="end" x="54" y="3.5" style="font-family: system-ui, -apple-system, 'Segoe UI', Roboto, 'Helvetica Neue', 'Noto Sans', 'Liberation Sans', Arial, sans-serif, 'Apple Color Emoji', 'Segoe UI Emoji', 'Segoe UI Symbol', 'Noto Color Emoji'; font-size: 10px; fill: rgb(80, 80, 80); fill-opacity: 1; white-space: pre;" transform="translate(0,274.82)">60</text></g><g class="ytick"><text text-anchor="end" x="54" y="3.5" style="font-family: system-ui, -apple-system, 'Segoe UI', Roboto, 'Helvetica Neue', 'Noto Sans', 'Liberation Sans', Arial, sans-serif, 'Apple Color Emoji', 'Segoe UI Emoji', 'Segoe UI Symbol', 'Noto Color Emoji'; font-size: 10px; fill: rgb(80, 80, 80); fill-opacity: 1; white-space: pre;" transform="translate(0,221.42)">80</text></g><g class="ytick"><text text-anchor="end" x="54" y="3.5" style="font-family: system-ui, -apple-system, 'Segoe UI', Roboto, 'Helvetica Neue', 'Noto Sans', 'Liberation Sans', Arial, sans-serif, 'Apple Color Emoji', 'Segoe UI Emoji', 'Segoe UI Symbol', 'Noto Color Emoji'; font-size: 10px; fill: rgb(80, 80, 80); fill-opacity: 1; white-space: pre;" transform="translate(0,168.03)">100</text></g><g class="ytick"><text text-anchor="end" x="54" y="3.5" style="font-family: system-ui, -apple-system, 'Segoe UI', Roboto, 'Helvetica Neue', 'Noto Sans', 'Liberation Sans', Arial, sans-serif, 'Apple Color Emoji', 'Segoe UI Emoji', 'Segoe UI Symbol', 'Noto Color Emoji'; font-size: 10px; fill: rgb(80, 80, 80); fill-opacity: 1; white-space: pre;" transform="translate(0,114.64)">120</text></g><g class="ytick"><text text-anchor="end" x="54" y="3.5" style="font-family: system-ui, -apple-system, 'Segoe UI', Roboto, 'Helvetica Neue', 'Noto Sans', 'Liberation Sans', Arial, sans-serif, 'Apple Color Emoji', 'Segoe UI Emoji', 'Segoe UI Symbol', 'Noto Color Emoji'; font-size: 10px; fill: rgb(80, 80, 80); fill-opacity: 1; white-space: pre;" transform="translate(0,61.24)">140</text></g></g><g class="overaxes-above"/></g></g><g class="polarlayer"/><g class="smithlayer"/><g class="ternarylayer"/><g class="geolayer"/><g class="funnelarealayer"/><g class="pielayer"/><g class="iciclelayer"/><g class="treemaplayer"/><g class="sunburstlayer"/><g class="glimages"/><defs id="topdefs-06f5b3"><g class="clips"/></defs><g class="layer-above"><g class="imagelayer"/><g class="shapelayer"/></g><g class="infolayer"><g class="g-gtitle"><text class="gtitle" x="550" y="25" text-anchor="middle" dy="0em" style="opacity: 1; font-family: system-ui, -apple-system, 'Segoe UI', Roboto, 'Helvetica Neue', 'Noto Sans', 'Liberation Sans', Arial, sans-serif, 'Apple Color Emoji', 'Segoe UI Emoji', 'Segoe UI Symbol', 'Noto Color Emoji'; font-size: 20px; fill: rgb(60, 60, 60); fill-opacity: 1; white-space: pre;"><tspan class="line" dy="0em" x="550" y="25">Bcftools Stats: Variant Quality Count</tspan><tspan class="line" dy="1.3em" x="550" y="25">​<tspan style="font-size:70%" dy="-0.6em">Count Indels, 2 lines</tspan><tspan dy="0.42em">​</tspan></tspan></text></g><g class="g-xtitle"><text class="xtitle" x="572.5" y="487" text-anchor="middle" style="opacity: 1; font-family: system-ui, -apple-system, 'Segoe UI', Roboto, 'Helvetica Neue', 'Noto Sans', 'Liberation Sans', Arial, sans-serif, 'Apple Color Emoji', 'Segoe UI Emoji', 'Segoe UI Symbol', 'Noto Color Emoji'; font-size: 14px; fill: rgb(100, 100, 100); fill-opacity: 1; white-space: pre;">Quality</text></g><g class="g-ytitle"><text class="ytitle" transform="rotate(-90,22,242.5)" x="22" y="242.5" text-anchor="middle" style="opacity: 1; font-family: system-ui, -apple-system, 'Segoe UI', Roboto, 'Helvetica Neue', 'Noto Sans', 'Liberation Sans', Arial, sans-serif, 'Apple Color Emoji', 'Segoe UI Emoji', 'Segoe UI Symbol', 'Noto Color Emoji'; font-size: 14px; fill: rgb(100, 100, 100); fill-opacity: 1; white-space: pre;">Count</text></g></g></svg>