<svg class="main-svg" xmlns="http://www.w3.org/2000/svg" xmlns:xlink="http://www.w3.org/1999/xlink" width="2200" height="1000" style="" viewBox="0 0 1100 500"><rect x="0" y="0" width="1100" height="500" style="fill: rgb(255, 255, 255); fill-opacity: 1;"/><defs id="defs-39e86c"><g class="clips"><clipPath id="clip39e86cxyplot" class="plotclip"><rect width="1025" height="385"/></clipPath><clipPath class="axesclip" id="clip39e86cx"><rect x="60" y="0" width="1025" height="500"/></clipPath><clipPath class="axesclip" id="clip39e86cy"><rect x="0" y="50" width="1100" height="385"/></clipPath><clipPath class="axesclip" id="clip39e86cxy"><rect x="60" y="50" width="1025" height="385"/></clipPath></g><g class="gradients"/><g class="patterns"/></defs><g class="bglayer"/><g class="layer-below"><g class="imagelayer"/><g class="shapelayer"/></g><g class="cartesianlayer"><g class="subplot xy"><g class="layer-subplot"><g class="shapelayer"/><g class="imagelayer"/></g><g class="minor-gridlayer"><g class="x"/><g class="y"/></g><g class="gridlayer"><g class="x"><path class="xgrid crisp" transform="translate(273.88,0)" d="M0,50v385" style="stroke: rgb(128, 128, 128); stroke-opacity: 0.15; stroke-width: 1px;"/><path class="xgrid crisp" transform="translate(487.88,0)" d="M0,50v385" style="stroke: rgb(128, 128, 128); stroke-opacity: 0.15; stroke-width: 1px;"/><path class="xgrid crisp" transform="translate(701.89,0)" d="M0,50v385" style="stroke: rgb(128, 128, 128); stroke-opacity: 0.15; stroke-width: 1px;"/><path class="xgrid crisp" transform="translate(915.9,0)" d="M0,50v385" style="stroke: rgb(128, 128, 128); stroke-opacity: 0.15; stroke-width: 1px;"/></g><g class="y"><path class="ygrid crisp" transform="translate(0,367.29)" d="M60,0h1025" style="stroke: rgb(128, 128, 128); stroke-opacity: 0.15; stroke-width: 1px;"/><path class="ygrid crisp" transform="translate(0,299.59000000000003)" d="M60,0h1025" style="stroke: rgb(128, 128, 128); stroke-opacity: 0.15; stroke-width: 1px;"/><path class="ygrid crisp" transform="translate(0,231.88)" d="M60,0h1025" style="stroke: rgb(128, 128, 128); stroke-opacity: 0.15; stroke-width: 1px;"/><path class="ygrid crisp" transform="translate(0,164.17000000000002)" d="M60,0h1025" style="stroke: rgb(128, 128, 128); stroke-opacity: 0.15; stroke-width: 1px;"/><path class="ygrid crisp" transform="translate(0,96.47)" d="M60,0h1025" style="stroke: rgb(128, 128, 128); stroke-opacity: 0.15; stroke-width: 1px;"/></g></g><g class="zerolinelayer"><path class="yzl zl crisp" transform="translate(0,435)" d="M60,0h1025" style="stroke: rgb(128, 128, 128); stroke-opacity: 0.2; stroke-width: 1px;"/></g><g class="layer-between"><g class="shapelayer"/><g class="imagelayer"/></g><path class="xlines-below"/><path class="ylines-below"/><g class="overlines-below"/><g class="xaxislayer-below"/><g class="yaxislayer-below"/><g class="overaxes-below"/><g class="overplot"><g class="xy" transform="translate(60,50)" clip-path="url(#clip39e86cxyplot)"><g class="scatterlayer mlayer"><g class="trace scatter trace10ce92" style="stroke-miterlimit: 2; opacity: 1;"><g class="fills"/><g class="errorbars"/><g class="lines"><path class="js-line" d="M0.73,307.68L2.35,351.82L3.16,362.66L3.97,363.6L4.78,366.18L6.4,373.08L7.21,372.27L8.02,371.05L8.83,359.41L9.63,374.71L10.45,372.41L11.26,371.19L12.07,374.71L12.87,374.3L13.68,372.81L14.5,377.69L15.31,375.79L16.11,377.96L16.92,376.74L19.35,378.23L20.16,377.69L22.59,377.69L23.4,379.45L24.21,375.66L25.03,375.93L25.83,378.09L26.64,378.09L30.69,379.58L31.5,377.69L32.31,378.64L33.12,377.82L34.74,378.91L35.55,379.04L37.98,379.18L38.79,379.18L40.41,378.36L41.22,379.04L42.03,378.77L42.84,379.85L43.65,378.23L44.46,379.31L45.27,378.64L46.08,380.13L47.7,378.77L48.51,379.72L50.94,379.58L51.75,379.99L52.56,378.09L53.37,379.58L54.18,377.96L54.99,378.77L55.8,378.09L56.61,378.64L57.42,379.99L58.23,379.45L60.66,379.58L61.47,381.48L63.09,379.45L63.9,379.72L65.52,380.8L66.33,380.94L67.14,379.72L67.95,380.8L68.76,380.4L69.56,381.75L70.38,380.94L71.19,381.48L72.8,379.72L73.62,380.8L75.24,380.67L76.04,382.02L76.85,380.26L77.67,381.21L78.48,380.94L79.29,381.61L80.9,382.16L81.72,380.4L83.33,382.29L84.14,381.07L84.96,380.13L85.77,380.8L86.57,381.75L87.38,379.58L89.01,381.48L89.81,381.21L90.62,380.4L91.43,381.75L92.25,379.99L93.05,381.75L93.86,380.67L94.67,381.21L95.48,380.67L96.29,381.75L97.1,382.43L97.91,381.61L98.72,381.34L99.53,380.13L100.34,380.13L101.15,381.21L102.77,380.4L103.58,382.02L106.01,381.07L106.82,381.48L107.63,381.61L108.44,380.8L111.68,380.8L112.49,381.89L113.3,380.4L114.11,381.34L114.92,381.48L115.73,383.1L117.35,380.67L118.16,381.75L118.97,381.07L119.78,381.61L121.4,379.85L122.21,381.61L123.83,380.26L124.64,381.07L125.45,381.21L126.26,382.16L127.07,381.61L127.88,382.83L128.69,381.07L129.5,382.43L130.31,380.53L131.12,381.21L132.74,382.56L133.55,382.16L134.36,380.4L135.17,381.61L135.98,382.56L136.78,380.94L137.6,381.07L138.41,382.29L140.02,381.07L140.84,382.83L141.65,381.07L142.46,381.89L144.07,381.07L144.89,381.89L145.7,381.21L146.5,382.43L148.12,381.48L148.94,382.02L150.55,382.43L151.36,382.02L152.98,382.83L153.79,382.29L154.6,382.16L155.41,382.83L157.84,381.34L158.65,382.43L160.27,381.89L161.08,382.7L161.89,381.75L162.7,382.56L165.13,381.61L165.94,382.83L166.75,382.02L167.56,382.83L168.37,382.16L169.18,383.1L171.61,382.16L172.42,382.02L173.23,382.97L174.04,382.7L174.85,382.97L175.66,381.89L176.47,383.1L177.28,381.89L180.52,383.65L181.33,382.97L182.14,381.89L182.95,382.29L183.76,383.1L184.57,382.16L185.38,383.24L186.19,382.7L187.81,382.29L188.62,383.24L190.24,382.56L191.05,382.56L191.86,383.51L192.67,382.83L193.48,382.16L194.29,382.7L195.91,381.21L196.72,382.43L197.53,383.65L198.34,382.7L199.95,382.97L200.77,382.83L201.58,381.75L202.39,382.83L203.19,382.97L204,384.05L205.63,382.02L206.43,382.29L208.87,383.38L209.67,381.61L210.48,382.7L211.29,381.34L212.11,383.65L212.91,382.97L213.72,382.29L214.53,382.97L216.15,381.89L216.96,382.83L218.58,383.38L219.39,382.16L220.2,382.56L221.01,381.89L221.82,383.24L222.63,381.89L223.44,382.16L224.25,383.78L225.06,382.43L225.87,383.1L227.49,383.38L228.3,383.38L229.11,382.56L229.92,383.38L231.54,382.83L232.35,383.1L233.16,382.29L233.97,382.7L236.4,383.1L237.21,382.56L239.64,382.29L240.45,382.83L242.07,383.24L242.88,382.83L244.5,384.05L245.31,382.56L246.93,382.83L247.74,381.89L249.36,382.7L250.17,383.51L251.79,382.29L252.6,384.05L254.22,382.43L255.03,382.43L256.65,383.1L257.46,381.89L258.27,383.38L259.08,382.83L262.32,383.38L263.12,383.38L264.75,383.1L265.56,383.51L267.99,383.65L268.8,382.16L269.61,383.51L270.41,383.24L271.22,382.29L272.04,382.7L273.65,382.83L274.46,382.56L276.09,383.38L276.89,383.24L279.33,382.56L280.13,383.65L284.18,382.56L284.99,382.7L285.8,383.51L286.61,382.29L287.42,383.38L288.23,383.1L289.04,382.56L289.85,383.38L290.66,383.65L291.47,383.1L292.28,382.29L293.09,383.92L293.9,382.83L294.71,383.24L296.33,383.24L297.14,383.78L298.76,383.24L299.57,383.38L301.19,382.43L302,382.97L302.81,382.56L303.62,383.38L304.43,382.7L305.24,383.65L306.05,382.56L306.86,383.24L307.67,383.1L308.48,383.78L310.1,382.43L310.91,382.83L313.34,383.24L314.15,383.65L314.96,382.7L315.77,383.78L318.2,382.83L319.01,383.51L320.63,383.51L321.44,383.78L323.06,383.1L323.87,382.97L325.49,383.65L326.3,383.1L328.73,382.83L329.54,382.83L331.97,382.97L332.78,382.97L333.58,384.05L334.39,382.97L335.21,383.78L336.02,382.97L337.63,383.38L338.45,382.7L339.26,382.29L340.06,383.65L341.68,382.29L342.5,383.78L343.3,383.92L344.11,382.83L347.35,382.56L348.16,384.05L351.4,383.24L352.21,382.97L353.83,384.32L354.64,383.38L357.07,383.1L357.88,384.05L358.69,382.7L359.5,383.78L360.31,383.92L361.12,382.97L363.55,383.65L364.36,382.7L365.98,384.05L366.79,382.97L369.22,383.38L370.03,382.7L372.46,384.19L373.27,382.02L374.89,383.65L375.7,382.97L377.32,383.78L378.13,383.38L379.75,383.78L380.56,382.97L381.37,382.83L382.18,383.92L383.8,383.65L384.61,384.05L387.04,382.97L387.85,384.05L391.9,383.1L392.71,382.29L394.32,384.32L395.14,384.05L395.95,383.1L396.75,383.38L397.56,384.05L398.38,383.51L399.19,383.38L399.99,384.46L400.8,383.51L401.61,384.59L403.23,382.43L404.04,384.32L405.67,383.65L406.47,384.05L407.28,383.51L408.09,383.92L409.71,382.97L410.52,383.92L411.33,382.97L412.14,384.05L412.95,383.38L413.76,384.46L414.57,382.7L415.38,382.83L416.19,382.43L417,383.92L418.62,383.51L419.43,383.24L420.24,383.1L421.05,383.78L422.67,384.46L423.48,383.24L425.1,383.78L425.91,382.97L427.53,382.97L432.5,371.73L440.59,372.27L448.68,370.38L472.99,374.17L481.08,372.68L505.39,371.86L513.48,372.68L521.57,373.63L529.66,371.46L537.75,372.54L545.88,374.57L553.97,373.35L562.06,373.08L570.15,374.03L578.24,373.35L586.37,375.93L594.46,371.46L610.64,374.3L618.77,374.44L626.86,373.76L634.95,375.25L643.04,373.76L651.13,377.55L659.26,372.95L667.35,375.52L675.44,374.17L683.53,374.71L691.66,376.2L699.75,375.39L707.84,374.44L715.93,376.47L724.02,375.52L732.15,376.88L740.24,378.23L748.33,376.47L756.42,375.93L764.51,376.88L772.64,375.25L780.73,376.6L796.91,376.06L805.04,377.15L821.22,374.57L829.31,374.84L845.53,374.44L853.62,375.11L861.71,374.57L869.8,371.73L894.11,370.51L902.2,371.46L910.29,368.89L918.42,370.24L926.51,373.9L934.6,374.17L958.91,382.56L967,384.32L983.44,384.86L994.35,384.86L1025,384.19" style="vector-effect: none; fill: none; stroke: rgb(124, 181, 236); stroke-opacity: 1; stroke-width: 2px; opacity: 1;"/></g><g class="points"/><g class="text"/></g><g class="trace scatter trace6e4034" style="stroke-miterlimit: 2; opacity: 1;"><g class="fills"/><g class="errorbars"/><g class="lines"><path class="js-line" d="M0,19.25L1.62,341.53L2.44,354.53L4.87,367.67L5.68,367.8L7.31,373.08L8.12,373.08L8.93,375.11L9.74,373.08L11.36,375.66L12.18,373.22L15.43,377.01L16.23,376.74L17.05,379.04L17.86,375.79L19.48,379.72L20.3,379.04L21.92,378.36L22.73,377.82L23.54,376.06L24.35,378.36L25.17,375.93L25.98,376.47L26.79,379.45L27.6,377.69L28.41,378.77L29.22,378.36L30.85,378.09L31.66,379.04L33.29,378.5L34.1,377.42L35.72,379.04L36.53,378.91L37.34,380.13L38.16,378.09L40.59,379.18L41.4,378.23L42.21,379.04L43.03,378.77L44.65,379.72L45.46,377.42L47.09,379.99L47.9,377.69L48.71,378.77L49.52,378.5L50.33,377.82L51.14,379.99L51.96,379.31L52.77,379.99L53.58,378.77L54.39,380.26L55.21,380.67L56.01,378.09L57.64,381.75L58.45,379.45L59.26,379.31L60.08,380.13L61.7,380.53L62.51,381.21L63.32,379.85L64.13,381.21L64.95,381.48L65.76,379.72L67.38,380.67L68.19,380.4L69,381.34L69.82,380.67L70.63,379.45L71.44,380.8L72.25,379.18L73.06,380.4L74.69,379.85L75.5,380.67L76.31,380.67L77.12,379.58L77.93,381.21L78.75,381.07L79.56,381.61L80.37,380.4L81.18,381.07L81.99,380.26L83.62,380.26L84.43,380.8L86.87,381.48L87.67,380.13L89.3,381.07L90.11,382.56L90.92,379.72L91.74,381.21L93.36,380.4L94.17,381.21L94.98,382.16L95.79,379.99L96.61,379.99L97.42,380.94L99.04,381.34L99.86,381.07L100.66,382.7L101.48,380.53L102.29,380.8L103.1,382.43L103.91,380.94L104.73,382.43L105.54,380.13L106.35,381.61L107.16,380.13L107.97,380.4L108.78,381.75L109.6,380.13L110.41,382.7L111.22,380.8L112.03,381.48L112.84,379.99L113.65,381.34L114.47,381.07L115.28,381.89L116.09,381.48L117.71,380.8L118.53,381.89L120.15,381.07L120.96,382.02L122.58,380.26L123.4,381.34L124.21,382.02L125.02,381.61L126.64,381.07L127.45,382.7L129.08,381.21L129.89,382.56L130.7,381.75L131.52,382.29L132.32,380.4L133.14,381.61L134.76,382.29L135.57,381.61L137.2,382.29L138.01,381.89L140.44,382.56L141.26,382.02L142.07,382.16L142.88,380.94L143.69,382.56L144.5,381.48L145.31,381.75L146.13,381.07L146.94,382.43L147.75,382.16L150.19,381.48L151,382.43L157.49,381.21L158.3,382.7L160.74,381.48L161.55,382.7L163.18,383.38L163.99,380.94L165.61,382.7L166.42,382.02L167.23,382.97L168.05,382.02L168.86,383.24L169.67,381.75L172.1,383.51L172.92,381.75L176.97,382.43L177.79,382.7L178.6,382.97L179.41,382.29L181.04,382.16L181.85,381.75L182.66,382.97L183.47,382.29L185.09,382.56L185.91,381.61L186.72,384.05L187.53,382.16L189.15,382.02L189.96,382.7L192.4,382.29L193.21,382.7L194.84,381.34L195.65,382.29L196.46,382.29L197.27,383.24L200.52,382.43L201.33,382.97L202.14,382.43L202.95,383.24L203.76,382.02L204.58,382.7L205.39,383.38L206.2,382.97L207.83,382.7L208.63,382.16L213.51,382.43L214.32,383.65L215.95,382.56L216.75,383.1L217.57,382.83L218.38,381.61L220,383.1L220.82,382.56L223.25,382.7L224.06,381.61L226.5,383.78L227.31,382.7L228.12,384.19L228.93,382.83L229.74,383.38L230.56,382.56L233.8,382.16L234.62,382.97L235.43,383.38L236.24,382.7L237.05,382.02L237.86,382.83L239.49,382.97L240.3,382.7L241.11,383.78L241.92,383.24L242.73,383.38L243.54,381.61L245.98,382.29L246.79,383.38L247.61,383.65L248.41,382.97L249.23,383.78L250.04,382.02L252.48,383.78L253.28,381.61L254.91,383.92L255.72,383.38L257.35,382.02L258.16,382.56L258.97,383.92L259.78,382.7L260.59,383.92L261.4,382.83L262.22,382.56L263.03,384.05L264.65,382.43L265.46,382.83L267.09,383.51L267.9,382.43L271.15,383.65L271.96,382.83L272.77,382.7L273.58,383.38L276.02,383.92L276.83,383.38L279.27,382.97L280.08,383.65L281.7,382.43L282.51,382.97L284.95,383.24L285.76,383.1L286.57,382.29L287.38,382.97L289.82,383.38L290.63,382.56L291.44,382.56L292.26,383.78L293.88,383.1L294.69,383.51L295.5,382.7L296.31,383.38L297.13,382.83L297.94,383.65L298.75,382.7L299.56,383.1L301.18,382.97L302,383.51L305.24,383.65L306.05,382.56L308.49,383.65L309.3,383.24L310.93,382.97L311.74,383.24L312.55,384.05L313.36,383.51L315.8,382.7L316.61,383.38L319.85,383.51L320.67,382.83L321.48,382.7L322.29,383.38L325.54,383.38L326.35,383.51L327.97,383.65L328.79,384.19L330.41,382.97L331.22,383.38L332.84,383.1L333.66,383.65L334.47,382.7L335.28,383.38L336.09,382.29L336.91,382.97L339.34,383.38L340.15,383.38L341.78,383.51L342.59,382.43L343.4,383.1L344.21,381.89L345.83,383.51L346.65,383.65L348.27,383.1L349.08,384.05L349.89,382.97L350.7,383.92L354.76,382.7L355.58,383.38L358.01,383.38L358.82,382.7L359.63,383.65L360.45,383.1L362.07,384.05L362.88,382.83L363.7,383.1L364.5,384.19L367.75,383.1L368.57,383.24L371,383.51L371.81,384.05L372.62,383.38L373.44,384.19L376.68,383.38L377.49,383.92L379.93,383.38L380.74,383.65L385.61,384.19L386.42,383.38L388.05,383.65L388.86,383.38L389.67,383.38L390.48,384.32L392.92,382.97L393.73,384.05L396.17,383.24L396.98,384.19L397.79,383.78L398.6,384.32L403.47,383.51L404.28,384.05L405.91,382.83L406.72,384.32L408.35,382.83L409.15,383.24L409.97,383.1L410.78,383.92L411.59,384.19L412.4,383.1L413.22,384.59L414.03,383.78L414.84,383.51L415.65,384.19L416.46,382.7L417.27,383.38L418.09,384.19L418.9,383.51L420.52,383.51L421.33,383.65L422.14,382.97L422.96,384.05L423.77,384.19L424.58,382.56L425.39,384.32L426.2,383.1L427.83,383.92L435.46,372.95L443.59,370.92L451.72,373.08L459.81,372.54L467.94,370.78L476.07,371.86L484.16,370.1L492.3,372.54L500.43,372.14L508.52,371.59L516.65,375.39L532.87,372L541,375.39L549.14,374.3L557.23,374.71L565.36,374.71L573.49,372.68L581.58,372.27L589.71,374.44L597.84,374.17L605.93,374.98L614.07,373.9L622.2,375.66L630.29,373.49L638.42,374.03L646.55,376.2L654.64,374.57L662.77,374.84L670.91,374.03L678.99,376.88L687.13,375.11L695.26,375.93L703.35,374.84L711.48,374.17L719.61,375.52L727.75,375.39L735.83,377.82L743.97,376.06L752.1,377.28L768.32,375.93L776.45,376.6L792.67,375.39L800.81,376.88L808.9,376.33L817.03,377.15L825.16,376.88L833.25,375.52L841.38,375.39L849.51,376.47L865.74,374.71L873.87,371.46L881.96,372L890.09,371.59L898.22,370.38L906.31,372.54L914.44,370.92L922.58,372.14L930.67,372L938.8,378.23L946.93,380.4L955.02,381.75L963.15,383.51L971.28,383.92L979.37,385L987.59,384.73L1010.4,384.86L1025,384.19" style="vector-effect: none; fill: none; stroke: rgb(67, 67, 72); stroke-opacity: 1; stroke-width: 2px; opacity: 1;"/></g><g class="points"/><g class="text"/></g></g></g></g><g class="zerolinelayer-above"/><path class="xlines-above crisp" d="M0,0" style="fill: none;"/><path class="ylines-above crisp" d="M0,0" style="fill: none;"/><g class="overlines-above"/><g class="xaxislayer-above"><g class="xtick"><text text-anchor="middle" x="0" y="451" transform="translate(273.88,0)" style="font-family: system-ui, -apple-system, 'Segoe UI', Roboto, 'Helvetica Neue', 'Noto Sans', 'Liberation Sans', Arial, sans-serif, 'Apple Color Emoji', 'Segoe UI Emoji', 'Segoe UI Symbol', 'Noto Color Emoji'; font-size: 10px; fill: rgb(80, 80, 80); fill-opacity: 1; white-space: pre;">5k</text></g><g class="xtick"><text text-anchor="middle" x="0" y="451" style="font-family: system-ui, -apple-system, 'Segoe UI', Roboto, 'Helvetica Neue', 'Noto Sans', 'Liberation Sans', Arial, sans-serif, 'Apple Color Emoji', 'Segoe UI Emoji', 'Segoe UI Symbol', 'Noto Color Emoji'; font-size: 10px; fill: rgb(80, 80, 80); fill-opacity: 1; white-space: pre;" transform="translate(487.88,0)">10k</text></g><g class="xtick"><text text-anchor="middle" x="0" y="451" style="font-family: system-ui, -apple-system, 'Segoe UI', Roboto, 'Helvetica Neue', 'Noto Sans', 'Liberation Sans', Arial, sans-serif, 'Apple Color Emoji', 'Segoe UI Emoji', 'Segoe UI Symbol', 'Noto Color Emoji'; font-size: 10px; fill: rgb(80, 80, 80); fill-opacity: 1; white-space: pre;" transform="translate(701.89,0)">15k</text></g><g class="xtick"><text text-anchor="middle" x="0" y="451" style="font-family: system-ui, -apple-system, 'Segoe UI', Roboto, 'Helvetica Neue', 'Noto Sans', 'Liberation Sans', Arial, sans-serif, 'Apple Color Emoji', 'Segoe UI Emoji', 'Segoe UI Symbol', 'Noto Color Emoji'; font-size: 10px; fill: rgb(80, 80, 80); fill-opacity: 1; white-space: pre;" transform="translate(915.9,0)">20k</text></g></g><g class="yaxislayer-above"><g class="ytick"><text text-anchor="end" x="54" y="3.5" transform="translate(0,435)" style="font-family: system-ui, -apple-system, 'Segoe UI', Roboto, 'Helvetica Neue', 'Noto Sans', 'Liberation Sans', Arial, sans-serif, 'Apple Color Emoji', 'Segoe UI Emoji', 'Segoe UI Symbol', 'Noto Color Emoji'; font-size: 10px; fill: rgb(80, 80, 80); fill-opacity: 1; white-space: pre;">0</text></g><g class="ytick"><text text-anchor="end" x="54" y="3.5" style="font-family: system-ui, -apple-system, 'Segoe UI', Roboto, 'Helvetica Neue', 'Noto Sans', 'Liberation Sans', Arial, sans-serif, 'Apple Color Emoji', 'Segoe UI Emoji', 'Segoe UI Symbol', 'Noto Color Emoji'; font-size: 10px; fill: rgb(80, 80, 80); fill-opacity: 1; white-space: pre;" transform="translate(0,367.29)">500</text></g><g class="ytick"><text text-anchor="end" x="54" y="3.5" style="font-family: system-ui, -apple-system, 'Segoe UI', Roboto, 'Helvetica Neue', 'Noto Sans', 'Liberation Sans', Arial, sans-serif, 'Apple Color Emoji', 'Segoe UI Emoji', 'Segoe UI Symbol', 'Noto Color Emoji'; font-size: 10px; fill: rgb(80, 80, 80); fill-opacity: 1; white-space: pre;" transform="translate(0,299.59000000000003)">1000</text></g><g class="ytick"><text text-anchor="end" x="54" y="3.5" style="font-family: system-ui, -apple-system, 'Segoe UI', Roboto, 'Helvetica Neue', 'Noto Sans', 'Liberation Sans', Arial, sans-serif, 'Apple Color Emoji', 'Segoe UI Emoji', 'Segoe UI Symbol', 'Noto Color Emoji'; font-size: 10px; fill: rgb(80, 80, 80); fill-opacity: 1; white-space: pre;" transform="translate(0,231.88)">1500</text></g><g class="ytick"><text text-anchor="end" x="54" y="3.5" style="font-family: system-ui, -apple-system, 'Segoe UI', Roboto, 'Helvetica Neue', 'Noto Sans', 'Liberation Sans', Arial, sans-serif, 'Apple Color Emoji', 'Segoe UI Emoji', 'Segoe UI Symbol', 'Noto Color Emoji'; font-size: 10px; fill: rgb(80, 80, 80); fill-opacity: 1; white-space: pre;" transform="translate(0,164.17000000000002)">2000</text></g><g class="ytick"><text text-anchor="end" x="54" y="3.5" style="font-family: system-ui, -apple-system, 'Segoe UI', Roboto, 'Helvetica Neue', 'Noto Sans', 'Liberation Sans', Arial, sans-serif, 'Apple Color Emoji', 'Segoe UI Emoji', 'Segoe UI Symbol', 'Noto Color Emoji'; font-size: 10px; fill: rgb(80, 80, 80); fill-opacity: 1; white-space: pre;" transform="translate(0,96.47)">2500</text></g></g><g class="overaxes-above"/></g></g><g class="polarlayer"/><g class="smithlayer"/><g class="ternarylayer"/><g class="geolayer"/><g class="funnelarealayer"/><g class="pielayer"/><g class="iciclelayer"/><g class="treemaplayer"/><g class="sunburstlayer"/><g class="glimages"/><defs id="topdefs-39e86c"><g class="clips"/></defs><g class="layer-above"><g class="imagelayer"/><g class="shapelayer"/></g><g class="infolayer"><g class="g-gtitle"><text class="gtitle" x="550" y="25" text-anchor="middle" dy="0em" style="opacity: 1; font-family: system-ui, -apple-system, 'Segoe UI', Roboto, 'Helvetica Neue', 'Noto Sans', 'Liberation Sans', Arial, sans-serif, 'Apple Color Emoji', 'Segoe UI Emoji', 'Segoe UI Symbol', 'Noto Color Emoji'; font-size: 20px; fill: rgb(60, 60, 60); fill-opacity: 1; white-space: pre;"><tspan class="line" dy="0em" x="550" y="25">Bcftools Stats: Variant Quality Count</tspan><tspan class="line" dy="1.3em" x="550" y="25">​<tspan style="font-size:70%" dy="-0.6em">Count Transversions, 2 lines</tspan><tspan dy="0.42em">​</tspan></tspan></text></g><g class="g-xtitle"><text class="xtitle" x="572.5" y="487" text-anchor="middle" style="opacity: 1; font-family: system-ui, -apple-system, 'Segoe UI', Roboto, 'Helvetica Neue', 'Noto Sans', 'Liberation Sans', Arial, sans-serif, 'Apple Color Emoji', 'Segoe UI Emoji', 'Segoe UI Symbol', 'Noto Color Emoji'; font-size: 14px; fill: rgb(100, 100, 100); fill-opacity: 1; white-space: pre;">Quality</text></g><g class="g-ytitle"><text class="ytitle" transform="rotate(-90,22,242.5)" x="22" y="242.5" text-anchor="middle" style="opacity: 1; font-family: system-ui, -apple-system, 'Segoe UI', Roboto, 'Helvetica Neue', 'Noto Sans', 'Liberation Sans', Arial, sans-serif, 'Apple Color Emoji', 'Segoe UI Emoji', 'Segoe UI Symbol', 'Noto Color Emoji'; font-size: 14px; fill: rgb(100, 100, 100); fill-opacity: 1; white-space: pre;">Count</text></g></g></svg>