<svg class="main-svg" xmlns="http://www.w3.org/2000/svg" xmlns:xlink="http://www.w3.org/1999/xlink" width="2200" height="1000" style="" viewBox="0 0 1100 500"><rect x="0" y="0" width="1100" height="500" style="fill: rgb(255, 255, 255); fill-opacity: 1;"/><defs id="defs-96e562"><g class="clips"><clipPath id="clip96e562xyplot" class="plotclip"><rect width="1015" height="385"/></clipPath><clipPath class="axesclip" id="clip96e562x"><rect x="60" y="0" width="1015" height="500"/></clipPath><clipPath class="axesclip" id="clip96e562y"><rect x="0" y="50" width="1100" height="385"/></clipPath><clipPath class="axesclip" id="clip96e562xy"><rect x="60" y="50" width="1015" height="385"/></clipPath></g><g class="gradients"/><g class="patterns"/></defs><g class="bglayer"/><g class="layer-below"><g class="imagelayer"/><g class="shapelayer"/></g><g class="cartesianlayer"><g class="subplot xy"><g class="layer-subplot"><g class="shapelayer"/><g class="imagelayer"/></g><g class="minor-gridlayer"><g class="x"/><g class="y"/></g><g class="gridlayer"><g class="x"><path class="xgrid crisp" transform="translate(263,0)" d="M0,50v385" style="stroke: rgb(128, 128, 128); stroke-opacity: 0.15; stroke-width: 1px;"/><path class="xgrid crisp" transform="translate(466,0)" d="M0,50v385" style="stroke: rgb(128, 128, 128); stroke-opacity: 0.15; stroke-width: 1px;"/><path class="xgrid crisp" transform="translate(669,0)" d="M0,50v385" style="stroke: rgb(128, 128, 128); stroke-opacity: 0.15; stroke-width: 1px;"/><path class="xgrid crisp" transform="translate(872,0)" d="M0,50v385" style="stroke: rgb(128, 128, 128); stroke-opacity: 0.15; stroke-width: 1px;"/></g><g class="y"><path class="ygrid crisp" transform="translate(0,395.87)" d="M60,0h1015" style="stroke: rgb(128, 128, 128); stroke-opacity: 0.15; stroke-width: 1px;"/><path class="ygrid crisp" transform="translate(0,356.73)" d="M60,0h1015" style="stroke: rgb(128, 128, 128); stroke-opacity: 0.15; stroke-width: 1px;"/><path class="ygrid crisp" transform="translate(0,317.6)" d="M60,0h1015" style="stroke: rgb(128, 128, 128); stroke-opacity: 0.15; stroke-width: 1px;"/><path class="ygrid crisp" transform="translate(0,278.46000000000004)" d="M60,0h1015" style="stroke: rgb(128, 128, 128); stroke-opacity: 0.15; stroke-width: 1px;"/><path class="ygrid crisp" transform="translate(0,239.33)" d="M60,0h1015" style="stroke: rgb(128, 128, 128); stroke-opacity: 0.15; stroke-width: 1px;"/><path class="ygrid crisp" transform="translate(0,200.19)" d="M60,0h1015" style="stroke: rgb(128, 128, 128); stroke-opacity: 0.15; stroke-width: 1px;"/><path class="ygrid crisp" transform="translate(0,161.06)" d="M60,0h1015" style="stroke: rgb(128, 128, 128); stroke-opacity: 0.15; stroke-width: 1px;"/><path class="ygrid crisp" transform="translate(0,121.93)" d="M60,0h1015" style="stroke: rgb(128, 128, 128); stroke-opacity: 0.15; stroke-width: 1px;"/><path class="ygrid crisp" transform="translate(0,82.78999999999999)" d="M60,0h1015" style="stroke: rgb(128, 128, 128); stroke-opacity: 0.15; stroke-width: 1px;"/></g></g><g class="zerolinelayer"><path class="xzl zl crisp" transform="translate(60,0)" d="M0,50v385" style="stroke: rgb(128, 128, 128); stroke-opacity: 0.2; stroke-width: 1px;"/><path class="yzl zl crisp" transform="translate(0,435)" d="M60,0h1015" style="stroke: rgb(128, 128, 128); stroke-opacity: 0.2; stroke-width: 1px;"/></g><g class="layer-between"><g class="shapelayer"/><g class="imagelayer"/></g><path class="xlines-below"/><path class="ylines-below"/><g class="overlines-below"/><g class="xaxislayer-below"/><g class="yaxislayer-below"/><g class="overaxes-below"/><g class="overplot"><g class="xy" transform="translate(60,50)" clip-path="url(#clip96e562xyplot)"><g class="scatterlayer mlayer"><g class="trace scatter tracedf31a0" style="stroke-miterlimit: 2; opacity: 1;"><g class="fills"/><g class="errorbars"/><g class="lines"><path class="js-line" d="M0,384.98L101.5,384.26L111.65,383.92L142.1,382.6L152.25,381.69L182.7,377.59L192.85,375.52L213.15,369.77L223.3,365.83L243.6,355.75L253.75,349.79L284.2,331.5L294.35,325.94L314.65,316.55L324.8,313.06L334.95,310.55L345.1,309.17L355.25,309.31L365.4,310.66L375.55,313.17L385.7,316.51L395.85,320.23L406,321.29L416.15,326.12L426.3,334.45L456.75,348.38L466.9,352.53L487.2,359.85L497.35,363.07L517.65,368.97L527.8,371.32L558.25,376.95L568.4,378.43L588.7,380.54L598.85,381.09L680.05,384.32L690.2,384.46L812,384.95L822.15,384.96L1015,385" style="vector-effect: none; fill: none; stroke: rgb(92, 184, 92); stroke-opacity: 1; stroke-width: 2px; opacity: 1;"/></g><g class="points"/><g class="text"/></g><g class="trace scatter trace2bf407" style="stroke-miterlimit: 2; opacity: 1;"><g class="fills"/><g class="errorbars"/><g class="lines"><path class="js-line" d="M0,384.99L111.65,384.34L121.8,384.17L152.25,382.81L162.4,382.02L182.7,380L192.85,378.53L213.15,374.52L223.3,371.69L243.6,364.53L253.75,360.3L294.35,343.46L304.5,339.99L324.8,334.59L334.95,332.83L345.1,331.77L355.25,331.81L375.55,334.46L385.7,336.73L395.85,339.29L406,339.91L416.15,343.32L426.3,349.23L456.75,359.18L466.9,362.09L497.35,369.45L507.5,371.62L527.8,375.43L537.95,376.96L568.4,380.45L578.55,381.24L609,382.74L619.15,383.03L690.2,384.61L700.35,384.68L852.6,384.98L862.75,384.99L1015,385" style="vector-effect: none; fill: none; stroke: rgb(92, 184, 92); stroke-opacity: 1; stroke-width: 2px; opacity: 1;"/></g><g class="points"/><g class="text"/></g><g class="trace scatter tracef08832" style="stroke-miterlimit: 2; opacity: 1;"><g class="fills"/><g class="errorbars"/><g class="lines"><path class="js-line" d="M0,384.99L101.5,384.43L111.65,384.17L142.1,382.94L152.25,382.09L182.7,378.62L192.85,376.83L213.15,371.92L223.3,368.42L243.6,359.67L253.75,354.49L284.2,338.96L294.35,334.31L314.65,326.61L324.8,323.94L334.95,321.92L345.1,320.89L355.25,320.95L365.4,322L385.7,326.86L395.85,330.03L406,330.87L416.15,334.83L426.3,341.89L436.45,346.04L466.9,357.33L477.05,360.62L507.5,368.74L517.65,371.1L548.1,376.84L558.25,378.29L578.55,380.21L588.7,380.87L619.15,382.67L629.3,383.02L690.2,384.48L700.35,384.57L842.45,384.95L852.6,384.96L1004.85,384.68L1015,381.63" style="vector-effect: none; fill: none; stroke: rgb(92, 184, 92); stroke-opacity: 1; stroke-width: 2px; opacity: 1;"/></g><g class="points"/><g class="text"/></g><g class="trace scatter trace698580" style="stroke-miterlimit: 2; opacity: 1;"><g class="fills"/><g class="errorbars"/><g class="lines"><path class="js-line" d="M0,385L111.65,384.44L121.8,384.24L152.25,382.78L162.4,382.01L182.7,379.91L192.85,378.44L213.15,374.39L223.3,371.45L243.6,364.14L253.75,359.7L284.2,346.51L294.35,342.54L314.65,336.14L324.8,333.82L334.95,332.09L345.1,331.26L355.25,331.42L365.4,332.35L385.7,336.72L395.85,339.34L406,336.93L416.15,340.25L426.3,349.3L436.45,352.98L466.9,362.41L477.05,365.15L507.5,371.95L517.65,373.89L548.1,378.56L558.25,379.74L588.7,381.93L598.85,382.53L669.9,384.44L680.05,384.56L822.15,384.96L832.3,384.97L1004.85,384.87L1015,383.76" style="vector-effect: none; fill: none; stroke: rgb(240, 173, 78); stroke-opacity: 1; stroke-width: 2px; opacity: 1;"/></g><g class="points"/><g class="text"/></g><g class="trace scatter tracee7845a" style="stroke-miterlimit: 2; opacity: 1;"><g class="fills"/><g class="errorbars"/><g class="lines"><path class="js-line" d="M0,384.99L101.5,384.44L111.65,384.13L142.1,382.85L152.25,381.96L182.7,378.02L192.85,376.07L213.15,370.58L223.3,366.77L243.6,357.16L253.75,351.51L284.2,334.25L294.35,328.98L314.65,320.35L324.8,317.28L334.95,314.99L345.1,313.76L355.25,313.87L365.4,315.1L375.55,317.44L385.7,320.68L395.85,324.21L406,325.65L416.15,330.21L426.3,337.36L456.75,350.6L466.9,354.58L497.35,364.66L507.5,367.48L537.95,374.39L548.1,376.17L568.4,378.96L578.55,380.02L609,382.02L619.15,382.42L690.2,384.49L700.35,384.59L842.45,384.98L852.6,384.98L1015,385" style="vector-effect: none; fill: none; stroke: rgb(92, 184, 92); stroke-opacity: 1; stroke-width: 2px; opacity: 1;"/></g><g class="points"/><g class="text"/></g><g class="trace scatter tracecd0a48" style="stroke-miterlimit: 2; opacity: 1;"><g class="fills"/><g class="errorbars"/><g class="lines"><path class="js-line" d="M0,384.99L101.5,384.22L111.65,383.81L142.1,382.07L152.25,380.89L182.7,376.21L192.85,373.99L213.15,367.59L223.3,363.16L243.6,351.71L253.75,344.92L284.2,324.3L294.35,318.07L304.5,312.39L314.65,307.63L324.8,303.97L334.95,301.17L345.1,299.66L355.25,299.82L365.4,301.43L375.55,304.43L395.85,312.61L406,312.48L416.15,317.96L426.3,328.54L456.75,344.5L466.9,349.22L487.2,357.36L497.35,361.01L517.65,367.57L527.8,370.37L548.1,374.76L558.25,376.53L588.7,380.39L598.85,381.14L669.9,384.16L680.05,384.33L781.55,384.91L791.7,384.93L1015,385" style="vector-effect: none; fill: none; stroke: rgb(92, 184, 92); stroke-opacity: 1; stroke-width: 2px; opacity: 1;"/></g><g class="points"/><g class="text"/></g><g class="trace scatter tracecb32c7" style="stroke-miterlimit: 2; opacity: 1;"><g class="fills"/><g class="errorbars"/><g class="lines"><path class="js-line" d="M0,385L121.8,384.43L131.95,384.14L162.4,381.95L172.55,380.8L192.85,377.68L203,375.6L223.3,369.53L233.45,365.54L253.75,355.84L263.9,350.43L284.2,339.97L294.35,335.16L314.65,327.17L324.8,324.27L334.95,322.03L345.1,320.76L355.25,320.79L365.4,321.67L375.55,323.61L385.7,326.54L395.85,329.72L406,328.95L416.15,332.97L426.3,341.55L446.6,349.82L456.75,353.51L477.05,360.48L487.2,363.39L517.65,371L527.8,373.19L548.1,376.85L558.25,378.29L578.55,380.26L588.7,381L619.15,382.61L629.3,382.93L680.05,384.42L690.2,384.52L822.15,384.95L832.3,384.95L1004.85,384.64L1015,380.78" style="vector-effect: none; fill: none; stroke: rgb(240, 173, 78); stroke-opacity: 1; stroke-width: 2px; opacity: 1;"/></g><g class="points"/><g class="text"/></g><g class="trace scatter trace05a077" style="stroke-miterlimit: 2; opacity: 1;"><g class="fills"/><g class="errorbars"/><g class="lines"><path class="js-line" d="M0,384.99L91.35,384.21L101.5,383.72L152.25,380.62L162.4,379.44L182.7,377.11L192.85,375.26L213.15,370.1L223.3,366.54L243.6,357.18L253.75,351.64L284.2,335.02L294.35,330.04L314.65,321.68L324.8,318.67L334.95,316.31L345.1,315.08L355.25,315.19L365.4,316.24L375.55,318.4L385.7,321.42L395.85,324.47L406,321.38L416.15,325.96L426.3,337.41L456.75,350.56L466.9,354.5L487.2,361.33L497.35,364.32L527.8,372.24L537.95,374.23L558.25,377.62L568.4,378.89L598.85,381.51L609,381.93L700.35,384.59L710.5,384.67L862.75,384.99L872.9,384.99L1015,385" style="vector-effect: none; fill: none; stroke: rgb(92, 184, 92); stroke-opacity: 1; stroke-width: 2px; opacity: 1;"/></g><g class="points"/><g class="text"/></g><g class="trace scatter traced41f41" style="stroke-miterlimit: 2; opacity: 1;"><g class="fills"/><g class="errorbars"/><g class="lines"><path class="js-line" d="M0,384.99L101.5,384.35L111.65,384L142.1,382.43L152.25,381.34L182.7,377.47L192.85,375.57L213.15,370.45L223.3,366.61L243.6,356.98L253.75,351.13L284.2,333.86L294.35,328.67L304.5,323.9L314.65,319.97L334.95,314.61L345.1,313.32L355.25,313.37L365.4,314.53L375.55,316.9L385.7,320.14L395.85,323.8L406,322.48L416.15,326.85L426.3,336.83L446.6,346.12L456.75,350.27L477.05,358.01L487.2,361.28L517.65,369.67L527.8,371.97L558.25,377.55L568.4,378.82L609,382.01L619.15,382.4L690.2,384.46L700.35,384.56L842.45,384.95L852.6,384.96L1004.85,384.73L1015,382.26" style="vector-effect: none; fill: none; stroke: rgb(92, 184, 92); stroke-opacity: 1; stroke-width: 2px; opacity: 1;"/></g><g class="points"/><g class="text"/></g><g class="trace scatter trace15e99f" style="stroke-miterlimit: 2; opacity: 1;"><g class="fills"/><g class="errorbars"/><g class="lines"><path class="js-line" d="M0,385L121.8,384.19L131.95,383.93L162.4,381.89L172.55,380.94L192.85,378.37L203,376.47L223.3,371.19L233.45,367.57L253.75,358.7L263.9,353.68L294.35,339.28L304.5,335.07L324.8,328.19L334.95,325.69L345.1,324.11L355.25,323.77L365.4,324.27L375.55,325.8L395.85,330.71L406,329.59L416.15,333.3L426.3,341.45L456.75,352.83L466.9,356.36L487.2,362.54L497.35,365.32L527.8,372.69L537.95,374.6L558.25,377.85L568.4,379.07L598.85,381.47L609,381.91L700.35,384.58L710.5,384.66L862.75,384.99L872.9,384.99L1015,385" style="vector-effect: none; fill: none; stroke: rgb(92, 184, 92); stroke-opacity: 1; stroke-width: 2px; opacity: 1;"/></g><g class="points"/><g class="text"/></g><g class="trace scatter tracea04f60" style="stroke-miterlimit: 2; opacity: 1;"><g class="fills"/><g class="errorbars"/><g class="lines"><path class="js-line" d="M0,385L121.8,384.31L131.95,384.06L172.55,381.88L182.7,381.03L203,378.74L213.15,377.13L233.45,372.55L243.6,369.67L294.35,353.65L304.5,350.89L324.8,346.69L334.95,345.17L345.1,344.35L355.25,344.42L375.55,346.17L385.7,347.87L395.85,349.82L406,348.62L416.15,351.1L426.3,357.21L456.75,364.79L466.9,367.09L497.35,372.74L507.5,374.4L537.95,378.62L548.1,379.69L578.55,381.81L588.7,382.45L639.45,383.8L649.6,384.1L710.5,384.79L720.65,384.83L994.7,384.94L1004.85,384.88L1015,383.77" style="vector-effect: none; fill: none; stroke: rgb(92, 184, 92); stroke-opacity: 1; stroke-width: 2px; opacity: 1;"/></g><g class="points"/><g class="text"/></g><g class="trace scatter trace8275d7" style="stroke-miterlimit: 2; opacity: 1;"><g class="fills"/><g class="errorbars"/><g class="lines"><path class="js-line" d="M0,385L121.8,384.49L131.95,384.23L162.4,382.3L172.55,381.24L192.85,378.39L203,376.5L223.3,370.9L233.45,367.23L253.75,358.1L263.9,353.2L294.35,338.87L304.5,334.91L324.8,328.62L334.95,326.47L345.1,325.15L355.25,325.08L365.4,325.98L375.55,327.76L395.85,333.23L406,333.02L416.15,336.69L426.3,344.17L456.75,355.39L466.9,358.77L487.2,364.63L497.35,367.19L527.8,373.83L537.95,375.57L558.25,378.69L568.4,379.76L619.15,382.77L629.3,383.08L690.2,384.54L700.35,384.63L852.6,384.96L862.75,384.96L1004.85,384.59L1015,380.39" style="vector-effect: none; fill: none; stroke: rgb(240, 173, 78); stroke-opacity: 1; stroke-width: 2px; opacity: 1;"/></g><g class="points"/><g class="text"/></g><g class="trace scatter tracecc8303" style="stroke-miterlimit: 2; opacity: 1;"><g class="fills"/><g class="errorbars"/><g class="lines"><path class="js-line" d="M0,385L121.8,384.26L131.95,383.96L162.4,381.82L172.55,380.67L192.85,377.48L203,375.19L223.3,368.96L233.45,364.76L253.75,354.61L263.9,348.98L294.35,332.54L304.5,327.67L314.65,323.46L324.8,320.1L334.95,317.42L345.1,315.88L355.25,315.61L365.4,316.45L375.55,318.48L385.7,321.28L395.85,324.36L406,324.61L416.15,329.11L426.3,337.12L456.75,350.07L466.9,353.93L497.35,363.67L507.5,366.55L527.8,371.65L537.95,373.66L558.25,377.11L568.4,378.43L598.85,381.14L609,381.67L680.05,384.26L690.2,384.4L791.7,384.92L801.85,384.93L1015,385" style="vector-effect: none; fill: none; stroke: rgb(92, 184, 92); stroke-opacity: 1; stroke-width: 2px; opacity: 1;"/></g><g class="points"/><g class="text"/></g><g class="trace scatter trace087fc8" style="stroke-miterlimit: 2; opacity: 1;"><g class="fills"/><g class="errorbars"/><g class="lines"><path class="js-line" d="M0,385L121.8,384.22L131.95,383.9L162.4,381.66L172.55,380.52L192.85,377.4L203,375.26L223.3,369.38L233.45,365.45L253.75,356.18L263.9,351.12L284.2,341.14L294.35,336.69L314.65,329.32L324.8,326.76L334.95,324.92L345.1,323.99L355.25,324.23L365.4,325.43L385.7,330.37L395.85,333.48L406,334.7L416.15,338.68L426.3,345.03L436.45,349L466.9,359.82L477.05,362.84L507.5,370.59L517.65,372.78L537.95,376.36L548.1,377.78L578.55,380.86L588.7,381.53L649.6,383.84L659.75,384.12L730.8,384.84L740.95,384.87L1015,385" style="vector-effect: none; fill: none; stroke: rgb(92, 184, 92); stroke-opacity: 1; stroke-width: 2px; opacity: 1;"/></g><g class="points"/><g class="text"/></g><g class="trace scatter trace29a74e" style="stroke-miterlimit: 2; opacity: 1;"><g class="fills"/><g class="errorbars"/><g class="lines"><path class="js-line" d="M0,384.99L101.5,384.43L111.65,384.11L142.1,382.61L152.25,381.55L172.55,378.98L182.7,377.26L203,372.63L213.15,369.35L233.45,360.12L243.6,354.26L294.35,321.74L304.5,316.16L314.65,311.51L324.8,307.92L334.95,305.26L345.1,303.8L355.25,303.76L365.4,305.09L375.55,307.81L385.7,311.59L395.85,315.87L406,317.43L416.15,322.67L426.3,331.29L456.75,346.59L466.9,351.13L487.2,359.02L497.35,362.49L527.8,371.08L537.95,373.38L558.25,377.11L568.4,378.53L609,381.93L619.15,382.35L690.2,384.46L700.35,384.56L842.45,384.95L852.6,384.96L1004.85,384.61L1015,380.94" style="vector-effect: none; fill: none; stroke: rgb(92, 184, 92); stroke-opacity: 1; stroke-width: 2px; opacity: 1;"/></g><g class="points"/><g class="text"/></g><g class="trace scatter tracef36a87" style="stroke-miterlimit: 2; opacity: 1;"><g class="fills"/><g class="errorbars"/><g class="lines"><path class="js-line" d="M0,384.99L111.65,384.26L121.8,384.1L152.25,382.55L162.4,381.76L192.85,378.38L203,376.64L223.3,371.57L233.45,368.26L253.75,360.3L263.9,355.92L294.35,343.75L304.5,340.29L324.8,335.23L334.95,333.46L345.1,332.59L355.25,332.63L365.4,333.34L375.55,334.98L395.85,339.87L406,340.96L416.15,344.24L426.3,349.52L456.75,359.19L466.9,362.08L487.2,367.31L497.35,369.52L527.8,375.23L537.95,376.7L568.4,380.11L578.55,381.02L619.15,382.96L629.3,383.28L690.2,384.55L700.35,384.62L852.6,384.96L862.75,384.96L1004.85,384.75L1015,382.84" style="vector-effect: none; fill: none; stroke: rgb(92, 184, 92); stroke-opacity: 1; stroke-width: 2px; opacity: 1;"/></g><g class="points"/><g class="text"/></g><g class="trace scatter tracec7beab" style="stroke-miterlimit: 2; opacity: 1;"><g class="fills"/><g class="errorbars"/><g class="lines"><path class="js-line" d="M0,385L121.8,384.25L131.95,383.97L162.4,381.95L172.55,380.91L192.85,378.25L203,376.29L223.3,370.99L233.45,367.47L253.75,358.92L263.9,354.23L294.35,340.74L304.5,336.78L324.8,330.75L334.95,328.72L345.1,327.66L355.25,327.73L365.4,328.62L375.55,330.43L395.85,335.88L406,337.08L416.15,340.73L426.3,346.51L456.75,357.3L466.9,360.49L497.35,368.54L507.5,370.86L537.95,376.58L548.1,378L578.55,381.12L588.7,381.77L659.75,384.11L669.9,384.34L751.1,384.88L761.25,384.9L1015,385" style="vector-effect: none; fill: none; stroke: rgb(92, 184, 92); stroke-opacity: 1; stroke-width: 2px; opacity: 1;"/></g><g class="points"/><g class="text"/></g><g class="trace scatter trace4e5121" style="stroke-miterlimit: 2; opacity: 1;"><g class="fills"/><g class="errorbars"/><g class="lines"><path class="js-line" d="M0,384.99L121.8,384.33L131.95,384.06L162.4,382.24L172.55,381.24L192.85,378.69L203,376.89L223.3,371.96L233.45,368.66L253.75,360.92L263.9,356.6L294.35,344.35L304.5,340.92L324.8,335.7L334.95,334.03L345.1,333.1L355.25,333.12L365.4,333.97L375.55,335.59L395.85,340.29L406,341.46L416.15,344.65L426.3,349.81L456.75,359.43L466.9,362.28L487.2,367.36L497.35,369.53L527.8,375.23L537.95,376.76L568.4,380.33L578.55,380.88L629.3,383.28L639.45,383.59L700.35,384.62L710.5,384.69L872.9,384.95L883.05,384.95L1004.85,384.61L1015,381.32" style="vector-effect: none; fill: none; stroke: rgb(240, 173, 78); stroke-opacity: 1; stroke-width: 2px; opacity: 1;"/></g><g class="points"/><g class="text"/></g><g class="trace scatter trace229a68" style="stroke-miterlimit: 2; opacity: 1;"><g class="fills"/><g class="errorbars"/><g class="lines"><path class="js-line" d="M0,385L131.95,384.26L142.1,383.8L172.55,381.38L182.7,380.23L203,376.73L213.15,374.4L233.45,367.93L243.6,363.77L304.5,335.79L314.65,332L334.95,326.85L345.1,325.37L355.25,325.13L365.4,325.8L375.55,327.37L385.7,329.74L395.85,332.56L406,334.21L416.15,337.93L426.3,343.44L466.9,357.98L477.05,361.07L507.5,369.16L517.65,371.46L548.1,376.88L558.25,378.19L588.7,380.96L598.85,381.62L659.75,384.02L669.9,384.24L761.25,384.87L771.4,384.9L1015,385" style="vector-effect: none; fill: none; stroke: rgb(92, 184, 92); stroke-opacity: 1; stroke-width: 2px; opacity: 1;"/></g><g class="points"/><g class="text"/></g><g class="trace scatter tracef2ca69" style="stroke-miterlimit: 2; opacity: 1;"><g class="fills"/><g class="errorbars"/><g class="lines"><path class="js-line" d="M0,385L111.65,384.24L121.8,384.01L152.25,382.41L162.4,381.56L192.85,377.99L203,376.1L223.3,370.91L233.45,367.36L253.75,358.6L263.9,353.57L294.35,338.92L304.5,334.6L324.8,327.8L334.95,325.36L345.1,323.88L355.25,323.54L365.4,324.11L375.55,325.76L395.85,330.99L406,331.07L416.15,335.04L426.3,342.39L456.75,353.8L466.9,357.27L487.2,363.34L497.35,366.04L527.8,373.19L537.95,375.05L568.4,379.23L578.55,380.23L609,381.99L619.15,382.28L690.2,384.49L700.35,384.59L842.45,384.97L852.6,384.98L1015,385" style="vector-effect: none; fill: none; stroke: rgb(92, 184, 92); stroke-opacity: 1; stroke-width: 2px; opacity: 1;"/></g><g class="points"/><g class="text"/></g><g class="trace scatter tracebed723" style="stroke-miterlimit: 2; opacity: 1;"><g class="fills"/><g class="errorbars"/><g class="lines"><path class="js-line" d="M0,385L121.8,384.18L131.95,383.84L152.25,382.38L162.4,381.26L192.85,376.5L203,374.14L213.15,371.13L223.3,367.31L243.6,357.52L253.75,351.68L294.35,328.42L304.5,323.54L314.65,319.44L324.8,316.23L334.95,313.73L345.1,312.32L355.25,312.26L365.4,313.37L375.55,315.67L385.7,318.91L395.85,322.62L406,322.84L416.15,327.39L426.3,336.11L446.6,345.6L456.75,349.81L477.05,357.65L487.2,360.98L517.65,369.51L527.8,371.83L558.25,377.53L568.4,378.85L619.15,382.48L629.3,382.84L680.05,384.34L690.2,384.46L801.85,384.92L812,384.93L1004.85,384.7L1015,381.98" style="vector-effect: none; fill: none; stroke: rgb(92, 184, 92); stroke-opacity: 1; stroke-width: 2px; opacity: 1;"/></g><g class="points"/><g class="text"/></g><g class="trace scatter tracefb5c1e" style="stroke-miterlimit: 2; opacity: 1;"><g class="fills"/><g class="errorbars"/><g class="lines"><path class="js-line" d="M0,385L162.4,384.43L172.55,384.22L213.15,382.74L223.3,382.15L263.9,378.55L274.05,377.56L314.65,374.25L324.8,373.68L355.25,373.08L365.4,373.31L416.15,375.48L426.3,377.08L477.05,380.54L487.2,381.05L558.25,383.75L568.4,383.84L680.05,384.88L690.2,384.9L1004.85,384.92L1015,384.11" style="vector-effect: none; fill: none; stroke: rgb(240, 173, 78); stroke-opacity: 1; stroke-width: 2px; opacity: 1;"/></g><g class="points"/><g class="text"/></g><g class="trace scatter trace6691cf" style="stroke-miterlimit: 2; opacity: 1;"><g class="fills"/><g class="errorbars"/><g class="lines"><path class="js-line" d="M0,385L121.8,384.52L131.95,384.24L162.4,382.16L172.55,381.03L192.85,377.85L203,375.62L223.3,369.49L233.45,365.31L253.75,355.09L263.9,349.47L294.35,333.01L304.5,328.2L314.65,323.84L324.8,320.45L334.95,317.9L345.1,316.38L355.25,316.14L365.4,316.92L375.55,318.91L385.7,321.75L395.85,325.05L406,327.1L416.15,331.37L426.3,337.62L456.75,350.44L466.9,354.28L497.35,364.06L507.5,366.97L527.8,372.11L537.95,374.22L558.25,377.67L568.4,378.94L598.85,381.5L609,381.97L680.05,384.35L690.2,384.47L812,384.95L822.15,384.96L1015,385" style="vector-effect: none; fill: none; stroke: rgb(92, 184, 92); stroke-opacity: 1; stroke-width: 2px; opacity: 1;"/></g><g class="points"/><g class="text"/></g><g class="trace scatter traceb46f5b" style="stroke-miterlimit: 2; opacity: 1;"><g class="fills"/><g class="errorbars"/><g class="lines"><path class="js-line" d="M0,385L101.5,384.32L111.65,383.96L142.1,382.79L152.25,381.97L192.85,377.35L203,375.29L223.3,370.08L233.45,366.44L253.75,357.48L263.9,352.59L284.2,343.07L294.35,338.87L314.65,331.41L324.8,328.69L334.95,326.75L345.1,325.69L355.25,325.76L365.4,326.96L385.7,331.77L395.85,334.8L406,335.24L416.15,338.99L426.3,345.87L436.45,349.75L466.9,360.02L477.05,363.03L507.5,370.52L517.65,372.71L548.1,377.96L558.25,379.21L588.7,381.76L598.85,382.25L680.05,384.5L690.2,384.6L832.3,384.98L842.45,384.98L1015,385" style="vector-effect: none; fill: none; stroke: rgb(92, 184, 92); stroke-opacity: 1; stroke-width: 2px; opacity: 1;"/></g><g class="points"/><g class="text"/></g><g class="trace scatter tracee04eb2" style="stroke-miterlimit: 2; opacity: 1;"><g class="fills"/><g class="errorbars"/><g class="lines"><path class="js-line" d="M0,385L131.95,384.31L142.1,383.87L172.55,381.51L182.7,380.37L203,377.02L213.15,374.69L233.45,368.42L243.6,364.43L294.35,342.39L304.5,338.69L314.65,335.46L324.8,333.03L334.95,331.15L345.1,330.07L365.4,330.9L375.55,332.59L406,339.76L416.15,343.21L426.3,348L436.45,351.54L466.9,361.2L477.05,364.01L507.5,371.09L517.65,373.05L548.1,377.93L558.25,379.22L588.7,381.42L598.85,382.11L649.6,383.85L659.75,384.11L730.8,384.8L740.95,384.83L1004.85,384.71L1015,381.61" style="vector-effect: none; fill: none; stroke: rgb(240, 173, 78); stroke-opacity: 1; stroke-width: 2px; opacity: 1;"/></g><g class="points"/><g class="text"/></g><g class="trace scatter trace8f2ecf" style="stroke-miterlimit: 2; opacity: 1;"><g class="fills"/><g class="errorbars"/><g class="lines"><path class="js-line" d="M0,385L121.8,384.29L131.95,384.01L162.4,382.02L172.55,381.02L192.85,378.4L203,376.57L223.3,371.43L233.45,368.02L253.75,359.79L263.9,355.27L294.35,342.54L304.5,338.9L324.8,333.54L334.95,331.75L345.1,330.79L355.25,330.83L365.4,331.75L375.55,333.57L395.85,338.57L406,339.93L416.15,343.31L426.3,348.64L456.75,358.82L466.9,361.79L497.35,369.35L507.5,371.46L537.95,376.73L548.1,378.17L568.4,380.34L578.55,380.98L629.3,383.23L639.45,383.65L690.2,384.56L700.35,384.64L852.6,384.97L862.75,384.97L1004.85,384.72L1015,381.82" style="vector-effect: none; fill: none; stroke: rgb(240, 173, 78); stroke-opacity: 1; stroke-width: 2px; opacity: 1;"/></g><g class="points"/><g class="text"/></g><g class="trace scatter tracefd57a3" style="stroke-miterlimit: 2; opacity: 1;"><g class="fills"/><g class="errorbars"/><g class="lines"><path class="js-line" d="M0,384.99L101.5,384.2L111.65,383.8L142.1,382.25L152.25,381.2L182.7,376.79L192.85,374.68L213.15,368.73L223.3,364.55L243.6,353.7L253.75,347.22L284.2,327.05L294.35,320.96L314.65,310.45L324.8,306.7L334.95,303.83L345.1,302.27L355.25,302.21L365.4,303.3L375.55,305.88L385.7,309.6L395.85,313.65L406,315.19L416.15,320.52L426.3,329.02L456.75,344.63L466.9,349.18L487.2,357.33L497.35,360.92L517.65,367.37L527.8,370.09L558.25,376.38L568.4,377.95L588.7,380.16L598.85,380.82L669.9,384.07L680.05,384.27L771.4,384.88L781.55,384.9L1015,385" style="vector-effect: none; fill: none; stroke: rgb(92, 184, 92); stroke-opacity: 1; stroke-width: 2px; opacity: 1;"/></g><g class="points"/><g class="text"/></g><g class="trace scatter trace9a02bc" style="stroke-miterlimit: 2; opacity: 1;"><g class="fills"/><g class="errorbars"/><g class="lines"><path class="js-line" d="M0,385L111.65,384.29L121.8,384.01L142.1,382.88L152.25,381.92L172.55,379.23L182.7,377.51L203,372.83L213.15,369.62L233.45,360.5L243.6,354.83L294.35,323.33L304.5,318.17L314.65,313.71L324.8,310.18L334.95,307.49L345.1,306L355.25,306.03L365.4,307.26L375.55,309.81L385.7,313.27L395.85,317.2L406,316.55L416.15,321.5L426.3,331.9L456.75,346.54L466.9,350.97L487.2,358.65L497.35,362.02L517.65,368.03L527.8,370.63L558.25,376.98L568.4,378.4L619.15,382.24L629.3,382.63L680.05,384.32L690.2,384.44L812,384.92L822.15,384.93L1004.85,384.67L1015,381.64" style="vector-effect: none; fill: none; stroke: rgb(92, 184, 92); stroke-opacity: 1; stroke-width: 2px; opacity: 1;"/></g><g class="points"/><g class="text"/></g><g class="trace scatter trace0d3466" style="stroke-miterlimit: 2; opacity: 1;"><g class="fills"/><g class="errorbars"/><g class="lines"><path class="js-line" d="M0,385L121.8,384.37L131.95,384.08L162.4,381.89L172.55,380.73L192.85,377.43L203,375.12L223.3,368.84L233.45,364.68L253.75,354.64L263.9,349.2L294.35,333.73L304.5,329.38L314.65,325.63L324.8,322.72L334.95,320.51L345.1,319.38L355.25,319.58L365.4,320.78L375.55,323.07L385.7,326.22L395.85,329.61L406,331.86L416.15,336.21L426.3,342.08L456.75,354.05L466.9,357.67L487.2,363.97L497.35,366.73L527.8,373.86L537.95,375.63L568.4,379.67L578.55,380.57L609,382.27L619.15,382.62L690.2,384.54L700.35,384.63L832.3,384.97L842.45,384.98L1015,385" style="vector-effect: none; fill: none; stroke: rgb(240, 173, 78); stroke-opacity: 1; stroke-width: 2px; opacity: 1;"/></g><g class="points"/><g class="text"/></g><g class="trace scatter tracecced62" style="stroke-miterlimit: 2; opacity: 1;"><g class="fills"/><g class="errorbars"/><g class="lines"><path class="js-line" d="M0,384.99L111.65,384.29L121.8,384.06L152.25,382.33L162.4,381.31L182.7,378.63L192.85,376.74L213.15,371.46L223.3,367.74L243.6,358.16L253.75,352.43L294.35,328.94L304.5,323.9L324.8,315.91L334.95,313.07L345.1,311.42L355.25,311.16L365.4,311.95L375.55,314L395.85,320.31L406,321.34L416.15,325.96L426.3,333.89L456.75,347.66L466.9,351.76L487.2,359.06L497.35,362.35L527.8,370.89L537.95,373.09L558.25,376.78L568.4,378.17L598.85,380.99L609,381.54L690.2,384.41L700.35,384.53L832.3,384.96L842.45,384.97L1015,385" style="vector-effect: none; fill: none; stroke: rgb(92, 184, 92); stroke-opacity: 1; stroke-width: 2px; opacity: 1;"/></g><g class="points"/><g class="text"/></g><g class="trace scatter trace96d96e" style="stroke-miterlimit: 2; opacity: 1;"><g class="fills"/><g class="errorbars"/><g class="lines"><path class="js-line" d="M0,384.99L111.65,384.26L121.8,384.05L142.1,382.97L152.25,382.09L182.7,378.48L192.85,376.72L213.15,371.8L223.3,368.32L243.6,359.54L253.75,354.29L284.2,338.81L294.35,333.95L314.65,326.23L324.8,323.47L334.95,321.45L345.1,320.4L355.25,320.5L365.4,321.56L385.7,326.51L395.85,329.81L406,331.22L416.15,335.22L426.3,341.66L436.45,345.8L466.9,357.2L477.05,360.52L507.5,368.65L517.65,371.02L537.95,375.18L548.1,376.82L568.4,379.1L578.55,379.87L609,382.22L619.15,382.59L690.2,384.45L700.35,384.55L842.45,384.95L852.6,384.96L1004.85,384.64L1015,381" style="vector-effect: none; fill: none; stroke: rgb(240, 173, 78); stroke-opacity: 1; stroke-width: 2px; opacity: 1;"/></g><g class="points"/><g class="text"/></g><g class="trace scatter traceef19f8" style="stroke-miterlimit: 2; opacity: 1;"><g class="fills"/><g class="errorbars"/><g class="lines"><path class="js-line" d="M0,384.99L101.5,384.46L111.65,384.21L142.1,383.02L152.25,382.14L182.7,378.61L192.85,376.88L213.15,372.06L223.3,368.64L243.6,359.95L253.75,354.79L284.2,339.3L294.35,334.73L314.65,327.03L324.8,324.2L334.95,322.09L345.1,321.15L355.25,321.26L365.4,322.28L385.7,327.19L395.85,330.33L406,331.32L416.15,335.38L426.3,342.19L436.45,346.28L466.9,357.65L477.05,360.8L507.5,368.67L517.65,371L537.95,375.37L548.1,377.1L568.4,379.29L578.55,380.07L609,382.35L619.15,382.73L690.2,384.5L700.35,384.59L832.3,384.95L842.45,384.95L1004.85,384.68L1015,381.69" style="vector-effect: none; fill: none; stroke: rgb(92, 184, 92); stroke-opacity: 1; stroke-width: 2px; opacity: 1;"/></g><g class="points"/><g class="text"/></g><g class="trace scatter trace461450" style="stroke-miterlimit: 2; opacity: 1;"><g class="fills"/><g class="errorbars"/><g class="lines"><path class="js-line" d="M0,385L111.65,384.23L121.8,383.97L142.1,382.77L152.25,381.8L182.7,377.81L192.85,375.93L213.15,370.64L223.3,366.77L233.45,362.1L243.6,356.6L274.05,337.35L284.2,330.78L304.5,319.08L314.65,313.94L334.95,306.64L345.1,304.63L355.25,304.37L365.4,305.32L375.55,307.51L385.7,310.9L395.85,314.71L406,313.28L416.15,318.45L426.3,329.68L456.75,344.91L466.9,349.43L487.2,357.23L497.35,360.65L527.8,369.87L537.95,372.25L558.25,376.26L568.4,377.81L588.7,380.13L598.85,380.89L659.75,383.78L669.9,384.07L740.95,384.8L751.1,384.83L1015,385" style="vector-effect: none; fill: none; stroke: rgb(92, 184, 92); stroke-opacity: 1; stroke-width: 2px; opacity: 1;"/></g><g class="points"/><g class="text"/></g><g class="trace scatter tracee2020c" style="stroke-miterlimit: 2; opacity: 1;"><g class="fills"/><g class="errorbars"/><g class="lines"><path class="js-line" d="M0,384.99L111.65,384.37L121.8,384.16L152.25,382.66L162.4,381.82L182.7,379.55L192.85,377.97L213.15,373.59L223.3,370.64L243.6,362.8L253.75,358.18L294.35,339.48L304.5,335.63L324.8,329.63L334.95,327.5L345.1,326.41L355.25,326.44L365.4,327.3L375.55,329.15L395.85,334.49L406,334.92L416.15,338.59L426.3,345.29L456.75,356.28L466.9,359.47L487.2,365.21L497.35,367.71L527.8,374.28L537.95,375.93L568.4,379.75L578.55,380.62L609,382.25L619.15,382.59L690.2,384.53L700.35,384.62L832.3,384.97L842.45,384.98L1015,385" style="vector-effect: none; fill: none; stroke: rgb(92, 184, 92); stroke-opacity: 1; stroke-width: 2px; opacity: 1;"/></g><g class="points"/><g class="text"/></g><g class="trace scatter tracecec60a" style="stroke-miterlimit: 2; opacity: 1;"><g class="fills"/><g class="errorbars"/><g class="lines"><path class="js-line" d="M0,385L121.8,384.43L131.95,384.16L162.4,382.32L172.55,381.41L192.85,378.82L203,377.02L223.3,371.85L233.45,368.5L253.75,360.12L263.9,355.53L294.35,342.6L304.5,338.84L324.8,333.08L334.95,331.16L345.1,329.96L355.25,329.87L365.4,330.66L375.55,332.26L395.85,337.27L406,338.26L416.15,341.66L426.3,347.26L456.75,357.45L466.9,360.58L487.2,365.99L497.35,368.33L527.8,374.43L537.95,376.14L568.4,379.95L578.55,380.62L619.15,382.62L629.3,383.08L680.05,384.41L690.2,384.52L822.15,384.95L832.3,384.96L1004.85,384.73L1015,381.9" style="vector-effect: none; fill: none; stroke: rgb(92, 184, 92); stroke-opacity: 1; stroke-width: 2px; opacity: 1;"/></g><g class="points"/><g class="text"/></g><g class="trace scatter traced27687" style="stroke-miterlimit: 2; opacity: 1;"><g class="fills"/><g class="errorbars"/><g class="lines"><path class="js-line" d="M0,385L152.25,384.3L162.4,384.09L213.15,382.33L223.3,381.62L263.9,377.55L274.05,376.44L314.65,372.72L324.8,372.08L345.1,371.39L355.25,371.41L385.7,372.74L395.85,373.46L406,373.12L416.15,373.94L426.3,375.95L436.45,376.87L487.2,380.58L497.35,381.14L568.4,383.88L578.55,383.91L680.05,384.89L690.2,384.91L1004.85,384.93L1015,384.17" style="vector-effect: none; fill: none; stroke: rgb(240, 173, 78); stroke-opacity: 1; stroke-width: 2px; opacity: 1;"/></g><g class="points"/><g class="text"/></g><g class="trace scatter trace14242c" style="stroke-miterlimit: 2; opacity: 1;"><g class="fills"/><g class="errorbars"/><g class="lines"><path class="js-line" d="M0,385L111.65,384.42L121.8,384.09L142.1,382.6L152.25,381.21L172.55,377.3L182.7,374.66L192.85,371.26L203,366.95L213.15,361.66L223.3,355.11L233.45,347.26L243.6,338.38L294.35,288.52L304.5,280.01L314.65,272.66L324.8,266.76L334.95,262.51L345.1,260.06L355.25,259.99L365.4,262.13L375.55,266.1L385.7,271.65L395.85,278.09L406,283.21L416.15,291.13L426.3,301.26L456.75,324.36L466.9,331.22L487.2,343.26L497.35,348.69L517.65,358.46L527.8,362.58L548.1,369.41L558.25,372.07L578.55,376.18L588.7,377.7L619.15,380.5L629.3,381.21L669.9,383.62L680.05,383.89L751.1,384.75L761.25,384.78L1004.85,385L1015,385" style="vector-effect: none; fill: none; stroke: rgb(92, 184, 92); stroke-opacity: 1; stroke-width: 2px; opacity: 1;"/></g><g class="points"/><g class="text"/></g><g class="trace scatter trace0d5e92" style="stroke-miterlimit: 2; opacity: 1;"><g class="fills"/><g class="errorbars"/><g class="lines"><path class="js-line" d="M0,384.99L81.2,384.24L91.35,383.76L131.95,380.54L142.1,378.73L162.4,374.17L172.55,372.69L192.85,368.59L203,365.75L213.15,362.28L223.3,357.14L233.45,351.04L243.6,343.79L274.05,319.13L284.2,312.61L304.5,299.56L314.65,294.74L324.8,290.93L334.95,288.22L345.1,287.29L355.25,288.33L365.4,291.06L375.55,295.25L395.85,305.76L406,306.94L416.15,313.36L426.3,324.68L446.6,337.25L456.75,342.85L477.05,352.81L487.2,356.96L517.65,367.54L527.8,370.51L548.1,375.17L558.25,377.04L588.7,380.86L598.85,381.68L639.45,383.53L649.6,383.87L700.35,384.63L710.5,384.71L872.9,384.97L883.05,384.97L1004.85,384.69L1015,381.81" style="vector-effect: none; fill: none; stroke: rgb(92, 184, 92); stroke-opacity: 1; stroke-width: 2px; opacity: 1;"/></g><g class="points"/><g class="text"/></g><g class="trace scatter tracec29feb" style="stroke-miterlimit: 2; opacity: 1;"><g class="fills"/><g class="errorbars"/><g class="lines"><path class="js-line" d="M0,384.99L91.35,384.4L101.5,383.92L142.1,381.1L152.25,379.64L192.85,372.82L203,369.81L213.15,366.53L223.3,362.32L233.45,356.98L243.6,350.78L284.2,322.47L294.35,316.45L314.65,305.67L324.8,302.01L334.95,299.31L345.1,297.85L355.25,298.22L365.4,300.04L375.55,303.11L385.7,307.3L395.85,311.91L406,313.19L416.15,318.86L426.3,328.5L446.6,339.73L456.75,344.72L477.05,353.81L487.2,357.7L517.65,367.77L527.8,370.6L548.1,375.13L558.25,376.97L578.55,379.7L588.7,380.69L619.15,382.46L629.3,382.87L680.05,384.44L690.2,384.55L822.15,384.97L832.3,384.97L1015,385" style="vector-effect: none; fill: none; stroke: rgb(92, 184, 92); stroke-opacity: 1; stroke-width: 2px; opacity: 1;"/></g><g class="points"/><g class="text"/></g><g class="trace scatter trace835ce1" style="stroke-miterlimit: 2; opacity: 1;"><g class="fills"/><g class="errorbars"/><g class="lines"><path class="js-line" d="M0,385L121.8,384.45L131.95,384.18L162.4,382.17L172.55,381.15L192.85,378.42L203,376.39L223.3,371.1L233.45,367.49L253.75,358.83L263.9,354.15L294.35,340.42L304.5,336.47L314.65,333.06L324.8,330.45L334.95,328.47L345.1,327.29L355.25,327.15L365.4,328L385.7,332.6L395.85,335.47L406,336.77L416.15,340.43L426.3,346.14L436.45,349.85L466.9,360.14L477.05,363.09L507.5,370.61L517.65,372.75L548.1,377.68L558.25,378.91L588.7,381.54L598.85,382.07L680.05,384.46L690.2,384.56L832.3,384.98L842.45,384.98L1015,385" style="vector-effect: none; fill: none; stroke: rgb(92, 184, 92); stroke-opacity: 1; stroke-width: 2px; opacity: 1;"/></g><g class="points"/><g class="text"/></g><g class="trace scatter trace1b240a" style="stroke-miterlimit: 2; opacity: 1;"><g class="fills"/><g class="errorbars"/><g class="lines"><path class="js-line" d="M0,384.99L111.65,384.34L121.8,384.17L152.25,382.6L162.4,381.77L192.85,378.22L203,376.43L223.3,371.29L233.45,367.91L253.75,359.79L263.9,355.32L294.35,343.02L304.5,339.45L324.8,334.2L334.95,332.43L345.1,331.48L355.25,331.53L365.4,332.44L375.55,334.15L395.85,339.08L406,340.18L416.15,343.53L426.3,349L456.75,358.92L466.9,361.93L487.2,367.1L497.35,369.36L527.8,375.07L537.95,376.68L568.4,380.35L578.55,380.92L629.3,383.35L639.45,383.65L700.35,384.63L710.5,384.7L913.5,384.95L923.65,384.95L1004.85,384.63L1015,381.43" style="vector-effect: none; fill: none; stroke: rgb(240, 173, 78); stroke-opacity: 1; stroke-width: 2px; opacity: 1;"/></g><g class="points"/><g class="text"/></g><g class="trace scatter trace8146ff" style="stroke-miterlimit: 2; opacity: 1;"><g class="fills"/><g class="errorbars"/><g class="lines"><path class="js-line" d="M0,385L121.8,384.33L131.95,383.98L162.4,381.57L172.55,380.37L192.85,377.16L203,374.96L223.3,368.6L233.45,364.37L253.75,354.16L263.9,348.52L294.35,332.53L304.5,327.98L324.8,320.93L334.95,318.6L345.1,317.28L355.25,317.22L365.4,318.2L375.55,320.24L395.85,326.32L406,327.63L416.15,331.86L426.3,338.73L456.75,351.42L466.9,355.22L487.2,361.89L497.35,364.82L527.8,372.3L537.95,374.38L558.25,377.82L568.4,379.03L619.15,382.52L629.3,382.89L680.05,384.33L690.2,384.46L822.15,384.94L832.3,384.95L1004.85,384.78L1015,382.64" style="vector-effect: none; fill: none; stroke: rgb(92, 184, 92); stroke-opacity: 1; stroke-width: 2px; opacity: 1;"/></g><g class="points"/><g class="text"/></g><g class="trace scatter trace659ac1" style="stroke-miterlimit: 2; opacity: 1;"><g class="fills"/><g class="errorbars"/><g class="lines"><path class="js-line" d="M0,384.99L101.5,384.48L111.65,384.2L142.1,382.99L152.25,382.17L182.7,378.66L192.85,376.88L213.15,371.97L223.3,368.59L243.6,359.88L253.75,354.64L284.2,338.39L294.35,333.61L314.65,325.35L324.8,322.29L334.95,320.06L345.1,318.96L355.25,319.03L365.4,320.11L375.55,322.22L385.7,325.17L395.85,328.45L406,328.85L416.15,333.12L426.3,340.87L456.75,353.19L466.9,356.84L487.2,363.21L497.35,366.03L527.8,373.38L537.95,375.21L568.4,379.39L578.55,380.34L609,382.15L619.15,382.53L690.2,384.54L700.35,384.63L832.3,384.97L842.45,384.98L1015,385" style="vector-effect: none; fill: none; stroke: rgb(92, 184, 92); stroke-opacity: 1; stroke-width: 2px; opacity: 1;"/></g><g class="points"/><g class="text"/></g><g class="trace scatter trace1d30c6" style="stroke-miterlimit: 2; opacity: 1;"><g class="fills"/><g class="errorbars"/><g class="lines"><path class="js-line" d="M0,384.98L91.35,384.15L101.5,383.57L142.1,380.68L152.25,379.2L192.85,372.38L203,369.38L213.15,366.02L223.3,361.74L243.6,350.23L253.75,343.47L284.2,323.07L294.35,317.25L314.65,307.32L324.8,303.97L334.95,301.5L345.1,300.39L355.25,300.95L365.4,302.84L375.55,306.09L385.7,310.25L395.85,314.85L406,316.47L416.15,321.9L426.3,330.9L446.6,341.8L456.75,346.73L477.05,355.63L487.2,359.32L517.65,368.95L527.8,371.55L548.1,375.79L558.25,377.43L588.7,380.87L598.85,381.59L669.9,384.3L680.05,384.45L791.7,384.94L801.85,384.95L1015,385" style="vector-effect: none; fill: none; stroke: rgb(92, 184, 92); stroke-opacity: 1; stroke-width: 2px; opacity: 1;"/></g><g class="points"/><g class="text"/></g><g class="trace scatter traceecf0ee" style="stroke-miterlimit: 2; opacity: 1;"><g class="fills"/><g class="errorbars"/><g class="lines"><path class="js-line" d="M0,385L121.8,384.27L131.95,383.91L152.25,382.41L162.4,381.22L192.85,376.37L203,373.98L213.15,370.85L223.3,366.9L243.6,356.93L253.75,350.94L294.35,326.86L304.5,321.99L324.8,314.24L334.95,311.6L345.1,310.12L355.25,310.06L365.4,311.2L375.55,313.53L395.85,320.46L406,318.73L416.15,323.34L426.3,334.19L446.6,343.88L456.75,348.32L477.05,356.52L487.2,359.93L517.65,368.91L527.8,371.44L548.1,375.61L558.25,377.3L578.55,379.53L588.7,380.41L609,381.88L619.15,382.27L690.2,384.43L700.35,384.54L822.15,384.93L832.3,384.94L1004.85,384.49L1015,379.4" style="vector-effect: none; fill: none; stroke: rgb(240, 173, 78); stroke-opacity: 1; stroke-width: 2px; opacity: 1;"/></g><g class="points"/><g class="text"/></g><g class="trace scatter traceee22d4" style="stroke-miterlimit: 2; opacity: 1;"><g class="fills"/><g class="errorbars"/><g class="lines"><path class="js-line" d="M0,384.99L101.5,384.49L111.65,384.19L142.1,382.75L152.25,381.75L182.7,377.68L192.85,375.83L213.15,370.49L223.3,366.51L243.6,355.9L253.75,349.28L294.35,322.08L304.5,315.97L324.8,305.46L334.95,301.38L345.1,298.58L355.25,297.36L365.4,297.57L375.55,299.22L385.7,302.05L395.85,305.69L406,304.84L416.15,309.77L426.3,320.37L436.45,325.99L466.9,342.25L477.05,347.2L507.5,359.85L517.65,363.64L537.95,370.15L548.1,372.91L568.4,377.09L578.55,378.47L598.85,380.92L609,381.59L680.05,384.36L690.2,384.48L812,384.93L822.15,384.94L1004.85,384.81L1015,383.17" style="vector-effect: none; fill: none; stroke: rgb(92, 184, 92); stroke-opacity: 1; stroke-width: 2px; opacity: 1;"/></g><g class="points"/><g class="text"/></g><g class="trace scatter trace79405e" style="stroke-miterlimit: 2; opacity: 1;"><g class="fills"/><g class="errorbars"/><g class="lines"><path class="js-line" d="M0,384.99L101.5,384.25L111.65,383.84L131.95,382.9L142.1,381.74L172.55,376.84L182.7,374.76L203,368.87L213.15,364.82L223.3,359.71L233.45,353.48L253.75,338.5L263.9,330.34L284.2,314.66L294.35,307.49L304.5,300.96L314.65,295.42L324.8,291.1L334.95,288.06L345.1,286.57L355.25,286.86L365.4,288.74L375.55,292.37L395.85,302.33L406,303.45L416.15,309.97L426.3,321.3L446.6,334.16L456.75,339.95L477.05,350.22L487.2,354.56L507.5,362.45L517.65,365.97L537.95,371.88L548.1,374.24L568.4,377.8L578.55,379.17L598.85,381.17L609,381.8L680.05,384.41L690.2,384.53L801.85,384.95L812,384.96L1015,385" style="vector-effect: none; fill: none; stroke: rgb(92, 184, 92); stroke-opacity: 1; stroke-width: 2px; opacity: 1;"/></g><g class="points"/><g class="text"/></g><g class="trace scatter trace1bddb3" style="stroke-miterlimit: 2; opacity: 1;"><g class="fills"/><g class="errorbars"/><g class="lines"><path class="js-line" d="M0,384.99L111.65,384.25L121.8,384.1L152.25,382.46L162.4,381.62L192.85,378.27L203,376.55L223.3,371.72L233.45,368.49L253.75,360.76L263.9,356.55L294.35,344.74L304.5,341.41L324.8,336.43L334.95,334.82L345.1,333.99L355.25,334.08L375.55,336.63L385.7,338.81L395.85,341.44L406,342.6L416.15,345.83L426.3,351.02L466.9,363.36L477.05,365.97L507.5,372.37L517.65,374.15L548.1,378.68L558.25,379.83L588.7,381.81L598.85,382.46L639.45,383.8L649.6,384.05L720.65,384.78L730.8,384.82L1004.85,384.65L1015,381.59" style="vector-effect: none; fill: none; stroke: rgb(240, 173, 78); stroke-opacity: 1; stroke-width: 2px; opacity: 1;"/></g><g class="points"/><g class="text"/></g><g class="trace scatter trace0a5953" style="stroke-miterlimit: 2; opacity: 1;"><g class="fills"/><g class="errorbars"/><g class="lines"><path class="js-line" d="M0,384.98L91.35,384.42L101.5,384.03L142.1,382.09L152.25,381.14L182.7,377.22L192.85,375.27L213.15,369.8L223.3,365.98L243.6,356.05L253.75,350.04L284.2,331.43L294.35,325.81L314.65,316.28L324.8,312.71L334.95,310.01L345.1,308.49L355.25,308.38L365.4,309.49L375.55,311.85L385.7,315.12L395.85,318.84L406,320.78L416.15,325.72L426.3,333.15L456.75,347.41L466.9,351.64L487.2,359.17L497.35,362.55L517.65,368.6L527.8,371.19L548.1,375.27L558.25,376.93L588.7,380.51L598.85,381.12L669.9,384.18L680.05,384.35L781.55,384.92L791.7,384.93L1015,385" style="vector-effect: none; fill: none; stroke: rgb(92, 184, 92); stroke-opacity: 1; stroke-width: 2px; opacity: 1;"/></g><g class="points"/><g class="text"/></g><g class="trace scatter trace335ce3" style="stroke-miterlimit: 2; opacity: 1;"><g class="fills"/><g class="errorbars"/><g class="lines"><path class="js-line" d="M0,385L121.8,384.24L131.95,384.01L172.55,381.79L182.7,380.97L203,378.44L213.15,376.8L233.45,372.2L243.6,369.33L294.35,353.18L304.5,350.4L324.8,346.22L334.95,344.97L345.1,344.29L355.25,344.37L375.55,346.6L385.7,348.44L395.85,350.58L406,351.77L416.15,354.39L426.3,358.35L466.9,368.15L477.05,370.26L517.65,376.86L527.8,378.16L558.25,381.14L568.4,381.86L598.85,383.14L609,383.37L680.05,384.71L690.2,384.77L933.8,385L943.95,385L1015,385" style="vector-effect: none; fill: none; stroke: rgb(92, 184, 92); stroke-opacity: 1; stroke-width: 2px; opacity: 1;"/></g><g class="points"/><g class="text"/></g><g class="trace scatter tracea785c0" style="stroke-miterlimit: 2; opacity: 1;"><g class="fills"/><g class="errorbars"/><g class="lines"><path class="js-line" d="M0,384.99L91.35,384.44L101.5,384.05L131.95,382.59L142.1,381.38L172.55,376.24L182.7,374.42L203,369.4L213.15,365.93L223.3,361.28L233.45,355.59L253.75,341.72L263.9,334.11L284.2,319.65L294.35,313.2L314.65,302.38L324.8,298.67L334.95,296.01L345.1,294.64L355.25,295.04L365.4,296.94L375.55,300.2L385.7,304.58L395.85,309.54L406,311.39L416.15,317.27L426.3,326.81L446.6,338.46L456.75,343.7L477.05,353.14L487.2,357.27L507.5,364.51L517.65,367.6L537.95,372.78L548.1,374.89L568.4,378.33L578.55,379.66L609,382.14L619.15,382.63L680.05,384.44L690.2,384.54L832.3,384.95L842.45,384.95L1004.85,384.69L1015,381.96" style="vector-effect: none; fill: none; stroke: rgb(92, 184, 92); stroke-opacity: 1; stroke-width: 2px; opacity: 1;"/></g><g class="points"/><g class="text"/></g><g class="trace scatter trace204542" style="stroke-miterlimit: 2; opacity: 1;"><g class="fills"/><g class="errorbars"/><g class="lines"><path class="js-line" d="M0,384.99L81.2,384.33L91.35,383.91L131.95,381.12L142.1,379.5L162.4,375.89L172.55,374.36L192.85,370.19L203,367.4L213.15,364.04L223.3,359.19L233.45,353.46L243.6,346.59L274.05,323.31L284.2,316.96L304.5,304.94L314.65,300.34L324.8,296.85L334.95,294.3L345.1,293.34L355.25,294.09L365.4,296.11L375.55,299.66L395.85,308.92L406,310.01L416.15,315.8L426.3,326.18L446.6,338.07L456.75,343.35L477.05,352.94L487.2,356.99L507.5,364.25L517.65,367.44L537.95,372.86L548.1,375.09L568.4,378.55L578.55,379.61L609,382.22L619.15,382.68L680.05,384.46L690.2,384.55L832.3,384.95L842.45,384.96L1004.85,384.74L1015,382.43" style="vector-effect: none; fill: none; stroke: rgb(92, 184, 92); stroke-opacity: 1; stroke-width: 2px; opacity: 1;"/></g><g class="points"/><g class="text"/></g><g class="trace scatter trace29d401" style="stroke-miterlimit: 2; opacity: 1;"><g class="fills"/><g class="errorbars"/><g class="lines"><path class="js-line" d="M0,385L121.8,384.35L131.95,384.03L162.4,381.51L172.55,380.26L192.85,376.69L203,374.2L223.3,367.53L233.45,363.13L253.75,352.27L263.9,346.47L294.35,329.67L304.5,324.93L314.65,320.81L324.8,317.66L334.95,315.37L345.1,314.2L355.25,314.34L365.4,315.69L385.7,321.46L395.85,325.17L406,327.47L416.15,332.12L426.3,338.71L436.45,343.2L466.9,355.73L477.05,359.24L507.5,368.14L517.65,370.59L537.95,374.66L548.1,376.35L578.55,380.1L588.7,380.94L639.45,383.26L649.6,383.66L700.35,384.59L710.5,384.68L883.05,384.99L893.2,385L1015,385" style="vector-effect: none; fill: none; stroke: rgb(240, 173, 78); stroke-opacity: 1; stroke-width: 2px; opacity: 1;"/></g><g class="points"/><g class="text"/></g><g class="trace scatter trace70d7cc" style="stroke-miterlimit: 2; opacity: 1;"><g class="fills"/><g class="errorbars"/><g class="lines"><path class="js-line" d="M0,384.99L101.5,384.41L111.65,384.07L131.95,383.39L142.1,382.53L172.55,378.59L182.7,376.81L203,371.66L213.15,368.06L223.3,363.55L233.45,358.14L253.75,344.83L263.9,337.53L294.35,316.31L304.5,310.14L314.65,304.82L324.8,300.57L334.95,297.4L345.1,295.48L355.25,295.23L365.4,296.56L375.55,299.24L385.7,303.02L395.85,307.49L406,309.57L416.15,315.17L426.3,324.01L456.75,340.97L466.9,346.05L487.2,354.82L497.35,358.72L517.65,365.71L527.8,368.7L548.1,373.54L558.25,375.49L578.55,378.6L588.7,379.7L639.45,382.87L649.6,383.37L690.2,384.37L700.35,384.5L822.15,384.96L832.3,384.97L1015,385" style="vector-effect: none; fill: none; stroke: rgb(92, 184, 92); stroke-opacity: 1; stroke-width: 2px; opacity: 1;"/></g><g class="points"/><g class="text"/></g><g class="trace scatter trace120c09" style="stroke-miterlimit: 2; opacity: 1;"><g class="fills"/><g class="errorbars"/><g class="lines"><path class="js-line" d="M0,385L101.5,384.52L111.65,384.2L142.1,382.68L152.25,381.58L182.7,377.69L192.85,375.91L213.15,370.9L223.3,367.36L243.6,358.16L253.75,352.57L274.05,341.57L284.2,336.6L304.5,327.68L314.65,324.09L324.8,321.36L334.95,319.52L345.1,318.82L355.25,319.32L365.4,320.82L375.55,323.4L395.85,330.33L406,332.11L416.15,336.4L426.3,343.02L456.75,355.23L466.9,358.81L487.2,364.93L497.35,367.6L527.8,374.29L537.95,376.01L558.25,378.94L568.4,379.99L609,382.66L619.15,383.01L690.2,384.59L700.35,384.66L852.6,384.97L862.75,384.97L1004.85,384.65L1015,381.12" style="vector-effect: none; fill: none; stroke: rgb(240, 173, 78); stroke-opacity: 1; stroke-width: 2px; opacity: 1;"/></g><g class="points"/><g class="text"/></g><g class="trace scatter trace38fe20" style="stroke-miterlimit: 2; opacity: 1;"><g class="fills"/><g class="errorbars"/><g class="lines"><path class="js-line" d="M0,384.99L101.5,384.14L111.65,383.75L131.95,382.95L142.1,382.02L172.55,377.95L182.7,376.12L203,370.95L213.15,367.42L233.45,357.52L243.6,351.47L284.2,323.95L294.35,317.93L304.5,312.3L314.65,307.62L324.8,304.04L334.95,301.51L345.1,300.27L355.25,300.46L365.4,302.01L375.55,304.86L395.85,313.19L406,315.12L416.15,320.54L426.3,329.06L456.75,344.82L466.9,349.54L487.2,357.72L497.35,361.25L517.65,367.58L527.8,370.32L558.25,376.78L568.4,378.25L619.15,382.35L629.3,382.8L680.05,384.29L690.2,384.41L812,384.9L822.15,384.91L1004.85,384.4L1015,379.38" style="vector-effect: none; fill: none; stroke: rgb(240, 173, 78); stroke-opacity: 1; stroke-width: 2px; opacity: 1;"/></g><g class="points"/><g class="text"/></g><g class="trace scatter trace55c31d" style="stroke-miterlimit: 2; opacity: 1;"><g class="fills"/><g class="errorbars"/><g class="lines"><path class="js-line" d="M0,384.99L111.65,384.24L121.8,383.98L152.25,382.15L162.4,381.11L182.7,378.42L192.85,376.55L213.15,371.3L223.3,367.77L243.6,358.65L253.75,353.3L284.2,336.87L294.35,331.87L314.65,323.74L324.8,320.88L334.95,318.82L345.1,317.76L355.25,317.93L365.4,319.19L385.7,324.76L395.85,328.13L406,329.07L416.15,333.51L426.3,341.01L436.45,345.43L456.75,353.64L466.9,357.21L487.2,363.58L497.35,366.39L527.8,373.66L537.95,375.51L568.4,379.58L578.55,380.54L609,382.31L619.15,382.69L690.2,384.56L700.35,384.65L832.3,384.98L842.45,384.98L1015,385" style="vector-effect: none; fill: none; stroke: rgb(92, 184, 92); stroke-opacity: 1; stroke-width: 2px; opacity: 1;"/></g><g class="points"/><g class="text"/></g><g class="trace scatter trace305c18" style="stroke-miterlimit: 2; opacity: 1;"><g class="fills"/><g class="errorbars"/><g class="lines"><path class="js-line" d="M0,385L91.35,384.49L101.5,383.94L121.8,382.17L131.95,380.61L142.1,377.86L152.25,373.9L162.4,368.82L172.55,362.4L182.7,354.38L192.85,344.13L203,331.45L213.15,315.9L223.3,296.26L233.45,272.93L243.6,246.44L253.75,216.84L284.2,126.13L294.35,99.22L304.5,74.77L314.65,54L324.8,37.68L334.95,25.4L345.1,19.25L355.25,19.85L365.4,25.95L375.55,38L385.7,54.37L395.85,73.38L406,90.32L416.15,113.94L426.3,142.3L436.45,165.55L456.75,209.33L466.9,229.29L477.05,248.07L487.2,264.76L507.5,295.13L517.65,308.61L527.8,320.72L537.95,331.2L548.1,340.32L558.25,348.07L568.4,354.64L578.55,360.18L588.7,364.69L598.85,368.23L619.15,373.15L629.3,375.05L659.75,380.1L669.9,381.18L700.35,382.94L710.5,383.35L761.25,384.3L771.4,384.42L893.2,384.81L903.35,384.82L984.55,384.28L994.7,383.72L1004.85,381.91L1015,348" style="vector-effect: none; fill: none; stroke: rgb(240, 173, 78); stroke-opacity: 1; stroke-width: 2px; opacity: 1;"/></g><g class="points"/><g class="text"/></g><g class="trace scatter trace55205e" style="stroke-miterlimit: 2; opacity: 1;"><g class="fills"/><g class="errorbars"/><g class="lines"><path class="js-line" d="M0,385L121.8,384.38L131.95,384.06L152.25,382.68L162.4,381.57L182.7,378.75L192.85,376.79L213.15,371.19L223.3,367.32L243.6,357.51L253.75,351.71L294.35,327.96L304.5,322.94L314.65,318.6L324.8,315.21L334.95,312.69L345.1,311.29L355.25,311.37L365.4,312.49L375.55,314.8L385.7,318.16L395.85,321.79L406,323.45L416.15,328.12L426.3,335.38L456.75,349.2L466.9,353.28L487.2,360.46L497.35,363.61L527.8,371.89L537.95,373.99L558.25,377.55L568.4,378.86L598.85,381.53L609,382.05L680.05,384.37L690.2,384.48L801.85,384.94L812,384.95L1015,385" style="vector-effect: none; fill: none; stroke: rgb(92, 184, 92); stroke-opacity: 1; stroke-width: 2px; opacity: 1;"/></g><g class="points"/><g class="text"/></g><g class="trace scatter tracef78c4e" style="stroke-miterlimit: 2; opacity: 1;"><g class="fills"/><g class="errorbars"/><g class="lines"><path class="js-line" d="M0,384.99L101.5,384.24L111.65,383.85L142.1,382.51L152.25,381.61L182.7,378.27L192.85,376.56L213.15,371.8L223.3,368.45L243.6,359.54L253.75,354.09L294.35,331.63L304.5,326.82L324.8,318.78L334.95,315.97L345.1,314.38L355.25,314.16L365.4,314.88L375.55,316.92L395.85,322.96L406,321.88L416.15,326.51L426.3,336.13L456.75,349.36L466.9,353.37L487.2,360.31L497.35,363.4L527.8,371.52L537.95,373.61L568.4,378.41L578.55,379.6L598.85,381.21L609,381.67L690.2,384.44L700.35,384.55L812,384.94L822.15,384.96L1015,385" style="vector-effect: none; fill: none; stroke: rgb(92, 184, 92); stroke-opacity: 1; stroke-width: 2px; opacity: 1;"/></g><g class="points"/><g class="text"/></g><g class="trace scatter trace8454cb" style="stroke-miterlimit: 2; opacity: 1;"><g class="fills"/><g class="errorbars"/><g class="lines"><path class="js-line" d="M0,384.99L101.5,384.3L111.65,384L142.1,382.6L152.25,381.59L182.7,377.52L192.85,375.57L213.15,370.11L223.3,366.2L243.6,356.39L253.75,350.46L284.2,332.93L294.35,327.63L314.65,318.78L324.8,315.57L334.95,313.27L345.1,312.08L355.25,312.29L365.4,313.59L375.55,316.01L385.7,319.26L395.85,322.99L406,324.22L416.15,328.77L426.3,336.53L456.75,350.14L466.9,354.25L487.2,361.35L497.35,364.4L527.8,372.04L537.95,374.21L558.25,377.81L568.4,379.11L619.15,382.68L629.3,383.06L690.2,384.49L700.35,384.58L842.45,384.95L852.6,384.96L1004.85,384.65L1015,381.33" style="vector-effect: none; fill: none; stroke: rgb(92, 184, 92); stroke-opacity: 1; stroke-width: 2px; opacity: 1;"/></g><g class="points"/><g class="text"/></g><g class="trace scatter traced2f996" style="stroke-miterlimit: 2; opacity: 1;"><g class="fills"/><g class="errorbars"/><g class="lines"><path class="js-line" d="M0,384.98L91.35,384.35L101.5,383.94L142.1,381.66L152.25,380.42L172.55,377.62L182.7,375.76L203,370.5L213.15,366.96L233.45,356.82L243.6,350.6L284.2,322.68L294.35,316.44L304.5,310.81L314.65,306.09L324.8,302.41L334.95,299.84L345.1,298.47L355.25,298.64L365.4,300.17L375.55,303.02L395.85,311.09L406,312.29L416.15,317.91L426.3,327.45L456.75,343.56L466.9,348.3L487.2,356.71L497.35,360.28L527.8,369.83L537.95,372.48L558.25,376.55L568.4,377.89L598.85,381.09L609,381.73L669.9,384.06L680.05,384.24L771.4,384.84L781.55,384.86L994.7,384.79L1004.85,384.54L1015,380.9" style="vector-effect: none; fill: none; stroke: rgb(92, 184, 92); stroke-opacity: 1; stroke-width: 2px; opacity: 1;"/></g><g class="points"/><g class="text"/></g><g class="trace scatter traced0a650" style="stroke-miterlimit: 2; opacity: 1;"><g class="fills"/><g class="errorbars"/><g class="lines"><path class="js-line" d="M0,384.99L101.5,384.2L111.65,383.75L131.95,382.79L142.1,381.64L182.7,375.24L192.85,373.19L213.15,367.15L223.3,362.84L243.6,351.55L253.75,344.8L284.2,324.13L294.35,317.97L314.65,307.64L324.8,304.09L334.95,301.64L345.1,300.33L355.25,300.68L365.4,302.47L375.55,305.59L385.7,309.64L395.85,314.1L406,314.89L416.15,320.51L426.3,330.51L456.75,346.42L466.9,351.05L487.2,359.01L497.35,362.46L527.8,371.41L537.95,373.67L558.25,377.44L568.4,378.84L598.85,381.68L609,382.2L680.05,384.48L690.2,384.58L812,384.96L822.15,384.97L1015,385" style="vector-effect: none; fill: none; stroke: rgb(92, 184, 92); stroke-opacity: 1; stroke-width: 2px; opacity: 1;"/></g><g class="points"/><g class="text"/></g><g class="trace scatter traced21512" style="stroke-miterlimit: 2; opacity: 1;"><g class="fills"/><g class="errorbars"/><g class="lines"><path class="js-line" d="M0,385L152.25,384.37L162.4,384.13L213.15,382.26L223.3,381.59L263.9,377.41L274.05,376.27L314.65,372.32L324.8,371.65L355.25,370.91L365.4,371.23L416.15,374.18L426.3,375.76L477.05,379.84L487.2,380.46L548.1,383.33L558.25,383.63L629.3,384.57L639.45,384.64L822.15,384.99L832.3,385L1015,385" style="vector-effect: none; fill: none; stroke: rgb(92, 184, 92); stroke-opacity: 1; stroke-width: 2px; opacity: 1;"/></g><g class="points"/><g class="text"/></g><g class="trace scatter trace8528ac" style="stroke-miterlimit: 2; opacity: 1;"><g class="fills"/><g class="errorbars"/><g class="lines"><path class="js-line" d="M0,385L142.1,384.35L152.25,384.08L192.85,382.56L203,381.91L233.45,378.98L243.6,377.59L304.5,368.64L314.65,367.53L334.95,366L345.1,365.63L365.4,365.9L375.55,366.57L395.85,368.4L406,367.62L416.15,368.79L426.3,371.95L466.9,376.7L477.05,377.66L537.95,382.12L548.1,382.66L609,384.27L619.15,384.37L781.55,384.97L791.7,384.97L1004.85,384.9L1015,384.06" style="vector-effect: none; fill: none; stroke: rgb(92, 184, 92); stroke-opacity: 1; stroke-width: 2px; opacity: 1;"/></g><g class="points"/><g class="text"/></g><g class="trace scatter tracedde3b1" style="stroke-miterlimit: 2; opacity: 1;"><g class="fills"/><g class="errorbars"/><g class="lines"><path class="js-line" d="M0,384.99L101.5,384.33L111.65,383.96L142.1,382.34L152.25,381.22L182.7,377.33L192.85,375.5L213.15,370.44L223.3,366.76L243.6,357.22L253.75,351.34L284.2,334.23L294.35,329.29L314.65,320.87L324.8,317.98L334.95,315.93L345.1,314.93L355.25,315.2L365.4,316.51L385.7,322.36L395.85,326.18L406,327.68L416.15,332.07L426.3,339.49L436.45,344.14L466.9,356.39L477.05,359.95L507.5,368.63L517.65,371.15L537.95,375.35L548.1,377.06L568.4,379.77L578.55,380.56L619.15,383.03L629.3,383.35L690.2,384.62L700.35,384.69L872.9,384.97L883.05,384.98L1004.85,384.78L1015,382.69" style="vector-effect: none; fill: none; stroke: rgb(92, 184, 92); stroke-opacity: 1; stroke-width: 2px; opacity: 1;"/></g><g class="points"/><g class="text"/></g><g class="trace scatter trace60b268" style="stroke-miterlimit: 2; opacity: 1;"><g class="fills"/><g class="errorbars"/><g class="lines"><path class="js-line" d="M0,385L152.25,384.32L162.4,384.07L213.15,381.87L223.3,381.07L253.75,377.59L263.9,376.23L304.5,370.99L314.65,369.88L334.95,368.38L345.1,368.04L365.4,368.22L375.55,368.73L395.85,370.34L406,370.1L416.15,371.2L426.3,373.49L487.2,379.31L497.35,380.03L558.25,383.23L568.4,383.5L639.45,384.5L649.6,384.58L842.45,385L852.6,385L1015,385" style="vector-effect: none; fill: none; stroke: rgb(92, 184, 92); stroke-opacity: 1; stroke-width: 2px; opacity: 1;"/></g><g class="points"/><g class="text"/></g><g class="trace scatter trace3426fa" style="stroke-miterlimit: 2; opacity: 1;"><g class="fills"/><g class="errorbars"/><g class="lines"><path class="js-line" d="M0,385L101.5,384.53L111.65,384.18L131.95,383.13L142.1,381.99L162.4,378.32L172.55,375.82L192.85,369.18L203,364.68L213.15,359.08L223.3,351.9L233.45,343.27L243.6,333.43L284.2,289.4L294.35,279.66L304.5,270.98L314.65,263.66L324.8,257.94L334.95,253.87L345.1,251.95L355.25,252.38L365.4,254.9L375.55,259.77L395.85,273.47L406,278.73L416.15,287.52L426.3,299L446.6,315.82L456.75,323.48L477.05,337.47L487.2,343.4L507.5,354.13L517.65,358.93L537.95,366.81L548.1,370.03L568.4,375.05L578.55,376.74L598.85,379.56L609,380.46L669.9,383.83L680.05,384.06L761.25,384.79L771.4,384.82L994.7,384.74L1004.85,384.39L1015,378.42" style="vector-effect: none; fill: none; stroke: rgb(240, 173, 78); stroke-opacity: 1; stroke-width: 2px; opacity: 1;"/></g><g class="points"/><g class="text"/></g><g class="trace scatter trace938d34" style="stroke-miterlimit: 2; opacity: 1;"><g class="fills"/><g class="errorbars"/><g class="lines"><path class="js-line" d="M0,385L131.95,384.43L142.1,384.03L172.55,381.93L182.7,380.85L203,377.72L213.15,375.59L233.45,369.63L243.6,365.8L304.5,339.76L314.65,336.32L334.95,331.46L345.1,330.1L355.25,329.82L365.4,330.37L385.7,334.14L395.85,336.73L406,338.43L416.15,342.02L426.3,347.06L436.45,350.52L466.9,360.45L477.05,363.27L517.65,372.78L527.8,374.68L558.25,378.96L568.4,379.96L598.85,382.02L609,382.37L690.2,384.56L700.35,384.64L832.3,384.97L842.45,384.98L1015,384.97" style="vector-effect: none; fill: none; stroke: rgb(92, 184, 92); stroke-opacity: 1; stroke-width: 2px; opacity: 1;"/></g><g class="points"/><g class="text"/></g><g class="trace scatter tracebca502" style="stroke-miterlimit: 2; opacity: 1;"><g class="fills"/><g class="errorbars"/><g class="lines"><path class="js-line" d="M0,384.98L91.35,384.44L101.5,384.03L142.1,381.84L152.25,380.69L182.7,375.98L192.85,373.72L213.15,367.27L223.3,362.84L243.6,351.37L253.75,344.54L284.2,323.74L294.35,317.45L304.5,311.76L314.65,306.94L324.8,303.25L334.95,300.55L345.1,299.09L355.25,299.41L365.4,301.15L375.55,304.07L395.85,312.51L406,315.22L416.15,320.81L426.3,328.97L446.6,339.94L456.75,345.04L477.05,353.98L487.2,357.87L507.5,364.85L517.65,367.92L537.95,372.97L548.1,375L578.55,379.46L588.7,380.45L639.45,383.21L649.6,383.62L700.35,384.57L710.5,384.66L862.75,384.99L872.9,384.99L1015,385" style="vector-effect: none; fill: none; stroke: rgb(92, 184, 92); stroke-opacity: 1; stroke-width: 2px; opacity: 1;"/></g><g class="points"/><g class="text"/></g><g class="trace scatter tracecbb14a" style="stroke-miterlimit: 2; opacity: 1;"><g class="fills"/><g class="errorbars"/><g class="lines"><path class="js-line" d="M0,384.99L101.5,384.48L111.65,384.23L142.1,383.08L152.25,382.28L182.7,379.11L192.85,377.52L213.15,373.13L223.3,370.03L243.6,362.09L253.75,357.29L284.2,342.9L294.35,338.57L314.65,331.08L324.8,328.45L334.95,326.48L345.1,325.35L355.25,325.28L365.4,326.12L385.7,330.55L395.85,333.45L406,334.63L416.15,338.36L426.3,344.43L436.45,348.27L466.9,358.77L477.05,361.77L507.5,369.53L517.65,371.72L548.1,377.09L558.25,378.5L578.55,380.26L588.7,380.83L619.15,382.72L629.3,383.05L690.2,384.5L700.35,384.59L842.45,384.96L852.6,384.96L1004.85,384.69L1015,381.65" style="vector-effect: none; fill: none; stroke: rgb(240, 173, 78); stroke-opacity: 1; stroke-width: 2px; opacity: 1;"/></g><g class="points"/><g class="text"/></g><g class="trace scatter trace3784ee" style="stroke-miterlimit: 2; opacity: 1;"><g class="fills"/><g class="errorbars"/><g class="lines"><path class="js-line" d="M0,385L111.65,384.4L121.8,384.18L142.1,383.12L152.25,382.17L182.7,378.4L192.85,376.5L213.15,371.3L223.3,367.59L243.6,357.97L253.75,352.17L284.2,335.23L294.35,329.95L304.5,325.13L314.65,321.16L334.95,315.71L345.1,314.46L355.25,314.48L365.4,315.6L385.7,320.8L395.85,324.36L406,326.17L416.15,330.71L426.3,337.66L436.45,342.22L466.9,354.7L477.05,358.25L507.5,367.02L517.65,369.61L537.95,374.27L548.1,376.1L568.4,378.71L578.55,379.7L609,381.99L619.15,382.44L690.2,384.42L700.35,384.52L832.3,384.95L842.45,384.96L1004.85,384.75L1015,382.18" style="vector-effect: none; fill: none; stroke: rgb(92, 184, 92); stroke-opacity: 1; stroke-width: 2px; opacity: 1;"/></g><g class="points"/><g class="text"/></g><g class="trace scatter trace7d6f08" style="stroke-miterlimit: 2; opacity: 1;"><g class="fills"/><g class="errorbars"/><g class="lines"><path class="js-line" d="M0,384.99L91.35,384.34L101.5,383.88L142.1,381.49L152.25,380.2L192.85,373.89L203,371.23L213.15,368.17L223.3,364.19L243.6,353.39L253.75,346.99L284.2,327.35L294.35,321.53L314.65,311.61L324.8,308.1L334.95,305.45L345.1,303.97L355.25,304.11L365.4,305.56L375.55,308.26L385.7,311.99L395.85,316.08L406,316.83L416.15,322.03L426.3,331.17L456.75,346.41L466.9,350.84L487.2,358.61L497.35,362.08L527.8,371.03L537.95,373.37L558.25,377.19L568.4,378.62L598.85,381.47L609,381.98L690.2,384.52L700.35,384.62L862.75,384.99L872.9,384.99L1015,385" style="vector-effect: none; fill: none; stroke: rgb(92, 184, 92); stroke-opacity: 1; stroke-width: 2px; opacity: 1;"/></g><g class="points"/><g class="text"/></g><g class="trace scatter tracee5e4fa" style="stroke-miterlimit: 2; opacity: 1;"><g class="fills"/><g class="errorbars"/><g class="lines"><path class="js-line" d="M0,385L121.8,384.43L131.95,384.07L152.25,382.47L162.4,381.22L182.7,377.79L192.85,375.35L213.15,368.48L223.3,363.68L243.6,351.24L253.75,343.87L294.35,312.78L304.5,306.01L314.65,300.22L324.8,295.4L334.95,291.75L345.1,289.43L355.25,288.82L365.4,289.79L375.55,292.4L385.7,296.24L406,304.84L416.15,310.83L426.3,318.1L436.45,324.16L456.75,335.94L466.9,341.26L487.2,350.73L497.35,355.11L527.8,366.43L537.95,369.33L558.25,374.08L568.4,375.94L588.7,378.81L598.85,379.8L649.6,382.98L659.75,383.43L710.5,384.49L720.65,384.59L842.45,384.96L852.6,384.97L1015,384.98" style="vector-effect: none; fill: none; stroke: rgb(92, 184, 92); stroke-opacity: 1; stroke-width: 2px; opacity: 1;"/></g><g class="points"/><g class="text"/></g><g class="trace scatter trace179823" style="stroke-miterlimit: 2; opacity: 1;"><g class="fills"/><g class="errorbars"/><g class="lines"><path class="js-line" d="M0,384.99L101.5,384.34L111.65,383.97L142.1,382.39L152.25,381.23L192.85,375.79L203,373.77L213.15,371.26L223.3,367.85L243.6,359L253.75,353.56L274.05,342.74L284.2,337.83L304.5,328.99L314.65,325.69L334.95,321.3L345.1,320.46L355.25,320.85L365.4,322.28L375.55,324.69L385.7,327.91L395.85,331.5L406,331.67L416.15,335.77L426.3,343.76L446.6,352.1L456.75,355.86L477.05,362.7L487.2,365.53L517.65,372.79L527.8,374.78L558.25,379.44L568.4,380.5L609,383.06L619.15,383.39L690.2,384.7L700.35,384.75L893.2,384.98L903.35,384.98L1004.85,384.81L1015,383.13" style="vector-effect: none; fill: none; stroke: rgb(92, 184, 92); stroke-opacity: 1; stroke-width: 2px; opacity: 1;"/></g><g class="points"/><g class="text"/></g><g class="trace scatter trace5ac67e" style="stroke-miterlimit: 2; opacity: 1;"><g class="fills"/><g class="errorbars"/><g class="lines"><path class="js-line" d="M0,385L121.8,384.39L131.95,384.15L172.55,381.74L182.7,380.97L203,378.82L213.15,377.38L233.45,373.19L243.6,370.58L294.35,356.35L304.5,354.17L324.8,351.02L334.95,350.06L355.25,350.04L365.4,350.82L385.7,353.99L395.85,356L406,356.91L416.15,359.25L426.3,362.88L436.45,365.19L477.05,373.06L487.2,374.58L527.8,379.5L537.95,380.42L568.4,382.57L578.55,382.92L639.45,384.44L649.6,384.56L761.25,384.95L771.4,384.96L1004.85,384.83L1015,383.07" style="vector-effect: none; fill: none; stroke: rgb(92, 184, 92); stroke-opacity: 1; stroke-width: 2px; opacity: 1;"/></g><g class="points"/><g class="text"/></g><g class="trace scatter trace046ccf" style="stroke-miterlimit: 2; opacity: 1;"><g class="fills"/><g class="errorbars"/><g class="lines"><path class="js-line" d="M0,384.99L91.35,384.44L101.5,384.04L142.1,381.81L152.25,380.66L192.85,374.55L203,371.75L223.3,364.91L233.45,360.03L253.75,348.06L263.9,341.57L284.2,329.05L294.35,323.39L314.65,313.66L324.8,310.34L334.95,307.83L345.1,306.53L355.25,306.76L365.4,308.3L375.55,310.98L385.7,314.59L395.85,318.8L406,321.31L416.15,326.41L426.3,333.66L456.75,348.37L466.9,352.62L487.2,360.1L497.35,363.39L527.8,371.86L537.95,374.09L558.25,377.67L568.4,378.99L598.85,381.67L609,382.16L690.2,384.55L700.35,384.64L852.6,384.99L862.75,384.99L1015,385" style="vector-effect: none; fill: none; stroke: rgb(92, 184, 92); stroke-opacity: 1; stroke-width: 2px; opacity: 1;"/></g><g class="points"/><g class="text"/></g><g class="trace scatter traceed723b" style="stroke-miterlimit: 2; opacity: 1;"><g class="fills"/><g class="errorbars"/><g class="lines"><path class="js-line" d="M0,385L101.5,384.51L111.65,384.19L131.95,383.36L142.1,382.43L172.55,378.02L182.7,376.14L203,370.97L213.15,367.51L223.3,363.02L233.45,357.61L253.75,344.46L263.9,337.44L284.2,324.17L294.35,318.2L304.5,312.79L314.65,308.31L324.8,304.91L334.95,302.52L345.1,301.45L355.25,301.9L365.4,303.88L375.55,307.29L406,319.68L416.15,325.16L426.3,332.17L436.45,337.56L456.75,347.54L466.9,352.06L487.2,359.78L497.35,363.19L517.65,369.22L527.8,371.73L548.1,375.93L558.25,377.61L578.55,379.9L588.7,380.78L619.15,382.73L629.3,383.1L680.05,384.43L690.2,384.53L812,384.93L822.15,384.94L1004.85,384.47L1015,378.9" style="vector-effect: none; fill: none; stroke: rgb(240, 173, 78); stroke-opacity: 1; stroke-width: 2px; opacity: 1;"/></g><g class="points"/><g class="text"/></g><g class="trace scatter trace135c58" style="stroke-miterlimit: 2; opacity: 1;"><g class="fills"/><g class="errorbars"/><g class="lines"><path class="js-line" d="M0,385L91.35,384.59L101.5,384.1L121.8,382.46L131.95,381.04L142.1,378.42L152.25,374.77L162.4,370.16L172.55,364.49L182.7,357.43L192.85,348.32L203,336.88L213.15,322.94L223.3,305.07L233.45,283.49L243.6,258.73L253.75,230.57L294.35,113.57L304.5,88.37L314.65,66.25L324.8,48.19L334.95,33.87L345.1,25.42L355.25,23.85L365.4,27.72L375.55,37.88L385.7,52.77L395.85,70.25L406,84.09L416.15,106.83L426.3,136.68L446.6,183.09L456.75,204.45L477.05,243.31L487.2,260.28L507.5,291.06L517.65,305.17L527.8,317.86L537.95,328.86L548.1,338.71L558.25,347.08L568.4,353.83L578.55,359.39L588.7,364.06L598.85,367.81L619.15,373.06L629.3,375L659.75,380.27L669.9,381.31L700.35,383.08L710.5,383.48L761.25,384.43L771.4,384.52L893.2,384.98L903.35,384.99L1015,384.99" style="vector-effect: none; fill: none; stroke: rgb(92, 184, 92); stroke-opacity: 1; stroke-width: 2px; opacity: 1;"/></g><g class="points"/><g class="text"/></g><g class="trace scatter tracef675ca" style="stroke-miterlimit: 2; opacity: 1;"><g class="fills"/><g class="errorbars"/><g class="lines"><path class="js-line" d="M0,384.99L91.35,384.43L101.5,384.03L142.1,381.99L152.25,380.92L192.85,375.31L203,373.02L223.3,366.74L233.45,362.48L253.75,352.08L263.9,346.5L284.2,335.69L294.35,330.85L314.65,322.4L324.8,319.43L334.95,317.37L345.1,316.35L355.25,316.56L365.4,317.98L385.7,324.03L395.85,327.37L406,324.99L416.15,329.52L426.3,340.45L436.45,345L466.9,357.23L477.05,360.72L507.5,369.31L517.65,371.77L537.95,375.89L548.1,377.57L578.55,381.1L588.7,381.85L629.3,383.52L639.45,383.86L690.2,384.71L700.35,384.77L893.2,385L903.35,385L1015,385" style="vector-effect: none; fill: none; stroke: rgb(92, 184, 92); stroke-opacity: 1; stroke-width: 2px; opacity: 1;"/></g><g class="points"/><g class="text"/></g><g class="trace scatter trace07b7ea" style="stroke-miterlimit: 2; opacity: 1;"><g class="fills"/><g class="errorbars"/><g class="lines"><path class="js-line" d="M0,385L142.1,384.46L152.25,384.19L203,382.09L213.15,381.39L243.6,378.07L253.75,376.62L304.5,369.59L314.65,368.58L345.1,366.98L355.25,367.04L375.55,368.07L385.7,368.97L395.85,369.94L406,369.45L416.15,370.59L426.3,373.35L466.9,377.8L477.05,378.69L527.8,382.09L537.95,382.62L588.7,384.14L598.85,384.32L710.5,384.94L720.65,384.95L1004.85,384.92L1015,384.08" style="vector-effect: none; fill: none; stroke: rgb(240, 173, 78); stroke-opacity: 1; stroke-width: 2px; opacity: 1;"/></g><g class="points"/><g class="text"/></g><g class="trace scatter trace7fd7a1" style="stroke-miterlimit: 2; opacity: 1;"><g class="fills"/><g class="errorbars"/><g class="lines"><path class="js-line" d="M0,384.99L101.5,384.44L111.65,384.15L142.1,382.8L152.25,381.83L182.7,377.81L192.85,375.91L213.15,370.46L223.3,366.59L243.6,356.87L253.75,351.09L284.2,333.7L294.35,328.45L304.5,323.72L314.65,319.83L334.95,314.57L345.1,313.37L355.25,313.46L365.4,314.77L385.7,320.44L395.85,324.19L406,326.78L416.15,331.37L426.3,337.74L436.45,342.39L456.75,351.17L466.9,355.12L487.2,362.07L497.35,365.08L517.65,370.42L527.8,372.66L558.25,378.16L568.4,379.38L619.15,382.77L629.3,383.14L680.05,384.43L690.2,384.52L812,384.93L822.15,384.93L1004.85,384.62L1015,381.51" style="vector-effect: none; fill: none; stroke: rgb(92, 184, 92); stroke-opacity: 1; stroke-width: 2px; opacity: 1;"/></g><g class="points"/><g class="text"/></g><g class="trace scatter tracec0dd85" style="stroke-miterlimit: 2; opacity: 1;"><g class="fills"/><g class="errorbars"/><g class="lines"><path class="js-line" d="M0,385L121.8,384.46L131.95,384.18L162.4,381.99L172.55,380.84L192.85,377.61L203,375.3L223.3,368.95L233.45,364.69L253.75,354.26L263.9,348.52L294.35,331.21L304.5,326.23L314.65,321.75L324.8,318.18L334.95,315.48L345.1,313.85L355.25,313.47L365.4,314.17L375.55,316.21L385.7,319.24L395.85,322.65L406,324.47L416.15,328.99L426.3,335.7L466.9,353.1L477.05,356.85L507.5,366.43L517.65,369.24L537.95,373.78L548.1,375.63L578.55,379.64L588.7,380.56L629.3,382.67L639.45,383.14L680.05,384.34L690.2,384.47L812,384.95L822.15,384.96L1015,385" style="vector-effect: none; fill: none; stroke: rgb(92, 184, 92); stroke-opacity: 1; stroke-width: 2px; opacity: 1;"/></g><g class="points"/><g class="text"/></g><g class="trace scatter traced97948" style="stroke-miterlimit: 2; opacity: 1;"><g class="fills"/><g class="errorbars"/><g class="lines"><path class="js-line" d="M0,385L121.8,384.29L131.95,383.98L162.4,381.6L172.55,380.44L192.85,377.28L203,374.96L223.3,368.82L233.45,364.64L253.75,354.66L263.9,349.33L294.35,333.64L304.5,329.1L314.65,325.19L324.8,322.22L334.95,320.05L345.1,318.87L355.25,318.87L365.4,320L385.7,325.15L395.85,328.51L406,330.33L416.15,334.58L426.3,340.95L436.45,345.24L456.75,353.46L466.9,357.07L487.2,363.4L497.35,366.25L517.65,371.39L527.8,373.51L558.25,378.33L568.4,379.43L598.85,381.83L609,382.28L690.2,384.55L700.35,384.64L832.3,384.97L842.45,384.98L1015,385" style="vector-effect: none; fill: none; stroke: rgb(92, 184, 92); stroke-opacity: 1; stroke-width: 2px; opacity: 1;"/></g><g class="points"/><g class="text"/></g><g class="trace scatter trace31f134" style="stroke-miterlimit: 2; opacity: 1;"><g class="fills"/><g class="errorbars"/><g class="lines"><path class="js-line" d="M0,384.98L91.35,384.27L101.5,383.86L131.95,382.35L142.1,381.15L172.55,375.92L182.7,373.5L203,366.88L213.15,362.26L223.3,356.2L233.45,349.16L243.6,341.27L253.75,332.38L284.2,305.62L294.35,297.52L304.5,290.29L314.65,284.27L324.8,279.53L334.95,276.14L345.1,274.4L355.25,274.64L365.4,276.6L375.55,280.09L385.7,284.81L395.85,290.42L406,293.84L416.15,300.85L426.3,311.03L436.45,318.12L456.75,331.42L466.9,337.54L487.2,348.42L497.35,353.11L517.65,361.47L527.8,365.1L548.1,371.33L558.25,373.83L578.55,377.17L588.7,378.4L609,380.57L619.15,381.29L669.9,383.74L680.05,383.98L771.4,384.77L781.55,384.8L984.55,384.75L994.7,384.58L1004.85,384.09L1015,375.99" style="vector-effect: none; fill: none; stroke: rgb(240, 173, 78); stroke-opacity: 1; stroke-width: 2px; opacity: 1;"/></g><g class="points"/><g class="text"/></g><g class="trace scatter traced12fbb" style="stroke-miterlimit: 2; opacity: 1;"><g class="fills"/><g class="errorbars"/><g class="lines"><path class="js-line" d="M0,384.99L111.65,384.29L121.8,384.05L142.1,382.96L152.25,382.05L172.55,379.59L182.7,377.96L203,373.41L213.15,370.37L233.45,361.88L243.6,356.69L294.35,328.01L304.5,323.36L314.65,319.32L324.8,316.3L334.95,314.09L345.1,312.95L355.25,313.26L365.4,314.75L385.7,320.48L395.85,324.22L406,325.4L416.15,330.03L426.3,337.82L436.45,342.43L466.9,355.12L477.05,358.82L507.5,367.85L517.65,370.46L537.95,374.73L548.1,376.41L578.55,380.31L588.7,381.1L649.6,383.82L659.75,384.09L730.8,384.8L740.95,384.83L994.7,384.81L1004.85,384.58L1015,380.36" style="vector-effect: none; fill: none; stroke: rgb(240, 173, 78); stroke-opacity: 1; stroke-width: 2px; opacity: 1;"/></g><g class="points"/><g class="text"/></g><g class="trace scatter trace1213cb" style="stroke-miterlimit: 2; opacity: 1;"><g class="fills"/><g class="errorbars"/><g class="lines"><path class="js-line" d="M0,385L111.65,384.18L121.8,383.92L142.1,382.75L152.25,381.81L182.7,377.81L192.85,375.75L213.15,369.96L223.3,366.07L233.45,361.29L243.6,355.66L294.35,323.69L304.5,318.27L314.65,313.59L324.8,309.77L334.95,306.81L345.1,305.09L355.25,304.87L365.4,305.95L375.55,308.44L385.7,311.87L395.85,315.82L406,316.87L416.15,321.97L426.3,330.81L456.75,345.91L466.9,350.45L487.2,358.31L497.35,361.78L527.8,370.76L537.95,373.13L558.25,377.02L568.4,378.45L598.85,381.4L609,382.02L669.9,384.3L680.05,384.44L801.85,384.95L812,384.96L1015,385" style="vector-effect: none; fill: none; stroke: rgb(92, 184, 92); stroke-opacity: 1; stroke-width: 2px; opacity: 1;"/></g><g class="points"/><g class="text"/></g><g class="trace scatter trace06f50d" style="stroke-miterlimit: 2; opacity: 1;"><g class="fills"/><g class="errorbars"/><g class="lines"><path class="js-line" d="M0,385L131.95,384.25L142.1,383.92L203,380.76L213.15,379.85L243.6,375.34L253.75,373.32L294.35,365.88L304.5,364.36L324.8,362.11L334.95,361.41L355.25,361.15L365.4,361.61L416.15,366.44L426.3,369.23L477.05,376.18L487.2,377.24L537.95,381.46L548.1,382.07L588.7,383.52L598.85,383.87L680.05,384.8L690.2,384.84L1004.85,384.92L1015,384.13" style="vector-effect: none; fill: none; stroke: rgb(240, 173, 78); stroke-opacity: 1; stroke-width: 2px; opacity: 1;"/></g><g class="points"/><g class="text"/></g><g class="trace scatter trace295cf8" style="stroke-miterlimit: 2; opacity: 1;"><g class="fills"/><g class="errorbars"/><g class="lines"><path class="js-line" d="M0,385L162.4,384.41L172.55,384.22L223.3,382.42L233.45,381.76L294.35,376.57L304.5,375.81L334.95,374.17L345.1,373.94L375.55,374.47L385.7,374.94L416.15,376.18L426.3,377.65L487.2,381.41L497.35,381.87L558.25,383.89L568.4,384.08L680.05,384.87L690.2,384.9L974.4,385L984.55,385L1015,385" style="vector-effect: none; fill: none; stroke: rgb(92, 184, 92); stroke-opacity: 1; stroke-width: 2px; opacity: 1;"/></g><g class="points"/><g class="text"/></g><g class="trace scatter traced503d4" style="stroke-miterlimit: 2; opacity: 1;"><g class="fills"/><g class="errorbars"/><g class="lines"><path class="js-line" d="M0,385L101.5,384.26L111.65,383.68L131.95,382.23L142.1,380.67L162.4,375.94L172.55,372.89L182.7,369.34L192.85,364.61L203,358.49L213.15,351.37L223.3,342.45L233.45,331.74L243.6,319.6L253.75,306.09L284.2,264.89L294.35,252.46L304.5,241.36L314.65,231.99L324.8,224.72L334.95,219.54L345.1,217.05L355.25,217.79L365.4,221.56L375.55,227.94L395.85,245.57L406,252.45L416.15,263.64L426.3,277.96L446.6,299.32L456.75,309.07L477.05,326.34L487.2,333.67L507.5,346.96L517.65,352.88L537.95,362.64L548.1,366.72L568.4,372.79L578.55,375.07L598.85,378.41L609,379.59L649.6,382.71L659.75,383.21L710.5,384.44L720.65,384.57L842.45,384.97L852.6,384.97L1015,385" style="vector-effect: none; fill: none; stroke: rgb(92, 184, 92); stroke-opacity: 1; stroke-width: 2px; opacity: 1;"/></g><g class="points"/><g class="text"/></g><g class="trace scatter trace9e968f" style="stroke-miterlimit: 2; opacity: 1;"><g class="fills"/><g class="errorbars"/><g class="lines"><path class="js-line" d="M0,384.97L91.35,384.18L101.5,383.76L142.1,381.54L152.25,380.25L182.7,375.84L192.85,373.71L213.15,367.66L223.3,363.25L243.6,352.34L253.75,345.82L274.05,332.46L284.2,326.53L304.5,315.85L314.65,311.76L324.8,308.52L334.95,306.25L345.1,305.42L355.25,305.95L365.4,307.51L375.55,310.26L395.85,318.2L406,320.71L416.15,325.98L426.3,333.6L456.75,348.29L466.9,352.64L487.2,360.25L497.35,363.51L527.8,371.99L537.95,374.21L558.25,377.75L568.4,378.92L609,382.29L619.15,382.74L680.05,384.38L690.2,384.48L822.15,384.92L832.3,384.92L994.7,384.66L1004.85,384.24L1015,376.86" style="vector-effect: none; fill: none; stroke: rgb(240, 173, 78); stroke-opacity: 1; stroke-width: 2px; opacity: 1;"/></g><g class="points"/><g class="text"/></g><g class="trace scatter trace65f6a8" style="stroke-miterlimit: 2; opacity: 1;"><g class="fills"/><g class="errorbars"/><g class="lines"><path class="js-line" d="M0,384.99L91.35,384.23L101.5,383.77L142.1,380.69L152.25,378.92L182.7,373.03L192.85,370.27L203,366.86L213.15,362.61L223.3,356.89L233.45,350.18L243.6,342.52L253.75,333.7L274.05,315.99L284.2,307.93L304.5,293.41L314.65,287.7L324.8,283.23L334.95,279.89L345.1,278.3L355.25,278.7L365.4,280.68L375.55,284.52L395.85,294.87L406,293.35L416.15,300.09L426.3,314.74L446.6,328.45L456.75,334.69L477.05,346.11L487.2,350.93L507.5,359.63L517.65,363.49L537.95,369.96L548.1,372.65L568.4,376.82L578.55,378.14L609,381.37L619.15,381.94L680.05,384.28L690.2,384.41L801.85,384.91L812,384.92L1004.85,384.66L1015,381.8" style="vector-effect: none; fill: none; stroke: rgb(92, 184, 92); stroke-opacity: 1; stroke-width: 2px; opacity: 1;"/></g><g class="points"/><g class="text"/></g><g class="trace scatter trace0bffe0" style="stroke-miterlimit: 2; opacity: 1;"><g class="fills"/><g class="errorbars"/><g class="lines"><path class="js-line" d="M0,385L111.65,384.47L121.8,384.24L142.1,383.26L152.25,382.37L172.55,379.8L182.7,378.07L203,372.99L213.15,369.55L223.3,365.27L233.45,360.07L253.75,347.28L263.9,340.29L294.35,319.5L304.5,313.39L314.65,308.1L324.8,303.72L334.95,300.3L345.1,298.22L355.25,297.76L365.4,298.73L375.55,301.2L385.7,304.75L395.85,308.67L406,309.98L416.15,315.57L426.3,324.66L456.75,340.8L466.9,345.7L487.2,354.41L497.35,358.27L517.65,365.34L527.8,368.33L548.1,373.29L558.25,375.3L578.55,378.34L588.7,379.47L619.15,381.35L629.3,381.88L669.9,383.89L680.05,384.13L761.25,384.83L771.4,384.86L1015,385" style="vector-effect: none; fill: none; stroke: rgb(92, 184, 92); stroke-opacity: 1; stroke-width: 2px; opacity: 1;"/></g><g class="points"/><g class="text"/></g><g class="trace scatter tracefc4537" style="stroke-miterlimit: 2; opacity: 1;"><g class="fills"/><g class="errorbars"/><g class="lines"><path class="js-line" d="M0,385L121.8,384.16L131.95,383.86L162.4,381.73L172.55,380.67L192.85,377.98L203,376L223.3,370.75L233.45,367.11L253.75,358.25L263.9,353.39L294.35,339.12L304.5,335.01L324.8,328.56L334.95,326.34L345.1,325.05L355.25,324.83L365.4,325.47L375.55,327.1L395.85,332.46L406,333.59L416.15,337.32L426.3,343.31L456.75,354.7L466.9,358.09L497.35,366.83L507.5,369.33L527.8,373.73L537.95,375.49L568.4,379.57L578.55,380.5L609,382.34L619.15,382.74L680.05,384.49L690.2,384.59L832.3,384.98L842.45,384.98L1015,385" style="vector-effect: none; fill: none; stroke: rgb(92, 184, 92); stroke-opacity: 1; stroke-width: 2px; opacity: 1;"/></g><g class="points"/><g class="text"/></g></g></g></g><g class="zerolinelayer-above"/><path class="xlines-above crisp" d="M0,0" style="fill: none;"/><path class="ylines-above crisp" d="M0,0" style="fill: none;"/><g class="overlines-above"/><g class="xaxislayer-above"><g class="xtick"><text text-anchor="middle" x="0" y="451" transform="translate(60,0)" style="font-family: system-ui, -apple-system, 'Segoe UI', Roboto, 'Helvetica Neue', 'Noto Sans', 'Liberation Sans', Arial, sans-serif, 'Apple Color Emoji', 'Segoe UI Emoji', 'Segoe UI Symbol', 'Noto Color Emoji'; font-size: 10px; fill: rgb(80, 80, 80); fill-opacity: 1; white-space: pre;">0%</text></g><g class="xtick"><text text-anchor="middle" x="0" y="451" style="font-family: system-ui, -apple-system, 'Segoe UI', Roboto, 'Helvetica Neue', 'Noto Sans', 'Liberation Sans', Arial, sans-serif, 'Apple Color Emoji', 'Segoe UI Emoji', 'Segoe UI Symbol', 'Noto Color Emoji'; font-size: 10px; fill: rgb(80, 80, 80); fill-opacity: 1; white-space: pre;" transform="translate(263,0)">20%</text></g><g class="xtick"><text text-anchor="middle" x="0" y="451" style="font-family: system-ui, -apple-system, 'Segoe UI', Roboto, 'Helvetica Neue', 'Noto Sans', 'Liberation Sans', Arial, sans-serif, 'Apple Color Emoji', 'Segoe UI Emoji', 'Segoe UI Symbol', 'Noto Color Emoji'; font-size: 10px; fill: rgb(80, 80, 80); fill-opacity: 1; white-space: pre;" transform="translate(466,0)">40%</text></g><g class="xtick"><text text-anchor="middle" x="0" y="451" style="font-family: system-ui, -apple-system, 'Segoe UI', Roboto, 'Helvetica Neue', 'Noto Sans', 'Liberation Sans', Arial, sans-serif, 'Apple Color Emoji', 'Segoe UI Emoji', 'Segoe UI Symbol', 'Noto Color Emoji'; font-size: 10px; fill: rgb(80, 80, 80); fill-opacity: 1; white-space: pre;" transform="translate(669,0)">60%</text></g><g class="xtick"><text text-anchor="middle" x="0" y="451" style="font-family: system-ui, -apple-system, 'Segoe UI', Roboto, 'Helvetica Neue', 'Noto Sans', 'Liberation Sans', Arial, sans-serif, 'Apple Color Emoji', 'Segoe UI Emoji', 'Segoe UI Symbol', 'Noto Color Emoji'; font-size: 10px; fill: rgb(80, 80, 80); fill-opacity: 1; white-space: pre;" transform="translate(872,0)">80%</text></g><g class="xtick"><text text-anchor="middle" x="0" y="451" style="font-family: system-ui, -apple-system, 'Segoe UI', Roboto, 'Helvetica Neue', 'Noto Sans', 'Liberation Sans', Arial, sans-serif, 'Apple Color Emoji', 'Segoe UI Emoji', 'Segoe UI Symbol', 'Noto Color Emoji'; font-size: 10px; fill: rgb(80, 80, 80); fill-opacity: 1; white-space: pre;" transform="translate(1075,0)">100%</text></g></g><g class="yaxislayer-above"><g class="ytick"><text text-anchor="end" x="54" y="3.5" transform="translate(0,435)" style="font-family: system-ui, -apple-system, 'Segoe UI', Roboto, 'Helvetica Neue', 'Noto Sans', 'Liberation Sans', Arial, sans-serif, 'Apple Color Emoji', 'Segoe UI Emoji', 'Segoe UI Symbol', 'Noto Color Emoji'; font-size: 10px; fill: rgb(80, 80, 80); fill-opacity: 1; white-space: pre;">0</text></g><g class="ytick"><text text-anchor="end" x="54" y="3.5" style="font-family: system-ui, -apple-system, 'Segoe UI', Roboto, 'Helvetica Neue', 'Noto Sans', 'Liberation Sans', Arial, sans-serif, 'Apple Color Emoji', 'Segoe UI Emoji', 'Segoe UI Symbol', 'Noto Color Emoji'; font-size: 10px; fill: rgb(80, 80, 80); fill-opacity: 1; white-space: pre;" transform="translate(0,395.87)">1M</text></g><g class="ytick"><text text-anchor="end" x="54" y="3.5" style="font-family: system-ui, -apple-system, 'Segoe UI', Roboto, 'Helvetica Neue', 'Noto Sans', 'Liberation Sans', Arial, sans-serif, 'Apple Color Emoji', 'Segoe UI Emoji', 'Segoe UI Symbol', 'Noto Color Emoji'; font-size: 10px; fill: rgb(80, 80, 80); fill-opacity: 1; white-space: pre;" transform="translate(0,356.73)">2M</text></g><g class="ytick"><text text-anchor="end" x="54" y="3.5" style="font-family: system-ui, -apple-system, 'Segoe UI', Roboto, 'Helvetica Neue', 'Noto Sans', 'Liberation Sans', Arial, sans-serif, 'Apple Color Emoji', 'Segoe UI Emoji', 'Segoe UI Symbol', 'Noto Color Emoji'; font-size: 10px; fill: rgb(80, 80, 80); fill-opacity: 1; white-space: pre;" transform="translate(0,317.6)">3M</text></g><g class="ytick"><text text-anchor="end" x="54" y="3.5" style="font-family: system-ui, -apple-system, 'Segoe UI', Roboto, 'Helvetica Neue', 'Noto Sans', 'Liberation Sans', Arial, sans-serif, 'Apple Color Emoji', 'Segoe UI Emoji', 'Segoe UI Symbol', 'Noto Color Emoji'; font-size: 10px; fill: rgb(80, 80, 80); fill-opacity: 1; white-space: pre;" transform="translate(0,278.46000000000004)">4M</text></g><g class="ytick"><text text-anchor="end" x="54" y="3.5" style="font-family: system-ui, -apple-system, 'Segoe UI', Roboto, 'Helvetica Neue', 'Noto Sans', 'Liberation Sans', Arial, sans-serif, 'Apple Color Emoji', 'Segoe UI Emoji', 'Segoe UI Symbol', 'Noto Color Emoji'; font-size: 10px; fill: rgb(80, 80, 80); fill-opacity: 1; white-space: pre;" transform="translate(0,239.33)">5M</text></g><g class="ytick"><text text-anchor="end" x="54" y="3.5" style="font-family: system-ui, -apple-system, 'Segoe UI', Roboto, 'Helvetica Neue', 'Noto Sans', 'Liberation Sans', Arial, sans-serif, 'Apple Color Emoji', 'Segoe UI Emoji', 'Segoe UI Symbol', 'Noto Color Emoji'; font-size: 10px; fill: rgb(80, 80, 80); fill-opacity: 1; white-space: pre;" transform="translate(0,200.19)">6M</text></g><g class="ytick"><text text-anchor="end" x="54" y="3.5" style="font-family: system-ui, -apple-system, 'Segoe UI', Roboto, 'Helvetica Neue', 'Noto Sans', 'Liberation Sans', Arial, sans-serif, 'Apple Color Emoji', 'Segoe UI Emoji', 'Segoe UI Symbol', 'Noto Color Emoji'; font-size: 10px; fill: rgb(80, 80, 80); fill-opacity: 1; white-space: pre;" transform="translate(0,161.06)">7M</text></g><g class="ytick"><text text-anchor="end" x="54" y="3.5" style="font-family: system-ui, -apple-system, 'Segoe UI', Roboto, 'Helvetica Neue', 'Noto Sans', 'Liberation Sans', Arial, sans-serif, 'Apple Color Emoji', 'Segoe UI Emoji', 'Segoe UI Symbol', 'Noto Color Emoji'; font-size: 10px; fill: rgb(80, 80, 80); fill-opacity: 1; white-space: pre;" transform="translate(0,121.93)">8M</text></g><g class="ytick"><text text-anchor="end" x="54" y="3.5" style="font-family: system-ui, -apple-system, 'Segoe UI', Roboto, 'Helvetica Neue', 'Noto Sans', 'Liberation Sans', Arial, sans-serif, 'Apple Color Emoji', 'Segoe UI Emoji', 'Segoe UI Symbol', 'Noto Color Emoji'; font-size: 10px; fill: rgb(80, 80, 80); fill-opacity: 1; white-space: pre;" transform="translate(0,82.78999999999999)">9M</text></g></g><g class="overaxes-above"/></g></g><g class="polarlayer"/><g class="smithlayer"/><g class="ternarylayer"/><g class="geolayer"/><g class="funnelarealayer"/><g class="pielayer"/><g class="iciclelayer"/><g class="treemaplayer"/><g class="sunburstlayer"/><g class="glimages"/><defs id="topdefs-96e562"><g class="clips"/></defs><g class="layer-above"><g class="imagelayer"/><g class="shapelayer"/></g><g class="infolayer"><g class="g-gtitle"><text class="gtitle" x="550" y="25" text-anchor="middle" dy="0em" style="opacity: 1; font-family: system-ui, -apple-system, 'Segoe UI', Roboto, 'Helvetica Neue', 'Noto Sans', 'Liberation Sans', Arial, sans-serif, 'Apple Color Emoji', 'Segoe UI Emoji', 'Segoe UI Symbol', 'Noto Color Emoji'; font-size: 20px; fill: rgb(60, 60, 60); fill-opacity: 1; white-space: pre;"><tspan class="line" dy="0em" x="550" y="25">FastQC: Per Sequence GC Content</tspan><tspan class="line" dy="1.3em" x="550" y="25">​<tspan style="font-size:70%" dy="-0.6em">Counts, 94 lines</tspan><tspan dy="0.42em">​</tspan></tspan></text></g><g class="g-xtitle"><text class="xtitle" x="567.5" y="487" text-anchor="middle" style="opacity: 1; font-family: system-ui, -apple-system, 'Segoe UI', Roboto, 'Helvetica Neue', 'Noto Sans', 'Liberation Sans', Arial, sans-serif, 'Apple Color Emoji', 'Segoe UI Emoji', 'Segoe UI Symbol', 'Noto Color Emoji'; font-size: 14px; fill: rgb(100, 100, 100); fill-opacity: 1; white-space: pre;">% GC</text></g><g class="g-ytitle"><text class="ytitle" transform="rotate(-90,22,242.5)" x="22" y="242.5" text-anchor="middle" style="opacity: 1; font-family: system-ui, -apple-system, 'Segoe UI', Roboto, 'Helvetica Neue', 'Noto Sans', 'Liberation Sans', Arial, sans-serif, 'Apple Color Emoji', 'Segoe UI Emoji', 'Segoe UI Symbol', 'Noto Color Emoji'; font-size: 14px; fill: rgb(100, 100, 100); fill-opacity: 1; white-space: pre;">Count</text></g></g></svg>