<svg class="main-svg" xmlns="http://www.w3.org/2000/svg" xmlns:xlink="http://www.w3.org/1999/xlink" width="2200" height="1000" style="" viewBox="0 0 1100 500"><rect x="0" y="0" width="1100" height="500" style="fill: rgb(255, 255, 255); fill-opacity: 1;"/><defs id="defs-c8524f"><g class="clips"><clipPath id="clipc8524fxyplot" class="plotclip"><rect width="1025" height="385"/></clipPath><clipPath class="axesclip" id="clipc8524fx"><rect x="60" y="0" width="1025" height="500"/></clipPath><clipPath class="axesclip" id="clipc8524fy"><rect x="0" y="50" width="1100" height="385"/></clipPath><clipPath class="axesclip" id="clipc8524fxy"><rect x="60" y="50" width="1025" height="385"/></clipPath></g><g class="gradients"/><g class="patterns"/></defs><g class="bglayer"/><g class="layer-below"><g class="imagelayer"/><g class="shapelayer"/></g><g class="cartesianlayer"><g class="subplot xy"><g class="layer-subplot"><g class="shapelayer"/><g class="imagelayer"/></g><g class="minor-gridlayer"><g class="x"/><g class="y"/></g><g class="gridlayer"><g class="x"><path class="xgrid crisp" transform="translate(195.24,0)" d="M0,50v385" style="stroke: rgb(128, 128, 128); stroke-opacity: 0.15; stroke-width: 1px;"/><path class="xgrid crisp" transform="translate(337.6,0)" d="M0,50v385" style="stroke: rgb(128, 128, 128); stroke-opacity: 0.15; stroke-width: 1px;"/><path class="xgrid crisp" transform="translate(479.97,0)" d="M0,50v385" style="stroke: rgb(128, 128, 128); stroke-opacity: 0.15; stroke-width: 1px;"/><path class="xgrid crisp" transform="translate(622.33,0)" d="M0,50v385" style="stroke: rgb(128, 128, 128); stroke-opacity: 0.15; stroke-width: 1px;"/><path class="xgrid crisp" transform="translate(764.69,0)" d="M0,50v385" style="stroke: rgb(128, 128, 128); stroke-opacity: 0.15; stroke-width: 1px;"/><path class="xgrid crisp" transform="translate(907.05,0)" d="M0,50v385" style="stroke: rgb(128, 128, 128); stroke-opacity: 0.15; stroke-width: 1px;"/><path class="xgrid crisp" transform="translate(1049.4099999999999,0)" d="M0,50v385" style="stroke: rgb(128, 128, 128); stroke-opacity: 0.15; stroke-width: 1px;"/></g><g class="y"><path class="ygrid crisp" transform="translate(0,389.04)" d="M60,0h1025" style="stroke: rgb(128, 128, 128); stroke-opacity: 0.15; stroke-width: 1px;"/><path class="ygrid crisp" transform="translate(0,343.08)" d="M60,0h1025" style="stroke: rgb(128, 128, 128); stroke-opacity: 0.15; stroke-width: 1px;"/><path class="ygrid crisp" transform="translate(0,297.12)" d="M60,0h1025" style="stroke: rgb(128, 128, 128); stroke-opacity: 0.15; stroke-width: 1px;"/><path class="ygrid crisp" transform="translate(0,251.16)" d="M60,0h1025" style="stroke: rgb(128, 128, 128); stroke-opacity: 0.15; stroke-width: 1px;"/><path class="ygrid crisp" transform="translate(0,205.2)" d="M60,0h1025" style="stroke: rgb(128, 128, 128); stroke-opacity: 0.15; stroke-width: 1px;"/><path class="ygrid crisp" transform="translate(0,159.24)" d="M60,0h1025" style="stroke: rgb(128, 128, 128); stroke-opacity: 0.15; stroke-width: 1px;"/><path class="ygrid crisp" transform="translate(0,113.27000000000001)" d="M60,0h1025" style="stroke: rgb(128, 128, 128); stroke-opacity: 0.15; stroke-width: 1px;"/><path class="ygrid crisp" transform="translate(0,67.31)" d="M60,0h1025" style="stroke: rgb(128, 128, 128); stroke-opacity: 0.15; stroke-width: 1px;"/></g></g><g class="zerolinelayer"><path class="yzl zl crisp" transform="translate(0,435)" d="M60,0h1025" style="stroke: rgb(128, 128, 128); stroke-opacity: 0.2; stroke-width: 1px;"/></g><g class="layer-between"><g class="shapelayer"/><g class="imagelayer"/></g><path class="xlines-below"/><path class="ylines-below"/><g class="overlines-below"/><g class="xaxislayer-below"/><g class="yaxislayer-below"/><g class="overaxes-below"/><g class="overplot"><g class="xy" transform="translate(60,50)" clip-path="url(#clipc8524fxyplot)"><g class="scatterlayer mlayer"><g class="trace scatter trace356889" style="stroke-miterlimit: 2; opacity: 1;"><g class="fills"/><g class="errorbars"/><g class="lines"><path class="js-line" d="M0,21.33L7.12,20.57L14.24,20.76L56.94,20.69L64.06,19.7L363.02,20.66L370.14,21.2L384.38,20.9L391.49,20.96L405.73,21.07L412.85,21.1L498.26,21.73L505.38,21.76L711.81,22.93L718.92,23.46L733.16,23.1L740.28,23.16L960.94,26.19L968.06,26.75L996.53,26.85L1003.65,27.03L1017.88,27.35L1025,30.7" style="vector-effect: none; fill: none; stroke: rgb(124, 181, 236); stroke-opacity: 1; stroke-width: 2px; opacity: 1;"/></g><g class="points"/><g class="text"/></g><g class="trace scatter trace0b4124" style="stroke-miterlimit: 2; opacity: 1;"><g class="fills"/><g class="errorbars"/><g class="lines"><path class="js-line" d="M0,22.1L7.12,21.01L14.24,20.83L35.59,20.82L42.71,20.71L56.94,20.75L64.06,19.81L363.02,20.71L370.14,21.25L384.38,20.9L391.49,20.91L398.61,21.36L405.73,20.98L562.33,21.86L569.44,21.96L711.81,23.22L718.92,23.79L733.16,23.48L740.28,23.57L932.47,27.56L939.58,27.85L996.53,29.15L1003.65,29.44L1017.88,29.93L1025,33.36" style="vector-effect: none; fill: none; stroke: rgb(67, 67, 72); stroke-opacity: 1; stroke-width: 2px; opacity: 1;"/></g><g class="points"/><g class="text"/></g><g class="trace scatter trace78bcab" style="stroke-miterlimit: 2; opacity: 1;"><g class="fills"/><g class="errorbars"/><g class="lines"><path class="js-line" d="M0,21.34L7.12,20.8L14.24,21.5L35.59,21.09L42.71,20.9L56.94,20.94L64.06,19.96L270.49,20.51L277.6,20.67L291.84,20.58L298.96,20.67L790.1,23.92L797.22,24.55L889.76,25.17L896.88,25.36L1017.88,27.27L1025,30.82" style="vector-effect: none; fill: none; stroke: rgb(144, 237, 125); stroke-opacity: 1; stroke-width: 2px; opacity: 1;"/></g><g class="points"/><g class="text"/></g><g class="trace scatter trace33d072" style="stroke-miterlimit: 2; opacity: 1;"><g class="fills"/><g class="errorbars"/><g class="lines"><path class="js-line" d="M0,22.19L7.12,21.17L14.24,21.26L42.71,20.74L49.83,20.78L56.94,20.73L64.06,19.76L263.37,20.15L270.49,20.43L291.84,20.32L298.96,20.43L391.49,21.03L398.61,21.48L412.85,21.14L419.97,21.25L790.1,23.72L797.22,24.37L868.4,24.82L875.52,24.86L960.94,26.24L968.06,26.8L996.53,26.84L1003.65,27.01L1017.88,27.31L1025,30.71" style="vector-effect: none; fill: none; stroke: rgb(247, 163, 92); stroke-opacity: 1; stroke-width: 2px; opacity: 1;"/></g><g class="points"/><g class="text"/></g><g class="trace scatter tracec23fda" style="stroke-miterlimit: 2; opacity: 1;"><g class="fills"/><g class="errorbars"/><g class="lines"><path class="js-line" d="M0,20.82L49.83,20.71L56.94,20.67L64.06,19.71L71.18,19.72L363.02,20.88L370.14,21.4L384.38,21.09L391.49,21.07L398.61,21.55L405.73,21.18L484.03,21.68L491.15,21.71L619.27,22.47L626.39,22.48L790.1,24.08L797.22,24.75L861.28,25.2L868.4,25.39L932.47,26.52L939.58,26.81L960.94,27.08L968.06,27.63L996.53,27.77L1003.65,27.94L1017.88,28.31L1025,31.83" style="vector-effect: none; fill: none; stroke: rgb(128, 133, 233); stroke-opacity: 1; stroke-width: 2px; opacity: 1;"/></g><g class="points"/><g class="text"/></g><g class="trace scatter trace1283e9" style="stroke-miterlimit: 2; opacity: 1;"><g class="fills"/><g class="errorbars"/><g class="lines"><path class="js-line" d="M0,20.84L7.12,23.49L14.24,21.4L35.59,21.13L42.71,20.97L56.94,20.99L64.06,19.93L320.31,20.85L327.43,20.94L363.02,21.06L370.14,21.59L384.38,21.27L391.49,21.27L398.61,21.73L405.73,21.35L683.33,22.86L690.45,22.95L1017.88,26.18L1025,29.61" style="vector-effect: none; fill: none; stroke: rgb(241, 92, 128); stroke-opacity: 1; stroke-width: 2px; opacity: 1;"/></g><g class="points"/><g class="text"/></g><g class="trace scatter trace7d43b4" style="stroke-miterlimit: 2; opacity: 1;"><g class="fills"/><g class="errorbars"/><g class="lines"><path class="js-line" d="M0,20.9L28.47,20.59L35.59,20.69L56.94,20.63L64.06,19.67L363.02,20.77L370.14,21.33L384.38,21L391.49,21.04L398.61,21.49L405.73,21.13L711.81,23.11L718.92,23.64L733.16,23.29L740.28,23.36L960.94,26.38L968.06,26.94L989.41,26.97L996.53,27.01L1017.88,27.49L1025,30.92" style="vector-effect: none; fill: none; stroke: rgb(228, 211, 84); stroke-opacity: 1; stroke-width: 2px; opacity: 1;"/></g><g class="points"/><g class="text"/></g><g class="trace scatter tracee199fc" style="stroke-miterlimit: 2; opacity: 1;"><g class="fills"/><g class="errorbars"/><g class="lines"><path class="js-line" d="M0,22.06L7.12,20.32L14.24,20.85L49.83,20.52L56.94,20.44L64.06,19.57L71.18,19.58L711.81,22.94L718.92,23.47L733.16,23.12L740.28,23.19L960.94,26.54L968.06,27.1L996.53,27.23L1003.65,27.41L1017.88,27.76L1025,31.22" style="vector-effect: none; fill: none; stroke: rgb(43, 144, 143); stroke-opacity: 1; stroke-width: 2px; opacity: 1;"/></g><g class="points"/><g class="text"/></g><g class="trace scatter trace0133e1" style="stroke-miterlimit: 2; opacity: 1;"><g class="fills"/><g class="errorbars"/><g class="lines"><path class="js-line" d="M0,21.68L7.12,22.3L14.24,21.12L28.47,21.14L35.59,21.1L56.94,20.94L64.06,19.94L249.13,20.35L256.25,20.62L270.49,21.25L277.6,20.4L363.02,21.1L370.14,21.69L384.38,21.4L391.49,21.44L398.61,21.91L405.73,21.54L711.81,23.38L718.92,23.9L733.16,23.54L740.28,23.59L911.11,25.43L918.23,25.61L960.94,26.1L968.06,26.65L989.41,26.6L996.53,26.61L1017.88,27L1025,30.55" style="vector-effect: none; fill: none; stroke: rgb(244, 91, 91); stroke-opacity: 1; stroke-width: 2px; opacity: 1;"/></g><g class="points"/><g class="text"/></g><g class="trace scatter trace10decd" style="stroke-miterlimit: 2; opacity: 1;"><g class="fills"/><g class="errorbars"/><g class="lines"><path class="js-line" d="M0,23.39L7.12,23.36L14.24,22.12L21.35,20.75L28.47,20.56L56.94,20.44L64.06,19.55L363.02,20.46L370.14,20.99L384.38,20.62L391.49,20.63L398.61,21.08L405.73,20.72L711.81,22.88L718.92,23.42L740.28,23.18L747.4,23.28L790.1,23.73L797.22,24.44L847.05,24.66L854.17,24.74L960.94,26.73L968.06,27.27L996.53,27.39L1003.65,27.55L1017.88,27.93L1025,31.41" style="vector-effect: none; fill: none; stroke: rgb(145, 232, 225); stroke-opacity: 1; stroke-width: 2px; opacity: 1;"/></g><g class="points"/><g class="text"/></g><g class="trace scatter traceed4219" style="stroke-miterlimit: 2; opacity: 1;"><g class="fills"/><g class="errorbars"/><g class="lines"><path class="js-line" d="M0,21.04L56.94,20.85L64.06,19.82L242.01,20.16L249.13,21.04L256.25,21.1L263.37,20.16L626.39,22.63L633.51,22.64L804.34,24.52L811.46,24.14L882.64,25.03L889.76,25.12L975.17,26.65L982.29,26.67L1017.88,27.32L1025,30.71" style="vector-effect: none; fill: none; stroke: rgb(124, 181, 236); stroke-opacity: 1; stroke-width: 2px; opacity: 1;"/></g><g class="points"/><g class="text"/></g><g class="trace scatter tracea89391" style="stroke-miterlimit: 2; opacity: 1;"><g class="fills"/><g class="errorbars"/><g class="lines"><path class="js-line" d="M0,22.8L7.12,20.96L14.24,20.91L56.94,20.75L64.06,19.82L242.01,20.1L249.13,20.59L263.37,21.03L270.49,20.22L277.6,21.01L284.72,20.19L327.43,20.62L334.55,20.57L434.2,21.34L441.32,21.34L790.1,23.73L797.22,24.34L889.76,25.08L896.88,25.26L1017.88,27.45L1025,30.89" style="vector-effect: none; fill: none; stroke: rgb(67, 67, 72); stroke-opacity: 1; stroke-width: 2px; opacity: 1;"/></g><g class="points"/><g class="text"/></g><g class="trace scatter trace9102e1" style="stroke-miterlimit: 2; opacity: 1;"><g class="fills"/><g class="errorbars"/><g class="lines"><path class="js-line" d="M0,21.2L56.94,20.75L64.06,19.76L341.67,20.78L348.78,20.85L455.56,21.43L462.67,21.55L619.27,22.25L626.39,22.29L790.1,23.37L797.22,23.96L903.99,24.59L911.11,24.69L975.17,25.6L982.29,25.58L1017.88,26.09L1025,29.44" style="vector-effect: none; fill: none; stroke: rgb(144, 237, 125); stroke-opacity: 1; stroke-width: 2px; opacity: 1;"/></g><g class="points"/><g class="text"/></g><g class="trace scatter tracec87b0f" style="stroke-miterlimit: 2; opacity: 1;"><g class="fills"/><g class="errorbars"/><g class="lines"><path class="js-line" d="M0,20.68L7.12,21.15L14.24,20.73L35.59,20.85L42.71,20.67L56.94,20.73L64.06,19.77L363.02,20.75L370.14,21.31L384.38,20.99L391.49,21.02L398.61,21.47L405.73,21.11L612.15,22.41L619.27,22.46L711.81,23.34L718.92,23.91L733.16,23.6L740.28,23.71L896.88,26.63L903.99,26.8L1017.88,29.47L1025,32.97" style="vector-effect: none; fill: none; stroke: rgb(247, 163, 92); stroke-opacity: 1; stroke-width: 2px; opacity: 1;"/></g><g class="points"/><g class="text"/></g><g class="trace scatter trace962ae3" style="stroke-miterlimit: 2; opacity: 1;"><g class="fills"/><g class="errorbars"/><g class="lines"><path class="js-line" d="M0,20.64L14.24,20.69L21.35,20.88L56.94,20.6L64.06,19.66L341.67,20.65L348.78,20.7L491.15,21.61L498.26,21.69L711.81,22.98L718.92,23.53L733.16,23.17L740.28,23.24L946.7,26.18L953.82,26.35L1017.88,27.57L1025,30.94" style="vector-effect: none; fill: none; stroke: rgb(128, 133, 233); stroke-opacity: 1; stroke-width: 2px; opacity: 1;"/></g><g class="points"/><g class="text"/></g><g class="trace scatter trace99a8be" style="stroke-miterlimit: 2; opacity: 1;"><g class="fills"/><g class="errorbars"/><g class="lines"><path class="js-line" d="M0,21.47L56.94,20.92L64.06,19.95L242.01,20.24L249.13,21.05L256.25,20.29L263.37,20.32L306.08,20.65L313.19,20.76L391.49,21.27L398.61,21.71L412.85,21.34L419.97,21.48L711.81,23.29L718.92,23.83L733.16,23.48L740.28,23.54L960.94,26.61L968.06,27.16L996.53,27.26L1003.65,27.44L1017.88,27.75L1025,31.31" style="vector-effect: none; fill: none; stroke: rgb(241, 92, 128); stroke-opacity: 1; stroke-width: 2px; opacity: 1;"/></g><g class="points"/><g class="text"/></g><g class="trace scatter trace58f42f" style="stroke-miterlimit: 2; opacity: 1;"><g class="fills"/><g class="errorbars"/><g class="lines"><path class="js-line" d="M0,24.7L7.12,22.25L14.24,21.82L28.47,20.95L35.59,20.9L56.94,20.83L64.06,19.82L363.02,20.79L370.14,21.34L384.38,20.99L391.49,21.02L398.61,21.46L405.73,21.14L654.86,22.93L661.98,22.97L790.1,24.39L797.22,25.08L854.17,25.46L861.28,25.58L939.58,27.31L946.7,27.33L1017.88,28.9L1025,32.41" style="vector-effect: none; fill: none; stroke: rgb(228, 211, 84); stroke-opacity: 1; stroke-width: 2px; opacity: 1;"/></g><g class="points"/><g class="text"/></g><g class="trace scatter tracecb4b9d" style="stroke-miterlimit: 2; opacity: 1;"><g class="fills"/><g class="errorbars"/><g class="lines"><path class="js-line" d="M0,21.53L7.12,21.11L14.24,21.81L28.47,21.15L35.59,21.25L56.94,21.17L64.06,20.07L363.02,21.21L370.14,21.77L384.38,21.42L391.49,21.45L398.61,21.89L405.73,21.55L548.09,22.45L555.21,22.54L661.98,23.29L669.1,23.32L711.81,23.73L718.92,24.25L740.28,24.01L747.4,24.09L790.1,24.53L797.22,25.18L861.28,25.57L868.4,25.75L960.94,27.38L968.06,27.92L996.53,28.05L1003.65,28.24L1017.88,28.57L1025,32.06" style="vector-effect: none; fill: none; stroke: rgb(43, 144, 143); stroke-opacity: 1; stroke-width: 2px; opacity: 1;"/></g><g class="points"/><g class="text"/></g><g class="trace scatter trace9d5193" style="stroke-miterlimit: 2; opacity: 1;"><g class="fills"/><g class="errorbars"/><g class="lines"><path class="js-line" d="M0,22.36L7.12,21.53L14.24,21.49L56.94,21.2L64.06,20.13L249.13,20.4L256.25,20.74L298.96,20.81L306.08,20.84L711.81,23.9L718.92,24.43L740.28,24.25L747.4,24.35L790.1,24.88L797.22,25.61L847.05,25.94L854.17,26.03L960.94,28.29L968.06,28.82L1003.65,29.18L1010.76,29.52L1017.88,29.58L1025,33.2" style="vector-effect: none; fill: none; stroke: rgb(244, 91, 91); stroke-opacity: 1; stroke-width: 2px; opacity: 1;"/></g><g class="points"/><g class="text"/></g><g class="trace scatter trace73d824" style="stroke-miterlimit: 2; opacity: 1;"><g class="fills"/><g class="errorbars"/><g class="lines"><path class="js-line" d="M0,24.93L7.12,21.5L14.24,21.72L35.59,21.56L42.71,21.54L56.94,21.41L64.06,20.24L170.83,20.22L177.95,20.37L242.01,20.42L249.13,20.98L263.37,21.62L270.49,20.46L277.6,21.56L284.72,20.46L313.19,20.86L320.31,20.96L398.61,21.87L405.73,21.55L711.81,23.76L718.92,24.31L733.16,23.94L740.28,24.01L960.94,27.09L968.06,27.64L996.53,27.7L1003.65,27.88L1017.88,28.16L1025,31.75" style="vector-effect: none; fill: none; stroke: rgb(145, 232, 225); stroke-opacity: 1; stroke-width: 2px; opacity: 1;"/></g><g class="points"/><g class="text"/></g><g class="trace scatter traceb15562" style="stroke-miterlimit: 2; opacity: 1;"><g class="fills"/><g class="errorbars"/><g class="lines"><path class="js-line" d="M0,23.15L7.12,21.43L14.24,21.4L56.94,20.98L64.06,19.88L263.37,20.28L270.49,20.58L291.84,20.45L298.96,20.58L711.81,23.33L718.92,23.84L733.16,23.48L740.28,23.54L932.47,26.03L939.58,26.25L996.53,27.1L1003.65,27.29L1017.88,27.58L1025,30.96" style="vector-effect: none; fill: none; stroke: rgb(124, 181, 236); stroke-opacity: 1; stroke-width: 2px; opacity: 1;"/></g><g class="points"/><g class="text"/></g><g class="trace scatter tracec4ca4b" style="stroke-miterlimit: 2; opacity: 1;"><g class="fills"/><g class="errorbars"/><g class="lines"><path class="js-line" d="M0,21.9L14.24,21.69L21.35,21.56L35.59,21.28L42.71,21.19L56.94,21.18L64.06,20.04L284.72,20.72L291.84,20.82L334.55,20.99L341.67,21.15L790.1,24.06L797.22,24.69L882.64,25.26L889.76,25.36L975.17,26.95L982.29,26.94L1017.88,27.61L1025,31.11" style="vector-effect: none; fill: none; stroke: rgb(67, 67, 72); stroke-opacity: 1; stroke-width: 2px; opacity: 1;"/></g><g class="points"/><g class="text"/></g><g class="trace scatter trace7538e3" style="stroke-miterlimit: 2; opacity: 1;"><g class="fills"/><g class="errorbars"/><g class="lines"><path class="js-line" d="M0,22.36L7.12,21.28L14.24,21.12L21.35,21.64L28.47,21.24L56.94,21.18L64.06,20.05L242.01,20.3L249.13,21.34L256.25,20.34L263.37,20.41L298.96,20.69L306.08,20.72L790.1,24.3L797.22,24.92L889.76,25.72L896.88,25.91L1017.88,28.28L1025,31.8" style="vector-effect: none; fill: none; stroke: rgb(144, 237, 125); stroke-opacity: 1; stroke-width: 2px; opacity: 1;"/></g><g class="points"/><g class="text"/></g><g class="trace scatter tracec7a559" style="stroke-miterlimit: 2; opacity: 1;"><g class="fills"/><g class="errorbars"/><g class="lines"><path class="js-line" d="M0,23.35L14.24,21.9L21.35,22.16L35.59,21.72L42.71,21.65L56.94,21.61L64.06,20.39L249.13,20.49L256.25,21L270.49,21.36L277.6,21.46L298.96,21.01L306.08,20.99L363.02,21.33L370.14,21.89L384.38,21.55L391.49,21.57L398.61,22.01L405.73,21.66L491.15,22.25L498.26,22.34L711.81,23.65L718.92,24.21L733.16,23.84L740.28,23.92L911.11,26.08L918.23,26.27L960.94,26.87L968.06,27.44L996.53,27.46L1003.65,27.64L1017.88,27.92L1025,31.45" style="vector-effect: none; fill: none; stroke: rgb(247, 163, 92); stroke-opacity: 1; stroke-width: 2px; opacity: 1;"/></g><g class="points"/><g class="text"/></g><g class="trace scatter trace0c7bdf" style="stroke-miterlimit: 2; opacity: 1;"><g class="fills"/><g class="errorbars"/><g class="lines"><path class="js-line" d="M0,22.59L7.12,21.36L14.24,21.16L21.35,21.57L28.47,21.1L56.94,21L64.06,19.95L227.78,20.06L234.9,20.17L263.37,20.57L270.49,21.23L277.6,20.22L284.72,20.31L348.78,21.03L355.9,21.07L391.49,21.36L398.61,21.8L412.85,21.48L419.97,21.62L790.1,24.24L797.22,24.88L875.52,25.47L882.64,25.55L960.94,26.97L968.06,27.52L996.53,27.62L1003.65,27.78L1017.88,28.1L1025,31.6" style="vector-effect: none; fill: none; stroke: rgb(128, 133, 233); stroke-opacity: 1; stroke-width: 2px; opacity: 1;"/></g><g class="points"/><g class="text"/></g><g class="trace scatter trace3b6a56" style="stroke-miterlimit: 2; opacity: 1;"><g class="fills"/><g class="errorbars"/><g class="lines"><path class="js-line" d="M0,21.95L7.12,21.02L14.24,21.34L56.94,21.13L64.06,20.02L306.08,20.77L313.19,20.8L790.1,24.46L797.22,25.1L889.76,25.94L896.88,26.15L1017.88,28.55L1025,32.05" style="vector-effect: none; fill: none; stroke: rgb(241, 92, 128); stroke-opacity: 1; stroke-width: 2px; opacity: 1;"/></g><g class="points"/><g class="text"/></g><g class="trace scatter trace87d90e" style="stroke-miterlimit: 2; opacity: 1;"><g class="fills"/><g class="errorbars"/><g class="lines"><path class="js-line" d="M0,21.18L21.35,21.59L28.47,20.98L56.94,21.11L64.06,20.03L363.02,21.14L370.14,21.72L384.38,21.39L391.49,21.44L398.61,21.88L405.73,21.55L476.91,22.06L484.03,22.15L690.45,23.44L697.57,23.55L882.64,25.79L889.76,25.9L989.41,27.96L996.53,28L1017.88,28.53L1025,31.99" style="vector-effect: none; fill: none; stroke: rgb(228, 211, 84); stroke-opacity: 1; stroke-width: 2px; opacity: 1;"/></g><g class="points"/><g class="text"/></g><g class="trace scatter traceec0c6c" style="stroke-miterlimit: 2; opacity: 1;"><g class="fills"/><g class="errorbars"/><g class="lines"><path class="js-line" d="M0,21.8L21.35,21.61L28.47,21.27L56.94,21.21L64.06,20.04L270.49,20.39L277.6,20.83L298.96,20.95L306.08,20.95L455.56,22.01L462.67,22.15L633.51,23.09L640.63,23.17L711.81,23.69L718.92,24.24L733.16,23.86L740.28,23.93L960.94,26.81L968.06,27.37L996.53,27.37L1003.65,27.55L1017.88,27.82L1025,31.37" style="vector-effect: none; fill: none; stroke: rgb(43, 144, 143); stroke-opacity: 1; stroke-width: 2px; opacity: 1;"/></g><g class="points"/><g class="text"/></g><g class="trace scatter traceeea53b" style="stroke-miterlimit: 2; opacity: 1;"><g class="fills"/><g class="errorbars"/><g class="lines"><path class="js-line" d="M0,24.03L7.12,21.72L14.24,21.53L56.94,20.97L64.06,19.89L320.31,20.57L327.43,20.74L363.02,20.85L370.14,21.41L384.38,21.06L391.49,21.09L398.61,21.54L405.73,21.19L505.38,21.92L512.5,21.96L619.27,22.6L626.39,22.64L790.1,24.21L797.22,24.85L875.52,25.51L882.64,25.59L1017.88,28.25L1025,31.75" style="vector-effect: none; fill: none; stroke: rgb(244, 91, 91); stroke-opacity: 1; stroke-width: 2px; opacity: 1;"/></g><g class="points"/><g class="text"/></g><g class="trace scatter traced843e9" style="stroke-miterlimit: 2; opacity: 1;"><g class="fills"/><g class="errorbars"/><g class="lines"><path class="js-line" d="M0,21.44L7.12,21L14.24,21.5L35.59,21.12L42.71,21.1L56.94,21.06L64.06,19.94L242.01,20.22L249.13,21.33L256.25,21.32L263.37,20.22L526.74,22.28L533.85,22.28L790.1,24.46L797.22,25.09L882.64,25.89L889.76,26.01L975.17,27.83L982.29,27.86L1017.88,28.6L1025,32.05" style="vector-effect: none; fill: none; stroke: rgb(145, 232, 225); stroke-opacity: 1; stroke-width: 2px; opacity: 1;"/></g><g class="points"/><g class="text"/></g><g class="trace scatter traced46924" style="stroke-miterlimit: 2; opacity: 1;"><g class="fills"/><g class="errorbars"/><g class="lines"><path class="js-line" d="M0,22.49L7.12,21.27L14.24,21.39L56.94,21.27L64.06,20.08L263.37,20.44L270.49,21L277.6,20.46L284.72,20.68L633.51,22.89L640.63,22.97L711.81,23.55L718.92,24.08L733.16,23.73L740.28,23.8L932.47,26.32L939.58,26.55L1003.65,27.51L1010.76,27.72L1017.88,27.81L1025,31.29" style="vector-effect: none; fill: none; stroke: rgb(124, 181, 236); stroke-opacity: 1; stroke-width: 2px; opacity: 1;"/></g><g class="points"/><g class="text"/></g><g class="trace scatter trace5ec852" style="stroke-miterlimit: 2; opacity: 1;"><g class="fills"/><g class="errorbars"/><g class="lines"><path class="js-line" d="M0,21.14L14.24,20.92L21.35,21.06L42.71,20.78L49.83,20.84L56.94,20.82L64.06,19.78L320.31,20.48L327.43,20.75L348.78,20.81L355.9,20.86L391.49,21.16L398.61,21.58L412.85,21.25L419.97,21.41L711.81,23.27L718.92,23.8L733.16,23.45L740.28,23.53L911.11,26.07L918.23,26.29L960.94,27.04L968.06,27.61L996.53,27.76L1003.65,27.96L1017.88,28.31L1025,31.66" style="vector-effect: none; fill: none; stroke: rgb(67, 67, 72); stroke-opacity: 1; stroke-width: 2px; opacity: 1;"/></g><g class="points"/><g class="text"/></g><g class="trace scatter tracee5b2f5" style="stroke-miterlimit: 2; opacity: 1;"><g class="fills"/><g class="errorbars"/><g class="lines"><path class="js-line" d="M0,22.05L7.12,22.75L14.24,20.68L21.35,21.08L28.47,20.68L56.94,20.58L64.06,19.7L256.25,20.15L263.37,20.3L270.49,20.92L277.6,20.09L363.02,20.78L370.14,21.34L384.38,21.07L391.49,21.04L398.61,21.48L405.73,21.14L455.56,21.52L462.67,21.7L647.74,22.56L654.86,22.66L790.1,23.82L797.22,24.46L875.52,25.04L882.64,25.12L1017.88,27.59L1025,31.31" style="vector-effect: none; fill: none; stroke: rgb(144, 237, 125); stroke-opacity: 1; stroke-width: 2px; opacity: 1;"/></g><g class="points"/><g class="text"/></g><g class="trace scatter tracec7669a" style="stroke-miterlimit: 2; opacity: 1;"><g class="fills"/><g class="errorbars"/><g class="lines"><path class="js-line" d="M0,21.32L49.83,20.33L56.94,20.34L64.06,19.44L71.18,19.46L263.37,19.7L270.49,20.14L284.72,19.89L291.84,19.93L533.85,21.47L540.97,21.48L697.57,22.43L704.69,22.49L790.1,23.34L797.22,23.95L896.88,24.98L903.99,25.1L1017.88,27.3L1025,30.88" style="vector-effect: none; fill: none; stroke: rgb(247, 163, 92); stroke-opacity: 1; stroke-width: 2px; opacity: 1;"/></g><g class="points"/><g class="text"/></g><g class="trace scatter trace4bb149" style="stroke-miterlimit: 2; opacity: 1;"><g class="fills"/><g class="errorbars"/><g class="lines"><path class="js-line" d="M0,20.77L7.12,21.9L14.24,20.85L56.94,20.61L64.06,19.68L313.19,20.52L320.31,20.56L370.14,21.32L377.26,20.73L398.61,21.46L405.73,21.08L455.56,21.33L462.67,21.53L697.57,22.81L704.69,22.87L790.1,23.7L797.22,24.33L889.76,25.08L896.88,25.25L1017.88,27.4L1025,31.09" style="vector-effect: none; fill: none; stroke: rgb(128, 133, 233); stroke-opacity: 1; stroke-width: 2px; opacity: 1;"/></g><g class="points"/><g class="text"/></g><g class="trace scatter trace328688" style="stroke-miterlimit: 2; opacity: 1;"><g class="fills"/><g class="errorbars"/><g class="lines"><path class="js-line" d="M0,21.9L28.47,20.61L35.59,20.69L56.94,20.66L64.06,19.69L242.01,20L249.13,20.93L256.25,21.01L263.37,19.99L398.61,21.5L405.73,21.17L441.32,21.45L448.44,21.49L583.68,22.23L590.8,22.3L711.81,22.98L718.92,23.52L733.16,23.16L740.28,23.23L960.94,26.16L968.06,26.7L989.41,26.72L996.53,26.75L1017.88,27.21L1025,30.79" style="vector-effect: none; fill: none; stroke: rgb(241, 92, 128); stroke-opacity: 1; stroke-width: 2px; opacity: 1;"/></g><g class="points"/><g class="text"/></g><g class="trace scatter trace1d204e" style="stroke-miterlimit: 2; opacity: 1;"><g class="fills"/><g class="errorbars"/><g class="lines"><path class="js-line" d="M0,20.66L7.12,21.78L14.24,20.65L56.94,20.53L64.06,19.63L363.02,20.65L370.14,21.17L384.38,20.86L391.49,20.83L398.61,21.26L405.73,20.93L476.91,21.33L484.03,21.43L790.1,23.77L797.22,24.39L889.76,25.25L896.88,25.43L1017.88,27.7L1025,31.38" style="vector-effect: none; fill: none; stroke: rgb(228, 211, 84); stroke-opacity: 1; stroke-width: 2px; opacity: 1;"/></g><g class="points"/><g class="text"/></g><g class="trace scatter trace2d256d" style="stroke-miterlimit: 2; opacity: 1;"><g class="fills"/><g class="errorbars"/><g class="lines"><path class="js-line" d="M0,23L7.12,21.4L14.24,21.11L42.71,20.66L49.83,20.68L56.94,20.65L64.06,19.72L363.02,20.83L370.14,21.37L384.38,21.08L391.49,21.02L398.61,21.48L405.73,21.14L455.56,21.49L462.67,21.68L590.8,22.34L597.92,22.38L790.1,23.79L797.22,24.41L889.76,25.1L896.88,25.27L1017.88,27.33L1025,30.98" style="vector-effect: none; fill: none; stroke: rgb(43, 144, 143); stroke-opacity: 1; stroke-width: 2px; opacity: 1;"/></g><g class="points"/><g class="text"/></g><g class="trace scatter tracece5882" style="stroke-miterlimit: 2; opacity: 1;"><g class="fills"/><g class="errorbars"/><g class="lines"><path class="js-line" d="M0,21.1L7.12,21.55L14.24,21.15L56.94,20.8L64.06,19.87L363.02,20.96L370.14,21.52L384.38,21.21L391.49,21.18L398.61,21.63L405.73,21.28L448.44,21.6L455.56,21.62L491.15,21.85L498.26,21.98L790.1,24.06L797.22,24.69L896.88,25.68L903.99,25.81L1017.88,27.9L1025,31.69" style="vector-effect: none; fill: none; stroke: rgb(244, 91, 91); stroke-opacity: 1; stroke-width: 2px; opacity: 1;"/></g><g class="points"/><g class="text"/></g><g class="trace scatter trace17a144" style="stroke-miterlimit: 2; opacity: 1;"><g class="fills"/><g class="errorbars"/><g class="lines"><path class="js-line" d="M0,20.86L7.12,21.73L14.24,20.63L35.59,20.59L42.71,20.47L56.94,20.49L64.06,19.59L341.67,20.41L348.78,20.51L455.56,21.18L462.67,21.36L569.44,21.85L576.56,21.9L711.81,22.73L718.92,23.28L733.16,22.95L740.28,23.03L960.94,26.3L968.06,26.83L996.53,26.91L1003.65,27.08L1017.88,27.42L1025,31.06" style="vector-effect: none; fill: none; stroke: rgb(145, 232, 225); stroke-opacity: 1; stroke-width: 2px; opacity: 1;"/></g><g class="points"/><g class="text"/></g><g class="trace scatter trace2df600" style="stroke-miterlimit: 2; opacity: 1;"><g class="fills"/><g class="errorbars"/><g class="lines"><path class="js-line" d="M0,26.05L7.12,22.77L14.24,21.17L28.47,20.9L35.59,20.93L56.94,20.85L64.06,19.87L256.25,20.39L263.37,20.76L313.19,20.53L320.31,20.55L355.9,20.81L363.02,20.8L370.14,21.38L377.26,20.83L405.73,21.14L412.85,21.04L441.32,21.41L448.44,21.45L569.44,22.16L576.56,22.21L711.81,23.06L718.92,23.59L740.28,23.32L747.4,23.4L861.28,24.85L868.4,25.01L960.94,26.45L968.06,26.98L996.53,27.02L1003.65,27.2L1017.88,27.5L1025,31.18" style="vector-effect: none; fill: none; stroke: rgb(124, 181, 236); stroke-opacity: 1; stroke-width: 2px; opacity: 1;"/></g><g class="points"/><g class="text"/></g><g class="trace scatter tracef167b6" style="stroke-miterlimit: 2; opacity: 1;"><g class="fills"/><g class="errorbars"/><g class="lines"><path class="js-line" d="M0,23.04L14.24,21.01L21.35,21.47L42.71,21.1L49.83,21.05L56.94,20.97L64.06,19.95L242.01,20.24L249.13,21.29L256.25,20.32L263.37,20.32L313.19,20.74L320.31,20.78L370.14,21.57L377.26,21.06L405.73,21.32L412.85,21.28L462.67,21.87L469.79,21.87L498.26,22.05L505.38,22.11L690.45,23.05L697.57,23.14L790.1,23.86L797.22,24.47L896.88,25.19L903.99,25.27L1017.88,27L1025,30.75" style="vector-effect: none; fill: none; stroke: rgb(67, 67, 72); stroke-opacity: 1; stroke-width: 2px; opacity: 1;"/></g><g class="points"/><g class="text"/></g><g class="trace scatter tracec9ff43" style="stroke-miterlimit: 2; opacity: 1;"><g class="fills"/><g class="errorbars"/><g class="lines"><path class="js-line" d="M0,21.28L7.12,23.4L14.24,21.19L28.47,20.73L35.59,20.77L56.94,20.72L64.06,19.76L363.02,20.8L370.14,21.34L384.38,21.03L391.49,20.99L398.61,21.43L405.73,21.07L455.56,21.39L462.67,21.54L633.51,22.37L640.63,22.44L711.81,22.97L718.92,23.51L733.16,23.16L740.28,23.24L932.47,25.85L939.58,26.06L1003.65,27.06L1010.76,27.27L1017.88,27.35L1025,31.02" style="vector-effect: none; fill: none; stroke: rgb(144, 237, 125); stroke-opacity: 1; stroke-width: 2px; opacity: 1;"/></g><g class="points"/><g class="text"/></g><g class="trace scatter trace5dad2f" style="stroke-miterlimit: 2; opacity: 1;"><g class="fills"/><g class="errorbars"/><g class="lines"><path class="js-line" d="M0,21.56L7.12,22.48L14.24,20.84L28.47,20.64L35.59,20.76L56.94,20.72L64.06,19.81L249.13,20.33L256.25,20.64L263.37,20.91L270.49,20.09L277.6,20.93L284.72,20.06L327.43,20.53L334.55,20.47L711.81,22.92L718.92,23.45L733.16,23.12L740.28,23.2L960.94,26.5L968.06,27.03L996.53,27.12L1003.65,27.3L1017.88,27.63L1025,31.32" style="vector-effect: none; fill: none; stroke: rgb(247, 163, 92); stroke-opacity: 1; stroke-width: 2px; opacity: 1;"/></g><g class="points"/><g class="text"/></g><g class="trace scatter trace1ea3d9" style="stroke-miterlimit: 2; opacity: 1;"><g class="fills"/><g class="errorbars"/><g class="lines"><path class="js-line" d="M0,21.25L7.12,21.96L14.24,20.87L35.59,20.83L42.71,20.69L56.94,20.67L64.06,19.71L277.6,20.35L284.72,20.61L320.31,20.56L327.43,20.66L363.02,20.75L370.14,21.28L384.38,20.97L391.49,20.94L398.61,21.37L405.73,21.04L476.91,21.4L484.03,21.51L790.1,23.75L797.22,24.37L882.64,24.98L889.76,25.07L975.17,26.59L982.29,26.59L1017.88,27.22L1025,30.86" style="vector-effect: none; fill: none; stroke: rgb(128, 133, 233); stroke-opacity: 1; stroke-width: 2px; opacity: 1;"/></g><g class="points"/><g class="text"/></g><g class="trace scatter trace737a7b" style="stroke-miterlimit: 2; opacity: 1;"><g class="fills"/><g class="errorbars"/><g class="lines"><path class="js-line" d="M0,21.22L56.94,20.25L64.06,19.39L363.02,20.36L370.14,20.89L384.38,20.58L391.49,20.53L398.61,20.96L405.73,20.63L455.56,20.91L462.67,21.07L583.68,21.56L590.8,21.59L790.1,22.96L797.22,23.55L896.88,24.3L903.99,24.39L1017.88,26.17L1025,29.59" style="vector-effect: none; fill: none; stroke: rgb(241, 92, 128); stroke-opacity: 1; stroke-width: 2px; opacity: 1;"/></g><g class="points"/><g class="text"/></g><g class="trace scatter trace53dc90" style="stroke-miterlimit: 2; opacity: 1;"><g class="fills"/><g class="errorbars"/><g class="lines"><path class="js-line" d="M0,21.41L7.12,21.77L14.24,21.1L56.94,20.71L64.06,19.77L654.86,22.53L661.98,22.58L711.81,22.95L718.92,23.49L733.16,23.12L740.28,23.19L960.94,25.92L968.06,26.44L996.53,26.42L1003.65,26.57L1017.88,26.85L1025,30.55" style="vector-effect: none; fill: none; stroke: rgb(228, 211, 84); stroke-opacity: 1; stroke-width: 2px; opacity: 1;"/></g><g class="points"/><g class="text"/></g><g class="trace scatter trace801763" style="stroke-miterlimit: 2; opacity: 1;"><g class="fills"/><g class="errorbars"/><g class="lines"><path class="js-line" d="M0,22.06L7.12,22.81L14.24,22.2L21.35,21.05L28.47,20.85L56.94,20.71L64.06,19.79L363.02,20.77L370.14,21.28L384.38,20.96L391.49,20.95L398.61,21.39L405.73,21.05L562.33,21.99L569.44,22.07L790.1,24.05L797.22,24.7L875.52,25.27L882.64,25.35L960.94,26.57L968.06,27.09L996.53,27.07L1003.65,27.23L1017.88,27.51L1025,31.31" style="vector-effect: none; fill: none; stroke: rgb(43, 144, 143); stroke-opacity: 1; stroke-width: 2px; opacity: 1;"/></g><g class="points"/><g class="text"/></g><g class="trace scatter trace3909b5" style="stroke-miterlimit: 2; opacity: 1;"><g class="fills"/><g class="errorbars"/><g class="lines"><path class="js-line" d="M0,22.4L7.12,22.5L14.24,21.23L28.47,21.07L35.59,21.16L56.94,20.96L64.06,19.9L227.78,19.99L234.9,20.1L263.37,20.53L270.49,21.13L277.6,20.11L284.72,20.21L341.67,20.75L348.78,20.81L391.49,21L398.61,21.44L412.85,21.1L419.97,21.21L711.81,23.15L718.92,23.69L733.16,23.35L740.28,23.45L960.94,26.54L968.06,27.06L996.53,27.1L1003.65,27.24L1017.88,27.56L1025,31.36" style="vector-effect: none; fill: none; stroke: rgb(244, 91, 91); stroke-opacity: 1; stroke-width: 2px; opacity: 1;"/></g><g class="points"/><g class="text"/></g><g class="trace scatter trace53d1ef" style="stroke-miterlimit: 2; opacity: 1;"><g class="fills"/><g class="errorbars"/><g class="lines"><path class="js-line" d="M0,23.78L7.12,21.54L14.24,21.32L28.47,20.62L35.59,20.62L56.94,20.53L64.06,19.59L341.67,20.45L348.78,20.53L448.44,21.05L455.56,21.16L640.63,22.56L647.74,22.54L690.45,23.16L697.57,23.17L747.4,23.96L754.51,23.98L782.99,24.55L790.1,24.55L797.22,25.38L804.34,25.3L825.69,25.28L832.81,25.63L875.52,26.3L882.64,26.49L1003.65,29.14L1010.76,29.63L1017.88,29.62L1025,33.73" style="vector-effect: none; fill: none; stroke: rgb(145, 232, 225); stroke-opacity: 1; stroke-width: 2px; opacity: 1;"/></g><g class="points"/><g class="text"/></g><g class="trace scatter tracef9e704" style="stroke-miterlimit: 2; opacity: 1;"><g class="fills"/><g class="errorbars"/><g class="lines"><path class="js-line" d="M0,21.11L14.24,21.39L21.35,21.13L56.94,20.93L64.06,19.9L363.02,20.97L370.14,21.53L384.38,21.18L391.49,21.15L398.61,21.6L405.73,21.24L548.09,22.12L555.21,22.2L697.57,23.33L704.69,23.41L790.1,24.31L797.22,24.99L889.76,25.85L896.88,26L1017.88,28.24L1025,32.08" style="vector-effect: none; fill: none; stroke: rgb(124, 181, 236); stroke-opacity: 1; stroke-width: 2px; opacity: 1;"/></g><g class="points"/><g class="text"/></g><g class="trace scatter traceb348eb" style="stroke-miterlimit: 2; opacity: 1;"><g class="fills"/><g class="errorbars"/><g class="lines"><path class="js-line" d="M0,22.45L7.12,22.76L14.24,21.72L56.94,21.44L64.06,20.28L249.13,20.56L256.25,20.98L306.08,21.03L313.19,21.08L605.03,22.74L612.15,22.72L790.1,24.27L797.22,24.92L868.4,25.32L875.52,25.39L960.94,26.58L968.06,27.09L996.53,27.07L1003.65,27.2L1017.88,27.48L1025,31.35" style="vector-effect: none; fill: none; stroke: rgb(67, 67, 72); stroke-opacity: 1; stroke-width: 2px; opacity: 1;"/></g><g class="points"/><g class="text"/></g><g class="trace scatter traced8e2ad" style="stroke-miterlimit: 2; opacity: 1;"><g class="fills"/><g class="errorbars"/><g class="lines"><path class="js-line" d="M0,20.96L7.12,21.66L14.24,21.23L42.71,20.88L49.83,20.87L56.94,20.85L64.06,19.79L242.01,20.05L249.13,21.03L256.25,21.06L263.37,20.03L320.31,20.6L327.43,20.7L363.02,20.76L370.14,21.33L384.38,20.96L391.49,20.93L398.61,21.38L405.73,21.01L498.26,21.63L505.38,21.66L676.22,22.64L683.33,22.7L775.87,23.76L782.99,23.83L854.17,24.78L861.28,24.88L1017.88,27.71L1025,31.39" style="vector-effect: none; fill: none; stroke: rgb(144, 237, 125); stroke-opacity: 1; stroke-width: 2px; opacity: 1;"/></g><g class="points"/><g class="text"/></g><g class="trace scatter trace164e4d" style="stroke-miterlimit: 2; opacity: 1;"><g class="fills"/><g class="errorbars"/><g class="lines"><path class="js-line" d="M0,21.05L7.12,21.81L14.24,21.07L35.59,21.13L42.71,20.99L56.94,21.01L64.06,19.92L320.31,20.72L327.43,20.83L363.02,20.88L370.14,21.47L384.38,21.12L391.49,21.09L398.61,21.55L405.73,21.18L491.15,21.73L498.26,21.85L711.81,23.18L718.92,23.72L733.16,23.38L740.28,23.46L932.47,26.03L939.58,26.27L1003.65,27.21L1010.76,27.45L1017.88,27.53L1025,31.26" style="vector-effect: none; fill: none; stroke: rgb(247, 163, 92); stroke-opacity: 1; stroke-width: 2px; opacity: 1;"/></g><g class="points"/><g class="text"/></g><g class="trace scatter traceaf9f9e" style="stroke-miterlimit: 2; opacity: 1;"><g class="fills"/><g class="errorbars"/><g class="lines"><path class="js-line" d="M0,22.42L28.47,21.27L35.59,21.39L56.94,21.2L64.06,20.08L242.01,20.31L249.13,21.31L256.25,20.26L263.37,20.33L284.72,20.75L291.84,20.66L647.74,22.83L654.86,22.93L790.1,24.19L797.22,24.84L896.88,25.75L903.99,25.88L1017.88,27.86L1025,31.76" style="vector-effect: none; fill: none; stroke: rgb(128, 133, 233); stroke-opacity: 1; stroke-width: 2px; opacity: 1;"/></g><g class="points"/><g class="text"/></g><g class="trace scatter tracec48245" style="stroke-miterlimit: 2; opacity: 1;"><g class="fills"/><g class="errorbars"/><g class="lines"><path class="js-line" d="M0,22.78L21.35,21.34L28.47,21.05L56.94,20.96L64.06,19.86L263.37,20.26L270.49,20.61L291.84,20.36L298.96,20.49L711.81,23.09L718.92,23.64L740.28,23.39L747.4,23.48L861.28,24.92L868.4,25.09L960.94,26.49L968.06,27.01L996.53,27.04L1003.65,27.19L1017.88,27.5L1025,31.26" style="vector-effect: none; fill: none; stroke: rgb(241, 92, 128); stroke-opacity: 1; stroke-width: 2px; opacity: 1;"/></g><g class="points"/><g class="text"/></g><g class="trace scatter trace9e9f0e" style="stroke-miterlimit: 2; opacity: 1;"><g class="fills"/><g class="errorbars"/><g class="lines"><path class="js-line" d="M0,24.27L14.24,21.78L21.35,21.74L49.83,21.42L56.94,21.32L64.06,20.18L71.18,20.19L206.42,20.53L213.54,20.33L711.81,23.95L718.92,24.46L740.28,24.25L747.4,24.36L790.1,24.8L797.22,25.48L889.76,26.31L896.88,26.44L989.41,28.1L996.53,28.1L1017.88,28.58L1025,32.63" style="vector-effect: none; fill: none; stroke: rgb(228, 211, 84); stroke-opacity: 1; stroke-width: 2px; opacity: 1;"/></g><g class="points"/><g class="text"/></g><g class="trace scatter trace70a5a2" style="stroke-miterlimit: 2; opacity: 1;"><g class="fills"/><g class="errorbars"/><g class="lines"><path class="js-line" d="M0,21.43L7.12,22.61L14.24,21.36L56.94,21L64.06,19.9L277.6,20.62L284.72,20.8L320.31,20.75L327.43,20.81L363.02,20.89L370.14,21.43L384.38,21.07L391.49,21.05L398.61,21.49L405.73,21.13L540.97,21.88L548.09,21.91L733.16,23.24L740.28,23.31L960.94,26.01L968.06,26.54L996.53,26.5L1003.65,26.65L1017.88,26.93L1025,30.6" style="vector-effect: none; fill: none; stroke: rgb(43, 144, 143); stroke-opacity: 1; stroke-width: 2px; opacity: 1;"/></g><g class="points"/><g class="text"/></g><g class="trace scatter trace182e3f" style="stroke-miterlimit: 2; opacity: 1;"><g class="fills"/><g class="errorbars"/><g class="lines"><path class="js-line" d="M0,21.52L7.12,21.75L14.24,20.97L56.94,20.9L64.06,19.82L263.37,20.12L270.49,20.59L284.72,20.35L291.84,20.34L711.81,22.89L718.92,23.43L733.16,23.12L740.28,23.19L1017.88,27.3L1025,30.98" style="vector-effect: none; fill: none; stroke: rgb(244, 91, 91); stroke-opacity: 1; stroke-width: 2px; opacity: 1;"/></g><g class="points"/><g class="text"/></g><g class="trace scatter tracea16fe8" style="stroke-miterlimit: 2; opacity: 1;"><g class="fills"/><g class="errorbars"/><g class="lines"><path class="js-line" d="M0,23.42L14.24,21.34L21.35,21.46L35.59,21.23L42.71,21.26L56.94,21.09L64.06,20.01L185.07,20.06L192.19,20.17L242.01,20.17L249.13,20.74L263.37,21.23L270.49,20.18L277.6,21.16L284.72,20.24L327.43,20.71L334.55,20.66L526.74,21.92L533.85,21.93L654.86,22.83L661.98,22.87L790.1,24.33L797.22,25.02L854.17,25.39L861.28,25.49L925.35,26.71L932.47,26.8L968.06,27.88L975.17,27.79L1003.65,28.17L1010.76,28.48L1017.88,28.54L1025,32.45" style="vector-effect: none; fill: none; stroke: rgb(145, 232, 225); stroke-opacity: 1; stroke-width: 2px; opacity: 1;"/></g><g class="points"/><g class="text"/></g><g class="trace scatter trace621abe" style="stroke-miterlimit: 2; opacity: 1;"><g class="fills"/><g class="errorbars"/><g class="lines"><path class="js-line" d="M0,21.8L7.12,22.45L14.24,21.47L56.94,21.02L64.06,19.94L249.13,20.23L256.25,20.52L320.31,20.86L327.43,21.19L341.67,21.15L348.78,21.26L363.02,21.15L370.14,21.9L377.26,21.35L384.38,21.62L412.85,21.59L419.97,22L455.56,22.17L462.67,22.53L540.97,22.94L548.09,22.98L669.1,23.62L676.22,23.62L790.1,24.98L797.22,25.68L861.28,26.25L868.4,26.49L932.47,27.66L939.58,27.98L960.94,28.24L968.06,28.79L1003.65,29.11L1010.76,29.43L1017.88,29.49L1025,33.5" style="vector-effect: none; fill: none; stroke: rgb(124, 181, 236); stroke-opacity: 1; stroke-width: 2px; opacity: 1;"/></g><g class="points"/><g class="text"/></g><g class="trace scatter tracec90c69" style="stroke-miterlimit: 2; opacity: 1;"><g class="fills"/><g class="errorbars"/><g class="lines"><path class="js-line" d="M0,21.06L7.12,23.16L14.24,21.32L49.83,20.79L56.94,20.76L64.06,19.73L71.18,19.75L363.02,20.66L370.14,21.16L384.38,20.82L391.49,20.77L398.61,21.25L405.73,20.88L491.15,21.32L498.26,21.4L654.86,22.36L661.98,22.42L711.81,22.87L718.92,23.4L733.16,23.08L740.28,23.17L960.94,26.31L968.06,26.83L996.53,26.88L1003.65,27.04L1017.88,27.37L1025,31.13" style="vector-effect: none; fill: none; stroke: rgb(67, 67, 72); stroke-opacity: 1; stroke-width: 2px; opacity: 1;"/></g><g class="points"/><g class="text"/></g><g class="trace scatter trace495357" style="stroke-miterlimit: 2; opacity: 1;"><g class="fills"/><g class="errorbars"/><g class="lines"><path class="js-line" d="M0,23.51L7.12,24.44L14.24,22.41L56.94,21.67L64.06,20.43L249.13,20.55L256.25,21.12L277.6,21.72L284.72,21.75L298.96,21.08L306.08,21.06L569.44,22.53L576.56,22.58L711.81,23.59L718.92,24.14L740.28,23.88L747.4,23.95L889.76,25.59L896.88,25.78L1017.88,27.5L1025,31.39" style="vector-effect: none; fill: none; stroke: rgb(144, 237, 125); stroke-opacity: 1; stroke-width: 2px; opacity: 1;"/></g><g class="points"/><g class="text"/></g><g class="trace scatter trace2b313f" style="stroke-miterlimit: 2; opacity: 1;"><g class="fills"/><g class="errorbars"/><g class="lines"><path class="js-line" d="M0,21.12L7.12,22.21L14.24,21.47L35.59,20.98L42.71,20.9L56.94,20.91L64.06,19.86L363.02,20.83L370.14,21.37L384.38,21.01L391.49,20.98L398.61,21.43L405.73,21.07L562.33,21.98L569.44,22.06L711.81,23.21L718.92,23.76L733.16,23.44L740.28,23.52L960.94,26.62L968.06,27.15L996.53,27.18L1003.65,27.33L1017.88,27.64L1025,31.41" style="vector-effect: none; fill: none; stroke: rgb(247, 163, 92); stroke-opacity: 1; stroke-width: 2px; opacity: 1;"/></g><g class="points"/><g class="text"/></g><g class="trace scatter traced62d36" style="stroke-miterlimit: 2; opacity: 1;"><g class="fills"/><g class="errorbars"/><g class="lines"><path class="js-line" d="M0,20.8L21.35,20.86L28.47,20.73L56.94,20.77L64.06,19.78L277.6,20.41L284.72,20.54L334.55,20.58L341.67,20.69L505.38,21.7L512.5,21.74L597.92,22.35L605.03,22.41L683.33,23.01L690.45,23.18L911.11,26.58L918.23,26.78L960.94,27.55L968.06,28.12L996.53,28.32L1003.65,28.52L1017.88,28.93L1025,32.46" style="vector-effect: none; fill: none; stroke: rgb(128, 133, 233); stroke-opacity: 1; stroke-width: 2px; opacity: 1;"/></g><g class="points"/><g class="text"/></g><g class="trace scatter traceae7237" style="stroke-miterlimit: 2; opacity: 1;"><g class="fills"/><g class="errorbars"/><g class="lines"><path class="js-line" d="M0,23.19L7.12,21.67L14.24,21.42L21.35,21.92L28.47,21.66L56.94,21.64L64.06,20.48L242.01,20.71L249.13,21.72L256.25,20.62L263.37,20.67L284.72,21.16L291.84,21.08L583.68,23.03L590.8,23.1L932.47,27.6L939.58,27.85L1003.65,29.02L1010.76,29.25L1017.88,29.36L1025,33.23" style="vector-effect: none; fill: none; stroke: rgb(241, 92, 128); stroke-opacity: 1; stroke-width: 2px; opacity: 1;"/></g><g class="points"/><g class="text"/></g><g class="trace scatter trace67c45f" style="stroke-miterlimit: 2; opacity: 1;"><g class="fills"/><g class="errorbars"/><g class="lines"><path class="js-line" d="M0,21.62L7.12,20.6L14.24,21.11L35.59,20.97L42.71,20.95L56.94,20.98L64.06,19.97L242.01,20.29L249.13,21.18L256.25,21.26L263.37,20.27L291.84,20.56L298.96,20.65L612.15,22.63L619.27,22.74L690.45,23.57L697.57,23.62L960.94,28.52L968.06,29.04L1017.88,29.94L1025,33.57" style="vector-effect: none; fill: none; stroke: rgb(228, 211, 84); stroke-opacity: 1; stroke-width: 2px; opacity: 1;"/></g><g class="points"/><g class="text"/></g><g class="trace scatter trace8d351d" style="stroke-miterlimit: 2; opacity: 1;"><g class="fills"/><g class="errorbars"/><g class="lines"><path class="js-line" d="M0,25.92L7.12,21.42L14.24,21.3L56.94,21.17L64.06,20.12L256.25,20.66L263.37,21.01L291.84,20.78L298.96,20.75L363.02,20.99L370.14,21.56L384.38,21.21L391.49,21.22L398.61,21.65L405.73,21.3L491.15,21.9L498.26,21.97L626.39,22.86L633.51,22.96L790.1,25.01L797.22,25.79L839.93,26.04L847.05,26.17L911.11,27.49L918.23,27.73L960.94,28.57L968.06,29.15L1017.88,30.01L1025,33.72" style="vector-effect: none; fill: none; stroke: rgb(43, 144, 143); stroke-opacity: 1; stroke-width: 2px; opacity: 1;"/></g><g class="points"/><g class="text"/></g><g class="trace scatter tracecb1be8" style="stroke-miterlimit: 2; opacity: 1;"><g class="fills"/><g class="errorbars"/><g class="lines"><path class="js-line" d="M0,21.4L56.94,21.38L64.06,20.22L249.13,20.39L256.25,20.83L327.43,21.21L334.55,21.11L398.61,22.01L405.73,21.66L583.68,22.86L590.8,22.93L889.76,26.25L896.88,26.44L1017.88,28.67L1025,32.42" style="vector-effect: none; fill: none; stroke: rgb(244, 91, 91); stroke-opacity: 1; stroke-width: 2px; opacity: 1;"/></g><g class="points"/><g class="text"/></g><g class="trace scatter trace56445a" style="stroke-miterlimit: 2; opacity: 1;"><g class="fills"/><g class="errorbars"/><g class="lines"><path class="js-line" d="M0,21.06L56.94,21.18L64.06,20.09L277.6,20.69L284.72,20.83L341.67,20.98L348.78,21.05L491.15,21.77L498.26,21.85L612.15,22.54L619.27,22.62L711.81,23.49L718.92,24.04L740.28,23.82L747.4,23.91L790.1,24.4L797.22,25.1L861.28,25.55L868.4,25.76L932.47,26.84L939.58,27.14L960.94,27.38L968.06,27.94L1003.65,28.22L1010.76,28.53L1017.88,28.59L1025,32.28" style="vector-effect: none; fill: none; stroke: rgb(145, 232, 225); stroke-opacity: 1; stroke-width: 2px; opacity: 1;"/></g><g class="points"/><g class="text"/></g><g class="trace scatter traced9395e" style="stroke-miterlimit: 2; opacity: 1;"><g class="fills"/><g class="errorbars"/><g class="lines"><path class="js-line" d="M0,21.59L7.12,20.62L14.24,20.96L56.94,21.15L64.06,20.15L163.72,20.14L170.83,20.17L206.42,20.32L213.54,20.25L242.01,20.31L249.13,20.9L263.37,21.29L270.49,20.34L277.6,21.22L284.72,20.37L334.55,20.76L341.67,20.78L434.2,21.31L441.32,21.34L576.56,22.19L583.68,22.32L647.74,22.79L654.86,23.01L704.69,23.54L711.81,23.58L726.04,23.9L733.16,23.79L818.58,25.22L825.69,25.24L847.05,25.68L854.17,25.79L911.11,26.96L918.23,27.2L1003.65,28.97L1010.76,29.43L1017.88,29.4L1025,33.12" style="vector-effect: none; fill: none; stroke: rgb(124, 181, 236); stroke-opacity: 1; stroke-width: 2px; opacity: 1;"/></g><g class="points"/><g class="text"/></g><g class="trace scatter trace93cbf5" style="stroke-miterlimit: 2; opacity: 1;"><g class="fills"/><g class="errorbars"/><g class="lines"><path class="js-line" d="M0,21.52L7.12,22.66L14.24,21.73L21.35,20.8L28.47,20.67L56.94,20.69L64.06,19.72L320.31,20.4L327.43,20.44L576.56,21.87L583.68,21.93L711.81,23.24L718.92,23.78L740.28,23.61L747.4,23.72L790.1,24.26L797.22,24.96L861.28,25.5L868.4,25.7L960.94,27.43L968.06,27.95L996.53,28.11L1003.65,28.27L1017.88,28.63L1025,32.26" style="vector-effect: none; fill: none; stroke: rgb(67, 67, 72); stroke-opacity: 1; stroke-width: 2px; opacity: 1;"/></g><g class="points"/><g class="text"/></g><g class="trace scatter trace506af6" style="stroke-miterlimit: 2; opacity: 1;"><g class="fills"/><g class="errorbars"/><g class="lines"><path class="js-line" d="M0,20.85L7.12,20.44L14.24,20.9L56.94,20.96L64.06,19.9L313.19,20.56L320.31,20.61L711.81,23.23L718.92,23.79L733.16,23.47L740.28,23.56L1017.88,28.23L1025,31.8" style="vector-effect: none; fill: none; stroke: rgb(144, 237, 125); stroke-opacity: 1; stroke-width: 2px; opacity: 1;"/></g><g class="points"/><g class="text"/></g><g class="trace scatter trace539856" style="stroke-miterlimit: 2; opacity: 1;"><g class="fills"/><g class="errorbars"/><g class="lines"><path class="js-line" d="M0,20.64L14.24,20.38L21.35,20.42L56.94,20.49L64.06,19.67L363.02,20.5L370.14,21.04L384.38,20.65L391.49,20.67L405.73,20.74L412.85,20.75L597.92,22.52L605.03,22.73L654.86,23.91L661.98,24.09L704.69,25.53L711.81,25.93L718.92,26.67L726.04,26.55L754.51,27.71L761.63,28.29L790.1,29.64L797.22,30.69L825.69,31.79L832.81,32.56L918.23,37.76L925.35,38.07L975.17,41.13L982.29,41.86L1003.65,42.69L1010.76,43.58L1017.88,44.15L1025,48.21" style="vector-effect: none; fill: none; stroke: rgb(247, 163, 92); stroke-opacity: 1; stroke-width: 2px; opacity: 1;"/></g><g class="points"/><g class="text"/></g><g class="trace scatter trace928bd3" style="stroke-miterlimit: 2; opacity: 1;"><g class="fills"/><g class="errorbars"/><g class="lines"><path class="js-line" d="M0,21.11L7.12,20.6L14.24,20.91L56.94,20.75L64.06,19.8L363.02,20.61L370.14,21.13L384.38,20.77L391.49,20.78L398.61,21.21L405.73,20.86L612.15,22.16L619.27,22.25L711.81,23.31L718.92,23.85L740.28,23.71L747.4,23.84L790.1,24.45L797.22,25.17L854.17,25.7L861.28,25.83L918.23,27.18L925.35,27.27L1003.65,29.03L1010.76,29.34L1017.88,29.45L1025,33.12" style="vector-effect: none; fill: none; stroke: rgb(128, 133, 233); stroke-opacity: 1; stroke-width: 2px; opacity: 1;"/></g><g class="points"/><g class="text"/></g><g class="trace scatter tracea55a27" style="stroke-miterlimit: 2; opacity: 1;"><g class="fills"/><g class="errorbars"/><g class="lines"><path class="js-line" d="M0,22.2L14.24,21.01L21.35,21.33L56.94,21.17L64.06,20.11L185.07,20.31L192.19,20.38L263.37,20.73L270.49,21.34L277.6,20.36L284.72,20.37L334.55,20.83L341.67,20.9L434.2,21.47L441.32,21.46L711.81,23.54L718.92,24.09L733.16,23.77L740.28,23.87L960.94,27.33L968.06,27.87L996.53,27.96L1003.65,28.13L1017.88,28.45L1025,32.12" style="vector-effect: none; fill: none; stroke: rgb(241, 92, 128); stroke-opacity: 1; stroke-width: 2px; opacity: 1;"/></g><g class="points"/><g class="text"/></g><g class="trace scatter tracec12f1f" style="stroke-miterlimit: 2; opacity: 1;"><g class="fills"/><g class="errorbars"/><g class="lines"><path class="js-line" d="M0,21.7L7.12,20.87L14.24,21.08L56.94,20.95L64.06,19.9L249.13,19.92L256.25,20.12L384.38,20.95L391.49,20.94L398.61,21.38L405.73,21.01L569.44,21.96L576.56,22L711.81,23.21L718.92,23.76L733.16,23.46L740.28,23.55L960.94,27.16L968.06,27.72L996.53,27.83L1003.65,28.03L1017.88,28.36L1025,31.85" style="vector-effect: none; fill: none; stroke: rgb(228, 211, 84); stroke-opacity: 1; stroke-width: 2px; opacity: 1;"/></g><g class="points"/><g class="text"/></g><g class="trace scatter trace238fdc" style="stroke-miterlimit: 2; opacity: 1;"><g class="fills"/><g class="errorbars"/><g class="lines"><path class="js-line" d="M0,22.71L7.12,20.78L14.24,21.29L35.59,20.92L42.71,20.88L56.94,20.94L64.06,19.91L363.02,20.91L370.14,21.45L384.38,21.1L391.49,21.11L398.61,21.53L405.73,21.17L711.81,23.51L718.92,24.05L733.16,23.75L740.28,23.84L960.94,27.24L968.06,27.76L996.53,27.86L1003.65,27.99L1017.88,28.34L1025,31.91" style="vector-effect: none; fill: none; stroke: rgb(43, 144, 143); stroke-opacity: 1; stroke-width: 2px; opacity: 1;"/></g><g class="points"/><g class="text"/></g><g class="trace scatter trace78f6a3" style="stroke-miterlimit: 2; opacity: 1;"><g class="fills"/><g class="errorbars"/><g class="lines"><path class="js-line" d="M0,20.9L7.12,21.73L14.24,21.12L35.59,20.89L42.71,20.83L56.94,20.92L64.06,19.95L306.08,20.62L313.19,20.68L697.57,23.85L704.69,23.98L790.1,25.34L797.22,26.07L854.17,26.69L861.28,26.83L903.99,27.94L911.11,28.05L975.17,29.74L982.29,29.76L1017.88,30.71L1025,34.45" style="vector-effect: none; fill: none; stroke: rgb(244, 91, 91); stroke-opacity: 1; stroke-width: 2px; opacity: 1;"/></g><g class="points"/><g class="text"/></g><g class="trace scatter traceb1edc9" style="stroke-miterlimit: 2; opacity: 1;"><g class="fills"/><g class="errorbars"/><g class="lines"><path class="js-line" d="M0,21.46L7.12,20.57L14.24,20.9L56.94,21.03L64.06,19.95L263.37,20.3L270.49,20.76L284.72,20.56L291.84,20.52L790.1,23.96L797.22,24.59L903.99,25.61L911.11,25.73L989.41,27.07L996.53,27.09L1017.88,27.56L1025,31.03" style="vector-effect: none; fill: none; stroke: rgb(145, 232, 225); stroke-opacity: 1; stroke-width: 2px; opacity: 1;"/></g><g class="points"/><g class="text"/></g><g class="trace scatter trace9cf3e7" style="stroke-miterlimit: 2; opacity: 1;"><g class="fills"/><g class="errorbars"/><g class="lines"><path class="js-line" d="M0,24.34L7.12,21.97L14.24,21.83L35.59,21.6L42.71,21.52L56.94,21.4L64.06,20.19L249.13,20.54L256.25,20.88L270.49,21.87L277.6,20.58L363.02,21.48L370.14,22.12L391.49,22.02L398.61,22.48L419.97,22.24L427.08,22.36L505.38,23.33L512.5,23.36L640.63,24.07L647.74,24.02L733.16,24.59L740.28,24.62L960.94,26.9L968.06,27.42L996.53,27.36L1003.65,27.45L1017.88,27.69L1025,31.42" style="vector-effect: none; fill: none; stroke: rgb(124, 181, 236); stroke-opacity: 1; stroke-width: 2px; opacity: 1;"/></g><g class="points"/><g class="text"/></g><g class="trace scatter trace78c2a2" style="stroke-miterlimit: 2; opacity: 1;"><g class="fills"/><g class="errorbars"/><g class="lines"><path class="js-line" d="M0,21.87L14.24,21.7L21.35,21.75L42.71,21.42L49.83,21.49L56.94,21.47L64.06,20.23L363.02,21.47L370.14,22.17L391.49,22.13L398.61,22.55L412.85,22.2L419.97,22.31L526.74,23.45L533.85,23.47L669.1,24.44L676.22,24.47L889.76,27.58L896.88,27.82L1017.88,30.2L1025,33.84" style="vector-effect: none; fill: none; stroke: rgb(67, 67, 72); stroke-opacity: 1; stroke-width: 2px; opacity: 1;"/></g><g class="points"/><g class="text"/></g><g class="trace scatter trace5b0dc0" style="stroke-miterlimit: 2; opacity: 1;"><g class="fills"/><g class="errorbars"/><g class="lines"><path class="js-line" d="M0,23.72L7.12,22.26L14.24,22.11L42.71,21.37L49.83,21.42L56.94,21.32L64.06,20.12L270.49,20.45L277.6,20.92L291.84,20.7L298.96,20.84L363.02,21.15L370.14,21.67L384.38,21.34L391.49,21.37L398.61,21.82L405.73,21.46L711.81,23.55L718.92,24.07L733.16,23.71L740.28,23.76L925.35,25.67L932.47,25.69L968.06,26.55L975.17,26.35L1017.88,26.73L1025,30.32" style="vector-effect: none; fill: none; stroke: rgb(144, 237, 125); stroke-opacity: 1; stroke-width: 2px; opacity: 1;"/></g><g class="points"/><g class="text"/></g><g class="trace scatter trace96676f" style="stroke-miterlimit: 2; opacity: 1;"><g class="fills"/><g class="errorbars"/><g class="lines"><path class="js-line" d="M0,22.99L7.12,22.31L14.24,22.5L56.94,22.19L64.06,20.74L256.25,21.05L263.37,21.19L270.49,21.98L277.6,21.15L306.08,21.55L313.19,21.55L398.61,22.33L405.73,21.96L960.94,25.83L968.06,26.34L996.53,26.1L1003.65,26.21L1017.88,26.34L1025,30.03" style="vector-effect: none; fill: none; stroke: rgb(247, 163, 92); stroke-opacity: 1; stroke-width: 2px; opacity: 1;"/></g><g class="points"/><g class="text"/></g><g class="trace scatter trace15537d" style="stroke-miterlimit: 2; opacity: 1;"><g class="fills"/><g class="errorbars"/><g class="lines"><path class="js-line" d="M0,22.21L14.24,22.04L21.35,21.58L42.71,21.21L49.83,21.25L56.94,21.21L64.06,20.01L270.49,20.43L277.6,20.87L334.55,21.12L341.67,21.25L526.74,22.64L533.85,22.64L932.47,27.01L939.58,27.3L960.94,27.5L968.06,28.01L1003.65,28.14L1010.76,28.43L1017.88,28.43L1025,32.01" style="vector-effect: none; fill: none; stroke: rgb(128, 133, 233); stroke-opacity: 1; stroke-width: 2px; opacity: 1;"/></g><g class="points"/><g class="text"/></g><g class="trace scatter trace109ead" style="stroke-miterlimit: 2; opacity: 1;"><g class="fills"/><g class="errorbars"/><g class="lines"><path class="js-line" d="M0,23.6L7.12,21.56L14.24,21.47L21.35,21.84L28.47,21.44L56.94,21.38L64.06,20.19L242.01,20.48L249.13,21.68L256.25,20.46L263.37,20.49L284.72,20.87L291.84,20.8L363.02,21.35L370.14,22.07L391.49,21.98L398.61,22.43L419.97,22.14L427.08,22.22L498.26,23.14L505.38,23.16L683.33,24.23L690.45,24.36L960.94,28.23L968.06,28.71L1003.65,28.94L1010.76,29.18L1017.88,29.23L1025,32.92" style="vector-effect: none; fill: none; stroke: rgb(241, 92, 128); stroke-opacity: 1; stroke-width: 2px; opacity: 1;"/></g><g class="points"/><g class="text"/></g><g class="trace scatter trace07d697" style="stroke-miterlimit: 2; opacity: 1;"><g class="fills"/><g class="errorbars"/><g class="lines"><path class="js-line" d="M0,23.5L7.12,22.23L14.24,22.18L42.71,21.67L49.83,21.74L56.94,21.64L64.06,20.38L249.13,20.65L256.25,21.2L284.72,20.68L291.84,21L334.55,21.28L341.67,21.27L434.2,21.76L441.32,21.74L640.63,22.99L647.74,22.98L761.63,23.89L768.75,23.96L1017.88,26.43L1025,30.04" style="vector-effect: none; fill: none; stroke: rgb(228, 211, 84); stroke-opacity: 1; stroke-width: 2px; opacity: 1;"/></g><g class="points"/><g class="text"/></g><g class="trace scatter traced33cb6" style="stroke-miterlimit: 2; opacity: 1;"><g class="fills"/><g class="errorbars"/><g class="lines"><path class="js-line" d="M0,22.09L56.94,21.33L64.06,20.12L270.49,20.43L277.6,20.93L291.84,20.97L298.96,20.99L363.02,21.21L370.14,21.75L384.38,21.43L391.49,21.47L398.61,21.9L405.73,21.55L683.33,23.41L690.45,23.54L775.87,24.36L782.99,24.41L868.4,25.4L875.52,25.46L960.94,26.55L968.06,27.08L996.53,26.98L1003.65,27.11L1017.88,27.32L1025,30.82" style="vector-effect: none; fill: none; stroke: rgb(43, 144, 143); stroke-opacity: 1; stroke-width: 2px; opacity: 1;"/></g><g class="points"/><g class="text"/></g><g class="trace scatter trace292b5f" style="stroke-miterlimit: 2; opacity: 1;"><g class="fills"/><g class="errorbars"/><g class="lines"><path class="js-line" d="M0,23.69L7.12,22.31L14.24,22.27L42.71,21.59L49.83,21.66L56.94,21.56L64.06,20.29L256.25,20.69L263.37,20.88L270.49,21.22L277.6,20.78L298.96,21.1L306.08,21.16L711.81,23.58L718.92,24.13L733.16,23.73L740.28,23.8L960.94,25.83L968.06,26.34L996.53,26.14L1003.65,26.26L1017.88,26.41L1025,29.99" style="vector-effect: none; fill: none; stroke: rgb(244, 91, 91); stroke-opacity: 1; stroke-width: 2px; opacity: 1;"/></g><g class="points"/><g class="text"/></g><g class="trace scatter tracefa72f5" style="stroke-miterlimit: 2; opacity: 1;"><g class="fills"/><g class="errorbars"/><g class="lines"><path class="js-line" d="M0,23.34L7.12,22.62L14.24,23.2L28.47,22.29L35.59,22.37L56.94,22.17L64.06,20.77L249.13,21.14L256.25,21.65L270.49,21.21L277.6,21.19L306.08,21.78L313.19,21.74L398.61,22.57L405.73,22.19L1017.88,26.91L1025,30.75" style="vector-effect: none; fill: none; stroke: rgb(145, 232, 225); stroke-opacity: 1; stroke-width: 2px; opacity: 1;"/></g><g class="points"/><g class="text"/></g><g class="trace scatter trace5d23d8" style="stroke-miterlimit: 2; opacity: 1;"><g class="fills"/><g class="errorbars"/><g class="lines"><path class="js-line" d="M0,23.21L7.12,21.33L14.24,21.65L56.94,21.24L64.06,20.05L242.01,20.35L249.13,20.91L263.37,21.59L270.49,20.39L277.6,21.56L284.72,20.35L313.19,20.81L320.31,20.88L370.14,21.64L377.26,21.32L697.57,24.28L704.69,24.38L790.1,25.36L797.22,26.05L889.76,27.02L896.88,27.21L1017.88,29.41L1025,33.04" style="vector-effect: none; fill: none; stroke: rgb(124, 181, 236); stroke-opacity: 1; stroke-width: 2px; opacity: 1;"/></g><g class="points"/><g class="text"/></g><g class="trace scatter trace8d8f66" style="stroke-miterlimit: 2; opacity: 1;"><g class="fills"/><g class="errorbars"/><g class="lines"><path class="js-line" d="M0,21.82L7.12,21.19L14.24,21.74L28.47,21.05L35.59,21.11L56.94,21.08L64.06,19.94L242.01,20.27L249.13,21.47L256.25,21.47L263.37,20.21L711.81,23.8L718.92,24.34L733.16,24.06L740.28,24.15L960.94,28.32L968.06,28.88L996.53,29.03L1003.65,29.21L1017.88,29.57L1025,32.96" style="vector-effect: none; fill: none; stroke: rgb(67, 67, 72); stroke-opacity: 1; stroke-width: 2px; opacity: 1;"/></g><g class="points"/><g class="text"/></g><g class="trace scatter trace22688f" style="stroke-miterlimit: 2; opacity: 1;"><g class="fills"/><g class="errorbars"/><g class="lines"><path class="js-line" d="M0,22.19L7.12,21.28L14.24,21.7L49.83,21.26L56.94,21.23L64.06,20.07L71.18,20.07L263.37,20.9L270.49,20.36L790.1,25.81L797.22,26.49L911.11,28.1L918.23,28.28L1017.88,30.06L1025,33.69" style="vector-effect: none; fill: none; stroke: rgb(144, 237, 125); stroke-opacity: 1; stroke-width: 2px; opacity: 1;"/></g><g class="points"/><g class="text"/></g><g class="trace scatter tracec05611" style="stroke-miterlimit: 2; opacity: 1;"><g class="fills"/><g class="errorbars"/><g class="lines"><path class="js-line" d="M0,23.09L21.35,22.85L28.47,22.28L56.94,22.21L64.06,20.79L185.07,21.1L192.19,21.23L242.01,21.14L249.13,21.84L256.25,21.01L263.37,21.22L270.49,21.76L277.6,21.25L284.72,22.02L291.84,21.78L683.33,24.08L690.45,24.2L754.51,24.67L761.63,24.75L1017.88,27.09L1025,30.98" style="vector-effect: none; fill: none; stroke: rgb(247, 163, 92); stroke-opacity: 1; stroke-width: 2px; opacity: 1;"/></g><g class="points"/><g class="text"/></g></g></g></g><g class="zerolinelayer-above"/><path class="xlines-above crisp" d="M0,0" style="fill: none;"/><path class="ylines-above crisp" d="M0,0" style="fill: none;"/><g class="overlines-above"/><g class="xaxislayer-above"><g class="xtick"><text text-anchor="middle" x="0" y="451" transform="translate(195.24,0)" style="font-family: system-ui, -apple-system, 'Segoe UI', Roboto, 'Helvetica Neue', 'Noto Sans', 'Liberation Sans', Arial, sans-serif, 'Apple Color Emoji', 'Segoe UI Emoji', 'Segoe UI Symbol', 'Noto Color Emoji'; font-size: 10px; fill: rgb(80, 80, 80); fill-opacity: 1; white-space: pre;">20</text></g><g class="xtick"><text text-anchor="middle" x="0" y="451" style="font-family: system-ui, -apple-system, 'Segoe UI', Roboto, 'Helvetica Neue', 'Noto Sans', 'Liberation Sans', Arial, sans-serif, 'Apple Color Emoji', 'Segoe UI Emoji', 'Segoe UI Symbol', 'Noto Color Emoji'; font-size: 10px; fill: rgb(80, 80, 80); fill-opacity: 1; white-space: pre;" transform="translate(337.6,0)">40</text></g><g class="xtick"><text text-anchor="middle" x="0" y="451" style="font-family: system-ui, -apple-system, 'Segoe UI', Roboto, 'Helvetica Neue', 'Noto Sans', 'Liberation Sans', Arial, sans-serif, 'Apple Color Emoji', 'Segoe UI Emoji', 'Segoe UI Symbol', 'Noto Color Emoji'; font-size: 10px; fill: rgb(80, 80, 80); fill-opacity: 1; white-space: pre;" transform="translate(479.97,0)">60</text></g><g class="xtick"><text text-anchor="middle" x="0" y="451" style="font-family: system-ui, -apple-system, 'Segoe UI', Roboto, 'Helvetica Neue', 'Noto Sans', 'Liberation Sans', Arial, sans-serif, 'Apple Color Emoji', 'Segoe UI Emoji', 'Segoe UI Symbol', 'Noto Color Emoji'; font-size: 10px; fill: rgb(80, 80, 80); fill-opacity: 1; white-space: pre;" transform="translate(622.33,0)">80</text></g><g class="xtick"><text text-anchor="middle" x="0" y="451" style="font-family: system-ui, -apple-system, 'Segoe UI', Roboto, 'Helvetica Neue', 'Noto Sans', 'Liberation Sans', Arial, sans-serif, 'Apple Color Emoji', 'Segoe UI Emoji', 'Segoe UI Symbol', 'Noto Color Emoji'; font-size: 10px; fill: rgb(80, 80, 80); fill-opacity: 1; white-space: pre;" transform="translate(764.69,0)">100</text></g><g class="xtick"><text text-anchor="middle" x="0" y="451" style="font-family: system-ui, -apple-system, 'Segoe UI', Roboto, 'Helvetica Neue', 'Noto Sans', 'Liberation Sans', Arial, sans-serif, 'Apple Color Emoji', 'Segoe UI Emoji', 'Segoe UI Symbol', 'Noto Color Emoji'; font-size: 10px; fill: rgb(80, 80, 80); fill-opacity: 1; white-space: pre;" transform="translate(907.05,0)">120</text></g><g class="xtick"><text text-anchor="middle" x="0" y="451" style="font-family: system-ui, -apple-system, 'Segoe UI', Roboto, 'Helvetica Neue', 'Noto Sans', 'Liberation Sans', Arial, sans-serif, 'Apple Color Emoji', 'Segoe UI Emoji', 'Segoe UI Symbol', 'Noto Color Emoji'; font-size: 10px; fill: rgb(80, 80, 80); fill-opacity: 1; white-space: pre;" transform="translate(1049.4099999999999,0)">140</text></g></g><g class="yaxislayer-above"><g class="ytick"><text text-anchor="end" x="54" y="3.5" transform="translate(0,435)" style="font-family: system-ui, -apple-system, 'Segoe UI', Roboto, 'Helvetica Neue', 'Noto Sans', 'Liberation Sans', Arial, sans-serif, 'Apple Color Emoji', 'Segoe UI Emoji', 'Segoe UI Symbol', 'Noto Color Emoji'; font-size: 10px; fill: rgb(80, 80, 80); fill-opacity: 1; white-space: pre;">0</text></g><g class="ytick"><text text-anchor="end" x="54" y="3.5" style="font-family: system-ui, -apple-system, 'Segoe UI', Roboto, 'Helvetica Neue', 'Noto Sans', 'Liberation Sans', Arial, sans-serif, 'Apple Color Emoji', 'Segoe UI Emoji', 'Segoe UI Symbol', 'Noto Color Emoji'; font-size: 10px; fill: rgb(80, 80, 80); fill-opacity: 1; white-space: pre;" transform="translate(0,389.04)">5</text></g><g class="ytick"><text text-anchor="end" x="54" y="3.5" style="font-family: system-ui, -apple-system, 'Segoe UI', Roboto, 'Helvetica Neue', 'Noto Sans', 'Liberation Sans', Arial, sans-serif, 'Apple Color Emoji', 'Segoe UI Emoji', 'Segoe UI Symbol', 'Noto Color Emoji'; font-size: 10px; fill: rgb(80, 80, 80); fill-opacity: 1; white-space: pre;" transform="translate(0,343.08)">10</text></g><g class="ytick"><text text-anchor="end" x="54" y="3.5" style="font-family: system-ui, -apple-system, 'Segoe UI', Roboto, 'Helvetica Neue', 'Noto Sans', 'Liberation Sans', Arial, sans-serif, 'Apple Color Emoji', 'Segoe UI Emoji', 'Segoe UI Symbol', 'Noto Color Emoji'; font-size: 10px; fill: rgb(80, 80, 80); fill-opacity: 1; white-space: pre;" transform="translate(0,297.12)">15</text></g><g class="ytick"><text text-anchor="end" x="54" y="3.5" style="font-family: system-ui, -apple-system, 'Segoe UI', Roboto, 'Helvetica Neue', 'Noto Sans', 'Liberation Sans', Arial, sans-serif, 'Apple Color Emoji', 'Segoe UI Emoji', 'Segoe UI Symbol', 'Noto Color Emoji'; font-size: 10px; fill: rgb(80, 80, 80); fill-opacity: 1; white-space: pre;" transform="translate(0,251.16)">20</text></g><g class="ytick"><text text-anchor="end" x="54" y="3.5" style="font-family: system-ui, -apple-system, 'Segoe UI', Roboto, 'Helvetica Neue', 'Noto Sans', 'Liberation Sans', Arial, sans-serif, 'Apple Color Emoji', 'Segoe UI Emoji', 'Segoe UI Symbol', 'Noto Color Emoji'; font-size: 10px; fill: rgb(80, 80, 80); fill-opacity: 1; white-space: pre;" transform="translate(0,205.2)">25</text></g><g class="ytick"><text text-anchor="end" x="54" y="3.5" style="font-family: system-ui, -apple-system, 'Segoe UI', Roboto, 'Helvetica Neue', 'Noto Sans', 'Liberation Sans', Arial, sans-serif, 'Apple Color Emoji', 'Segoe UI Emoji', 'Segoe UI Symbol', 'Noto Color Emoji'; font-size: 10px; fill: rgb(80, 80, 80); fill-opacity: 1; white-space: pre;" transform="translate(0,159.24)">30</text></g><g class="ytick"><text text-anchor="end" x="54" y="3.5" style="font-family: system-ui, -apple-system, 'Segoe UI', Roboto, 'Helvetica Neue', 'Noto Sans', 'Liberation Sans', Arial, sans-serif, 'Apple Color Emoji', 'Segoe UI Emoji', 'Segoe UI Symbol', 'Noto Color Emoji'; font-size: 10px; fill: rgb(80, 80, 80); fill-opacity: 1; white-space: pre;" transform="translate(0,113.27000000000001)">35</text></g><g class="ytick"><text text-anchor="end" x="54" y="3.5" style="font-family: system-ui, -apple-system, 'Segoe UI', Roboto, 'Helvetica Neue', 'Noto Sans', 'Liberation Sans', Arial, sans-serif, 'Apple Color Emoji', 'Segoe UI Emoji', 'Segoe UI Symbol', 'Noto Color Emoji'; font-size: 10px; fill: rgb(80, 80, 80); fill-opacity: 1; white-space: pre;" transform="translate(0,67.31)">40</text></g></g><g class="overaxes-above"/></g></g><g class="polarlayer"/><g class="smithlayer"/><g class="ternarylayer"/><g class="geolayer"/><g class="funnelarealayer"/><g class="pielayer"/><g class="iciclelayer"/><g class="treemaplayer"/><g class="sunburstlayer"/><g class="glimages"/><defs id="topdefs-c8524f"><g class="clips"/></defs><g class="layer-above"><g class="imagelayer"/><g class="shapelayer"/></g><g class="infolayer"><g class="g-gtitle"><text class="gtitle" x="550" y="25" text-anchor="middle" dy="0em" style="opacity: 1; font-family: system-ui, -apple-system, 'Segoe UI', Roboto, 'Helvetica Neue', 'Noto Sans', 'Liberation Sans', Arial, sans-serif, 'Apple Color Emoji', 'Segoe UI Emoji', 'Segoe UI Symbol', 'Noto Color Emoji'; font-size: 20px; fill: rgb(60, 60, 60); fill-opacity: 1; white-space: pre;"><tspan class="line" dy="0em" x="550" y="25">Fastp: Sequence Quality</tspan><tspan class="line" dy="1.3em" x="550" y="25">​<tspan style="font-size:70%" dy="-0.6em">Read 1: Before filtering, 94 lines</tspan><tspan dy="0.42em">​</tspan></tspan></text></g><g class="g-xtitle"><text class="xtitle" x="572.5" y="487" text-anchor="middle" style="opacity: 1; font-family: system-ui, -apple-system, 'Segoe UI', Roboto, 'Helvetica Neue', 'Noto Sans', 'Liberation Sans', Arial, sans-serif, 'Apple Color Emoji', 'Segoe UI Emoji', 'Segoe UI Symbol', 'Noto Color Emoji'; font-size: 14px; fill: rgb(100, 100, 100); fill-opacity: 1; white-space: pre;">Read Position</text></g><g class="g-ytitle"><text class="ytitle" transform="rotate(-90,22,242.5)" x="22" y="242.5" text-anchor="middle" style="opacity: 1; font-family: system-ui, -apple-system, 'Segoe UI', Roboto, 'Helvetica Neue', 'Noto Sans', 'Liberation Sans', Arial, sans-serif, 'Apple Color Emoji', 'Segoe UI Emoji', 'Segoe UI Symbol', 'Noto Color Emoji'; font-size: 14px; fill: rgb(100, 100, 100); fill-opacity: 1; white-space: pre;">R1 Before filtering: Sequence Quality</text></g></g></svg>