<svg class="main-svg" xmlns="http://www.w3.org/2000/svg" xmlns:xlink="http://www.w3.org/1999/xlink" width="2200" height="1000" style="" viewBox="0 0 1100 500"><rect x="0" y="0" width="1100" height="500" style="fill: rgb(255, 255, 255); fill-opacity: 1;"/><defs id="defs-d04d57"><g class="clips"><clipPath id="clipd04d57xyplot" class="plotclip"><rect width="1025" height="385"/></clipPath><clipPath class="axesclip" id="clipd04d57x"><rect x="60" y="0" width="1025" height="500"/></clipPath><clipPath class="axesclip" id="clipd04d57y"><rect x="0" y="50" width="1100" height="385"/></clipPath><clipPath class="axesclip" id="clipd04d57xy"><rect x="60" y="50" width="1025" height="385"/></clipPath></g><g class="gradients"/><g class="patterns"/></defs><g class="bglayer"/><g class="layer-below"><g class="imagelayer"/><g class="shapelayer"/></g><g class="cartesianlayer"><g class="subplot xy"><g class="layer-subplot"><g class="shapelayer"/><g class="imagelayer"/></g><g class="minor-gridlayer"><g class="x"/><g class="y"/></g><g class="gridlayer"><g class="x"><path class="xgrid crisp" transform="translate(189.83,0)" d="M0,50v385" style="stroke: rgb(128, 128, 128); stroke-opacity: 0.15; stroke-width: 1px;"/><path class="xgrid crisp" transform="translate(326.5,0)" d="M0,50v385" style="stroke: rgb(128, 128, 128); stroke-opacity: 0.15; stroke-width: 1px;"/><path class="xgrid crisp" transform="translate(463.17,0)" d="M0,50v385" style="stroke: rgb(128, 128, 128); stroke-opacity: 0.15; stroke-width: 1px;"/><path class="xgrid crisp" transform="translate(599.83,0)" d="M0,50v385" style="stroke: rgb(128, 128, 128); stroke-opacity: 0.15; stroke-width: 1px;"/><path class="xgrid crisp" transform="translate(736.5,0)" d="M0,50v385" style="stroke: rgb(128, 128, 128); stroke-opacity: 0.15; stroke-width: 1px;"/><path class="xgrid crisp" transform="translate(873.17,0)" d="M0,50v385" style="stroke: rgb(128, 128, 128); stroke-opacity: 0.15; stroke-width: 1px;"/><path class="xgrid crisp" transform="translate(1009.83,0)" d="M0,50v385" style="stroke: rgb(128, 128, 128); stroke-opacity: 0.15; stroke-width: 1px;"/></g><g class="y"><path class="ygrid crisp" transform="translate(0,388.95)" d="M60,0h1025" style="stroke: rgb(128, 128, 128); stroke-opacity: 0.15; stroke-width: 1px;"/><path class="ygrid crisp" transform="translate(0,342.9)" d="M60,0h1025" style="stroke: rgb(128, 128, 128); stroke-opacity: 0.15; stroke-width: 1px;"/><path class="ygrid crisp" transform="translate(0,296.85)" d="M60,0h1025" style="stroke: rgb(128, 128, 128); stroke-opacity: 0.15; stroke-width: 1px;"/><path class="ygrid crisp" transform="translate(0,250.8)" d="M60,0h1025" style="stroke: rgb(128, 128, 128); stroke-opacity: 0.15; stroke-width: 1px;"/><path class="ygrid crisp" transform="translate(0,204.75)" d="M60,0h1025" style="stroke: rgb(128, 128, 128); stroke-opacity: 0.15; stroke-width: 1px;"/><path class="ygrid crisp" transform="translate(0,158.70999999999998)" d="M60,0h1025" style="stroke: rgb(128, 128, 128); stroke-opacity: 0.15; stroke-width: 1px;"/><path class="ygrid crisp" transform="translate(0,112.66)" d="M60,0h1025" style="stroke: rgb(128, 128, 128); stroke-opacity: 0.15; stroke-width: 1px;"/><path class="ygrid crisp" transform="translate(0,66.61)" d="M60,0h1025" style="stroke: rgb(128, 128, 128); stroke-opacity: 0.15; stroke-width: 1px;"/></g></g><g class="zerolinelayer"><path class="yzl zl crisp" transform="translate(0,435)" d="M60,0h1025" style="stroke: rgb(128, 128, 128); stroke-opacity: 0.2; stroke-width: 1px;"/></g><g class="layer-between"><g class="shapelayer"/><g class="imagelayer"/></g><path class="xlines-below"/><path class="ylines-below"/><g class="overlines-below"/><g class="xaxislayer-below"/><g class="yaxislayer-below"/><g class="overaxes-below"/><g class="overplot"><g class="xy" transform="translate(60,50)" clip-path="url(#clipd04d57xyplot)"><g class="scatterlayer mlayer"><g class="trace scatter trace3a877c" style="stroke-miterlimit: 2; opacity: 1;"><g class="fills"/><g class="errorbars"/><g class="lines"><path class="js-line" d="M0,26.99L6.83,27.07L13.67,24.62L34.17,21.88L41,21.51L88.83,20.47L95.67,21.13L109.33,20.33L116.17,20.33L150.33,20.28L157.17,20.89L170.83,20.33L177.67,20.31L287,20.7L293.83,21.15L314.33,20.8L321.17,21.16L341.67,20.96L348.5,21.07L355.33,21.46L362.17,21.07L423.67,21.34L430.5,21.43L574,22.37L580.83,22.42L731.17,23.6L738,23.7L799.5,24.31L806.33,24.38L1018.17,27.5L1025,33.16" style="vector-effect: none; fill: none; stroke: rgb(124, 181, 236); stroke-opacity: 1; stroke-width: 2px; opacity: 1;"/></g><g class="points"/><g class="text"/></g><g class="trace scatter tracef9e646" style="stroke-miterlimit: 2; opacity: 1;"><g class="fills"/><g class="errorbars"/><g class="lines"><path class="js-line" d="M0,25.96L6.83,26.25L13.67,23.81L27.33,21.94L34.17,21.42L68.33,20.45L75.17,20.34L88.83,20.18L95.67,20.81L109.33,20.04L116.17,20.06L150.33,20.01L157.17,20.63L170.83,20.05L177.67,20.07L287,20.4L293.83,20.85L314.33,20.5L321.17,20.86L334.83,20.54L341.67,20.64L369,20.74L375.83,20.77L505.67,21.6L512.5,21.6L574,22.09L580.83,22.13L826.83,24.99L833.67,25.16L895.17,26.13L902,26.3L1018.17,28.59L1025,34.7" style="vector-effect: none; fill: none; stroke: rgb(67, 67, 72); stroke-opacity: 1; stroke-width: 2px; opacity: 1;"/></g><g class="points"/><g class="text"/></g><g class="trace scatter tracef589fc" style="stroke-miterlimit: 2; opacity: 1;"><g class="fills"/><g class="errorbars"/><g class="lines"><path class="js-line" d="M0,29.66L6.83,29.99L13.67,27L27.33,24.21L34.17,23.45L54.67,22.25L61.5,22.15L88.83,21.43L95.67,22.07L109.33,21.22L116.17,21.21L150.33,21.07L157.17,21.68L170.83,21.11L177.67,21.11L287,21.39L293.83,21.87L314.33,21.52L321.17,21.87L341.67,21.65L348.5,21.78L355.33,22.19L362.17,21.79L430.5,22.13L437.33,22.23L799.5,24.94L806.33,25.02L1018.17,27.78L1025,33.39" style="vector-effect: none; fill: none; stroke: rgb(144, 237, 125); stroke-opacity: 1; stroke-width: 2px; opacity: 1;"/></g><g class="points"/><g class="text"/></g><g class="trace scatter tracec80000" style="stroke-miterlimit: 2; opacity: 1;"><g class="fills"/><g class="errorbars"/><g class="lines"><path class="js-line" d="M0,29.37L6.83,29.64L13.67,26.84L27.33,24.04L34.17,23.25L61.5,21.93L68.33,21.7L88.83,21.24L95.67,21.86L109.33,21.03L116.17,21.02L150.33,20.89L157.17,21.5L170.83,20.94L177.67,20.92L287,21.24L293.83,21.7L314.33,21.35L321.17,21.72L334.83,21.38L341.67,21.49L369,21.6L375.83,21.62L464.67,22.19L471.5,22.14L621.83,23.29L628.67,23.34L874.67,25.87L881.5,26.21L902,26.2L908.83,26.27L1018.17,27.92L1025,33.63" style="vector-effect: none; fill: none; stroke: rgb(247, 163, 92); stroke-opacity: 1; stroke-width: 2px; opacity: 1;"/></g><g class="points"/><g class="text"/></g><g class="trace scatter trace5ab8e1" style="stroke-miterlimit: 2; opacity: 1;"><g class="fills"/><g class="errorbars"/><g class="lines"><path class="js-line" d="M0,29.33L6.83,29.32L13.67,26.65L27.33,23.88L34.17,23.11L54.67,21.92L61.5,21.8L88.83,21.13L95.67,21.74L109.33,20.92L116.17,20.91L150.33,20.82L157.17,21.4L170.83,20.83L177.67,20.83L287,21.17L293.83,21.6L314.33,21.35L321.17,21.67L334.83,21.32L341.67,21.4L362.17,21.61L369,21.52L731.17,24.34L738,24.44L806.33,25.2L813.17,25.31L1018.17,28.45L1025,34.37" style="vector-effect: none; fill: none; stroke: rgb(128, 133, 233); stroke-opacity: 1; stroke-width: 2px; opacity: 1;"/></g><g class="points"/><g class="text"/></g><g class="trace scatter tracec76862" style="stroke-miterlimit: 2; opacity: 1;"><g class="fills"/><g class="errorbars"/><g class="lines"><path class="js-line" d="M0,32.71L6.83,32.55L13.67,28.89L27.33,25.64L34.17,24.74L54.67,23.11L61.5,23.06L88.83,22.08L95.67,22.78L109.33,21.81L116.17,21.78L150.33,21.64L157.17,22.27L164,21.57L170.83,21.65L273.33,21.95L280.17,21.97L820,25.81L826.83,25.88L1018.17,28.17L1025,33.81" style="vector-effect: none; fill: none; stroke: rgb(241, 92, 128); stroke-opacity: 1; stroke-width: 2px; opacity: 1;"/></g><g class="points"/><g class="text"/></g><g class="trace scatter trace82bcd9" style="stroke-miterlimit: 2; opacity: 1;"><g class="fills"/><g class="errorbars"/><g class="lines"><path class="js-line" d="M0,27.99L6.83,28.08L13.67,25.4L27.33,23L34.17,22.38L61.5,21.34L68.33,21.14L88.83,20.75L95.67,21.39L109.33,20.59L116.17,20.58L150.33,20.51L157.17,21.11L170.83,20.56L177.67,20.57L273.33,20.88L280.17,20.87L396.33,21.48L403.17,21.42L498.83,22.11L505.67,22.17L560.33,22.63L567.17,23.09L580.83,22.67L587.67,22.72L970.33,26.86L977.17,27.2L1011.33,27.63L1018.17,27.66L1025,33.3" style="vector-effect: none; fill: none; stroke: rgb(228, 211, 84); stroke-opacity: 1; stroke-width: 2px; opacity: 1;"/></g><g class="points"/><g class="text"/></g><g class="trace scatter traceb22ac4" style="stroke-miterlimit: 2; opacity: 1;"><g class="fills"/><g class="errorbars"/><g class="lines"><path class="js-line" d="M0,26.47L6.83,26.54L13.67,24.13L27.33,22.08L34.17,21.53L68.33,20.54L75.17,20.4L88.83,20.23L95.67,20.88L109.33,20.1L116.17,20.1L150.33,20.06L157.17,20.67L170.83,20.11L177.67,20.12L287,20.45L293.83,20.92L314.33,20.58L321.17,20.94L341.67,20.7L348.5,20.85L355.33,21.25L362.17,20.86L430.5,21.2L437.33,21.31L847.33,24.83L854.17,24.97L922.5,25.87L929.33,26.06L970.33,26.65L977.17,26.98L1011.33,27.46L1018.17,27.53L1025,33.22" style="vector-effect: none; fill: none; stroke: rgb(43, 144, 143); stroke-opacity: 1; stroke-width: 2px; opacity: 1;"/></g><g class="points"/><g class="text"/></g><g class="trace scatter trace56cab9" style="stroke-miterlimit: 2; opacity: 1;"><g class="fills"/><g class="errorbars"/><g class="lines"><path class="js-line" d="M0,31.6L6.83,31.84L13.67,28.54L27.33,25.24L34.17,24.35L54.67,22.91L61.5,22.77L88.83,21.92L95.67,22.55L109.33,21.67L116.17,21.65L150.33,21.48L157.17,22.09L170.83,21.52L177.67,21.53L273.33,21.82L280.17,21.81L560.33,23.61L567.17,24.07L580.83,23.63L587.67,23.67L970.33,27.43L977.17,27.77L1018.17,28.15L1025,33.76" style="vector-effect: none; fill: none; stroke: rgb(244, 91, 91); stroke-opacity: 1; stroke-width: 2px; opacity: 1;"/></g><g class="points"/><g class="text"/></g><g class="trace scatter trace2259a2" style="stroke-miterlimit: 2; opacity: 1;"><g class="fills"/><g class="errorbars"/><g class="lines"><path class="js-line" d="M0,28.67L6.83,28.58L13.67,26.02L27.33,23.41L34.17,22.68L61.5,21.49L68.33,21.26L88.83,20.85L95.67,21.48L109.33,20.66L116.17,20.65L150.33,20.56L157.17,21.16L170.83,20.59L177.67,20.55L348.5,21.21L355.33,21.63L375.83,21.26L382.67,21.34L539.83,22.29L546.67,22.37L635.5,23.08L642.33,23.11L662.83,23.32L669.67,23.33L833.67,25.24L840.5,25.38L908.83,26.23L915.67,26.38L970.33,27.16L977.17,27.53L1018.17,28.04L1025,33.93" style="vector-effect: none; fill: none; stroke: rgb(145, 232, 225); stroke-opacity: 1; stroke-width: 2px; opacity: 1;"/></g><g class="points"/><g class="text"/></g><g class="trace scatter traceb208b8" style="stroke-miterlimit: 2; opacity: 1;"><g class="fills"/><g class="errorbars"/><g class="lines"><path class="js-line" d="M0,28.99L6.83,29.07L13.67,26.37L27.33,23.67L34.17,22.99L61.5,21.8L68.33,21.58L88.83,21.14L95.67,21.78L109.33,20.94L116.17,20.92L150.33,20.82L157.17,21.44L164,20.78L170.83,20.89L348.5,21.64L355.33,21.99L369,21.56L375.83,21.57L478.33,22.22L485.17,22.21L601.33,23.12L608.17,23.12L970.33,27.15L977.17,27.5L1018.17,27.97L1025,33.67" style="vector-effect: none; fill: none; stroke: rgb(124, 181, 236); stroke-opacity: 1; stroke-width: 2px; opacity: 1;"/></g><g class="points"/><g class="text"/></g><g class="trace scatter tracee103ca" style="stroke-miterlimit: 2; opacity: 1;"><g class="fills"/><g class="errorbars"/><g class="lines"><path class="js-line" d="M0,27.41L6.83,27.39L13.67,24.88L27.33,22.65L34.17,22.07L61.5,21.1L68.33,20.91L88.83,20.56L95.67,21.2L109.33,20.4L116.17,20.41L150.33,20.33L157.17,20.94L170.83,20.38L177.67,20.37L287,20.72L293.83,21.19L314.33,20.85L321.17,21.18L341.67,21L348.5,21.1L355.33,21.5L362.17,21.12L423.67,21.38L430.5,21.46L539.83,22.16L546.67,22.22L601.33,22.62L608.17,22.64L779,24.15L785.83,24.2L1018.17,27.58L1025,33.28" style="vector-effect: none; fill: none; stroke: rgb(67, 67, 72); stroke-opacity: 1; stroke-width: 2px; opacity: 1;"/></g><g class="points"/><g class="text"/></g><g class="trace scatter traceabe46b" style="stroke-miterlimit: 2; opacity: 1;"><g class="fills"/><g class="errorbars"/><g class="lines"><path class="js-line" d="M0,28.88L6.83,28.89L13.67,26.09L27.33,23.49L34.17,22.83L61.5,21.67L68.33,21.46L88.83,21.05L95.67,21.7L109.33,20.87L116.17,20.86L150.33,20.77L157.17,21.38L170.83,20.82L177.67,20.81L287,21.12L293.83,21.58L314.33,21.24L321.17,21.59L341.67,21.35L348.5,21.49L355.33,21.9L362.17,21.5L430.5,21.84L437.33,21.92L669.67,23.32L676.5,23.35L813.17,24.64L820,24.69L1018.17,27.01L1025,32.35" style="vector-effect: none; fill: none; stroke: rgb(144, 237, 125); stroke-opacity: 1; stroke-width: 2px; opacity: 1;"/></g><g class="points"/><g class="text"/></g><g class="trace scatter trace4db10e" style="stroke-miterlimit: 2; opacity: 1;"><g class="fills"/><g class="errorbars"/><g class="lines"><path class="js-line" d="M0,28.18L6.83,28.45L13.67,25.73L27.33,23.3L34.17,22.63L61.5,21.5L68.33,21.29L88.83,20.9L95.67,21.53L109.33,20.72L116.17,20.71L150.33,20.62L157.17,21.23L170.83,20.66L177.67,20.66L287,21.01L293.83,21.45L314.33,21.1L321.17,21.47L334.83,21.15L341.67,21.24L369,21.35L375.83,21.37L478.33,22L485.17,22.01L621.83,23.2L628.67,23.24L874.67,26.38L881.5,26.75L902,26.81L908.83,26.91L1018.17,28.9L1025,35.07" style="vector-effect: none; fill: none; stroke: rgb(247, 163, 92); stroke-opacity: 1; stroke-width: 2px; opacity: 1;"/></g><g class="points"/><g class="text"/></g><g class="trace scatter tracec67d7b" style="stroke-miterlimit: 2; opacity: 1;"><g class="fills"/><g class="errorbars"/><g class="lines"><path class="js-line" d="M0,27.24L6.83,27.4L13.67,24.91L27.33,22.64L34.17,22.05L61.5,21.09L68.33,20.9L88.83,20.56L95.67,21.2L109.33,20.4L116.17,20.4L150.33,20.33L157.17,20.95L170.83,20.38L177.67,20.38L287,20.74L293.83,21.2L314.33,20.84L321.17,21.2L341.67,20.98L348.5,21.11L355.33,21.51L362.17,21.11L430.5,21.46L437.33,21.56L847.33,25.05L854.17,25.17L949.83,26.39L956.67,26.66L1018.17,27.67L1025,33.36" style="vector-effect: none; fill: none; stroke: rgb(128, 133, 233); stroke-opacity: 1; stroke-width: 2px; opacity: 1;"/></g><g class="points"/><g class="text"/></g><g class="trace scatter trace313d14" style="stroke-miterlimit: 2; opacity: 1;"><g class="fills"/><g class="errorbars"/><g class="lines"><path class="js-line" d="M0,27.27L6.83,27.35L13.67,24.92L27.33,22.69L34.17,22.1L68.33,20.97L75.17,20.82L88.83,20.63L95.67,21.26L109.33,20.47L116.17,20.47L150.33,20.4L157.17,21.02L170.83,20.48L177.67,20.49L287,20.82L293.83,21.28L314.33,20.92L321.17,21.29L334.83,20.97L341.67,21.07L362.17,21.2L369,21.19L512.5,22.07L519.33,22.22L560.33,22.54L567.17,22.97L580.83,22.55L587.67,22.6L970.33,26.84L977.17,27.18L1011.33,27.65L1018.17,27.71L1025,33.3" style="vector-effect: none; fill: none; stroke: rgb(241, 92, 128); stroke-opacity: 1; stroke-width: 2px; opacity: 1;"/></g><g class="points"/><g class="text"/></g><g class="trace scatter tracec5790e" style="stroke-miterlimit: 2; opacity: 1;"><g class="fills"/><g class="errorbars"/><g class="lines"><path class="js-line" d="M0,27.98L6.83,27.68L13.67,25.4L27.33,23.06L34.17,22.38L61.5,21.3L68.33,21.08L88.83,20.71L95.67,21.34L109.33,20.54L116.17,20.55L150.33,20.47L157.17,21.06L170.83,20.5L177.67,20.47L287,20.81L293.83,21.3L314.33,21.01L321.17,21.27L341.67,21.09L348.5,21.19L355.33,21.61L362.17,21.23L423.67,21.5L430.5,21.58L580.83,22.6L587.67,22.66L1018.17,27.88L1025,33.55" style="vector-effect: none; fill: none; stroke: rgb(228, 211, 84); stroke-opacity: 1; stroke-width: 2px; opacity: 1;"/></g><g class="points"/><g class="text"/></g><g class="trace scatter trace765878" style="stroke-miterlimit: 2; opacity: 1;"><g class="fills"/><g class="errorbars"/><g class="lines"><path class="js-line" d="M0,28.88L6.83,28.49L13.67,26.05L27.33,23.56L34.17,22.87L61.5,21.73L68.33,21.5L88.83,21.11L95.67,21.74L109.33,20.91L116.17,20.93L150.33,20.83L157.17,21.42L170.83,20.87L177.67,20.86L287,21.21L293.83,21.67L314.33,21.43L321.17,21.63L341.67,21.44L348.5,21.6L355.33,22L362.17,21.6L423.67,21.85L430.5,21.95L505.67,22.44L512.5,22.44L601.33,23.17L608.17,23.16L1018.17,28.11L1025,33.79" style="vector-effect: none; fill: none; stroke: rgb(43, 144, 143); stroke-opacity: 1; stroke-width: 2px; opacity: 1;"/></g><g class="points"/><g class="text"/></g><g class="trace scatter trace5131ec" style="stroke-miterlimit: 2; opacity: 1;"><g class="fills"/><g class="errorbars"/><g class="lines"><path class="js-line" d="M0,28.46L6.83,28.15L13.67,25.82L27.33,23.44L34.17,22.72L61.5,21.6L68.33,21.36L88.83,20.99L95.67,21.6L109.33,20.8L116.17,20.81L150.33,20.71L157.17,21.3L170.83,20.75L177.67,20.74L287,21.07L293.83,21.53L314.33,21.28L321.17,21.48L341.67,21.31L348.5,21.46L362.17,21.45L369,21.41L799.5,25.1L806.33,25.22L1018.17,28.51L1025,34.41" style="vector-effect: none; fill: none; stroke: rgb(244, 91, 91); stroke-opacity: 1; stroke-width: 2px; opacity: 1;"/></g><g class="points"/><g class="text"/></g><g class="trace scatter traced3ef53" style="stroke-miterlimit: 2; opacity: 1;"><g class="fills"/><g class="errorbars"/><g class="lines"><path class="js-line" d="M0,30.4L6.83,30.25L13.67,27.33L27.33,24.4L34.17,23.57L54.67,22.28L61.5,22.18L88.83,21.44L95.67,22.07L109.33,21.22L116.17,21.22L150.33,21.11L157.17,21.69L170.83,21.14L177.67,21.11L287,21.48L293.83,21.94L314.33,21.69L321.17,21.92L341.67,21.75L348.5,21.9L355.33,22.28L362.17,21.89L423.67,22.16L430.5,22.28L567.17,23.72L574,23.28L867.83,26.15L874.67,26.26L895.17,26.51L902,26.6L1018.17,28.24L1025,33.94" style="vector-effect: none; fill: none; stroke: rgb(145, 232, 225); stroke-opacity: 1; stroke-width: 2px; opacity: 1;"/></g><g class="points"/><g class="text"/></g><g class="trace scatter trace5f7409" style="stroke-miterlimit: 2; opacity: 1;"><g class="fills"/><g class="errorbars"/><g class="lines"><path class="js-line" d="M0,28.89L6.83,28.9L13.67,26.18L27.33,23.56L34.17,22.83L61.5,21.66L68.33,21.44L88.83,21.02L95.67,21.66L109.33,20.84L116.17,20.84L150.33,20.74L157.17,21.35L170.83,20.81L177.67,20.8L266.5,20.96L273.33,21.24L287,21.17L293.83,21.61L314.33,21.39L321.17,21.56L341.67,21.38L348.5,21.57L355.33,21.95L362.17,21.54L430.5,21.89L437.33,22.04L560.33,22.88L567.17,23.31L580.83,22.89L587.67,22.92L738,24.18L744.83,24.17L1018.17,27.66L1025,33.16" style="vector-effect: none; fill: none; stroke: rgb(124, 181, 236); stroke-opacity: 1; stroke-width: 2px; opacity: 1;"/></g><g class="points"/><g class="text"/></g><g class="trace scatter trace090378" style="stroke-miterlimit: 2; opacity: 1;"><g class="fills"/><g class="errorbars"/><g class="lines"><path class="js-line" d="M0,29.16L6.83,29.01L13.67,26.37L27.33,23.78L34.17,23.07L61.5,21.84L68.33,21.59L88.83,21.18L95.67,21.8L109.33,20.99L116.17,20.98L150.33,20.91L157.17,21.45L170.83,20.9L177.67,20.89L287,21.21L293.83,21.68L314.33,21.51L321.17,21.68L334.83,21.37L341.67,21.43L362.17,21.65L369,21.55L806.33,24.79L813.17,24.89L1018.17,27.49L1025,32.97" style="vector-effect: none; fill: none; stroke: rgb(67, 67, 72); stroke-opacity: 1; stroke-width: 2px; opacity: 1;"/></g><g class="points"/><g class="text"/></g><g class="trace scatter tracefb5fdc" style="stroke-miterlimit: 2; opacity: 1;"><g class="fills"/><g class="errorbars"/><g class="lines"><path class="js-line" d="M0,27.51L6.83,27.28L13.67,25L27.33,22.78L34.17,22.17L68.33,21.02L75.17,20.85L88.83,20.67L95.67,21.31L109.33,20.52L116.17,20.53L150.33,20.46L157.17,21.06L164,20.42L170.83,20.54L287,20.91L293.83,21.34L314.33,21.13L321.17,21.28L341.67,21.13L348.5,21.33L362.17,21.26L369,21.24L867.83,25.4L874.67,25.52L888.33,25.64L895.17,25.77L1018.17,27.65L1025,33.14" style="vector-effect: none; fill: none; stroke: rgb(144, 237, 125); stroke-opacity: 1; stroke-width: 2px; opacity: 1;"/></g><g class="points"/><g class="text"/></g><g class="trace scatter trace62061e" style="stroke-miterlimit: 2; opacity: 1;"><g class="fills"/><g class="errorbars"/><g class="lines"><path class="js-line" d="M0,29.33L6.83,29.31L13.67,26.62L27.33,23.96L34.17,23.23L61.5,21.99L68.33,21.75L88.83,21.33L95.67,21.95L109.33,21.12L116.17,21.12L150.33,21.01L157.17,21.6L170.83,21.04L177.67,21.05L287,21.36L293.83,21.82L314.33,21.59L321.17,21.76L341.67,21.57L348.5,21.76L355.33,22.12L362.17,21.72L430.5,22.07L437.33,22.19L560.33,23L567.17,23.44L580.83,23.01L587.67,23.07L1018.17,27.7L1025,33.16" style="vector-effect: none; fill: none; stroke: rgb(247, 163, 92); stroke-opacity: 1; stroke-width: 2px; opacity: 1;"/></g><g class="points"/><g class="text"/></g><g class="trace scatter trace928c39" style="stroke-miterlimit: 2; opacity: 1;"><g class="fills"/><g class="errorbars"/><g class="lines"><path class="js-line" d="M0,28.31L6.83,28.19L13.67,25.58L27.33,23.18L34.17,22.5L61.5,21.42L68.33,21.21L88.83,20.82L95.67,21.46L109.33,20.65L116.17,20.67L150.33,20.58L157.17,21.17L170.83,20.65L177.67,20.65L266.5,20.84L273.33,21.1L287,21.03L293.83,21.48L314.33,21.26L321.17,21.44L341.67,21.28L348.5,21.46L355.33,21.82L362.17,21.4L430.5,21.77L437.33,21.91L560.33,22.79L567.17,23.23L580.83,22.8L587.67,22.84L1018.17,27.75L1025,33.29" style="vector-effect: none; fill: none; stroke: rgb(128, 133, 233); stroke-opacity: 1; stroke-width: 2px; opacity: 1;"/></g><g class="points"/><g class="text"/></g><g class="trace scatter trace0752eb" style="stroke-miterlimit: 2; opacity: 1;"><g class="fills"/><g class="errorbars"/><g class="lines"><path class="js-line" d="M0,28.33L6.83,28.19L13.67,25.65L27.33,23.28L34.17,22.61L61.5,21.52L68.33,21.3L88.83,20.92L95.67,21.55L109.33,20.75L116.17,20.75L150.33,20.67L157.17,21.27L170.83,20.71L177.67,20.73L266.5,20.9L273.33,21.17L287,21.1L293.83,21.55L314.33,21.34L321.17,21.5L341.67,21.32L348.5,21.54L362.17,21.47L369,21.46L847.33,25.45L854.17,25.58L970.33,27.18L977.17,27.48L1018.17,27.97L1025,33.6" style="vector-effect: none; fill: none; stroke: rgb(241, 92, 128); stroke-opacity: 1; stroke-width: 2px; opacity: 1;"/></g><g class="points"/><g class="text"/></g><g class="trace scatter trace8069ec" style="stroke-miterlimit: 2; opacity: 1;"><g class="fills"/><g class="errorbars"/><g class="lines"><path class="js-line" d="M0,29.31L6.83,28.59L13.67,25.68L27.33,23.42L34.17,22.78L54.67,21.59L61.5,21.62L88.83,20.91L95.67,21.6L102.5,20.79L109.33,20.74L287,21.21L293.83,21.66L307.5,21.24L314.33,21.55L334.83,21.42L341.67,21.46L362.17,21.61L369,21.61L874.67,26.18L881.5,26.53L902,26.58L908.83,26.64L1018.17,28.52L1025,34.37" style="vector-effect: none; fill: none; stroke: rgb(228, 211, 84); stroke-opacity: 1; stroke-width: 2px; opacity: 1;"/></g><g class="points"/><g class="text"/></g><g class="trace scatter traceb62793" style="stroke-miterlimit: 2; opacity: 1;"><g class="fills"/><g class="errorbars"/><g class="lines"><path class="js-line" d="M0,31.7L6.83,31.54L13.67,28.57L27.33,25.28L34.17,24.33L54.67,22.85L61.5,22.73L88.83,21.88L95.67,22.51L109.33,21.63L116.17,21.62L150.33,21.46L157.17,22.05L164,21.39L170.83,21.5L266.5,21.63L273.33,21.83L287,21.8L293.83,22.25L314.33,22.02L321.17,22.21L341.67,22.04L348.5,22.21L362.17,22.19L369,22.15L970.33,27.56L977.17,27.89L1018.17,28.27L1025,33.91" style="vector-effect: none; fill: none; stroke: rgb(43, 144, 143); stroke-opacity: 1; stroke-width: 2px; opacity: 1;"/></g><g class="points"/><g class="text"/></g><g class="trace scatter trace0036e7" style="stroke-miterlimit: 2; opacity: 1;"><g class="fills"/><g class="errorbars"/><g class="lines"><path class="js-line" d="M0,27.87L6.83,27.62L13.67,25.27L27.33,22.99L34.17,22.31L61.5,21.26L68.33,21.05L88.83,20.68L95.67,21.32L109.33,20.52L116.17,20.53L150.33,20.45L157.17,21.04L170.83,20.49L177.67,20.49L287,20.82L293.83,21.28L314.33,21.04L321.17,21.24L341.67,21.04L348.5,21.2L355.33,21.6L362.17,21.2L430.5,21.55L437.33,21.65L765.33,24.13L772.17,24.23L1018.17,27.59L1025,33.14" style="vector-effect: none; fill: none; stroke: rgb(244, 91, 91); stroke-opacity: 1; stroke-width: 2px; opacity: 1;"/></g><g class="points"/><g class="text"/></g><g class="trace scatter tracea1b2d3" style="stroke-miterlimit: 2; opacity: 1;"><g class="fills"/><g class="errorbars"/><g class="lines"><path class="js-line" d="M0,29.12L6.83,28.8L13.67,26.37L27.33,23.71L34.17,22.98L61.5,21.78L68.33,21.54L88.83,21.11L95.67,21.75L109.33,20.92L116.17,20.92L150.33,20.82L157.17,21.41L164,20.76L170.83,20.87L348.5,21.64L355.33,21.97L369,21.55L375.83,21.58L519.33,22.64L526.17,22.54L601.33,23.21L608.17,23.21L970.33,27.6L977.17,27.94L1018.17,28.47L1025,34.25" style="vector-effect: none; fill: none; stroke: rgb(145, 232, 225); stroke-opacity: 1; stroke-width: 2px; opacity: 1;"/></g><g class="points"/><g class="text"/></g><g class="trace scatter trace83b5c6" style="stroke-miterlimit: 2; opacity: 1;"><g class="fills"/><g class="errorbars"/><g class="lines"><path class="js-line" d="M0,31.46L6.83,31L13.67,28.15L27.33,24.98L34.17,24.07L54.67,22.64L61.5,22.52L88.83,21.72L95.67,22.36L109.33,21.49L116.17,21.47L150.33,21.34L157.17,21.91L170.83,21.34L177.67,21.31L287,21.64L293.83,22.1L314.33,21.81L321.17,22.08L341.67,21.88L348.5,22L355.33,22.41L362.17,22.04L416.83,22.28L423.67,22.3L519.33,22.96L526.17,22.99L649.17,24.15L656,23.96L731.17,24.67L738,24.76L799.5,25.37L806.33,25.45L936.17,26.98L943,27.06L1018.17,28.18L1025,33.83" style="vector-effect: none; fill: none; stroke: rgb(124, 181, 236); stroke-opacity: 1; stroke-width: 2px; opacity: 1;"/></g><g class="points"/><g class="text"/></g><g class="trace scatter trace5044ac" style="stroke-miterlimit: 2; opacity: 1;"><g class="fills"/><g class="errorbars"/><g class="lines"><path class="js-line" d="M0,26.67L6.83,26.55L13.67,24.29L34.17,21.74L41,21.4L88.83,20.41L95.67,21.04L109.33,20.26L116.17,20.28L150.33,20.23L157.17,20.82L170.83,20.3L177.67,20.31L287,20.7L293.83,21.14L314.33,20.93L321.17,21.07L341.67,20.89L348.5,21.1L355.33,21.46L362.17,21.03L437.33,21.52L444.17,21.55L492,21.73L498.83,21.84L621.83,22.76L628.67,22.78L861,25.14L867.83,25.25L1018.17,27.53L1025,33.09" style="vector-effect: none; fill: none; stroke: rgb(67, 67, 72); stroke-opacity: 1; stroke-width: 2px; opacity: 1;"/></g><g class="points"/><g class="text"/></g><g class="trace scatter trace5992be" style="stroke-miterlimit: 2; opacity: 1;"><g class="fills"/><g class="errorbars"/><g class="lines"><path class="js-line" d="M0,27.81L6.83,27.63L13.67,25.12L27.33,22.83L34.17,22.21L61.5,21.2L68.33,21.02L88.83,20.69L95.67,21.33L109.33,20.55L116.17,20.57L150.33,20.51L157.17,21.12L170.83,20.57L177.67,20.59L287,21.08L293.83,21.51L314.33,21.18L321.17,21.44L341.67,21.28L348.5,21.55L355.33,21.92L362.17,21.45L560.33,23.01L567.17,23.46L580.83,23.02L587.67,23.04L922.5,27.22L929.33,27.42L970.33,28.16L977.17,28.49L1018.17,29.22L1025,35.17" style="vector-effect: none; fill: none; stroke: rgb(144, 237, 125); stroke-opacity: 1; stroke-width: 2px; opacity: 1;"/></g><g class="points"/><g class="text"/></g><g class="trace scatter trace92ec5c" style="stroke-miterlimit: 2; opacity: 1;"><g class="fills"/><g class="errorbars"/><g class="lines"><path class="js-line" d="M0,25.66L6.83,25.41L13.67,23.35L27.33,21.54L34.17,21.08L68.33,20.22L75.17,20.11L88.83,19.98L95.67,20.62L109.33,19.89L116.17,19.91L150.33,19.89L157.17,20.49L170.83,19.93L177.67,19.93L287,20.39L293.83,20.81L314.33,20.5L321.17,20.8L341.67,20.61L348.5,20.79L355.33,21.19L362.17,20.77L457.83,21.31L464.67,21.38L519.33,21.8L526.17,21.82L799.5,24.57L806.33,24.66L1018.17,28.91L1025,34.94" style="vector-effect: none; fill: none; stroke: rgb(247, 163, 92); stroke-opacity: 1; stroke-width: 2px; opacity: 1;"/></g><g class="points"/><g class="text"/></g><g class="trace scatter trace69b8e8" style="stroke-miterlimit: 2; opacity: 1;"><g class="fills"/><g class="errorbars"/><g class="lines"><path class="js-line" d="M0,28.33L6.83,28.05L13.67,25.47L27.33,23.09L34.17,22.48L54.67,21.45L61.5,21.4L88.83,20.86L95.67,21.49L109.33,20.72L116.17,20.73L150.33,20.71L157.17,21.25L170.83,20.71L177.67,20.69L348.5,21.59L355.33,21.93L375.83,21.52L382.67,21.67L423.67,21.78L430.5,22.01L546.67,22.69L553.5,22.83L847.33,25.88L854.17,26.03L956.67,27.82L963.5,27.97L1018.17,29.05L1025,35.04" style="vector-effect: none; fill: none; stroke: rgb(128, 133, 233); stroke-opacity: 1; stroke-width: 2px; opacity: 1;"/></g><g class="points"/><g class="text"/></g><g class="trace scatter tracef9b540" style="stroke-miterlimit: 2; opacity: 1;"><g class="fills"/><g class="errorbars"/><g class="lines"><path class="js-line" d="M0,29.4L6.83,29.27L13.67,26.54L27.33,23.77L34.17,23.07L54.67,21.9L61.5,21.85L88.83,21.23L95.67,21.85L109.33,21.05L116.17,21.07L150.33,20.97L157.17,21.57L170.83,21.02L177.67,21.05L252.83,21.21L259.67,21.24L300.67,21.68L307.5,21.46L355.33,22.31L362.17,21.84L806.33,25.62L813.17,25.76L949.83,27.95L956.67,28.26L1018.17,29.53L1025,35.53" style="vector-effect: none; fill: none; stroke: rgb(241, 92, 128); stroke-opacity: 1; stroke-width: 2px; opacity: 1;"/></g><g class="points"/><g class="text"/></g><g class="trace scatter traceae23e5" style="stroke-miterlimit: 2; opacity: 1;"><g class="fills"/><g class="errorbars"/><g class="lines"><path class="js-line" d="M0,27.06L6.83,26.88L13.67,24.5L27.33,22.41L34.17,21.86L61.5,20.96L68.33,20.8L88.83,20.5L95.67,21.13L109.33,20.37L116.17,20.4L150.33,20.34L157.17,20.94L170.83,20.39L177.67,20.4L287,20.83L293.83,21.25L314.33,20.93L321.17,21.22L341.67,21.03L348.5,21.24L355.33,21.63L362.17,21.19L546.67,22.41L553.5,22.56L826.83,25.43L833.67,25.57L943,27.5L949.83,27.54L990.83,28.59L997.67,28.81L1018.17,29.14L1025,35.19" style="vector-effect: none; fill: none; stroke: rgb(228, 211, 84); stroke-opacity: 1; stroke-width: 2px; opacity: 1;"/></g><g class="points"/><g class="text"/></g><g class="trace scatter trace89907c" style="stroke-miterlimit: 2; opacity: 1;"><g class="fills"/><g class="errorbars"/><g class="lines"><path class="js-line" d="M0,28.84L6.83,28.48L13.67,25.91L27.33,23.41L34.17,22.76L61.5,21.62L68.33,21.44L88.83,21.07L95.67,21.69L109.33,20.9L116.17,20.92L150.33,20.85L157.17,21.43L170.83,20.87L177.67,20.89L287,21.34L293.83,21.74L314.33,21.43L321.17,21.71L341.67,21.51L348.5,21.77L355.33,22.15L362.17,21.69L560.33,23.15L567.17,23.58L580.83,23.16L587.67,23.2L970.33,28.11L977.17,28.41L1011.33,29.02L1018.17,29.1L1025,35.03" style="vector-effect: none; fill: none; stroke: rgb(43, 144, 143); stroke-opacity: 1; stroke-width: 2px; opacity: 1;"/></g><g class="points"/><g class="text"/></g><g class="trace scatter trace18eaac" style="stroke-miterlimit: 2; opacity: 1;"><g class="fills"/><g class="errorbars"/><g class="lines"><path class="js-line" d="M0,28.57L6.83,28.39L13.67,25.8L27.33,23.38L34.17,22.7L54.67,21.65L61.5,21.6L88.83,21.04L95.67,21.66L109.33,20.88L116.17,20.89L150.33,20.81L157.17,21.41L170.83,20.85L177.67,20.87L287,21.31L293.83,21.73L314.33,21.41L321.17,21.69L341.67,21.5L348.5,21.75L355.33,22.13L362.17,21.67L560.33,23.15L567.17,23.59L580.83,23.18L587.67,23.22L874.67,26.73L881.5,27.09L902,27.18L908.83,27.27L1018.17,29.5L1025,35.59" style="vector-effect: none; fill: none; stroke: rgb(244, 91, 91); stroke-opacity: 1; stroke-width: 2px; opacity: 1;"/></g><g class="points"/><g class="text"/></g><g class="trace scatter tracebb7178" style="stroke-miterlimit: 2; opacity: 1;"><g class="fills"/><g class="errorbars"/><g class="lines"><path class="js-line" d="M0,27.49L6.83,27.36L13.67,25L27.33,22.78L34.17,22.15L61.5,21.16L68.33,20.97L88.83,20.65L95.67,21.28L109.33,20.51L116.17,20.53L150.33,20.45L157.17,21.05L170.83,20.49L177.67,20.51L287,20.96L293.83,21.36L314.33,21.04L321.17,21.31L341.67,21.12L348.5,21.37L355.33,21.75L362.17,21.28L560.33,22.76L567.17,23.19L580.83,22.76L587.67,22.78L874.67,26.26L881.5,26.62L902,26.73L908.83,26.82L1018.17,29.02L1025,35.04" style="vector-effect: none; fill: none; stroke: rgb(145, 232, 225); stroke-opacity: 1; stroke-width: 2px; opacity: 1;"/></g><g class="points"/><g class="text"/></g><g class="trace scatter trace972d1f" style="stroke-miterlimit: 2; opacity: 1;"><g class="fills"/><g class="errorbars"/><g class="lines"><path class="js-line" d="M0,27.86L6.83,27.47L13.67,25.03L27.33,22.79L34.17,22.18L61.5,21.2L68.33,21.01L88.83,20.69L95.67,21.33L109.33,20.55L116.17,20.57L150.33,20.5L157.17,21.09L170.83,20.54L177.67,20.6L259.67,20.79L266.5,20.94L287,21.04L293.83,21.43L314.33,21.12L321.17,21.37L341.67,21.18L348.5,21.47L355.33,21.84L362.17,21.36L847.33,25.78L854.17,25.93L949.83,27.4L956.67,27.66L1018.17,28.88L1025,34.76" style="vector-effect: none; fill: none; stroke: rgb(124, 181, 236); stroke-opacity: 1; stroke-width: 2px; opacity: 1;"/></g><g class="points"/><g class="text"/></g><g class="trace scatter trace16990b" style="stroke-miterlimit: 2; opacity: 1;"><g class="fills"/><g class="errorbars"/><g class="lines"><path class="js-line" d="M0,30.71L6.83,30.44L13.67,27.56L27.33,24.53L34.17,23.73L54.67,22.41L61.5,22.33L88.83,21.63L95.67,22.25L109.33,21.43L116.17,21.43L150.33,21.31L157.17,21.9L170.83,21.36L177.67,21.37L259.67,21.57L266.5,21.67L314.33,21.87L321.17,22.14L341.67,21.97L348.5,22.23L355.33,22.59L362.17,22.14L560.33,23.57L567.17,24.02L580.83,23.56L587.67,23.61L949.83,27.6L956.67,27.89L1018.17,28.97L1025,34.73" style="vector-effect: none; fill: none; stroke: rgb(67, 67, 72); stroke-opacity: 1; stroke-width: 2px; opacity: 1;"/></g><g class="points"/><g class="text"/></g><g class="trace scatter tracefee7cd" style="stroke-miterlimit: 2; opacity: 1;"><g class="fills"/><g class="errorbars"/><g class="lines"><path class="js-line" d="M0,30.26L6.83,29.75L13.67,26.64L27.33,24.09L34.17,23.38L54.67,22.05L61.5,22.04L88.83,21.3L95.67,21.97L109.33,21.12L116.17,21.13L150.33,21.06L157.17,21.67L170.83,21.06L177.67,21.05L280.17,21.42L287,21.57L300.67,21.8L307.5,21.63L334.83,21.81L341.67,21.84L362.17,22.01L369,22.05L560.33,23.5L567.17,23.95L580.83,23.52L587.67,23.58L874.67,27.03L881.5,27.4L902,27.51L908.83,27.58L1018.17,29.82L1025,36.05" style="vector-effect: none; fill: none; stroke: rgb(144, 237, 125); stroke-opacity: 1; stroke-width: 2px; opacity: 1;"/></g><g class="points"/><g class="text"/></g><g class="trace scatter traceb03c51" style="stroke-miterlimit: 2; opacity: 1;"><g class="fills"/><g class="errorbars"/><g class="lines"><path class="js-line" d="M0,26.72L6.83,26.37L13.67,24.13L27.33,22.17L34.17,21.65L61.5,20.79L68.33,20.63L88.83,20.36L95.67,20.98L109.33,20.24L116.17,20.26L150.33,20.21L157.17,20.81L170.83,20.25L177.67,20.24L287,20.67L293.83,21.12L314.33,20.79L321.17,21.08L341.67,20.91L348.5,21.06L355.33,21.47L362.17,21.06L471.5,21.63L478.33,21.72L560.33,22.46L567.17,22.93L580.83,22.53L587.67,22.57L867.83,26.02L874.67,26.17L888.33,26.35L895.17,26.51L1018.17,29.08L1025,35.16" style="vector-effect: none; fill: none; stroke: rgb(247, 163, 92); stroke-opacity: 1; stroke-width: 2px; opacity: 1;"/></g><g class="points"/><g class="text"/></g><g class="trace scatter trace45b42e" style="stroke-miterlimit: 2; opacity: 1;"><g class="fills"/><g class="errorbars"/><g class="lines"><path class="js-line" d="M0,29.85L6.83,29.74L13.67,27.03L27.33,24.19L34.17,23.4L54.67,22.14L61.5,22.05L88.83,21.38L95.67,21.99L109.33,21.18L116.17,21.19L150.33,21.07L157.17,21.66L170.83,21.1L177.67,21.08L287,21.47L293.83,21.91L314.33,21.58L321.17,21.87L341.67,21.67L348.5,21.86L355.33,22.26L362.17,21.84L457.83,22.37L464.67,22.44L512.5,22.72L519.33,22.84L560.33,23.22L567.17,23.68L580.83,23.28L587.67,23.3L970.33,28.28L977.17,28.61L1011.33,29.2L1018.17,29.23L1025,35.24" style="vector-effect: none; fill: none; stroke: rgb(128, 133, 233); stroke-opacity: 1; stroke-width: 2px; opacity: 1;"/></g><g class="points"/><g class="text"/></g><g class="trace scatter trace601c4f" style="stroke-miterlimit: 2; opacity: 1;"><g class="fills"/><g class="errorbars"/><g class="lines"><path class="js-line" d="M0,26.46L6.83,26.25L13.67,24L27.33,22.03L34.17,21.5L61.5,20.67L68.33,20.52L88.83,20.23L95.67,20.87L109.33,20.13L116.17,20.15L150.33,20.11L157.17,20.71L170.83,20.16L177.67,20.15L287,20.59L293.83,21L314.33,20.69L321.17,20.97L341.67,20.77L348.5,20.97L355.33,21.38L362.17,20.92L553.5,22.18L560.33,22.23L567.17,22.67L574,22.21L765.33,23.78L772.17,23.86L1018.17,27.74L1025,33.35" style="vector-effect: none; fill: none; stroke: rgb(241, 92, 128); stroke-opacity: 1; stroke-width: 2px; opacity: 1;"/></g><g class="points"/><g class="text"/></g><g class="trace scatter trace03309d" style="stroke-miterlimit: 2; opacity: 1;"><g class="fills"/><g class="errorbars"/><g class="lines"><path class="js-line" d="M0,30.12L6.83,29.75L13.67,27.05L27.33,24.22L34.17,23.42L54.67,22.16L61.5,22.07L88.83,21.4L95.67,22.02L109.33,21.21L116.17,21.22L150.33,21.1L157.17,21.68L170.83,21.12L177.67,21.1L287,21.49L293.83,21.93L314.33,21.61L321.17,21.9L341.67,21.69L348.5,21.87L355.33,22.27L362.17,21.86L492,22.59L498.83,22.65L662.83,23.9L669.67,23.9L806.33,25.39L813.17,25.53L970.33,27.87L977.17,28.18L1011.33,28.72L1018.17,28.76L1025,34.57" style="vector-effect: none; fill: none; stroke: rgb(228, 211, 84); stroke-opacity: 1; stroke-width: 2px; opacity: 1;"/></g><g class="points"/><g class="text"/></g><g class="trace scatter trace0c1fd8" style="stroke-miterlimit: 2; opacity: 1;"><g class="fills"/><g class="errorbars"/><g class="lines"><path class="js-line" d="M0,32.13L6.83,31.91L13.67,28.95L27.33,25.59L34.17,24.6L54.67,23.02L61.5,22.87L88.83,22.04L95.67,22.65L109.33,21.79L116.17,21.79L150.33,21.61L157.17,22.19L170.83,21.6L177.67,21.57L287,21.91L293.83,22.37L314.33,22.04L321.17,22.35L341.67,22.16L348.5,22.26L355.33,22.69L362.17,22.3L430.5,22.68L437.33,22.76L792.67,25.95L799.5,26.07L970.33,28.65L977.17,28.97L1018.17,29.53L1025,35.6" style="vector-effect: none; fill: none; stroke: rgb(43, 144, 143); stroke-opacity: 1; stroke-width: 2px; opacity: 1;"/></g><g class="points"/><g class="text"/></g><g class="trace scatter trace362ae5" style="stroke-miterlimit: 2; opacity: 1;"><g class="fills"/><g class="errorbars"/><g class="lines"><path class="js-line" d="M0,27.15L6.83,26.91L13.67,24.41L34.17,21.71L41,21.37L88.83,20.36L95.67,21.02L109.33,20.24L116.17,20.23L287,20.62L293.83,21.14L314.33,20.77L321.17,21.18L334.83,20.81L341.67,20.91L382.67,21.17L389.5,21.19L560.33,22.45L567.17,22.94L580.83,22.53L587.67,22.58L731.17,23.94L738,24.03L806.33,24.82L813.17,24.94L1018.17,28L1025,33.67" style="vector-effect: none; fill: none; stroke: rgb(244, 91, 91); stroke-opacity: 1; stroke-width: 2px; opacity: 1;"/></g><g class="points"/><g class="text"/></g><g class="trace scatter trace5cd25e" style="stroke-miterlimit: 2; opacity: 1;"><g class="fills"/><g class="errorbars"/><g class="lines"><path class="js-line" d="M0,25.56L6.83,25.44L13.67,23.21L34.17,20.91L41,20.64L88.83,19.85L95.67,20.5L109.33,19.75L116.17,19.76L150.33,19.78L157.17,20.39L170.83,19.81L177.67,19.81L287,20.18L293.83,20.68L314.33,20.34L321.17,20.73L334.83,20.39L341.67,20.49L396.33,20.79L403.17,20.8L553.5,22.07L560.33,22.12L567.17,22.63L574,22.2L826.83,25.45L833.67,25.59L915.67,27.03L922.5,27.12L997.67,28.75L1004.5,28.64L1018.17,29.05L1025,35.26" style="vector-effect: none; fill: none; stroke: rgb(145, 232, 225); stroke-opacity: 1; stroke-width: 2px; opacity: 1;"/></g><g class="points"/><g class="text"/></g><g class="trace scatter trace6e7780" style="stroke-miterlimit: 2; opacity: 1;"><g class="fills"/><g class="errorbars"/><g class="lines"><path class="js-line" d="M0,26.74L6.83,26.58L13.67,24.19L34.17,21.66L41,21.35L88.83,20.39L95.67,21.05L109.33,20.27L116.17,20.27L287,20.66L293.83,21.18L314.33,20.81L321.17,21.24L334.83,20.86L341.67,20.95L369,21.09L375.83,21.13L533,22.25L539.83,22.28L621.83,22.99L628.67,23.05L977.17,27.93L984,28.13L1011.33,28.41L1018.17,28.49L1025,34.34" style="vector-effect: none; fill: none; stroke: rgb(124, 181, 236); stroke-opacity: 1; stroke-width: 2px; opacity: 1;"/></g><g class="points"/><g class="text"/></g><g class="trace scatter traceaca88a" style="stroke-miterlimit: 2; opacity: 1;"><g class="fills"/><g class="errorbars"/><g class="lines"><path class="js-line" d="M0,29.55L6.83,29.29L13.67,26.51L34.17,23.03L41,22.56L82,21.25L88.83,21.18L95.67,21.83L102.5,21.05L150.33,20.94L157.17,21.55L170.83,20.95L177.67,20.95L280.17,21.21L287,21.27L293.83,21.78L300.67,21.48L314.33,21.41L321.17,21.82L334.83,21.44L341.67,21.56L382.67,21.79L389.5,21.81L560.33,23.02L567.17,23.52L580.83,23.12L587.67,23.18L840.5,25.82L847.33,25.83L943,27.05L949.83,27.1L984,28L990.83,27.87L1018.17,28.25L1025,33.9" style="vector-effect: none; fill: none; stroke: rgb(67, 67, 72); stroke-opacity: 1; stroke-width: 2px; opacity: 1;"/></g><g class="points"/><g class="text"/></g><g class="trace scatter trace3de773" style="stroke-miterlimit: 2; opacity: 1;"><g class="fills"/><g class="errorbars"/><g class="lines"><path class="js-line" d="M0,25.76L6.83,25.61L13.67,23.39L34.17,21.1L41,20.84L88.83,20.02L95.67,20.67L109.33,19.92L116.17,19.92L287,20.33L293.83,20.86L314.33,20.47L321.17,20.92L334.83,20.54L341.67,20.61L369,20.75L375.83,20.78L526.17,21.79L533,21.86L799.5,24.56L806.33,24.65L997.67,28.05L1004.5,27.95L1018.17,28.35L1025,34.18" style="vector-effect: none; fill: none; stroke: rgb(144, 237, 125); stroke-opacity: 1; stroke-width: 2px; opacity: 1;"/></g><g class="points"/><g class="text"/></g><g class="trace scatter trace93fa0a" style="stroke-miterlimit: 2; opacity: 1;"><g class="fills"/><g class="errorbars"/><g class="lines"><path class="js-line" d="M0,27.5L6.83,27.28L13.67,24.88L34.17,22.08L41,21.69L88.83,20.6L95.67,21.26L109.33,20.46L116.17,20.45L287,20.83L293.83,21.35L314.33,20.97L321.17,21.43L334.83,21.02L341.67,21.11L369,21.24L375.83,21.28L464.67,21.88L471.5,21.87L669.67,23.47L676.5,23.52L1018.17,28.19L1025,33.87" style="vector-effect: none; fill: none; stroke: rgb(247, 163, 92); stroke-opacity: 1; stroke-width: 2px; opacity: 1;"/></g><g class="points"/><g class="text"/></g><g class="trace scatter trace919032" style="stroke-miterlimit: 2; opacity: 1;"><g class="fills"/><g class="errorbars"/><g class="lines"><path class="js-line" d="M0,27.09L6.83,26.98L13.67,24.52L34.17,21.82L41,21.49L88.83,20.48L95.67,21.14L109.33,20.36L116.17,20.35L287,20.74L293.83,21.28L314.33,20.9L321.17,21.35L334.83,20.94L341.67,21.04L369,21.16L375.83,21.2L492,21.99L498.83,22.04L635.5,23.15L642.33,23.17L662.83,23.4L669.67,23.39L874.67,25.91L881.5,26.25L902,26.31L908.83,26.37L1018.17,28.22L1025,33.87" style="vector-effect: none; fill: none; stroke: rgb(128, 133, 233); stroke-opacity: 1; stroke-width: 2px; opacity: 1;"/></g><g class="points"/><g class="text"/></g><g class="trace scatter trace7b9f98" style="stroke-miterlimit: 2; opacity: 1;"><g class="fills"/><g class="errorbars"/><g class="lines"><path class="js-line" d="M0,28.21L6.83,28.05L13.67,25.51L34.17,22.35L41,21.94L82,20.77L88.83,20.71L95.67,21.36L102.5,20.59L150.33,20.5L157.17,21.11L170.83,20.52L177.67,20.53L259.67,20.73L266.5,20.77L348.5,21.24L355.33,21.67L369,21.25L375.83,21.29L478.33,21.94L485.17,21.96L615,23.03L621.83,23.08L820,25.27L826.83,25.33L1018.17,28.26L1025,34.09" style="vector-effect: none; fill: none; stroke: rgb(241, 92, 128); stroke-opacity: 1; stroke-width: 2px; opacity: 1;"/></g><g class="points"/><g class="text"/></g><g class="trace scatter trace722ca8" style="stroke-miterlimit: 2; opacity: 1;"><g class="fills"/><g class="errorbars"/><g class="lines"><path class="js-line" d="M0,31.31L6.83,31.2L13.67,28.17L27.33,25.05L34.17,24.11L54.67,22.74L61.5,22.64L88.83,21.77L95.67,22.39L109.33,21.54L116.17,21.51L239.17,21.49L246,21.58L287,21.7L293.83,22.23L314.33,21.87L321.17,22.28L334.83,21.89L341.67,22.02L375.83,22.18L382.67,22.28L539.83,23.43L546.67,23.52L587.67,23.85L594.5,23.95L1018.17,29.51L1025,35.51" style="vector-effect: none; fill: none; stroke: rgb(228, 211, 84); stroke-opacity: 1; stroke-width: 2px; opacity: 1;"/></g><g class="points"/><g class="text"/></g><g class="trace scatter traceefe794" style="stroke-miterlimit: 2; opacity: 1;"><g class="fills"/><g class="errorbars"/><g class="lines"><path class="js-line" d="M0,27.8L6.83,27.55L13.67,25.07L34.17,22.15L41,21.75L88.83,20.61L95.67,21.27L109.33,20.47L116.17,20.46L273.33,20.72L280.17,20.75L560.33,22.51L567.17,22.99L580.83,22.6L587.67,22.64L758.5,24.19L765.33,24.21L1018.17,27.66L1025,33.2" style="vector-effect: none; fill: none; stroke: rgb(43, 144, 143); stroke-opacity: 1; stroke-width: 2px; opacity: 1;"/></g><g class="points"/><g class="text"/></g><g class="trace scatter traced73f4e" style="stroke-miterlimit: 2; opacity: 1;"><g class="fills"/><g class="errorbars"/><g class="lines"><path class="js-line" d="M0,26.32L6.83,26.16L13.67,23.9L34.17,21.42L41,21.1L88.83,20.17L95.67,20.83L109.33,20.06L116.17,20.06L273.33,20.33L280.17,20.36L396.33,20.96L403.17,20.95L519.33,21.74L526.17,21.78L635.5,22.67L642.33,22.71L662.83,22.93L669.67,22.93L867.83,25.35L874.67,25.49L888.33,25.65L895.17,25.77L1018.17,27.76L1025,33.49" style="vector-effect: none; fill: none; stroke: rgb(244, 91, 91); stroke-opacity: 1; stroke-width: 2px; opacity: 1;"/></g><g class="points"/><g class="text"/></g><g class="trace scatter trace0dd53a" style="stroke-miterlimit: 2; opacity: 1;"><g class="fills"/><g class="errorbars"/><g class="lines"><path class="js-line" d="M0,27.11L6.83,26.91L13.67,24.51L27.33,22.37L34.17,21.76L61.5,20.9L68.33,20.72L88.83,20.35L95.67,21L109.33,20.23L116.17,20.23L150.33,20.21L157.17,20.81L170.83,20.24L177.67,20.24L273.33,20.52L280.17,20.55L362.17,21.07L369,21.02L826.83,25.52L833.67,25.63L943,27.38L949.83,27.43L990.83,28.38L997.67,28.59L1018.17,28.88L1025,34.95" style="vector-effect: none; fill: none; stroke: rgb(145, 232, 225); stroke-opacity: 1; stroke-width: 2px; opacity: 1;"/></g><g class="points"/><g class="text"/></g><g class="trace scatter tracef48c08" style="stroke-miterlimit: 2; opacity: 1;"><g class="fills"/><g class="errorbars"/><g class="lines"><path class="js-line" d="M0,28.08L6.83,28.27L13.67,25.36L34.17,22.29L41,21.9L82,20.78L88.83,20.71L95.67,21.37L102.5,20.62L150.33,20.56L157.17,21.17L170.83,20.61L177.67,20.77L218.67,20.68L225.5,20.9L259.67,20.89L266.5,21.04L287,21.07L293.83,21.68L307.5,21.12L314.33,21.2L321.17,21.89L328,21.29L464.67,22.4L471.5,22.28L519.33,23.04L526.17,22.86L649.17,24.28L656,24.1L765.33,25.28L772.17,25.38L1018.17,29.54L1025,35.69" style="vector-effect: none; fill: none; stroke: rgb(124, 181, 236); stroke-opacity: 1; stroke-width: 2px; opacity: 1;"/></g><g class="points"/><g class="text"/></g><g class="trace scatter trace5e43fa" style="stroke-miterlimit: 2; opacity: 1;"><g class="fills"/><g class="errorbars"/><g class="lines"><path class="js-line" d="M0,25.79L6.83,25.53L13.67,23.33L34.17,21.1L41,20.8L88.83,19.98L95.67,20.64L109.33,19.88L116.17,19.88L287,20.32L293.83,20.77L314.33,20.47L321.17,20.82L334.83,20.46L341.67,20.55L389.5,20.79L396.33,20.83L731.17,23.47L738,23.58L799.5,24.27L806.33,24.35L902,25.72L908.83,25.79L1018.17,27.58L1025,33.21" style="vector-effect: none; fill: none; stroke: rgb(67, 67, 72); stroke-opacity: 1; stroke-width: 2px; opacity: 1;"/></g><g class="points"/><g class="text"/></g><g class="trace scatter traceb354db" style="stroke-miterlimit: 2; opacity: 1;"><g class="fills"/><g class="errorbars"/><g class="lines"><path class="js-line" d="M0,31.25L6.83,31.25L13.67,28.15L27.33,24.91L34.17,24.01L54.67,22.68L61.5,22.6L88.83,21.75L95.67,22.37L109.33,21.52L116.17,21.49L239.17,21.45L246,21.54L314.33,21.79L321.17,22.22L334.83,21.81L341.67,21.92L369,22.04L375.83,22.07L478.33,22.72L485.17,22.74L601.33,23.73L608.17,23.73L833.67,26.06L840.5,26.19L908.83,26.97L915.67,27.11L970.33,27.78L977.17,28.13L1018.17,28.53L1025,34.24" style="vector-effect: none; fill: none; stroke: rgb(144, 237, 125); stroke-opacity: 1; stroke-width: 2px; opacity: 1;"/></g><g class="points"/><g class="text"/></g><g class="trace scatter trace7dfa80" style="stroke-miterlimit: 2; opacity: 1;"><g class="fills"/><g class="errorbars"/><g class="lines"><path class="js-line" d="M0,28.06L6.83,27.35L13.67,24.44L34.17,21.83L41,21.43L88.83,20.35L95.67,21.06L102.5,20.26L109.33,20.23L273.33,20.69L280.17,20.74L498.83,22.1L505.67,22.17L731.17,24.19L738,24.3L799.5,25.01L806.33,25.1L929.33,26.96L936.17,26.97L1018.17,28.45L1025,34.35" style="vector-effect: none; fill: none; stroke: rgb(247, 163, 92); stroke-opacity: 1; stroke-width: 2px; opacity: 1;"/></g><g class="points"/><g class="text"/></g><g class="trace scatter trace576c41" style="stroke-miterlimit: 2; opacity: 1;"><g class="fills"/><g class="errorbars"/><g class="lines"><path class="js-line" d="M0,25.09L6.83,24.81L13.67,22.78L34.17,20.69L41,20.48L88.83,19.8L95.67,20.47L109.33,19.72L116.17,19.73L287,20.22L293.83,20.78L314.33,20.43L321.17,20.79L334.83,20.43L341.67,20.52L382.67,20.81L389.5,20.82L560.33,22.12L567.17,22.6L580.83,22.21L587.67,22.26L738,23.77L744.83,23.77L1018.17,27.95L1025,33.62" style="vector-effect: none; fill: none; stroke: rgb(128, 133, 233); stroke-opacity: 1; stroke-width: 2px; opacity: 1;"/></g><g class="points"/><g class="text"/></g><g class="trace scatter tracea5cae3" style="stroke-miterlimit: 2; opacity: 1;"><g class="fills"/><g class="errorbars"/><g class="lines"><path class="js-line" d="M0,30.51L6.83,30.26L13.67,27.43L27.33,24.41L34.17,23.59L61.5,22.34L68.33,22.09L88.83,21.58L95.67,22.21L109.33,21.37L116.17,21.35L280.17,21.57L287,21.64L293.83,22.2L300.67,21.9L314.33,21.85L321.17,22.23L334.83,21.81L341.67,21.93L369,22.09L375.83,22.13L464.67,22.77L471.5,22.77L785.83,25.78L792.67,25.88L1018.17,29.27L1025,35.13" style="vector-effect: none; fill: none; stroke: rgb(241, 92, 128); stroke-opacity: 1; stroke-width: 2px; opacity: 1;"/></g><g class="points"/><g class="text"/></g><g class="trace scatter tracea83589" style="stroke-miterlimit: 2; opacity: 1;"><g class="fills"/><g class="errorbars"/><g class="lines"><path class="js-line" d="M0,26.24L6.83,26L13.67,23.92L27.33,21.94L34.17,21.41L75.17,20.4L82,20.27L150.33,20.16L157.17,20.79L170.83,20.22L177.67,20.22L280.17,20.49L287,20.55L293.83,21.12L300.67,20.79L314.33,20.75L321.17,21.14L334.83,20.74L341.67,20.85L382.67,21.13L389.5,21.15L731.17,24.3L738,24.42L785.83,25.02L792.67,25.13L1018.17,29.2L1025,35.29" style="vector-effect: none; fill: none; stroke: rgb(228, 211, 84); stroke-opacity: 1; stroke-width: 2px; opacity: 1;"/></g><g class="points"/><g class="text"/></g><g class="trace scatter trace7ff128" style="stroke-miterlimit: 2; opacity: 1;"><g class="fills"/><g class="errorbars"/><g class="lines"><path class="js-line" d="M0,25.93L6.83,25.8L13.67,23.55L34.17,21.17L41,20.91L88.83,20.14L95.67,20.79L109.33,20.03L116.17,20.03L287,20.5L293.83,21.09L314.33,20.72L321.17,21.12L334.83,20.73L341.67,20.82L382.67,21.11L389.5,21.14L813.17,25.39L820,25.48L977.17,28.24L984,28.45L1011.33,28.75L1018.17,28.84L1025,34.77" style="vector-effect: none; fill: none; stroke: rgb(43, 144, 143); stroke-opacity: 1; stroke-width: 2px; opacity: 1;"/></g><g class="points"/><g class="text"/></g><g class="trace scatter trace9c2b94" style="stroke-miterlimit: 2; opacity: 1;"><g class="fills"/><g class="errorbars"/><g class="lines"><path class="js-line" d="M0,33.02L6.83,32.64L13.67,29.48L27.33,25.91L34.17,24.87L54.67,23.33L61.5,23.21L88.83,22.27L95.67,22.89L102.5,22.06L109.33,21.99L150.33,21.86L157.17,22.47L170.83,21.88L177.67,21.87L239.17,21.96L246,22.02L485.17,23.33L492,23.45L874.67,27.39L881.5,27.74L902,27.75L908.83,27.79L1018.17,29.49L1025,35.48" style="vector-effect: none; fill: none; stroke: rgb(244, 91, 91); stroke-opacity: 1; stroke-width: 2px; opacity: 1;"/></g><g class="points"/><g class="text"/></g><g class="trace scatter trace45bac9" style="stroke-miterlimit: 2; opacity: 1;"><g class="fills"/><g class="errorbars"/><g class="lines"><path class="js-line" d="M0,29.03L6.83,28.56L13.67,26.06L27.33,23.45L34.17,22.71L61.5,21.61L68.33,21.4L88.83,20.97L95.67,21.6L109.33,20.79L116.17,20.76L287,21.12L293.83,21.61L314.33,21.32L321.17,21.65L334.83,21.27L341.67,21.37L389.5,21.65L396.33,21.69L560.33,22.89L567.17,23.37L580.83,23L587.67,23.04L738,24.54L744.83,24.54L1018.17,28.43L1025,34.25" style="vector-effect: none; fill: none; stroke: rgb(145, 232, 225); stroke-opacity: 1; stroke-width: 2px; opacity: 1;"/></g><g class="points"/><g class="text"/></g><g class="trace scatter trace874ab6" style="stroke-miterlimit: 2; opacity: 1;"><g class="fills"/><g class="errorbars"/><g class="lines"><path class="js-line" d="M0,25.83L6.83,25.51L13.67,23.48L27.33,21.69L34.17,21.17L68.33,20.35L75.17,20.21L88.83,20.07L95.67,20.71L109.33,19.95L116.17,19.95L287,20.39L293.83,20.91L314.33,20.57L321.17,20.91L341.67,20.7L348.5,20.77L355.33,21.2L362.17,20.85L423.67,21.14L430.5,21.24L621.83,22.75L628.67,22.78L970.33,27.48L977.17,27.84L1018.17,28.48L1025,34.48" style="vector-effect: none; fill: none; stroke: rgb(124, 181, 236); stroke-opacity: 1; stroke-width: 2px; opacity: 1;"/></g><g class="points"/><g class="text"/></g><g class="trace scatter traced61c86" style="stroke-miterlimit: 2; opacity: 1;"><g class="fills"/><g class="errorbars"/><g class="lines"><path class="js-line" d="M0,26.82L6.83,26.26L13.67,24.03L27.33,21.95L34.17,21.36L68.33,20.45L75.17,20.28L88.83,20.12L95.67,20.77L109.33,20L116.17,20L287,20.39L293.83,20.9L314.33,20.56L321.17,20.91L341.67,20.69L348.5,20.74L355.33,21.19L362.17,20.84L423.67,21.13L430.5,21.21L553.5,22.1L560.33,22.16L567.17,22.67L574,22.25L751.67,23.99L758.5,24.09L861,25.4L867.83,25.53L1018.17,27.75L1025,33.44" style="vector-effect: none; fill: none; stroke: rgb(67, 67, 72); stroke-opacity: 1; stroke-width: 2px; opacity: 1;"/></g><g class="points"/><g class="text"/></g><g class="trace scatter trace646f4c" style="stroke-miterlimit: 2; opacity: 1;"><g class="fills"/><g class="errorbars"/><g class="lines"><path class="js-line" d="M0,26.29L6.83,25.95L13.67,23.69L34.17,21.25L41,20.97L82,20.15L88.83,20.12L95.67,20.79L102.5,20.05L150.33,20.05L157.17,20.68L170.83,20.11L177.67,20.09L287,20.43L293.83,20.96L314.33,20.61L321.17,20.98L341.67,20.71L348.5,20.81L355.33,21.24L362.17,20.87L430.5,21.25L437.33,21.34L731.17,23.71L738,23.81L806.33,24.59L813.17,24.72L977.17,27.15L984,27.37L1004.5,27.31L1011.33,27.57L1018.17,27.64L1025,33.24" style="vector-effect: none; fill: none; stroke: rgb(144, 237, 125); stroke-opacity: 1; stroke-width: 2px; opacity: 1;"/></g><g class="points"/><g class="text"/></g><g class="trace scatter tracee88187" style="stroke-miterlimit: 2; opacity: 1;"><g class="fills"/><g class="errorbars"/><g class="lines"><path class="js-line" d="M0,22.95L6.83,24.45L13.67,21.59L34.17,19.98L41,19.78L88.83,19.33L95.67,19.96L109.33,19.25L116.17,19.27L287,19.8L293.83,20.32L314.33,19.96L321.17,20.33L334.83,19.99L341.67,20.07L410,20.51L416.83,20.54L553.5,22.03L560.33,22.13L567.17,22.66L574,22.37L717.5,25.53L724.33,26L785.83,27.79L792.67,28.13L806.33,28.71L813.17,29.37L840.5,29.28L847.33,29.58L881.5,31.74L888.33,31.43L908.83,31.74L915.67,31.99L936.17,33.67L943,33.52L963.5,34.09L970.33,33.98L997.67,36.06L1004.5,35.89L1018.17,36.61L1025,45.52" style="vector-effect: none; fill: none; stroke: rgb(247, 163, 92); stroke-opacity: 1; stroke-width: 2px; opacity: 1;"/></g><g class="points"/><g class="text"/></g><g class="trace scatter trace4a26f5" style="stroke-miterlimit: 2; opacity: 1;"><g class="fills"/><g class="errorbars"/><g class="lines"><path class="js-line" d="M0,25.24L6.83,24.93L13.67,22.95L34.17,20.76L41,20.52L82,19.81L88.83,19.8L95.67,20.44L102.5,19.71L287,20.12L293.83,20.65L314.33,20.31L321.17,20.66L341.67,20.41L348.5,20.5L355.33,20.93L362.17,20.55L437.33,21.02L444.17,21.07L505.67,21.42L512.5,21.46L874.67,25.66L881.5,26.03L902,26.08L908.83,26.16L1018.17,28.17L1025,34.13" style="vector-effect: none; fill: none; stroke: rgb(128, 133, 233); stroke-opacity: 1; stroke-width: 2px; opacity: 1;"/></g><g class="points"/><g class="text"/></g><g class="trace scatter traced84ba2" style="stroke-miterlimit: 2; opacity: 1;"><g class="fills"/><g class="errorbars"/><g class="lines"><path class="js-line" d="M0,27.92L6.83,27.63L13.67,25.06L27.33,22.7L34.17,22.07L68.33,21L75.17,20.81L88.83,20.61L95.67,21.28L109.33,20.47L116.17,20.46L287,20.83L293.83,21.37L314.33,21.03L321.17,21.39L334.83,21.01L341.67,21.12L382.67,21.4L389.5,21.42L560.33,22.66L567.17,23.16L580.83,22.77L587.67,22.83L738,24.31L744.83,24.32L1018.17,28.18L1025,33.89" style="vector-effect: none; fill: none; stroke: rgb(241, 92, 128); stroke-opacity: 1; stroke-width: 2px; opacity: 1;"/></g><g class="points"/><g class="text"/></g><g class="trace scatter tracebf980b" style="stroke-miterlimit: 2; opacity: 1;"><g class="fills"/><g class="errorbars"/><g class="lines"><path class="js-line" d="M0,26.65L6.83,26.41L13.67,24.07L27.33,22.02L34.17,21.45L68.33,20.56L75.17,20.39L88.83,20.22L95.67,20.89L109.33,20.11L116.17,20.11L287,20.5L293.83,21.06L314.33,20.7L321.17,21.08L334.83,20.7L341.67,20.79L382.67,21.06L389.5,21.07L710.67,23.55L717.5,23.71L833.67,25.12L840.5,25.23L922.5,26.32L929.33,26.52L970.33,27.08L977.17,27.4L1011.33,27.85L1018.17,27.91L1025,33.63" style="vector-effect: none; fill: none; stroke: rgb(228, 211, 84); stroke-opacity: 1; stroke-width: 2px; opacity: 1;"/></g><g class="points"/><g class="text"/></g><g class="trace scatter trace969dc9" style="stroke-miterlimit: 2; opacity: 1;"><g class="fills"/><g class="errorbars"/><g class="lines"><path class="js-line" d="M0,26.8L6.83,26.28L13.67,23.97L34.17,21.37L41,21.09L82,20.25L88.83,20.23L95.67,20.91L102.5,20.15L150.33,20.17L157.17,20.8L170.83,20.23L177.67,20.22L259.67,20.47L266.5,20.47L560.33,22.41L567.17,22.91L580.83,22.51L587.67,22.57L738,24.07L744.83,24.06L902,26.13L908.83,26.17L997.67,27.6L1004.5,27.49L1018.17,27.82L1025,33.41" style="vector-effect: none; fill: none; stroke: rgb(43, 144, 143); stroke-opacity: 1; stroke-width: 2px; opacity: 1;"/></g><g class="points"/><g class="text"/></g><g class="trace scatter trace04fa24" style="stroke-miterlimit: 2; opacity: 1;"><g class="fills"/><g class="errorbars"/><g class="lines"><path class="js-line" d="M0,27.08L6.83,26.42L13.67,23.76L34.17,21.44L41,21.09L88.83,20.16L95.67,20.87L102.5,20.08L109.33,20.06L150.33,20.12L157.17,20.75L170.83,20.18L177.67,20.16L239.17,20.67L246,20.73L287,20.7L293.83,21.25L314.33,21L321.17,21.39L334.83,20.96L341.67,21.02L382.67,21.32L389.5,21.36L560.33,22.8L567.17,23.28L580.83,22.92L587.67,22.98L690.17,24.06L697,24.12L1018.17,29.79L1025,36.23" style="vector-effect: none; fill: none; stroke: rgb(244, 91, 91); stroke-opacity: 1; stroke-width: 2px; opacity: 1;"/></g><g class="points"/><g class="text"/></g><g class="trace scatter tracedb2806" style="stroke-miterlimit: 2; opacity: 1;"><g class="fills"/><g class="errorbars"/><g class="lines"><path class="js-line" d="M0,26.58L6.83,26.39L13.67,24.05L27.33,21.95L34.17,21.43L75.17,20.44L82,20.3L150.33,20.22L157.17,20.85L170.83,20.28L177.67,20.24L287,20.6L293.83,21.11L314.33,20.79L321.17,21.13L341.67,20.88L348.5,20.96L355.33,21.41L362.17,21.05L423.67,21.34L430.5,21.42L683.33,23.31L690.17,23.34L874.67,25.49L881.5,25.83L902,25.84L908.83,25.89L1018.17,27.54L1025,33.04" style="vector-effect: none; fill: none; stroke: rgb(145, 232, 225); stroke-opacity: 1; stroke-width: 2px; opacity: 1;"/></g><g class="points"/><g class="text"/></g><g class="trace scatter trace221479" style="stroke-miterlimit: 2; opacity: 1;"><g class="fills"/><g class="errorbars"/><g class="lines"><path class="js-line" d="M0,33.34L6.83,33.28L13.67,29.51L27.33,25.75L34.17,24.7L54.67,23.1L61.5,22.97L88.83,22.11L95.67,22.73L109.33,21.87L116.17,21.88L150.33,21.7L157.17,22.29L170.83,21.76L177.67,21.78L259.67,22L266.5,22.02L293.83,22.71L300.67,22.37L314.33,22.34L321.17,22.95L334.83,22.44L341.67,22.52L362.17,22.68L369,22.68L546.67,24.2L553.5,24.46L628.67,24.84L635.5,24.87L792.67,26.07L799.5,26.17L1018.17,28.57L1025,34.11" style="vector-effect: none; fill: none; stroke: rgb(124, 181, 236); stroke-opacity: 1; stroke-width: 2px; opacity: 1;"/></g><g class="points"/><g class="text"/></g><g class="trace scatter trace63981f" style="stroke-miterlimit: 2; opacity: 1;"><g class="fills"/><g class="errorbars"/><g class="lines"><path class="js-line" d="M0,31.32L6.83,31.32L13.67,28.09L27.33,24.86L34.17,23.97L54.67,22.58L61.5,22.46L88.83,21.71L95.67,22.33L109.33,21.49L116.17,21.53L150.33,21.37L157.17,21.95L170.83,21.44L177.67,21.49L266.5,21.67L273.33,21.96L287,21.92L293.83,22.39L314.33,22.02L321.17,22.66L334.83,22.18L341.67,22.16L355.33,22.81L362.17,22.32L492,23.32L498.83,23.51L635.5,24.73L642.33,24.74L662.83,24.98L669.67,24.96L813.17,26.7L820,26.82L970.33,28.8L977.17,29.14L1018.17,29.43L1025,35.4" style="vector-effect: none; fill: none; stroke: rgb(67, 67, 72); stroke-opacity: 1; stroke-width: 2px; opacity: 1;"/></g><g class="points"/><g class="text"/></g><g class="trace scatter trace389c5e" style="stroke-miterlimit: 2; opacity: 1;"><g class="fills"/><g class="errorbars"/><g class="lines"><path class="js-line" d="M0,31.29L6.83,30.39L13.67,27.57L27.33,24.47L34.17,23.59L54.67,22.23L61.5,22.13L88.83,21.4L95.67,22.04L109.33,21.2L116.17,21.22L150.33,21.09L157.17,21.68L170.83,21.09L177.67,21.06L498.83,22.68L505.67,22.76L642.33,23.78L649.17,24.04L676.5,24.01L683.33,24.11L785.83,24.99L792.67,25.08L1018.17,27.37L1025,32.62" style="vector-effect: none; fill: none; stroke: rgb(144, 237, 125); stroke-opacity: 1; stroke-width: 2px; opacity: 1;"/></g><g class="points"/><g class="text"/></g><g class="trace scatter trace46fc81" style="stroke-miterlimit: 2; opacity: 1;"><g class="fills"/><g class="errorbars"/><g class="lines"><path class="js-line" d="M0,38.18L6.83,38.21L13.67,33.83L27.33,28.75L34.17,27.37L54.67,25.13L61.5,24.9L88.83,23.69L95.67,24.29L109.33,23.32L116.17,23.32L150.33,23.03L157.17,23.59L170.83,22.98L177.67,22.89L560.33,24.85L567.17,25.35L580.83,24.94L587.67,25L738,26.25L744.83,26.21L997.67,28.66L1004.5,28.48L1018.17,28.68L1025,34.24" style="vector-effect: none; fill: none; stroke: rgb(247, 163, 92); stroke-opacity: 1; stroke-width: 2px; opacity: 1;"/></g><g class="points"/><g class="text"/></g><g class="trace scatter trace9a22cd" style="stroke-miterlimit: 2; opacity: 1;"><g class="fills"/><g class="errorbars"/><g class="lines"><path class="js-line" d="M0,30.01L6.83,29.5L13.67,26.59L27.33,23.72L34.17,22.97L54.67,21.78L61.5,21.73L88.83,21.09L95.67,21.7L109.33,20.92L116.17,20.96L150.33,20.93L157.17,21.43L170.83,20.92L177.67,20.87L560.33,23.3L567.17,23.75L580.83,23.35L587.67,23.42L1018.17,28.09L1025,33.61" style="vector-effect: none; fill: none; stroke: rgb(128, 133, 233); stroke-opacity: 1; stroke-width: 2px; opacity: 1;"/></g><g class="points"/><g class="text"/></g><g class="trace scatter tracec68994" style="stroke-miterlimit: 2; opacity: 1;"><g class="fills"/><g class="errorbars"/><g class="lines"><path class="js-line" d="M0,29L6.83,28.57L13.67,25.94L27.33,23.29L34.17,22.6L61.5,21.48L68.33,21.25L88.83,20.9L95.67,21.53L109.33,20.74L116.17,20.78L150.33,20.68L157.17,21.28L164,20.64L170.83,20.8L273.33,21.35L280.17,21.16L321.17,22.06L328,21.42L396.33,22.09L403.17,21.87L464.67,22.62L471.5,22.43L519.33,23.15L526.17,22.91L580.83,23.46L587.67,23.52L1018.17,28.39L1025,33.98" style="vector-effect: none; fill: none; stroke: rgb(241, 92, 128); stroke-opacity: 1; stroke-width: 2px; opacity: 1;"/></g><g class="points"/><g class="text"/></g><g class="trace scatter trace6e03d4" style="stroke-miterlimit: 2; opacity: 1;"><g class="fills"/><g class="errorbars"/><g class="lines"><path class="js-line" d="M0,31.55L6.83,31.21L13.67,27.91L27.33,24.61L34.17,23.74L54.67,22.38L61.5,22.3L88.83,21.57L95.67,22.22L109.33,21.37L116.17,21.41L150.33,21.27L157.17,21.86L170.83,21.27L177.67,21.22L806.33,25.22L813.17,25.33L970.33,26.74L977.17,27.05L1011.33,27.25L1018.17,27.24L1025,32.45" style="vector-effect: none; fill: none; stroke: rgb(228, 211, 84); stroke-opacity: 1; stroke-width: 2px; opacity: 1;"/></g><g class="points"/><g class="text"/></g><g class="trace scatter trace1a9248" style="stroke-miterlimit: 2; opacity: 1;"><g class="fills"/><g class="errorbars"/><g class="lines"><path class="js-line" d="M0,31.01L6.83,30.5L13.67,27.53L27.33,24.45L34.17,23.6L54.67,22.22L61.5,22.14L88.83,21.43L95.67,22.05L109.33,21.22L116.17,21.24L150.33,21.11L157.17,21.69L170.83,21.11L177.67,21.09L287,21.47L293.83,21.96L314.33,21.61L321.17,22.04L334.83,21.63L341.67,21.74L369,21.86L375.83,21.9L451,22.38L457.83,22.45L772.17,24.98L779,25.07L970.33,27.08L977.17,27.39L1018.17,27.63L1025,33.1" style="vector-effect: none; fill: none; stroke: rgb(43, 144, 143); stroke-opacity: 1; stroke-width: 2px; opacity: 1;"/></g><g class="points"/><g class="text"/></g><g class="trace scatter trace2d77a9" style="stroke-miterlimit: 2; opacity: 1;"><g class="fills"/><g class="errorbars"/><g class="lines"><path class="js-line" d="M0,33.62L6.83,33.48L13.67,29.93L27.33,26.07L34.17,25L54.67,23.31L61.5,23.16L88.83,22.26L95.67,22.88L109.33,21.98L116.17,22.01L150.33,21.8L157.17,22.38L170.83,21.79L177.67,21.74L519.33,23.42L526.17,23.46L601.33,24.08L608.17,24.07L1018.17,27.76L1025,33.12" style="vector-effect: none; fill: none; stroke: rgb(244, 91, 91); stroke-opacity: 1; stroke-width: 2px; opacity: 1;"/></g><g class="points"/><g class="text"/></g><g class="trace scatter traceec8d79" style="stroke-miterlimit: 2; opacity: 1;"><g class="fills"/><g class="errorbars"/><g class="lines"><path class="js-line" d="M0,39.42L6.83,39.01L13.67,34.6L27.33,29.4L34.17,27.98L54.67,25.59L61.5,25.33L88.83,24.04L95.67,24.63L109.33,23.65L116.17,23.64L150.33,23.32L157.17,23.88L170.83,23.26L177.67,23.18L526.17,24.84L533,24.96L628.67,25.65L635.5,25.72L772.17,26.82L779,26.91L874.67,27.87L881.5,28.15L902,28.1L908.83,28.11L997.67,29.12L1004.5,28.95L1018.17,29.15L1025,34.85" style="vector-effect: none; fill: none; stroke: rgb(145, 232, 225); stroke-opacity: 1; stroke-width: 2px; opacity: 1;"/></g><g class="points"/><g class="text"/></g><g class="trace scatter trace89893e" style="stroke-miterlimit: 2; opacity: 1;"><g class="fills"/><g class="errorbars"/><g class="lines"><path class="js-line" d="M0,30.76L6.83,30.05L13.67,27.05L27.33,24.01L34.17,23.21L54.67,21.92L61.5,21.82L88.83,21.14L95.67,21.78L109.33,20.96L116.17,20.99L150.33,20.86L157.17,21.45L170.83,20.88L177.67,20.88L287,21.32L293.83,21.82L314.33,21.47L321.17,21.93L334.83,21.56L341.67,21.64L362.17,21.8L369,21.78L560.33,23.5L567.17,23.95L580.83,23.57L587.67,23.62L1018.17,28.8L1025,34.7" style="vector-effect: none; fill: none; stroke: rgb(124, 181, 236); stroke-opacity: 1; stroke-width: 2px; opacity: 1;"/></g><g class="points"/><g class="text"/></g><g class="trace scatter trace36f7af" style="stroke-miterlimit: 2; opacity: 1;"><g class="fills"/><g class="errorbars"/><g class="lines"><path class="js-line" d="M0,27.96L6.83,27.5L13.67,25.05L27.33,22.64L34.17,22.02L61.5,21.05L68.33,20.85L88.83,20.54L95.67,21.18L109.33,20.39L116.17,20.43L150.33,20.35L157.17,20.96L170.83,20.42L177.67,20.43L287,20.81L293.83,21.3L314.33,20.94L321.17,21.45L334.83,21.01L341.67,21.1L362.17,21.27L369,21.23L731.17,24.5L738,24.63L785.83,25.22L792.67,25.31L977.17,28.41L984,28.63L1004.5,28.55L1011.33,28.82L1018.17,28.86L1025,34.79" style="vector-effect: none; fill: none; stroke: rgb(67, 67, 72); stroke-opacity: 1; stroke-width: 2px; opacity: 1;"/></g><g class="points"/><g class="text"/></g><g class="trace scatter tracecba447" style="stroke-miterlimit: 2; opacity: 1;"><g class="fills"/><g class="errorbars"/><g class="lines"><path class="js-line" d="M0,30.01L6.83,29.61L13.67,26.66L27.33,23.82L34.17,23.04L54.67,21.83L61.5,21.78L88.83,21.13L95.67,21.75L109.33,20.96L116.17,20.99L150.33,20.88L157.17,21.47L164,20.83L170.83,20.95L560.33,23.77L567.17,24.16L580.83,23.76L587.67,23.81L1018.17,28.98L1025,34.85" style="vector-effect: none; fill: none; stroke: rgb(144, 237, 125); stroke-opacity: 1; stroke-width: 2px; opacity: 1;"/></g><g class="points"/><g class="text"/></g><g class="trace scatter tracecb49ca" style="stroke-miterlimit: 2; opacity: 1;"><g class="fills"/><g class="errorbars"/><g class="lines"><path class="js-line" d="M0,41.55L6.83,40.94L13.67,36.19L27.33,30.68L34.17,29.09L47.83,27.2L54.67,26.3L82,24.94L88.83,24.58L95.67,25.22L102.5,24.31L150.33,23.77L157.17,24.35L170.83,23.66L177.67,23.55L560.33,26.01L567.17,26.5L580.83,26.1L587.67,26.17L738,27.47L744.83,27.42L1018.17,30.06L1025,35.89" style="vector-effect: none; fill: none; stroke: rgb(247, 163, 92); stroke-opacity: 1; stroke-width: 2px; opacity: 1;"/></g><g class="points"/><g class="text"/></g></g></g></g><g class="zerolinelayer-above"/><path class="xlines-above crisp" d="M0,0" style="fill: none;"/><path class="ylines-above crisp" d="M0,0" style="fill: none;"/><g class="overlines-above"/><g class="xaxislayer-above"><g class="xtick"><text text-anchor="middle" x="0" y="451" transform="translate(189.83,0)" style="font-family: system-ui, -apple-system, 'Segoe UI', Roboto, 'Helvetica Neue', 'Noto Sans', 'Liberation Sans', Arial, sans-serif, 'Apple Color Emoji', 'Segoe UI Emoji', 'Segoe UI Symbol', 'Noto Color Emoji'; font-size: 10px; fill: rgb(80, 80, 80); fill-opacity: 1; white-space: pre;">20</text></g><g class="xtick"><text text-anchor="middle" x="0" y="451" style="font-family: system-ui, -apple-system, 'Segoe UI', Roboto, 'Helvetica Neue', 'Noto Sans', 'Liberation Sans', Arial, sans-serif, 'Apple Color Emoji', 'Segoe UI Emoji', 'Segoe UI Symbol', 'Noto Color Emoji'; font-size: 10px; fill: rgb(80, 80, 80); fill-opacity: 1; white-space: pre;" transform="translate(326.5,0)">40</text></g><g class="xtick"><text text-anchor="middle" x="0" y="451" style="font-family: system-ui, -apple-system, 'Segoe UI', Roboto, 'Helvetica Neue', 'Noto Sans', 'Liberation Sans', Arial, sans-serif, 'Apple Color Emoji', 'Segoe UI Emoji', 'Segoe UI Symbol', 'Noto Color Emoji'; font-size: 10px; fill: rgb(80, 80, 80); fill-opacity: 1; white-space: pre;" transform="translate(463.17,0)">60</text></g><g class="xtick"><text text-anchor="middle" x="0" y="451" style="font-family: system-ui, -apple-system, 'Segoe UI', Roboto, 'Helvetica Neue', 'Noto Sans', 'Liberation Sans', Arial, sans-serif, 'Apple Color Emoji', 'Segoe UI Emoji', 'Segoe UI Symbol', 'Noto Color Emoji'; font-size: 10px; fill: rgb(80, 80, 80); fill-opacity: 1; white-space: pre;" transform="translate(599.83,0)">80</text></g><g class="xtick"><text text-anchor="middle" x="0" y="451" style="font-family: system-ui, -apple-system, 'Segoe UI', Roboto, 'Helvetica Neue', 'Noto Sans', 'Liberation Sans', Arial, sans-serif, 'Apple Color Emoji', 'Segoe UI Emoji', 'Segoe UI Symbol', 'Noto Color Emoji'; font-size: 10px; fill: rgb(80, 80, 80); fill-opacity: 1; white-space: pre;" transform="translate(736.5,0)">100</text></g><g class="xtick"><text text-anchor="middle" x="0" y="451" style="font-family: system-ui, -apple-system, 'Segoe UI', Roboto, 'Helvetica Neue', 'Noto Sans', 'Liberation Sans', Arial, sans-serif, 'Apple Color Emoji', 'Segoe UI Emoji', 'Segoe UI Symbol', 'Noto Color Emoji'; font-size: 10px; fill: rgb(80, 80, 80); fill-opacity: 1; white-space: pre;" transform="translate(873.17,0)">120</text></g><g class="xtick"><text text-anchor="middle" x="0" y="451" style="font-family: system-ui, -apple-system, 'Segoe UI', Roboto, 'Helvetica Neue', 'Noto Sans', 'Liberation Sans', Arial, sans-serif, 'Apple Color Emoji', 'Segoe UI Emoji', 'Segoe UI Symbol', 'Noto Color Emoji'; font-size: 10px; fill: rgb(80, 80, 80); fill-opacity: 1; white-space: pre;" transform="translate(1009.83,0)">140</text></g></g><g class="yaxislayer-above"><g class="ytick"><text text-anchor="end" x="54" y="3.5" transform="translate(0,435)" style="font-family: system-ui, -apple-system, 'Segoe UI', Roboto, 'Helvetica Neue', 'Noto Sans', 'Liberation Sans', Arial, sans-serif, 'Apple Color Emoji', 'Segoe UI Emoji', 'Segoe UI Symbol', 'Noto Color Emoji'; font-size: 10px; fill: rgb(80, 80, 80); fill-opacity: 1; white-space: pre;">0</text></g><g class="ytick"><text text-anchor="end" x="54" y="3.5" style="font-family: system-ui, -apple-system, 'Segoe UI', Roboto, 'Helvetica Neue', 'Noto Sans', 'Liberation Sans', Arial, sans-serif, 'Apple Color Emoji', 'Segoe UI Emoji', 'Segoe UI Symbol', 'Noto Color Emoji'; font-size: 10px; fill: rgb(80, 80, 80); fill-opacity: 1; white-space: pre;" transform="translate(0,388.95)">5</text></g><g class="ytick"><text text-anchor="end" x="54" y="3.5" style="font-family: system-ui, -apple-system, 'Segoe UI', Roboto, 'Helvetica Neue', 'Noto Sans', 'Liberation Sans', Arial, sans-serif, 'Apple Color Emoji', 'Segoe UI Emoji', 'Segoe UI Symbol', 'Noto Color Emoji'; font-size: 10px; fill: rgb(80, 80, 80); fill-opacity: 1; white-space: pre;" transform="translate(0,342.9)">10</text></g><g class="ytick"><text text-anchor="end" x="54" y="3.5" style="font-family: system-ui, -apple-system, 'Segoe UI', Roboto, 'Helvetica Neue', 'Noto Sans', 'Liberation Sans', Arial, sans-serif, 'Apple Color Emoji', 'Segoe UI Emoji', 'Segoe UI Symbol', 'Noto Color Emoji'; font-size: 10px; fill: rgb(80, 80, 80); fill-opacity: 1; white-space: pre;" transform="translate(0,296.85)">15</text></g><g class="ytick"><text text-anchor="end" x="54" y="3.5" style="font-family: system-ui, -apple-system, 'Segoe UI', Roboto, 'Helvetica Neue', 'Noto Sans', 'Liberation Sans', Arial, sans-serif, 'Apple Color Emoji', 'Segoe UI Emoji', 'Segoe UI Symbol', 'Noto Color Emoji'; font-size: 10px; fill: rgb(80, 80, 80); fill-opacity: 1; white-space: pre;" transform="translate(0,250.8)">20</text></g><g class="ytick"><text text-anchor="end" x="54" y="3.5" style="font-family: system-ui, -apple-system, 'Segoe UI', Roboto, 'Helvetica Neue', 'Noto Sans', 'Liberation Sans', Arial, sans-serif, 'Apple Color Emoji', 'Segoe UI Emoji', 'Segoe UI Symbol', 'Noto Color Emoji'; font-size: 10px; fill: rgb(80, 80, 80); fill-opacity: 1; white-space: pre;" transform="translate(0,204.75)">25</text></g><g class="ytick"><text text-anchor="end" x="54" y="3.5" style="font-family: system-ui, -apple-system, 'Segoe UI', Roboto, 'Helvetica Neue', 'Noto Sans', 'Liberation Sans', Arial, sans-serif, 'Apple Color Emoji', 'Segoe UI Emoji', 'Segoe UI Symbol', 'Noto Color Emoji'; font-size: 10px; fill: rgb(80, 80, 80); fill-opacity: 1; white-space: pre;" transform="translate(0,158.70999999999998)">30</text></g><g class="ytick"><text text-anchor="end" x="54" y="3.5" style="font-family: system-ui, -apple-system, 'Segoe UI', Roboto, 'Helvetica Neue', 'Noto Sans', 'Liberation Sans', Arial, sans-serif, 'Apple Color Emoji', 'Segoe UI Emoji', 'Segoe UI Symbol', 'Noto Color Emoji'; font-size: 10px; fill: rgb(80, 80, 80); fill-opacity: 1; white-space: pre;" transform="translate(0,112.66)">35</text></g><g class="ytick"><text text-anchor="end" x="54" y="3.5" style="font-family: system-ui, -apple-system, 'Segoe UI', Roboto, 'Helvetica Neue', 'Noto Sans', 'Liberation Sans', Arial, sans-serif, 'Apple Color Emoji', 'Segoe UI Emoji', 'Segoe UI Symbol', 'Noto Color Emoji'; font-size: 10px; fill: rgb(80, 80, 80); fill-opacity: 1; white-space: pre;" transform="translate(0,66.61)">40</text></g></g><g class="overaxes-above"/></g></g><g class="polarlayer"/><g class="smithlayer"/><g class="ternarylayer"/><g class="geolayer"/><g class="funnelarealayer"/><g class="pielayer"/><g class="iciclelayer"/><g class="treemaplayer"/><g class="sunburstlayer"/><g class="glimages"/><defs id="topdefs-d04d57"><g class="clips"/></defs><g class="layer-above"><g class="imagelayer"/><g class="shapelayer"/></g><g class="infolayer"><g class="g-gtitle"><text class="gtitle" x="550" y="25" text-anchor="middle" dy="0em" style="opacity: 1; font-family: system-ui, -apple-system, 'Segoe UI', Roboto, 'Helvetica Neue', 'Noto Sans', 'Liberation Sans', Arial, sans-serif, 'Apple Color Emoji', 'Segoe UI Emoji', 'Segoe UI Symbol', 'Noto Color Emoji'; font-size: 20px; fill: rgb(60, 60, 60); fill-opacity: 1; white-space: pre;"><tspan class="line" dy="0em" x="550" y="25">Fastp: Sequence Quality</tspan><tspan class="line" dy="1.3em" x="550" y="25">​<tspan style="font-size:70%" dy="-0.6em">Read 2: Before filtering, 94 lines</tspan><tspan dy="0.42em">​</tspan></tspan></text></g><g class="g-xtitle"><text class="xtitle" x="572.5" y="487" text-anchor="middle" style="opacity: 1; font-family: system-ui, -apple-system, 'Segoe UI', Roboto, 'Helvetica Neue', 'Noto Sans', 'Liberation Sans', Arial, sans-serif, 'Apple Color Emoji', 'Segoe UI Emoji', 'Segoe UI Symbol', 'Noto Color Emoji'; font-size: 14px; fill: rgb(100, 100, 100); fill-opacity: 1; white-space: pre;">Read Position</text></g><g class="g-ytitle"><text class="ytitle" transform="rotate(-90,22,242.5)" x="22" y="242.5" text-anchor="middle" style="opacity: 1; font-family: system-ui, -apple-system, 'Segoe UI', Roboto, 'Helvetica Neue', 'Noto Sans', 'Liberation Sans', Arial, sans-serif, 'Apple Color Emoji', 'Segoe UI Emoji', 'Segoe UI Symbol', 'Noto Color Emoji'; font-size: 14px; fill: rgb(100, 100, 100); fill-opacity: 1; white-space: pre;">R2 Before filtering: Sequence Quality</text></g></g></svg>