<svg class="main-svg" xmlns="http://www.w3.org/2000/svg" xmlns:xlink="http://www.w3.org/1999/xlink" width="2200" height="1000" style="" viewBox="0 0 1100 500"><rect x="0" y="0" width="1100" height="500" style="fill: rgb(255, 255, 255); fill-opacity: 1;"/><defs id="defs-e75338"><g class="clips"><clipPath id="clipe75338xyplot" class="plotclip"><rect width="1025" height="385"/></clipPath><clipPath class="axesclip" id="clipe75338x"><rect x="60" y="0" width="1025" height="500"/></clipPath><clipPath class="axesclip" id="clipe75338y"><rect x="0" y="50" width="1100" height="385"/></clipPath><clipPath class="axesclip" id="clipe75338xy"><rect x="60" y="50" width="1025" height="385"/></clipPath></g><g class="gradients"/><g class="patterns"/></defs><g class="bglayer"/><g class="layer-below"><g class="imagelayer"/><g class="shapelayer"/></g><g class="cartesianlayer"><g class="subplot xy"><g class="layer-subplot"><g class="shapelayer"/><g class="imagelayer"/></g><g class="minor-gridlayer"><g class="x"/><g class="y"/></g><g class="gridlayer"><g class="x"><path class="xgrid crisp" transform="translate(195.24,0)" d="M0,50v385" style="stroke: rgb(128, 128, 128); stroke-opacity: 0.15; stroke-width: 1px;"/><path class="xgrid crisp" transform="translate(337.6,0)" d="M0,50v385" style="stroke: rgb(128, 128, 128); stroke-opacity: 0.15; stroke-width: 1px;"/><path class="xgrid crisp" transform="translate(479.97,0)" d="M0,50v385" style="stroke: rgb(128, 128, 128); stroke-opacity: 0.15; stroke-width: 1px;"/><path class="xgrid crisp" transform="translate(622.33,0)" d="M0,50v385" style="stroke: rgb(128, 128, 128); stroke-opacity: 0.15; stroke-width: 1px;"/><path class="xgrid crisp" transform="translate(764.69,0)" d="M0,50v385" style="stroke: rgb(128, 128, 128); stroke-opacity: 0.15; stroke-width: 1px;"/><path class="xgrid crisp" transform="translate(907.05,0)" d="M0,50v385" style="stroke: rgb(128, 128, 128); stroke-opacity: 0.15; stroke-width: 1px;"/><path class="xgrid crisp" transform="translate(1049.4099999999999,0)" d="M0,50v385" style="stroke: rgb(128, 128, 128); stroke-opacity: 0.15; stroke-width: 1px;"/></g><g class="y"><path class="ygrid crisp" transform="translate(0,358)" d="M60,0h1025" style="stroke: rgb(128, 128, 128); stroke-opacity: 0.15; stroke-width: 1px;"/><path class="ygrid crisp" transform="translate(0,281)" d="M60,0h1025" style="stroke: rgb(128, 128, 128); stroke-opacity: 0.15; stroke-width: 1px;"/><path class="ygrid crisp" transform="translate(0,204)" d="M60,0h1025" style="stroke: rgb(128, 128, 128); stroke-opacity: 0.15; stroke-width: 1px;"/><path class="ygrid crisp" transform="translate(0,127)" d="M60,0h1025" style="stroke: rgb(128, 128, 128); stroke-opacity: 0.15; stroke-width: 1px;"/></g></g><g class="zerolinelayer"><path class="yzl zl crisp" transform="translate(0,435)" d="M60,0h1025" style="stroke: rgb(128, 128, 128); stroke-opacity: 0.2; stroke-width: 1px;"/></g><g class="layer-between"><g class="shapelayer"/><g class="imagelayer"/></g><path class="xlines-below"/><path class="ylines-below"/><g class="overlines-below"/><g class="xaxislayer-below"/><g class="yaxislayer-below"/><g class="overaxes-below"/><g class="overplot"><g class="xy" transform="translate(60,50)" clip-path="url(#clipe75338xyplot)"><g class="scatterlayer mlayer"><g class="trace scatter tracee66f72" style="stroke-miterlimit: 2; opacity: 1;"><g class="fills"/><g class="errorbars"/><g class="lines"><path class="js-line" d="M0,385L363.02,384.98L370.14,375.17L377.26,384.99L384.38,384.88L391.49,384.93L398.61,375.09L405.73,385L412.85,384.94L427.08,384.78L434.2,384.21L441.32,384.98L448.44,384.97L512.5,384.96L519.62,384L533.85,384.96L540.97,384.56L555.21,384.99L562.33,384.98L690.45,384.74L697.57,384.23L711.81,384.96L718.92,374.96L726.04,385L733.16,384.91L775.87,384.92L782.99,384.99L790.1,384.92L797.22,375.13L804.34,375.11L811.46,384.87L839.93,383.93L847.05,384.97L918.23,384.87L925.35,384.07L939.58,384.93L946.7,385L960.94,384.84L968.06,375.17L975.17,384.96L982.29,385L1017.88,384.96L1025,382.75" style="vector-effect: none; fill: none; stroke: rgb(124, 181, 236); stroke-opacity: 1; stroke-width: 2px; opacity: 1;"/></g><g class="points"/><g class="text"/></g><g class="trace scatter trace9596bc" style="stroke-miterlimit: 2; opacity: 1;"><g class="fills"/><g class="errorbars"/><g class="lines"><path class="js-line" d="M0,385L363.02,384.98L370.14,374.92L377.26,384.99L384.38,384.88L391.49,384.92L398.61,375.15L405.73,384.99L412.85,384.95L427.08,384.77L434.2,384.18L441.32,384.98L448.44,384.96L512.5,384.96L519.62,383.97L533.85,384.97L540.97,384.57L555.21,384.99L562.33,384.98L690.45,384.73L697.57,384.23L711.81,384.96L718.92,374.98L726.04,385L733.16,384.91L775.87,384.88L782.99,384.99L790.1,384.92L797.22,375.08L804.34,375.01L811.46,384.85L818.58,384.54L825.69,384.99L839.93,383.9L847.05,384.96L918.23,384.86L925.35,384.05L939.58,384.93L946.7,385L960.94,384.83L968.06,375.24L975.17,384.96L982.29,385L1017.88,384.94L1025,382.73" style="vector-effect: none; fill: none; stroke: rgb(67, 67, 72); stroke-opacity: 1; stroke-width: 2px; opacity: 1;"/></g><g class="points"/><g class="text"/></g><g class="trace scatter tracee4521f" style="stroke-miterlimit: 2; opacity: 1;"><g class="fills"/><g class="errorbars"/><g class="lines"><path class="js-line" d="M0,385L363.02,384.98L370.14,375.27L377.26,384.99L384.38,384.88L391.49,384.93L398.61,375.04L405.73,384.99L412.85,384.95L427.08,384.76L434.2,384.19L441.32,384.98L448.44,384.96L512.5,384.96L519.62,384L533.85,384.97L540.97,384.56L555.21,384.99L562.33,384.98L690.45,384.76L697.57,384.23L711.81,384.96L718.92,375.05L726.04,385L733.16,384.91L775.87,384.9L782.99,384.99L790.1,384.92L797.22,374.96L804.34,375.04L811.46,384.85L839.93,383.92L847.05,384.96L918.23,384.87L925.35,384.05L939.58,384.92L946.7,385L960.94,384.82L968.06,374.95L975.17,384.96L982.29,385L1017.88,384.94L1025,382.75" style="vector-effect: none; fill: none; stroke: rgb(144, 237, 125); stroke-opacity: 1; stroke-width: 2px; opacity: 1;"/></g><g class="points"/><g class="text"/></g><g class="trace scatter trace6c654e" style="stroke-miterlimit: 2; opacity: 1;"><g class="fills"/><g class="errorbars"/><g class="lines"><path class="js-line" d="M0,385L363.02,384.98L370.14,375.15L377.26,384.99L384.38,384.88L391.49,384.93L398.61,374.97L405.73,384.99L412.85,384.96L427.08,384.77L434.2,384.2L441.32,384.98L448.44,384.96L512.5,384.96L519.62,384L533.85,384.97L540.97,384.59L555.21,384.99L562.33,384.98L690.45,384.74L697.57,384.23L711.81,384.96L718.92,374.87L726.04,385L733.16,384.91L775.87,384.91L782.99,384.99L790.1,384.93L797.22,374.97L804.34,375.09L811.46,384.85L839.93,383.93L847.05,384.97L918.23,384.86L925.35,384.08L939.58,384.93L946.7,385L960.94,384.83L968.06,375.07L975.17,384.96L982.29,385L1017.88,384.95L1025,382.79" style="vector-effect: none; fill: none; stroke: rgb(247, 163, 92); stroke-opacity: 1; stroke-width: 2px; opacity: 1;"/></g><g class="points"/><g class="text"/></g><g class="trace scatter trace9c5989" style="stroke-miterlimit: 2; opacity: 1;"><g class="fills"/><g class="errorbars"/><g class="lines"><path class="js-line" d="M0,385L363.02,384.97L370.14,375.19L377.26,384.99L384.38,384.88L391.49,384.92L398.61,375.09L405.73,384.99L412.85,384.95L427.08,384.77L434.2,384.2L441.32,384.98L448.44,384.96L512.5,384.96L519.62,383.99L533.85,384.97L540.97,384.58L555.21,384.99L562.33,384.98L690.45,384.72L697.57,384.24L711.81,384.96L718.92,375.03L726.04,385L733.16,384.89L790.1,384.93L797.22,375.06L804.34,375.08L811.46,384.85L818.58,384.54L825.69,385L839.93,383.91L847.05,384.96L918.23,384.85L925.35,384.03L939.58,384.92L946.7,385L960.94,384.83L968.06,375.03L975.17,384.96L982.29,385L1017.88,384.95L1025,382.77" style="vector-effect: none; fill: none; stroke: rgb(128, 133, 233); stroke-opacity: 1; stroke-width: 2px; opacity: 1;"/></g><g class="points"/><g class="text"/></g><g class="trace scatter trace2c8b9a" style="stroke-miterlimit: 2; opacity: 1;"><g class="fills"/><g class="errorbars"/><g class="lines"><path class="js-line" d="M0,385L363.02,384.98L370.14,375.31L377.26,385L384.38,384.87L391.49,384.93L398.61,375.06L405.73,384.99L412.85,384.96L427.08,384.77L434.2,384.23L441.32,384.98L448.44,384.96L512.5,384.97L519.62,384.01L533.85,384.97L540.97,384.57L555.21,384.99L562.33,384.98L690.45,384.75L697.57,384.25L711.81,384.96L718.92,374.95L726.04,385L733.16,384.91L775.87,384.91L782.99,384.99L790.1,384.92L797.22,374.99L804.34,375.06L811.46,384.87L839.93,383.94L847.05,384.97L918.23,384.86L925.35,384.05L939.58,384.93L946.7,385L960.94,384.83L968.06,375.01L975.17,384.96L982.29,385L1017.88,384.96L1025,382.8" style="vector-effect: none; fill: none; stroke: rgb(241, 92, 128); stroke-opacity: 1; stroke-width: 2px; opacity: 1;"/></g><g class="points"/><g class="text"/></g><g class="trace scatter traced38a34" style="stroke-miterlimit: 2; opacity: 1;"><g class="fills"/><g class="errorbars"/><g class="lines"><path class="js-line" d="M0,385L363.02,384.98L370.14,375L377.26,384.99L384.38,384.87L391.49,384.93L398.61,375.08L405.73,385L412.85,384.94L427.08,384.76L434.2,384.21L441.32,384.98L448.44,384.95L512.5,384.95L519.62,384L533.85,384.96L540.97,384.58L555.21,384.99L562.33,384.98L690.45,384.73L697.57,384.26L711.81,384.96L718.92,375.16L726.04,385L733.16,384.9L775.87,384.89L782.99,384.99L790.1,384.92L797.22,375L804.34,374.86L811.46,384.85L818.58,384.54L825.69,384.99L839.93,383.92L847.05,384.96L918.23,384.85L925.35,384.05L939.58,384.93L946.7,385L960.94,384.82L968.06,375.24L975.17,384.96L982.29,385L1017.88,384.95L1025,382.78" style="vector-effect: none; fill: none; stroke: rgb(228, 211, 84); stroke-opacity: 1; stroke-width: 2px; opacity: 1;"/></g><g class="points"/><g class="text"/></g><g class="trace scatter trace54d467" style="stroke-miterlimit: 2; opacity: 1;"><g class="fills"/><g class="errorbars"/><g class="lines"><path class="js-line" d="M0,385L363.02,384.98L370.14,375.25L377.26,385L384.38,384.88L391.49,384.93L398.61,375.14L405.73,384.99L412.85,384.96L427.08,384.78L434.2,384.21L441.32,384.98L448.44,384.96L512.5,384.96L519.62,384.01L533.85,384.98L540.97,384.58L555.21,384.99L562.33,384.98L690.45,384.74L697.57,384.23L711.81,384.96L718.92,374.9L726.04,385L733.16,384.91L790.1,384.92L797.22,375.08L804.34,374.98L811.46,384.85L839.93,383.94L847.05,384.97L918.23,384.86L925.35,384.08L939.58,384.93L946.7,385L960.94,384.83L968.06,375.11L975.17,384.96L982.29,385L1017.88,384.94L1025,382.75" style="vector-effect: none; fill: none; stroke: rgb(43, 144, 143); stroke-opacity: 1; stroke-width: 2px; opacity: 1;"/></g><g class="points"/><g class="text"/></g><g class="trace scatter traced2f529" style="stroke-miterlimit: 2; opacity: 1;"><g class="fills"/><g class="errorbars"/><g class="lines"><path class="js-line" d="M0,385L363.02,384.98L370.14,375.18L377.26,384.99L384.38,384.87L391.49,384.93L398.61,374.83L405.73,384.99L412.85,384.95L427.08,384.77L434.2,384.19L441.32,384.98L448.44,384.96L512.5,384.95L519.62,383.95L533.85,384.97L540.97,384.56L555.21,384.99L562.33,384.98L690.45,384.74L697.57,384.23L711.81,384.97L718.92,375.08L726.04,385L733.16,384.91L775.87,384.9L782.99,384.99L790.1,384.91L797.22,375L804.34,374.93L811.46,384.86L839.93,383.87L847.05,384.97L918.23,384.86L925.35,384.02L939.58,384.93L946.7,385L960.94,384.83L968.06,374.93L975.17,384.97L982.29,385L1017.88,384.96L1025,382.75" style="vector-effect: none; fill: none; stroke: rgb(244, 91, 91); stroke-opacity: 1; stroke-width: 2px; opacity: 1;"/></g><g class="points"/><g class="text"/></g><g class="trace scatter traceea2f77" style="stroke-miterlimit: 2; opacity: 1;"><g class="fills"/><g class="errorbars"/><g class="lines"><path class="js-line" d="M0,385L363.02,384.98L370.14,375.08L377.26,385L384.38,384.87L391.49,384.94L398.61,375.07L405.73,384.99L412.85,384.95L427.08,384.76L434.2,384.22L441.32,384.98L448.44,384.96L512.5,384.96L519.62,384.02L533.85,384.97L540.97,384.57L555.21,384.99L562.33,384.98L690.45,384.75L697.57,384.24L711.81,384.96L718.92,374.98L726.04,385L733.16,384.91L775.87,384.92L782.99,384.99L790.1,384.92L797.22,374.96L804.34,375.08L811.46,384.86L839.93,383.93L847.05,384.97L918.23,384.87L925.35,384.06L939.58,384.93L946.7,385L960.94,384.83L968.06,375L975.17,384.96L982.29,385L1017.88,384.95L1025,382.81" style="vector-effect: none; fill: none; stroke: rgb(145, 232, 225); stroke-opacity: 1; stroke-width: 2px; opacity: 1;"/></g><g class="points"/><g class="text"/></g><g class="trace scatter traced9840f" style="stroke-miterlimit: 2; opacity: 1;"><g class="fills"/><g class="errorbars"/><g class="lines"><path class="js-line" d="M0,385L363.02,384.98L370.14,375.21L377.26,385L384.38,384.88L391.49,384.94L398.61,375.25L405.73,384.99L412.85,384.95L427.08,384.77L434.2,384.17L441.32,384.98L448.44,384.96L512.5,384.97L519.62,383.97L533.85,384.97L540.97,384.59L555.21,384.99L562.33,384.98L690.45,384.76L697.57,384.26L711.81,384.96L718.92,375.04L726.04,385L733.16,384.91L790.1,384.93L797.22,375L804.34,374.98L811.46,384.87L839.93,383.88L847.05,384.96L918.23,384.86L925.35,384.07L939.58,384.93L946.7,385L960.94,384.82L968.06,375.15L975.17,384.96L982.29,385L1017.88,384.95L1025,382.79" style="vector-effect: none; fill: none; stroke: rgb(124, 181, 236); stroke-opacity: 1; stroke-width: 2px; opacity: 1;"/></g><g class="points"/><g class="text"/></g><g class="trace scatter tracec616cb" style="stroke-miterlimit: 2; opacity: 1;"><g class="fills"/><g class="errorbars"/><g class="lines"><path class="js-line" d="M0,385L363.02,384.98L370.14,375.27L377.26,384.99L384.38,384.87L391.49,384.93L398.61,375.22L405.73,385L412.85,384.95L427.08,384.78L434.2,384.18L441.32,384.98L448.44,384.96L512.5,384.96L519.62,383.98L533.85,384.97L540.97,384.57L555.21,384.99L562.33,384.98L690.45,384.74L697.57,384.23L711.81,384.96L718.92,375.05L726.04,385L733.16,384.91L775.87,384.9L782.99,384.99L790.1,384.92L797.22,375.07L804.34,375.06L811.46,384.86L839.93,383.91L847.05,384.97L918.23,384.87L925.35,384.06L939.58,384.93L946.7,385L960.94,384.83L968.06,375.1L975.17,384.96L982.29,385L1017.88,384.95L1025,382.78" style="vector-effect: none; fill: none; stroke: rgb(67, 67, 72); stroke-opacity: 1; stroke-width: 2px; opacity: 1;"/></g><g class="points"/><g class="text"/></g><g class="trace scatter traced7ea86" style="stroke-miterlimit: 2; opacity: 1;"><g class="fills"/><g class="errorbars"/><g class="lines"><path class="js-line" d="M0,385L363.02,384.98L370.14,375.2L377.26,384.99L384.38,384.87L391.49,384.93L398.61,374.99L405.73,384.99L412.85,384.95L427.08,384.76L434.2,384.19L441.32,384.98L448.44,384.96L512.5,384.96L519.62,383.98L533.85,384.96L540.97,384.58L555.21,384.99L562.33,384.98L690.45,384.74L697.57,384.25L711.81,384.96L718.92,375L726.04,385L733.16,384.91L775.87,384.9L782.99,384.99L790.1,384.92L797.22,375.01L804.34,374.96L811.46,384.86L839.93,383.9L847.05,384.96L918.23,384.86L925.35,384.06L939.58,384.93L946.7,385L960.94,384.82L968.06,375.01L975.17,384.96L982.29,385L1017.88,384.95L1025,382.78" style="vector-effect: none; fill: none; stroke: rgb(144, 237, 125); stroke-opacity: 1; stroke-width: 2px; opacity: 1;"/></g><g class="points"/><g class="text"/></g><g class="trace scatter trace01f858" style="stroke-miterlimit: 2; opacity: 1;"><g class="fills"/><g class="errorbars"/><g class="lines"><path class="js-line" d="M0,385L363.02,384.98L370.14,375.24L377.26,384.99L384.38,384.88L391.49,384.92L398.61,375.16L405.73,384.99L412.85,384.95L427.08,384.76L434.2,384.2L441.32,384.98L448.44,384.96L512.5,384.96L519.62,383.96L533.85,384.97L540.97,384.59L555.21,384.99L562.33,384.97L654.86,384.94L661.98,384.48L683.33,384.93L690.45,384.74L697.57,384.25L704.69,384.96L711.81,384.96L718.92,375.07L726.04,385L733.16,384.9L790.1,384.92L797.22,375.17L804.34,375.05L811.46,384.86L839.93,383.89L847.05,384.96L918.23,384.85L925.35,384.04L939.58,384.92L946.7,385L960.94,384.82L968.06,375.1L975.17,384.96L982.29,385L1017.88,384.95L1025,382.74" style="vector-effect: none; fill: none; stroke: rgb(247, 163, 92); stroke-opacity: 1; stroke-width: 2px; opacity: 1;"/></g><g class="points"/><g class="text"/></g><g class="trace scatter tracefe367b" style="stroke-miterlimit: 2; opacity: 1;"><g class="fills"/><g class="errorbars"/><g class="lines"><path class="js-line" d="M0,385L363.02,384.98L370.14,375.23L377.26,385L384.38,384.86L391.49,384.93L398.61,374.95L405.73,384.99L412.85,384.95L427.08,384.76L434.2,384.17L441.32,384.98L448.44,384.96L512.5,384.96L519.62,383.97L533.85,384.97L540.97,384.57L555.21,384.99L562.33,384.98L690.45,384.73L697.57,384.23L711.81,384.96L718.92,374.93L726.04,385L733.16,384.9L775.87,384.9L782.99,384.99L790.1,384.92L797.22,374.96L804.34,375.02L811.46,384.84L839.93,383.89L847.05,384.97L918.23,384.87L925.35,384.08L939.58,384.93L946.7,385L960.94,384.82L968.06,375.14L975.17,384.96L982.29,385L1017.88,384.96L1025,382.77" style="vector-effect: none; fill: none; stroke: rgb(128, 133, 233); stroke-opacity: 1; stroke-width: 2px; opacity: 1;"/></g><g class="points"/><g class="text"/></g><g class="trace scatter tracec462ac" style="stroke-miterlimit: 2; opacity: 1;"><g class="fills"/><g class="errorbars"/><g class="lines"><path class="js-line" d="M0,385L363.02,384.98L370.14,375.21L377.26,384.99L384.38,384.87L391.49,384.93L398.61,375.24L405.73,384.99L412.85,384.95L427.08,384.77L434.2,384.19L441.32,384.99L448.44,384.96L512.5,384.96L519.62,383.95L533.85,384.97L540.97,384.58L555.21,384.99L562.33,384.98L690.45,384.75L697.57,384.24L711.81,384.97L718.92,375.04L726.04,385L733.16,384.92L775.87,384.9L782.99,384.99L790.1,384.92L797.22,374.94L804.34,375.07L811.46,384.86L839.93,383.87L847.05,384.97L918.23,384.85L925.35,384.06L939.58,384.92L946.7,385L960.94,384.81L968.06,375.21L975.17,384.96L982.29,385L1017.88,384.95L1025,382.78" style="vector-effect: none; fill: none; stroke: rgb(241, 92, 128); stroke-opacity: 1; stroke-width: 2px; opacity: 1;"/></g><g class="points"/><g class="text"/></g><g class="trace scatter trace054d13" style="stroke-miterlimit: 2; opacity: 1;"><g class="fills"/><g class="errorbars"/><g class="lines"><path class="js-line" d="M0,385L363.02,384.98L370.14,374.91L377.26,384.99L384.38,384.87L391.49,384.94L398.61,375.17L405.73,384.99L412.85,384.95L427.08,384.76L434.2,384.19L441.32,384.99L448.44,384.96L512.5,384.95L519.62,383.98L533.85,384.97L540.97,384.59L555.21,384.99L562.33,384.98L690.45,384.74L697.57,384.25L711.81,384.96L718.92,375.17L726.04,385L733.16,384.92L775.87,384.91L782.99,384.99L790.1,384.91L797.22,375.12L804.34,375.25L811.46,384.86L839.93,383.9L847.05,384.97L918.23,384.86L925.35,384.04L939.58,384.93L946.7,385L960.94,384.83L968.06,375.15L975.17,384.96L982.29,385L1017.88,384.96L1025,382.77" style="vector-effect: none; fill: none; stroke: rgb(228, 211, 84); stroke-opacity: 1; stroke-width: 2px; opacity: 1;"/></g><g class="points"/><g class="text"/></g><g class="trace scatter trace39571f" style="stroke-miterlimit: 2; opacity: 1;"><g class="fills"/><g class="errorbars"/><g class="lines"><path class="js-line" d="M0,385L363.02,384.98L370.14,374.87L377.26,384.99L384.38,384.86L391.49,384.93L398.61,375.16L405.73,384.99L412.85,384.94L427.08,384.77L434.2,384.19L441.32,384.98L448.44,384.96L512.5,384.96L519.62,383.97L533.85,384.96L540.97,384.58L555.21,384.99L562.33,384.98L690.45,384.75L697.57,384.26L711.81,384.96L718.92,375.14L726.04,385L733.16,384.91L775.87,384.91L782.99,384.99L790.1,384.91L797.22,374.94L804.34,375.12L811.46,384.86L839.93,383.9L847.05,384.97L918.23,384.86L925.35,384.04L939.58,384.93L946.7,385L960.94,384.83L968.06,375.13L975.17,384.96L982.29,385L1017.88,384.96L1025,382.76" style="vector-effect: none; fill: none; stroke: rgb(43, 144, 143); stroke-opacity: 1; stroke-width: 2px; opacity: 1;"/></g><g class="points"/><g class="text"/></g><g class="trace scatter tracea8119c" style="stroke-miterlimit: 2; opacity: 1;"><g class="fills"/><g class="errorbars"/><g class="lines"><path class="js-line" d="M0,385L363.02,384.98L370.14,374.83L377.26,385L384.38,384.88L391.49,384.93L398.61,375.29L405.73,384.99L412.85,384.95L427.08,384.77L434.2,384.2L441.32,384.98L448.44,384.96L512.5,384.96L519.62,383.98L533.85,384.97L540.97,384.58L555.21,384.99L562.33,384.98L690.45,384.75L697.57,384.25L711.81,384.96L718.92,375.18L726.04,385L733.16,384.9L790.1,384.92L797.22,375.06L804.34,375.05L811.46,384.86L839.93,383.89L847.05,384.97L918.23,384.87L925.35,384.07L939.58,384.92L946.7,385L960.94,384.83L968.06,375.2L975.17,384.96L982.29,385L1017.88,384.96L1025,382.79" style="vector-effect: none; fill: none; stroke: rgb(244, 91, 91); stroke-opacity: 1; stroke-width: 2px; opacity: 1;"/></g><g class="points"/><g class="text"/></g><g class="trace scatter trace5466da" style="stroke-miterlimit: 2; opacity: 1;"><g class="fills"/><g class="errorbars"/><g class="lines"><path class="js-line" d="M0,385L363.02,384.98L370.14,375.02L377.26,384.99L384.38,384.88L391.49,384.93L398.61,375.06L405.73,384.99L412.85,384.95L427.08,384.77L434.2,384.2L441.32,384.98L448.44,384.96L512.5,384.96L519.62,384.01L533.85,384.97L540.97,384.57L555.21,384.99L562.33,384.98L690.45,384.74L697.57,384.24L711.81,384.97L718.92,375.04L726.04,385L733.16,384.91L775.87,384.91L782.99,384.99L790.1,384.93L797.22,374.95L804.34,374.93L811.46,384.86L839.93,383.92L847.05,384.97L918.23,384.86L925.35,384.03L939.58,384.92L946.7,385L960.94,384.82L968.06,375.02L975.17,384.96L982.29,385L1017.88,384.95L1025,382.77" style="vector-effect: none; fill: none; stroke: rgb(145, 232, 225); stroke-opacity: 1; stroke-width: 2px; opacity: 1;"/></g><g class="points"/><g class="text"/></g><g class="trace scatter trace46f354" style="stroke-miterlimit: 2; opacity: 1;"><g class="fills"/><g class="errorbars"/><g class="lines"><path class="js-line" d="M0,385L363.02,384.98L370.14,375.05L377.26,385L384.38,384.88L391.49,384.93L398.61,375.3L405.73,384.99L412.85,384.96L427.08,384.77L434.2,384.21L441.32,384.98L448.44,384.96L512.5,384.96L519.62,383.98L533.85,384.97L540.97,384.58L555.21,384.99L562.33,384.98L690.45,384.75L697.57,384.25L711.81,384.97L718.92,375.08L726.04,385L733.16,384.92L768.75,384.71L775.87,384.91L790.1,384.93L797.22,375.13L804.34,374.93L811.46,384.86L839.93,383.92L847.05,384.97L918.23,384.85L925.35,384.04L939.58,384.93L946.7,385L960.94,384.81L968.06,375.07L975.17,384.96L982.29,385L1017.88,384.96L1025,382.77" style="vector-effect: none; fill: none; stroke: rgb(124, 181, 236); stroke-opacity: 1; stroke-width: 2px; opacity: 1;"/></g><g class="points"/><g class="text"/></g><g class="trace scatter trace52abd8" style="stroke-miterlimit: 2; opacity: 1;"><g class="fills"/><g class="errorbars"/><g class="lines"><path class="js-line" d="M0,385L363.02,384.98L370.14,374.97L377.26,384.99L384.38,384.87L391.49,384.93L398.61,375.23L405.73,384.99L412.85,384.95L427.08,384.79L434.2,384.21L441.32,384.98L448.44,384.96L512.5,384.96L519.62,383.99L533.85,384.97L540.97,384.56L555.21,384.99L562.33,384.98L690.45,384.74L697.57,384.23L711.81,384.96L718.92,375.12L726.04,385L733.16,384.91L775.87,384.9L782.99,384.99L790.1,384.92L797.22,375.15L804.34,375.16L811.46,384.86L839.93,383.94L847.05,384.97L918.23,384.86L925.35,384.08L939.58,384.93L946.7,385L960.94,384.84L968.06,375.18L975.17,384.96L982.29,385L1017.88,384.96L1025,382.77" style="vector-effect: none; fill: none; stroke: rgb(67, 67, 72); stroke-opacity: 1; stroke-width: 2px; opacity: 1;"/></g><g class="points"/><g class="text"/></g><g class="trace scatter trace7c134a" style="stroke-miterlimit: 2; opacity: 1;"><g class="fills"/><g class="errorbars"/><g class="lines"><path class="js-line" d="M0,385L363.02,384.98L370.14,374.89L377.26,384.99L384.38,384.87L391.49,384.93L398.61,375.15L405.73,384.99L412.85,384.95L427.08,384.77L434.2,384.21L441.32,384.98L448.44,384.96L512.5,384.96L519.62,383.98L533.85,384.97L540.97,384.57L555.21,384.99L562.33,384.98L690.45,384.74L697.57,384.23L711.81,384.96L718.92,375.17L726.04,385L733.16,384.91L775.87,384.9L782.99,384.99L790.1,384.92L797.22,375.1L804.34,375.15L811.46,384.85L839.93,383.91L847.05,384.96L918.23,384.87L925.35,384.03L939.58,384.93L946.7,385L960.94,384.82L968.06,375.14L975.17,384.96L982.29,385L1017.88,384.95L1025,382.74" style="vector-effect: none; fill: none; stroke: rgb(144, 237, 125); stroke-opacity: 1; stroke-width: 2px; opacity: 1;"/></g><g class="points"/><g class="text"/></g><g class="trace scatter tracea2d1fe" style="stroke-miterlimit: 2; opacity: 1;"><g class="fills"/><g class="errorbars"/><g class="lines"><path class="js-line" d="M0,385L363.02,384.98L370.14,374.9L377.26,384.99L384.38,384.87L391.49,384.93L398.61,375.23L405.73,384.99L412.85,384.95L427.08,384.76L434.2,384.21L441.32,384.98L448.44,384.96L512.5,384.96L519.62,383.99L533.85,384.97L540.97,384.56L555.21,384.99L562.33,384.98L690.45,384.74L697.57,384.23L711.81,384.96L718.92,375.16L726.04,385L733.16,384.91L775.87,384.91L782.99,384.99L790.1,384.91L797.22,375.1L804.34,375.02L811.46,384.86L839.93,383.91L847.05,384.96L918.23,384.86L925.35,384.03L939.58,384.93L946.7,385L960.94,384.83L968.06,375L975.17,384.96L982.29,385L1017.88,384.95L1025,382.71" style="vector-effect: none; fill: none; stroke: rgb(247, 163, 92); stroke-opacity: 1; stroke-width: 2px; opacity: 1;"/></g><g class="points"/><g class="text"/></g><g class="trace scatter trace01a33e" style="stroke-miterlimit: 2; opacity: 1;"><g class="fills"/><g class="errorbars"/><g class="lines"><path class="js-line" d="M0,385L363.02,384.98L370.14,374.92L377.26,385L384.38,384.87L391.49,384.93L398.61,375.12L405.73,384.99L412.85,384.95L427.08,384.76L434.2,384.19L441.32,384.98L448.44,384.96L512.5,384.96L519.62,383.97L533.85,384.97L540.97,384.56L555.21,384.99L562.33,384.98L690.45,384.75L697.57,384.23L711.81,384.96L718.92,375.01L726.04,385L733.16,384.91L775.87,384.91L782.99,384.99L790.1,384.92L797.22,375.02L804.34,375.02L811.46,384.85L839.93,383.9L847.05,384.97L918.23,384.86L925.35,384.06L939.58,384.93L946.7,385L960.94,384.82L968.06,375.09L975.17,384.96L982.29,385L1017.88,384.96L1025,382.78" style="vector-effect: none; fill: none; stroke: rgb(128, 133, 233); stroke-opacity: 1; stroke-width: 2px; opacity: 1;"/></g><g class="points"/><g class="text"/></g><g class="trace scatter traceb16fdb" style="stroke-miterlimit: 2; opacity: 1;"><g class="fills"/><g class="errorbars"/><g class="lines"><path class="js-line" d="M0,385L363.02,384.98L370.14,374.99L377.26,385L384.38,384.87L391.49,384.93L398.61,375.22L405.73,384.99L412.85,384.95L427.08,384.76L434.2,384.18L441.32,384.98L448.44,384.96L512.5,384.96L519.62,383.95L533.85,384.97L540.97,384.58L555.21,384.99L562.33,384.98L690.45,384.75L697.57,384.26L711.81,384.96L718.92,375L726.04,385L733.16,384.91L775.87,384.9L782.99,384.99L790.1,384.92L797.22,375.06L804.34,375.02L811.46,384.86L839.93,383.86L847.05,384.97L918.23,384.86L925.35,384.02L939.58,384.92L946.7,385L960.94,384.82L968.06,374.98L975.17,384.96L982.29,385L1017.88,384.96L1025,382.76" style="vector-effect: none; fill: none; stroke: rgb(241, 92, 128); stroke-opacity: 1; stroke-width: 2px; opacity: 1;"/></g><g class="points"/><g class="text"/></g><g class="trace scatter trace372d23" style="stroke-miterlimit: 2; opacity: 1;"><g class="fills"/><g class="errorbars"/><g class="lines"><path class="js-line" d="M0,385L363.02,384.97L370.14,374.91L377.26,384.99L384.38,384.87L391.49,384.93L398.61,375.16L405.73,384.99L412.85,384.95L427.08,384.75L434.2,384.18L441.32,384.98L448.44,384.96L512.5,384.96L519.62,383.98L533.85,384.97L540.97,384.57L555.21,384.98L562.33,384.97L654.86,384.95L661.98,384.47L683.33,384.94L690.45,384.74L697.57,384.24L704.69,384.97L711.81,384.96L718.92,375.24L726.04,385L733.16,384.91L775.87,384.89L782.99,384.99L790.1,384.91L797.22,375.09L804.34,375.07L811.46,384.85L818.58,384.53L825.69,385L839.93,383.9L847.05,384.96L918.23,384.85L925.35,384.02L939.58,384.93L946.7,385L960.94,384.82L968.06,375.15L975.17,384.96L982.29,385L1017.88,384.94L1025,382.76" style="vector-effect: none; fill: none; stroke: rgb(228, 211, 84); stroke-opacity: 1; stroke-width: 2px; opacity: 1;"/></g><g class="points"/><g class="text"/></g><g class="trace scatter trace06e068" style="stroke-miterlimit: 2; opacity: 1;"><g class="fills"/><g class="errorbars"/><g class="lines"><path class="js-line" d="M0,385L363.02,384.98L370.14,374.98L377.26,384.99L384.38,384.87L391.49,384.94L398.61,375.24L405.73,384.99L412.85,384.95L427.08,384.77L434.2,384.2L441.32,384.98L448.44,384.96L512.5,384.97L519.62,383.98L533.85,384.97L540.97,384.58L555.21,384.99L562.33,384.98L690.45,384.76L697.57,384.24L711.81,384.96L718.92,375.09L726.04,385L733.16,384.91L790.1,384.92L797.22,375.03L804.34,375.04L811.46,384.86L839.93,383.89L847.05,384.97L918.23,384.86L925.35,384.07L939.58,384.93L946.7,385L960.94,384.82L968.06,375.08L975.17,384.96L982.29,385L1017.88,384.96L1025,382.81" style="vector-effect: none; fill: none; stroke: rgb(43, 144, 143); stroke-opacity: 1; stroke-width: 2px; opacity: 1;"/></g><g class="points"/><g class="text"/></g><g class="trace scatter tracee0fef3" style="stroke-miterlimit: 2; opacity: 1;"><g class="fills"/><g class="errorbars"/><g class="lines"><path class="js-line" d="M0,385L363.02,384.98L370.14,374.95L377.26,385L384.38,384.88L391.49,384.93L398.61,375.12L405.73,384.99L412.85,384.96L427.08,384.77L434.2,384.2L441.32,384.98L448.44,384.96L512.5,384.96L519.62,383.97L533.85,384.97L540.97,384.57L555.21,384.99L562.33,384.98L690.45,384.74L697.57,384.23L711.81,384.97L718.92,375.11L726.04,385L733.16,384.92L775.87,384.9L782.99,384.99L790.1,384.93L797.22,374.93L804.34,375.02L811.46,384.85L839.93,383.9L847.05,384.97L918.23,384.86L925.35,384.06L939.58,384.93L946.7,385L960.94,384.83L968.06,375.15L975.17,384.96L982.29,385L1017.88,384.96L1025,382.76" style="vector-effect: none; fill: none; stroke: rgb(244, 91, 91); stroke-opacity: 1; stroke-width: 2px; opacity: 1;"/></g><g class="points"/><g class="text"/></g><g class="trace scatter traceda3d85" style="stroke-miterlimit: 2; opacity: 1;"><g class="fills"/><g class="errorbars"/><g class="lines"><path class="js-line" d="M0,385L363.02,384.98L370.14,374.97L377.26,384.99L384.38,384.87L391.49,384.93L398.61,375.17L405.73,384.99L412.85,384.95L427.08,384.77L434.2,384.2L441.32,384.98L448.44,384.96L512.5,384.96L519.62,383.99L533.85,384.96L540.97,384.57L555.21,384.99L562.33,384.98L690.45,384.76L697.57,384.25L711.81,384.96L718.92,375.06L726.04,385L733.16,384.91L775.87,384.92L782.99,384.99L790.1,384.92L797.22,375.13L804.34,375.23L811.46,384.86L839.93,383.91L847.05,384.97L918.23,384.87L925.35,384.06L939.58,384.93L946.7,385L960.94,384.82L968.06,375.14L975.17,384.95L982.29,385L1017.88,384.96L1025,382.8" style="vector-effect: none; fill: none; stroke: rgb(145, 232, 225); stroke-opacity: 1; stroke-width: 2px; opacity: 1;"/></g><g class="points"/><g class="text"/></g><g class="trace scatter traced5a9f5" style="stroke-miterlimit: 2; opacity: 1;"><g class="fills"/><g class="errorbars"/><g class="lines"><path class="js-line" d="M0,385L363.02,384.98L370.14,375.05L377.26,384.99L384.38,384.87L391.49,384.93L398.61,375.17L405.73,385L412.85,384.95L427.08,384.76L434.2,384.21L441.32,384.98L448.44,384.97L512.5,384.96L519.62,384L533.85,384.97L540.97,384.57L555.21,384.99L562.33,384.98L690.45,384.75L697.57,384.25L711.81,384.96L718.92,375.11L726.04,385L733.16,384.91L775.87,384.93L782.99,384.99L790.1,384.92L797.22,375.14L804.34,375.21L811.46,384.88L839.93,383.92L847.05,384.97L918.23,384.87L925.35,384.07L939.58,384.93L946.7,385L960.94,384.84L968.06,375.05L975.17,384.96L982.29,385L1017.88,384.97L1025,382.79" style="vector-effect: none; fill: none; stroke: rgb(124, 181, 236); stroke-opacity: 1; stroke-width: 2px; opacity: 1;"/></g><g class="points"/><g class="text"/></g><g class="trace scatter tracec5089e" style="stroke-miterlimit: 2; opacity: 1;"><g class="fills"/><g class="errorbars"/><g class="lines"><path class="js-line" d="M0,385L363.02,384.98L370.14,374.99L377.26,385L384.38,384.87L391.49,384.94L398.61,375.18L405.73,385L412.85,384.95L427.08,384.77L434.2,384.2L441.32,384.98L448.44,384.96L512.5,384.96L519.62,383.99L533.85,384.97L540.97,384.54L555.21,384.99L562.33,384.98L690.45,384.77L697.57,384.23L704.69,384.98L711.81,384.96L718.92,375.19L726.04,385L747.4,384.22L754.51,384.9L790.1,384.92L797.22,375.12L804.34,375.15L811.46,384.86L839.93,383.91L847.05,384.97L918.23,384.87L925.35,384.06L939.58,384.93L946.7,385L960.94,384.81L968.06,375.22L975.17,384.96L982.29,385L1017.88,384.96L1025,382.75" style="vector-effect: none; fill: none; stroke: rgb(67, 67, 72); stroke-opacity: 1; stroke-width: 2px; opacity: 1;"/></g><g class="points"/><g class="text"/></g><g class="trace scatter trace01e8c7" style="stroke-miterlimit: 2; opacity: 1;"><g class="fills"/><g class="errorbars"/><g class="lines"><path class="js-line" d="M0,385L363.02,384.98L370.14,375.16L377.26,384.99L384.38,384.87L391.49,384.93L398.61,375.2L405.73,384.99L412.85,384.95L427.08,384.76L434.2,384.18L441.32,384.98L448.44,384.96L512.5,384.96L519.62,383.98L533.85,384.97L540.97,384.57L555.21,384.99L562.33,384.98L690.45,384.75L697.57,384.23L711.81,384.96L718.92,375.02L726.04,385L733.16,384.91L775.87,384.91L782.99,384.99L790.1,384.92L797.22,375.13L804.34,375.1L811.46,384.85L839.93,383.9L847.05,384.97L918.23,384.86L925.35,384.05L939.58,384.93L946.7,385L960.94,384.82L968.06,375.23L975.17,384.96L982.29,385L1017.88,384.95L1025,382.76" style="vector-effect: none; fill: none; stroke: rgb(144, 237, 125); stroke-opacity: 1; stroke-width: 2px; opacity: 1;"/></g><g class="points"/><g class="text"/></g><g class="trace scatter trace01b88e" style="stroke-miterlimit: 2; opacity: 1;"><g class="fills"/><g class="errorbars"/><g class="lines"><path class="js-line" d="M0,385L363.02,384.98L370.14,375.02L377.26,384.99L384.38,384.88L391.49,384.94L398.61,375.2L405.73,384.99L412.85,384.95L427.08,384.77L434.2,384.19L441.32,384.98L448.44,384.96L512.5,384.97L519.62,383.99L533.85,384.98L540.97,384.57L555.21,384.99L562.33,384.98L690.45,384.77L697.57,384.23L711.81,384.96L718.92,375.11L726.04,385L733.16,384.92L775.87,384.91L782.99,384.99L790.1,384.92L797.22,375.02L804.34,375L811.46,384.86L839.93,383.9L847.05,384.97L918.23,384.85L925.35,384.07L939.58,384.93L946.7,385L960.94,384.83L968.06,375.32L975.17,384.96L982.29,385L1017.88,384.96L1025,382.79" style="vector-effect: none; fill: none; stroke: rgb(247, 163, 92); stroke-opacity: 1; stroke-width: 2px; opacity: 1;"/></g><g class="points"/><g class="text"/></g><g class="trace scatter traced54d1e" style="stroke-miterlimit: 2; opacity: 1;"><g class="fills"/><g class="errorbars"/><g class="lines"><path class="js-line" d="M0,385L363.02,384.98L370.14,375.16L377.26,384.99L384.38,384.87L391.49,384.93L398.61,375.17L405.73,384.99L412.85,384.95L427.08,384.76L434.2,384.19L441.32,384.98L448.44,384.96L512.5,384.96L519.62,384L533.85,384.97L540.97,384.56L555.21,384.99L562.33,384.98L690.45,384.75L697.57,384.22L704.69,384.97L711.81,384.96L718.92,375L726.04,385L754.51,384.89L761.63,384.9L782.99,384.99L790.1,384.92L797.22,375.05L804.34,374.96L811.46,384.85L818.58,384.57L825.69,384.99L832.81,384.57L839.93,383.92L847.05,384.97L918.23,384.86L925.35,384.07L939.58,384.93L946.7,385L960.94,384.82L968.06,375.24L975.17,384.96L982.29,385L1017.88,384.94L1025,382.73" style="vector-effect: none; fill: none; stroke: rgb(128, 133, 233); stroke-opacity: 1; stroke-width: 2px; opacity: 1;"/></g><g class="points"/><g class="text"/></g><g class="trace scatter trace0fb0df" style="stroke-miterlimit: 2; opacity: 1;"><g class="fills"/><g class="errorbars"/><g class="lines"><path class="js-line" d="M0,385L363.02,384.98L370.14,375.06L377.26,384.99L384.38,384.87L391.49,384.93L398.61,375.12L405.73,384.99L412.85,384.95L427.08,384.77L434.2,384.21L441.32,384.98L448.44,384.96L512.5,384.96L519.62,383.98L533.85,384.97L540.97,384.57L555.21,384.99L562.33,384.98L690.45,384.75L697.57,384.24L711.81,384.96L718.92,375.15L726.04,385L733.16,384.9L790.1,384.92L797.22,375.02L804.34,375.07L811.46,384.84L839.93,383.92L847.05,384.96L918.23,384.86L925.35,384.06L939.58,384.92L946.7,385L960.94,384.81L968.06,375.06L975.17,384.95L982.29,385L1017.88,384.95L1025,382.77" style="vector-effect: none; fill: none; stroke: rgb(241, 92, 128); stroke-opacity: 1; stroke-width: 2px; opacity: 1;"/></g><g class="points"/><g class="text"/></g><g class="trace scatter tracecd797e" style="stroke-miterlimit: 2; opacity: 1;"><g class="fills"/><g class="errorbars"/><g class="lines"><path class="js-line" d="M0,385L363.02,384.98L370.14,375.09L377.26,384.99L384.38,384.87L391.49,384.92L398.61,375.25L405.73,384.99L412.85,384.95L427.08,384.77L434.2,384.19L441.32,384.98L448.44,384.96L512.5,384.96L519.62,383.98L533.85,384.97L540.97,384.59L555.21,384.99L562.33,384.98L690.45,384.73L697.57,384.25L711.81,384.96L718.92,375.07L726.04,385L733.16,384.91L775.87,384.89L782.99,384.99L790.1,384.92L797.22,375.06L804.34,374.98L811.46,384.85L839.93,383.9L847.05,384.96L918.23,384.86L925.35,384.04L939.58,384.92L946.7,385L960.94,384.82L968.06,375.15L975.17,384.96L982.29,385L1017.88,384.95L1025,382.75" style="vector-effect: none; fill: none; stroke: rgb(228, 211, 84); stroke-opacity: 1; stroke-width: 2px; opacity: 1;"/></g><g class="points"/><g class="text"/></g><g class="trace scatter trace33543f" style="stroke-miterlimit: 2; opacity: 1;"><g class="fills"/><g class="errorbars"/><g class="lines"><path class="js-line" d="M0,385L363.02,384.98L370.14,375.23L377.26,385L384.38,384.87L391.49,384.93L398.61,375.25L405.73,384.99L412.85,384.95L427.08,384.77L434.2,384.2L441.32,384.98L448.44,384.96L512.5,384.96L519.62,384.01L533.85,384.97L540.97,384.57L555.21,384.99L562.33,384.98L690.45,384.73L697.57,384.25L711.81,384.96L718.92,374.94L726.04,385L733.16,384.91L775.87,384.9L782.99,384.99L790.1,384.92L797.22,374.99L804.34,375.07L811.46,384.84L839.93,383.93L847.05,384.96L918.23,384.86L925.35,384.05L939.58,384.93L946.7,385L960.94,384.82L968.06,374.99L975.17,384.96L982.29,385L1017.88,384.95L1025,382.79" style="vector-effect: none; fill: none; stroke: rgb(43, 144, 143); stroke-opacity: 1; stroke-width: 2px; opacity: 1;"/></g><g class="points"/><g class="text"/></g><g class="trace scatter tracebdee72" style="stroke-miterlimit: 2; opacity: 1;"><g class="fills"/><g class="errorbars"/><g class="lines"><path class="js-line" d="M0,385L363.02,384.98L370.14,374.87L377.26,384.99L384.38,384.89L391.49,384.93L398.61,375.19L405.73,384.99L412.85,384.96L427.08,384.77L434.2,384.2L441.32,384.98L448.44,384.96L512.5,384.97L519.62,383.97L533.85,384.97L540.97,384.6L555.21,384.99L562.33,384.98L690.45,384.74L697.57,384.27L711.81,384.97L718.92,374.93L726.04,385L733.16,384.91L790.1,384.93L797.22,375.13L804.34,374.99L811.46,384.86L839.93,383.9L847.05,384.97L918.23,384.86L925.35,384.04L939.58,384.93L946.7,385L960.94,384.83L968.06,375.05L975.17,384.97L982.29,385L1017.88,384.95L1025,382.75" style="vector-effect: none; fill: none; stroke: rgb(244, 91, 91); stroke-opacity: 1; stroke-width: 2px; opacity: 1;"/></g><g class="points"/><g class="text"/></g><g class="trace scatter trace8cd523" style="stroke-miterlimit: 2; opacity: 1;"><g class="fills"/><g class="errorbars"/><g class="lines"><path class="js-line" d="M0,385L363.02,384.98L370.14,375.06L377.26,385L384.38,384.88L391.49,384.93L398.61,375.23L405.73,385L412.85,384.96L427.08,384.77L434.2,384.21L441.32,384.98L448.44,384.96L512.5,384.96L519.62,383.99L533.85,384.97L540.97,384.58L555.21,384.99L562.33,384.98L690.45,384.74L697.57,384.26L711.81,384.96L718.92,375.09L726.04,385L733.16,384.91L775.87,384.89L782.99,384.99L790.1,384.92L797.22,375.09L804.34,375.16L811.46,384.85L839.93,383.93L847.05,384.96L918.23,384.86L925.35,384.05L939.58,384.93L946.7,385L960.94,384.82L968.06,375.16L975.17,384.96L982.29,385L1017.88,384.95L1025,382.81" style="vector-effect: none; fill: none; stroke: rgb(145, 232, 225); stroke-opacity: 1; stroke-width: 2px; opacity: 1;"/></g><g class="points"/><g class="text"/></g><g class="trace scatter trace819321" style="stroke-miterlimit: 2; opacity: 1;"><g class="fills"/><g class="errorbars"/><g class="lines"><path class="js-line" d="M0,385L363.02,384.98L370.14,375.01L377.26,385L384.38,384.87L391.49,384.94L398.61,375.34L405.73,384.99L412.85,384.95L427.08,384.76L434.2,384.2L441.32,384.98L448.44,384.97L512.5,384.96L519.62,383.97L533.85,384.97L540.97,384.56L555.21,384.99L562.33,384.98L690.45,384.77L697.57,384.22L704.69,384.97L711.81,384.96L718.92,375.11L726.04,385L754.51,384.89L761.63,384.92L775.87,384.89L782.99,384.99L790.1,384.92L797.22,375.01L804.34,375.18L811.46,384.85L839.93,383.87L847.05,384.95L918.23,384.87L925.35,384.06L939.58,384.93L946.7,385L960.94,384.83L968.06,375.24L975.17,384.96L982.29,385L1017.88,384.94L1025,382.76" style="vector-effect: none; fill: none; stroke: rgb(124, 181, 236); stroke-opacity: 1; stroke-width: 2px; opacity: 1;"/></g><g class="points"/><g class="text"/></g><g class="trace scatter traced95d01" style="stroke-miterlimit: 2; opacity: 1;"><g class="fills"/><g class="errorbars"/><g class="lines"><path class="js-line" d="M0,385L363.02,384.98L370.14,375.19L377.26,384.99L384.38,384.87L391.49,384.94L398.61,375.2L405.73,384.99L412.85,384.95L427.08,384.77L434.2,384.2L441.32,384.98L448.44,384.96L512.5,384.96L519.62,383.99L533.85,384.97L540.97,384.58L555.21,384.99L562.33,384.98L690.45,384.76L697.57,384.25L711.81,384.96L718.92,375.03L726.04,385L733.16,384.92L775.87,384.91L782.99,384.99L790.1,384.92L797.22,375L804.34,374.98L811.46,384.86L839.93,383.9L847.05,384.97L918.23,384.87L925.35,384.05L939.58,384.94L946.7,385L960.94,384.83L968.06,374.99L975.17,384.96L982.29,385L1017.88,384.96L1025,382.8" style="vector-effect: none; fill: none; stroke: rgb(67, 67, 72); stroke-opacity: 1; stroke-width: 2px; opacity: 1;"/></g><g class="points"/><g class="text"/></g><g class="trace scatter trace2a390b" style="stroke-miterlimit: 2; opacity: 1;"><g class="fills"/><g class="errorbars"/><g class="lines"><path class="js-line" d="M0,385L363.02,384.98L370.14,375.02L377.26,384.99L384.38,384.88L391.49,384.93L398.61,375.23L405.73,384.99L412.85,384.96L427.08,384.76L434.2,384.21L441.32,384.98L448.44,384.96L512.5,384.96L519.62,383.99L533.85,384.97L540.97,384.57L555.21,384.99L562.33,384.98L690.45,384.75L697.57,384.23L711.81,384.97L718.92,375.07L726.04,385L733.16,384.91L775.87,384.9L782.99,384.99L790.1,384.92L797.22,374.95L804.34,375.09L811.46,384.86L839.93,383.92L847.05,384.97L918.23,384.87L925.35,384.06L939.58,384.93L946.7,385L960.94,384.83L968.06,375.1L975.17,384.96L982.29,385L1017.88,384.95L1025,382.77" style="vector-effect: none; fill: none; stroke: rgb(144, 237, 125); stroke-opacity: 1; stroke-width: 2px; opacity: 1;"/></g><g class="points"/><g class="text"/></g><g class="trace scatter traceb7a9be" style="stroke-miterlimit: 2; opacity: 1;"><g class="fills"/><g class="errorbars"/><g class="lines"><path class="js-line" d="M0,385L363.02,384.98L370.14,375L377.26,385L384.38,384.87L391.49,384.92L398.61,375.2L405.73,384.99L412.85,384.95L427.08,384.77L434.2,384.19L441.32,384.98L448.44,384.95L512.5,384.96L519.62,383.97L533.85,384.97L540.97,384.57L555.21,384.99L562.33,384.98L690.45,384.72L697.57,384.23L711.81,384.96L718.92,375.01L726.04,385L733.16,384.9L790.1,384.92L797.22,374.97L804.34,375.03L811.46,384.85L839.93,383.88L847.05,384.96L918.23,384.86L925.35,384.02L939.58,384.92L946.7,385L960.94,384.82L968.06,375.16L975.17,384.96L982.29,385L1017.88,384.94L1025,382.74" style="vector-effect: none; fill: none; stroke: rgb(247, 163, 92); stroke-opacity: 1; stroke-width: 2px; opacity: 1;"/></g><g class="points"/><g class="text"/></g><g class="trace scatter tracec0257c" style="stroke-miterlimit: 2; opacity: 1;"><g class="fills"/><g class="errorbars"/><g class="lines"><path class="js-line" d="M0,385L363.02,384.98L370.14,375.1L377.26,385L384.38,384.88L391.49,384.93L398.61,375.24L405.73,384.99L412.85,384.95L427.08,384.77L434.2,384.18L441.32,384.98L448.44,384.96L512.5,384.96L519.62,383.98L533.85,384.97L540.97,384.58L555.21,384.99L562.33,384.98L690.45,384.76L697.57,384.27L711.81,384.96L718.92,375.03L726.04,385L733.16,384.91L790.1,384.92L797.22,374.98L804.34,375.08L811.46,384.86L839.93,383.91L847.05,384.96L918.23,384.86L925.35,384.05L939.58,384.93L946.7,385L960.94,384.83L968.06,375.11L975.17,384.96L982.29,385L1017.88,384.95L1025,382.81" style="vector-effect: none; fill: none; stroke: rgb(128, 133, 233); stroke-opacity: 1; stroke-width: 2px; opacity: 1;"/></g><g class="points"/><g class="text"/></g><g class="trace scatter trace22d0c8" style="stroke-miterlimit: 2; opacity: 1;"><g class="fills"/><g class="errorbars"/><g class="lines"><path class="js-line" d="M0,385L363.02,384.98L370.14,375.05L377.26,385L384.38,384.86L391.49,384.93L398.61,375.3L405.73,384.99L412.85,384.95L427.08,384.76L434.2,384.19L441.32,384.98L448.44,384.96L512.5,384.96L519.62,383.98L533.85,384.97L540.97,384.56L555.21,384.99L562.33,384.98L690.45,384.76L697.57,384.24L711.81,384.96L718.92,374.96L726.04,385L733.16,384.91L775.87,384.9L782.99,384.99L790.1,384.91L797.22,375.1L804.34,374.95L811.46,384.85L839.93,383.91L847.05,384.97L918.23,384.86L925.35,384.04L939.58,384.93L946.7,385L960.94,384.83L968.06,375.21L975.17,384.96L982.29,385L1017.88,384.96L1025,382.77" style="vector-effect: none; fill: none; stroke: rgb(241, 92, 128); stroke-opacity: 1; stroke-width: 2px; opacity: 1;"/></g><g class="points"/><g class="text"/></g><g class="trace scatter trace070b42" style="stroke-miterlimit: 2; opacity: 1;"><g class="fills"/><g class="errorbars"/><g class="lines"><path class="js-line" d="M0,385L363.02,384.98L370.14,375.08L377.26,384.99L384.38,384.87L391.49,384.92L398.61,375.19L405.73,384.99L412.85,384.95L427.08,384.77L434.2,384.22L441.32,384.98L448.44,384.96L512.5,384.96L519.62,383.99L533.85,384.97L540.97,384.58L555.21,384.99L562.33,384.98L690.45,384.74L697.57,384.25L711.81,384.96L718.92,374.98L726.04,385L733.16,384.9L790.1,384.92L797.22,375.02L804.34,374.99L811.46,384.84L839.93,383.91L847.05,384.96L918.23,384.86L925.35,384.05L939.58,384.92L946.7,385L960.94,384.83L968.06,375.04L975.17,384.96L982.29,385L1017.88,384.95L1025,382.78" style="vector-effect: none; fill: none; stroke: rgb(228, 211, 84); stroke-opacity: 1; stroke-width: 2px; opacity: 1;"/></g><g class="points"/><g class="text"/></g><g class="trace scatter trace0d2aa3" style="stroke-miterlimit: 2; opacity: 1;"><g class="fills"/><g class="errorbars"/><g class="lines"><path class="js-line" d="M0,385L363.02,384.98L370.14,375.04L377.26,384.99L384.38,384.88L391.49,384.93L398.61,375.15L405.73,384.99L412.85,384.95L427.08,384.79L434.2,384.2L441.32,384.98L448.44,384.96L512.5,384.96L519.62,384.01L533.85,384.97L540.97,384.59L555.21,384.99L562.33,384.98L690.45,384.74L697.57,384.26L711.81,384.96L718.92,375.04L726.04,385L733.16,384.91L775.87,384.9L782.99,384.99L790.1,384.92L797.22,374.96L804.34,375.04L811.46,384.86L839.93,383.92L847.05,384.96L918.23,384.86L925.35,384.05L939.58,384.92L946.7,385L960.94,384.83L968.06,375.12L975.17,384.96L982.29,385L1017.88,384.95L1025,382.8" style="vector-effect: none; fill: none; stroke: rgb(43, 144, 143); stroke-opacity: 1; stroke-width: 2px; opacity: 1;"/></g><g class="points"/><g class="text"/></g><g class="trace scatter trace865341" style="stroke-miterlimit: 2; opacity: 1;"><g class="fills"/><g class="errorbars"/><g class="lines"><path class="js-line" d="M0,385L363.02,384.98L370.14,375.01L377.26,384.99L384.38,384.87L391.49,384.93L398.61,375.33L405.73,384.99L412.85,384.95L427.08,384.76L434.2,384.2L441.32,384.98L448.44,384.96L512.5,384.96L519.62,383.98L533.85,384.97L540.97,384.55L555.21,384.98L562.33,384.98L690.45,384.76L697.57,384.22L704.69,384.97L711.81,384.96L718.92,375.06L726.04,385L754.51,384.89L761.63,384.9L782.99,384.99L790.1,384.92L797.22,374.99L804.34,375.08L811.46,384.86L818.58,384.57L825.69,384.99L832.81,384.58L839.93,383.9L847.05,384.97L918.23,384.86L925.35,384.07L939.58,384.93L946.7,385L960.94,384.83L968.06,375.07L975.17,384.96L982.29,385L1017.88,384.95L1025,382.77" style="vector-effect: none; fill: none; stroke: rgb(244, 91, 91); stroke-opacity: 1; stroke-width: 2px; opacity: 1;"/></g><g class="points"/><g class="text"/></g><g class="trace scatter trace9bc21d" style="stroke-miterlimit: 2; opacity: 1;"><g class="fills"/><g class="errorbars"/><g class="lines"><path class="js-line" d="M0,385L363.02,384.98L370.14,374.88L377.26,384.99L384.38,384.87L391.49,384.93L398.61,375.24L405.73,384.99L412.85,384.95L427.08,384.76L434.2,384.18L441.32,384.98L448.44,384.96L512.5,384.96L519.62,383.97L533.85,384.97L540.97,384.57L555.21,384.99L562.33,384.98L690.45,384.74L697.57,384.23L711.81,384.96L718.92,375.08L726.04,385L733.16,384.9L790.1,384.91L797.22,375.18L804.34,375.2L811.46,384.85L839.93,383.9L847.05,384.97L918.23,384.87L925.35,384.04L939.58,384.93L946.7,385L960.94,384.83L968.06,375.19L975.17,384.96L982.29,385L1017.88,384.96L1025,382.77" style="vector-effect: none; fill: none; stroke: rgb(145, 232, 225); stroke-opacity: 1; stroke-width: 2px; opacity: 1;"/></g><g class="points"/><g class="text"/></g><g class="trace scatter trace763609" style="stroke-miterlimit: 2; opacity: 1;"><g class="fills"/><g class="errorbars"/><g class="lines"><path class="js-line" d="M0,385L363.02,384.98L370.14,374.94L377.26,384.99L384.38,384.87L391.49,384.93L398.61,375.28L405.73,385L412.85,384.94L427.08,384.76L434.2,384.19L441.32,384.98L448.44,384.96L512.5,384.96L519.62,383.97L533.85,384.97L540.97,384.59L555.21,384.99L562.33,384.98L690.45,384.75L697.57,384.25L711.81,384.96L718.92,374.94L726.04,385L733.16,384.91L790.1,384.92L797.22,375.08L804.34,375.03L811.46,384.86L839.93,383.89L847.05,384.97L918.23,384.86L925.35,384.07L939.58,384.93L946.7,385L960.94,384.83L968.06,375.12L975.17,384.96L982.29,385L1017.88,384.95L1025,382.78" style="vector-effect: none; fill: none; stroke: rgb(124, 181, 236); stroke-opacity: 1; stroke-width: 2px; opacity: 1;"/></g><g class="points"/><g class="text"/></g><g class="trace scatter trace52863f" style="stroke-miterlimit: 2; opacity: 1;"><g class="fills"/><g class="errorbars"/><g class="lines"><path class="js-line" d="M0,385L363.02,384.98L370.14,375.14L377.26,384.99L384.38,384.87L391.49,384.93L398.61,375.11L405.73,385L412.85,384.95L427.08,384.76L434.2,384.22L441.32,384.98L448.44,384.96L512.5,384.96L519.62,384.01L533.85,384.97L540.97,384.58L555.21,384.99L562.33,384.98L690.45,384.74L697.57,384.24L711.81,384.96L718.92,375.02L726.04,385L733.16,384.91L775.87,384.9L782.99,384.99L790.1,384.92L797.22,374.94L804.34,375.02L811.46,384.86L839.93,383.91L847.05,384.97L918.23,384.87L925.35,384.07L939.58,384.92L946.7,385L960.94,384.83L968.06,375.15L975.17,384.96L982.29,385L1017.88,384.95L1025,382.77" style="vector-effect: none; fill: none; stroke: rgb(67, 67, 72); stroke-opacity: 1; stroke-width: 2px; opacity: 1;"/></g><g class="points"/><g class="text"/></g><g class="trace scatter tracedea50b" style="stroke-miterlimit: 2; opacity: 1;"><g class="fills"/><g class="errorbars"/><g class="lines"><path class="js-line" d="M0,385L363.02,384.98L370.14,374.89L377.26,384.99L384.38,384.87L391.49,384.93L398.61,375.23L405.73,384.99L412.85,384.95L427.08,384.78L434.2,384.17L441.32,384.98L448.44,384.96L512.5,384.96L519.62,383.98L533.85,384.97L540.97,384.58L555.21,384.99L562.33,384.98L690.45,384.74L697.57,384.24L711.81,384.96L718.92,375.16L726.04,385L733.16,384.91L775.87,384.92L782.99,384.99L790.1,384.92L797.22,374.98L804.34,375.16L811.46,384.87L839.93,383.89L847.05,384.97L918.23,384.85L925.35,384.08L939.58,384.93L946.7,385L960.94,384.82L968.06,375.17L975.17,384.95L982.29,385L1017.88,384.96L1025,382.8" style="vector-effect: none; fill: none; stroke: rgb(144, 237, 125); stroke-opacity: 1; stroke-width: 2px; opacity: 1;"/></g><g class="points"/><g class="text"/></g><g class="trace scatter traceee9bad" style="stroke-miterlimit: 2; opacity: 1;"><g class="fills"/><g class="errorbars"/><g class="lines"><path class="js-line" d="M0,385L363.02,384.98L370.14,375.01L377.26,384.99L384.38,384.87L391.49,384.93L398.61,375.22L405.73,384.99L412.85,384.95L427.08,384.78L434.2,384.17L441.32,384.98L448.44,384.96L512.5,384.95L519.62,383.96L533.85,384.97L540.97,384.59L555.21,384.99L562.33,384.98L690.45,384.75L697.57,384.25L711.81,384.96L718.92,374.97L726.04,385L733.16,384.91L775.87,384.9L782.99,384.99L790.1,384.92L797.22,375.09L804.34,375.22L811.46,384.85L839.93,383.89L847.05,384.97L918.23,384.85L925.35,384.07L939.58,384.93L946.7,385L960.94,384.81L968.06,375.16L975.17,384.96L982.29,385L1017.88,384.96L1025,382.81" style="vector-effect: none; fill: none; stroke: rgb(247, 163, 92); stroke-opacity: 1; stroke-width: 2px; opacity: 1;"/></g><g class="points"/><g class="text"/></g><g class="trace scatter trace0a5f8f" style="stroke-miterlimit: 2; opacity: 1;"><g class="fills"/><g class="errorbars"/><g class="lines"><path class="js-line" d="M0,385L363.02,384.98L370.14,375.09L377.26,384.99L384.38,384.87L391.49,384.92L398.61,375.3L405.73,384.99L412.85,384.95L427.08,384.76L434.2,384.18L441.32,384.98L448.44,384.96L512.5,384.96L519.62,383.98L533.85,384.97L540.97,384.56L555.21,384.98L562.33,384.97L654.86,384.94L661.98,384.46L683.33,384.94L690.45,384.73L697.57,384.24L704.69,384.97L711.81,384.96L718.92,375.06L726.04,385L733.16,384.9L790.1,384.91L797.22,374.95L804.34,375.04L811.46,384.85L839.93,383.91L847.05,384.97L918.23,384.86L925.35,384.05L939.58,384.92L946.7,385L960.94,384.83L968.06,374.97L975.17,384.96L982.29,385L1017.88,384.96L1025,382.77" style="vector-effect: none; fill: none; stroke: rgb(128, 133, 233); stroke-opacity: 1; stroke-width: 2px; opacity: 1;"/></g><g class="points"/><g class="text"/></g><g class="trace scatter tracedc7dfb" style="stroke-miterlimit: 2; opacity: 1;"><g class="fills"/><g class="errorbars"/><g class="lines"><path class="js-line" d="M0,385L363.02,384.98L370.14,375.01L377.26,385L384.38,384.87L391.49,384.93L398.61,375.22L405.73,384.99L412.85,384.95L427.08,384.78L434.2,384.2L441.32,384.98L448.44,384.96L512.5,384.96L519.62,383.99L533.85,384.97L540.97,384.58L555.21,384.99L562.33,384.98L690.45,384.74L697.57,384.25L711.81,384.96L718.92,374.98L726.04,385L733.16,384.91L775.87,384.91L782.99,384.99L790.1,384.92L797.22,375.27L804.34,375.06L811.46,384.85L839.93,383.92L847.05,384.97L918.23,384.87L925.35,384.07L939.58,384.93L946.7,385L960.94,384.82L968.06,375.19L975.17,384.96L982.29,385L1017.88,384.95L1025,382.78" style="vector-effect: none; fill: none; stroke: rgb(241, 92, 128); stroke-opacity: 1; stroke-width: 2px; opacity: 1;"/></g><g class="points"/><g class="text"/></g><g class="trace scatter trace37ed3e" style="stroke-miterlimit: 2; opacity: 1;"><g class="fills"/><g class="errorbars"/><g class="lines"><path class="js-line" d="M0,385L363.02,384.98L370.14,375.04L377.26,384.99L384.38,384.87L391.49,384.93L398.61,375.16L405.73,384.99L412.85,384.95L427.08,384.75L434.2,384.2L441.32,384.98L448.44,384.96L512.5,384.96L519.62,383.97L533.85,384.97L540.97,384.57L555.21,384.99L562.33,384.98L690.45,384.75L697.57,384.25L711.81,384.96L718.92,374.87L726.04,385L733.16,384.91L775.87,384.9L782.99,384.99L790.1,384.92L797.22,374.97L804.34,375.1L811.46,384.86L839.93,383.89L847.05,384.97L918.23,384.86L925.35,384.06L939.58,384.93L946.7,385L960.94,384.83L968.06,375.06L975.17,384.96L982.29,385L1017.88,384.95L1025,382.75" style="vector-effect: none; fill: none; stroke: rgb(228, 211, 84); stroke-opacity: 1; stroke-width: 2px; opacity: 1;"/></g><g class="points"/><g class="text"/></g><g class="trace scatter trace8fa34d" style="stroke-miterlimit: 2; opacity: 1;"><g class="fills"/><g class="errorbars"/><g class="lines"><path class="js-line" d="M0,385L363.02,384.98L370.14,375.02L377.26,385L384.38,384.87L391.49,384.93L398.61,375.22L405.73,385L412.85,384.96L427.08,384.76L434.2,384.2L441.32,384.98L448.44,384.96L512.5,384.97L519.62,383.98L533.85,384.97L540.97,384.57L555.21,384.99L562.33,384.98L690.45,384.74L697.57,384.25L711.81,384.97L718.92,374.89L726.04,385L733.16,384.91L775.87,384.9L782.99,384.99L790.1,384.92L797.22,375.05L804.34,375.05L811.46,384.85L839.93,383.91L847.05,384.97L918.23,384.86L925.35,384.05L939.58,384.92L946.7,385L960.94,384.82L968.06,375.16L975.17,384.96L982.29,385L1017.88,384.95L1025,382.78" style="vector-effect: none; fill: none; stroke: rgb(43, 144, 143); stroke-opacity: 1; stroke-width: 2px; opacity: 1;"/></g><g class="points"/><g class="text"/></g><g class="trace scatter trace2e9594" style="stroke-miterlimit: 2; opacity: 1;"><g class="fills"/><g class="errorbars"/><g class="lines"><path class="js-line" d="M0,385L363.02,384.98L370.14,375L377.26,384.99L384.38,384.87L391.49,384.93L398.61,375.15L405.73,384.99L412.85,384.95L427.08,384.78L434.2,384.22L441.32,384.98L448.44,384.96L512.5,384.96L519.62,384.02L533.85,384.97L540.97,384.57L555.21,384.99L562.33,384.98L690.45,384.75L697.57,384.24L711.81,384.96L718.92,375.06L726.04,385L733.16,384.91L775.87,384.92L782.99,384.99L790.1,384.92L797.22,375.03L804.34,375.12L811.46,384.86L839.93,383.94L847.05,384.97L918.23,384.86L925.35,384.07L939.58,384.92L946.7,385L960.94,384.83L968.06,375.09L975.17,384.95L982.29,385L1017.88,384.97L1025,382.81" style="vector-effect: none; fill: none; stroke: rgb(244, 91, 91); stroke-opacity: 1; stroke-width: 2px; opacity: 1;"/></g><g class="points"/><g class="text"/></g><g class="trace scatter trace12554e" style="stroke-miterlimit: 2; opacity: 1;"><g class="fills"/><g class="errorbars"/><g class="lines"><path class="js-line" d="M0,385L363.02,384.98L370.14,374.98L377.26,384.99L384.38,384.87L391.49,384.93L398.61,375.08L405.73,385L412.85,384.95L427.08,384.77L434.2,384.18L441.32,384.98L448.44,384.96L512.5,384.97L519.62,383.99L533.85,384.97L540.97,384.57L555.21,384.99L562.33,384.98L690.45,384.74L697.57,384.24L711.81,384.96L718.92,375.04L726.04,385L733.16,384.91L775.87,384.91L782.99,384.99L790.1,384.92L797.22,375L804.34,375.19L811.46,384.86L839.93,383.9L847.05,384.97L918.23,384.86L925.35,384.07L939.58,384.93L946.7,385L960.94,384.83L968.06,375.03L975.17,384.96L982.29,385L1017.88,384.95L1025,382.81" style="vector-effect: none; fill: none; stroke: rgb(145, 232, 225); stroke-opacity: 1; stroke-width: 2px; opacity: 1;"/></g><g class="points"/><g class="text"/></g><g class="trace scatter trace5170b8" style="stroke-miterlimit: 2; opacity: 1;"><g class="fills"/><g class="errorbars"/><g class="lines"><path class="js-line" d="M0,385L363.02,384.98L370.14,375.05L377.26,385L384.38,384.88L391.49,384.93L398.61,375.04L405.73,384.99L412.85,384.95L427.08,384.77L434.2,384.18L441.32,384.98L448.44,384.97L512.5,384.96L519.62,383.97L533.85,384.97L540.97,384.59L555.21,384.99L562.33,384.98L690.45,384.74L697.57,384.29L711.81,384.96L718.92,374.81L726.04,385L733.16,384.9L790.1,384.92L797.22,375.16L804.34,375.27L811.46,384.86L839.93,383.88L847.05,384.97L918.23,384.88L925.35,384.04L939.58,384.93L946.7,385L960.94,384.85L968.06,375.02L975.17,384.96L982.29,385L1017.88,384.96L1025,382.88" style="vector-effect: none; fill: none; stroke: rgb(124, 181, 236); stroke-opacity: 1; stroke-width: 2px; opacity: 1;"/></g><g class="points"/><g class="text"/></g><g class="trace scatter trace54e652" style="stroke-miterlimit: 2; opacity: 1;"><g class="fills"/><g class="errorbars"/><g class="lines"><path class="js-line" d="M0,385L363.02,384.98L370.14,374.92L377.26,385L384.38,384.86L391.49,384.93L398.61,375.22L405.73,385L412.85,384.96L427.08,384.75L434.2,384.19L441.32,384.98L448.44,384.97L512.5,384.96L519.62,383.98L533.85,384.97L540.97,384.59L555.21,384.99L562.33,384.98L690.45,384.74L697.57,384.24L711.81,384.96L718.92,375.06L726.04,385L733.16,384.91L775.87,384.91L782.99,384.99L790.1,384.92L797.22,375.03L804.34,375.17L811.46,384.86L818.58,384.55L825.69,385L839.93,383.9L847.05,384.96L918.23,384.87L925.35,384.07L939.58,384.92L946.7,385L960.94,384.84L968.06,375.14L975.17,384.96L982.29,385L1017.88,384.95L1025,382.77" style="vector-effect: none; fill: none; stroke: rgb(67, 67, 72); stroke-opacity: 1; stroke-width: 2px; opacity: 1;"/></g><g class="points"/><g class="text"/></g><g class="trace scatter trace065149" style="stroke-miterlimit: 2; opacity: 1;"><g class="fills"/><g class="errorbars"/><g class="lines"><path class="js-line" d="M0,385L363.02,384.98L370.14,375.03L377.26,384.99L384.38,384.88L391.49,384.93L398.61,375.04L405.73,385L412.85,384.95L427.08,384.75L434.2,384.2L441.32,384.98L448.44,384.96L512.5,384.96L519.62,383.98L533.85,384.97L540.97,384.58L555.21,384.99L562.33,384.98L690.45,384.75L697.57,384.27L711.81,384.96L718.92,374.95L726.04,385L733.16,384.91L775.87,384.91L782.99,384.99L790.1,384.92L797.22,374.97L804.34,375.13L811.46,384.86L818.58,384.55L825.69,385L839.93,383.89L847.05,384.97L918.23,384.86L925.35,384.06L939.58,384.92L946.7,385L960.94,384.82L968.06,374.93L975.17,384.96L982.29,385L1017.88,384.96L1025,382.8" style="vector-effect: none; fill: none; stroke: rgb(144, 237, 125); stroke-opacity: 1; stroke-width: 2px; opacity: 1;"/></g><g class="points"/><g class="text"/></g><g class="trace scatter trace06c24c" style="stroke-miterlimit: 2; opacity: 1;"><g class="fills"/><g class="errorbars"/><g class="lines"><path class="js-line" d="M0,385L363.02,384.98L370.14,374.9L377.26,384.99L384.38,384.87L391.49,384.93L398.61,375.22L405.73,385L412.85,384.95L427.08,384.76L434.2,384.2L441.32,384.98L448.44,384.96L512.5,384.96L519.62,383.99L533.85,384.96L540.97,384.57L555.21,384.99L562.33,384.98L690.45,384.74L697.57,384.26L711.81,384.96L718.92,374.95L726.04,385L733.16,384.91L775.87,384.9L782.99,384.99L790.1,384.92L797.22,375.17L804.34,375.11L811.46,384.85L839.93,383.91L847.05,384.97L918.23,384.86L925.35,384.03L939.58,384.93L946.7,385L960.94,384.82L968.06,375.05L975.17,384.96L982.29,385L1017.88,384.95L1025,382.79" style="vector-effect: none; fill: none; stroke: rgb(247, 163, 92); stroke-opacity: 1; stroke-width: 2px; opacity: 1;"/></g><g class="points"/><g class="text"/></g><g class="trace scatter traceb9b246" style="stroke-miterlimit: 2; opacity: 1;"><g class="fills"/><g class="errorbars"/><g class="lines"><path class="js-line" d="M0,385L363.02,384.98L370.14,375.24L377.26,385L384.38,384.87L391.49,384.92L398.61,375.22L405.73,385L412.85,384.95L427.08,384.76L434.2,384.2L441.32,384.98L448.44,384.96L512.5,384.96L519.62,383.98L533.85,384.97L540.97,384.57L555.21,384.99L562.33,384.98L690.45,384.73L697.57,384.25L711.81,384.96L718.92,375.02L726.04,385L733.16,384.91L775.87,384.9L782.99,384.99L790.1,384.91L797.22,375.11L804.34,374.98L811.46,384.87L818.58,384.55L825.69,385L839.93,383.91L847.05,384.97L918.23,384.86L925.35,384.03L939.58,384.92L946.7,385L960.94,384.83L968.06,375.06L975.17,384.96L982.29,385L1017.88,384.96L1025,382.74" style="vector-effect: none; fill: none; stroke: rgb(128, 133, 233); stroke-opacity: 1; stroke-width: 2px; opacity: 1;"/></g><g class="points"/><g class="text"/></g><g class="trace scatter trace4aa144" style="stroke-miterlimit: 2; opacity: 1;"><g class="fills"/><g class="errorbars"/><g class="lines"><path class="js-line" d="M0,385L363.02,384.98L370.14,375.15L377.26,384.99L384.38,384.87L391.49,384.92L398.61,375.12L405.73,384.99L412.85,384.95L427.08,384.76L434.2,384.19L441.32,384.98L448.44,384.96L512.5,384.96L519.62,383.96L533.85,384.97L540.97,384.57L555.21,384.99L562.33,384.98L690.45,384.73L697.57,384.22L704.69,384.97L711.81,384.96L718.92,374.96L726.04,385L747.4,384.22L754.51,384.89L790.1,384.92L797.22,375.01L804.34,375.1L811.46,384.87L818.58,384.55L825.69,384.99L839.93,383.89L847.05,384.97L918.23,384.86L925.35,384.07L939.58,384.92L946.7,385L960.94,384.83L968.06,374.98L975.17,384.95L982.29,385L1017.88,384.96L1025,382.74" style="vector-effect: none; fill: none; stroke: rgb(241, 92, 128); stroke-opacity: 1; stroke-width: 2px; opacity: 1;"/></g><g class="points"/><g class="text"/></g><g class="trace scatter tracec44c06" style="stroke-miterlimit: 2; opacity: 1;"><g class="fills"/><g class="errorbars"/><g class="lines"><path class="js-line" d="M0,385L363.02,384.98L370.14,375.15L377.26,384.99L384.38,384.88L391.49,384.93L398.61,375.15L405.73,384.99L412.85,384.95L427.08,384.78L434.2,384.18L441.32,384.98L448.44,384.96L512.5,384.96L519.62,383.96L533.85,384.97L540.97,384.58L555.21,384.99L562.33,384.98L690.45,384.73L697.57,384.25L711.81,384.96L718.92,375.02L726.04,385L733.16,384.9L790.1,384.92L797.22,375.04L804.34,374.98L811.46,384.86L839.93,383.88L847.05,384.97L918.23,384.86L925.35,384.07L939.58,384.93L946.7,385L960.94,384.83L968.06,375.24L975.17,384.96L982.29,385L1017.88,384.95L1025,382.82" style="vector-effect: none; fill: none; stroke: rgb(228, 211, 84); stroke-opacity: 1; stroke-width: 2px; opacity: 1;"/></g><g class="points"/><g class="text"/></g><g class="trace scatter tracee525e9" style="stroke-miterlimit: 2; opacity: 1;"><g class="fills"/><g class="errorbars"/><g class="lines"><path class="js-line" d="M0,385L363.02,384.98L370.14,375.17L377.26,384.99L384.38,384.87L391.49,384.93L398.61,375.2L405.73,384.99L412.85,384.95L427.08,384.75L434.2,384.21L441.32,384.98L448.44,384.97L512.5,384.96L519.62,383.99L533.85,384.97L540.97,384.57L555.21,384.99L562.33,384.98L690.45,384.74L697.57,384.25L711.81,384.96L718.92,375.09L726.04,385L733.16,384.91L775.87,384.9L782.99,384.99L790.1,384.91L797.22,375.1L804.34,375.01L811.46,384.85L839.93,383.92L847.05,384.97L918.23,384.87L925.35,384.03L939.58,384.93L946.7,385L960.94,384.84L968.06,375.04L975.17,384.96L982.29,385L1017.88,384.95L1025,382.74" style="vector-effect: none; fill: none; stroke: rgb(43, 144, 143); stroke-opacity: 1; stroke-width: 2px; opacity: 1;"/></g><g class="points"/><g class="text"/></g><g class="trace scatter trace313306" style="stroke-miterlimit: 2; opacity: 1;"><g class="fills"/><g class="errorbars"/><g class="lines"><path class="js-line" d="M0,385L363.02,384.98L370.14,375.33L377.26,385L384.38,384.87L391.49,384.92L398.61,375.11L405.73,384.99L412.85,384.95L427.08,384.75L434.2,384.2L441.32,384.98L448.44,384.96L512.5,384.96L519.62,384.01L533.85,384.97L540.97,384.57L555.21,384.99L562.33,384.98L690.45,384.73L697.57,384.23L711.81,384.96L718.92,374.85L726.04,385L733.16,384.9L775.87,384.91L782.99,384.99L790.1,384.93L797.22,374.92L804.34,375.12L811.46,384.86L839.93,383.92L847.05,384.98L918.23,384.87L925.35,384.09L939.58,384.92L946.7,385L960.94,384.83L968.06,374.91L975.17,384.96L982.29,385L1017.88,384.97L1025,382.78" style="vector-effect: none; fill: none; stroke: rgb(244, 91, 91); stroke-opacity: 1; stroke-width: 2px; opacity: 1;"/></g><g class="points"/><g class="text"/></g><g class="trace scatter trace5b63db" style="stroke-miterlimit: 2; opacity: 1;"><g class="fills"/><g class="errorbars"/><g class="lines"><path class="js-line" d="M0,385L363.02,384.98L370.14,375.35L377.26,384.99L384.38,384.88L391.49,384.93L398.61,375.2L405.73,385L412.85,384.95L427.08,384.76L434.2,384.22L441.32,384.98L448.44,384.96L512.5,384.96L519.62,384.01L533.85,384.97L540.97,384.58L555.21,384.99L562.33,384.98L690.45,384.75L697.57,384.25L711.81,384.96L718.92,374.95L726.04,385L733.16,384.92L775.87,384.91L782.99,384.99L790.1,384.92L797.22,375.21L804.34,375.05L811.46,384.85L839.93,383.93L847.05,384.97L918.23,384.87L925.35,384.06L939.58,384.93L946.7,385L960.94,384.82L968.06,374.91L975.17,384.96L982.29,385L1017.88,384.96L1025,382.77" style="vector-effect: none; fill: none; stroke: rgb(145, 232, 225); stroke-opacity: 1; stroke-width: 2px; opacity: 1;"/></g><g class="points"/><g class="text"/></g><g class="trace scatter trace00cbf3" style="stroke-miterlimit: 2; opacity: 1;"><g class="fills"/><g class="errorbars"/><g class="lines"><path class="js-line" d="M0,385L363.02,384.98L370.14,375.07L377.26,384.99L384.38,384.87L391.49,384.93L398.61,375.19L405.73,384.99L412.85,384.95L427.08,384.77L434.2,384.19L441.32,384.98L448.44,384.96L512.5,384.97L519.62,383.99L533.85,384.97L540.97,384.57L555.21,384.99L562.33,384.98L690.45,384.75L697.57,384.23L711.81,384.96L718.92,375.07L726.04,385L733.16,384.91L775.87,384.9L782.99,384.99L790.1,384.92L797.22,375.02L804.34,375.07L811.46,384.86L839.93,383.91L847.05,384.96L918.23,384.86L925.35,384.06L939.58,384.93L946.7,385L960.94,384.82L968.06,375.19L975.17,384.96L982.29,385L1017.88,384.95L1025,382.76" style="vector-effect: none; fill: none; stroke: rgb(124, 181, 236); stroke-opacity: 1; stroke-width: 2px; opacity: 1;"/></g><g class="points"/><g class="text"/></g><g class="trace scatter tracef474b1" style="stroke-miterlimit: 2; opacity: 1;"><g class="fills"/><g class="errorbars"/><g class="lines"><path class="js-line" d="M0,385L363.02,384.98L370.14,375.25L377.26,384.99L384.38,384.88L391.49,384.93L398.61,375.15L405.73,384.99L412.85,384.95L427.08,384.77L434.2,384.21L441.32,384.98L448.44,384.96L512.5,384.96L519.62,384L533.85,384.97L540.97,384.57L555.21,384.99L562.33,384.98L690.45,384.75L697.57,384.24L711.81,384.96L718.92,374.96L726.04,385L733.16,384.91L775.87,384.91L782.99,384.99L790.1,384.92L797.22,375.02L804.34,375.07L811.46,384.86L839.93,383.93L847.05,384.97L918.23,384.87L925.35,384.05L939.58,384.92L946.7,385L960.94,384.82L968.06,375.04L975.17,384.96L982.29,385L1017.88,384.96L1025,382.76" style="vector-effect: none; fill: none; stroke: rgb(67, 67, 72); stroke-opacity: 1; stroke-width: 2px; opacity: 1;"/></g><g class="points"/><g class="text"/></g><g class="trace scatter trace1db88d" style="stroke-miterlimit: 2; opacity: 1;"><g class="fills"/><g class="errorbars"/><g class="lines"><path class="js-line" d="M0,385L363.02,384.98L370.14,375.23L377.26,384.99L384.38,384.86L391.49,384.93L398.61,375.1L405.73,384.99L412.85,384.95L427.08,384.75L434.2,384.23L441.32,384.98L448.44,384.96L512.5,384.96L519.62,384.02L533.85,384.97L540.97,384.58L555.21,384.99L562.33,384.98L690.45,384.74L697.57,384.25L711.81,384.96L718.92,375.08L726.04,385L733.16,384.91L775.87,384.9L782.99,384.99L790.1,384.92L797.22,375.04L804.34,375.04L811.46,384.86L839.93,383.95L847.05,384.96L918.23,384.86L925.35,384.05L939.58,384.93L946.7,385L960.94,384.83L968.06,375.02L975.17,384.96L982.29,385L1017.88,384.95L1025,382.8" style="vector-effect: none; fill: none; stroke: rgb(144, 237, 125); stroke-opacity: 1; stroke-width: 2px; opacity: 1;"/></g><g class="points"/><g class="text"/></g><g class="trace scatter trace41ecf3" style="stroke-miterlimit: 2; opacity: 1;"><g class="fills"/><g class="errorbars"/><g class="lines"><path class="js-line" d="M0,385L363.02,384.98L370.14,374.71L377.26,384.99L384.38,384.87L391.49,384.92L398.61,375.3L405.73,384.99L412.85,384.95L427.08,384.76L434.2,384.21L441.32,384.98L448.44,384.96L512.5,384.96L519.62,383.98L533.85,384.97L540.97,384.57L555.21,384.99L562.33,384.98L690.45,384.74L697.57,384.22L704.69,384.97L711.81,384.96L718.92,375.1L726.04,385L747.4,384.22L754.51,384.9L790.1,384.92L797.22,375.11L804.34,375.15L811.46,384.85L839.93,383.92L847.05,384.96L918.23,384.87L925.35,384.03L939.58,384.92L946.7,385L960.94,384.83L968.06,375.39L975.17,384.96L982.29,385L1017.88,384.94L1025,382.72" style="vector-effect: none; fill: none; stroke: rgb(247, 163, 92); stroke-opacity: 1; stroke-width: 2px; opacity: 1;"/></g><g class="points"/><g class="text"/></g><g class="trace scatter tracedc6943" style="stroke-miterlimit: 2; opacity: 1;"><g class="fills"/><g class="errorbars"/><g class="lines"><path class="js-line" d="M0,385L363.02,384.98L370.14,375.17L377.26,384.99L384.38,384.87L391.49,384.92L398.61,375.17L405.73,384.99L412.85,384.95L427.08,384.77L434.2,384.22L441.32,384.98L448.44,384.96L512.5,384.96L519.62,384L533.85,384.97L540.97,384.58L555.21,384.99L562.33,384.98L690.45,384.73L697.57,384.23L711.81,384.96L718.92,375.08L726.04,385L733.16,384.91L790.1,384.91L797.22,375.02L804.34,375.06L811.46,384.85L839.93,383.92L847.05,384.96L918.23,384.86L925.35,384.07L939.58,384.92L946.7,385L960.94,384.82L968.06,375.07L975.17,384.96L982.29,385L1017.88,384.94L1025,382.76" style="vector-effect: none; fill: none; stroke: rgb(128, 133, 233); stroke-opacity: 1; stroke-width: 2px; opacity: 1;"/></g><g class="points"/><g class="text"/></g><g class="trace scatter traceee2196" style="stroke-miterlimit: 2; opacity: 1;"><g class="fills"/><g class="errorbars"/><g class="lines"><path class="js-line" d="M0,385L363.02,384.98L370.14,375.22L377.26,384.99L384.38,384.87L391.49,384.93L398.61,375.12L405.73,384.99L412.85,384.96L427.08,384.77L434.2,384.21L441.32,384.98L448.44,384.96L512.5,384.96L519.62,383.98L533.85,384.97L540.97,384.56L555.21,384.99L562.33,384.98L690.45,384.75L697.57,384.24L711.81,384.96L718.92,375L726.04,385L733.16,384.91L775.87,384.91L782.99,384.99L790.1,384.92L797.22,375.05L804.34,374.96L811.46,384.86L839.93,383.91L847.05,384.97L918.23,384.85L925.35,384.06L939.58,384.92L946.7,385L960.94,384.83L968.06,374.99L975.17,384.96L982.29,385L1017.88,384.96L1025,382.8" style="vector-effect: none; fill: none; stroke: rgb(241, 92, 128); stroke-opacity: 1; stroke-width: 2px; opacity: 1;"/></g><g class="points"/><g class="text"/></g><g class="trace scatter trace30e26e" style="stroke-miterlimit: 2; opacity: 1;"><g class="fills"/><g class="errorbars"/><g class="lines"><path class="js-line" d="M0,385L363.02,384.98L370.14,375.17L377.26,385L384.38,384.87L391.49,384.92L398.61,375.07L405.73,384.99L412.85,384.96L427.08,384.77L434.2,384.19L441.32,384.98L448.44,384.96L512.5,384.96L519.62,384L533.85,384.97L540.97,384.58L555.21,384.99L562.33,384.98L690.45,384.73L697.57,384.26L711.81,384.96L718.92,374.92L726.04,385L733.16,384.9L790.1,384.93L797.22,375.06L804.34,374.95L811.46,384.86L818.58,384.55L825.69,385L839.93,383.9L847.05,384.97L918.23,384.86L925.35,384.06L939.58,384.92L946.7,385L960.94,384.83L968.06,375.09L975.17,384.96L982.29,385L1017.88,384.96L1025,382.83" style="vector-effect: none; fill: none; stroke: rgb(228, 211, 84); stroke-opacity: 1; stroke-width: 2px; opacity: 1;"/></g><g class="points"/><g class="text"/></g><g class="trace scatter trace5eee34" style="stroke-miterlimit: 2; opacity: 1;"><g class="fills"/><g class="errorbars"/><g class="lines"><path class="js-line" d="M0,385L363.02,384.98L370.14,375.23L377.26,384.99L384.38,384.87L391.49,384.93L398.61,375.1L405.73,384.99L412.85,384.96L427.08,384.76L434.2,384.21L441.32,384.98L448.44,384.96L512.5,384.96L519.62,383.99L533.85,384.97L540.97,384.59L555.21,384.99L562.33,384.98L690.45,384.75L697.57,384.26L711.81,384.96L718.92,374.92L726.04,385L733.16,384.91L775.87,384.91L782.99,384.99L790.1,384.92L797.22,375.06L804.34,374.92L811.46,384.86L839.93,383.92L847.05,384.97L918.23,384.86L925.35,384.07L939.58,384.93L946.7,385L960.94,384.83L968.06,375.03L975.17,384.96L982.29,385L1017.88,384.96L1025,382.78" style="vector-effect: none; fill: none; stroke: rgb(43, 144, 143); stroke-opacity: 1; stroke-width: 2px; opacity: 1;"/></g><g class="points"/><g class="text"/></g><g class="trace scatter trace07b64b" style="stroke-miterlimit: 2; opacity: 1;"><g class="fills"/><g class="errorbars"/><g class="lines"><path class="js-line" d="M0,385L363.02,384.98L370.14,375.24L377.26,384.99L384.38,384.88L391.49,384.93L398.61,375.2L405.73,384.99L412.85,384.95L427.08,384.77L434.2,384.18L441.32,384.98L448.44,384.96L512.5,384.96L519.62,383.96L533.85,384.97L540.97,384.59L555.21,384.99L562.33,384.98L690.45,384.74L697.57,384.23L711.81,384.96L718.92,375.06L726.04,385L733.16,384.91L775.87,384.9L782.99,384.99L790.1,384.92L797.22,375.02L804.34,375.09L811.46,384.85L839.93,383.89L847.05,384.97L918.23,384.87L925.35,384.06L939.58,384.92L946.7,385L960.94,384.83L968.06,375.07L975.17,384.96L982.29,385L1017.88,384.94L1025,382.71" style="vector-effect: none; fill: none; stroke: rgb(244, 91, 91); stroke-opacity: 1; stroke-width: 2px; opacity: 1;"/></g><g class="points"/><g class="text"/></g><g class="trace scatter tracebc99dd" style="stroke-miterlimit: 2; opacity: 1;"><g class="fills"/><g class="errorbars"/><g class="lines"><path class="js-line" d="M0,385L363.02,384.98L370.14,375.26L377.26,384.99L384.38,384.87L391.49,384.93L398.61,375.03L405.73,384.99L412.85,384.95L427.08,384.76L434.2,384.23L441.32,384.98L448.44,384.96L512.5,384.96L519.62,384.02L533.85,384.96L540.97,384.57L555.21,384.99L562.33,384.98L690.45,384.74L697.57,384.23L711.81,384.96L718.92,375.02L726.04,385L733.16,384.92L768.75,384.71L775.87,384.93L790.1,384.92L797.22,375.03L804.34,375.04L811.46,384.87L818.58,384.55L825.69,385L839.93,383.95L847.05,384.97L918.23,384.86L925.35,384.04L939.58,384.93L946.7,385L960.94,384.83L968.06,374.93L975.17,384.96L982.29,385L1017.88,384.97L1025,382.79" style="vector-effect: none; fill: none; stroke: rgb(145, 232, 225); stroke-opacity: 1; stroke-width: 2px; opacity: 1;"/></g><g class="points"/><g class="text"/></g><g class="trace scatter trace51efb4" style="stroke-miterlimit: 2; opacity: 1;"><g class="fills"/><g class="errorbars"/><g class="lines"><path class="js-line" d="M0,385L363.02,384.97L370.14,375.28L377.26,384.99L384.38,384.87L391.49,384.93L398.61,374.89L405.73,384.99L412.85,384.96L427.08,384.75L434.2,384.16L441.32,384.98L448.44,384.96L512.5,384.96L519.62,383.94L533.85,384.96L540.97,384.57L555.21,384.98L562.33,384.98L690.45,384.74L697.57,384.26L711.81,384.97L718.92,374.76L726.04,385L733.16,384.89L747.4,384.14L754.51,384.9L790.1,384.92L797.22,374.83L804.34,375.13L811.46,384.84L839.93,383.83L847.05,384.98L918.23,384.84L925.35,384.04L939.58,384.92L946.7,385L960.94,384.81L968.06,374.81L975.17,384.97L982.29,385L1017.88,384.97L1025,382.81" style="vector-effect: none; fill: none; stroke: rgb(124, 181, 236); stroke-opacity: 1; stroke-width: 2px; opacity: 1;"/></g><g class="points"/><g class="text"/></g><g class="trace scatter trace8da30d" style="stroke-miterlimit: 2; opacity: 1;"><g class="fills"/><g class="errorbars"/><g class="lines"><path class="js-line" d="M0,385L363.02,384.98L370.14,375.2L377.26,384.99L384.38,384.88L391.49,384.93L398.61,375.23L405.73,384.99L412.85,384.95L427.08,384.72L434.2,384.19L441.32,384.98L448.44,384.95L512.5,384.95L519.62,383.95L533.85,384.96L540.97,384.61L555.21,384.99L562.33,384.98L690.45,384.76L697.57,384.28L711.81,384.97L718.92,375.1L726.04,385L733.16,384.92L740.28,384.93L747.4,384.18L761.63,384.91L768.75,384.73L790.1,384.93L797.22,374.94L804.34,374.99L811.46,384.82L839.93,383.88L847.05,384.98L918.23,384.87L925.35,384.04L939.58,384.92L946.7,385L960.94,384.81L968.06,374.78L975.17,384.96L982.29,385L1017.88,384.96L1025,382.83" style="vector-effect: none; fill: none; stroke: rgb(67, 67, 72); stroke-opacity: 1; stroke-width: 2px; opacity: 1;"/></g><g class="points"/><g class="text"/></g><g class="trace scatter tracea21b3b" style="stroke-miterlimit: 2; opacity: 1;"><g class="fills"/><g class="errorbars"/><g class="lines"><path class="js-line" d="M0,385L363.02,384.98L370.14,375.19L377.26,384.99L384.38,384.87L391.49,384.92L398.61,374.92L405.73,384.99L412.85,384.95L427.08,384.75L434.2,384.19L441.32,384.98L448.44,384.96L512.5,384.96L519.62,383.98L533.85,384.97L540.97,384.56L555.21,384.99L562.33,384.98L690.45,384.76L697.57,384.24L711.81,384.96L718.92,374.87L726.04,385L733.16,384.9L775.87,384.92L782.99,384.99L790.1,384.92L797.22,375.06L804.34,375.02L811.46,384.87L839.93,383.9L847.05,384.96L918.23,384.87L925.35,384.04L939.58,384.92L946.7,385L960.94,384.83L968.06,374.85L975.17,384.96L982.29,385L1017.88,384.95L1025,382.78" style="vector-effect: none; fill: none; stroke: rgb(144, 237, 125); stroke-opacity: 1; stroke-width: 2px; opacity: 1;"/></g><g class="points"/><g class="text"/></g><g class="trace scatter trace3b539f" style="stroke-miterlimit: 2; opacity: 1;"><g class="fills"/><g class="errorbars"/><g class="lines"><path class="js-line" d="M0,385L363.02,384.98L370.14,375.33L377.26,384.99L384.38,384.88L391.49,384.93L398.61,374.91L405.73,384.99L412.85,384.95L427.08,384.75L434.2,384.21L441.32,384.98L448.44,384.96L512.5,384.96L519.62,383.99L533.85,384.97L540.97,384.58L555.21,384.99L562.33,384.98L690.45,384.74L697.57,384.26L711.81,384.96L718.92,374.98L726.04,385L733.16,384.91L775.87,384.94L782.99,384.99L790.1,384.92L797.22,374.98L804.34,374.97L811.46,384.87L839.93,383.91L847.05,384.98L918.23,384.86L925.35,384.05L939.58,384.92L946.7,385L960.94,384.83L968.06,374.8L975.17,384.96L982.29,385L1017.88,384.98L1025,382.82" style="vector-effect: none; fill: none; stroke: rgb(247, 163, 92); stroke-opacity: 1; stroke-width: 2px; opacity: 1;"/></g><g class="points"/><g class="text"/></g><g class="trace scatter tracea6e5a7" style="stroke-miterlimit: 2; opacity: 1;"><g class="fills"/><g class="errorbars"/><g class="lines"><path class="js-line" d="M0,385L363.02,384.98L370.14,375.06L377.26,384.99L384.38,384.88L391.49,384.92L398.61,375.08L405.73,385L412.85,384.96L427.08,384.77L434.2,384.22L441.32,384.98L448.44,384.96L512.5,384.96L519.62,384L533.85,384.97L540.97,384.6L555.21,384.99L562.33,384.98L690.45,384.74L697.57,384.21L704.69,384.97L711.81,384.97L718.92,375.06L726.04,385L747.4,384.2L754.51,384.9L790.1,384.93L797.22,375.03L804.34,375.01L811.46,384.86L839.93,383.93L847.05,384.98L918.23,384.85L925.35,384.02L939.58,384.92L946.7,385L960.94,384.81L968.06,374.81L975.17,384.97L982.29,385L1017.88,384.96L1025,382.79" style="vector-effect: none; fill: none; stroke: rgb(128, 133, 233); stroke-opacity: 1; stroke-width: 2px; opacity: 1;"/></g><g class="points"/><g class="text"/></g><g class="trace scatter trace8e6aab" style="stroke-miterlimit: 2; opacity: 1;"><g class="fills"/><g class="errorbars"/><g class="lines"><path class="js-line" d="M0,385L363.02,384.98L370.14,374.98L377.26,385L384.38,384.87L391.49,384.93L398.61,375.05L405.73,384.99L412.85,384.95L427.08,384.78L434.2,384.24L448.44,384.97L455.56,384.99L498.26,384.68L505.38,384.9L512.5,384.97L519.62,383.95L533.85,384.97L540.97,384.61L562.33,384.99L569.44,384.99L711.81,384.96L718.92,374.85L726.04,385L733.16,384.92L790.1,384.92L797.22,375.01L804.34,375.01L811.46,384.85L839.93,383.9L847.05,384.97L918.23,384.86L925.35,384.08L939.58,384.93L946.7,385L960.94,384.83L968.06,375.41L975.17,384.96L982.29,385L1017.88,384.97L1025,382.81" style="vector-effect: none; fill: none; stroke: rgb(241, 92, 128); stroke-opacity: 1; stroke-width: 2px; opacity: 1;"/></g><g class="points"/><g class="text"/></g><g class="trace scatter trace055ecb" style="stroke-miterlimit: 2; opacity: 1;"><g class="fills"/><g class="errorbars"/><g class="lines"><path class="js-line" d="M0,385L363.02,384.98L370.14,375.15L377.26,385L384.38,384.88L391.49,384.93L398.61,374.97L405.73,384.99L412.85,384.95L427.08,384.77L434.2,384.2L441.32,384.98L448.44,384.96L512.5,384.96L519.62,383.99L533.85,384.97L540.97,384.58L555.21,384.99L562.33,384.98L690.45,384.74L697.57,384.24L711.81,384.96L718.92,374.85L726.04,385L733.16,384.91L790.1,384.92L797.22,374.98L804.34,374.95L811.46,384.86L839.93,383.91L847.05,384.97L918.23,384.85L925.35,384.05L939.58,384.92L946.7,385L960.94,384.82L968.06,374.88L975.17,384.96L982.29,385L1017.88,384.96L1025,382.77" style="vector-effect: none; fill: none; stroke: rgb(228, 211, 84); stroke-opacity: 1; stroke-width: 2px; opacity: 1;"/></g><g class="points"/><g class="text"/></g><g class="trace scatter tracedf2269" style="stroke-miterlimit: 2; opacity: 1;"><g class="fills"/><g class="errorbars"/><g class="lines"><path class="js-line" d="M0,385L363.02,384.98L370.14,375.23L377.26,385L384.38,384.89L391.49,384.93L398.61,375.04L405.73,385L412.85,384.96L427.08,384.76L434.2,384.2L441.32,384.98L448.44,384.97L512.5,384.97L519.62,384.02L533.85,384.98L540.97,384.61L555.21,384.99L562.33,384.98L690.45,384.74L697.57,384.29L711.81,384.96L718.92,374.91L726.04,385L733.16,384.9L790.1,384.93L797.22,375.2L804.34,374.97L811.46,384.86L839.93,383.92L847.05,384.97L918.23,384.88L925.35,384.07L939.58,384.92L946.7,385L960.94,384.83L968.06,374.97L975.17,384.96L982.29,385L1017.88,384.96L1025,382.8" style="vector-effect: none; fill: none; stroke: rgb(43, 144, 143); stroke-opacity: 1; stroke-width: 2px; opacity: 1;"/></g><g class="points"/><g class="text"/></g><g class="trace scatter trace7dd872" style="stroke-miterlimit: 2; opacity: 1;"><g class="fills"/><g class="errorbars"/><g class="lines"><path class="js-line" d="M0,385L363.02,384.98L370.14,375.24L377.26,385L384.38,384.88L391.49,384.93L398.61,375.04L405.73,384.99L412.85,384.96L427.08,384.76L434.2,384.19L441.32,384.98L448.44,384.96L512.5,384.97L519.62,383.96L533.85,384.98L540.97,384.59L555.21,384.99L562.33,384.98L690.45,384.74L697.57,384.26L711.81,384.96L718.92,374.9L726.04,385L733.16,384.9L775.87,384.92L782.99,384.99L790.1,384.93L797.22,374.93L804.34,375.02L811.46,384.86L839.93,383.88L847.05,384.97L918.23,384.86L925.35,384.05L939.58,384.92L946.7,385L960.94,384.83L968.06,374.87L975.17,384.96L982.29,385L1017.88,384.97L1025,382.79" style="vector-effect: none; fill: none; stroke: rgb(244, 91, 91); stroke-opacity: 1; stroke-width: 2px; opacity: 1;"/></g><g class="points"/><g class="text"/></g><g class="trace scatter trace48ccc3" style="stroke-miterlimit: 2; opacity: 1;"><g class="fills"/><g class="errorbars"/><g class="lines"><path class="js-line" d="M0,385L363.02,384.98L370.14,375.31L377.26,384.99L384.38,384.88L391.49,384.93L398.61,374.83L405.73,384.99L412.85,384.96L427.08,384.75L434.2,384.21L441.32,384.98L448.44,384.96L512.5,384.96L519.62,383.99L533.85,384.97L540.97,384.6L555.21,384.99L562.33,384.98L690.45,384.75L697.57,384.28L711.81,384.97L718.92,374.87L726.04,385L733.16,384.91L775.87,384.92L782.99,384.99L790.1,384.93L797.22,374.89L804.34,374.91L811.46,384.86L839.93,383.91L847.05,384.97L918.23,384.86L925.35,384.03L939.58,384.93L946.7,385L960.94,384.82L968.06,374.69L975.17,384.96L982.29,385L1017.88,384.97L1025,382.81" style="vector-effect: none; fill: none; stroke: rgb(145, 232, 225); stroke-opacity: 1; stroke-width: 2px; opacity: 1;"/></g><g class="points"/><g class="text"/></g><g class="trace scatter tracea69b55" style="stroke-miterlimit: 2; opacity: 1;"><g class="fills"/><g class="errorbars"/><g class="lines"><path class="js-line" d="M0,385L363.02,384.97L370.14,375.22L377.26,385L384.38,384.87L391.49,384.91L398.61,375.05L405.73,384.99L412.85,384.95L427.08,384.77L434.2,384.24L441.32,384.98L448.44,384.96L512.5,384.96L519.62,384L533.85,384.98L540.97,384.6L555.21,384.99L562.33,384.98L711.81,384.96L718.92,375.09L726.04,385L733.16,384.9L775.87,384.93L782.99,384.99L790.1,384.93L797.22,374.85L804.34,374.93L811.46,384.87L818.58,384.53L825.69,384.99L839.93,383.94L847.05,384.97L918.23,384.87L925.35,384.07L939.58,384.92L946.7,385L960.94,384.84L968.06,374.78L975.17,384.96L982.29,385L1017.88,384.97L1025,382.82" style="vector-effect: none; fill: none; stroke: rgb(124, 181, 236); stroke-opacity: 1; stroke-width: 2px; opacity: 1;"/></g><g class="points"/><g class="text"/></g><g class="trace scatter trace37eeb8" style="stroke-miterlimit: 2; opacity: 1;"><g class="fills"/><g class="errorbars"/><g class="lines"><path class="js-line" d="M0,385L363.02,384.98L370.14,374.99L377.26,384.99L384.38,384.86L391.49,384.93L398.61,375.05L405.73,384.99L412.85,384.94L427.08,384.76L434.2,384.15L441.32,384.98L448.44,384.96L512.5,384.96L519.62,383.95L533.85,384.97L540.97,384.56L555.21,384.99L562.33,384.98L690.45,384.76L697.57,384.24L711.81,384.95L718.92,375.17L726.04,385L733.16,384.92L768.75,384.69L775.87,384.92L790.1,384.92L797.22,375.02L804.34,375.23L811.46,384.85L839.93,383.88L847.05,384.96L918.23,384.84L925.35,384.06L939.58,384.93L946.7,385L960.94,384.81L968.06,374.95L975.17,384.96L982.29,385L1017.88,384.96L1025,382.74" style="vector-effect: none; fill: none; stroke: rgb(67, 67, 72); stroke-opacity: 1; stroke-width: 2px; opacity: 1;"/></g><g class="points"/><g class="text"/></g><g class="trace scatter tracef169ef" style="stroke-miterlimit: 2; opacity: 1;"><g class="fills"/><g class="errorbars"/><g class="lines"><path class="js-line" d="M0,385L363.02,384.97L370.14,375.32L377.26,385L384.38,384.88L391.49,384.93L398.61,375.09L405.73,384.99L412.85,384.95L427.08,384.78L434.2,384.18L441.32,384.98L448.44,384.96L512.5,384.97L519.62,384.03L533.85,384.97L540.97,384.6L555.21,384.99L562.33,384.97L690.45,384.73L697.57,384.28L711.81,384.96L718.92,374.95L726.04,385L733.16,384.9L790.1,384.93L797.22,375.23L804.34,375.22L811.46,384.83L818.58,384.52L825.69,385L839.93,383.93L847.05,384.97L918.23,384.86L925.35,384.05L939.58,384.92L946.7,385L960.94,384.8L968.06,375.37L975.17,384.96L982.29,385L1017.88,384.96L1025,382.76" style="vector-effect: none; fill: none; stroke: rgb(144, 237, 125); stroke-opacity: 1; stroke-width: 2px; opacity: 1;"/></g><g class="points"/><g class="text"/></g><g class="trace scatter tracef41b41" style="stroke-miterlimit: 2; opacity: 1;"><g class="fills"/><g class="errorbars"/><g class="lines"><path class="js-line" d="M0,385L363.02,384.98L370.14,375.35L377.26,385L384.38,384.88L391.49,384.93L398.61,374.96L405.73,384.99L412.85,384.95L427.08,384.76L434.2,384.21L441.32,384.98L448.44,384.96L512.5,384.96L519.62,384L533.85,384.97L540.97,384.59L555.21,384.99L562.33,384.98L690.45,384.76L697.57,384.27L711.81,384.96L718.92,374.87L726.04,385L733.16,384.92L768.75,384.72L775.87,384.93L790.1,384.92L797.22,374.95L804.34,374.95L811.46,384.86L839.93,383.92L847.05,384.97L918.23,384.85L925.35,384.04L939.58,384.93L946.7,385L960.94,384.82L968.06,374.61L975.17,384.96L982.29,385L1017.88,384.97L1025,382.8" style="vector-effect: none; fill: none; stroke: rgb(247, 163, 92); stroke-opacity: 1; stroke-width: 2px; opacity: 1;"/></g><g class="points"/><g class="text"/></g></g></g></g><g class="zerolinelayer-above"/><path class="xlines-above crisp" d="M0,0" style="fill: none;"/><path class="ylines-above crisp" d="M0,0" style="fill: none;"/><g class="overlines-above"/><g class="xaxislayer-above"><g class="xtick"><text text-anchor="middle" x="0" y="451" transform="translate(195.24,0)" style="font-family: system-ui, -apple-system, 'Segoe UI', Roboto, 'Helvetica Neue', 'Noto Sans', 'Liberation Sans', Arial, sans-serif, 'Apple Color Emoji', 'Segoe UI Emoji', 'Segoe UI Symbol', 'Noto Color Emoji'; font-size: 10px; fill: rgb(80, 80, 80); fill-opacity: 1; white-space: pre;">20</text></g><g class="xtick"><text text-anchor="middle" x="0" y="451" style="font-family: system-ui, -apple-system, 'Segoe UI', Roboto, 'Helvetica Neue', 'Noto Sans', 'Liberation Sans', Arial, sans-serif, 'Apple Color Emoji', 'Segoe UI Emoji', 'Segoe UI Symbol', 'Noto Color Emoji'; font-size: 10px; fill: rgb(80, 80, 80); fill-opacity: 1; white-space: pre;" transform="translate(337.6,0)">40</text></g><g class="xtick"><text text-anchor="middle" x="0" y="451" style="font-family: system-ui, -apple-system, 'Segoe UI', Roboto, 'Helvetica Neue', 'Noto Sans', 'Liberation Sans', Arial, sans-serif, 'Apple Color Emoji', 'Segoe UI Emoji', 'Segoe UI Symbol', 'Noto Color Emoji'; font-size: 10px; fill: rgb(80, 80, 80); fill-opacity: 1; white-space: pre;" transform="translate(479.97,0)">60</text></g><g class="xtick"><text text-anchor="middle" x="0" y="451" style="font-family: system-ui, -apple-system, 'Segoe UI', Roboto, 'Helvetica Neue', 'Noto Sans', 'Liberation Sans', Arial, sans-serif, 'Apple Color Emoji', 'Segoe UI Emoji', 'Segoe UI Symbol', 'Noto Color Emoji'; font-size: 10px; fill: rgb(80, 80, 80); fill-opacity: 1; white-space: pre;" transform="translate(622.33,0)">80</text></g><g class="xtick"><text text-anchor="middle" x="0" y="451" style="font-family: system-ui, -apple-system, 'Segoe UI', Roboto, 'Helvetica Neue', 'Noto Sans', 'Liberation Sans', Arial, sans-serif, 'Apple Color Emoji', 'Segoe UI Emoji', 'Segoe UI Symbol', 'Noto Color Emoji'; font-size: 10px; fill: rgb(80, 80, 80); fill-opacity: 1; white-space: pre;" transform="translate(764.69,0)">100</text></g><g class="xtick"><text text-anchor="middle" x="0" y="451" style="font-family: system-ui, -apple-system, 'Segoe UI', Roboto, 'Helvetica Neue', 'Noto Sans', 'Liberation Sans', Arial, sans-serif, 'Apple Color Emoji', 'Segoe UI Emoji', 'Segoe UI Symbol', 'Noto Color Emoji'; font-size: 10px; fill: rgb(80, 80, 80); fill-opacity: 1; white-space: pre;" transform="translate(907.05,0)">120</text></g><g class="xtick"><text text-anchor="middle" x="0" y="451" style="font-family: system-ui, -apple-system, 'Segoe UI', Roboto, 'Helvetica Neue', 'Noto Sans', 'Liberation Sans', Arial, sans-serif, 'Apple Color Emoji', 'Segoe UI Emoji', 'Segoe UI Symbol', 'Noto Color Emoji'; font-size: 10px; fill: rgb(80, 80, 80); fill-opacity: 1; white-space: pre;" transform="translate(1049.4099999999999,0)">140</text></g></g><g class="yaxislayer-above"><g class="ytick"><text text-anchor="end" x="54" y="3.5" transform="translate(0,435)" style="font-family: system-ui, -apple-system, 'Segoe UI', Roboto, 'Helvetica Neue', 'Noto Sans', 'Liberation Sans', Arial, sans-serif, 'Apple Color Emoji', 'Segoe UI Emoji', 'Segoe UI Symbol', 'Noto Color Emoji'; font-size: 10px; fill: rgb(80, 80, 80); fill-opacity: 1; white-space: pre;">0%</text></g><g class="ytick"><text text-anchor="end" x="54" y="3.5" style="font-family: system-ui, -apple-system, 'Segoe UI', Roboto, 'Helvetica Neue', 'Noto Sans', 'Liberation Sans', Arial, sans-serif, 'Apple Color Emoji', 'Segoe UI Emoji', 'Segoe UI Symbol', 'Noto Color Emoji'; font-size: 10px; fill: rgb(80, 80, 80); fill-opacity: 1; white-space: pre;" transform="translate(0,358)">1%</text></g><g class="ytick"><text text-anchor="end" x="54" y="3.5" style="font-family: system-ui, -apple-system, 'Segoe UI', Roboto, 'Helvetica Neue', 'Noto Sans', 'Liberation Sans', Arial, sans-serif, 'Apple Color Emoji', 'Segoe UI Emoji', 'Segoe UI Symbol', 'Noto Color Emoji'; font-size: 10px; fill: rgb(80, 80, 80); fill-opacity: 1; white-space: pre;" transform="translate(0,281)">2%</text></g><g class="ytick"><text text-anchor="end" x="54" y="3.5" style="font-family: system-ui, -apple-system, 'Segoe UI', Roboto, 'Helvetica Neue', 'Noto Sans', 'Liberation Sans', Arial, sans-serif, 'Apple Color Emoji', 'Segoe UI Emoji', 'Segoe UI Symbol', 'Noto Color Emoji'; font-size: 10px; fill: rgb(80, 80, 80); fill-opacity: 1; white-space: pre;" transform="translate(0,204)">3%</text></g><g class="ytick"><text text-anchor="end" x="54" y="3.5" style="font-family: system-ui, -apple-system, 'Segoe UI', Roboto, 'Helvetica Neue', 'Noto Sans', 'Liberation Sans', Arial, sans-serif, 'Apple Color Emoji', 'Segoe UI Emoji', 'Segoe UI Symbol', 'Noto Color Emoji'; font-size: 10px; fill: rgb(80, 80, 80); fill-opacity: 1; white-space: pre;" transform="translate(0,127)">4%</text></g><g class="ytick"><text text-anchor="end" x="54" y="3.5" style="font-family: system-ui, -apple-system, 'Segoe UI', Roboto, 'Helvetica Neue', 'Noto Sans', 'Liberation Sans', Arial, sans-serif, 'Apple Color Emoji', 'Segoe UI Emoji', 'Segoe UI Symbol', 'Noto Color Emoji'; font-size: 10px; fill: rgb(80, 80, 80); fill-opacity: 1; white-space: pre;" transform="translate(0,50)">5%</text></g></g><g class="overaxes-above"/></g></g><g class="polarlayer"/><g class="smithlayer"/><g class="ternarylayer"/><g class="geolayer"/><g class="funnelarealayer"/><g class="pielayer"/><g class="iciclelayer"/><g class="treemaplayer"/><g class="sunburstlayer"/><g class="glimages"/><defs id="topdefs-e75338"><g class="clips"/></defs><g class="layer-above"><g class="imagelayer"/><g class="shapelayer"/></g><g class="infolayer"><g class="g-gtitle"><text class="gtitle" x="550" y="25" text-anchor="middle" dy="0em" style="opacity: 1; font-family: system-ui, -apple-system, 'Segoe UI', Roboto, 'Helvetica Neue', 'Noto Sans', 'Liberation Sans', Arial, sans-serif, 'Apple Color Emoji', 'Segoe UI Emoji', 'Segoe UI Symbol', 'Noto Color Emoji'; font-size: 20px; fill: rgb(60, 60, 60); fill-opacity: 1; white-space: pre;"><tspan class="line" dy="0em" x="550" y="25">Fastp: Read N Content</tspan><tspan class="line" dy="1.3em" x="550" y="25">​<tspan style="font-size:70%" dy="-0.6em">Read 1: Before filtering, 94 lines</tspan><tspan dy="0.42em">​</tspan></tspan></text></g><g class="g-xtitle"><text class="xtitle" x="572.5" y="487" text-anchor="middle" style="opacity: 1; font-family: system-ui, -apple-system, 'Segoe UI', Roboto, 'Helvetica Neue', 'Noto Sans', 'Liberation Sans', Arial, sans-serif, 'Apple Color Emoji', 'Segoe UI Emoji', 'Segoe UI Symbol', 'Noto Color Emoji'; font-size: 14px; fill: rgb(100, 100, 100); fill-opacity: 1; white-space: pre;">Read Position</text></g><g class="g-ytitle"><text class="ytitle" transform="rotate(-90,22,242.5)" x="22" y="242.5" text-anchor="middle" style="opacity: 1; font-family: system-ui, -apple-system, 'Segoe UI', Roboto, 'Helvetica Neue', 'Noto Sans', 'Liberation Sans', Arial, sans-serif, 'Apple Color Emoji', 'Segoe UI Emoji', 'Segoe UI Symbol', 'Noto Color Emoji'; font-size: 14px; fill: rgb(100, 100, 100); fill-opacity: 1; white-space: pre;">R1 Before filtering: Base Content Percent</text></g></g></svg>