<svg class="main-svg" xmlns="http://www.w3.org/2000/svg" xmlns:xlink="http://www.w3.org/1999/xlink" width="2200" height="1000" style="" viewBox="0 0 1100 500"><rect x="0" y="0" width="1100" height="500" style="fill: rgb(255, 255, 255); fill-opacity: 1;"/><defs id="defs-c890d3"><g class="clips"><clipPath id="clipc890d3xyplot" class="plotclip"><rect width="1025" height="385"/></clipPath><clipPath class="axesclip" id="clipc890d3x"><rect x="60" y="0" width="1025" height="500"/></clipPath><clipPath class="axesclip" id="clipc890d3y"><rect x="0" y="50" width="1100" height="385"/></clipPath><clipPath class="axesclip" id="clipc890d3xy"><rect x="60" y="50" width="1025" height="385"/></clipPath></g><g class="gradients"/><g class="patterns"/></defs><g class="bglayer"/><g class="layer-below"><g class="imagelayer"/><g class="shapelayer"/></g><g class="cartesianlayer"><g class="subplot xy"><g class="layer-subplot"><g class="shapelayer"/><g class="imagelayer"/></g><g class="minor-gridlayer"><g class="x"/><g class="y"/></g><g class="gridlayer"><g class="x"><path class="xgrid crisp" transform="translate(195.24,0)" d="M0,50v385" style="stroke: rgb(128, 128, 128); stroke-opacity: 0.15; stroke-width: 1px;"/><path class="xgrid crisp" transform="translate(337.6,0)" d="M0,50v385" style="stroke: rgb(128, 128, 128); stroke-opacity: 0.15; stroke-width: 1px;"/><path class="xgrid crisp" transform="translate(479.97,0)" d="M0,50v385" style="stroke: rgb(128, 128, 128); stroke-opacity: 0.15; stroke-width: 1px;"/><path class="xgrid crisp" transform="translate(622.33,0)" d="M0,50v385" style="stroke: rgb(128, 128, 128); stroke-opacity: 0.15; stroke-width: 1px;"/><path class="xgrid crisp" transform="translate(764.69,0)" d="M0,50v385" style="stroke: rgb(128, 128, 128); stroke-opacity: 0.15; stroke-width: 1px;"/><path class="xgrid crisp" transform="translate(907.05,0)" d="M0,50v385" style="stroke: rgb(128, 128, 128); stroke-opacity: 0.15; stroke-width: 1px;"/><path class="xgrid crisp" transform="translate(1049.4099999999999,0)" d="M0,50v385" style="stroke: rgb(128, 128, 128); stroke-opacity: 0.15; stroke-width: 1px;"/></g><g class="y"><path class="ygrid crisp" transform="translate(0,358)" d="M60,0h1025" style="stroke: rgb(128, 128, 128); stroke-opacity: 0.15; stroke-width: 1px;"/><path class="ygrid crisp" transform="translate(0,281)" d="M60,0h1025" style="stroke: rgb(128, 128, 128); stroke-opacity: 0.15; stroke-width: 1px;"/><path class="ygrid crisp" transform="translate(0,204)" d="M60,0h1025" style="stroke: rgb(128, 128, 128); stroke-opacity: 0.15; stroke-width: 1px;"/><path class="ygrid crisp" transform="translate(0,127)" d="M60,0h1025" style="stroke: rgb(128, 128, 128); stroke-opacity: 0.15; stroke-width: 1px;"/></g></g><g class="zerolinelayer"><path class="yzl zl crisp" transform="translate(0,435)" d="M60,0h1025" style="stroke: rgb(128, 128, 128); stroke-opacity: 0.2; stroke-width: 1px;"/></g><g class="layer-between"><g class="shapelayer"/><g class="imagelayer"/></g><path class="xlines-below"/><path class="ylines-below"/><g class="overlines-below"/><g class="xaxislayer-below"/><g class="yaxislayer-below"/><g class="overaxes-below"/><g class="overplot"><g class="xy" transform="translate(60,50)" clip-path="url(#clipc890d3xyplot)"><g class="scatterlayer mlayer"><g class="trace scatter tracefa3738" style="stroke-miterlimit: 2; opacity: 1;"><g class="fills"/><g class="errorbars"/><g class="lines"><path class="js-line" d="M0,385L363.02,385L370.14,375.18L377.26,385L384.38,385L391.49,385L398.61,375.09L405.73,385L412.85,385L512.5,385L519.62,384.15L533.85,385L540.97,384.95L654.86,385L661.98,384.88L690.45,384.99L697.57,384.67L711.81,385L718.92,374.98L726.04,385L733.16,385L790.1,385L797.22,375.11L804.34,375.1L811.46,385L839.93,384.11L847.05,385L960.94,384.99L968.06,375.23L975.17,385L982.29,385L1017.88,384.99L1025,383.32" style="vector-effect: none; fill: none; stroke: rgb(124, 181, 236); stroke-opacity: 1; stroke-width: 2px; opacity: 1;"/></g><g class="points"/><g class="text"/></g><g class="trace scatter trace83eb10" style="stroke-miterlimit: 2; opacity: 1;"><g class="fills"/><g class="errorbars"/><g class="lines"><path class="js-line" d="M0,385L363.02,385L370.14,374.93L377.26,385L384.38,385L391.49,385L398.61,375.15L405.73,385L412.85,385L512.5,385L519.62,384.14L526.74,384.95L533.85,385L619.27,385L626.39,385L711.81,385L718.92,375.01L726.04,385L733.16,385L790.1,385L797.22,375.09L804.34,375.01L811.46,385L839.93,384.09L847.05,385L960.94,384.99L968.06,375.27L975.17,385L982.29,385L1017.88,384.98L1025,383.31" style="vector-effect: none; fill: none; stroke: rgb(67, 67, 72); stroke-opacity: 1; stroke-width: 2px; opacity: 1;"/></g><g class="points"/><g class="text"/></g><g class="trace scatter trace2837cd" style="stroke-miterlimit: 2; opacity: 1;"><g class="fills"/><g class="errorbars"/><g class="lines"><path class="js-line" d="M0,385L363.02,385L370.14,375.27L377.26,385L384.38,385L391.49,385L398.61,375.05L405.73,385L412.85,385L512.5,385L519.62,384.16L526.74,384.96L533.85,385L619.27,385L626.39,385L711.81,385L718.92,375.09L726.04,385L733.16,385L790.1,385L797.22,374.96L804.34,375.05L811.46,385L839.93,384.1L847.05,385L960.94,384.99L968.06,375.06L975.17,385L982.29,385L1017.88,384.98L1025,383.34" style="vector-effect: none; fill: none; stroke: rgb(144, 237, 125); stroke-opacity: 1; stroke-width: 2px; opacity: 1;"/></g><g class="points"/><g class="text"/></g><g class="trace scatter trace9f3e96" style="stroke-miterlimit: 2; opacity: 1;"><g class="fills"/><g class="errorbars"/><g class="lines"><path class="js-line" d="M0,385L363.02,385L370.14,375.16L377.26,385L384.38,385L391.49,385L398.61,374.96L405.73,385L412.85,385L512.5,385L519.62,384.17L533.85,385L540.97,384.95L654.86,385L661.98,384.88L690.45,384.99L697.57,384.66L711.81,385L718.92,374.9L726.04,385L733.16,385L790.1,385L797.22,374.97L804.34,375.1L811.46,385L839.93,384.11L847.05,385L960.94,385L968.06,375.16L975.17,385L982.29,385L1017.88,384.98L1025,383.36" style="vector-effect: none; fill: none; stroke: rgb(247, 163, 92); stroke-opacity: 1; stroke-width: 2px; opacity: 1;"/></g><g class="points"/><g class="text"/></g><g class="trace scatter trace714875" style="stroke-miterlimit: 2; opacity: 1;"><g class="fills"/><g class="errorbars"/><g class="lines"><path class="js-line" d="M0,385L363.02,385L370.14,375.2L377.26,385L384.38,385L391.49,385L398.61,375.11L405.73,385L412.85,385L512.5,385L519.62,384.16L533.85,385L540.97,384.94L633.51,385L640.63,385L711.81,385L718.92,375.05L726.04,385L733.16,385L790.1,385L797.22,375.05L804.34,375.06L811.46,385L839.93,384.1L847.05,385L960.94,384.99L968.06,375.13L975.17,385L982.29,385L1017.88,384.98L1025,383.33" style="vector-effect: none; fill: none; stroke: rgb(128, 133, 233); stroke-opacity: 1; stroke-width: 2px; opacity: 1;"/></g><g class="points"/><g class="text"/></g><g class="trace scatter trace07b12a" style="stroke-miterlimit: 2; opacity: 1;"><g class="fills"/><g class="errorbars"/><g class="lines"><path class="js-line" d="M0,385L363.02,385L370.14,375.3L377.26,385L384.38,385L391.49,385L398.61,375.06L405.73,385L412.85,385L512.5,385L519.62,384.17L533.85,385L540.97,384.94L633.51,385L640.63,385L711.81,385L718.92,374.98L726.04,385L733.16,385L790.1,385L797.22,374.97L804.34,375.07L811.46,385L839.93,384.11L847.05,385L960.94,384.99L968.06,375.1L975.17,385L982.29,385L1017.88,384.98L1025,383.36" style="vector-effect: none; fill: none; stroke: rgb(241, 92, 128); stroke-opacity: 1; stroke-width: 2px; opacity: 1;"/></g><g class="points"/><g class="text"/></g><g class="trace scatter trace38e62a" style="stroke-miterlimit: 2; opacity: 1;"><g class="fills"/><g class="errorbars"/><g class="lines"><path class="js-line" d="M0,385L363.02,385L370.14,375.01L377.26,385L384.38,385L391.49,385L398.61,375.08L405.73,385L412.85,385L512.5,385L519.62,384.18L533.85,385L540.97,384.95L654.86,385L661.98,384.88L690.45,384.99L697.57,384.68L711.81,385L718.92,375.19L726.04,385L733.16,385L790.1,385L797.22,375.02L804.34,374.86L811.46,385L839.93,384.11L847.05,385L960.94,384.99L968.06,375.33L975.17,385L982.29,385L1017.88,384.98L1025,383.36" style="vector-effect: none; fill: none; stroke: rgb(228, 211, 84); stroke-opacity: 1; stroke-width: 2px; opacity: 1;"/></g><g class="points"/><g class="text"/></g><g class="trace scatter tracefb6ec1" style="stroke-miterlimit: 2; opacity: 1;"><g class="fills"/><g class="errorbars"/><g class="lines"><path class="js-line" d="M0,385L363.02,385L370.14,375.26L377.26,385L384.38,385L391.49,385L398.61,375.14L405.73,385L412.85,385L512.5,385L519.62,384.18L533.85,385L540.97,384.95L654.86,385L661.98,384.87L690.45,384.99L697.57,384.66L711.81,385L718.92,374.9L726.04,385L733.16,385L790.1,385L797.22,375.08L804.34,374.98L811.46,385L839.93,384.12L847.05,385L960.94,385L968.06,375.18L975.17,385L982.29,385L1017.88,384.98L1025,383.33" style="vector-effect: none; fill: none; stroke: rgb(43, 144, 143); stroke-opacity: 1; stroke-width: 2px; opacity: 1;"/></g><g class="points"/><g class="text"/></g><g class="trace scatter trace01326e" style="stroke-miterlimit: 2; opacity: 1;"><g class="fills"/><g class="errorbars"/><g class="lines"><path class="js-line" d="M0,385L363.02,385L370.14,375.17L377.26,385L384.38,385L391.49,385L398.61,374.85L405.73,385L412.85,385L512.5,385L519.62,384.13L526.74,384.96L533.85,385L619.27,385L626.39,385L711.81,385L718.92,375.11L726.04,385L733.16,385L790.1,385L797.22,375L804.34,374.96L811.46,385L832.81,384.93L839.93,384.06L847.05,385L854.17,385L960.94,384.99L968.06,375.01L975.17,385L982.29,385L1017.88,384.98L1025,383.34" style="vector-effect: none; fill: none; stroke: rgb(244, 91, 91); stroke-opacity: 1; stroke-width: 2px; opacity: 1;"/></g><g class="points"/><g class="text"/></g><g class="trace scatter trace9c12f8" style="stroke-miterlimit: 2; opacity: 1;"><g class="fills"/><g class="errorbars"/><g class="lines"><path class="js-line" d="M0,385L363.02,385L370.14,375.09L377.26,385L384.38,385L391.49,385L398.61,375.07L405.73,385L412.85,385L512.5,385L519.62,384.17L533.85,385L540.97,384.95L654.86,385L661.98,384.87L690.45,384.99L697.57,384.68L711.81,385L718.92,375L726.04,385L733.16,385L790.1,385L797.22,374.94L804.34,375.07L811.46,385L839.93,384.1L847.05,385L960.94,385L968.06,375.05L975.17,385L982.29,385L1017.88,384.98L1025,383.39" style="vector-effect: none; fill: none; stroke: rgb(145, 232, 225); stroke-opacity: 1; stroke-width: 2px; opacity: 1;"/></g><g class="points"/><g class="text"/></g><g class="trace scatter tracefc23d0" style="stroke-miterlimit: 2; opacity: 1;"><g class="fills"/><g class="errorbars"/><g class="lines"><path class="js-line" d="M0,385L363.02,385L370.14,375.22L377.26,385L384.38,385L391.49,385L398.61,375.26L405.73,385L412.85,385L512.5,385L519.62,384.14L526.74,384.95L533.85,385L619.27,385L626.39,385L711.81,385L718.92,375.06L726.04,385L733.16,385L790.1,385L797.22,374.98L804.34,374.98L811.46,385L832.81,384.92L839.93,384.06L847.05,385L854.17,385L960.94,384.99L968.06,375.23L975.17,385L982.29,385L1017.88,384.98L1025,383.34" style="vector-effect: none; fill: none; stroke: rgb(124, 181, 236); stroke-opacity: 1; stroke-width: 2px; opacity: 1;"/></g><g class="points"/><g class="text"/></g><g class="trace scatter trace6d9f86" style="stroke-miterlimit: 2; opacity: 1;"><g class="fills"/><g class="errorbars"/><g class="lines"><path class="js-line" d="M0,385L363.02,385L370.14,375.27L377.26,385L384.38,385L391.49,385L398.61,375.21L405.73,385L412.85,385L512.5,385L519.62,384.14L526.74,384.96L533.85,385L640.63,385L647.74,385L711.81,385L718.92,375.07L726.04,385L733.16,385L790.1,385L797.22,375.07L804.34,375.07L811.46,385L832.81,384.92L839.93,384.08L847.05,385L854.17,385L960.94,385L968.06,375.17L975.17,385L982.29,385L1017.88,384.98L1025,383.36" style="vector-effect: none; fill: none; stroke: rgb(67, 67, 72); stroke-opacity: 1; stroke-width: 2px; opacity: 1;"/></g><g class="points"/><g class="text"/></g><g class="trace scatter trace5726a7" style="stroke-miterlimit: 2; opacity: 1;"><g class="fills"/><g class="errorbars"/><g class="lines"><path class="js-line" d="M0,385L363.02,385L370.14,375.22L377.26,385L384.38,385L391.49,385L398.61,374.99L405.73,385L412.85,385L512.5,385L519.62,384.15L533.85,385L540.97,384.94L633.51,385L640.63,385L711.81,385L718.92,375.01L726.04,385L733.16,385L790.1,385L797.22,375L804.34,374.97L811.46,385L839.93,384.09L847.05,385L960.94,384.99L968.06,375.09L975.17,385L982.29,385L1017.88,384.98L1025,383.33" style="vector-effect: none; fill: none; stroke: rgb(144, 237, 125); stroke-opacity: 1; stroke-width: 2px; opacity: 1;"/></g><g class="points"/><g class="text"/></g><g class="trace scatter trace761b2c" style="stroke-miterlimit: 2; opacity: 1;"><g class="fills"/><g class="errorbars"/><g class="lines"><path class="js-line" d="M0,385L363.02,385L370.14,375.25L377.26,385L384.38,385L391.49,385L398.61,375.15L405.73,385L412.85,385L512.5,385L519.62,384.13L526.74,384.95L533.85,385L619.27,385L626.39,385L711.81,385L718.92,375.07L726.04,385L733.16,385L790.1,385L797.22,375.16L804.34,375.05L811.46,385L832.81,384.92L839.93,384.07L847.05,385L854.17,385L960.94,384.99L968.06,375.17L975.17,385L982.29,385L1017.88,384.98L1025,383.29" style="vector-effect: none; fill: none; stroke: rgb(247, 163, 92); stroke-opacity: 1; stroke-width: 2px; opacity: 1;"/></g><g class="points"/><g class="text"/></g><g class="trace scatter trace7c1345" style="stroke-miterlimit: 2; opacity: 1;"><g class="fills"/><g class="errorbars"/><g class="lines"><path class="js-line" d="M0,385L363.02,385L370.14,375.24L377.26,385L384.38,385L391.49,385L398.61,374.95L405.73,385L412.85,385L512.5,385L519.62,384.14L526.74,384.95L533.85,385L619.27,385L626.39,385L711.81,385L718.92,374.96L726.04,385L733.16,385L790.1,385L797.22,374.94L804.34,375.01L811.46,385L832.81,384.93L839.93,384.08L847.05,385L854.17,385L960.94,384.99L968.06,375.21L975.17,385L982.29,385L1017.88,384.98L1025,383.34" style="vector-effect: none; fill: none; stroke: rgb(128, 133, 233); stroke-opacity: 1; stroke-width: 2px; opacity: 1;"/></g><g class="points"/><g class="text"/></g><g class="trace scatter trace59d75d" style="stroke-miterlimit: 2; opacity: 1;"><g class="fills"/><g class="errorbars"/><g class="lines"><path class="js-line" d="M0,385L363.02,385L370.14,375.21L377.26,385L384.38,385L391.49,385L398.61,375.23L405.73,385L412.85,385L512.5,385L519.62,384.12L526.74,384.96L533.85,385L619.27,385L626.39,385L711.81,385L718.92,375.05L726.04,385L733.16,385L790.1,385L797.22,374.94L804.34,375.07L811.46,385L832.81,384.92L839.93,384.05L847.05,385L854.17,385L960.94,384.99L968.06,375.28L975.17,385L982.29,385L1017.88,384.98L1025,383.34" style="vector-effect: none; fill: none; stroke: rgb(241, 92, 128); stroke-opacity: 1; stroke-width: 2px; opacity: 1;"/></g><g class="points"/><g class="text"/></g><g class="trace scatter trace454de6" style="stroke-miterlimit: 2; opacity: 1;"><g class="fills"/><g class="errorbars"/><g class="lines"><path class="js-line" d="M0,385L363.02,385L370.14,374.92L377.26,385L384.38,385L391.49,385L398.61,375.18L405.73,385L412.85,385L512.5,385L519.62,384.15L533.85,385L540.97,384.95L654.86,385L661.98,384.87L690.45,384.99L697.57,384.67L711.81,385L718.92,375.21L726.04,385L733.16,385L790.1,385L797.22,375.11L804.34,375.29L811.46,385L839.93,384.1L847.05,385L960.94,384.99L968.06,375.24L975.17,385L982.29,385L1017.88,384.98L1025,383.33" style="vector-effect: none; fill: none; stroke: rgb(228, 211, 84); stroke-opacity: 1; stroke-width: 2px; opacity: 1;"/></g><g class="points"/><g class="text"/></g><g class="trace scatter trace68096a" style="stroke-miterlimit: 2; opacity: 1;"><g class="fills"/><g class="errorbars"/><g class="lines"><path class="js-line" d="M0,385L363.02,385L370.14,374.88L377.26,385L384.38,385L391.49,385L398.61,375.17L405.73,385L412.85,385L512.5,385L519.62,384.16L533.85,385L540.97,384.95L654.86,385L661.98,384.87L690.45,384.99L697.57,384.68L711.81,385L718.92,375.18L726.04,385L733.16,385L790.1,385L797.22,374.94L804.34,375.12L811.46,385L839.93,384.09L847.05,385L960.94,384.99L968.06,375.22L975.17,385L982.29,385L1017.88,384.99L1025,383.31" style="vector-effect: none; fill: none; stroke: rgb(43, 144, 143); stroke-opacity: 1; stroke-width: 2px; opacity: 1;"/></g><g class="points"/><g class="text"/></g><g class="trace scatter traceb1fcd0" style="stroke-miterlimit: 2; opacity: 1;"><g class="fills"/><g class="errorbars"/><g class="lines"><path class="js-line" d="M0,385L363.02,385L370.14,374.85L377.26,385L384.38,385L391.49,385L398.61,375.3L405.73,385L412.85,385L512.5,385L519.62,384.15L533.85,385L540.97,384.94L633.51,385L640.63,385L711.81,385L718.92,375.22L726.04,385L733.16,385L790.1,385L797.22,375.06L804.34,375.06L811.46,385L839.93,384.07L847.05,385L960.94,384.99L968.06,375.28L975.17,385L982.29,385L1017.88,384.99L1025,383.35" style="vector-effect: none; fill: none; stroke: rgb(244, 91, 91); stroke-opacity: 1; stroke-width: 2px; opacity: 1;"/></g><g class="points"/><g class="text"/></g><g class="trace scatter trace895be3" style="stroke-miterlimit: 2; opacity: 1;"><g class="fills"/><g class="errorbars"/><g class="lines"><path class="js-line" d="M0,385L363.02,385L370.14,375L377.26,385L384.38,385L391.49,385L398.61,375.07L405.73,385L412.85,385L512.5,385L519.62,384.18L533.85,385L540.97,384.94L633.51,385L640.63,385L711.81,385L718.92,375.09L726.04,385L733.16,385L790.1,385L797.22,374.95L804.34,374.94L811.46,385L839.93,384.11L847.05,385L960.94,385L968.06,375.1L975.17,385L982.29,385L1017.88,384.98L1025,383.34" style="vector-effect: none; fill: none; stroke: rgb(145, 232, 225); stroke-opacity: 1; stroke-width: 2px; opacity: 1;"/></g><g class="points"/><g class="text"/></g><g class="trace scatter trace671beb" style="stroke-miterlimit: 2; opacity: 1;"><g class="fills"/><g class="errorbars"/><g class="lines"><path class="js-line" d="M0,385L363.02,385L370.14,375.05L377.26,385L384.38,385L391.49,385L398.61,375.29L405.73,385L412.85,385L512.5,385L519.62,384.15L533.85,385L540.97,384.95L654.86,385L661.98,384.87L690.45,384.99L697.57,384.68L711.81,385L718.92,375.11L726.04,385L733.16,385L790.1,385L797.22,375.13L804.34,374.94L811.46,385L839.93,384.1L847.05,385L960.94,384.99L968.06,375.17L975.17,385L982.29,385L1017.88,384.99L1025,383.33" style="vector-effect: none; fill: none; stroke: rgb(124, 181, 236); stroke-opacity: 1; stroke-width: 2px; opacity: 1;"/></g><g class="points"/><g class="text"/></g><g class="trace scatter trace01394f" style="stroke-miterlimit: 2; opacity: 1;"><g class="fills"/><g class="errorbars"/><g class="lines"><path class="js-line" d="M0,385L363.02,385L370.14,374.98L377.26,385L384.38,385L391.49,385L398.61,375.23L405.73,385L412.85,385L512.5,385L519.62,384.16L526.74,384.96L533.85,385L619.27,385L626.39,385L711.81,385L718.92,375.16L726.04,385L733.16,385L790.1,385L797.22,375.16L804.34,375.15L811.46,385L839.93,384.11L847.05,385L960.94,385L968.06,375.25L975.17,385L982.29,385L1017.88,384.98L1025,383.35" style="vector-effect: none; fill: none; stroke: rgb(67, 67, 72); stroke-opacity: 1; stroke-width: 2px; opacity: 1;"/></g><g class="points"/><g class="text"/></g><g class="trace scatter trace368570" style="stroke-miterlimit: 2; opacity: 1;"><g class="fills"/><g class="errorbars"/><g class="lines"><path class="js-line" d="M0,385L363.02,385L370.14,374.89L377.26,385L384.38,385L391.49,385L398.61,375.15L405.73,385L412.85,385L512.5,385L519.62,384.14L526.74,384.96L533.85,385L640.63,385L647.74,385L711.81,385L718.92,375.21L726.04,385L733.16,385L790.1,385L797.22,375.1L804.34,375.16L811.46,385L832.81,384.92L839.93,384.08L847.05,385L854.17,385L960.94,384.99L968.06,375.22L975.17,385L982.29,385L1017.88,384.99L1025,383.31" style="vector-effect: none; fill: none; stroke: rgb(144, 237, 125); stroke-opacity: 1; stroke-width: 2px; opacity: 1;"/></g><g class="points"/><g class="text"/></g><g class="trace scatter trace214e2b" style="stroke-miterlimit: 2; opacity: 1;"><g class="fills"/><g class="errorbars"/><g class="lines"><path class="js-line" d="M0,385L363.02,385L370.14,374.9L377.26,385L384.38,385L391.49,385L398.61,375.23L405.73,385L412.85,385L512.5,385L519.62,384.15L526.74,384.96L533.85,385L640.63,385L647.74,385L711.81,385L718.92,375.2L726.04,385L733.16,385L790.1,385L797.22,375.09L804.34,375.06L811.46,385L839.93,384.1L847.05,385L960.94,384.99L968.06,375.07L975.17,385L982.29,385L1017.88,384.99L1025,383.3" style="vector-effect: none; fill: none; stroke: rgb(247, 163, 92); stroke-opacity: 1; stroke-width: 2px; opacity: 1;"/></g><g class="points"/><g class="text"/></g><g class="trace scatter tracef3329e" style="stroke-miterlimit: 2; opacity: 1;"><g class="fills"/><g class="errorbars"/><g class="lines"><path class="js-line" d="M0,385L363.02,385L370.14,374.93L377.26,385L384.38,385L391.49,385L398.61,375.13L405.73,385L412.85,385L512.5,385L519.62,384.15L526.74,384.96L533.85,385L619.27,385L626.39,385L711.81,385L718.92,375.03L726.04,385L733.16,385L790.1,385L797.22,375.03L804.34,375.03L811.46,385L832.81,384.92L839.93,384.09L847.05,385L854.17,385L960.94,384.99L968.06,375.17L975.17,385L982.29,385L1017.88,384.99L1025,383.38" style="vector-effect: none; fill: none; stroke: rgb(128, 133, 233); stroke-opacity: 1; stroke-width: 2px; opacity: 1;"/></g><g class="points"/><g class="text"/></g><g class="trace scatter traceedaefc" style="stroke-miterlimit: 2; opacity: 1;"><g class="fills"/><g class="errorbars"/><g class="lines"><path class="js-line" d="M0,385L363.02,385L370.14,375L377.26,385L384.38,385L391.49,385L398.61,375.23L405.73,385L412.85,385L512.5,385L519.62,384.11L526.74,384.94L533.85,385L640.63,385L647.74,385L711.81,385L718.92,375.05L726.04,385L733.16,385L790.1,385L797.22,375.06L804.34,375.05L811.46,385L832.81,384.93L839.93,384.05L847.05,385L854.17,385L960.94,384.99L968.06,375.06L975.17,385L982.29,385L1017.88,384.99L1025,383.32" style="vector-effect: none; fill: none; stroke: rgb(241, 92, 128); stroke-opacity: 1; stroke-width: 2px; opacity: 1;"/></g><g class="points"/><g class="text"/></g><g class="trace scatter trace8ba488" style="stroke-miterlimit: 2; opacity: 1;"><g class="fills"/><g class="errorbars"/><g class="lines"><path class="js-line" d="M0,385L363.02,385L370.14,374.94L377.26,385L384.38,385L391.49,385L398.61,375.16L405.73,385L412.85,385L512.5,385L519.62,384.15L533.85,385L540.97,384.94L633.51,385L640.63,385L711.81,385L718.92,375.26L726.04,385L733.16,385L790.1,385L797.22,375.1L804.34,375.07L811.46,385L839.93,384.09L847.05,385L960.94,384.99L968.06,375.2L975.17,385L982.29,385L1017.88,384.98L1025,383.33" style="vector-effect: none; fill: none; stroke: rgb(228, 211, 84); stroke-opacity: 1; stroke-width: 2px; opacity: 1;"/></g><g class="points"/><g class="text"/></g><g class="trace scatter trace0fe3e4" style="stroke-miterlimit: 2; opacity: 1;"><g class="fills"/><g class="errorbars"/><g class="lines"><path class="js-line" d="M0,385L363.02,385L370.14,374.97L377.26,385L384.38,385L391.49,385L398.61,375.27L405.73,385L412.85,385L512.5,385L519.62,384.15L533.85,385L540.97,384.94L633.51,385L640.63,385L711.81,385L718.92,375.12L726.04,385L733.16,385L790.1,385L797.22,375.05L804.34,375.05L811.46,385L839.93,384.09L847.05,385L960.94,384.99L968.06,375.14L975.17,385L982.29,385L1017.88,384.99L1025,383.35" style="vector-effect: none; fill: none; stroke: rgb(43, 144, 143); stroke-opacity: 1; stroke-width: 2px; opacity: 1;"/></g><g class="points"/><g class="text"/></g><g class="trace scatter tracef2bce1" style="stroke-miterlimit: 2; opacity: 1;"><g class="fills"/><g class="errorbars"/><g class="lines"><path class="js-line" d="M0,385L363.02,385L370.14,374.96L377.26,385L384.38,385L391.49,385L398.61,375.14L405.73,385L412.85,385L512.5,385L519.62,384.15L533.85,385L540.97,384.94L633.51,385L640.63,385L711.81,385L718.92,375.13L726.04,385L733.16,385L790.1,385L797.22,374.93L804.34,375.03L811.46,385L839.93,384.09L847.05,385L960.94,385L968.06,375.25L975.17,385L982.29,385L1017.88,384.99L1025,383.32" style="vector-effect: none; fill: none; stroke: rgb(244, 91, 91); stroke-opacity: 1; stroke-width: 2px; opacity: 1;"/></g><g class="points"/><g class="text"/></g><g class="trace scatter trace89714c" style="stroke-miterlimit: 2; opacity: 1;"><g class="fills"/><g class="errorbars"/><g class="lines"><path class="js-line" d="M0,385L363.02,385L370.14,374.97L377.26,385L384.38,385L391.49,385L398.61,375.17L405.73,385L412.85,385L512.5,385L519.62,384.15L533.85,385L540.97,384.95L654.86,385L661.98,384.87L690.45,384.99L697.57,384.68L711.81,385L718.92,375.07L726.04,385L733.16,385L790.1,385L797.22,375.11L804.34,375.23L811.46,385L839.93,384.09L847.05,385L960.94,385L968.06,375.21L975.17,385L982.29,385L1017.88,384.99L1025,383.36" style="vector-effect: none; fill: none; stroke: rgb(145, 232, 225); stroke-opacity: 1; stroke-width: 2px; opacity: 1;"/></g><g class="points"/><g class="text"/></g><g class="trace scatter trace3a94e3" style="stroke-miterlimit: 2; opacity: 1;"><g class="fills"/><g class="errorbars"/><g class="lines"><path class="js-line" d="M0,385L363.02,385L370.14,375.04L377.26,385L384.38,385L391.49,385L398.61,375.18L405.73,385L412.85,385L512.5,385L519.62,384.16L533.85,385L540.97,384.95L654.86,385L661.98,384.88L711.81,385L718.92,375.13L726.04,385L733.16,385L790.1,385L797.22,375.13L804.34,375.22L811.46,385L839.93,384.09L847.05,385L960.94,384.99L968.06,375.13L975.17,385L982.29,385L1017.88,384.99L1025,383.36" style="vector-effect: none; fill: none; stroke: rgb(124, 181, 236); stroke-opacity: 1; stroke-width: 2px; opacity: 1;"/></g><g class="points"/><g class="text"/></g><g class="trace scatter trace28f11d" style="stroke-miterlimit: 2; opacity: 1;"><g class="fills"/><g class="errorbars"/><g class="lines"><path class="js-line" d="M0,385L363.02,385L370.14,375.01L377.26,385L384.38,385L391.49,385L398.61,375.19L405.73,385L412.85,385L512.5,385L519.62,384.15L533.85,385L540.97,384.95L654.86,385L661.98,384.89L711.81,385L718.92,375.19L726.04,385L733.16,385L790.1,385L797.22,375.11L804.34,375.13L811.46,385L832.81,384.92L839.93,384.08L847.05,385L854.17,385L960.94,384.99L968.06,375.29L975.17,385L982.29,385L1017.88,384.99L1025,383.35" style="vector-effect: none; fill: none; stroke: rgb(67, 67, 72); stroke-opacity: 1; stroke-width: 2px; opacity: 1;"/></g><g class="points"/><g class="text"/></g><g class="trace scatter trace132ce9" style="stroke-miterlimit: 2; opacity: 1;"><g class="fills"/><g class="errorbars"/><g class="lines"><path class="js-line" d="M0,385L363.02,385L370.14,375.15L377.26,385L384.38,385L391.49,385L398.61,375.21L405.73,385L412.85,385L512.5,385L519.62,384.14L526.74,384.95L533.85,385L619.27,385L626.39,385L711.81,385L718.92,375.04L726.04,385L733.16,385L790.1,385L797.22,375.14L804.34,375.11L811.46,385L839.93,384.08L847.05,385L960.94,384.99L968.06,375.28L975.17,385L982.29,385L1017.88,384.98L1025,383.34" style="vector-effect: none; fill: none; stroke: rgb(144, 237, 125); stroke-opacity: 1; stroke-width: 2px; opacity: 1;"/></g><g class="points"/><g class="text"/></g><g class="trace scatter trace88f9aa" style="stroke-miterlimit: 2; opacity: 1;"><g class="fills"/><g class="errorbars"/><g class="lines"><path class="js-line" d="M0,385L363.02,385L370.14,375.04L377.26,385L384.38,385L391.49,385L398.61,375.21L405.73,385L412.85,385L512.5,385L519.62,384.15L533.85,385L540.97,384.94L633.51,385L640.63,385L711.81,385L718.92,375.11L726.04,385L733.16,385L790.1,385L797.22,375.02L804.34,375L811.46,385L832.81,384.91L839.93,384.08L847.05,385L854.17,385L960.94,384.99L968.06,375.4L975.17,385L982.29,385L1017.88,384.99L1025,383.36" style="vector-effect: none; fill: none; stroke: rgb(247, 163, 92); stroke-opacity: 1; stroke-width: 2px; opacity: 1;"/></g><g class="points"/><g class="text"/></g><g class="trace scatter trace91b956" style="stroke-miterlimit: 2; opacity: 1;"><g class="fills"/><g class="errorbars"/><g class="lines"><path class="js-line" d="M0,385L363.02,385L370.14,375.17L377.26,385L384.38,385L391.49,385L398.61,375.16L405.73,385L412.85,385L512.5,385L519.62,384.16L533.85,385L540.97,384.94L633.51,385L640.63,385L711.81,385L718.92,375.01L726.04,385L733.16,385L790.1,385L797.22,375.04L804.34,374.94L811.46,385L839.93,384.09L847.05,385L960.94,385L968.06,375.3L975.17,385L982.29,385L1017.88,384.98L1025,383.34" style="vector-effect: none; fill: none; stroke: rgb(128, 133, 233); stroke-opacity: 1; stroke-width: 2px; opacity: 1;"/></g><g class="points"/><g class="text"/></g><g class="trace scatter traceaed3c9" style="stroke-miterlimit: 2; opacity: 1;"><g class="fills"/><g class="errorbars"/><g class="lines"><path class="js-line" d="M0,385L363.02,385L370.14,375.06L377.26,385L384.38,385L391.49,385L398.61,375.13L405.73,385L412.85,385L512.5,385L519.62,384.15L533.85,385L540.97,384.94L633.51,385L640.63,385L711.81,385L718.92,375.19L726.04,385L733.16,385L790.1,385L797.22,375.01L804.34,375.06L811.46,385L839.93,384.11L847.05,385L960.94,384.99L968.06,375.14L975.17,385L982.29,385L1017.88,384.99L1025,383.35" style="vector-effect: none; fill: none; stroke: rgb(241, 92, 128); stroke-opacity: 1; stroke-width: 2px; opacity: 1;"/></g><g class="points"/><g class="text"/></g><g class="trace scatter tracee703fa" style="stroke-miterlimit: 2; opacity: 1;"><g class="fills"/><g class="errorbars"/><g class="lines"><path class="js-line" d="M0,385L363.02,385L370.14,375.1L377.26,385L384.38,385L391.49,385L398.61,375.27L405.73,385L412.85,385L512.5,385L519.62,384.15L533.85,385L540.97,384.95L654.86,385L661.98,384.87L690.45,384.99L697.57,384.67L711.81,385L718.92,375.11L726.04,385L733.16,385L790.1,385L797.22,375.05L804.34,374.99L811.46,385L839.93,384.09L847.05,385L960.94,384.99L968.06,375.22L975.17,385L982.29,385L1017.88,384.98L1025,383.33" style="vector-effect: none; fill: none; stroke: rgb(228, 211, 84); stroke-opacity: 1; stroke-width: 2px; opacity: 1;"/></g><g class="points"/><g class="text"/></g><g class="trace scatter trace2dd331" style="stroke-miterlimit: 2; opacity: 1;"><g class="fills"/><g class="errorbars"/><g class="lines"><path class="js-line" d="M0,385L363.02,385L370.14,375.24L377.26,385L384.38,385L391.49,385L398.61,375.26L405.73,385L412.85,385L512.5,385L519.62,384.18L533.85,385L540.97,384.95L654.86,385L661.98,384.87L690.45,384.99L697.57,384.69L711.81,385L718.92,374.99L726.04,385L733.16,385L790.1,385L797.22,374.99L804.34,375.08L811.46,385L839.93,384.11L847.05,385L960.94,384.99L968.06,375.08L975.17,385L982.29,385L1017.88,384.98L1025,383.37" style="vector-effect: none; fill: none; stroke: rgb(43, 144, 143); stroke-opacity: 1; stroke-width: 2px; opacity: 1;"/></g><g class="points"/><g class="text"/></g><g class="trace scatter traced6e9b0" style="stroke-miterlimit: 2; opacity: 1;"><g class="fills"/><g class="errorbars"/><g class="lines"><path class="js-line" d="M0,385L363.02,385L370.14,374.88L377.26,385L384.38,385L391.49,385L398.61,375.21L405.73,385L412.85,385L512.5,385L519.62,384.13L526.74,384.95L533.85,385L640.63,385L647.74,385L711.81,385L718.92,374.98L726.04,385L733.16,385L790.1,385L797.22,375.15L804.34,374.99L811.46,385L832.81,384.92L839.93,384.08L847.05,385L854.17,385L960.94,384.99L968.06,375.1L975.17,385L982.29,385L1017.88,384.98L1025,383.31" style="vector-effect: none; fill: none; stroke: rgb(244, 91, 91); stroke-opacity: 1; stroke-width: 2px; opacity: 1;"/></g><g class="points"/><g class="text"/></g><g class="trace scatter trace7128f7" style="stroke-miterlimit: 2; opacity: 1;"><g class="fills"/><g class="errorbars"/><g class="lines"><path class="js-line" d="M0,385L363.02,385L370.14,375.06L377.26,385L384.38,385L391.49,385L398.61,375.24L405.73,385L412.85,385L512.5,385L519.62,384.16L533.85,385L540.97,384.94L633.51,385L640.63,385L711.81,385L718.92,375.14L726.04,385L733.16,385L790.1,385L797.22,375.07L804.34,375.15L811.46,385L839.93,384.11L847.05,385L960.94,384.99L968.06,375.24L975.17,385L982.29,385L1017.88,384.98L1025,383.37" style="vector-effect: none; fill: none; stroke: rgb(145, 232, 225); stroke-opacity: 1; stroke-width: 2px; opacity: 1;"/></g><g class="points"/><g class="text"/></g><g class="trace scatter trace1e29f7" style="stroke-miterlimit: 2; opacity: 1;"><g class="fills"/><g class="errorbars"/><g class="lines"><path class="js-line" d="M0,385L363.02,385L370.14,375.03L377.26,385L384.38,385L391.49,385L398.61,375.33L405.73,385L412.85,385L512.5,385L519.62,384.14L526.74,384.95L533.85,385L605.03,385L612.15,385L711.81,385L718.92,375.13L726.04,385L733.16,385L790.1,385L797.22,375.01L804.34,375.19L811.46,385L832.81,384.91L839.93,384.07L847.05,385L854.17,385L960.94,384.99L968.06,375.32L975.17,385L982.29,385L1017.88,384.99L1025,383.34" style="vector-effect: none; fill: none; stroke: rgb(124, 181, 236); stroke-opacity: 1; stroke-width: 2px; opacity: 1;"/></g><g class="points"/><g class="text"/></g><g class="trace scatter trace870ef5" style="stroke-miterlimit: 2; opacity: 1;"><g class="fills"/><g class="errorbars"/><g class="lines"><path class="js-line" d="M0,385L363.02,385L370.14,375.18L377.26,385L384.38,385L391.49,385L398.61,375.2L405.73,385L412.85,385L512.5,385L519.62,384.16L533.85,385L540.97,384.95L654.86,385L661.98,384.87L690.45,384.99L697.57,384.67L711.81,385L718.92,375.05L726.04,385L733.16,385L790.1,385L797.22,374.99L804.34,374.99L811.46,385L839.93,384.09L847.05,385L960.94,384.99L968.06,375.05L975.17,385L982.29,385L1017.88,384.99L1025,383.37" style="vector-effect: none; fill: none; stroke: rgb(67, 67, 72); stroke-opacity: 1; stroke-width: 2px; opacity: 1;"/></g><g class="points"/><g class="text"/></g><g class="trace scatter tracecbc5d8" style="stroke-miterlimit: 2; opacity: 1;"><g class="fills"/><g class="errorbars"/><g class="lines"><path class="js-line" d="M0,385L363.02,385L370.14,375.02L377.26,385L384.38,385L391.49,385L398.61,375.23L405.73,385L412.85,385L512.5,385L519.62,384.15L533.85,385L540.97,384.94L633.51,385L640.63,385L711.81,385L718.92,375.08L726.04,385L733.16,385L790.1,385L797.22,374.94L804.34,375.07L811.46,385L839.93,384.1L847.05,385L960.94,384.99L968.06,375.17L975.17,385L982.29,385L1017.88,384.98L1025,383.35" style="vector-effect: none; fill: none; stroke: rgb(144, 237, 125); stroke-opacity: 1; stroke-width: 2px; opacity: 1;"/></g><g class="points"/><g class="text"/></g><g class="trace scatter trace698c52" style="stroke-miterlimit: 2; opacity: 1;"><g class="fills"/><g class="errorbars"/><g class="lines"><path class="js-line" d="M0,385L363.02,385L370.14,375.02L377.26,385L384.38,385L391.49,385L398.61,375.21L405.73,385L412.85,385L512.5,385L519.62,384.14L526.74,384.95L533.85,385L619.27,385L626.39,385L711.81,385L718.92,375.03L726.04,385L733.16,385L790.1,385L797.22,374.98L804.34,375.05L811.46,385L832.81,384.92L839.93,384.08L847.05,385L854.17,385L960.94,384.99L968.06,375.24L975.17,385L982.29,385L1017.88,384.98L1025,383.31" style="vector-effect: none; fill: none; stroke: rgb(247, 163, 92); stroke-opacity: 1; stroke-width: 2px; opacity: 1;"/></g><g class="points"/><g class="text"/></g><g class="trace scatter trace8fc920" style="stroke-miterlimit: 2; opacity: 1;"><g class="fills"/><g class="errorbars"/><g class="lines"><path class="js-line" d="M0,385L363.02,385L370.14,375.1L377.26,385L384.38,385L391.49,385L398.61,375.26L405.73,385L412.85,385L512.5,385L519.62,384.15L533.85,385L540.97,384.95L654.86,385L661.98,384.89L711.81,385L718.92,375.04L726.04,385L733.16,385L790.1,385L797.22,374.96L804.34,375.09L811.46,385L832.81,384.93L839.93,384.09L847.05,385L854.17,385L960.94,384.99L968.06,375.17L975.17,385L982.29,385L1017.88,384.98L1025,383.37" style="vector-effect: none; fill: none; stroke: rgb(128, 133, 233); stroke-opacity: 1; stroke-width: 2px; opacity: 1;"/></g><g class="points"/><g class="text"/></g><g class="trace scatter traced5a908" style="stroke-miterlimit: 2; opacity: 1;"><g class="fills"/><g class="errorbars"/><g class="lines"><path class="js-line" d="M0,385L363.02,385L370.14,375.06L377.26,385L384.38,385L391.49,385L398.61,375.3L405.73,385L412.85,385L512.5,385L519.62,384.15L533.85,385L540.97,384.95L654.86,385L661.98,384.88L711.81,385L718.92,374.97L726.04,385L733.16,385L790.1,385L797.22,375.09L804.34,374.94L811.46,385L839.93,384.1L847.05,385L960.94,384.99L968.06,375.28L975.17,385L982.29,385L1017.88,384.99L1025,383.35" style="vector-effect: none; fill: none; stroke: rgb(241, 92, 128); stroke-opacity: 1; stroke-width: 2px; opacity: 1;"/></g><g class="points"/><g class="text"/></g><g class="trace scatter traceff1c11" style="stroke-miterlimit: 2; opacity: 1;"><g class="fills"/><g class="errorbars"/><g class="lines"><path class="js-line" d="M0,385L363.02,385L370.14,375.1L377.26,385L384.38,385L391.49,385L398.61,375.22L405.73,385L412.85,385L512.5,385L519.62,384.16L533.85,385L540.97,384.94L633.51,385L640.63,385L711.81,385L718.92,375.02L726.04,385L733.16,385L790.1,385L797.22,375.02L804.34,375L811.46,385L839.93,384.1L847.05,385L960.94,384.99L968.06,375.14L975.17,385L982.29,385L1017.88,384.98L1025,383.35" style="vector-effect: none; fill: none; stroke: rgb(228, 211, 84); stroke-opacity: 1; stroke-width: 2px; opacity: 1;"/></g><g class="points"/><g class="text"/></g><g class="trace scatter tracee7c752" style="stroke-miterlimit: 2; opacity: 1;"><g class="fills"/><g class="errorbars"/><g class="lines"><path class="js-line" d="M0,385L363.02,385L370.14,375.04L377.26,385L384.38,385L391.49,385L398.61,375.16L405.73,385L412.85,385L512.5,385L519.62,384.17L533.85,385L540.97,384.94L633.51,385L640.63,385L711.81,385L718.92,375.09L726.04,385L733.16,385L790.1,385L797.22,374.95L804.34,375.07L811.46,385L839.93,384.11L847.05,385L960.94,384.99L968.06,375.24L975.17,385L982.29,385L1017.88,384.98L1025,383.34" style="vector-effect: none; fill: none; stroke: rgb(43, 144, 143); stroke-opacity: 1; stroke-width: 2px; opacity: 1;"/></g><g class="points"/><g class="text"/></g><g class="trace scatter tracedf8058" style="stroke-miterlimit: 2; opacity: 1;"><g class="fills"/><g class="errorbars"/><g class="lines"><path class="js-line" d="M0,385L363.02,385L370.14,375.02L377.26,385L384.38,385L391.49,385L398.61,375.34L405.73,385L412.85,385L512.5,385L519.62,384.15L526.74,384.96L533.85,385L619.27,385L626.39,385L711.81,385L718.92,375.1L726.04,385L733.16,385L790.1,385L797.22,374.98L804.34,375.1L811.46,385L832.81,384.93L839.93,384.09L847.05,385L854.17,385L960.94,384.99L968.06,375.13L975.17,385L982.29,385L1017.88,384.98L1025,383.36" style="vector-effect: none; fill: none; stroke: rgb(244, 91, 91); stroke-opacity: 1; stroke-width: 2px; opacity: 1;"/></g><g class="points"/><g class="text"/></g><g class="trace scatter traced1e280" style="stroke-miterlimit: 2; opacity: 1;"><g class="fills"/><g class="errorbars"/><g class="lines"><path class="js-line" d="M0,385L363.02,385L370.14,374.88L377.26,385L384.38,385L391.49,385L398.61,375.24L405.73,385L412.85,385L512.5,385L519.62,384.14L526.74,384.95L533.85,385L619.27,385L626.39,385L711.81,385L718.92,375.11L726.04,385L733.16,385L790.1,385L797.22,375.19L804.34,375.18L811.46,385L839.93,384.09L847.05,385L960.94,384.99L968.06,375.23L975.17,385L982.29,385L1017.88,384.98L1025,383.33" style="vector-effect: none; fill: none; stroke: rgb(145, 232, 225); stroke-opacity: 1; stroke-width: 2px; opacity: 1;"/></g><g class="points"/><g class="text"/></g><g class="trace scatter trace3524ad" style="stroke-miterlimit: 2; opacity: 1;"><g class="fills"/><g class="errorbars"/><g class="lines"><path class="js-line" d="M0,385L363.02,385L370.14,374.94L377.26,385L384.38,385L391.49,385L398.61,375.28L405.73,385L412.85,385L512.5,385L519.62,384.12L526.74,384.95L533.85,385L640.63,385L647.74,385L711.81,385L718.92,374.95L726.04,385L733.16,385L790.1,385L797.22,375.07L804.34,375.05L811.46,385L832.81,384.92L839.93,384.06L847.05,385L854.17,385L960.94,384.99L968.06,375.19L975.17,385L982.29,385L1017.88,384.98L1025,383.35" style="vector-effect: none; fill: none; stroke: rgb(124, 181, 236); stroke-opacity: 1; stroke-width: 2px; opacity: 1;"/></g><g class="points"/><g class="text"/></g><g class="trace scatter trace7ff1b1" style="stroke-miterlimit: 2; opacity: 1;"><g class="fills"/><g class="errorbars"/><g class="lines"><path class="js-line" d="M0,385L363.02,385L370.14,375.15L377.26,385L384.38,385L391.49,385L398.61,375.11L405.73,385L412.85,385L512.5,385L519.62,384.17L533.85,385L540.97,384.95L654.86,385L661.98,384.87L690.45,384.99L697.57,384.67L711.81,385L718.92,375.05L726.04,385L733.16,385L790.1,385L797.22,374.93L804.34,375.04L811.46,385L839.93,384.09L847.05,385L960.94,384.99L968.06,375.23L975.17,385L982.29,385L1017.88,384.99L1025,383.33" style="vector-effect: none; fill: none; stroke: rgb(67, 67, 72); stroke-opacity: 1; stroke-width: 2px; opacity: 1;"/></g><g class="points"/><g class="text"/></g><g class="trace scatter traceb2c14e" style="stroke-miterlimit: 2; opacity: 1;"><g class="fills"/><g class="errorbars"/><g class="lines"><path class="js-line" d="M0,385L363.02,385L370.14,374.91L377.26,385L384.38,385L391.49,385L398.61,375.23L405.73,385L412.85,385L512.5,385L519.62,384.14L526.74,384.95L533.85,385L640.63,385L647.74,385L711.81,385L718.92,375.18L726.04,385L733.16,385L790.1,385L797.22,374.97L804.34,375.15L811.46,385L832.81,384.92L839.93,384.08L847.05,385L854.17,385L960.94,384.99L968.06,375.21L975.17,385L982.29,385L1017.88,384.99L1025,383.37" style="vector-effect: none; fill: none; stroke: rgb(144, 237, 125); stroke-opacity: 1; stroke-width: 2px; opacity: 1;"/></g><g class="points"/><g class="text"/></g><g class="trace scatter trace66464d" style="stroke-miterlimit: 2; opacity: 1;"><g class="fills"/><g class="errorbars"/><g class="lines"><path class="js-line" d="M0,385L363.02,385L370.14,375.01L377.26,385L384.38,385L391.49,385L398.61,375.21L405.73,385L412.85,385L512.5,385L519.62,384.14L526.74,384.95L533.85,385L640.63,385L647.74,385L711.81,385L718.92,374.98L726.04,385L733.16,385L790.1,385L797.22,375.09L804.34,375.23L811.46,385L839.93,384.09L847.05,385L960.94,384.99L968.06,375.23L975.17,385L982.29,385L1017.88,384.99L1025,383.36" style="vector-effect: none; fill: none; stroke: rgb(247, 163, 92); stroke-opacity: 1; stroke-width: 2px; opacity: 1;"/></g><g class="points"/><g class="text"/></g><g class="trace scatter tracee53860" style="stroke-miterlimit: 2; opacity: 1;"><g class="fills"/><g class="errorbars"/><g class="lines"><path class="js-line" d="M0,385L363.02,385L370.14,375.11L377.26,385L384.38,385L391.49,385L398.61,375.3L405.73,385L412.85,385L512.5,385L519.62,384.15L533.85,385L540.97,384.94L633.51,385L640.63,385L711.81,385L718.92,375.1L726.04,385L733.16,385L790.1,385L797.22,374.93L804.34,375.04L811.46,385L839.93,384.09L847.05,385L960.94,384.99L968.06,375.04L975.17,385L982.29,385L1017.88,384.99L1025,383.34" style="vector-effect: none; fill: none; stroke: rgb(128, 133, 233); stroke-opacity: 1; stroke-width: 2px; opacity: 1;"/></g><g class="points"/><g class="text"/></g><g class="trace scatter trace05967f" style="stroke-miterlimit: 2; opacity: 1;"><g class="fills"/><g class="errorbars"/><g class="lines"><path class="js-line" d="M0,385L363.02,385L370.14,375.02L377.26,385L384.38,385L391.49,385L398.61,375.22L405.73,385L412.85,385L512.5,385L519.62,384.16L533.85,385L540.97,384.95L654.86,385L661.98,384.88L711.81,385L718.92,375L726.04,385L733.16,385L790.1,385L797.22,375.27L804.34,375.06L811.46,385L839.93,384.11L847.05,385L960.94,384.99L968.06,375.26L975.17,385L982.29,385L1017.88,384.98L1025,383.34" style="vector-effect: none; fill: none; stroke: rgb(241, 92, 128); stroke-opacity: 1; stroke-width: 2px; opacity: 1;"/></g><g class="points"/><g class="text"/></g><g class="trace scatter trace23a07e" style="stroke-miterlimit: 2; opacity: 1;"><g class="fills"/><g class="errorbars"/><g class="lines"><path class="js-line" d="M0,385L363.02,385L370.14,375.03L377.26,385L384.38,385L391.49,385L398.61,375.17L405.73,385L412.85,385L512.5,385L519.62,384.13L526.74,384.95L533.85,385L640.63,385L647.74,385L711.81,385L718.92,374.9L726.04,385L733.16,385L790.1,385L797.22,374.97L804.34,375.12L811.46,385L832.81,384.92L839.93,384.07L847.05,385L854.17,385L960.94,384.99L968.06,375.14L975.17,385L982.29,385L1017.88,384.98L1025,383.34" style="vector-effect: none; fill: none; stroke: rgb(228, 211, 84); stroke-opacity: 1; stroke-width: 2px; opacity: 1;"/></g><g class="points"/><g class="text"/></g><g class="trace scatter traced33b71" style="stroke-miterlimit: 2; opacity: 1;"><g class="fills"/><g class="errorbars"/><g class="lines"><path class="js-line" d="M0,385L363.02,385L370.14,375.02L377.26,385L384.38,385L391.49,385L398.61,375.22L405.73,385L412.85,385L512.5,385L519.62,384.14L526.74,384.95L533.85,385L619.27,385L626.39,385L711.81,385L718.92,374.91L726.04,385L733.16,385L790.1,385L797.22,375.05L804.34,375.07L811.46,385L839.93,384.09L847.05,385L960.94,384.99L968.06,375.27L975.17,385L982.29,385L1017.88,384.98L1025,383.34" style="vector-effect: none; fill: none; stroke: rgb(43, 144, 143); stroke-opacity: 1; stroke-width: 2px; opacity: 1;"/></g><g class="points"/><g class="text"/></g><g class="trace scatter trace19b63e" style="stroke-miterlimit: 2; opacity: 1;"><g class="fills"/><g class="errorbars"/><g class="lines"><path class="js-line" d="M0,385L363.02,385L370.14,375.01L377.26,385L384.38,385L391.49,385L398.61,375.15L405.73,385L412.85,385L512.5,385L519.62,384.18L533.85,385L540.97,384.95L654.86,385L661.98,384.87L690.45,384.99L697.57,384.67L711.81,385L718.92,375.09L726.04,385L733.16,385L790.1,385L797.22,375.05L804.34,375.12L811.46,385L839.93,384.11L847.05,385L960.94,384.99L968.06,375.14L975.17,385L982.29,385L1017.88,384.99L1025,383.37" style="vector-effect: none; fill: none; stroke: rgb(244, 91, 91); stroke-opacity: 1; stroke-width: 2px; opacity: 1;"/></g><g class="points"/><g class="text"/></g><g class="trace scatter trace001349" style="stroke-miterlimit: 2; opacity: 1;"><g class="fills"/><g class="errorbars"/><g class="lines"><path class="js-line" d="M0,385L363.02,385L370.14,374.97L377.26,385L384.38,385L391.49,385L398.61,375.09L405.73,385L412.85,385L512.5,385L519.62,384.15L533.85,385L540.97,384.95L654.86,385L661.98,384.88L690.45,384.99L697.57,384.67L711.81,385L718.92,375.06L726.04,385L733.16,385L790.1,385L797.22,375L804.34,375.19L811.46,385L832.81,384.92L839.93,384.09L847.05,385L854.17,385L960.94,384.99L968.06,375.1L975.17,385L982.29,385L1017.88,384.98L1025,383.39" style="vector-effect: none; fill: none; stroke: rgb(145, 232, 225); stroke-opacity: 1; stroke-width: 2px; opacity: 1;"/></g><g class="points"/><g class="text"/></g><g class="trace scatter trace25f1f5" style="stroke-miterlimit: 2; opacity: 1;"><g class="fills"/><g class="errorbars"/><g class="lines"><path class="js-line" d="M0,385L363.02,385L370.14,375.07L377.26,385L384.38,385L391.49,385L398.61,375.04L405.73,385L412.85,385L512.5,385L519.62,384.15L533.85,385L540.97,384.94L633.51,385L640.63,385L711.81,385L718.92,374.79L726.04,385L733.16,385L790.1,385L797.22,375.16L804.34,375.28L811.46,385L839.93,384.09L847.05,385L960.94,385L968.06,375.04L975.17,385L982.29,385L1017.88,384.99L1025,383.41" style="vector-effect: none; fill: none; stroke: rgb(124, 181, 236); stroke-opacity: 1; stroke-width: 2px; opacity: 1;"/></g><g class="points"/><g class="text"/></g><g class="trace scatter trace3eaa58" style="stroke-miterlimit: 2; opacity: 1;"><g class="fills"/><g class="errorbars"/><g class="lines"><path class="js-line" d="M0,385L363.02,385L370.14,374.93L377.26,385L384.38,385L391.49,385L398.61,375.22L405.73,385L412.85,385L512.5,385L519.62,384.15L533.85,385L540.97,384.95L654.86,385L661.98,384.87L690.45,384.99L697.57,384.66L711.81,385L718.92,375.08L726.04,385L733.16,385L790.1,385L797.22,375.03L804.34,375.18L811.46,385L832.81,384.92L839.93,384.08L847.05,385L854.17,385L960.94,384.99L968.06,375.23L975.17,385L982.29,385L1017.88,384.98L1025,383.34" style="vector-effect: none; fill: none; stroke: rgb(67, 67, 72); stroke-opacity: 1; stroke-width: 2px; opacity: 1;"/></g><g class="points"/><g class="text"/></g><g class="trace scatter tracedca47c" style="stroke-miterlimit: 2; opacity: 1;"><g class="fills"/><g class="errorbars"/><g class="lines"><path class="js-line" d="M0,385L363.02,385L370.14,375.03L377.26,385L384.38,385L391.49,385L398.61,375.06L405.73,385L412.85,385L512.5,385L519.62,384.14L526.74,384.95L533.85,385L640.63,385L647.74,385L711.81,385L718.92,374.98L726.04,385L733.16,385L790.1,385L797.22,374.98L804.34,375.16L811.46,385L839.93,384.07L847.05,385L960.94,384.99L968.06,375.01L975.17,385L982.29,385L1017.88,384.99L1025,383.37" style="vector-effect: none; fill: none; stroke: rgb(144, 237, 125); stroke-opacity: 1; stroke-width: 2px; opacity: 1;"/></g><g class="points"/><g class="text"/></g><g class="trace scatter trace224eee" style="stroke-miterlimit: 2; opacity: 1;"><g class="fills"/><g class="errorbars"/><g class="lines"><path class="js-line" d="M0,385L363.02,385L370.14,374.91L377.26,385L384.38,385L391.49,385L398.61,375.21L405.73,385L412.85,385L512.5,385L519.62,384.15L526.74,384.96L533.85,385L640.63,385L647.74,385L711.81,385L718.92,374.97L726.04,385L733.16,385L790.1,385L797.22,375.17L804.34,375.11L811.46,385L839.93,384.09L847.05,385L960.94,384.99L968.06,375.12L975.17,385L982.29,385L1017.88,384.99L1025,383.37" style="vector-effect: none; fill: none; stroke: rgb(247, 163, 92); stroke-opacity: 1; stroke-width: 2px; opacity: 1;"/></g><g class="points"/><g class="text"/></g><g class="trace scatter trace8d7dc3" style="stroke-miterlimit: 2; opacity: 1;"><g class="fills"/><g class="errorbars"/><g class="lines"><path class="js-line" d="M0,385L363.02,385L370.14,375.25L377.26,385L384.38,385L391.49,385L398.61,375.22L405.73,385L412.85,385L512.5,385L519.62,384.16L526.74,384.96L533.85,385L640.63,385L647.74,385L711.81,385L718.92,375.03L726.04,385L733.16,385L790.1,385L797.22,375.11L804.34,374.96L811.46,385L839.93,384.1L847.05,385L960.94,385L968.06,375.1L975.17,385L982.29,385L1017.88,384.98L1025,383.33" style="vector-effect: none; fill: none; stroke: rgb(128, 133, 233); stroke-opacity: 1; stroke-width: 2px; opacity: 1;"/></g><g class="points"/><g class="text"/></g><g class="trace scatter trace2cb665" style="stroke-miterlimit: 2; opacity: 1;"><g class="fills"/><g class="errorbars"/><g class="lines"><path class="js-line" d="M0,385L363.02,385L370.14,375.14L377.26,385L384.38,385L391.49,385L398.61,375.12L405.73,385L412.85,385L512.5,385L519.62,384.13L526.74,384.95L533.85,385L640.63,385L647.74,385L711.81,385L718.92,374.98L726.04,385L733.16,385L790.1,385L797.22,375.02L804.34,375.11L811.46,385L832.81,384.92L839.93,384.08L847.05,385L854.17,385L960.94,384.99L968.06,375.09L975.17,385L982.29,385L1017.88,384.99L1025,383.31" style="vector-effect: none; fill: none; stroke: rgb(241, 92, 128); stroke-opacity: 1; stroke-width: 2px; opacity: 1;"/></g><g class="points"/><g class="text"/></g><g class="trace scatter trace289748" style="stroke-miterlimit: 2; opacity: 1;"><g class="fills"/><g class="errorbars"/><g class="lines"><path class="js-line" d="M0,385L363.02,385L370.14,375.18L377.26,385L384.38,385L391.49,385L398.61,375.17L405.73,385L412.85,385L512.5,385L519.62,384.13L526.74,384.95L533.85,385L619.27,385L626.39,385L711.81,385L718.92,375.05L726.04,385L733.16,385L790.1,385L797.22,375.02L804.34,374.97L811.46,385L839.93,384.08L847.05,385L960.94,384.99L968.06,375.32L975.17,385L982.29,385L1017.88,384.98L1025,383.37" style="vector-effect: none; fill: none; stroke: rgb(228, 211, 84); stroke-opacity: 1; stroke-width: 2px; opacity: 1;"/></g><g class="points"/><g class="text"/></g><g class="trace scatter tracec03f12" style="stroke-miterlimit: 2; opacity: 1;"><g class="fills"/><g class="errorbars"/><g class="lines"><path class="js-line" d="M0,385L363.02,385L370.14,375.19L377.26,385L384.38,385L391.49,385L398.61,375.21L405.73,385L412.85,385L512.5,385L519.62,384.17L533.85,385L540.97,384.95L654.86,385L661.98,384.87L690.45,384.99L697.57,384.68L711.81,385L718.92,375.1L726.04,385L733.16,385L790.1,385L797.22,375.08L804.34,375.01L811.46,385L839.93,384.12L847.05,385L960.94,384.99L968.06,375.11L975.17,385L982.29,385L1017.88,384.98L1025,383.32" style="vector-effect: none; fill: none; stroke: rgb(43, 144, 143); stroke-opacity: 1; stroke-width: 2px; opacity: 1;"/></g><g class="points"/><g class="text"/></g><g class="trace scatter trace51f3df" style="stroke-miterlimit: 2; opacity: 1;"><g class="fills"/><g class="errorbars"/><g class="lines"><path class="js-line" d="M0,385L363.02,385L370.14,375.31L377.26,385L384.38,385L391.49,385L398.61,375.13L405.73,385L412.85,385L512.5,385L519.62,384.17L533.85,385L540.97,384.94L633.51,385L640.63,385L711.81,385L718.92,374.89L726.04,385L733.16,385L790.1,385L797.22,374.9L804.34,375.1L811.46,385L839.93,384.1L847.05,385L960.94,384.99L968.06,374.98L975.17,385L982.29,385L1017.88,384.99L1025,383.37" style="vector-effect: none; fill: none; stroke: rgb(244, 91, 91); stroke-opacity: 1; stroke-width: 2px; opacity: 1;"/></g><g class="points"/><g class="text"/></g><g class="trace scatter traceddd19b" style="stroke-miterlimit: 2; opacity: 1;"><g class="fills"/><g class="errorbars"/><g class="lines"><path class="js-line" d="M0,385L363.02,385L370.14,375.35L377.26,385L384.38,385L391.49,385L398.61,375.21L405.73,385L412.85,385L512.5,385L519.62,384.16L533.85,385L540.97,384.95L654.86,385L661.98,384.87L690.45,384.99L697.57,384.67L711.81,385L718.92,374.97L726.04,385L733.16,385L790.1,385L797.22,375.21L804.34,375.05L811.46,385L832.81,384.93L839.93,384.09L847.05,385L854.17,385L960.94,384.99L968.06,375L975.17,385L982.29,385L1017.88,384.98L1025,383.34" style="vector-effect: none; fill: none; stroke: rgb(145, 232, 225); stroke-opacity: 1; stroke-width: 2px; opacity: 1;"/></g><g class="points"/><g class="text"/></g><g class="trace scatter trace5c0bb3" style="stroke-miterlimit: 2; opacity: 1;"><g class="fills"/><g class="errorbars"/><g class="lines"><path class="js-line" d="M0,385L363.02,385L370.14,375.08L377.26,385L384.38,385L391.49,385L398.61,375.19L405.73,385L412.85,385L512.5,385L519.62,384.16L533.85,385L540.97,384.94L633.51,385L640.63,385L711.81,385L718.92,375.08L726.04,385L733.16,385L790.1,385L797.22,375.05L804.34,375.07L811.46,385L839.93,384.1L847.05,385L960.94,384.99L968.06,375.25L975.17,385L982.29,385L1017.88,384.98L1025,383.33" style="vector-effect: none; fill: none; stroke: rgb(124, 181, 236); stroke-opacity: 1; stroke-width: 2px; opacity: 1;"/></g><g class="points"/><g class="text"/></g><g class="trace scatter tracea45f99" style="stroke-miterlimit: 2; opacity: 1;"><g class="fills"/><g class="errorbars"/><g class="lines"><path class="js-line" d="M0,385L363.02,385L370.14,375.26L377.26,385L384.38,385L391.49,385L398.61,375.16L405.73,385L412.85,385L512.5,385L519.62,384.15L533.85,385L540.97,384.95L654.86,385L661.98,384.86L690.45,384.99L697.57,384.67L711.81,385L718.92,375L726.04,385L733.16,385L790.1,385L797.22,375.04L804.34,375.09L811.46,385L839.93,384.1L847.05,385L960.94,384.99L968.06,375.11L975.17,385L982.29,385L1017.88,384.99L1025,383.35" style="vector-effect: none; fill: none; stroke: rgb(67, 67, 72); stroke-opacity: 1; stroke-width: 2px; opacity: 1;"/></g><g class="points"/><g class="text"/></g><g class="trace scatter traceb364b6" style="stroke-miterlimit: 2; opacity: 1;"><g class="fills"/><g class="errorbars"/><g class="lines"><path class="js-line" d="M0,385L363.02,385L370.14,375.25L377.26,385L384.38,385L391.49,385L398.61,375.11L405.73,385L412.85,385L512.5,385L519.62,384.18L533.85,385L540.97,384.95L654.86,385L661.98,384.87L690.45,384.99L697.57,384.68L711.81,385L718.92,375.11L726.04,385L733.16,385L790.1,385L797.22,375.02L804.34,375.05L811.46,385L839.93,384.12L847.05,385L960.94,384.99L968.06,375.1L975.17,385L982.29,385L1017.88,384.98L1025,383.36" style="vector-effect: none; fill: none; stroke: rgb(144, 237, 125); stroke-opacity: 1; stroke-width: 2px; opacity: 1;"/></g><g class="points"/><g class="text"/></g><g class="trace scatter trace76952a" style="stroke-miterlimit: 2; opacity: 1;"><g class="fills"/><g class="errorbars"/><g class="lines"><path class="js-line" d="M0,385L363.02,385L370.14,374.73L377.26,385L384.38,385L391.49,385L398.61,375.31L405.73,385L412.85,385L512.5,385L519.62,384.14L533.85,385L540.97,384.95L654.86,385L661.98,384.87L690.45,384.99L697.57,384.66L711.81,385L718.92,375.1L726.04,385L733.16,385L790.1,385L797.22,375.08L804.34,375.09L811.46,385L832.81,384.93L839.93,384.09L847.05,385L854.17,385L960.94,384.99L968.06,375.42L975.17,385L982.29,385L1017.88,384.98L1025,383.33" style="vector-effect: none; fill: none; stroke: rgb(247, 163, 92); stroke-opacity: 1; stroke-width: 2px; opacity: 1;"/></g><g class="points"/><g class="text"/></g><g class="trace scatter trace34698e" style="stroke-miterlimit: 2; opacity: 1;"><g class="fills"/><g class="errorbars"/><g class="lines"><path class="js-line" d="M0,385L363.02,385L370.14,375.19L377.26,385L384.38,385L391.49,385L398.61,375.17L405.73,385L412.85,385L512.5,385L519.62,384.16L533.85,385L540.97,384.95L654.86,385L661.98,384.86L690.45,384.99L697.57,384.66L711.81,385L718.92,375.11L726.04,385L733.16,385L790.1,385L797.22,375.01L804.34,375.06L811.46,385L839.93,384.1L847.05,385L960.94,385L968.06,375.14L975.17,385L982.29,385L1017.88,384.98L1025,383.33" style="vector-effect: none; fill: none; stroke: rgb(128, 133, 233); stroke-opacity: 1; stroke-width: 2px; opacity: 1;"/></g><g class="points"/><g class="text"/></g><g class="trace scatter trace7edaa4" style="stroke-miterlimit: 2; opacity: 1;"><g class="fills"/><g class="errorbars"/><g class="lines"><path class="js-line" d="M0,385L363.02,385L370.14,375.22L377.26,385L384.38,385L391.49,385L398.61,375.14L405.73,385L412.85,385L512.5,385L519.62,384.15L533.85,385L540.97,384.94L633.51,385L640.63,385L711.81,385L718.92,375.03L726.04,385L733.16,385L790.1,385L797.22,375.04L804.34,374.97L811.46,385L839.93,384.1L847.05,385L960.94,384.99L968.06,375.07L975.17,385L982.29,385L1017.88,384.99L1025,383.37" style="vector-effect: none; fill: none; stroke: rgb(241, 92, 128); stroke-opacity: 1; stroke-width: 2px; opacity: 1;"/></g><g class="points"/><g class="text"/></g><g class="trace scatter trace2b9d8a" style="stroke-miterlimit: 2; opacity: 1;"><g class="fills"/><g class="errorbars"/><g class="lines"><path class="js-line" d="M0,385L363.02,385L370.14,375.18L377.26,385L384.38,385L391.49,385L398.61,375.07L405.73,385L412.85,385L512.5,385L519.62,384.16L533.85,385L540.97,384.95L654.86,385L661.98,384.88L711.81,385L718.92,374.95L726.04,385L733.16,385L790.1,385L797.22,375.07L804.34,374.96L811.46,385L832.81,384.93L839.93,384.08L847.05,385L854.17,385L960.94,384.99L968.06,375.17L975.17,385L982.29,385L1017.88,384.99L1025,383.39" style="vector-effect: none; fill: none; stroke: rgb(228, 211, 84); stroke-opacity: 1; stroke-width: 2px; opacity: 1;"/></g><g class="points"/><g class="text"/></g><g class="trace scatter trace65e27f" style="stroke-miterlimit: 2; opacity: 1;"><g class="fills"/><g class="errorbars"/><g class="lines"><path class="js-line" d="M0,385L363.02,385L370.14,375.25L377.26,385L384.38,385L391.49,385L398.61,375.11L405.73,385L412.85,385L512.5,385L519.62,384.15L533.85,385L540.97,384.95L654.86,385L661.98,384.88L711.81,385L718.92,374.96L726.04,385L733.16,385L790.1,385L797.22,375.08L804.34,374.94L811.46,385L839.93,384.09L847.05,385L960.94,384.99L968.06,375.08L975.17,385L982.29,385L1017.88,384.99L1025,383.35" style="vector-effect: none; fill: none; stroke: rgb(43, 144, 143); stroke-opacity: 1; stroke-width: 2px; opacity: 1;"/></g><g class="points"/><g class="text"/></g><g class="trace scatter traced7ef60" style="stroke-miterlimit: 2; opacity: 1;"><g class="fills"/><g class="errorbars"/><g class="lines"><path class="js-line" d="M0,385L363.02,385L370.14,375.25L377.26,385L384.38,385L391.49,385L398.61,375.2L405.73,385L412.85,385L512.5,385L519.62,384.13L526.74,384.95L533.85,385L640.63,385L647.74,385L711.81,385L718.92,375.1L726.04,385L733.16,385L790.1,385L797.22,375.01L804.34,375.08L811.46,385L832.81,384.92L839.93,384.07L847.05,385L854.17,385L960.94,384.99L968.06,375.12L975.17,385L982.29,385L1017.88,384.98L1025,383.28" style="vector-effect: none; fill: none; stroke: rgb(244, 91, 91); stroke-opacity: 1; stroke-width: 2px; opacity: 1;"/></g><g class="points"/><g class="text"/></g><g class="trace scatter traceca219a" style="stroke-miterlimit: 2; opacity: 1;"><g class="fills"/><g class="errorbars"/><g class="lines"><path class="js-line" d="M0,385L363.02,385L370.14,375.27L377.26,385L384.38,385L391.49,385L398.61,375.03L405.73,385L412.85,385L512.5,385L519.62,384.19L533.85,385L540.97,384.94L633.51,385L640.63,385L711.81,385L718.92,375.04L726.04,385L733.16,385L790.1,385L797.22,375.04L804.34,375.04L811.46,385L839.93,384.13L847.05,385L960.94,384.99L968.06,375L975.17,385L982.29,385L1017.88,384.99L1025,383.35" style="vector-effect: none; fill: none; stroke: rgb(145, 232, 225); stroke-opacity: 1; stroke-width: 2px; opacity: 1;"/></g><g class="points"/><g class="text"/></g><g class="trace scatter tracebc1354" style="stroke-miterlimit: 2; opacity: 1;"><g class="fills"/><g class="errorbars"/><g class="lines"><path class="js-line" d="M0,385L363.02,385L370.14,375.3L377.26,385L384.38,385L391.49,385L398.61,374.93L405.73,385L412.85,385L512.5,385L519.62,384.12L526.74,384.97L533.85,385L640.63,385L647.74,385L711.81,385L718.92,374.78L726.04,385L733.16,385L790.1,385L797.22,374.85L804.34,375.17L811.46,385L832.81,384.91L839.93,384.02L847.05,385L854.17,385L960.94,384.99L968.06,374.9L975.17,385L982.29,385L1017.88,384.99L1025,383.41" style="vector-effect: none; fill: none; stroke: rgb(124, 181, 236); stroke-opacity: 1; stroke-width: 2px; opacity: 1;"/></g><g class="points"/><g class="text"/></g><g class="trace scatter traced42318" style="stroke-miterlimit: 2; opacity: 1;"><g class="fills"/><g class="errorbars"/><g class="lines"><path class="js-line" d="M0,385L363.02,385L370.14,375.19L377.26,385L384.38,385L391.49,385L398.61,375.24L405.73,385L412.85,385L512.5,385L519.62,384.12L526.74,384.95L533.85,385L619.27,385L626.39,385L711.81,385L718.92,375.13L726.04,385L733.16,385L790.1,385L797.22,374.89L804.34,375.01L811.46,385L832.81,384.93L839.93,384.06L847.05,385L854.17,385L960.94,384.99L968.06,374.86L975.17,385L982.29,385L1017.88,384.99L1025,383.4" style="vector-effect: none; fill: none; stroke: rgb(67, 67, 72); stroke-opacity: 1; stroke-width: 2px; opacity: 1;"/></g><g class="points"/><g class="text"/></g><g class="trace scatter trace9fd025" style="stroke-miterlimit: 2; opacity: 1;"><g class="fills"/><g class="errorbars"/><g class="lines"><path class="js-line" d="M0,385L363.02,385L370.14,375.19L377.26,385L384.38,385L391.49,385L398.61,374.94L405.73,385L412.85,385L512.5,385L519.62,384.14L526.74,384.96L533.85,385L640.63,385L647.74,385L711.81,385L718.92,374.92L726.04,385L733.16,385L790.1,385L797.22,375.06L804.34,375.05L811.46,385L832.81,384.92L839.93,384.08L847.05,385L854.17,385L960.94,385L968.06,374.97L975.17,385L982.29,385L1017.88,384.99L1025,383.35" style="vector-effect: none; fill: none; stroke: rgb(144, 237, 125); stroke-opacity: 1; stroke-width: 2px; opacity: 1;"/></g><g class="points"/><g class="text"/></g><g class="trace scatter traceb55379" style="stroke-miterlimit: 2; opacity: 1;"><g class="fills"/><g class="errorbars"/><g class="lines"><path class="js-line" d="M0,385L363.02,385L370.14,375.3L377.26,385L384.38,385L391.49,385L398.61,374.91L405.73,385L412.85,385L512.5,385L519.62,384.15L526.74,384.96L533.85,385L640.63,385L647.74,385L711.81,385L718.92,375.01L726.04,385L733.16,385L790.1,385L797.22,374.97L804.34,374.99L811.46,385L839.93,384.09L847.05,385L960.94,384.99L968.06,374.94L975.17,385L982.29,385L1017.88,384.99L1025,383.38" style="vector-effect: none; fill: none; stroke: rgb(247, 163, 92); stroke-opacity: 1; stroke-width: 2px; opacity: 1;"/></g><g class="points"/><g class="text"/></g><g class="trace scatter trace57aebb" style="stroke-miterlimit: 2; opacity: 1;"><g class="fills"/><g class="errorbars"/><g class="lines"><path class="js-line" d="M0,385L363.02,385L370.14,375.09L377.26,385L384.38,385L391.49,385L398.61,375.1L405.73,385L412.85,385L512.5,385L519.62,384.15L533.85,385L540.97,384.95L654.86,385L661.98,384.88L690.45,384.99L697.57,384.63L711.81,385L718.92,375.1L726.04,385L733.16,385L790.1,385L797.22,375.02L804.34,375.02L811.46,385L832.81,384.93L839.93,384.09L847.05,385L854.17,385L960.94,384.99L968.06,374.87L975.17,385L982.29,385L1017.88,384.98L1025,383.36" style="vector-effect: none; fill: none; stroke: rgb(128, 133, 233); stroke-opacity: 1; stroke-width: 2px; opacity: 1;"/></g><g class="points"/><g class="text"/></g><g class="trace scatter trace0cad72" style="stroke-miterlimit: 2; opacity: 1;"><g class="fills"/><g class="errorbars"/><g class="lines"><path class="js-line" d="M0,385L363.02,385L370.14,375.02L377.26,385L384.38,385L391.49,385L398.61,375.04L405.73,385L412.85,385L512.5,385L519.62,384.12L526.74,384.95L533.85,385L640.63,385L647.74,385L711.81,385L718.92,374.87L726.04,385L733.16,385L790.1,385L797.22,375.01L804.34,375.01L811.46,385L839.93,384.09L847.05,385L960.94,384.99L968.06,375.49L975.17,385L982.29,385L1017.88,384.99L1025,383.33" style="vector-effect: none; fill: none; stroke: rgb(241, 92, 128); stroke-opacity: 1; stroke-width: 2px; opacity: 1;"/></g><g class="points"/><g class="text"/></g><g class="trace scatter traced6b4f3" style="stroke-miterlimit: 2; opacity: 1;"><g class="fills"/><g class="errorbars"/><g class="lines"><path class="js-line" d="M0,385L363.02,385L370.14,375.16L377.26,385L384.38,385L391.49,385L398.61,374.99L405.73,385L412.85,385L512.5,385L519.62,384.16L526.74,384.96L533.85,385L619.27,385L626.39,385L711.81,385L718.92,374.89L726.04,385L733.16,385L790.1,385L797.22,374.98L804.34,374.96L811.46,385L839.93,384.09L847.05,385L960.94,384.99L968.06,374.99L975.17,385L982.29,385L1017.88,384.99L1025,383.33" style="vector-effect: none; fill: none; stroke: rgb(228, 211, 84); stroke-opacity: 1; stroke-width: 2px; opacity: 1;"/></g><g class="points"/><g class="text"/></g><g class="trace scatter traced85cbd" style="stroke-miterlimit: 2; opacity: 1;"><g class="fills"/><g class="errorbars"/><g class="lines"><path class="js-line" d="M0,385L363.02,385L370.14,375.22L377.26,385L384.38,385L391.49,385L398.61,375.05L405.73,385L412.85,385L512.5,385L519.62,384.16L533.85,385L540.97,384.95L654.86,385L661.98,384.87L690.45,384.99L697.57,384.68L711.81,385L718.92,374.95L726.04,385L733.16,385L790.1,385L797.22,375.19L804.34,374.99L811.46,385L839.93,384.08L847.05,385L960.94,384.99L968.06,375.07L975.17,385L982.29,385L1017.88,384.99L1025,383.32" style="vector-effect: none; fill: none; stroke: rgb(43, 144, 143); stroke-opacity: 1; stroke-width: 2px; opacity: 1;"/></g><g class="points"/><g class="text"/></g><g class="trace scatter trace0b218c" style="stroke-miterlimit: 2; opacity: 1;"><g class="fills"/><g class="errorbars"/><g class="lines"><path class="js-line" d="M0,385L363.02,385L370.14,375.23L377.26,385L384.38,385L391.49,385L398.61,375.04L405.73,385L412.85,385L512.5,385L519.62,384.13L526.74,384.95L533.85,385L619.27,385L626.39,385L711.81,385L718.92,374.94L726.04,385L733.16,385L790.1,385L797.22,374.92L804.34,375.04L811.46,385L832.81,384.92L839.93,384.06L847.05,385L854.17,385L960.94,384.99L968.06,374.97L975.17,385L982.29,385L1017.88,384.99L1025,383.34" style="vector-effect: none; fill: none; stroke: rgb(244, 91, 91); stroke-opacity: 1; stroke-width: 2px; opacity: 1;"/></g><g class="points"/><g class="text"/></g><g class="trace scatter trace3845a5" style="stroke-miterlimit: 2; opacity: 1;"><g class="fills"/><g class="errorbars"/><g class="lines"><path class="js-line" d="M0,385L363.02,385L370.14,375.29L377.26,385L384.38,385L391.49,385L398.61,374.86L405.73,385L412.85,385L512.5,385L519.62,384.15L526.74,384.96L533.85,385L640.63,385L647.74,385L711.81,385L718.92,374.92L726.04,385L733.16,385L790.1,385L797.22,374.9L804.34,374.96L811.46,385L832.81,384.92L839.93,384.08L847.05,385L854.17,385L960.94,384.99L968.06,374.85L975.17,385L982.29,385L1017.88,384.99L1025,383.35" style="vector-effect: none; fill: none; stroke: rgb(145, 232, 225); stroke-opacity: 1; stroke-width: 2px; opacity: 1;"/></g><g class="points"/><g class="text"/></g><g class="trace scatter traceb857b8" style="stroke-miterlimit: 2; opacity: 1;"><g class="fills"/><g class="errorbars"/><g class="lines"><path class="js-line" d="M0,385L363.02,385L370.14,375.23L377.26,385L384.38,385L391.49,385L398.61,375.07L405.73,385L412.85,385L512.5,385L519.62,384.16L533.85,385L540.97,384.94L633.51,385L640.63,385L711.81,385L718.92,375.12L726.04,385L733.16,384.99L790.1,385L797.22,374.86L804.34,374.9L811.46,385L839.93,384.11L847.05,385L960.94,384.99L968.06,374.81L975.17,385L982.29,385L1017.88,384.99L1025,383.36" style="vector-effect: none; fill: none; stroke: rgb(124, 181, 236); stroke-opacity: 1; stroke-width: 2px; opacity: 1;"/></g><g class="points"/><g class="text"/></g><g class="trace scatter trace4a621b" style="stroke-miterlimit: 2; opacity: 1;"><g class="fills"/><g class="errorbars"/><g class="lines"><path class="js-line" d="M0,385L363.02,385L370.14,374.99L377.26,385L384.38,385L391.49,385L398.61,375.06L405.73,385L412.85,385L512.5,385L519.62,384.13L526.74,384.95L533.85,385L640.63,385L647.74,385L711.81,385L718.92,375.16L726.04,385L733.16,385L790.1,385L797.22,375.04L804.34,375.24L811.46,385L832.81,384.92L839.93,384.08L847.05,385L854.17,385L960.94,384.99L968.06,374.96L975.17,385L982.29,385L1017.88,384.99L1025,383.32" style="vector-effect: none; fill: none; stroke: rgb(67, 67, 72); stroke-opacity: 1; stroke-width: 2px; opacity: 1;"/></g><g class="points"/><g class="text"/></g><g class="trace scatter trace85e407" style="stroke-miterlimit: 2; opacity: 1;"><g class="fills"/><g class="errorbars"/><g class="lines"><path class="js-line" d="M0,385L363.02,385L370.14,375.33L377.26,385L384.38,385L391.49,385L398.61,375.09L405.73,385L412.85,385L512.5,385L519.62,384.2L533.85,385L540.97,384.95L654.86,385L661.98,384.88L690.45,384.99L697.57,384.7L711.81,385L718.92,374.98L726.04,385L733.16,385L790.1,385L797.22,375.24L804.34,375.17L811.46,385L839.93,384.11L847.05,385L960.94,384.99L968.06,375.44L975.17,385L982.29,385L1017.88,384.99L1025,383.34" style="vector-effect: none; fill: none; stroke: rgb(144, 237, 125); stroke-opacity: 1; stroke-width: 2px; opacity: 1;"/></g><g class="points"/><g class="text"/></g><g class="trace scatter traced300d3" style="stroke-miterlimit: 2; opacity: 1;"><g class="fills"/><g class="errorbars"/><g class="lines"><path class="js-line" d="M0,385L363.02,385L370.14,375.32L377.26,385L384.38,385L391.49,385L398.61,374.97L405.73,385L412.85,385L512.5,385L519.62,384.17L533.85,385L540.97,384.95L654.86,385L661.98,384.88L690.45,384.99L697.57,384.69L711.81,385L718.92,374.92L726.04,385L733.16,385L790.1,385L797.22,374.94L804.34,374.99L811.46,385L839.93,384.1L847.05,385L960.94,384.99L968.06,374.75L975.17,385L982.29,385L1017.88,384.99L1025,383.35" style="vector-effect: none; fill: none; stroke: rgb(247, 163, 92); stroke-opacity: 1; stroke-width: 2px; opacity: 1;"/></g><g class="points"/><g class="text"/></g></g></g></g><g class="zerolinelayer-above"/><path class="xlines-above crisp" d="M0,0" style="fill: none;"/><path class="ylines-above crisp" d="M0,0" style="fill: none;"/><g class="overlines-above"/><g class="xaxislayer-above"><g class="xtick"><text text-anchor="middle" x="0" y="451" transform="translate(195.24,0)" style="font-family: system-ui, -apple-system, 'Segoe UI', Roboto, 'Helvetica Neue', 'Noto Sans', 'Liberation Sans', Arial, sans-serif, 'Apple Color Emoji', 'Segoe UI Emoji', 'Segoe UI Symbol', 'Noto Color Emoji'; font-size: 10px; fill: rgb(80, 80, 80); fill-opacity: 1; white-space: pre;">20</text></g><g class="xtick"><text text-anchor="middle" x="0" y="451" style="font-family: system-ui, -apple-system, 'Segoe UI', Roboto, 'Helvetica Neue', 'Noto Sans', 'Liberation Sans', Arial, sans-serif, 'Apple Color Emoji', 'Segoe UI Emoji', 'Segoe UI Symbol', 'Noto Color Emoji'; font-size: 10px; fill: rgb(80, 80, 80); fill-opacity: 1; white-space: pre;" transform="translate(337.6,0)">40</text></g><g class="xtick"><text text-anchor="middle" x="0" y="451" style="font-family: system-ui, -apple-system, 'Segoe UI', Roboto, 'Helvetica Neue', 'Noto Sans', 'Liberation Sans', Arial, sans-serif, 'Apple Color Emoji', 'Segoe UI Emoji', 'Segoe UI Symbol', 'Noto Color Emoji'; font-size: 10px; fill: rgb(80, 80, 80); fill-opacity: 1; white-space: pre;" transform="translate(479.97,0)">60</text></g><g class="xtick"><text text-anchor="middle" x="0" y="451" style="font-family: system-ui, -apple-system, 'Segoe UI', Roboto, 'Helvetica Neue', 'Noto Sans', 'Liberation Sans', Arial, sans-serif, 'Apple Color Emoji', 'Segoe UI Emoji', 'Segoe UI Symbol', 'Noto Color Emoji'; font-size: 10px; fill: rgb(80, 80, 80); fill-opacity: 1; white-space: pre;" transform="translate(622.33,0)">80</text></g><g class="xtick"><text text-anchor="middle" x="0" y="451" style="font-family: system-ui, -apple-system, 'Segoe UI', Roboto, 'Helvetica Neue', 'Noto Sans', 'Liberation Sans', Arial, sans-serif, 'Apple Color Emoji', 'Segoe UI Emoji', 'Segoe UI Symbol', 'Noto Color Emoji'; font-size: 10px; fill: rgb(80, 80, 80); fill-opacity: 1; white-space: pre;" transform="translate(764.69,0)">100</text></g><g class="xtick"><text text-anchor="middle" x="0" y="451" style="font-family: system-ui, -apple-system, 'Segoe UI', Roboto, 'Helvetica Neue', 'Noto Sans', 'Liberation Sans', Arial, sans-serif, 'Apple Color Emoji', 'Segoe UI Emoji', 'Segoe UI Symbol', 'Noto Color Emoji'; font-size: 10px; fill: rgb(80, 80, 80); fill-opacity: 1; white-space: pre;" transform="translate(907.05,0)">120</text></g><g class="xtick"><text text-anchor="middle" x="0" y="451" style="font-family: system-ui, -apple-system, 'Segoe UI', Roboto, 'Helvetica Neue', 'Noto Sans', 'Liberation Sans', Arial, sans-serif, 'Apple Color Emoji', 'Segoe UI Emoji', 'Segoe UI Symbol', 'Noto Color Emoji'; font-size: 10px; fill: rgb(80, 80, 80); fill-opacity: 1; white-space: pre;" transform="translate(1049.4099999999999,0)">140</text></g></g><g class="yaxislayer-above"><g class="ytick"><text text-anchor="end" x="54" y="3.5" transform="translate(0,435)" style="font-family: system-ui, -apple-system, 'Segoe UI', Roboto, 'Helvetica Neue', 'Noto Sans', 'Liberation Sans', Arial, sans-serif, 'Apple Color Emoji', 'Segoe UI Emoji', 'Segoe UI Symbol', 'Noto Color Emoji'; font-size: 10px; fill: rgb(80, 80, 80); fill-opacity: 1; white-space: pre;">0%</text></g><g class="ytick"><text text-anchor="end" x="54" y="3.5" style="font-family: system-ui, -apple-system, 'Segoe UI', Roboto, 'Helvetica Neue', 'Noto Sans', 'Liberation Sans', Arial, sans-serif, 'Apple Color Emoji', 'Segoe UI Emoji', 'Segoe UI Symbol', 'Noto Color Emoji'; font-size: 10px; fill: rgb(80, 80, 80); fill-opacity: 1; white-space: pre;" transform="translate(0,358)">1%</text></g><g class="ytick"><text text-anchor="end" x="54" y="3.5" style="font-family: system-ui, -apple-system, 'Segoe UI', Roboto, 'Helvetica Neue', 'Noto Sans', 'Liberation Sans', Arial, sans-serif, 'Apple Color Emoji', 'Segoe UI Emoji', 'Segoe UI Symbol', 'Noto Color Emoji'; font-size: 10px; fill: rgb(80, 80, 80); fill-opacity: 1; white-space: pre;" transform="translate(0,281)">2%</text></g><g class="ytick"><text text-anchor="end" x="54" y="3.5" style="font-family: system-ui, -apple-system, 'Segoe UI', Roboto, 'Helvetica Neue', 'Noto Sans', 'Liberation Sans', Arial, sans-serif, 'Apple Color Emoji', 'Segoe UI Emoji', 'Segoe UI Symbol', 'Noto Color Emoji'; font-size: 10px; fill: rgb(80, 80, 80); fill-opacity: 1; white-space: pre;" transform="translate(0,204)">3%</text></g><g class="ytick"><text text-anchor="end" x="54" y="3.5" style="font-family: system-ui, -apple-system, 'Segoe UI', Roboto, 'Helvetica Neue', 'Noto Sans', 'Liberation Sans', Arial, sans-serif, 'Apple Color Emoji', 'Segoe UI Emoji', 'Segoe UI Symbol', 'Noto Color Emoji'; font-size: 10px; fill: rgb(80, 80, 80); fill-opacity: 1; white-space: pre;" transform="translate(0,127)">4%</text></g><g class="ytick"><text text-anchor="end" x="54" y="3.5" style="font-family: system-ui, -apple-system, 'Segoe UI', Roboto, 'Helvetica Neue', 'Noto Sans', 'Liberation Sans', Arial, sans-serif, 'Apple Color Emoji', 'Segoe UI Emoji', 'Segoe UI Symbol', 'Noto Color Emoji'; font-size: 10px; fill: rgb(80, 80, 80); fill-opacity: 1; white-space: pre;" transform="translate(0,50)">5%</text></g></g><g class="overaxes-above"/></g></g><g class="polarlayer"/><g class="smithlayer"/><g class="ternarylayer"/><g class="geolayer"/><g class="funnelarealayer"/><g class="pielayer"/><g class="iciclelayer"/><g class="treemaplayer"/><g class="sunburstlayer"/><g class="glimages"/><defs id="topdefs-c890d3"><g class="clips"/></defs><g class="layer-above"><g class="imagelayer"/><g class="shapelayer"/></g><g class="infolayer"><g class="g-gtitle"><text class="gtitle" x="550" y="25" text-anchor="middle" dy="0em" style="opacity: 1; font-family: system-ui, -apple-system, 'Segoe UI', Roboto, 'Helvetica Neue', 'Noto Sans', 'Liberation Sans', Arial, sans-serif, 'Apple Color Emoji', 'Segoe UI Emoji', 'Segoe UI Symbol', 'Noto Color Emoji'; font-size: 20px; fill: rgb(60, 60, 60); fill-opacity: 1; white-space: pre;"><tspan class="line" dy="0em" x="550" y="25">Fastp: Read N Content</tspan><tspan class="line" dy="1.3em" x="550" y="25">​<tspan style="font-size:70%" dy="-0.6em">Read 1: After filtering, 94 lines</tspan><tspan dy="0.42em">​</tspan></tspan></text></g><g class="g-xtitle"><text class="xtitle" x="572.5" y="487" text-anchor="middle" style="opacity: 1; font-family: system-ui, -apple-system, 'Segoe UI', Roboto, 'Helvetica Neue', 'Noto Sans', 'Liberation Sans', Arial, sans-serif, 'Apple Color Emoji', 'Segoe UI Emoji', 'Segoe UI Symbol', 'Noto Color Emoji'; font-size: 14px; fill: rgb(100, 100, 100); fill-opacity: 1; white-space: pre;">Read Position</text></g><g class="g-ytitle"><text class="ytitle" transform="rotate(-90,22,242.5)" x="22" y="242.5" text-anchor="middle" style="opacity: 1; font-family: system-ui, -apple-system, 'Segoe UI', Roboto, 'Helvetica Neue', 'Noto Sans', 'Liberation Sans', Arial, sans-serif, 'Apple Color Emoji', 'Segoe UI Emoji', 'Segoe UI Symbol', 'Noto Color Emoji'; font-size: 14px; fill: rgb(100, 100, 100); fill-opacity: 1; white-space: pre;">R1 After filtering: Base Content Percent</text></g></g></svg>