<svg class="main-svg" xmlns="http://www.w3.org/2000/svg" xmlns:xlink="http://www.w3.org/1999/xlink" width="2200" height="1000" style="" viewBox="0 0 1100 500"><rect x="0" y="0" width="1100" height="500" style="fill: rgb(255, 255, 255); fill-opacity: 1;"/><defs id="defs-e19949"><g class="clips"><clipPath id="clipe19949xyplot" class="plotclip"><rect width="1025" height="385"/></clipPath><clipPath class="axesclip" id="clipe19949x"><rect x="60" y="0" width="1025" height="500"/></clipPath><clipPath class="axesclip" id="clipe19949y"><rect x="0" y="50" width="1100" height="385"/></clipPath><clipPath class="axesclip" id="clipe19949xy"><rect x="60" y="50" width="1025" height="385"/></clipPath></g><g class="gradients"/><g class="patterns"/></defs><g class="bglayer"/><g class="layer-below"><g class="imagelayer"/><g class="shapelayer"/></g><g class="cartesianlayer"><g class="subplot xy"><g class="layer-subplot"><g class="shapelayer"/><g class="imagelayer"/></g><g class="minor-gridlayer"><g class="x"/><g class="y"/></g><g class="gridlayer"><g class="x"><path class="xgrid crisp" transform="translate(189.83,0)" d="M0,50v385" style="stroke: rgb(128, 128, 128); stroke-opacity: 0.15; stroke-width: 1px;"/><path class="xgrid crisp" transform="translate(326.5,0)" d="M0,50v385" style="stroke: rgb(128, 128, 128); stroke-opacity: 0.15; stroke-width: 1px;"/><path class="xgrid crisp" transform="translate(463.17,0)" d="M0,50v385" style="stroke: rgb(128, 128, 128); stroke-opacity: 0.15; stroke-width: 1px;"/><path class="xgrid crisp" transform="translate(599.83,0)" d="M0,50v385" style="stroke: rgb(128, 128, 128); stroke-opacity: 0.15; stroke-width: 1px;"/><path class="xgrid crisp" transform="translate(736.5,0)" d="M0,50v385" style="stroke: rgb(128, 128, 128); stroke-opacity: 0.15; stroke-width: 1px;"/><path class="xgrid crisp" transform="translate(873.17,0)" d="M0,50v385" style="stroke: rgb(128, 128, 128); stroke-opacity: 0.15; stroke-width: 1px;"/><path class="xgrid crisp" transform="translate(1009.83,0)" d="M0,50v385" style="stroke: rgb(128, 128, 128); stroke-opacity: 0.15; stroke-width: 1px;"/></g><g class="y"><path class="ygrid crisp" transform="translate(0,389.02)" d="M60,0h1025" style="stroke: rgb(128, 128, 128); stroke-opacity: 0.15; stroke-width: 1px;"/><path class="ygrid crisp" transform="translate(0,343.03)" d="M60,0h1025" style="stroke: rgb(128, 128, 128); stroke-opacity: 0.15; stroke-width: 1px;"/><path class="ygrid crisp" transform="translate(0,297.05)" d="M60,0h1025" style="stroke: rgb(128, 128, 128); stroke-opacity: 0.15; stroke-width: 1px;"/><path class="ygrid crisp" transform="translate(0,251.07)" d="M60,0h1025" style="stroke: rgb(128, 128, 128); stroke-opacity: 0.15; stroke-width: 1px;"/><path class="ygrid crisp" transform="translate(0,205.09)" d="M60,0h1025" style="stroke: rgb(128, 128, 128); stroke-opacity: 0.15; stroke-width: 1px;"/><path class="ygrid crisp" transform="translate(0,159.1)" d="M60,0h1025" style="stroke: rgb(128, 128, 128); stroke-opacity: 0.15; stroke-width: 1px;"/><path class="ygrid crisp" transform="translate(0,113.12)" d="M60,0h1025" style="stroke: rgb(128, 128, 128); stroke-opacity: 0.15; stroke-width: 1px;"/><path class="ygrid crisp" transform="translate(0,67.14)" d="M60,0h1025" style="stroke: rgb(128, 128, 128); stroke-opacity: 0.15; stroke-width: 1px;"/></g></g><g class="zerolinelayer"><path class="yzl zl crisp" transform="translate(0,435)" d="M60,0h1025" style="stroke: rgb(128, 128, 128); stroke-opacity: 0.2; stroke-width: 1px;"/></g><g class="layer-between"><g class="shapelayer"/><g class="imagelayer"/></g><path class="xlines-below"/><path class="ylines-below"/><g class="overlines-below"/><g class="xaxislayer-below"/><g class="yaxislayer-below"/><g class="overaxes-below"/><g class="overplot"><g class="xy" transform="translate(60,50)" clip-path="url(#clipe19949xyplot)"><g class="scatterlayer mlayer"><g class="trace scatter trace19b49e" style="stroke-miterlimit: 2; opacity: 1;"><g class="fills"/><g class="errorbars"/><g class="lines"><path class="js-line" d="M0,26.81L6.83,26.83L13.67,24.41L34.17,21.69L41,21.35L88.83,20.28L95.67,20.93L109.33,20.13L116.17,20.12L150.33,20.04L157.17,20.65L170.83,20.05L177.67,19.99L519.33,21.21L526.17,21.26L628.67,21.86L635.5,21.89L833.67,23.17L840.5,23.25L949.83,23.82L956.67,24.05L1018.17,24.43L1025,28.89" style="vector-effect: none; fill: none; stroke: rgb(124, 181, 236); stroke-opacity: 1; stroke-width: 2px; opacity: 1;"/></g><g class="points"/><g class="text"/></g><g class="trace scatter trace286fb5" style="stroke-miterlimit: 2; opacity: 1;"><g class="fills"/><g class="errorbars"/><g class="lines"><path class="js-line" d="M0,25.81L6.83,26.06L13.67,23.64L27.33,21.82L34.17,21.28L68.33,20.32L75.17,20.21L88.83,20.04L95.67,20.66L109.33,19.89L116.17,19.89L150.33,19.82L157.17,20.43L170.83,19.82L177.67,19.78L526.17,21.02L533,21.07L792.67,22.56L799.5,22.62L1018.17,24.13L1025,28.51" style="vector-effect: none; fill: none; stroke: rgb(67, 67, 72); stroke-opacity: 1; stroke-width: 2px; opacity: 1;"/></g><g class="points"/><g class="text"/></g><g class="trace scatter trace7ccf0c" style="stroke-miterlimit: 2; opacity: 1;"><g class="fills"/><g class="errorbars"/><g class="lines"><path class="js-line" d="M0,29.08L6.83,29.32L13.67,26.41L27.33,23.68L34.17,22.92L61.5,21.65L68.33,21.41L88.83,20.93L95.67,21.57L109.33,20.71L116.17,20.69L150.33,20.53L157.17,21.13L170.83,20.53L177.67,20.48L348.5,20.92L355.33,21.38L375.83,20.98L382.67,21.05L915.67,24.34L922.5,24.32L997.67,25.02L1004.5,24.89L1018.17,25.03L1025,29.7" style="vector-effect: none; fill: none; stroke: rgb(144, 237, 125); stroke-opacity: 1; stroke-width: 2px; opacity: 1;"/></g><g class="points"/><g class="text"/></g><g class="trace scatter traceefddae" style="stroke-miterlimit: 2; opacity: 1;"><g class="fills"/><g class="errorbars"/><g class="lines"><path class="js-line" d="M0,28.85L6.83,29.07L13.67,26.31L27.33,23.58L34.17,22.79L61.5,21.49L68.33,21.27L88.83,20.81L95.67,21.42L109.33,20.59L116.17,20.56L150.33,20.41L157.17,21.02L170.83,20.42L177.67,20.36L348.5,20.83L355.33,21.27L375.83,20.89L382.67,20.97L560.33,21.91L567.17,22.42L580.83,22L587.67,22.05L738,23.07L744.83,23.05L997.67,25.04L1004.5,24.92L1018.17,25.07L1025,29.73" style="vector-effect: none; fill: none; stroke: rgb(247, 163, 92); stroke-opacity: 1; stroke-width: 2px; opacity: 1;"/></g><g class="points"/><g class="text"/></g><g class="trace scatter trace4be3cc" style="stroke-miterlimit: 2; opacity: 1;"><g class="fills"/><g class="errorbars"/><g class="lines"><path class="js-line" d="M0,28.83L6.83,28.81L13.67,26.17L27.33,23.46L34.17,22.68L61.5,21.4L68.33,21.17L88.83,20.72L95.67,21.33L109.33,20.51L116.17,20.48L150.33,20.33L157.17,20.95L170.83,20.33L177.67,20.29L287,20.47L293.83,20.96L314.33,20.59L321.17,20.92L341.67,20.71L348.5,20.75L355.33,21.21L362.17,20.85L423.67,21.07L430.5,21.15L806.33,23.48L813.17,23.55L1018.17,25.04L1025,29.73" style="vector-effect: none; fill: none; stroke: rgb(128, 133, 233); stroke-opacity: 1; stroke-width: 2px; opacity: 1;"/></g><g class="points"/><g class="text"/></g><g class="trace scatter trace3323a2" style="stroke-miterlimit: 2; opacity: 1;"><g class="fills"/><g class="errorbars"/><g class="lines"><path class="js-line" d="M0,32.11L6.83,31.85L13.67,28.26L27.33,25.09L34.17,24.17L54.67,22.59L61.5,22.53L88.83,21.56L95.67,22.25L109.33,21.28L116.17,21.24L150.33,21.08L157.17,21.7L164,20.99L170.83,21.04L239.17,21.05L246,21.16L287,21.23L293.83,21.73L314.33,21.52L321.17,21.86L341.67,21.53L348.5,21.59L355.33,22.03L362.17,21.69L416.83,21.96L423.67,22.02L478.33,22.31L485.17,22.32L567.17,23.29L574,22.87L710.67,23.71L717.5,23.85L792.67,24.3L799.5,24.37L1018.17,25.99L1025,30.96" style="vector-effect: none; fill: none; stroke: rgb(241, 92, 128); stroke-opacity: 1; stroke-width: 2px; opacity: 1;"/></g><g class="points"/><g class="text"/></g><g class="trace scatter traceab48fc" style="stroke-miterlimit: 2; opacity: 1;"><g class="fills"/><g class="errorbars"/><g class="lines"><path class="js-line" d="M0,27.65L6.83,27.68L13.67,25.06L27.33,22.71L34.17,22.08L61.5,21.05L68.33,20.85L88.83,20.45L95.67,21.1L109.33,20.29L116.17,20.26L150.33,20.17L157.17,20.77L170.83,20.17L177.67,20.13L287,20.32L293.83,20.81L314.33,20.45L321.17,20.77L341.67,20.54L348.5,20.58L355.33,21.04L362.17,20.69L416.83,20.86L423.67,20.88L512.5,21.35L519.33,21.35L662.83,22.27L669.67,22.26L874.67,23.69L881.5,23.98L902,23.85L908.83,23.88L1018.17,24.64L1025,29.16" style="vector-effect: none; fill: none; stroke: rgb(228, 211, 84); stroke-opacity: 1; stroke-width: 2px; opacity: 1;"/></g><g class="points"/><g class="text"/></g><g class="trace scatter trace271ce0" style="stroke-miterlimit: 2; opacity: 1;"><g class="fills"/><g class="errorbars"/><g class="lines"><path class="js-line" d="M0,26.34L6.83,26.34L13.67,23.97L34.17,21.4L41,21.1L88.83,20.09L95.67,20.73L109.33,19.95L116.17,19.94L266.5,19.98L273.33,20.01L526.17,21.1L533,21.18L642.33,21.75L649.17,22.01L676.5,21.94L683.33,22L799.5,22.73L806.33,22.78L1011.33,24.25L1018.17,24.22L1025,28.62" style="vector-effect: none; fill: none; stroke: rgb(43, 144, 143); stroke-opacity: 1; stroke-width: 2px; opacity: 1;"/></g><g class="points"/><g class="text"/></g><g class="trace scatter tracee648d5" style="stroke-miterlimit: 2; opacity: 1;"><g class="fills"/><g class="errorbars"/><g class="lines"><path class="js-line" d="M0,30.82L6.83,30.96L13.67,27.79L27.33,24.58L34.17,23.68L54.67,22.28L61.5,22.13L88.83,21.29L95.67,21.92L109.33,21.04L116.17,21L150.33,20.82L157.17,21.42L170.83,20.8L177.67,20.75L287,20.91L293.83,21.41L314.33,21.05L321.17,21.38L341.67,21.17L348.5,21.21L355.33,21.66L362.17,21.32L416.83,21.5L423.67,21.52L505.67,21.98L512.5,22.04L560.33,22.34L567.17,22.86L580.83,22.44L587.67,22.5L929.33,24.94L936.17,24.89L1018.17,25.57L1025,30.4" style="vector-effect: none; fill: none; stroke: rgb(244, 91, 91); stroke-opacity: 1; stroke-width: 2px; opacity: 1;"/></g><g class="points"/><g class="text"/></g><g class="trace scatter tracec420c4" style="stroke-miterlimit: 2; opacity: 1;"><g class="fills"/><g class="errorbars"/><g class="lines"><path class="js-line" d="M0,28.25L6.83,28.16L13.67,25.63L27.33,23.07L34.17,22.32L61.5,21.16L68.33,20.94L88.83,20.52L95.67,21.15L109.33,20.32L116.17,20.3L150.33,20.18L157.17,20.78L170.83,20.18L177.67,20.13L348.5,20.6L355.33,21.04L375.83,20.66L382.67,20.73L813.17,23.32L820,23.38L1018.17,24.76L1025,29.4" style="vector-effect: none; fill: none; stroke: rgb(145, 232, 225); stroke-opacity: 1; stroke-width: 2px; opacity: 1;"/></g><g class="points"/><g class="text"/></g><g class="trace scatter trace5801a6" style="stroke-miterlimit: 2; opacity: 1;"><g class="fills"/><g class="errorbars"/><g class="lines"><path class="js-line" d="M0,28.54L6.83,28.59L13.67,25.87L27.33,23.28L34.17,22.59L61.5,21.42L68.33,21.21L88.83,20.76L95.67,21.39L109.33,20.55L116.17,20.52L150.33,20.4L157.17,21.01L170.83,20.4L177.67,20.34L287,20.51L293.83,21.01L314.33,20.65L321.17,20.96L341.67,20.74L348.5,20.78L355.33,21.23L362.17,20.87L423.67,21.08L430.5,21.16L833.67,23.6L840.5,23.69L936.17,24.24L943,24.29L1018.17,24.88L1025,29.51" style="vector-effect: none; fill: none; stroke: rgb(124, 181, 236); stroke-opacity: 1; stroke-width: 2px; opacity: 1;"/></g><g class="points"/><g class="text"/></g><g class="trace scatter tracee57fa5" style="stroke-miterlimit: 2; opacity: 1;"><g class="fills"/><g class="errorbars"/><g class="lines"><path class="js-line" d="M0,27.16L6.83,27.04L13.67,24.61L27.33,22.42L34.17,21.83L68.33,20.69L75.17,20.54L88.83,20.33L95.67,20.96L109.33,20.16L116.17,20.16L150.33,20.05L157.17,20.66L170.83,20.06L177.67,20.01L519.33,21.22L526.17,21.28L621.83,21.82L628.67,21.88L1018.17,24.42L1025,28.9" style="vector-effect: none; fill: none; stroke: rgb(67, 67, 72); stroke-opacity: 1; stroke-width: 2px; opacity: 1;"/></g><g class="points"/><g class="text"/></g><g class="trace scatter tracedcbf66" style="stroke-miterlimit: 2; opacity: 1;"><g class="fills"/><g class="errorbars"/><g class="lines"><path class="js-line" d="M0,28.48L6.83,28.46L13.67,25.7L27.33,23.15L34.17,22.48L61.5,21.35L68.33,21.14L88.83,20.72L95.67,21.36L109.33,20.54L116.17,20.52L150.33,20.4L157.17,21.01L170.83,20.4L177.67,20.36L287,20.54L293.83,21.03L314.33,20.67L321.17,20.99L341.67,20.76L348.5,20.8L355.33,21.26L362.17,20.91L423.67,21.1L430.5,21.19L560.33,21.86L567.17,22.37L580.83,21.94L587.67,21.99L724.33,22.85L731.17,22.92L1018.17,24.88L1025,29.46" style="vector-effect: none; fill: none; stroke: rgb(144, 237, 125); stroke-opacity: 1; stroke-width: 2px; opacity: 1;"/></g><g class="points"/><g class="text"/></g><g class="trace scatter tracec5740b" style="stroke-miterlimit: 2; opacity: 1;"><g class="fills"/><g class="errorbars"/><g class="lines"><path class="js-line" d="M0,27.79L6.83,28L13.67,25.33L27.33,22.95L34.17,22.27L61.5,21.16L68.33,20.96L88.83,20.55L95.67,21.18L109.33,20.36L116.17,20.35L150.33,20.23L157.17,20.84L170.83,20.22L177.67,20.18L348.5,20.63L355.33,21.08L375.83,20.7L382.67,20.76L826.83,23.4L833.67,23.46L997.67,24.76L1004.5,24.64L1018.17,24.79L1025,29.37" style="vector-effect: none; fill: none; stroke: rgb(247, 163, 92); stroke-opacity: 1; stroke-width: 2px; opacity: 1;"/></g><g class="points"/><g class="text"/></g><g class="trace scatter tracefd1b77" style="stroke-miterlimit: 2; opacity: 1;"><g class="fills"/><g class="errorbars"/><g class="lines"><path class="js-line" d="M0,26.99L6.83,27.07L13.67,24.58L34.17,21.8L41,21.44L88.83,20.32L95.67,20.96L109.33,20.15L116.17,20.14L150.33,20.05L157.17,20.66L170.83,20.05L177.67,20.01L348.5,20.47L355.33,20.92L375.83,20.54L382.67,20.61L560.33,21.49L567.17,22L580.83,21.57L587.67,21.62L717.5,22.47L724.33,22.45L929.33,23.86L936.17,23.83L1018.17,24.46L1025,28.93" style="vector-effect: none; fill: none; stroke: rgb(128, 133, 233); stroke-opacity: 1; stroke-width: 2px; opacity: 1;"/></g><g class="points"/><g class="text"/></g><g class="trace scatter trace113f4b" style="stroke-miterlimit: 2; opacity: 1;"><g class="fills"/><g class="errorbars"/><g class="lines"><path class="js-line" d="M0,27.02L6.83,27.01L13.67,24.63L27.33,22.45L34.17,21.85L68.33,20.73L75.17,20.59L88.83,20.38L95.67,21.01L109.33,20.21L116.17,20.2L150.33,20.11L157.17,20.72L170.83,20.12L177.67,20.07L348.5,20.53L355.33,20.98L375.83,20.6L382.67,20.67L833.67,23.31L840.5,23.39L943,23.98L949.83,23.98L984,24.62L990.83,24.42L1018.17,24.58L1025,29.08" style="vector-effect: none; fill: none; stroke: rgb(241, 92, 128); stroke-opacity: 1; stroke-width: 2px; opacity: 1;"/></g><g class="points"/><g class="text"/></g><g class="trace scatter trace4548cf" style="stroke-miterlimit: 2; opacity: 1;"><g class="fills"/><g class="errorbars"/><g class="lines"><path class="js-line" d="M0,27.63L6.83,27.31L13.67,25.07L27.33,22.76L34.17,22.07L68.33,20.8L75.17,20.63L88.83,20.41L95.67,21.04L109.33,20.23L116.17,20.23L150.33,20.12L157.17,20.7L170.83,20.11L177.67,20.05L519.33,21.27L526.17,21.33L608.17,21.8L615,21.84L1018.17,24.52L1025,29.01" style="vector-effect: none; fill: none; stroke: rgb(228, 211, 84); stroke-opacity: 1; stroke-width: 2px; opacity: 1;"/></g><g class="points"/><g class="text"/></g><g class="trace scatter trace8822ba" style="stroke-miterlimit: 2; opacity: 1;"><g class="fills"/><g class="errorbars"/><g class="lines"><path class="js-line" d="M0,28.42L6.83,28.04L13.67,25.62L27.33,23.18L34.17,22.48L68.33,21.12L75.17,20.94L88.83,20.71L95.67,21.34L109.33,20.51L116.17,20.51L150.33,20.39L157.17,20.97L170.83,20.37L177.67,20.32L348.5,20.77L355.33,21.23L375.83,20.84L382.67,20.91L833.67,23.57L840.5,23.66L943,24.25L949.83,24.25L984,24.89L990.83,24.69L1018.17,24.85L1025,29.43" style="vector-effect: none; fill: none; stroke: rgb(43, 144, 143); stroke-opacity: 1; stroke-width: 2px; opacity: 1;"/></g><g class="points"/><g class="text"/></g><g class="trace scatter trace1cb447" style="stroke-miterlimit: 2; opacity: 1;"><g class="fills"/><g class="errorbars"/><g class="lines"><path class="js-line" d="M0,27.99L6.83,27.66L13.67,25.37L27.33,23.03L34.17,22.31L68.33,20.97L75.17,20.81L88.83,20.58L95.67,21.2L109.33,20.39L116.17,20.38L150.33,20.26L157.17,20.84L170.83,20.25L177.67,20.19L505.67,21.34L512.5,21.42L560.33,21.67L567.17,22.17L580.83,21.78L587.67,21.81L765.33,22.9L772.17,22.95L1018.17,24.68L1025,29.25" style="vector-effect: none; fill: none; stroke: rgb(244, 91, 91); stroke-opacity: 1; stroke-width: 2px; opacity: 1;"/></g><g class="points"/><g class="text"/></g><g class="trace scatter trace9c4a57" style="stroke-miterlimit: 2; opacity: 1;"><g class="fills"/><g class="errorbars"/><g class="lines"><path class="js-line" d="M0,29.84L6.83,29.59L13.67,26.76L27.33,23.89L34.17,23.05L61.5,21.69L68.33,21.43L88.83,20.94L95.67,21.57L109.33,20.72L116.17,20.7L150.33,20.56L157.17,21.14L170.83,20.53L177.67,20.47L348.5,20.96L355.33,21.4L375.83,21.02L382.67,21.1L560.33,22.06L567.17,22.57L580.83,22.16L587.67,22.2L738,23.25L744.83,23.22L1018.17,25.21L1025,29.93" style="vector-effect: none; fill: none; stroke: rgb(145, 232, 225); stroke-opacity: 1; stroke-width: 2px; opacity: 1;"/></g><g class="points"/><g class="text"/></g><g class="trace scatter trace6a2451" style="stroke-miterlimit: 2; opacity: 1;"><g class="fills"/><g class="errorbars"/><g class="lines"><path class="js-line" d="M0,28.51L6.83,28.47L13.67,25.79L27.33,23.2L34.17,22.47L61.5,21.31L68.33,21.1L88.83,20.66L95.67,21.3L109.33,20.47L116.17,20.46L150.33,20.34L157.17,20.93L170.83,20.32L177.67,20.28L287,20.45L293.83,20.95L314.33,20.59L321.17,20.9L341.67,20.69L348.5,20.73L355.33,21.19L362.17,20.85L410,20.98L416.83,21.01L1018.17,24.92L1025,29.52" style="vector-effect: none; fill: none; stroke: rgb(124, 181, 236); stroke-opacity: 1; stroke-width: 2px; opacity: 1;"/></g><g class="points"/><g class="text"/></g><g class="trace scatter trace072618" style="stroke-miterlimit: 2; opacity: 1;"><g class="fills"/><g class="errorbars"/><g class="lines"><path class="js-line" d="M0,28.63L6.83,28.45L13.67,25.86L27.33,23.32L34.17,22.6L61.5,21.4L68.33,21.16L88.83,20.73L95.67,21.35L109.33,20.53L116.17,20.51L150.33,20.38L157.17,20.95L170.83,20.35L177.67,20.3L287,20.46L293.83,20.97L314.33,20.59L321.17,20.92L341.67,20.69L348.5,20.74L355.33,21.19L362.17,20.84L416.83,21.01L423.67,21.02L512.5,21.49L519.33,21.49L649.17,22.48L656,22.29L738,22.87L744.83,22.84L1018.17,24.74L1025,29.32" style="vector-effect: none; fill: none; stroke: rgb(67, 67, 72); stroke-opacity: 1; stroke-width: 2px; opacity: 1;"/></g><g class="points"/><g class="text"/></g><g class="trace scatter tracea21899" style="stroke-miterlimit: 2; opacity: 1;"><g class="fills"/><g class="errorbars"/><g class="lines"><path class="js-line" d="M0,27.2L6.83,26.89L13.67,24.67L27.33,22.49L34.17,21.87L68.33,20.73L75.17,20.56L88.83,20.37L95.67,21L109.33,20.21L116.17,20.2L150.33,20.11L157.17,20.7L170.83,20.1L177.67,20.05L519.33,21.23L526.17,21.29L601.33,21.77L608.17,21.76L1018.17,24.43L1025,28.86" style="vector-effect: none; fill: none; stroke: rgb(144, 237, 125); stroke-opacity: 1; stroke-width: 2px; opacity: 1;"/></g><g class="points"/><g class="text"/></g><g class="trace scatter trace64e1fd" style="stroke-miterlimit: 2; opacity: 1;"><g class="fills"/><g class="errorbars"/><g class="lines"><path class="js-line" d="M0,28.76L6.83,28.67L13.67,26.04L27.33,23.44L34.17,22.71L61.5,21.49L68.33,21.25L88.83,20.82L95.67,21.44L109.33,20.6L116.17,20.59L150.33,20.46L157.17,21.04L170.83,20.43L177.67,20.37L348.5,20.81L355.33,21.25L375.83,20.87L382.67,20.95L1018.17,24.86L1025,29.44" style="vector-effect: none; fill: none; stroke: rgb(247, 163, 92); stroke-opacity: 1; stroke-width: 2px; opacity: 1;"/></g><g class="points"/><g class="text"/></g><g class="trace scatter tracebeee8e" style="stroke-miterlimit: 2; opacity: 1;"><g class="fills"/><g class="errorbars"/><g class="lines"><path class="js-line" d="M0,27.93L6.83,27.68L13.67,25.19L27.33,22.82L34.17,22.14L68.33,20.87L75.17,20.69L88.83,20.47L95.67,21.1L109.33,20.29L116.17,20.29L150.33,20.17L157.17,20.76L170.83,20.17L177.67,20.12L348.5,20.58L355.33,21.03L375.83,20.63L382.67,20.7L833.67,23.31L840.5,23.41L949.83,23.99L956.67,24.22L1018.17,24.59L1025,29.1" style="vector-effect: none; fill: none; stroke: rgb(128, 133, 233); stroke-opacity: 1; stroke-width: 2px; opacity: 1;"/></g><g class="points"/><g class="text"/></g><g class="trace scatter trace9b2fc2" style="stroke-miterlimit: 2; opacity: 1;"><g class="fills"/><g class="errorbars"/><g class="lines"><path class="js-line" d="M0,27.92L6.83,27.72L13.67,25.24L27.33,22.9L34.17,22.22L68.33,20.93L75.17,20.76L88.83,20.54L95.67,21.17L109.33,20.36L116.17,20.35L150.33,20.25L157.17,20.84L170.83,20.22L177.67,20.17L505.67,21.35L512.5,21.4L642.33,22.14L649.17,22.41L676.5,22.34L683.33,22.41L792.67,23.09L799.5,23.17L1018.17,24.69L1025,29.21" style="vector-effect: none; fill: none; stroke: rgb(241, 92, 128); stroke-opacity: 1; stroke-width: 2px; opacity: 1;"/></g><g class="points"/><g class="text"/></g><g class="trace scatter traceb5332f" style="stroke-miterlimit: 2; opacity: 1;"><g class="fills"/><g class="errorbars"/><g class="lines"><path class="js-line" d="M0,29.05L6.83,28.24L13.67,25.39L27.33,23.16L34.17,22.5L54.67,21.34L61.5,21.36L88.83,20.63L95.67,21.33L102.5,20.51L109.33,20.45L287,20.56L293.83,21.05L314.33,20.81L321.17,21.15L341.67,20.82L348.5,20.86L355.33,21.32L362.17,20.96L423.67,21.23L430.5,21.33L874.67,23.91L881.5,24.2L902,24.07L908.83,24.08L1011.33,24.9L1018.17,24.88L1025,29.5" style="vector-effect: none; fill: none; stroke: rgb(228, 211, 84); stroke-opacity: 1; stroke-width: 2px; opacity: 1;"/></g><g class="points"/><g class="text"/></g><g class="trace scatter trace26cde9" style="stroke-miterlimit: 2; opacity: 1;"><g class="fills"/><g class="errorbars"/><g class="lines"><path class="js-line" d="M0,30.95L6.83,30.77L13.67,27.81L27.33,24.64L34.17,23.68L61.5,22.11L68.33,21.82L88.83,21.27L95.67,21.89L109.33,21.01L116.17,20.99L150.33,20.8L157.17,21.39L170.83,20.78L177.67,20.71L348.5,21.17L355.33,21.62L375.83,21.23L382.67,21.31L977.17,25.41L984,25.55L1004.5,25.37L1011.33,25.53L1018.17,25.51L1025,30.33" style="vector-effect: none; fill: none; stroke: rgb(43, 144, 143); stroke-opacity: 1; stroke-width: 2px; opacity: 1;"/></g><g class="points"/><g class="text"/></g><g class="trace scatter trace75518e" style="stroke-miterlimit: 2; opacity: 1;"><g class="fills"/><g class="errorbars"/><g class="lines"><path class="js-line" d="M0,27.52L6.83,27.24L13.67,24.93L27.33,22.69L34.17,22L68.33,20.77L75.17,20.6L88.83,20.39L95.67,21.02L109.33,20.22L116.17,20.21L150.33,20.11L157.17,20.7L170.83,20.09L177.67,20.05L287,20.22L293.83,20.71L314.33,20.35L321.17,20.67L341.67,20.44L348.5,20.49L355.33,20.94L362.17,20.58L423.67,20.78L430.5,20.86L874.67,23.48L881.5,23.77L902,23.65L908.83,23.66L1018.17,24.42L1025,28.86" style="vector-effect: none; fill: none; stroke: rgb(244, 91, 91); stroke-opacity: 1; stroke-width: 2px; opacity: 1;"/></g><g class="points"/><g class="text"/></g><g class="trace scatter trace2d69d7" style="stroke-miterlimit: 2; opacity: 1;"><g class="fills"/><g class="errorbars"/><g class="lines"><path class="js-line" d="M0,28.64L6.83,28.32L13.67,25.84L27.33,23.31L34.17,22.57L61.5,21.38L68.33,21.15L88.83,20.72L95.67,21.35L109.33,20.51L116.17,20.5L150.33,20.37L157.17,20.96L170.83,20.35L177.67,20.3L287,20.47L293.83,20.95L314.33,20.59L321.17,20.93L341.67,20.7L348.5,20.75L355.33,21.19L362.17,20.85L416.83,21.02L423.67,21.05L539.83,21.67L546.67,21.72L867.83,23.84L874.67,23.93L895.17,24.05L902,24.11L1018.17,24.93L1025,29.54" style="vector-effect: none; fill: none; stroke: rgb(145, 232, 225); stroke-opacity: 1; stroke-width: 2px; opacity: 1;"/></g><g class="points"/><g class="text"/></g><g class="trace scatter trace50be8e" style="stroke-miterlimit: 2; opacity: 1;"><g class="fills"/><g class="errorbars"/><g class="lines"><path class="js-line" d="M0,30.79L6.83,30.36L13.67,27.54L27.33,24.43L34.17,23.51L61.5,21.99L68.33,21.71L88.83,21.18L95.67,21.82L109.33,20.94L116.17,20.91L239.17,20.7L246,20.79L287,20.82L293.83,21.32L314.33,20.96L321.17,21.28L341.67,21.07L348.5,21.11L355.33,21.56L362.17,21.22L416.83,21.4L423.67,21.44L512.5,21.93L519.33,21.92L615,22.55L621.83,22.59L813.17,23.95L820,23.99L1018.17,25.41L1025,30.19" style="vector-effect: none; fill: none; stroke: rgb(124, 181, 236); stroke-opacity: 1; stroke-width: 2px; opacity: 1;"/></g><g class="points"/><g class="text"/></g><g class="trace scatter trace9275e0" style="stroke-miterlimit: 2; opacity: 1;"><g class="fills"/><g class="errorbars"/><g class="lines"><path class="js-line" d="M0,26.49L6.83,26.29L13.67,24.07L34.17,21.53L41,21.21L88.83,20.19L95.67,20.82L109.33,20.03L116.17,20.04L239.17,19.97L246,20.05L314.33,20.22L321.17,20.52L341.67,20.31L348.5,20.35L355.33,20.8L362.17,20.44L423.67,20.63L430.5,20.71L874.67,23.28L881.5,23.57L902,23.45L908.83,23.46L1018.17,24.21L1025,28.57" style="vector-effect: none; fill: none; stroke: rgb(67, 67, 72); stroke-opacity: 1; stroke-width: 2px; opacity: 1;"/></g><g class="points"/><g class="text"/></g><g class="trace scatter trace6ce973" style="stroke-miterlimit: 2; opacity: 1;"><g class="fills"/><g class="errorbars"/><g class="lines"><path class="js-line" d="M0,27.37L6.83,27.07L13.67,24.68L27.33,22.43L34.17,21.8L61.5,20.79L68.33,20.62L88.83,20.27L95.67,20.91L109.33,20.12L116.17,20.12L150.33,20.03L157.17,20.63L170.83,20.01L177.67,19.97L505.67,21.17L512.5,21.23L560.33,21.5L567.17,22.01L580.83,21.59L587.67,21.62L717.5,22.45L724.33,22.44L929.33,23.83L936.17,23.78L1018.17,24.42L1025,28.89" style="vector-effect: none; fill: none; stroke: rgb(144, 237, 125); stroke-opacity: 1; stroke-width: 2px; opacity: 1;"/></g><g class="points"/><g class="text"/></g><g class="trace scatter trace38a3f3" style="stroke-miterlimit: 2; opacity: 1;"><g class="fills"/><g class="errorbars"/><g class="lines"><path class="js-line" d="M0,25.49L6.83,25.19L13.67,23.16L34.17,20.9L41,20.61L88.83,19.78L95.67,20.42L109.33,19.67L116.17,19.69L150.33,19.62L157.17,20.22L170.83,19.62L177.67,19.58L526.17,20.8L533,20.88L642.33,21.41L649.17,21.69L676.5,21.58L683.33,21.66L806.33,22.38L813.17,22.46L1018.17,23.78L1025,28.02" style="vector-effect: none; fill: none; stroke: rgb(247, 163, 92); stroke-opacity: 1; stroke-width: 2px; opacity: 1;"/></g><g class="points"/><g class="text"/></g><g class="trace scatter trace5084c7" style="stroke-miterlimit: 2; opacity: 1;"><g class="fills"/><g class="errorbars"/><g class="lines"><path class="js-line" d="M0,27.84L6.83,27.52L13.67,24.99L27.33,22.64L34.17,22.01L61.5,20.95L68.33,20.75L88.83,20.39L95.67,21.02L109.33,20.24L116.17,20.22L239.17,20.14L246,20.22L287,20.28L293.83,20.78L314.33,20.41L321.17,20.73L341.67,20.51L348.5,20.56L355.33,21.01L362.17,20.64L423.67,20.84L430.5,20.93L560.33,21.56L567.17,22.08L580.83,21.64L587.67,21.69L881.5,23.85L888.33,23.59L1011.33,24.54L1018.17,24.51L1025,28.99" style="vector-effect: none; fill: none; stroke: rgb(128, 133, 233); stroke-opacity: 1; stroke-width: 2px; opacity: 1;"/></g><g class="points"/><g class="text"/></g><g class="trace scatter trace86ca2d" style="stroke-miterlimit: 2; opacity: 1;"><g class="fills"/><g class="errorbars"/><g class="lines"><path class="js-line" d="M0,28.8L6.83,28.62L13.67,25.88L27.33,23.22L34.17,22.51L61.5,21.3L68.33,21.08L88.83,20.67L95.67,21.28L109.33,20.48L116.17,20.47L150.33,20.35L157.17,20.95L170.83,20.31L177.67,20.28L287,20.5L293.83,20.98L314.33,20.62L321.17,20.95L341.67,20.73L348.5,20.77L355.33,21.22L362.17,20.87L416.83,21.05L423.67,21.07L533,21.67L539.83,21.68L1018.17,24.86L1025,29.44" style="vector-effect: none; fill: none; stroke: rgb(241, 92, 128); stroke-opacity: 1; stroke-width: 2px; opacity: 1;"/></g><g class="points"/><g class="text"/></g><g class="trace scatter tracee369cc" style="stroke-miterlimit: 2; opacity: 1;"><g class="fills"/><g class="errorbars"/><g class="lines"><path class="js-line" d="M0,26.68L6.83,26.43L13.67,24.1L27.33,22.05L34.17,21.49L68.33,20.44L75.17,20.3L88.83,20.12L95.67,20.75L109.33,19.98L116.17,19.99L150.33,19.9L157.17,20.49L170.83,19.89L177.67,19.85L519.33,21.04L526.17,21.12L649.17,22L656,21.8L738,22.33L744.83,22.33L1018.17,24.15L1025,28.53" style="vector-effect: none; fill: none; stroke: rgb(228, 211, 84); stroke-opacity: 1; stroke-width: 2px; opacity: 1;"/></g><g class="points"/><g class="text"/></g><g class="trace scatter trace3617c9" style="stroke-miterlimit: 2; opacity: 1;"><g class="fills"/><g class="errorbars"/><g class="lines"><path class="js-line" d="M0,28.25L6.83,27.88L13.67,25.37L27.33,22.91L34.17,22.25L61.5,21.12L68.33,20.94L88.83,20.55L95.67,21.17L109.33,20.38L116.17,20.38L150.33,20.27L157.17,20.85L170.83,20.23L177.67,20.19L348.5,20.7L355.33,21.14L375.83,20.74L382.67,20.81L867.83,23.63L874.67,23.69L888.33,23.75L895.17,23.82L1018.17,24.66L1025,29.17" style="vector-effect: none; fill: none; stroke: rgb(43, 144, 143); stroke-opacity: 1; stroke-width: 2px; opacity: 1;"/></g><g class="points"/><g class="text"/></g><g class="trace scatter tracea3f6a4" style="stroke-miterlimit: 2; opacity: 1;"><g class="fills"/><g class="errorbars"/><g class="lines"><path class="js-line" d="M0,28.02L6.83,27.77L13.67,25.25L27.33,22.86L34.17,22.18L61.5,21.08L68.33,20.88L88.83,20.5L95.67,21.13L109.33,20.34L116.17,20.33L150.33,20.22L157.17,20.81L170.83,20.2L177.67,20.15L505.67,21.36L512.5,21.4L560.33,21.67L567.17,22.18L580.83,21.76L587.67,21.81L881.5,23.98L888.33,23.73L1018.17,24.64L1025,29.17" style="vector-effect: none; fill: none; stroke: rgb(244, 91, 91); stroke-opacity: 1; stroke-width: 2px; opacity: 1;"/></g><g class="points"/><g class="text"/></g><g class="trace scatter tracecbc9f9" style="stroke-miterlimit: 2; opacity: 1;"><g class="fills"/><g class="errorbars"/><g class="lines"><path class="js-line" d="M0,27.06L6.83,26.86L13.67,24.56L27.33,22.37L34.17,21.74L61.5,20.75L68.33,20.57L88.83,20.23L95.67,20.86L109.33,20.08L116.17,20.08L150.33,19.98L157.17,20.57L170.83,19.96L177.67,19.92L519.33,21.11L526.17,21.18L621.83,21.72L628.67,21.75L1018.17,24.27L1025,28.7" style="vector-effect: none; fill: none; stroke: rgb(145, 232, 225); stroke-opacity: 1; stroke-width: 2px; opacity: 1;"/></g><g class="points"/><g class="text"/></g><g class="trace scatter tracea42ebc" style="stroke-miterlimit: 2; opacity: 1;"><g class="fills"/><g class="errorbars"/><g class="lines"><path class="js-line" d="M0,27.36L6.83,26.93L13.67,24.57L27.33,22.38L34.17,21.76L61.5,20.78L68.33,20.6L88.83,20.25L95.67,20.89L109.33,20.1L116.17,20.1L150.33,20.01L157.17,20.59L170.83,19.99L177.67,19.95L348.5,20.43L355.33,20.89L375.83,20.5L382.67,20.56L560.33,21.43L567.17,21.92L580.83,21.5L587.67,21.54L758.5,22.57L765.33,22.58L1018.17,24.27L1025,28.68" style="vector-effect: none; fill: none; stroke: rgb(124, 181, 236); stroke-opacity: 1; stroke-width: 2px; opacity: 1;"/></g><g class="points"/><g class="text"/></g><g class="trace scatter traceae6c6f" style="stroke-miterlimit: 2; opacity: 1;"><g class="fills"/><g class="errorbars"/><g class="lines"><path class="js-line" d="M0,29.89L6.83,29.59L13.67,26.79L27.33,23.82L34.17,23.01L54.67,21.73L61.5,21.63L88.83,20.92L95.67,21.54L109.33,20.71L116.17,20.7L150.33,20.55L157.17,21.14L170.83,20.52L177.67,20.47L287,20.67L293.83,21.17L314.33,20.81L321.17,21.13L341.67,20.92L348.5,20.96L355.33,21.41L362.17,21.06L416.83,21.24L423.67,21.28L533,21.89L539.83,21.89L915.67,24.41L922.5,24.38L1011.33,25.14L1018.17,25.1L1025,29.78" style="vector-effect: none; fill: none; stroke: rgb(67, 67, 72); stroke-opacity: 1; stroke-width: 2px; opacity: 1;"/></g><g class="points"/><g class="text"/></g><g class="trace scatter tracef0fb5d" style="stroke-miterlimit: 2; opacity: 1;"><g class="fills"/><g class="errorbars"/><g class="lines"><path class="js-line" d="M0,29.7L6.83,29.11L13.67,26.08L27.33,23.58L34.17,22.85L54.67,21.55L61.5,21.52L88.83,20.77L95.67,21.44L109.33,20.58L116.17,20.57L150.33,20.47L157.17,21.07L170.83,20.41L177.67,20.36L287,20.66L293.83,21.16L314.33,20.93L321.17,21.28L341.67,20.97L348.5,21.02L355.33,21.48L362.17,21.11L423.67,21.42L430.5,21.52L874.67,24.11L881.5,24.4L902,24.27L908.83,24.28L997.67,25.09L1004.5,24.95L1018.17,25.1L1025,29.85" style="vector-effect: none; fill: none; stroke: rgb(144, 237, 125); stroke-opacity: 1; stroke-width: 2px; opacity: 1;"/></g><g class="points"/><g class="text"/></g><g class="trace scatter trace7c5997" style="stroke-miterlimit: 2; opacity: 1;"><g class="fills"/><g class="errorbars"/><g class="lines"><path class="js-line" d="M0,26.41L6.83,25.98L13.67,23.81L27.33,21.88L34.17,21.34L68.33,20.34L75.17,20.21L88.83,20.04L95.67,20.67L109.33,19.91L116.17,19.91L150.33,19.84L157.17,20.43L170.83,19.83L177.67,19.79L348.5,20.28L355.33,20.73L375.83,20.34L382.67,20.4L874.67,23.13L881.5,23.42L902,23.28L908.83,23.3L1018.17,24.04L1025,28.38" style="vector-effect: none; fill: none; stroke: rgb(247, 163, 92); stroke-opacity: 1; stroke-width: 2px; opacity: 1;"/></g><g class="points"/><g class="text"/></g><g class="trace scatter tracef936bd" style="stroke-miterlimit: 2; opacity: 1;"><g class="fills"/><g class="errorbars"/><g class="lines"><path class="js-line" d="M0,29.09L6.83,28.94L13.67,26.26L27.33,23.53L34.17,22.73L61.5,21.41L68.33,21.17L88.83,20.73L95.67,21.34L109.33,20.52L116.17,20.52L150.33,20.37L157.17,20.96L170.83,20.34L177.67,20.29L348.5,20.77L355.33,21.22L375.83,20.83L382.67,20.9L1018.17,24.81L1025,29.43" style="vector-effect: none; fill: none; stroke: rgb(128, 133, 233); stroke-opacity: 1; stroke-width: 2px; opacity: 1;"/></g><g class="points"/><g class="text"/></g><g class="trace scatter trace35d35f" style="stroke-miterlimit: 2; opacity: 1;"><g class="fills"/><g class="errorbars"/><g class="lines"><path class="js-line" d="M0,26.17L6.83,25.91L13.67,23.7L34.17,21.23L41,20.91L88.83,19.96L95.67,20.59L109.33,19.84L116.17,19.84L150.33,19.77L157.17,20.36L170.83,19.75L177.67,19.72L348.5,20.19L355.33,20.65L375.83,20.25L382.67,20.31L874.67,23.01L881.5,23.3L902,23.17L908.83,23.19L1018.17,23.92L1025,28.22" style="vector-effect: none; fill: none; stroke: rgb(241, 92, 128); stroke-opacity: 1; stroke-width: 2px; opacity: 1;"/></g><g class="points"/><g class="text"/></g><g class="trace scatter trace20669f" style="stroke-miterlimit: 2; opacity: 1;"><g class="fills"/><g class="errorbars"/><g class="lines"><path class="js-line" d="M0,29.37L6.83,29.01L13.67,26.35L27.33,23.59L34.17,22.78L61.5,21.45L68.33,21.22L88.83,20.77L95.67,21.39L109.33,20.57L116.17,20.56L150.33,20.42L157.17,21L170.83,20.39L177.67,20.34L505.67,21.53L512.5,21.59L560.33,21.87L567.17,22.38L580.83,21.97L587.67,22L779,23.22L785.83,23.23L1018.17,24.88L1025,29.49" style="vector-effect: none; fill: none; stroke: rgb(228, 211, 84); stroke-opacity: 1; stroke-width: 2px; opacity: 1;"/></g><g class="points"/><g class="text"/></g><g class="trace scatter tracefb0a82" style="stroke-miterlimit: 2; opacity: 1;"><g class="fills"/><g class="errorbars"/><g class="lines"><path class="js-line" d="M0,31.06L6.83,30.88L13.67,27.99L27.33,24.7L34.17,23.71L54.67,22.18L61.5,22.03L88.83,21.19L95.67,21.8L109.33,20.93L116.17,20.92L150.33,20.72L157.17,21.29L170.83,20.67L177.67,20.62L287,20.8L293.83,21.29L314.33,20.94L321.17,21.26L341.67,21.05L348.5,21.09L355.33,21.54L362.17,21.19L410,21.35L416.83,21.38L560.33,22.2L567.17,22.71L580.83,22.29L587.67,22.34L785.83,23.63L792.67,23.69L1018.17,25.38L1025,30.19" style="vector-effect: none; fill: none; stroke: rgb(43, 144, 143); stroke-opacity: 1; stroke-width: 2px; opacity: 1;"/></g><g class="points"/><g class="text"/></g><g class="trace scatter trace90cfbf" style="stroke-miterlimit: 2; opacity: 1;"><g class="fills"/><g class="errorbars"/><g class="lines"><path class="js-line" d="M0,26.93L6.83,26.62L13.67,24.2L34.17,21.52L41,21.2L88.83,20.15L95.67,20.81L109.33,20.02L116.17,20L287,20.12L293.83,20.61L314.33,20.26L321.17,20.58L341.67,20.37L348.5,20.41L355.33,20.86L362.17,20.52L416.83,20.72L423.67,20.74L546.67,21.44L553.5,21.46L628.67,21.94L635.5,21.99L833.67,23.32L840.5,23.4L936.17,23.96L943,24L1018.17,24.6L1025,29.11" style="vector-effect: none; fill: none; stroke: rgb(244, 91, 91); stroke-opacity: 1; stroke-width: 2px; opacity: 1;"/></g><g class="points"/><g class="text"/></g><g class="trace scatter trace64bcb5" style="stroke-miterlimit: 2; opacity: 1;"><g class="fills"/><g class="errorbars"/><g class="lines"><path class="js-line" d="M0,25.53L6.83,25.34L13.67,23.16L34.17,20.86L41,20.6L88.83,19.77L95.67,20.42L109.33,19.67L116.17,19.66L287,19.83L293.83,20.31L314.33,19.96L321.17,20.29L341.67,20.09L348.5,20.12L355.33,20.57L362.17,20.21L423.67,20.45L430.5,20.52L1018.17,24.35L1025,28.78" style="vector-effect: none; fill: none; stroke: rgb(145, 232, 225); stroke-opacity: 1; stroke-width: 2px; opacity: 1;"/></g><g class="points"/><g class="text"/></g><g class="trace scatter tracecb83e3" style="stroke-miterlimit: 2; opacity: 1;"><g class="fills"/><g class="errorbars"/><g class="lines"><path class="js-line" d="M0,26.53L6.83,26.34L13.67,24L34.17,21.48L41,21.18L88.83,20.19L95.67,20.84L109.33,20.06L116.17,20.04L287,20.17L293.83,20.66L314.33,20.31L321.17,20.62L341.67,20.42L348.5,20.47L355.33,20.92L362.17,20.57L416.83,20.77L423.67,20.79L512.5,21.3L519.33,21.29L635.5,22.05L642.33,22.07L662.83,22.26L669.67,22.23L1018.17,24.72L1025,29.21" style="vector-effect: none; fill: none; stroke: rgb(124, 181, 236); stroke-opacity: 1; stroke-width: 2px; opacity: 1;"/></g><g class="points"/><g class="text"/></g><g class="trace scatter traceabdcfa" style="stroke-miterlimit: 2; opacity: 1;"><g class="fills"/><g class="errorbars"/><g class="lines"><path class="js-line" d="M0,29.12L6.83,28.84L13.67,26.11L34.17,22.65L41,22.2L88.83,20.8L95.67,21.44L109.33,20.61L116.17,20.58L280.17,20.6L287,20.63L293.83,21.13L300.67,20.86L334.83,20.76L341.67,20.89L977.17,25.19L984,25.33L1004.5,25.16L1011.33,25.33L1018.17,25.31L1025,29.99" style="vector-effect: none; fill: none; stroke: rgb(67, 67, 72); stroke-opacity: 1; stroke-width: 2px; opacity: 1;"/></g><g class="points"/><g class="text"/></g><g class="trace scatter traceb9ac50" style="stroke-miterlimit: 2; opacity: 1;"><g class="fills"/><g class="errorbars"/><g class="lines"><path class="js-line" d="M0,25.69L6.83,25.5L13.67,23.28L34.17,21.03L41,20.78L88.83,19.92L95.67,20.57L109.33,19.81L116.17,19.8L287,19.95L293.83,20.44L314.33,20.07L321.17,20.39L341.67,20.19L348.5,20.23L355.33,20.68L362.17,20.32L423.67,20.54L430.5,20.62L833.67,23.03L840.5,23.12L936.17,23.69L943,23.73L1018.17,24.37L1025,28.74" style="vector-effect: none; fill: none; stroke: rgb(144, 237, 125); stroke-opacity: 1; stroke-width: 2px; opacity: 1;"/></g><g class="points"/><g class="text"/></g><g class="trace scatter traced7c64b" style="stroke-miterlimit: 2; opacity: 1;"><g class="fills"/><g class="errorbars"/><g class="lines"><path class="js-line" d="M0,27.23L6.83,26.99L13.67,24.62L34.17,21.83L41,21.47L88.83,20.35L95.67,21L109.33,20.2L116.17,20.17L287,20.27L293.83,20.76L314.33,20.41L321.17,20.73L341.67,20.52L348.5,20.57L355.33,21.02L362.17,20.66L423.67,20.89L430.5,20.97L806.33,23.28L813.17,23.37L1018.17,24.84L1025,29.36" style="vector-effect: none; fill: none; stroke: rgb(247, 163, 92); stroke-opacity: 1; stroke-width: 2px; opacity: 1;"/></g><g class="points"/><g class="text"/></g><g class="trace scatter traceafa956" style="stroke-miterlimit: 2; opacity: 1;"><g class="fills"/><g class="errorbars"/><g class="lines"><path class="js-line" d="M0,26.86L6.83,26.67L13.67,24.27L34.17,21.59L41,21.28L88.83,20.24L95.67,20.89L109.33,20.11L116.17,20.08L287,20.2L293.83,20.69L314.33,20.34L321.17,20.66L341.67,20.45L348.5,20.49L355.33,20.94L362.17,20.59L416.83,20.78L423.67,20.81L512.5,21.31L519.33,21.31L662.83,22.26L669.67,22.24L1018.17,24.7L1025,29.17" style="vector-effect: none; fill: none; stroke: rgb(128, 133, 233); stroke-opacity: 1; stroke-width: 2px; opacity: 1;"/></g><g class="points"/><g class="text"/></g><g class="trace scatter traceb3316b" style="stroke-miterlimit: 2; opacity: 1;"><g class="fills"/><g class="errorbars"/><g class="lines"><path class="js-line" d="M0,27.85L6.83,27.69L13.67,25.18L34.17,22.06L41,21.68L82,20.49L88.83,20.42L95.67,21.06L102.5,20.29L150.33,20.15L157.17,20.76L170.83,20.14L177.67,20.09L287,20.29L293.83,20.78L314.33,20.43L321.17,20.75L341.67,20.54L348.5,20.58L355.33,21.05L362.17,20.7L410,20.85L416.83,20.89L560.33,21.72L567.17,22.23L580.83,21.82L587.67,21.87L813.17,23.46L820,23.49L977.17,24.82L984,24.97L1004.5,24.8L1011.33,24.98L1018.17,24.94L1025,29.56" style="vector-effect: none; fill: none; stroke: rgb(241, 92, 128); stroke-opacity: 1; stroke-width: 2px; opacity: 1;"/></g><g class="points"/><g class="text"/></g><g class="trace scatter trace0bfe31" style="stroke-miterlimit: 2; opacity: 1;"><g class="fills"/><g class="errorbars"/><g class="lines"><path class="js-line" d="M0,30.57L6.83,30.49L13.67,27.5L27.33,24.46L34.17,23.5L61.5,22.07L68.33,21.8L88.83,21.18L95.67,21.81L102.5,21L109.33,20.95L150.33,20.76L157.17,21.36L170.83,20.73L177.67,20.67L273.33,20.81L280.17,20.82L874.67,24.82L881.5,25.11L902,25.02L908.83,25.03L1018.17,25.91L1025,30.81" style="vector-effect: none; fill: none; stroke: rgb(228, 211, 84); stroke-opacity: 1; stroke-width: 2px; opacity: 1;"/></g><g class="points"/><g class="text"/></g><g class="trace scatter traced0b332" style="stroke-miterlimit: 2; opacity: 1;"><g class="fills"/><g class="errorbars"/><g class="lines"><path class="js-line" d="M0,27.49L6.83,27.23L13.67,24.77L34.17,21.89L41,21.52L88.83,20.35L95.67,21L109.33,20.2L116.17,20.17L287,20.26L293.83,20.75L314.33,20.39L321.17,20.71L341.67,20.51L348.5,20.55L355.33,21.01L362.17,20.64L430.5,20.95L437.33,20.99L1018.17,24.75L1025,29.27" style="vector-effect: none; fill: none; stroke: rgb(43, 144, 143); stroke-opacity: 1; stroke-width: 2px; opacity: 1;"/></g><g class="points"/><g class="text"/></g><g class="trace scatter tracef17e04" style="stroke-miterlimit: 2; opacity: 1;"><g class="fills"/><g class="errorbars"/><g class="lines"><path class="js-line" d="M0,26.17L6.83,25.98L13.67,23.76L34.17,21.29L41,20.99L88.83,20.02L95.67,20.68L109.33,19.91L116.17,19.88L287,20L293.83,20.49L314.33,20.13L321.17,20.45L341.67,20.23L348.5,20.27L355.33,20.73L362.17,20.37L423.67,20.57L430.5,20.65L867.83,23.25L874.67,23.33L888.33,23.39L895.17,23.44L1018.17,24.3L1025,28.71" style="vector-effect: none; fill: none; stroke: rgb(244, 91, 91); stroke-opacity: 1; stroke-width: 2px; opacity: 1;"/></g><g class="points"/><g class="text"/></g><g class="trace scatter trace0617b3" style="stroke-miterlimit: 2; opacity: 1;"><g class="fills"/><g class="errorbars"/><g class="lines"><path class="js-line" d="M0,26.91L6.83,26.63L13.67,24.3L34.17,21.57L41,21.23L88.83,20.15L95.67,20.79L109.33,20.01L116.17,20L266.5,20.04L273.33,20.07L485.17,21.05L492,21.14L560.33,21.54L567.17,22.04L580.83,21.64L587.67,21.69L779,22.94L785.83,22.97L1018.17,24.7L1025,29.21" style="vector-effect: none; fill: none; stroke: rgb(145, 232, 225); stroke-opacity: 1; stroke-width: 2px; opacity: 1;"/></g><g class="points"/><g class="text"/></g><g class="trace scatter trace0f7858" style="stroke-miterlimit: 2; opacity: 1;"><g class="fills"/><g class="errorbars"/><g class="lines"><path class="js-line" d="M0,27.8L6.83,27.85L13.67,25.04L34.17,21.99L41,21.61L82,20.47L88.83,20.39L95.67,21.05L102.5,20.29L266.5,20.25L273.33,20.28L485.17,21.28L492,21.39L560.33,21.81L567.17,22.32L580.83,21.91L587.67,21.95L738,23.03L744.83,23.03L1018.17,25.12L1025,29.73" style="vector-effect: none; fill: none; stroke: rgb(124, 181, 236); stroke-opacity: 1; stroke-width: 2px; opacity: 1;"/></g><g class="points"/><g class="text"/></g><g class="trace scatter trace736034" style="stroke-miterlimit: 2; opacity: 1;"><g class="fills"/><g class="errorbars"/><g class="lines"><path class="js-line" d="M0,25.69L6.83,25.4L13.67,23.24L34.17,21.01L41,20.73L88.83,19.88L95.67,20.53L109.33,19.76L116.17,19.75L287,19.89L293.83,20.39L314.33,20.03L321.17,20.35L341.67,20.14L348.5,20.18L355.33,20.64L362.17,20.27L423.67,20.49L430.5,20.56L867.83,23.17L874.67,23.24L888.33,23.29L895.17,23.36L1018.17,24.2L1025,28.57" style="vector-effect: none; fill: none; stroke: rgb(67, 67, 72); stroke-opacity: 1; stroke-width: 2px; opacity: 1;"/></g><g class="points"/><g class="text"/></g><g class="trace scatter tracec13ca8" style="stroke-miterlimit: 2; opacity: 1;"><g class="fills"/><g class="errorbars"/><g class="lines"><path class="js-line" d="M0,30.51L6.83,30.5L13.67,27.46L27.33,24.29L34.17,23.38L54.67,22.09L61.5,22L88.83,21.14L95.67,21.77L102.5,20.96L109.33,20.91L150.33,20.74L157.17,21.33L170.83,20.7L177.67,20.64L280.17,20.78L287,20.81L293.83,21.31L300.67,21.03L334.83,20.93L341.67,21.07L471.5,21.69L478.33,21.72L874.67,24.58L881.5,24.86L902,24.75L908.83,24.75L1018.17,25.6L1025,30.41" style="vector-effect: none; fill: none; stroke: rgb(144, 237, 125); stroke-opacity: 1; stroke-width: 2px; opacity: 1;"/></g><g class="points"/><g class="text"/></g><g class="trace scatter trace63a803" style="stroke-miterlimit: 2; opacity: 1;"><g class="fills"/><g class="errorbars"/><g class="lines"><path class="js-line" d="M0,27.98L6.83,27.2L13.67,24.34L34.17,21.73L41,21.35L88.83,20.23L95.67,20.94L102.5,20.13L109.33,20.1L150.33,20.06L157.17,20.66L170.83,20.03L177.67,19.98L266.5,20.33L273.33,20.33L560.33,21.83L567.17,22.33L580.83,21.91L587.67,21.97L717.5,22.82L724.33,22.81L1018.17,24.86L1025,29.53" style="vector-effect: none; fill: none; stroke: rgb(247, 163, 92); stroke-opacity: 1; stroke-width: 2px; opacity: 1;"/></g><g class="points"/><g class="text"/></g><g class="trace scatter tracecf8ad6" style="stroke-miterlimit: 2; opacity: 1;"><g class="fills"/><g class="errorbars"/><g class="lines"><path class="js-line" d="M0,25.1L6.83,24.77L13.67,22.76L34.17,20.69L41,20.49L88.83,19.77L95.67,20.43L109.33,19.68L116.17,19.67L287,19.9L293.83,20.4L314.33,20.05L321.17,20.37L341.67,20.15L348.5,20.2L355.33,20.66L362.17,20.29L430.5,20.6L437.33,20.63L881.5,23.66L888.33,23.42L1018.17,24.33L1025,28.7" style="vector-effect: none; fill: none; stroke: rgb(128, 133, 233); stroke-opacity: 1; stroke-width: 2px; opacity: 1;"/></g><g class="points"/><g class="text"/></g><g class="trace scatter tracecf94f1" style="stroke-miterlimit: 2; opacity: 1;"><g class="fills"/><g class="errorbars"/><g class="lines"><path class="js-line" d="M0,29.85L6.83,29.6L13.67,26.82L27.33,23.87L34.17,23.04L61.5,21.82L68.33,21.58L88.83,21.05L95.67,21.67L109.33,20.83L116.17,20.79L287,20.83L293.83,21.33L314.33,20.98L321.17,21.31L341.67,21.09L348.5,21.15L355.33,21.6L362.17,21.26L416.83,21.48L423.67,21.5L533,22.23L539.83,22.23L1018.17,25.78L1025,30.6" style="vector-effect: none; fill: none; stroke: rgb(241, 92, 128); stroke-opacity: 1; stroke-width: 2px; opacity: 1;"/></g><g class="points"/><g class="text"/></g><g class="trace scatter traceec7c6d" style="stroke-miterlimit: 2; opacity: 1;"><g class="fills"/><g class="errorbars"/><g class="lines"><path class="js-line" d="M0,26.08L6.83,25.82L13.67,23.74L34.17,21.27L41,21L88.83,20.09L95.67,20.73L109.33,19.95L116.17,19.94L287,20.12L293.83,20.62L314.33,20.26L321.17,20.59L341.67,20.37L348.5,20.41L355.33,20.87L362.17,20.51L423.67,20.74L430.5,20.83L977.17,24.61L984,24.77L1004.5,24.59L1011.33,24.78L1018.17,24.75L1025,29.29" style="vector-effect: none; fill: none; stroke: rgb(228, 211, 84); stroke-opacity: 1; stroke-width: 2px; opacity: 1;"/></g><g class="points"/><g class="text"/></g><g class="trace scatter trace6743d5" style="stroke-miterlimit: 2; opacity: 1;"><g class="fills"/><g class="errorbars"/><g class="lines"><path class="js-line" d="M0,25.82L6.83,25.62L13.67,23.41L34.17,21.04L41,20.8L88.83,19.98L95.67,20.63L109.33,19.86L116.17,19.85L287,20.05L293.83,20.56L314.33,20.2L321.17,20.52L341.67,20.31L348.5,20.35L355.33,20.81L362.17,20.46L416.83,20.67L423.67,20.7L546.67,21.43L553.5,21.46L662.83,22.19L669.67,22.18L1018.17,24.69L1025,29.17" style="vector-effect: none; fill: none; stroke: rgb(43, 144, 143); stroke-opacity: 1; stroke-width: 2px; opacity: 1;"/></g><g class="points"/><g class="text"/></g><g class="trace scatter tracebe5fac" style="stroke-miterlimit: 2; opacity: 1;"><g class="fills"/><g class="errorbars"/><g class="lines"><path class="js-line" d="M0,32.15L6.83,31.82L13.67,28.69L27.33,25.2L34.17,24.16L54.67,22.65L61.5,22.52L88.83,21.57L95.67,22.19L109.33,21.28L116.17,21.23L287,21.18L293.83,21.68L314.33,21.33L321.17,21.67L341.67,21.44L348.5,21.49L355.33,21.94L362.17,21.61L410,21.79L416.83,21.84L560.33,22.77L567.17,23.29L580.83,22.89L587.67,22.95L717.5,23.99L724.33,23.96L881.5,25.52L888.33,25.29L1018.17,26.32L1025,31.39" style="vector-effect: none; fill: none; stroke: rgb(244, 91, 91); stroke-opacity: 1; stroke-width: 2px; opacity: 1;"/></g><g class="points"/><g class="text"/></g><g class="trace scatter tracee7ee4f" style="stroke-miterlimit: 2; opacity: 1;"><g class="fills"/><g class="errorbars"/><g class="lines"><path class="js-line" d="M0,28.59L6.83,28.15L13.67,25.66L27.33,23.1L34.17,22.35L61.5,21.27L68.33,21.06L88.83,20.61L95.67,21.23L109.33,20.42L116.17,20.38L287,20.47L293.83,20.97L314.33,20.63L321.17,20.94L341.67,20.73L348.5,20.78L355.33,21.24L362.17,20.88L410,21.05L416.83,21.08L970.33,24.79L977.17,25.07L1011.33,25.21L1018.17,25.19L1025,29.89" style="vector-effect: none; fill: none; stroke: rgb(145, 232, 225); stroke-opacity: 1; stroke-width: 2px; opacity: 1;"/></g><g class="points"/><g class="text"/></g><g class="trace scatter tracee6fac3" style="stroke-miterlimit: 2; opacity: 1;"><g class="fills"/><g class="errorbars"/><g class="lines"><path class="js-line" d="M0,25.72L6.83,25.36L13.67,23.36L34.17,21.06L41,20.8L88.83,19.94L95.67,20.58L109.33,19.81L116.17,19.8L287,19.99L293.83,20.49L314.33,20.13L321.17,20.45L341.67,20.26L348.5,20.29L355.33,20.74L362.17,20.38L423.67,20.61L430.5,20.69L833.67,23.17L840.5,23.23L949.83,23.82L956.67,24.06L1018.17,24.42L1025,28.9" style="vector-effect: none; fill: none; stroke: rgb(124, 181, 236); stroke-opacity: 1; stroke-width: 2px; opacity: 1;"/></g><g class="points"/><g class="text"/></g><g class="trace scatter traceef91a4" style="stroke-miterlimit: 2; opacity: 1;"><g class="fills"/><g class="errorbars"/><g class="lines"><path class="js-line" d="M0,26.68L6.83,26.13L13.67,23.92L34.17,21.27L41,20.98L82,20.06L88.83,20.02L95.67,20.67L102.5,19.92L150.33,19.87L157.17,20.49L170.83,19.89L177.67,19.84L287,20.05L293.83,20.55L314.33,20.2L321.17,20.52L341.67,20.31L348.5,20.35L355.33,20.81L362.17,20.45L423.67,20.67L430.5,20.75L915.67,23.88L922.5,23.84L1011.33,24.59L1018.17,24.57L1025,29.07" style="vector-effect: none; fill: none; stroke: rgb(67, 67, 72); stroke-opacity: 1; stroke-width: 2px; opacity: 1;"/></g><g class="points"/><g class="text"/></g><g class="trace scatter traceef8faa" style="stroke-miterlimit: 2; opacity: 1;"><g class="fills"/><g class="errorbars"/><g class="lines"><path class="js-line" d="M0,26.15L6.83,25.78L13.67,23.57L34.17,21.13L41,20.88L88.83,19.99L95.67,20.65L109.33,19.88L116.17,19.86L348.5,20.33L355.33,20.79L375.83,20.41L382.67,20.48L826.83,23.13L833.67,23.17L963.5,24.08L970.33,24.07L997.67,24.42L1004.5,24.31L1018.17,24.45L1025,28.88" style="vector-effect: none; fill: none; stroke: rgb(144, 237, 125); stroke-opacity: 1; stroke-width: 2px; opacity: 1;"/></g><g class="points"/><g class="text"/></g><g class="trace scatter trace2698b5" style="stroke-miterlimit: 2; opacity: 1;"><g class="fills"/><g class="errorbars"/><g class="lines"><path class="js-line" d="M0,23.04L6.83,24.39L13.67,21.63L34.17,20.03L41,19.84L88.83,19.34L95.67,19.97L109.33,19.25L116.17,19.25L485.17,20.39L492,20.49L560.33,20.87L567.17,21.36L580.83,20.95L587.67,20.98L717.5,21.82L724.33,21.81L881.5,23.21L888.33,22.97L1018.17,24.05L1025,28.41" style="vector-effect: none; fill: none; stroke: rgb(247, 163, 92); stroke-opacity: 1; stroke-width: 2px; opacity: 1;"/></g><g class="points"/><g class="text"/></g><g class="trace scatter trace9c7cc0" style="stroke-miterlimit: 2; opacity: 1;"><g class="fills"/><g class="errorbars"/><g class="lines"><path class="js-line" d="M0,25.2L6.83,24.87L13.67,22.92L34.17,20.74L41,20.52L88.83,19.76L95.67,20.4L109.33,19.64L116.17,19.63L287,19.84L293.83,20.32L314.33,19.97L321.17,20.29L341.67,20.08L348.5,20.12L355.33,20.58L362.17,20.21L423.67,20.42L430.5,20.49L779,22.49L785.83,22.52L1018.17,24.17L1025,28.57" style="vector-effect: none; fill: none; stroke: rgb(128, 133, 233); stroke-opacity: 1; stroke-width: 2px; opacity: 1;"/></g><g class="points"/><g class="text"/></g><g class="trace scatter trace9a871a" style="stroke-miterlimit: 2; opacity: 1;"><g class="fills"/><g class="errorbars"/><g class="lines"><path class="js-line" d="M0,27.61L6.83,27.28L13.67,24.77L27.33,22.45L34.17,21.81L68.33,20.75L75.17,20.56L88.83,20.35L95.67,21L109.33,20.19L116.17,20.16L287,20.31L293.83,20.81L314.33,20.46L321.17,20.78L341.67,20.56L348.5,20.61L355.33,21.06L362.17,20.71L423.67,20.95L430.5,21.03L806.33,23.38L813.17,23.47L1018.17,24.92L1025,29.54" style="vector-effect: none; fill: none; stroke: rgb(241, 92, 128); stroke-opacity: 1; stroke-width: 2px; opacity: 1;"/></g><g class="points"/><g class="text"/></g><g class="trace scatter tracea2ea94" style="stroke-miterlimit: 2; opacity: 1;"><g class="fills"/><g class="errorbars"/><g class="lines"><path class="js-line" d="M0,26.51L6.83,26.24L13.67,23.93L34.17,21.34L41,21.05L88.83,20.09L95.67,20.75L109.33,19.97L116.17,19.95L287,20.12L293.83,20.62L314.33,20.26L321.17,20.59L341.67,20.37L348.5,20.41L355.33,20.86L362.17,20.51L416.83,20.71L423.67,20.74L539.83,21.38L546.67,21.43L867.83,23.57L874.67,23.64L888.33,23.71L895.17,23.78L1018.17,24.66L1025,29.16" style="vector-effect: none; fill: none; stroke: rgb(228, 211, 84); stroke-opacity: 1; stroke-width: 2px; opacity: 1;"/></g><g class="points"/><g class="text"/></g><g class="trace scatter tracee3bf56" style="stroke-miterlimit: 2; opacity: 1;"><g class="fills"/><g class="errorbars"/><g class="lines"><path class="js-line" d="M0,26.69L6.83,26.16L13.67,23.88L34.17,21.29L41,21.02L88.83,20.12L95.67,20.79L109.33,20.01L116.17,19.99L287,20.19L293.83,20.68L314.33,20.33L321.17,20.65L341.67,20.44L348.5,20.48L355.33,20.94L362.17,20.59L423.67,20.81L430.5,20.9L806.33,23.22L813.17,23.3L1018.17,24.73L1025,29.22" style="vector-effect: none; fill: none; stroke: rgb(43, 144, 143); stroke-opacity: 1; stroke-width: 2px; opacity: 1;"/></g><g class="points"/><g class="text"/></g><g class="trace scatter tracecc89a3" style="stroke-miterlimit: 2; opacity: 1;"><g class="fills"/><g class="errorbars"/><g class="lines"><path class="js-line" d="M0,27.04L6.83,26.31L13.67,23.69L34.17,21.38L41,21.04L88.83,20.07L95.67,20.77L102.5,19.97L109.33,19.95L150.33,19.96L157.17,20.59L170.83,19.97L177.67,19.9L314.33,20.55L321.17,20.9L341.67,20.59L348.5,20.64L355.33,21.09L362.17,20.74L423.67,21.02L430.5,21.12L847.33,23.64L854.17,23.75L949.83,24.27L956.67,24.51L1018.17,24.92L1025,29.63" style="vector-effect: none; fill: none; stroke: rgb(244, 91, 91); stroke-opacity: 1; stroke-width: 2px; opacity: 1;"/></g><g class="points"/><g class="text"/></g><g class="trace scatter trace9f57e5" style="stroke-miterlimit: 2; opacity: 1;"><g class="fills"/><g class="errorbars"/><g class="lines"><path class="js-line" d="M0,26.5L6.83,26.26L13.67,23.94L34.17,21.33L41,21.07L82,20.19L88.83,20.16L95.67,20.82L102.5,20.06L150.33,20.03L157.17,20.65L170.83,20.05L177.67,19.99L287,20.21L293.83,20.69L314.33,20.35L321.17,20.67L341.67,20.44L348.5,20.49L355.33,20.95L362.17,20.6L423.67,20.82L430.5,20.9L813.17,23.28L820,23.33L970.33,24.32L977.17,24.57L1004.5,24.56L1011.33,24.72L1018.17,24.71L1025,29.21" style="vector-effect: none; fill: none; stroke: rgb(145, 232, 225); stroke-opacity: 1; stroke-width: 2px; opacity: 1;"/></g><g class="points"/><g class="text"/></g><g class="trace scatter tracea3041e" style="stroke-miterlimit: 2; opacity: 1;"><g class="fills"/><g class="errorbars"/><g class="lines"><path class="js-line" d="M0,32.6L6.83,32.37L13.67,28.79L27.33,25.09L34.17,24.04L54.67,22.47L61.5,22.33L88.83,21.46L95.67,22.09L109.33,21.21L116.17,21.21L150.33,21L157.17,21.58L170.83,20.96L177.67,20.88L348.5,21.47L355.33,21.93L375.83,21.55L382.67,21.65L560.33,22.77L567.17,23.3L580.83,22.87L587.67,22.93L758.5,24.22L765.33,24.21L902,25.32L908.83,25.33L1018.17,26.14L1025,31.13" style="vector-effect: none; fill: none; stroke: rgb(124, 181, 236); stroke-opacity: 1; stroke-width: 2px; opacity: 1;"/></g><g class="points"/><g class="text"/></g><g class="trace scatter trace743b5c" style="stroke-miterlimit: 2; opacity: 1;"><g class="fills"/><g class="errorbars"/><g class="lines"><path class="js-line" d="M0,30.77L6.83,30.69L13.67,27.54L27.33,24.34L34.17,23.44L61.5,21.95L68.33,21.67L88.83,21.18L95.67,21.79L109.33,20.94L116.17,20.97L150.33,20.79L157.17,21.36L170.83,20.75L177.67,20.68L553.5,22.42L560.33,22.49L567.17,23.03L574,22.59L751.67,23.83L758.5,23.93L847.33,24.54L854.17,24.69L949.83,25.21L956.67,25.5L1018.17,25.84L1025,30.71" style="vector-effect: none; fill: none; stroke: rgb(67, 67, 72); stroke-opacity: 1; stroke-width: 2px; opacity: 1;"/></g><g class="points"/><g class="text"/></g><g class="trace scatter trace1ab439" style="stroke-miterlimit: 2; opacity: 1;"><g class="fills"/><g class="errorbars"/><g class="lines"><path class="js-line" d="M0,30.68L6.83,29.86L13.67,27.07L27.33,24.03L34.17,23.14L61.5,21.71L68.33,21.44L88.83,20.98L95.67,21.61L109.33,20.77L116.17,20.77L150.33,20.62L157.17,21.2L170.83,20.58L177.67,20.52L560.33,22.3L567.17,22.81L580.83,22.4L587.67,22.45L703.83,23.25L710.67,23.27L758.5,23.66L765.33,23.68L1018.17,25.48L1025,30.24" style="vector-effect: none; fill: none; stroke: rgb(144, 237, 125); stroke-opacity: 1; stroke-width: 2px; opacity: 1;"/></g><g class="points"/><g class="text"/></g><g class="trace scatter trace684d76" style="stroke-miterlimit: 2; opacity: 1;"><g class="fills"/><g class="errorbars"/><g class="lines"><path class="js-line" d="M0,36.9L6.83,36.98L13.67,32.64L27.33,27.66L34.17,26.28L54.67,24.09L61.5,23.86L88.83,22.65L95.67,23.26L109.33,22.28L116.17,22.27L150.33,21.96L157.17,22.52L170.83,21.88L177.67,21.79L526.17,23.35L533,23.47L642.33,24.22L649.17,24.51L676.5,24.45L683.33,24.55L792.67,25.38L799.5,25.47L1018.17,27.11L1025,32.45" style="vector-effect: none; fill: none; stroke: rgb(247, 163, 92); stroke-opacity: 1; stroke-width: 2px; opacity: 1;"/></g><g class="points"/><g class="text"/></g><g class="trace scatter trace0ce0b7" style="stroke-miterlimit: 2; opacity: 1;"><g class="fills"/><g class="errorbars"/><g class="lines"><path class="js-line" d="M0,29.59L6.83,29.07L13.67,26.21L27.33,23.39L34.17,22.62L61.5,21.39L68.33,21.14L88.83,20.73L95.67,21.36L109.33,20.55L116.17,20.57L150.33,20.43L157.17,21.01L170.83,20.41L177.67,20.32L362.17,21.02L369,20.97L498.83,21.66L505.67,21.73L977.17,25.16L984,25.33L1004.5,25.1L1011.33,25.29L1018.17,25.26L1025,29.88" style="vector-effect: none; fill: none; stroke: rgb(128, 133, 233); stroke-opacity: 1; stroke-width: 2px; opacity: 1;"/></g><g class="points"/><g class="text"/></g><g class="trace scatter trace5e97b1" style="stroke-miterlimit: 2; opacity: 1;"><g class="fills"/><g class="errorbars"/><g class="lines"><path class="js-line" d="M0,28.63L6.83,28.15L13.67,25.6L27.33,23L34.17,22.29L68.33,20.96L75.17,20.79L88.83,20.59L95.67,21.21L109.33,20.41L116.17,20.43L150.33,20.31L157.17,20.9L170.83,20.29L177.67,20.24L560.33,22.02L567.17,22.55L580.83,22.12L587.67,22.18L738,23.25L744.83,23.23L1018.17,25.18L1025,29.77" style="vector-effect: none; fill: none; stroke: rgb(241, 92, 128); stroke-opacity: 1; stroke-width: 2px; opacity: 1;"/></g><g class="points"/><g class="text"/></g><g class="trace scatter trace328618" style="stroke-miterlimit: 2; opacity: 1;"><g class="fills"/><g class="errorbars"/><g class="lines"><path class="js-line" d="M0,31.06L6.83,30.7L13.67,27.44L27.33,24.18L34.17,23.29L54.67,21.96L61.5,21.88L88.83,21.13L95.67,21.78L109.33,20.93L116.17,20.94L150.33,20.78L157.17,21.36L170.83,20.75L177.67,20.69L560.33,22.44L567.17,22.96L580.83,22.53L587.67,22.59L738,23.67L744.83,23.65L1018.17,25.61L1025,30.4" style="vector-effect: none; fill: none; stroke: rgb(228, 211, 84); stroke-opacity: 1; stroke-width: 2px; opacity: 1;"/></g><g class="points"/><g class="text"/></g><g class="trace scatter trace9812cd" style="stroke-miterlimit: 2; opacity: 1;"><g class="fills"/><g class="errorbars"/><g class="lines"><path class="js-line" d="M0,30.45L6.83,29.96L13.67,27.01L27.33,24.01L34.17,23.15L54.67,21.8L61.5,21.72L88.83,20.99L95.67,21.61L109.33,20.77L116.17,20.78L150.33,20.63L157.17,21.21L170.83,20.58L177.67,20.53L348.5,21.09L355.33,21.53L375.83,21.14L382.67,21.23L977.17,25.3L984,25.43L1004.5,25.23L1011.33,25.42L1018.17,25.38L1025,30.15" style="vector-effect: none; fill: none; stroke: rgb(43, 144, 143); stroke-opacity: 1; stroke-width: 2px; opacity: 1;"/></g><g class="points"/><g class="text"/></g><g class="trace scatter trace2a1241" style="stroke-miterlimit: 2; opacity: 1;"><g class="fills"/><g class="errorbars"/><g class="lines"><path class="js-line" d="M0,32.8L6.83,32.68L13.67,29.16L27.33,25.39L34.17,24.31L54.67,22.67L61.5,22.51L88.83,21.61L95.67,22.23L109.33,21.33L116.17,21.34L150.33,21.11L157.17,21.68L170.83,21.06L177.67,20.99L553.5,22.7L560.33,22.77L567.17,23.29L574,22.88L642.33,23.31L649.17,23.6L669.67,23.49L676.5,23.52L779,24.33L785.83,24.34L1018.17,26.1L1025,31.07" style="vector-effect: none; fill: none; stroke: rgb(244, 91, 91); stroke-opacity: 1; stroke-width: 2px; opacity: 1;"/></g><g class="points"/><g class="text"/></g><g class="trace scatter tracea6a7fb" style="stroke-miterlimit: 2; opacity: 1;"><g class="fills"/><g class="errorbars"/><g class="lines"><path class="js-line" d="M0,37.83L6.83,37.58L13.67,33.23L27.33,28.15L34.17,26.72L54.67,24.39L61.5,24.13L88.83,22.85L95.67,23.45L109.33,22.46L116.17,22.44L150.33,22.1L157.17,22.65L170.83,22.02L177.67,21.93L348.5,22.48L355.33,22.93L375.83,22.53L382.67,22.64L806.33,25.75L813.17,25.86L970.33,27L977.17,27.35L1018.17,27.4L1025,32.85" style="vector-effect: none; fill: none; stroke: rgb(145, 232, 225); stroke-opacity: 1; stroke-width: 2px; opacity: 1;"/></g><g class="points"/><g class="text"/></g><g class="trace scatter trace1b19b8" style="stroke-miterlimit: 2; opacity: 1;"><g class="fills"/><g class="errorbars"/><g class="lines"><path class="js-line" d="M0,30.3L6.83,29.52L13.67,26.64L27.33,23.65L34.17,22.84L61.5,21.46L68.33,21.21L88.83,20.78L95.67,21.41L109.33,20.58L116.17,20.6L150.33,20.45L157.17,21.03L170.83,20.41L177.67,20.35L553.5,22.07L560.33,22.15L567.17,22.66L574,22.23L710.67,23.14L717.5,23.28L785.83,23.69L792.67,23.73L943,24.8L949.83,24.8L984,25.46L990.83,25.24L1018.17,25.38L1025,30.15" style="vector-effect: none; fill: none; stroke: rgb(124, 181, 236); stroke-opacity: 1; stroke-width: 2px; opacity: 1;"/></g><g class="points"/><g class="text"/></g><g class="trace scatter trace8ff316" style="stroke-miterlimit: 2; opacity: 1;"><g class="fills"/><g class="errorbars"/><g class="lines"><path class="js-line" d="M0,27.73L6.83,27.27L13.67,24.81L27.33,22.48L34.17,21.84L68.33,20.69L75.17,20.52L88.83,20.36L95.67,21L109.33,20.2L116.17,20.22L150.33,20.11L157.17,20.72L170.83,20.12L177.67,20.08L348.5,20.64L355.33,21.12L375.83,20.71L382.67,20.8L560.33,21.79L567.17,22.29L580.83,21.87L587.67,21.93L690.17,22.58L697,22.62L881.5,24.24L888.33,24.02L1018.17,24.94L1025,29.5" style="vector-effect: none; fill: none; stroke: rgb(67, 67, 72); stroke-opacity: 1; stroke-width: 2px; opacity: 1;"/></g><g class="points"/><g class="text"/></g><g class="trace scatter trace96e5e2" style="stroke-miterlimit: 2; opacity: 1;"><g class="fills"/><g class="errorbars"/><g class="lines"><path class="js-line" d="M0,29.62L6.83,29.14L13.67,26.28L27.33,23.48L34.17,22.69L61.5,21.42L68.33,21.19L88.83,20.77L95.67,21.38L109.33,20.58L116.17,20.59L150.33,20.45L157.17,21.04L170.83,20.43L177.67,20.37L348.5,20.96L355.33,21.4L375.83,21.03L382.67,21.1L560.33,22.15L567.17,22.68L580.83,22.26L587.67,22.31L738,23.4L744.83,23.39L1018.17,25.38L1025,30.09" style="vector-effect: none; fill: none; stroke: rgb(144, 237, 125); stroke-opacity: 1; stroke-width: 2px; opacity: 1;"/></g><g class="points"/><g class="text"/></g><g class="trace scatter trace37c9c2" style="stroke-miterlimit: 2; opacity: 1;"><g class="fills"/><g class="errorbars"/><g class="lines"><path class="js-line" d="M0,40.07L6.83,39.6L13.67,34.89L27.33,29.5L34.17,27.9L54.67,25.17L61.5,24.99L82,23.82L88.83,23.45L95.67,24.1L102.5,23.17L150.33,22.6L157.17,23.18L170.83,22.46L177.67,22.34L560.33,24.65L567.17,25.15L580.83,24.76L587.67,24.83L765.33,26.2L772.17,26.26L943,27.59L949.83,27.56L977.17,28.21L984,28.29L1004.5,28.07L1011.33,28.29L1018.17,28.26L1025,33.84" style="vector-effect: none; fill: none; stroke: rgb(247, 163, 92); stroke-opacity: 1; stroke-width: 2px; opacity: 1;"/></g><g class="points"/><g class="text"/></g></g></g></g><g class="zerolinelayer-above"/><path class="xlines-above crisp" d="M0,0" style="fill: none;"/><path class="ylines-above crisp" d="M0,0" style="fill: none;"/><g class="overlines-above"/><g class="xaxislayer-above"><g class="xtick"><text text-anchor="middle" x="0" y="451" transform="translate(189.83,0)" style="font-family: system-ui, -apple-system, 'Segoe UI', Roboto, 'Helvetica Neue', 'Noto Sans', 'Liberation Sans', Arial, sans-serif, 'Apple Color Emoji', 'Segoe UI Emoji', 'Segoe UI Symbol', 'Noto Color Emoji'; font-size: 10px; fill: rgb(80, 80, 80); fill-opacity: 1; white-space: pre;">20</text></g><g class="xtick"><text text-anchor="middle" x="0" y="451" style="font-family: system-ui, -apple-system, 'Segoe UI', Roboto, 'Helvetica Neue', 'Noto Sans', 'Liberation Sans', Arial, sans-serif, 'Apple Color Emoji', 'Segoe UI Emoji', 'Segoe UI Symbol', 'Noto Color Emoji'; font-size: 10px; fill: rgb(80, 80, 80); fill-opacity: 1; white-space: pre;" transform="translate(326.5,0)">40</text></g><g class="xtick"><text text-anchor="middle" x="0" y="451" style="font-family: system-ui, -apple-system, 'Segoe UI', Roboto, 'Helvetica Neue', 'Noto Sans', 'Liberation Sans', Arial, sans-serif, 'Apple Color Emoji', 'Segoe UI Emoji', 'Segoe UI Symbol', 'Noto Color Emoji'; font-size: 10px; fill: rgb(80, 80, 80); fill-opacity: 1; white-space: pre;" transform="translate(463.17,0)">60</text></g><g class="xtick"><text text-anchor="middle" x="0" y="451" style="font-family: system-ui, -apple-system, 'Segoe UI', Roboto, 'Helvetica Neue', 'Noto Sans', 'Liberation Sans', Arial, sans-serif, 'Apple Color Emoji', 'Segoe UI Emoji', 'Segoe UI Symbol', 'Noto Color Emoji'; font-size: 10px; fill: rgb(80, 80, 80); fill-opacity: 1; white-space: pre;" transform="translate(599.83,0)">80</text></g><g class="xtick"><text text-anchor="middle" x="0" y="451" style="font-family: system-ui, -apple-system, 'Segoe UI', Roboto, 'Helvetica Neue', 'Noto Sans', 'Liberation Sans', Arial, sans-serif, 'Apple Color Emoji', 'Segoe UI Emoji', 'Segoe UI Symbol', 'Noto Color Emoji'; font-size: 10px; fill: rgb(80, 80, 80); fill-opacity: 1; white-space: pre;" transform="translate(736.5,0)">100</text></g><g class="xtick"><text text-anchor="middle" x="0" y="451" style="font-family: system-ui, -apple-system, 'Segoe UI', Roboto, 'Helvetica Neue', 'Noto Sans', 'Liberation Sans', Arial, sans-serif, 'Apple Color Emoji', 'Segoe UI Emoji', 'Segoe UI Symbol', 'Noto Color Emoji'; font-size: 10px; fill: rgb(80, 80, 80); fill-opacity: 1; white-space: pre;" transform="translate(873.17,0)">120</text></g><g class="xtick"><text text-anchor="middle" x="0" y="451" style="font-family: system-ui, -apple-system, 'Segoe UI', Roboto, 'Helvetica Neue', 'Noto Sans', 'Liberation Sans', Arial, sans-serif, 'Apple Color Emoji', 'Segoe UI Emoji', 'Segoe UI Symbol', 'Noto Color Emoji'; font-size: 10px; fill: rgb(80, 80, 80); fill-opacity: 1; white-space: pre;" transform="translate(1009.83,0)">140</text></g></g><g class="yaxislayer-above"><g class="ytick"><text text-anchor="end" x="54" y="3.5" transform="translate(0,435)" style="font-family: system-ui, -apple-system, 'Segoe UI', Roboto, 'Helvetica Neue', 'Noto Sans', 'Liberation Sans', Arial, sans-serif, 'Apple Color Emoji', 'Segoe UI Emoji', 'Segoe UI Symbol', 'Noto Color Emoji'; font-size: 10px; fill: rgb(80, 80, 80); fill-opacity: 1; white-space: pre;">0</text></g><g class="ytick"><text text-anchor="end" x="54" y="3.5" style="font-family: system-ui, -apple-system, 'Segoe UI', Roboto, 'Helvetica Neue', 'Noto Sans', 'Liberation Sans', Arial, sans-serif, 'Apple Color Emoji', 'Segoe UI Emoji', 'Segoe UI Symbol', 'Noto Color Emoji'; font-size: 10px; fill: rgb(80, 80, 80); fill-opacity: 1; white-space: pre;" transform="translate(0,389.02)">5</text></g><g class="ytick"><text text-anchor="end" x="54" y="3.5" style="font-family: system-ui, -apple-system, 'Segoe UI', Roboto, 'Helvetica Neue', 'Noto Sans', 'Liberation Sans', Arial, sans-serif, 'Apple Color Emoji', 'Segoe UI Emoji', 'Segoe UI Symbol', 'Noto Color Emoji'; font-size: 10px; fill: rgb(80, 80, 80); fill-opacity: 1; white-space: pre;" transform="translate(0,343.03)">10</text></g><g class="ytick"><text text-anchor="end" x="54" y="3.5" style="font-family: system-ui, -apple-system, 'Segoe UI', Roboto, 'Helvetica Neue', 'Noto Sans', 'Liberation Sans', Arial, sans-serif, 'Apple Color Emoji', 'Segoe UI Emoji', 'Segoe UI Symbol', 'Noto Color Emoji'; font-size: 10px; fill: rgb(80, 80, 80); fill-opacity: 1; white-space: pre;" transform="translate(0,297.05)">15</text></g><g class="ytick"><text text-anchor="end" x="54" y="3.5" style="font-family: system-ui, -apple-system, 'Segoe UI', Roboto, 'Helvetica Neue', 'Noto Sans', 'Liberation Sans', Arial, sans-serif, 'Apple Color Emoji', 'Segoe UI Emoji', 'Segoe UI Symbol', 'Noto Color Emoji'; font-size: 10px; fill: rgb(80, 80, 80); fill-opacity: 1; white-space: pre;" transform="translate(0,251.07)">20</text></g><g class="ytick"><text text-anchor="end" x="54" y="3.5" style="font-family: system-ui, -apple-system, 'Segoe UI', Roboto, 'Helvetica Neue', 'Noto Sans', 'Liberation Sans', Arial, sans-serif, 'Apple Color Emoji', 'Segoe UI Emoji', 'Segoe UI Symbol', 'Noto Color Emoji'; font-size: 10px; fill: rgb(80, 80, 80); fill-opacity: 1; white-space: pre;" transform="translate(0,205.09)">25</text></g><g class="ytick"><text text-anchor="end" x="54" y="3.5" style="font-family: system-ui, -apple-system, 'Segoe UI', Roboto, 'Helvetica Neue', 'Noto Sans', 'Liberation Sans', Arial, sans-serif, 'Apple Color Emoji', 'Segoe UI Emoji', 'Segoe UI Symbol', 'Noto Color Emoji'; font-size: 10px; fill: rgb(80, 80, 80); fill-opacity: 1; white-space: pre;" transform="translate(0,159.1)">30</text></g><g class="ytick"><text text-anchor="end" x="54" y="3.5" style="font-family: system-ui, -apple-system, 'Segoe UI', Roboto, 'Helvetica Neue', 'Noto Sans', 'Liberation Sans', Arial, sans-serif, 'Apple Color Emoji', 'Segoe UI Emoji', 'Segoe UI Symbol', 'Noto Color Emoji'; font-size: 10px; fill: rgb(80, 80, 80); fill-opacity: 1; white-space: pre;" transform="translate(0,113.12)">35</text></g><g class="ytick"><text text-anchor="end" x="54" y="3.5" style="font-family: system-ui, -apple-system, 'Segoe UI', Roboto, 'Helvetica Neue', 'Noto Sans', 'Liberation Sans', Arial, sans-serif, 'Apple Color Emoji', 'Segoe UI Emoji', 'Segoe UI Symbol', 'Noto Color Emoji'; font-size: 10px; fill: rgb(80, 80, 80); fill-opacity: 1; white-space: pre;" transform="translate(0,67.14)">40</text></g></g><g class="overaxes-above"/></g></g><g class="polarlayer"/><g class="smithlayer"/><g class="ternarylayer"/><g class="geolayer"/><g class="funnelarealayer"/><g class="pielayer"/><g class="iciclelayer"/><g class="treemaplayer"/><g class="sunburstlayer"/><g class="glimages"/><defs id="topdefs-e19949"><g class="clips"/></defs><g class="layer-above"><g class="imagelayer"/><g class="shapelayer"/></g><g class="infolayer"><g class="g-gtitle"><text class="gtitle" x="550" y="25" text-anchor="middle" dy="0em" style="opacity: 1; font-family: system-ui, -apple-system, 'Segoe UI', Roboto, 'Helvetica Neue', 'Noto Sans', 'Liberation Sans', Arial, sans-serif, 'Apple Color Emoji', 'Segoe UI Emoji', 'Segoe UI Symbol', 'Noto Color Emoji'; font-size: 20px; fill: rgb(60, 60, 60); fill-opacity: 1; white-space: pre;"><tspan class="line" dy="0em" x="550" y="25">Fastp: Sequence Quality</tspan><tspan class="line" dy="1.3em" x="550" y="25">​<tspan style="font-size:70%" dy="-0.6em">Read 2: After filtering, 94 lines</tspan><tspan dy="0.42em">​</tspan></tspan></text></g><g class="g-xtitle"><text class="xtitle" x="572.5" y="487" text-anchor="middle" style="opacity: 1; font-family: system-ui, -apple-system, 'Segoe UI', Roboto, 'Helvetica Neue', 'Noto Sans', 'Liberation Sans', Arial, sans-serif, 'Apple Color Emoji', 'Segoe UI Emoji', 'Segoe UI Symbol', 'Noto Color Emoji'; font-size: 14px; fill: rgb(100, 100, 100); fill-opacity: 1; white-space: pre;">Read Position</text></g><g class="g-ytitle"><text class="ytitle" transform="rotate(-90,22,242.5)" x="22" y="242.5" text-anchor="middle" style="opacity: 1; font-family: system-ui, -apple-system, 'Segoe UI', Roboto, 'Helvetica Neue', 'Noto Sans', 'Liberation Sans', Arial, sans-serif, 'Apple Color Emoji', 'Segoe UI Emoji', 'Segoe UI Symbol', 'Noto Color Emoji'; font-size: 14px; fill: rgb(100, 100, 100); fill-opacity: 1; white-space: pre;">R2 After filtering: Sequence Quality</text></g></g></svg>