<svg class="main-svg" xmlns="http://www.w3.org/2000/svg" xmlns:xlink="http://www.w3.org/1999/xlink" width="2200" height="1000" style="" viewBox="0 0 1100 500"><rect x="0" y="0" width="1100" height="500" style="fill: rgb(255, 255, 255); fill-opacity: 1;"/><defs id="defs-508caf"><g class="clips"><clipPath id="clip508cafxyplot" class="plotclip"><rect width="1025" height="385"/></clipPath><clipPath class="axesclip" id="clip508cafx"><rect x="60" y="0" width="1025" height="500"/></clipPath><clipPath class="axesclip" id="clip508cafy"><rect x="0" y="50" width="1100" height="385"/></clipPath><clipPath class="axesclip" id="clip508cafxy"><rect x="60" y="50" width="1025" height="385"/></clipPath></g><g class="gradients"/><g class="patterns"/></defs><g class="bglayer"/><g class="layer-below"><g class="imagelayer"/><g class="shapelayer"/></g><g class="cartesianlayer"><g class="subplot xy"><g class="layer-subplot"><g class="shapelayer"/><g class="imagelayer"/></g><g class="minor-gridlayer"><g class="x"/><g class="y"/></g><g class="gridlayer"><g class="x"><path class="xgrid crisp" transform="translate(210.74,0)" d="M0,50v385" style="stroke: rgb(128, 128, 128); stroke-opacity: 0.15; stroke-width: 1px;"/><path class="xgrid crisp" transform="translate(361.47,0)" d="M0,50v385" style="stroke: rgb(128, 128, 128); stroke-opacity: 0.15; stroke-width: 1px;"/><path class="xgrid crisp" transform="translate(512.21,0)" d="M0,50v385" style="stroke: rgb(128, 128, 128); stroke-opacity: 0.15; stroke-width: 1px;"/><path class="xgrid crisp" transform="translate(662.94,0)" d="M0,50v385" style="stroke: rgb(128, 128, 128); stroke-opacity: 0.15; stroke-width: 1px;"/><path class="xgrid crisp" transform="translate(813.68,0)" d="M0,50v385" style="stroke: rgb(128, 128, 128); stroke-opacity: 0.15; stroke-width: 1px;"/><path class="xgrid crisp" transform="translate(964.41,0)" d="M0,50v385" style="stroke: rgb(128, 128, 128); stroke-opacity: 0.15; stroke-width: 1px;"/></g><g class="y"><path class="ygrid crisp" transform="translate(0,358)" d="M60,0h1025" style="stroke: rgb(128, 128, 128); stroke-opacity: 0.15; stroke-width: 1px;"/><path class="ygrid crisp" transform="translate(0,281)" d="M60,0h1025" style="stroke: rgb(128, 128, 128); stroke-opacity: 0.15; stroke-width: 1px;"/><path class="ygrid crisp" transform="translate(0,204)" d="M60,0h1025" style="stroke: rgb(128, 128, 128); stroke-opacity: 0.15; stroke-width: 1px;"/><path class="ygrid crisp" transform="translate(0,127)" d="M60,0h1025" style="stroke: rgb(128, 128, 128); stroke-opacity: 0.15; stroke-width: 1px;"/></g></g><g class="zerolinelayer"><path class="xzl zl crisp" transform="translate(60,0)" d="M0,50v385" style="stroke: rgb(128, 128, 128); stroke-opacity: 0.2; stroke-width: 1px;"/><path class="yzl zl crisp" transform="translate(0,435)" d="M60,0h1025" style="stroke: rgb(128, 128, 128); stroke-opacity: 0.2; stroke-width: 1px;"/></g><g class="layer-between"><g class="shapelayer"/><g class="imagelayer"/></g><path class="xlines-below"/><path class="ylines-below"/><g class="overlines-below"/><g class="xaxislayer-below"/><g class="yaxislayer-below"/><g class="overaxes-below"/><g class="overplot"><g class="xy" transform="translate(60,50)" clip-path="url(#clip508cafxyplot)"><g class="scatterlayer mlayer"><g class="trace scatter tracef60f55" style="stroke-miterlimit: 2; opacity: 1;"><g class="fills"/><g class="errorbars"/><g class="lines"><path class="js-line" d="M0,0L7.54,7.7L15.07,11.55L30.15,19.25L37.68,26.95L45.22,38.5L52.76,53.9L60.29,77L67.83,111.65L75.37,146.3L82.9,184.8L97.98,257.95L105.51,288.75L113.05,311.85L120.59,331.1L128.13,346.5L135.66,358.05L143.2,365.75L150.74,369.6L165.81,377.3L173.35,377.3L180.88,377.3L188.42,381.15L248.71,381.15" style="vector-effect: none; fill: none; stroke: rgb(124, 181, 236); stroke-opacity: 1; stroke-width: 2px; opacity: 1;"/></g><g class="points"/><g class="text"/></g><g class="trace scatter tracee11633" style="stroke-miterlimit: 2; opacity: 1;"><g class="fills"/><g class="errorbars"/><g class="lines"><path class="js-line" d="M0,0L22.61,23.1L30.15,34.65L37.68,57.75L45.22,88.55L60.29,177.1L67.83,223.3L82.9,296.45L90.44,323.4L97.98,342.65L105.51,358.05L120.59,373.45L128.13,373.45L143.2,381.15L150.74,381.15L188.42,381.15" style="vector-effect: none; fill: none; stroke: rgb(67, 67, 72); stroke-opacity: 1; stroke-width: 2px; opacity: 1;"/></g><g class="points"/><g class="text"/></g><g class="trace scatter trace30f452" style="stroke-miterlimit: 2; opacity: 1;"><g class="fills"/><g class="errorbars"/><g class="lines"><path class="js-line" d="M0,0L7.54,7.7L15.07,11.55L22.61,15.4L30.15,23.1L37.68,30.8L45.22,50.05L52.76,73.15L60.29,103.95L90.44,261.8L97.98,292.6L105.51,319.55L113.05,338.8L128.13,361.9L135.66,365.75L143.2,373.45L150.74,373.45L158.27,377.3L165.81,377.3L173.35,381.15L180.88,381.15L233.64,381.15" style="vector-effect: none; fill: none; stroke: rgb(144, 237, 125); stroke-opacity: 1; stroke-width: 2px; opacity: 1;"/></g><g class="points"/><g class="text"/></g><g class="trace scatter trace3a9295" style="stroke-miterlimit: 2; opacity: 1;"><g class="fills"/><g class="errorbars"/><g class="lines"><path class="js-line" d="M0,0L7.54,11.55L15.07,15.4L22.61,26.95L30.15,42.35L37.68,65.45L45.22,100.1L75.37,265.65L82.9,296.45L90.44,319.55L97.98,338.8L105.51,354.2L113.05,361.9L120.59,369.6L128.13,373.45L135.66,377.3L143.2,377.3L150.74,381.15L158.27,381.15L195.96,381.15" style="vector-effect: none; fill: none; stroke: rgb(247, 163, 92); stroke-opacity: 1; stroke-width: 2px; opacity: 1;"/></g><g class="points"/><g class="text"/></g><g class="trace scatter trace11a838" style="stroke-miterlimit: 2; opacity: 1;"><g class="fills"/><g class="errorbars"/><g class="lines"><path class="js-line" d="M0,0L22.61,11.55L30.15,19.25L37.68,26.95L45.22,42.35L52.76,61.6L60.29,88.55L67.83,119.35L75.37,154L90.44,227.15L97.98,261.8L105.51,288.75L113.05,311.85L120.59,331.1L128.13,346.5L143.2,361.9L150.74,365.75L165.81,373.45L173.35,373.45L180.88,377.3L188.42,377.3L203.49,377.3L211.03,381.15L293.93,381.15" style="vector-effect: none; fill: none; stroke: rgb(128, 133, 233); stroke-opacity: 1; stroke-width: 2px; opacity: 1;"/></g><g class="points"/><g class="text"/></g><g class="trace scatter trace4c1afe" style="stroke-miterlimit: 2; opacity: 1;"><g class="fills"/><g class="errorbars"/><g class="lines"><path class="js-line" d="M0,0L37.68,19.25L45.22,26.95L52.76,38.5L60.29,53.9L75.37,100.1L82.9,127.05L90.44,157.85L97.98,192.5L105.51,223.3L113.05,250.25L120.59,277.2L128.13,300.3L135.66,319.55L143.2,334.95L150.74,346.5L158.27,354.2L165.81,361.9L173.35,365.75L180.88,369.6L188.42,369.6L195.96,373.45L203.49,373.45L211.03,377.3L218.57,377.3L241.18,377.3L248.71,381.15L354.23,381.15" style="vector-effect: none; fill: none; stroke: rgb(241, 92, 128); stroke-opacity: 1; stroke-width: 2px; opacity: 1;"/></g><g class="points"/><g class="text"/></g><g class="trace scatter tracee41ca2" style="stroke-miterlimit: 2; opacity: 1;"><g class="fills"/><g class="errorbars"/><g class="lines"><path class="js-line" d="M0,0L7.54,7.7L15.07,11.55L22.61,15.4L30.15,26.95L37.68,38.5L45.22,61.6L52.76,92.4L60.29,127.05L90.44,277.2L97.98,304.15L113.05,342.65L120.59,354.2L128.13,361.9L135.66,365.75L143.2,373.45L150.74,373.45L158.27,377.3L165.81,377.3L173.35,381.15L180.88,381.15L233.64,381.15" style="vector-effect: none; fill: none; stroke: rgb(228, 211, 84); stroke-opacity: 1; stroke-width: 2px; opacity: 1;"/></g><g class="points"/><g class="text"/></g><g class="trace scatter trace895481" style="stroke-miterlimit: 2; opacity: 1;"><g class="fills"/><g class="errorbars"/><g class="lines"><path class="js-line" d="M0,0L7.54,7.7L15.07,11.55L30.15,19.25L37.68,30.8L45.22,42.35L52.76,65.45L60.29,92.4L67.83,123.2L90.44,234.85L97.98,265.65L105.51,296.45L113.05,315.7L120.59,334.95L128.13,346.5L135.66,358.05L143.2,365.75L165.81,377.3L173.35,377.3L180.88,377.3L188.42,381.15L248.71,381.15" style="vector-effect: none; fill: none; stroke: rgb(43, 144, 143); stroke-opacity: 1; stroke-width: 2px; opacity: 1;"/></g><g class="points"/><g class="text"/></g><g class="trace scatter trace8cb205" style="stroke-miterlimit: 2; opacity: 1;"><g class="fills"/><g class="errorbars"/><g class="lines"><path class="js-line" d="M0,0L22.61,11.55L30.15,19.25L37.68,26.95L45.22,42.35L52.76,61.6L60.29,88.55L67.83,119.35L75.37,154L97.98,257.95L105.51,284.9L113.05,308L120.59,327.25L135.66,350.35L143.2,358.05L150.74,365.75L158.27,369.6L165.81,369.6L173.35,373.45L180.88,373.45L188.42,377.3L211.03,377.3L218.57,381.15L324.08,381.15" style="vector-effect: none; fill: none; stroke: rgb(244, 91, 91); stroke-opacity: 1; stroke-width: 2px; opacity: 1;"/></g><g class="points"/><g class="text"/></g><g class="trace scatter trace9108fa" style="stroke-miterlimit: 2; opacity: 1;"><g class="fills"/><g class="errorbars"/><g class="lines"><path class="js-line" d="M0,0L7.54,7.7L15.07,11.55L30.15,26.95L37.68,42.35L45.22,65.45L52.76,96.25L82.9,250.25L90.44,281.05L97.98,308L105.51,327.25L113.05,342.65L120.59,354.2L135.66,369.6L143.2,373.45L150.74,373.45L158.27,377.3L165.81,377.3L173.35,381.15L233.64,381.15" style="vector-effect: none; fill: none; stroke: rgb(145, 232, 225); stroke-opacity: 1; stroke-width: 2px; opacity: 1;"/></g><g class="points"/><g class="text"/></g><g class="trace scatter trace270ed4" style="stroke-miterlimit: 2; opacity: 1;"><g class="fills"/><g class="errorbars"/><g class="lines"><path class="js-line" d="M0,0L15.07,23.1L22.61,46.2L30.15,80.85L37.68,127.05L52.76,231L60.29,273.35L67.83,308L75.37,331.1L82.9,350.35L90.44,361.9L97.98,369.6L105.51,373.45L113.05,377.3L120.59,377.3L128.13,381.15L135.66,381.15L165.81,381.15" style="vector-effect: none; fill: none; stroke: rgb(124, 181, 236); stroke-opacity: 1; stroke-width: 2px; opacity: 1;"/></g><g class="points"/><g class="text"/></g><g class="trace scatter traceb37a8b" style="stroke-miterlimit: 2; opacity: 1;"><g class="fills"/><g class="errorbars"/><g class="lines"><path class="js-line" d="M0,0L15.07,15.4L22.61,19.25L30.15,30.8L37.68,50.05L45.22,77L52.76,111.65L75.37,234.85L82.9,273.35L90.44,300.3L97.98,323.4L105.51,342.65L113.05,354.2L128.13,369.6L135.66,373.45L143.2,377.3L150.74,377.3L158.27,377.3L165.81,381.15L218.57,381.15" style="vector-effect: none; fill: none; stroke: rgb(67, 67, 72); stroke-opacity: 1; stroke-width: 2px; opacity: 1;"/></g><g class="points"/><g class="text"/></g><g class="trace scatter tracefbf58d" style="stroke-miterlimit: 2; opacity: 1;"><g class="fills"/><g class="errorbars"/><g class="lines"><path class="js-line" d="M0,0L7.54,7.7L15.07,11.55L30.15,19.25L37.68,30.8L45.22,42.35L52.76,65.45L60.29,92.4L67.83,127.05L90.44,242.55L97.98,277.2L105.51,304.15L113.05,327.25L120.59,342.65L128.13,354.2L143.2,369.6L150.74,373.45L158.27,373.45L165.81,377.3L180.88,377.3L188.42,381.15L248.71,381.15" style="vector-effect: none; fill: none; stroke: rgb(144, 237, 125); stroke-opacity: 1; stroke-width: 2px; opacity: 1;"/></g><g class="points"/><g class="text"/></g><g class="trace scatter tracea674a4" style="stroke-miterlimit: 2; opacity: 1;"><g class="fills"/><g class="errorbars"/><g class="lines"><path class="js-line" d="M0,0L7.54,7.7L15.07,11.55L30.15,26.95L37.68,42.35L45.22,65.45L52.76,96.25L67.83,177.1L75.37,219.45L90.44,292.6L97.98,315.7L105.51,338.8L113.05,350.35L120.59,361.9L128.13,369.6L143.2,377.3L150.74,377.3L158.27,377.3L165.81,381.15L211.03,381.15" style="vector-effect: none; fill: none; stroke: rgb(247, 163, 92); stroke-opacity: 1; stroke-width: 2px; opacity: 1;"/></g><g class="points"/><g class="text"/></g><g class="trace scatter tracec9972d" style="stroke-miterlimit: 2; opacity: 1;"><g class="fills"/><g class="errorbars"/><g class="lines"><path class="js-line" d="M0,0L30.15,15.4L37.68,23.1L45.22,34.65L52.76,50.05L60.29,69.3L67.83,96.25L75.37,123.2L82.9,157.85L90.44,188.65L97.98,223.3L105.51,254.1L113.05,281.05L120.59,304.15L128.13,319.55L135.66,334.95L143.2,346.5L158.27,361.9L165.81,365.75L173.35,369.6L180.88,369.6L188.42,373.45L195.96,373.45L203.49,377.3L211.03,377.3L233.64,377.3L241.18,381.15L339.15,381.15" style="vector-effect: none; fill: none; stroke: rgb(128, 133, 233); stroke-opacity: 1; stroke-width: 2px; opacity: 1;"/></g><g class="points"/><g class="text"/></g><g class="trace scatter tracee51cb6" style="stroke-miterlimit: 2; opacity: 1;"><g class="fills"/><g class="errorbars"/><g class="lines"><path class="js-line" d="M0,0L7.54,11.55L15.07,15.4L22.61,23.1L30.15,38.5L37.68,65.45L45.22,100.1L75.37,281.05L82.9,311.85L90.44,334.95L97.98,350.35L105.51,361.9L113.05,369.6L128.13,377.3L135.66,377.3L143.2,381.15L150.74,381.15L188.42,381.15" style="vector-effect: none; fill: none; stroke: rgb(241, 92, 128); stroke-opacity: 1; stroke-width: 2px; opacity: 1;"/></g><g class="points"/><g class="text"/></g><g class="trace scatter tracec5ea9b" style="stroke-miterlimit: 2; opacity: 1;"><g class="fills"/><g class="errorbars"/><g class="lines"><path class="js-line" d="M0,0L7.54,7.7L15.07,11.55L22.61,23.1L30.15,38.5L37.68,61.6L45.22,96.25L75.37,265.65L82.9,296.45L90.44,323.4L97.98,342.65L105.51,354.2L113.05,361.9L120.59,369.6L128.13,373.45L135.66,373.45L143.2,377.3L158.27,377.3L165.81,381.15L233.64,381.15" style="vector-effect: none; fill: none; stroke: rgb(228, 211, 84); stroke-opacity: 1; stroke-width: 2px; opacity: 1;"/></g><g class="points"/><g class="text"/></g><g class="trace scatter tracebbd0dc" style="stroke-miterlimit: 2; opacity: 1;"><g class="fills"/><g class="errorbars"/><g class="lines"><path class="js-line" d="M0,0L22.61,23.1L30.15,42.35L37.68,69.3L45.22,107.8L52.76,150.15L60.29,200.2L67.83,246.4L75.37,284.9L82.9,315.7L90.44,338.8L97.98,354.2L105.51,365.75L128.13,377.3L135.66,377.3L143.2,381.15L150.74,381.15L188.42,381.15" style="vector-effect: none; fill: none; stroke: rgb(43, 144, 143); stroke-opacity: 1; stroke-width: 2px; opacity: 1;"/></g><g class="points"/><g class="text"/></g><g class="trace scatter trace86ba5a" style="stroke-miterlimit: 2; opacity: 1;"><g class="fills"/><g class="errorbars"/><g class="lines"><path class="js-line" d="M0,0L7.54,7.7L15.07,11.55L22.61,19.25L30.15,30.8L37.68,53.9L45.22,80.85L52.76,115.5L60.29,154L75.37,238.7L82.9,273.35L90.44,304.15L97.98,327.25L105.51,342.65L113.05,354.2L128.13,369.6L135.66,369.6L150.74,377.3L158.27,377.3L173.35,377.3L180.88,381.15L256.25,381.15" style="vector-effect: none; fill: none; stroke: rgb(244, 91, 91); stroke-opacity: 1; stroke-width: 2px; opacity: 1;"/></g><g class="points"/><g class="text"/></g><g class="trace scatter tracebc5123" style="stroke-miterlimit: 2; opacity: 1;"><g class="fills"/><g class="errorbars"/><g class="lines"><path class="js-line" d="M0,0L7.54,7.7L15.07,11.55L22.61,15.4L30.15,26.95L37.68,42.35L45.22,61.6L52.76,92.4L60.29,130.9L82.9,250.25L90.44,281.05L97.98,308L105.51,331.1L113.05,346.5L120.59,358.05L128.13,365.75L135.66,369.6L150.74,377.3L158.27,377.3L165.81,377.3L173.35,381.15L233.64,381.15" style="vector-effect: none; fill: none; stroke: rgb(145, 232, 225); stroke-opacity: 1; stroke-width: 2px; opacity: 1;"/></g><g class="points"/><g class="text"/></g><g class="trace scatter trace4b14ed" style="stroke-miterlimit: 2; opacity: 1;"><g class="fills"/><g class="errorbars"/><g class="lines"><path class="js-line" d="M0,0L22.61,11.55L30.15,19.25L37.68,26.95L45.22,42.35L52.76,61.6L60.29,84.7L75.37,146.3L82.9,184.8L90.44,219.45L97.98,250.25L105.51,281.05L113.05,304.15L120.59,323.4L128.13,338.8L135.66,350.35L143.2,358.05L150.74,365.75L158.27,369.6L165.81,369.6L173.35,373.45L180.88,373.45L188.42,377.3L211.03,377.3L218.57,381.15L301.47,381.15" style="vector-effect: none; fill: none; stroke: rgb(124, 181, 236); stroke-opacity: 1; stroke-width: 2px; opacity: 1;"/></g><g class="points"/><g class="text"/></g><g class="trace scatter traceb7d56b" style="stroke-miterlimit: 2; opacity: 1;"><g class="fills"/><g class="errorbars"/><g class="lines"><path class="js-line" d="M0,0L7.54,80.85L15.07,188.65L22.61,284.9L30.15,338.8L37.68,365.75L45.22,377.3L52.76,381.15L60.29,381.15" style="vector-effect: none; fill: none; stroke: rgb(67, 67, 72); stroke-opacity: 1; stroke-width: 2px; opacity: 1;"/></g><g class="points"/><g class="text"/></g><g class="trace scatter trace152d63" style="stroke-miterlimit: 2; opacity: 1;"><g class="fills"/><g class="errorbars"/><g class="lines"><path class="js-line" d="M0,0L7.54,7.7L15.07,11.55L22.61,15.4L30.15,23.1L37.68,34.65L45.22,50.05L52.76,73.15L60.29,107.8L67.83,142.45L75.37,180.95L82.9,223.3L90.44,257.95L97.98,288.75L105.51,315.7L113.05,334.95L120.59,350.35L135.66,365.75L143.2,369.6L158.27,377.3L165.81,377.3L173.35,377.3L180.88,381.15L233.64,381.15" style="vector-effect: none; fill: none; stroke: rgb(144, 237, 125); stroke-opacity: 1; stroke-width: 2px; opacity: 1;"/></g><g class="points"/><g class="text"/></g><g class="trace scatter trace24fdd9" style="stroke-miterlimit: 2; opacity: 1;"><g class="fills"/><g class="errorbars"/><g class="lines"><path class="js-line" d="M0,0L7.54,11.55L15.07,15.4L22.61,23.1L30.15,34.65L37.68,57.75L45.22,88.55L52.76,123.2L60.29,165.55L75.37,250.25L82.9,281.05L90.44,311.85L97.98,331.1L105.51,346.5L113.05,358.05L120.59,365.75L128.13,369.6L143.2,377.3L150.74,377.3L158.27,381.15L165.81,381.15L211.03,381.15" style="vector-effect: none; fill: none; stroke: rgb(247, 163, 92); stroke-opacity: 1; stroke-width: 2px; opacity: 1;"/></g><g class="points"/><g class="text"/></g><g class="trace scatter trace7d712b" style="stroke-miterlimit: 2; opacity: 1;"><g class="fills"/><g class="errorbars"/><g class="lines"><path class="js-line" d="M0,0L7.54,7.7L15.07,11.55L22.61,23.1L30.15,42.35L37.68,65.45L45.22,100.1L75.37,265.65L82.9,300.3L90.44,323.4L97.98,342.65L105.51,354.2L113.05,361.9L120.59,369.6L128.13,373.45L135.66,373.45L143.2,377.3L165.81,377.3L173.35,381.15L241.18,381.15" style="vector-effect: none; fill: none; stroke: rgb(128, 133, 233); stroke-opacity: 1; stroke-width: 2px; opacity: 1;"/></g><g class="points"/><g class="text"/></g><g class="trace scatter trace26b928" style="stroke-miterlimit: 2; opacity: 1;"><g class="fills"/><g class="errorbars"/><g class="lines"><path class="js-line" d="M0,0L7.54,7.7L15.07,11.55L22.61,19.25L30.15,34.65L37.68,61.6L45.22,92.4L60.29,173.25L67.83,219.45L82.9,292.6L90.44,319.55L97.98,338.8L105.51,350.35L113.05,361.9L120.59,365.75L143.2,377.3L150.74,377.3L158.27,377.3L165.81,381.15L233.64,381.15" style="vector-effect: none; fill: none; stroke: rgb(241, 92, 128); stroke-opacity: 1; stroke-width: 2px; opacity: 1;"/></g><g class="points"/><g class="text"/></g><g class="trace scatter traceac1ad4" style="stroke-miterlimit: 2; opacity: 1;"><g class="fills"/><g class="errorbars"/><g class="lines"><path class="js-line" d="M0,0L30.15,15.4L37.68,23.1L45.22,34.65L52.76,50.05L60.29,69.3L67.83,96.25L75.37,123.2L82.9,157.85L97.98,231L105.51,261.8L113.05,288.75L120.59,311.85L128.13,331.1L135.66,342.65L143.2,354.2L150.74,361.9L165.81,369.6L173.35,369.6L180.88,373.45L188.42,373.45L195.96,377.3L203.49,377.3L226.1,377.3L233.64,381.15L324.08,381.15" style="vector-effect: none; fill: none; stroke: rgb(228, 211, 84); stroke-opacity: 1; stroke-width: 2px; opacity: 1;"/></g><g class="points"/><g class="text"/></g><g class="trace scatter trace82c078" style="stroke-miterlimit: 2; opacity: 1;"><g class="fills"/><g class="errorbars"/><g class="lines"><path class="js-line" d="M0,0L7.54,7.7L15.07,11.55L22.61,11.55L30.15,15.4L37.68,19.25L45.22,30.8L52.76,42.35L60.29,57.75L67.83,80.85L75.37,111.65L82.9,142.45L90.44,177.1L105.51,246.4L113.05,273.35L120.59,300.3L128.13,319.55L135.66,334.95L143.2,346.5L150.74,358.05L158.27,361.9L165.81,369.6L173.35,373.45L180.88,373.45L188.42,377.3L203.49,377.3L211.03,381.15L271.32,381.15" style="vector-effect: none; fill: none; stroke: rgb(43, 144, 143); stroke-opacity: 1; stroke-width: 2px; opacity: 1;"/></g><g class="points"/><g class="text"/></g><g class="trace scatter trace94c539" style="stroke-miterlimit: 2; opacity: 1;"><g class="fills"/><g class="errorbars"/><g class="lines"><path class="js-line" d="M0,0L7.54,7.7L15.07,11.55L30.15,26.95L37.68,42.35L45.22,61.6L52.76,92.4L60.29,127.05L67.83,169.4L90.44,281.05L97.98,308L105.51,331.1L113.05,346.5L120.59,358.05L128.13,365.75L150.74,377.3L158.27,377.3L165.81,377.3L173.35,381.15L226.1,381.15" style="vector-effect: none; fill: none; stroke: rgb(244, 91, 91); stroke-opacity: 1; stroke-width: 2px; opacity: 1;"/></g><g class="points"/><g class="text"/></g><g class="trace scatter tracea25088" style="stroke-miterlimit: 2; opacity: 1;"><g class="fills"/><g class="errorbars"/><g class="lines"><path class="js-line" d="M0,0L7.54,7.7L15.07,11.55L37.68,23.1L45.22,34.65L52.76,46.2L60.29,69.3L67.83,96.25L75.37,130.9L82.9,165.55L90.44,204.05L97.98,242.55L105.51,273.35L113.05,300.3L120.59,323.4L135.66,354.2L143.2,361.9L150.74,365.75L158.27,373.45L165.81,373.45L173.35,377.3L188.42,377.3L195.96,381.15L248.71,381.15" style="vector-effect: none; fill: none; stroke: rgb(145, 232, 225); stroke-opacity: 1; stroke-width: 2px; opacity: 1;"/></g><g class="points"/><g class="text"/></g><g class="trace scatter trace882dfc" style="stroke-miterlimit: 2; opacity: 1;"><g class="fills"/><g class="errorbars"/><g class="lines"><path class="js-line" d="M0,0L15.07,7.7L22.61,15.4L30.15,23.1L37.68,34.65L45.22,53.9L52.76,80.85L60.29,111.65L67.83,146.3L82.9,227.15L90.44,261.8L97.98,292.6L105.51,315.7L113.05,334.95L120.59,346.5L128.13,358.05L135.66,361.9L143.2,369.6L150.74,369.6L158.27,373.45L165.81,373.45L173.35,377.3L180.88,377.3L195.96,377.3L203.49,381.15L286.4,381.15" style="vector-effect: none; fill: none; stroke: rgb(124, 181, 236); stroke-opacity: 1; stroke-width: 2px; opacity: 1;"/></g><g class="points"/><g class="text"/></g><g class="trace scatter trace13b815" style="stroke-miterlimit: 2; opacity: 1;"><g class="fills"/><g class="errorbars"/><g class="lines"><path class="js-line" d="M0,0L7.54,7.7L15.07,11.55L22.61,15.4L30.15,23.1L37.68,34.65L45.22,50.05L52.76,77L60.29,107.8L90.44,261.8L97.98,296.45L105.51,319.55L113.05,338.8L128.13,361.9L135.66,369.6L143.2,373.45L150.74,373.45L158.27,377.3L165.81,377.3L173.35,381.15L180.88,381.15L226.1,381.15" style="vector-effect: none; fill: none; stroke: rgb(67, 67, 72); stroke-opacity: 1; stroke-width: 2px; opacity: 1;"/></g><g class="points"/><g class="text"/></g><g class="trace scatter tracee3af44" style="stroke-miterlimit: 2; opacity: 1;"><g class="fills"/><g class="errorbars"/><g class="lines"><path class="js-line" d="M0,0L7.54,7.7L15.07,11.55L30.15,19.25L37.68,26.95L45.22,34.65L52.76,50.05L60.29,73.15L67.83,100.1L82.9,161.7L90.44,196.35L97.98,231L105.51,257.95L113.05,284.9L120.59,308L135.66,338.8L143.2,350.35L150.74,358.05L158.27,361.9L165.81,369.6L173.35,369.6L188.42,377.3L195.96,377.3L203.49,377.3L211.03,381.15L286.4,381.15" style="vector-effect: none; fill: none; stroke: rgb(144, 237, 125); stroke-opacity: 1; stroke-width: 2px; opacity: 1;"/></g><g class="points"/><g class="text"/></g><g class="trace scatter tracee603da" style="stroke-miterlimit: 2; opacity: 1;"><g class="fills"/><g class="errorbars"/><g class="lines"><path class="js-line" d="M0,0L7.54,7.7L15.07,11.55L30.15,26.95L37.68,42.35L45.22,69.3L52.76,103.95L60.29,142.45L67.83,188.65L82.9,269.5L90.44,300.3L97.98,327.25L105.51,342.65L113.05,358.05L120.59,365.75L143.2,377.3L150.74,377.3L158.27,381.15L165.81,381.15L211.03,381.15" style="vector-effect: none; fill: none; stroke: rgb(247, 163, 92); stroke-opacity: 1; stroke-width: 2px; opacity: 1;"/></g><g class="points"/><g class="text"/></g><g class="trace scatter trace7b3149" style="stroke-miterlimit: 2; opacity: 1;"><g class="fills"/><g class="errorbars"/><g class="lines"><path class="js-line" d="M0,0L22.61,23.1L30.15,38.5L37.68,61.6L45.22,96.25L75.37,269.5L82.9,300.3L90.44,327.25L97.98,346.5L105.51,358.05L113.05,365.75L135.66,377.3L143.2,377.3L150.74,381.15L158.27,381.15L195.96,381.15" style="vector-effect: none; fill: none; stroke: rgb(128, 133, 233); stroke-opacity: 1; stroke-width: 2px; opacity: 1;"/></g><g class="points"/><g class="text"/></g><g class="trace scatter trace65673b" style="stroke-miterlimit: 2; opacity: 1;"><g class="fills"/><g class="errorbars"/><g class="lines"><path class="js-line" d="M0,0L7.54,69.3L15.07,173.25L22.61,265.65L30.15,327.25L37.68,361.9L45.22,373.45L52.76,381.15L60.29,381.15" style="vector-effect: none; fill: none; stroke: rgb(241, 92, 128); stroke-opacity: 1; stroke-width: 2px; opacity: 1;"/></g><g class="points"/><g class="text"/></g><g class="trace scatter trace1acba3" style="stroke-miterlimit: 2; opacity: 1;"><g class="fills"/><g class="errorbars"/><g class="lines"><path class="js-line" d="M0,0L15.07,7.7L22.61,7.7L30.15,7.7L37.68,11.55L60.29,23.1L67.83,30.8L75.37,38.5L82.9,50.05L90.44,61.6L97.98,77L113.05,115.5L120.59,142.45L150.74,250.25L158.27,273.35L173.35,311.85L180.88,327.25L188.42,338.8L195.96,346.5L203.49,354.2L211.03,358.05L226.1,365.75L233.64,365.75L241.18,369.6L248.71,369.6L256.25,373.45L263.79,373.45L286.4,373.45L293.93,377.3L346.69,377.3L354.23,381.15L497.43,381.15" style="vector-effect: none; fill: none; stroke: rgb(228, 211, 84); stroke-opacity: 1; stroke-width: 2px; opacity: 1;"/></g><g class="points"/><g class="text"/></g><g class="trace scatter traceb2e60f" style="stroke-miterlimit: 2; opacity: 1;"><g class="fills"/><g class="errorbars"/><g class="lines"><path class="js-line" d="M0,0L7.54,7.7L15.07,11.55L22.61,11.55L30.15,15.4L37.68,19.25L45.22,26.95L52.76,38.5L60.29,53.9L67.83,69.3L75.37,92.4L82.9,119.35L90.44,150.15L113.05,242.55L120.59,265.65L128.13,288.75L135.66,308L150.74,338.8L158.27,346.5L165.81,358.05L173.35,361.9L195.96,373.45L203.49,373.45L211.03,377.3L218.57,377.3L226.1,377.3L233.64,381.15L301.47,381.15" style="vector-effect: none; fill: none; stroke: rgb(43, 144, 143); stroke-opacity: 1; stroke-width: 2px; opacity: 1;"/></g><g class="points"/><g class="text"/></g><g class="trace scatter trace02011f" style="stroke-miterlimit: 2; opacity: 1;"><g class="fills"/><g class="errorbars"/><g class="lines"><path class="js-line" d="M0,0L7.54,7.7L15.07,11.55L22.61,11.55L30.15,15.4L45.22,30.8L52.76,42.35L60.29,61.6L67.83,84.7L75.37,111.65L82.9,142.45L90.44,177.1L97.98,207.9L105.51,238.7L113.05,265.65L120.59,292.6L128.13,311.85L143.2,342.65L150.74,350.35L165.81,365.75L173.35,369.6L180.88,373.45L188.42,373.45L195.96,377.3L203.49,377.3L211.03,377.3L218.57,381.15L286.4,381.15" style="vector-effect: none; fill: none; stroke: rgb(244, 91, 91); stroke-opacity: 1; stroke-width: 2px; opacity: 1;"/></g><g class="points"/><g class="text"/></g><g class="trace scatter traceecd1f6" style="stroke-miterlimit: 2; opacity: 1;"><g class="fills"/><g class="errorbars"/><g class="lines"><path class="js-line" d="M0,0L7.54,7.7L15.07,11.55L22.61,23.1L30.15,38.5L37.68,61.6L45.22,92.4L60.29,173.25L67.83,215.6L82.9,288.75L90.44,315.7L97.98,334.95L105.51,350.35L120.59,365.75L128.13,369.6L135.66,373.45L143.2,373.45L150.74,377.3L158.27,377.3L173.35,377.3L180.88,381.15L248.71,381.15" style="vector-effect: none; fill: none; stroke: rgb(145, 232, 225); stroke-opacity: 1; stroke-width: 2px; opacity: 1;"/></g><g class="points"/><g class="text"/></g><g class="trace scatter trace151f42" style="stroke-miterlimit: 2; opacity: 1;"><g class="fills"/><g class="errorbars"/><g class="lines"><path class="js-line" d="M0,0L7.54,7.7L15.07,11.55L22.61,23.1L30.15,42.35L37.68,69.3L45.22,103.95L75.37,277.2L82.9,308L90.44,331.1L97.98,346.5L105.51,358.05L113.05,365.75L135.66,377.3L143.2,377.3L158.27,377.3L165.81,381.15L218.57,381.15" style="vector-effect: none; fill: none; stroke: rgb(124, 181, 236); stroke-opacity: 1; stroke-width: 2px; opacity: 1;"/></g><g class="points"/><g class="text"/></g><g class="trace scatter traced73d40" style="stroke-miterlimit: 2; opacity: 1;"><g class="fills"/><g class="errorbars"/><g class="lines"><path class="js-line" d="M0,0L7.54,7.7L15.07,7.7L30.15,23.1L37.68,34.65L45.22,53.9L52.76,80.85L60.29,111.65L67.83,146.3L90.44,257.95L97.98,288.75L105.51,315.7L113.05,331.1L120.59,346.5L128.13,358.05L135.66,361.9L143.2,369.6L150.74,369.6L158.27,373.45L165.81,373.45L173.35,377.3L195.96,377.3L203.49,381.15L278.86,381.15" style="vector-effect: none; fill: none; stroke: rgb(67, 67, 72); stroke-opacity: 1; stroke-width: 2px; opacity: 1;"/></g><g class="points"/><g class="text"/></g><g class="trace scatter trace2fda1f" style="stroke-miterlimit: 2; opacity: 1;"><g class="fills"/><g class="errorbars"/><g class="lines"><path class="js-line" d="M0,0L7.54,7.7L15.07,11.55L22.61,15.4L30.15,23.1L37.68,30.8L45.22,50.05L52.76,73.15L60.29,103.95L90.44,261.8L97.98,292.6L105.51,319.55L113.05,338.8L128.13,361.9L135.66,369.6L143.2,373.45L150.74,373.45L158.27,377.3L165.81,377.3L173.35,381.15L180.88,381.15L226.1,381.15" style="vector-effect: none; fill: none; stroke: rgb(144, 237, 125); stroke-opacity: 1; stroke-width: 2px; opacity: 1;"/></g><g class="points"/><g class="text"/></g><g class="trace scatter traceeb32ae" style="stroke-miterlimit: 2; opacity: 1;"><g class="fills"/><g class="errorbars"/><g class="lines"><path class="js-line" d="M0,0L30.15,15.4L37.68,23.1L45.22,30.8L52.76,46.2L60.29,65.45L67.83,88.55L75.37,115.5L82.9,146.3L97.98,207.9L105.51,242.55L113.05,269.5L120.59,292.6L135.66,331.1L143.2,342.65L165.81,365.75L173.35,369.6L180.88,369.6L188.42,373.45L195.96,373.45L203.49,377.3L233.64,377.3L241.18,381.15L339.15,381.15" style="vector-effect: none; fill: none; stroke: rgb(247, 163, 92); stroke-opacity: 1; stroke-width: 2px; opacity: 1;"/></g><g class="points"/><g class="text"/></g><g class="trace scatter trace6520c4" style="stroke-miterlimit: 2; opacity: 1;"><g class="fills"/><g class="errorbars"/><g class="lines"><path class="js-line" d="M0,0L7.54,7.7L15.07,11.55L37.68,23.1L45.22,34.65L52.76,50.05L60.29,73.15L67.83,103.95L75.37,138.6L82.9,173.25L90.44,211.75L105.51,273.35L113.05,300.3L128.13,338.8L135.66,350.35L150.74,365.75L158.27,369.6L165.81,373.45L173.35,373.45L180.88,377.3L188.42,377.3L195.96,377.3L203.49,381.15L271.32,381.15" style="vector-effect: none; fill: none; stroke: rgb(128, 133, 233); stroke-opacity: 1; stroke-width: 2px; opacity: 1;"/></g><g class="points"/><g class="text"/></g><g class="trace scatter trace6af16b" style="stroke-miterlimit: 2; opacity: 1;"><g class="fills"/><g class="errorbars"/><g class="lines"><path class="js-line" d="M0,0L7.54,7.7L15.07,11.55L30.15,19.25L37.68,26.95L45.22,38.5L52.76,57.75L60.29,77L67.83,103.95L75.37,134.75L82.9,161.7L97.98,223.3L105.51,250.25L113.05,273.35L120.59,292.6L128.13,311.85L135.66,327.25L143.2,338.8L150.74,346.5L165.81,361.9L173.35,365.75L188.42,373.45L195.96,373.45L203.49,377.3L211.03,377.3L218.57,377.3L226.1,381.15L286.4,381.15" style="vector-effect: none; fill: none; stroke: rgb(241, 92, 128); stroke-opacity: 1; stroke-width: 2px; opacity: 1;"/></g><g class="points"/><g class="text"/></g><g class="trace scatter traceeb2db3" style="stroke-miterlimit: 2; opacity: 1;"><g class="fills"/><g class="errorbars"/><g class="lines"><path class="js-line" d="M0,0L15.07,7.7L22.61,7.7L37.68,15.4L45.22,23.1L60.29,38.5L67.83,53.9L75.37,69.3L82.9,88.55L90.44,111.65L97.98,138.6L105.51,165.55L113.05,196.35L135.66,277.2L143.2,296.45L150.74,315.7L158.27,327.25L173.35,350.35L180.88,358.05L203.49,369.6L211.03,369.6L218.57,373.45L226.1,373.45L233.64,373.45L241.18,377.3L271.32,377.3L278.86,381.15L399.45,381.15" style="vector-effect: none; fill: none; stroke: rgb(228, 211, 84); stroke-opacity: 1; stroke-width: 2px; opacity: 1;"/></g><g class="points"/><g class="text"/></g><g class="trace scatter trace1446f9" style="stroke-miterlimit: 2; opacity: 1;"><g class="fills"/><g class="errorbars"/><g class="lines"><path class="js-line" d="M0,0L15.07,15.4L22.61,26.95L30.15,50.05L37.68,80.85L45.22,119.35L52.76,165.55L60.29,215.6L67.83,257.95L75.37,292.6L82.9,319.55L90.44,342.65L97.98,354.2L113.05,369.6L120.59,373.45L128.13,377.3L135.66,377.3L143.2,377.3L150.74,381.15L211.03,381.15" style="vector-effect: none; fill: none; stroke: rgb(43, 144, 143); stroke-opacity: 1; stroke-width: 2px; opacity: 1;"/></g><g class="points"/><g class="text"/></g><g class="trace scatter tracedf6a89" style="stroke-miterlimit: 2; opacity: 1;"><g class="fills"/><g class="errorbars"/><g class="lines"><path class="js-line" d="M0,0L7.54,7.7L15.07,11.55L30.15,19.25L37.68,26.95L45.22,38.5L52.76,53.9L60.29,80.85L67.83,111.65L75.37,146.3L82.9,184.8L97.98,257.95L105.51,288.75L113.05,311.85L120.59,331.1L128.13,346.5L135.66,358.05L143.2,365.75L150.74,369.6L165.81,377.3L173.35,377.3L180.88,377.3L188.42,381.15L241.18,381.15" style="vector-effect: none; fill: none; stroke: rgb(244, 91, 91); stroke-opacity: 1; stroke-width: 2px; opacity: 1;"/></g><g class="points"/><g class="text"/></g><g class="trace scatter trace1c5229" style="stroke-miterlimit: 2; opacity: 1;"><g class="fills"/><g class="errorbars"/><g class="lines"><path class="js-line" d="M0,0L15.07,23.1L22.61,50.05L30.15,92.4L37.68,142.45L52.76,246.4L60.29,288.75L67.83,319.55L75.37,342.65L82.9,358.05L90.44,365.75L97.98,373.45L105.51,377.3L113.05,377.3L120.59,381.15L165.81,381.15" style="vector-effect: none; fill: none; stroke: rgb(145, 232, 225); stroke-opacity: 1; stroke-width: 2px; opacity: 1;"/></g><g class="points"/><g class="text"/></g><g class="trace scatter traced7ca53" style="stroke-miterlimit: 2; opacity: 1;"><g class="fills"/><g class="errorbars"/><g class="lines"><path class="js-line" d="M0,0L22.61,11.55L30.15,11.55L45.22,26.95L52.76,38.5L60.29,50.05L67.83,69.3L82.9,115.5L90.44,146.3L105.51,207.9L113.05,234.85L128.13,288.75L135.66,308L150.74,338.8L158.27,346.5L173.35,361.9L180.88,365.75L195.96,373.45L203.49,373.45L211.03,373.45L218.57,377.3L248.71,377.3L256.25,381.15L361.76,381.15" style="vector-effect: none; fill: none; stroke: rgb(124, 181, 236); stroke-opacity: 1; stroke-width: 2px; opacity: 1;"/></g><g class="points"/><g class="text"/></g><g class="trace scatter trace201c3d" style="stroke-miterlimit: 2; opacity: 1;"><g class="fills"/><g class="errorbars"/><g class="lines"><path class="js-line" d="M0,0L7.54,7.7L15.07,11.55L22.61,11.55L30.15,15.4L37.68,19.25L45.22,26.95L52.76,38.5L60.29,53.9L67.83,73.15L75.37,96.25L105.51,219.45L113.05,246.4L120.59,273.35L128.13,296.45L150.74,342.65L158.27,350.35L173.35,365.75L180.88,369.6L188.42,373.45L195.96,373.45L203.49,377.3L211.03,377.3L218.57,377.3L226.1,381.15L293.93,381.15" style="vector-effect: none; fill: none; stroke: rgb(67, 67, 72); stroke-opacity: 1; stroke-width: 2px; opacity: 1;"/></g><g class="points"/><g class="text"/></g><g class="trace scatter trace96bf34" style="stroke-miterlimit: 2; opacity: 1;"><g class="fills"/><g class="errorbars"/><g class="lines"><path class="js-line" d="M0,0L7.54,7.7L15.07,11.55L22.61,15.4L30.15,26.95L37.68,38.5L45.22,61.6L52.76,84.7L60.29,119.35L67.83,154L75.37,192.5L90.44,265.65L97.98,292.6L105.51,315.7L113.05,334.95L128.13,358.05L135.66,361.9L158.27,373.45L165.81,373.45L173.35,377.3L180.88,377.3L203.49,377.3L211.03,381.15L301.47,381.15" style="vector-effect: none; fill: none; stroke: rgb(144, 237, 125); stroke-opacity: 1; stroke-width: 2px; opacity: 1;"/></g><g class="points"/><g class="text"/></g><g class="trace scatter trace5d9252" style="stroke-miterlimit: 2; opacity: 1;"><g class="fills"/><g class="errorbars"/><g class="lines"><path class="js-line" d="M0,0L37.68,19.25L45.22,30.8L52.76,42.35L60.29,57.75L67.83,77L75.37,103.95L90.44,165.55L97.98,200.2L105.51,234.85L113.05,265.65L128.13,311.85L135.66,327.25L143.2,342.65L150.74,350.35L158.27,358.05L165.81,361.9L188.42,373.45L195.96,373.45L203.49,373.45L211.03,377.3L248.71,377.3L256.25,381.15L354.23,381.15" style="vector-effect: none; fill: none; stroke: rgb(247, 163, 92); stroke-opacity: 1; stroke-width: 2px; opacity: 1;"/></g><g class="points"/><g class="text"/></g><g class="trace scatter trace605ab7" style="stroke-miterlimit: 2; opacity: 1;"><g class="fills"/><g class="errorbars"/><g class="lines"><path class="js-line" d="M0,0L7.54,7.7L15.07,11.55L22.61,15.4L30.15,26.95L37.68,42.35L45.22,61.6L52.76,92.4L60.29,127.05L67.83,161.7L75.37,200.2L82.9,238.7L90.44,269.5L97.98,296.45L105.51,319.55L120.59,350.35L128.13,358.05L135.66,365.75L143.2,369.6L150.74,369.6L158.27,373.45L165.81,377.3L173.35,377.3L188.42,377.3L195.96,381.15L271.32,381.15" style="vector-effect: none; fill: none; stroke: rgb(128, 133, 233); stroke-opacity: 1; stroke-width: 2px; opacity: 1;"/></g><g class="points"/><g class="text"/></g><g class="trace scatter tracef515a5" style="stroke-miterlimit: 2; opacity: 1;"><g class="fills"/><g class="errorbars"/><g class="lines"><path class="js-line" d="M0,0L7.54,7.7L15.07,11.55L22.61,11.55L30.15,15.4L45.22,30.8L52.76,42.35L60.29,57.75L67.83,84.7L75.37,111.65L82.9,146.3L105.51,250.25L113.05,281.05L120.59,304.15L128.13,323.4L135.66,338.8L143.2,350.35L150.74,361.9L158.27,365.75L180.88,377.3L188.42,377.3L195.96,377.3L203.49,381.15L271.32,381.15" style="vector-effect: none; fill: none; stroke: rgb(241, 92, 128); stroke-opacity: 1; stroke-width: 2px; opacity: 1;"/></g><g class="points"/><g class="text"/></g><g class="trace scatter traced7ab1f" style="stroke-miterlimit: 2; opacity: 1;"><g class="fills"/><g class="errorbars"/><g class="lines"><path class="js-line" d="M0,0L7.54,7.7L15.07,11.55L22.61,15.4L30.15,23.1L37.68,34.65L45.22,50.05L52.76,77L60.29,107.8L90.44,261.8L97.98,292.6L105.51,319.55L113.05,338.8L128.13,361.9L135.66,365.75L143.2,373.45L150.74,373.45L158.27,377.3L165.81,377.3L173.35,381.15L180.88,381.15L233.64,381.15" style="vector-effect: none; fill: none; stroke: rgb(228, 211, 84); stroke-opacity: 1; stroke-width: 2px; opacity: 1;"/></g><g class="points"/><g class="text"/></g><g class="trace scatter tracef08bee" style="stroke-miterlimit: 2; opacity: 1;"><g class="fills"/><g class="errorbars"/><g class="lines"><path class="js-line" d="M0,0L7.54,7.7L15.07,7.7L30.15,7.7L37.68,11.55L90.44,11.55L97.98,15.4L143.2,15.4L150.74,19.25L180.88,19.25L188.42,23.1L211.03,23.1L218.57,26.95L233.64,26.95L241.18,30.8L248.71,30.8L256.25,34.65L263.79,34.65L271.32,38.5L301.47,53.9L309.01,61.6L316.54,65.45L324.08,73.15L331.62,80.85L339.15,92.4L346.69,100.1L354.23,111.65L376.84,146.3L384.38,161.7L391.91,173.25L399.45,188.65L406.99,200.2L414.52,215.6L429.6,238.7L437.13,254.1L459.74,288.75L467.28,296.45L474.82,304.15L482.35,315.7L489.89,319.55L497.43,327.25L504.96,334.95L512.5,338.8L550.18,358.05L557.72,358.05L565.26,361.9L572.79,361.9L580.33,365.75L587.87,365.75L602.94,365.75L610.48,369.6L655.7,369.6L663.24,373.45L738.6,373.45L746.14,377.3L874.26,377.3L881.8,381.15L1025,381.15" style="vector-effect: none; fill: none; stroke: rgb(43, 144, 143); stroke-opacity: 1; stroke-width: 2px; opacity: 1;"/></g><g class="points"/><g class="text"/></g><g class="trace scatter tracef7ec27" style="stroke-miterlimit: 2; opacity: 1;"><g class="fills"/><g class="errorbars"/><g class="lines"><path class="js-line" d="M0,0L22.61,11.55L30.15,19.25L37.68,30.8L45.22,46.2L52.76,69.3L60.29,96.25L67.83,127.05L75.37,165.55L82.9,200.2L90.44,238.7L97.98,269.5L105.51,296.45L113.05,319.55L120.59,334.95L135.66,358.05L143.2,361.9L165.81,373.45L173.35,373.45L180.88,377.3L188.42,377.3L211.03,377.3L218.57,381.15L301.47,381.15" style="vector-effect: none; fill: none; stroke: rgb(244, 91, 91); stroke-opacity: 1; stroke-width: 2px; opacity: 1;"/></g><g class="points"/><g class="text"/></g><g class="trace scatter tracebc2312" style="stroke-miterlimit: 2; opacity: 1;"><g class="fills"/><g class="errorbars"/><g class="lines"><path class="js-line" d="M0,0L7.54,7.7L15.07,11.55L30.15,19.25L37.68,30.8L45.22,42.35L52.76,65.45L60.29,92.4L67.83,127.05L75.37,161.7L82.9,200.2L90.44,238.7L97.98,269.5L105.51,296.45L113.05,319.55L128.13,350.35L135.66,358.05L143.2,365.75L150.74,369.6L165.81,377.3L173.35,377.3L180.88,377.3L188.42,381.15L256.25,381.15" style="vector-effect: none; fill: none; stroke: rgb(145, 232, 225); stroke-opacity: 1; stroke-width: 2px; opacity: 1;"/></g><g class="points"/><g class="text"/></g><g class="trace scatter tracee18a81" style="stroke-miterlimit: 2; opacity: 1;"><g class="fills"/><g class="errorbars"/><g class="lines"><path class="js-line" d="M0,0L22.61,11.55L30.15,19.25L37.68,26.95L45.22,38.5L52.76,57.75L60.29,80.85L67.83,111.65L75.37,146.3L97.98,250.25L105.51,281.05L113.05,308L120.59,327.25L128.13,342.65L135.66,350.35L143.2,361.9L150.74,365.75L165.81,373.45L173.35,373.45L180.88,377.3L188.42,377.3L203.49,377.3L211.03,381.15L301.47,381.15" style="vector-effect: none; fill: none; stroke: rgb(124, 181, 236); stroke-opacity: 1; stroke-width: 2px; opacity: 1;"/></g><g class="points"/><g class="text"/></g><g class="trace scatter tracef8f06b" style="stroke-miterlimit: 2; opacity: 1;"><g class="fills"/><g class="errorbars"/><g class="lines"><path class="js-line" d="M0,0L7.54,7.7L15.07,11.55L22.61,11.55L30.15,15.4L37.68,19.25L45.22,26.95L52.76,34.65L60.29,50.05L67.83,69.3L75.37,96.25L82.9,127.05L90.44,161.7L113.05,265.65L120.59,292.6L128.13,315.7L135.66,331.1L143.2,346.5L150.74,354.2L165.81,369.6L173.35,373.45L180.88,373.45L188.42,377.3L203.49,377.3L211.03,381.15L271.32,381.15" style="vector-effect: none; fill: none; stroke: rgb(67, 67, 72); stroke-opacity: 1; stroke-width: 2px; opacity: 1;"/></g><g class="points"/><g class="text"/></g><g class="trace scatter trace3cebcc" style="stroke-miterlimit: 2; opacity: 1;"><g class="fills"/><g class="errorbars"/><g class="lines"><path class="js-line" d="M0,0L30.15,15.4L37.68,23.1L45.22,34.65L52.76,53.9L60.29,73.15L67.83,96.25L82.9,157.85L90.44,192.5L105.51,254.1L113.05,277.2L120.59,300.3L128.13,319.55L135.66,334.95L143.2,346.5L150.74,354.2L158.27,358.05L165.81,365.75L173.35,369.6L180.88,369.6L188.42,373.45L195.96,373.45L203.49,377.3L226.1,377.3L233.64,381.15L324.08,381.15" style="vector-effect: none; fill: none; stroke: rgb(144, 237, 125); stroke-opacity: 1; stroke-width: 2px; opacity: 1;"/></g><g class="points"/><g class="text"/></g><g class="trace scatter tracef6c9fa" style="stroke-miterlimit: 2; opacity: 1;"><g class="fills"/><g class="errorbars"/><g class="lines"><path class="js-line" d="M0,0L7.54,65.45L15.07,165.55L22.61,257.95L30.15,323.4L37.68,354.2L45.22,369.6L52.76,377.3L60.29,381.15L67.83,381.15" style="vector-effect: none; fill: none; stroke: rgb(247, 163, 92); stroke-opacity: 1; stroke-width: 2px; opacity: 1;"/></g><g class="points"/><g class="text"/></g><g class="trace scatter traceef8bc2" style="stroke-miterlimit: 2; opacity: 1;"><g class="fills"/><g class="errorbars"/><g class="lines"><path class="js-line" d="M0,0L7.54,34.65L15.07,100.1L30.15,257.95L37.68,315.7L45.22,350.35L52.76,365.75L60.29,377.3L67.83,381.15L75.37,381.15" style="vector-effect: none; fill: none; stroke: rgb(128, 133, 233); stroke-opacity: 1; stroke-width: 2px; opacity: 1;"/></g><g class="points"/><g class="text"/></g><g class="trace scatter trace8ca52e" style="stroke-miterlimit: 2; opacity: 1;"><g class="fills"/><g class="errorbars"/><g class="lines"><path class="js-line" d="M0,0L7.54,11.55L15.07,11.55L22.61,15.4L30.15,23.1L37.68,34.65L45.22,53.9L52.76,77L60.29,107.8L82.9,219.45L90.44,254.1L105.51,308L113.05,327.25L120.59,342.65L128.13,354.2L135.66,361.9L143.2,365.75L165.81,377.3L173.35,377.3L180.88,377.3L188.42,381.15L233.64,381.15" style="vector-effect: none; fill: none; stroke: rgb(241, 92, 128); stroke-opacity: 1; stroke-width: 2px; opacity: 1;"/></g><g class="points"/><g class="text"/></g><g class="trace scatter tracecad035" style="stroke-miterlimit: 2; opacity: 1;"><g class="fills"/><g class="errorbars"/><g class="lines"><path class="js-line" d="M0,0L7.54,46.2L15.07,127.05L22.61,215.6L30.15,288.75L37.68,334.95L45.22,358.05L52.76,369.6L60.29,377.3L67.83,381.15L75.37,381.15L82.9,381.15" style="vector-effect: none; fill: none; stroke: rgb(228, 211, 84); stroke-opacity: 1; stroke-width: 2px; opacity: 1;"/></g><g class="points"/><g class="text"/></g><g class="trace scatter trace75ec04" style="stroke-miterlimit: 2; opacity: 1;"><g class="fills"/><g class="errorbars"/><g class="lines"><path class="js-line" d="M0,0L7.54,7.7L15.07,7.7L22.61,11.55L30.15,11.55L37.68,11.55L45.22,15.4L52.76,15.4L60.29,19.25L75.37,26.95L82.9,34.65L90.44,42.35L97.98,53.9L105.51,65.45L113.05,80.85L128.13,119.35L135.66,142.45L143.2,165.55L150.74,192.5L165.81,238.7L173.35,257.95L188.42,296.45L195.96,311.85L211.03,334.95L218.57,342.65L233.64,358.05L241.18,361.9L256.25,369.6L263.79,369.6L271.32,373.45L278.86,373.45L286.4,373.45L293.93,377.3L324.08,377.3L331.62,381.15L444.67,381.15" style="vector-effect: none; fill: none; stroke: rgb(43, 144, 143); stroke-opacity: 1; stroke-width: 2px; opacity: 1;"/></g><g class="points"/><g class="text"/></g><g class="trace scatter tracec7e36e" style="stroke-miterlimit: 2; opacity: 1;"><g class="fills"/><g class="errorbars"/><g class="lines"><path class="js-line" d="M0,0L7.54,11.55L15.07,15.4L22.61,23.1L30.15,38.5L37.68,61.6L45.22,96.25L75.37,269.5L82.9,300.3L90.44,327.25L97.98,346.5L105.51,358.05L113.05,365.75L120.59,373.45L128.13,373.45L135.66,377.3L143.2,377.3L150.74,381.15L158.27,381.15L195.96,381.15" style="vector-effect: none; fill: none; stroke: rgb(244, 91, 91); stroke-opacity: 1; stroke-width: 2px; opacity: 1;"/></g><g class="points"/><g class="text"/></g><g class="trace scatter tracee70fff" style="stroke-miterlimit: 2; opacity: 1;"><g class="fills"/><g class="errorbars"/><g class="lines"><path class="js-line" d="M0,0L7.54,7.7L15.07,7.7L30.15,15.4L37.68,23.1L45.22,34.65L52.76,50.05L60.29,69.3L67.83,92.4L75.37,123.2L82.9,157.85L90.44,192.5L97.98,223.3L105.51,257.95L113.05,284.9L120.59,308L128.13,327.25L143.2,350.35L150.74,358.05L158.27,365.75L165.81,369.6L173.35,369.6L180.88,373.45L188.42,373.45L195.96,377.3L226.1,377.3L233.64,381.15L331.62,381.15" style="vector-effect: none; fill: none; stroke: rgb(145, 232, 225); stroke-opacity: 1; stroke-width: 2px; opacity: 1;"/></g><g class="points"/><g class="text"/></g><g class="trace scatter tracee0ecad" style="stroke-miterlimit: 2; opacity: 1;"><g class="fills"/><g class="errorbars"/><g class="lines"><path class="js-line" d="M0,0L15.07,7.7L22.61,15.4L30.15,26.95L37.68,46.2L45.22,69.3L52.76,100.1L67.83,180.95L75.37,223.3L82.9,261.8L90.44,292.6L97.98,319.55L105.51,334.95L113.05,350.35L120.59,358.05L128.13,365.75L135.66,369.6L143.2,373.45L150.74,373.45L158.27,377.3L165.81,377.3L180.88,377.3L188.42,381.15L256.25,381.15" style="vector-effect: none; fill: none; stroke: rgb(124, 181, 236); stroke-opacity: 1; stroke-width: 2px; opacity: 1;"/></g><g class="points"/><g class="text"/></g><g class="trace scatter trace2d5945" style="stroke-miterlimit: 2; opacity: 1;"><g class="fills"/><g class="errorbars"/><g class="lines"><path class="js-line" d="M0,0L15.07,7.7L22.61,15.4L30.15,23.1L37.68,34.65L45.22,50.05L52.76,77L60.29,103.95L67.83,138.6L90.44,250.25L97.98,281.05L105.51,308L113.05,327.25L120.59,342.65L128.13,354.2L135.66,361.9L143.2,365.75L158.27,373.45L165.81,373.45L173.35,373.45L180.88,377.3L203.49,377.3L211.03,381.15L293.93,381.15" style="vector-effect: none; fill: none; stroke: rgb(67, 67, 72); stroke-opacity: 1; stroke-width: 2px; opacity: 1;"/></g><g class="points"/><g class="text"/></g><g class="trace scatter tracef9d7dc" style="stroke-miterlimit: 2; opacity: 1;"><g class="fills"/><g class="errorbars"/><g class="lines"><path class="js-line" d="M0,0L30.15,15.4L37.68,23.1L52.76,46.2L60.29,65.45L67.83,88.55L75.37,119.35L113.05,273.35L120.59,296.45L128.13,315.7L135.66,331.1L143.2,342.65L150.74,350.35L165.81,365.75L173.35,369.6L180.88,369.6L188.42,373.45L195.96,373.45L203.49,377.3L233.64,377.3L241.18,381.15L339.15,381.15" style="vector-effect: none; fill: none; stroke: rgb(144, 237, 125); stroke-opacity: 1; stroke-width: 2px; opacity: 1;"/></g><g class="points"/><g class="text"/></g><g class="trace scatter trace383389" style="stroke-miterlimit: 2; opacity: 1;"><g class="fills"/><g class="errorbars"/><g class="lines"><path class="js-line" d="M0,0L22.61,11.55L30.15,11.55L37.68,19.25L45.22,23.1L52.76,30.8L60.29,42.35L67.83,57.75L75.37,77L82.9,96.25L90.44,123.2L120.59,246.4L128.13,273.35L135.66,296.45L143.2,315.7L150.74,331.1L158.27,342.65L165.81,354.2L173.35,358.05L195.96,369.6L203.49,369.6L211.03,373.45L218.57,373.45L226.1,373.45L233.64,377.3L278.86,377.3L286.4,381.15L391.91,381.15" style="vector-effect: none; fill: none; stroke: rgb(247, 163, 92); stroke-opacity: 1; stroke-width: 2px; opacity: 1;"/></g><g class="points"/><g class="text"/></g><g class="trace scatter trace4a7104" style="stroke-miterlimit: 2; opacity: 1;"><g class="fills"/><g class="errorbars"/><g class="lines"><path class="js-line" d="M0,0L7.54,7.7L15.07,11.55L22.61,19.25L30.15,30.8L37.68,46.2L45.22,73.15L52.76,103.95L60.29,138.6L82.9,250.25L90.44,281.05L97.98,304.15L105.51,323.4L113.05,338.8L120.59,350.35L135.66,365.75L143.2,369.6L150.74,373.45L158.27,373.45L165.81,377.3L173.35,377.3L180.88,377.3L188.42,381.15L263.79,381.15" style="vector-effect: none; fill: none; stroke: rgb(128, 133, 233); stroke-opacity: 1; stroke-width: 2px; opacity: 1;"/></g><g class="points"/><g class="text"/></g><g class="trace scatter trace2037a3" style="stroke-miterlimit: 2; opacity: 1;"><g class="fills"/><g class="errorbars"/><g class="lines"><path class="js-line" d="M0,0L7.54,15.4L15.07,34.65L22.61,65.45L30.15,115.5L45.22,231L52.76,277.2L60.29,315.7L67.83,342.65L75.37,358.05L82.9,369.6L105.51,381.15L113.05,381.15L120.59,381.15" style="vector-effect: none; fill: none; stroke: rgb(241, 92, 128); stroke-opacity: 1; stroke-width: 2px; opacity: 1;"/></g><g class="points"/><g class="text"/></g><g class="trace scatter tracee167dd" style="stroke-miterlimit: 2; opacity: 1;"><g class="fills"/><g class="errorbars"/><g class="lines"><path class="js-line" d="M0,0L22.61,11.55L30.15,19.25L37.68,26.95L45.22,38.5L52.76,57.75L60.29,80.85L75.37,142.45L82.9,177.1L90.44,211.75L97.98,242.55L105.51,273.35L113.05,296.45L128.13,334.95L135.66,346.5L150.74,361.9L158.27,365.75L173.35,373.45L180.88,373.45L188.42,373.45L195.96,377.3L218.57,377.3L226.1,381.15L316.54,381.15" style="vector-effect: none; fill: none; stroke: rgb(228, 211, 84); stroke-opacity: 1; stroke-width: 2px; opacity: 1;"/></g><g class="points"/><g class="text"/></g><g class="trace scatter traceed3ee5" style="stroke-miterlimit: 2; opacity: 1;"><g class="fills"/><g class="errorbars"/><g class="lines"><path class="js-line" d="M0,0L30.15,15.4L37.68,23.1L45.22,34.65L52.76,50.05L60.29,69.3L67.83,96.25L75.37,123.2L82.9,154L90.44,188.65L97.98,219.45L105.51,250.25L113.05,277.2L120.59,300.3L128.13,319.55L135.66,334.95L143.2,346.5L158.27,361.9L165.81,365.75L173.35,369.6L180.88,369.6L188.42,373.45L195.96,373.45L203.49,377.3L211.03,377.3L241.18,377.3L248.71,381.15L339.15,381.15" style="vector-effect: none; fill: none; stroke: rgb(43, 144, 143); stroke-opacity: 1; stroke-width: 2px; opacity: 1;"/></g><g class="points"/><g class="text"/></g><g class="trace scatter trace77850a" style="stroke-miterlimit: 2; opacity: 1;"><g class="fills"/><g class="errorbars"/><g class="lines"><path class="js-line" d="M0,0L7.54,3.85L15.07,3.85L30.15,3.85L37.68,7.7L82.9,7.7L90.44,11.55L128.13,11.55L135.66,15.4L150.74,15.4L158.27,19.25L165.81,19.25L173.35,23.1L180.88,23.1L188.42,26.95L195.96,26.95L203.49,30.8L211.03,34.65L218.57,34.65L233.64,42.35L241.18,42.35L286.4,65.45L293.93,73.15L301.47,77L309.01,84.7L331.62,107.8L339.15,119.35L346.69,130.9L354.23,138.6L376.84,173.25L384.38,188.65L437.13,269.5L444.67,277.2L452.21,288.75L459.74,296.45L474.82,311.85L482.35,315.7L489.89,323.4L497.43,327.25L504.96,334.95L512.5,338.8L527.57,346.5L535.11,346.5L550.18,354.2L557.72,354.2L565.26,358.05L572.79,358.05L580.33,361.9L587.87,361.9L602.94,361.9L610.48,365.75L640.63,365.75L648.16,369.6L715.99,369.6L723.53,373.45L829.04,373.45L836.58,377.3L1025,377.3" style="vector-effect: none; fill: none; stroke: rgb(244, 91, 91); stroke-opacity: 1; stroke-width: 2px; opacity: 1;"/></g><g class="points"/><g class="text"/></g><g class="trace scatter trace240f6d" style="stroke-miterlimit: 2; opacity: 1;"><g class="fills"/><g class="errorbars"/><g class="lines"><path class="js-line" d="M0,0L7.54,7.7L15.07,11.55L30.15,26.95L37.68,38.5L45.22,57.75L52.76,84.7L60.29,115.5L67.83,150.15L82.9,223.3L90.44,257.95L97.98,284.9L105.51,308L113.05,327.25L120.59,342.65L128.13,354.2L135.66,361.9L165.81,377.3L173.35,377.3L180.88,381.15L188.42,381.15L233.64,381.15" style="vector-effect: none; fill: none; stroke: rgb(145, 232, 225); stroke-opacity: 1; stroke-width: 2px; opacity: 1;"/></g><g class="points"/><g class="text"/></g><g class="trace scatter trace5ac757" style="stroke-miterlimit: 2; opacity: 1;"><g class="fills"/><g class="errorbars"/><g class="lines"><path class="js-line" d="M0,0L7.54,46.2L15.07,123.2L22.61,211.75L30.15,281.05L37.68,331.1L45.22,358.05L52.76,369.6L60.29,377.3L67.83,381.15L75.37,381.15L82.9,381.15" style="vector-effect: none; fill: none; stroke: rgb(124, 181, 236); stroke-opacity: 1; stroke-width: 2px; opacity: 1;"/></g><g class="points"/><g class="text"/></g><g class="trace scatter tracee618d2" style="stroke-miterlimit: 2; opacity: 1;"><g class="fills"/><g class="errorbars"/><g class="lines"><path class="js-line" d="M0,0L7.54,7.7L15.07,7.7L37.68,30.8L45.22,50.05L52.76,69.3L60.29,100.1L67.83,130.9L75.37,169.4L90.44,242.55L97.98,273.35L105.51,300.3L113.05,323.4L120.59,338.8L128.13,350.35L143.2,365.75L150.74,369.6L158.27,373.45L165.81,373.45L173.35,377.3L180.88,377.3L195.96,377.3L203.49,381.15L278.86,381.15" style="vector-effect: none; fill: none; stroke: rgb(67, 67, 72); stroke-opacity: 1; stroke-width: 2px; opacity: 1;"/></g><g class="points"/><g class="text"/></g><g class="trace scatter tracefd07d5" style="stroke-miterlimit: 2; opacity: 1;"><g class="fills"/><g class="errorbars"/><g class="lines"><path class="js-line" d="M0,0L15.07,7.7L22.61,15.4L30.15,23.1L37.68,34.65L45.22,53.9L52.76,77L60.29,107.8L67.83,142.45L75.37,177.1L82.9,215.6L90.44,250.25L97.98,281.05L105.51,308L113.05,327.25L120.59,342.65L128.13,354.2L135.66,361.9L143.2,365.75L158.27,373.45L165.81,373.45L173.35,377.3L180.88,377.3L188.42,377.3L195.96,381.15L271.32,381.15" style="vector-effect: none; fill: none; stroke: rgb(144, 237, 125); stroke-opacity: 1; stroke-width: 2px; opacity: 1;"/></g><g class="points"/><g class="text"/></g><g class="trace scatter tracedc02f3" style="stroke-miterlimit: 2; opacity: 1;"><g class="fills"/><g class="errorbars"/><g class="lines"><path class="js-line" d="M0,0L7.54,7.7L15.07,11.55L22.61,15.4L30.15,26.95L37.68,42.35L45.22,65.45L52.76,92.4L60.29,127.05L82.9,242.55L90.44,273.35L97.98,304.15L105.51,323.4L113.05,338.8L120.59,350.35L128.13,361.9L135.66,365.75L150.74,373.45L158.27,373.45L165.81,377.3L173.35,377.3L188.42,377.3L195.96,381.15L271.32,381.15" style="vector-effect: none; fill: none; stroke: rgb(247, 163, 92); stroke-opacity: 1; stroke-width: 2px; opacity: 1;"/></g><g class="points"/><g class="text"/></g><g class="trace scatter traceeccb72" style="stroke-miterlimit: 2; opacity: 1;"><g class="fills"/><g class="errorbars"/><g class="lines"><path class="js-line" d="M0,0L7.54,7.7L15.07,7.7L22.61,11.55L30.15,11.55L37.68,15.4L45.22,15.4L52.76,19.25L60.29,26.95L75.37,42.35L82.9,57.75L90.44,73.15L97.98,96.25L105.51,123.2L113.05,154L128.13,215.6L135.66,242.55L143.2,269.5L150.74,292.6L158.27,315.7L165.81,331.1L173.35,342.65L180.88,350.35L195.96,365.75L203.49,369.6L211.03,369.6L218.57,373.45L226.1,373.45L233.64,377.3L256.25,377.3L263.79,381.15L346.69,381.15" style="vector-effect: none; fill: none; stroke: rgb(128, 133, 233); stroke-opacity: 1; stroke-width: 2px; opacity: 1;"/></g><g class="points"/><g class="text"/></g><g class="trace scatter trace8040a1" style="stroke-miterlimit: 2; opacity: 1;"><g class="fills"/><g class="errorbars"/><g class="lines"><path class="js-line" d="M0,0L7.54,7.7L15.07,11.55L30.15,19.25L37.68,26.95L45.22,38.5L52.76,57.75L60.29,84.7L67.83,115.5L97.98,265.65L105.51,292.6L113.05,319.55L120.59,334.95L128.13,350.35L135.66,358.05L143.2,365.75L150.74,369.6L165.81,377.3L173.35,377.3L180.88,377.3L188.42,381.15L241.18,381.15" style="vector-effect: none; fill: none; stroke: rgb(241, 92, 128); stroke-opacity: 1; stroke-width: 2px; opacity: 1;"/></g><g class="points"/><g class="text"/></g><g class="trace scatter trace918051" style="stroke-miterlimit: 2; opacity: 1;"><g class="fills"/><g class="errorbars"/><g class="lines"><path class="js-line" d="M0,0L7.54,7.7L15.07,7.7L22.61,11.55L30.15,19.25L37.68,26.95L45.22,38.5L60.29,77L67.83,103.95L82.9,165.55L90.44,200.2L97.98,231L105.51,257.95L113.05,284.9L120.59,304.15L128.13,323.4L135.66,334.95L143.2,346.5L150.74,354.2L158.27,361.9L165.81,365.75L173.35,369.6L180.88,369.6L188.42,373.45L195.96,373.45L203.49,377.3L211.03,377.3L233.64,377.3L241.18,381.15L331.62,381.15" style="vector-effect: none; fill: none; stroke: rgb(228, 211, 84); stroke-opacity: 1; stroke-width: 2px; opacity: 1;"/></g><g class="points"/><g class="text"/></g><g class="trace scatter trace2d0cf0" style="stroke-miterlimit: 2; opacity: 1;"><g class="fills"/><g class="errorbars"/><g class="lines"><path class="js-line" d="M0,0L7.54,23.1L15.07,69.3L37.68,269.5L45.22,315.7L52.76,342.65L60.29,361.9L75.37,377.3L82.9,377.3L90.44,381.15L97.98,381.15L113.05,381.15" style="vector-effect: none; fill: none; stroke: rgb(43, 144, 143); stroke-opacity: 1; stroke-width: 2px; opacity: 1;"/></g><g class="points"/><g class="text"/></g><g class="trace scatter trace52e8e7" style="stroke-miterlimit: 2; opacity: 1;"><g class="fills"/><g class="errorbars"/><g class="lines"><path class="js-line" d="M0,0L7.54,92.4L15.07,211.75L22.61,300.3L30.15,350.35L37.68,369.6L45.22,377.3L52.76,381.15" style="vector-effect: none; fill: none; stroke: rgb(244, 91, 91); stroke-opacity: 1; stroke-width: 2px; opacity: 1;"/></g><g class="points"/><g class="text"/></g><g class="trace scatter trace58394d" style="stroke-miterlimit: 2; opacity: 1;"><g class="fills"/><g class="errorbars"/><g class="lines"><path class="js-line" d="M0,0L7.54,3.85L15.07,3.85L22.61,7.7L30.15,7.7L37.68,7.7L45.22,11.55L52.76,11.55L60.29,15.4L82.9,26.95L90.44,34.65L113.05,57.75L120.59,69.3L128.13,80.85L135.66,96.25L165.81,173.25L173.35,196.35L180.88,215.6L188.42,238.7L203.49,277.2L211.03,292.6L218.57,304.15L226.1,319.55L233.64,327.25L241.18,338.8L248.71,342.65L256.25,350.35L286.4,365.75L293.93,365.75L301.47,365.75L309.01,369.6L324.08,369.6L331.62,373.45L376.84,373.45L384.38,377.3L467.28,377.3L474.82,381.15L685.85,381.15" style="vector-effect: none; fill: none; stroke: rgb(145, 232, 225); stroke-opacity: 1; stroke-width: 2px; opacity: 1;"/></g><g class="points"/><g class="text"/></g><g class="trace scatter trace95e6b4" style="stroke-miterlimit: 2; opacity: 1;"><g class="fills"/><g class="errorbars"/><g class="lines"><path class="js-line" d="M0,0L7.54,7.7L15.07,11.55L30.15,19.25L37.68,26.95L45.22,38.5L52.76,57.75L60.29,80.85L67.83,107.8L82.9,177.1L90.44,215.6L97.98,250.25L105.51,281.05L120.59,327.25L128.13,342.65L135.66,354.2L143.2,361.9L173.35,377.3L180.88,377.3L188.42,377.3L195.96,381.15L248.71,381.15" style="vector-effect: none; fill: none; stroke: rgb(124, 181, 236); stroke-opacity: 1; stroke-width: 2px; opacity: 1;"/></g><g class="points"/><g class="text"/></g><g class="trace scatter tracede6704" style="stroke-miterlimit: 2; opacity: 1;"><g class="fills"/><g class="errorbars"/><g class="lines"><path class="js-line" d="M0,0L7.54,7.7L15.07,11.55L30.15,11.55L37.68,15.4L60.29,26.95L67.83,34.65L82.9,57.75L90.44,77L97.98,96.25L105.51,123.2L143.2,257.95L150.74,277.2L158.27,300.3L165.81,315.7L173.35,331.1L180.88,338.8L188.42,350.35L195.96,358.05L226.1,373.45L233.64,373.45L241.18,377.3L248.71,377.3L271.32,377.3L278.86,381.15L369.3,381.15" style="vector-effect: none; fill: none; stroke: rgb(67, 67, 72); stroke-opacity: 1; stroke-width: 2px; opacity: 1;"/></g><g class="points"/><g class="text"/></g><g class="trace scatter traceca7bd4" style="stroke-miterlimit: 2; opacity: 1;"><g class="fills"/><g class="errorbars"/><g class="lines"><path class="js-line" d="M0,0L7.54,7.7L15.07,11.55L22.61,11.55L30.15,15.4L37.68,19.25L45.22,26.95L52.76,34.65L60.29,50.05L67.83,69.3L75.37,92.4L82.9,123.2L90.44,157.85L97.98,192.5L105.51,223.3L113.05,257.95L120.59,284.9L128.13,308L135.66,327.25L143.2,342.65L150.74,354.2L158.27,361.9L165.81,365.75L180.88,373.45L188.42,373.45L195.96,377.3L203.49,377.3L211.03,377.3L218.57,381.15L301.47,381.15" style="vector-effect: none; fill: none; stroke: rgb(144, 237, 125); stroke-opacity: 1; stroke-width: 2px; opacity: 1;"/></g><g class="points"/><g class="text"/></g><g class="trace scatter trace8d65fb" style="stroke-miterlimit: 2; opacity: 1;"><g class="fills"/><g class="errorbars"/><g class="lines"><path class="js-line" d="M0,0L7.54,7.7L15.07,11.55L22.61,15.4L30.15,26.95L37.68,42.35L45.22,65.45L52.76,96.25L60.29,134.75L82.9,254.1L90.44,284.9L97.98,311.85L105.51,334.95L120.59,358.05L128.13,365.75L143.2,373.45L150.74,373.45L158.27,377.3L165.81,377.3L173.35,377.3L180.88,381.15L241.18,381.15" style="vector-effect: none; fill: none; stroke: rgb(247, 163, 92); stroke-opacity: 1; stroke-width: 2px; opacity: 1;"/></g><g class="points"/><g class="text"/></g></g></g></g><g class="zerolinelayer-above"/><path class="xlines-above crisp" d="M0,0" style="fill: none;"/><path class="ylines-above crisp" d="M0,0" style="fill: none;"/><g class="overlines-above"/><g class="xaxislayer-above"><g class="xtick"><text text-anchor="middle" x="0" y="451" transform="translate(60,0)" style="font-family: system-ui, -apple-system, 'Segoe UI', Roboto, 'Helvetica Neue', 'Noto Sans', 'Liberation Sans', Arial, sans-serif, 'Apple Color Emoji', 'Segoe UI Emoji', 'Segoe UI Symbol', 'Noto Color Emoji'; font-size: 10px; fill: rgb(80, 80, 80); fill-opacity: 1; white-space: pre;">0X</text></g><g class="xtick"><text text-anchor="middle" x="0" y="451" style="font-family: system-ui, -apple-system, 'Segoe UI', Roboto, 'Helvetica Neue', 'Noto Sans', 'Liberation Sans', Arial, sans-serif, 'Apple Color Emoji', 'Segoe UI Emoji', 'Segoe UI Symbol', 'Noto Color Emoji'; font-size: 10px; fill: rgb(80, 80, 80); fill-opacity: 1; white-space: pre;" transform="translate(210.74,0)">20X</text></g><g class="xtick"><text text-anchor="middle" x="0" y="451" style="font-family: system-ui, -apple-system, 'Segoe UI', Roboto, 'Helvetica Neue', 'Noto Sans', 'Liberation Sans', Arial, sans-serif, 'Apple Color Emoji', 'Segoe UI Emoji', 'Segoe UI Symbol', 'Noto Color Emoji'; font-size: 10px; fill: rgb(80, 80, 80); fill-opacity: 1; white-space: pre;" transform="translate(361.47,0)">40X</text></g><g class="xtick"><text text-anchor="middle" x="0" y="451" style="font-family: system-ui, -apple-system, 'Segoe UI', Roboto, 'Helvetica Neue', 'Noto Sans', 'Liberation Sans', Arial, sans-serif, 'Apple Color Emoji', 'Segoe UI Emoji', 'Segoe UI Symbol', 'Noto Color Emoji'; font-size: 10px; fill: rgb(80, 80, 80); fill-opacity: 1; white-space: pre;" transform="translate(512.21,0)">60X</text></g><g class="xtick"><text text-anchor="middle" x="0" y="451" style="font-family: system-ui, -apple-system, 'Segoe UI', Roboto, 'Helvetica Neue', 'Noto Sans', 'Liberation Sans', Arial, sans-serif, 'Apple Color Emoji', 'Segoe UI Emoji', 'Segoe UI Symbol', 'Noto Color Emoji'; font-size: 10px; fill: rgb(80, 80, 80); fill-opacity: 1; white-space: pre;" transform="translate(662.94,0)">80X</text></g><g class="xtick"><text text-anchor="middle" x="0" y="451" style="font-family: system-ui, -apple-system, 'Segoe UI', Roboto, 'Helvetica Neue', 'Noto Sans', 'Liberation Sans', Arial, sans-serif, 'Apple Color Emoji', 'Segoe UI Emoji', 'Segoe UI Symbol', 'Noto Color Emoji'; font-size: 10px; fill: rgb(80, 80, 80); fill-opacity: 1; white-space: pre;" transform="translate(813.68,0)">100X</text></g><g class="xtick"><text text-anchor="middle" x="0" y="451" style="font-family: system-ui, -apple-system, 'Segoe UI', Roboto, 'Helvetica Neue', 'Noto Sans', 'Liberation Sans', Arial, sans-serif, 'Apple Color Emoji', 'Segoe UI Emoji', 'Segoe UI Symbol', 'Noto Color Emoji'; font-size: 10px; fill: rgb(80, 80, 80); fill-opacity: 1; white-space: pre;" transform="translate(964.41,0)">120X</text></g></g><g class="yaxislayer-above"><g class="ytick"><text text-anchor="end" x="54" y="3.5" transform="translate(0,435)" style="font-family: system-ui, -apple-system, 'Segoe UI', Roboto, 'Helvetica Neue', 'Noto Sans', 'Liberation Sans', Arial, sans-serif, 'Apple Color Emoji', 'Segoe UI Emoji', 'Segoe UI Symbol', 'Noto Color Emoji'; font-size: 10px; fill: rgb(80, 80, 80); fill-opacity: 1; white-space: pre;">0%</text></g><g class="ytick"><text text-anchor="end" x="54" y="3.5" style="font-family: system-ui, -apple-system, 'Segoe UI', Roboto, 'Helvetica Neue', 'Noto Sans', 'Liberation Sans', Arial, sans-serif, 'Apple Color Emoji', 'Segoe UI Emoji', 'Segoe UI Symbol', 'Noto Color Emoji'; font-size: 10px; fill: rgb(80, 80, 80); fill-opacity: 1; white-space: pre;" transform="translate(0,358)">20%</text></g><g class="ytick"><text text-anchor="end" x="54" y="3.5" style="font-family: system-ui, -apple-system, 'Segoe UI', Roboto, 'Helvetica Neue', 'Noto Sans', 'Liberation Sans', Arial, sans-serif, 'Apple Color Emoji', 'Segoe UI Emoji', 'Segoe UI Symbol', 'Noto Color Emoji'; font-size: 10px; fill: rgb(80, 80, 80); fill-opacity: 1; white-space: pre;" transform="translate(0,281)">40%</text></g><g class="ytick"><text text-anchor="end" x="54" y="3.5" style="font-family: system-ui, -apple-system, 'Segoe UI', Roboto, 'Helvetica Neue', 'Noto Sans', 'Liberation Sans', Arial, sans-serif, 'Apple Color Emoji', 'Segoe UI Emoji', 'Segoe UI Symbol', 'Noto Color Emoji'; font-size: 10px; fill: rgb(80, 80, 80); fill-opacity: 1; white-space: pre;" transform="translate(0,204)">60%</text></g><g class="ytick"><text text-anchor="end" x="54" y="3.5" style="font-family: system-ui, -apple-system, 'Segoe UI', Roboto, 'Helvetica Neue', 'Noto Sans', 'Liberation Sans', Arial, sans-serif, 'Apple Color Emoji', 'Segoe UI Emoji', 'Segoe UI Symbol', 'Noto Color Emoji'; font-size: 10px; fill: rgb(80, 80, 80); fill-opacity: 1; white-space: pre;" transform="translate(0,127)">80%</text></g><g class="ytick"><text text-anchor="end" x="54" y="3.5" style="font-family: system-ui, -apple-system, 'Segoe UI', Roboto, 'Helvetica Neue', 'Noto Sans', 'Liberation Sans', Arial, sans-serif, 'Apple Color Emoji', 'Segoe UI Emoji', 'Segoe UI Symbol', 'Noto Color Emoji'; font-size: 10px; fill: rgb(80, 80, 80); fill-opacity: 1; white-space: pre;" transform="translate(0,50)">100%</text></g></g><g class="overaxes-above"/></g></g><g class="polarlayer"/><g class="smithlayer"/><g class="ternarylayer"/><g class="geolayer"/><g class="funnelarealayer"/><g class="pielayer"/><g class="iciclelayer"/><g class="treemaplayer"/><g class="sunburstlayer"/><g class="glimages"/><defs id="topdefs-508caf"><g class="clips"/></defs><g class="layer-above"><g class="imagelayer"/><g class="shapelayer"/></g><g class="infolayer"><g class="g-gtitle"><text class="gtitle" x="550" y="25" text-anchor="middle" dy="0em" style="opacity: 1; font-family: system-ui, -apple-system, 'Segoe UI', Roboto, 'Helvetica Neue', 'Noto Sans', 'Liberation Sans', Arial, sans-serif, 'Apple Color Emoji', 'Segoe UI Emoji', 'Segoe UI Symbol', 'Noto Color Emoji'; font-size: 20px; fill: rgb(60, 60, 60); fill-opacity: 1; white-space: pre;"><tspan class="line" dy="0em" x="550" y="25">Mosdepth: Cumulative coverage distribution</tspan><tspan class="line" dy="1.3em" x="550" y="25">​<tspan style="font-size:70%" dy="-0.6em">94 lines</tspan><tspan dy="0.42em">​</tspan></tspan></text></g><g class="g-xtitle"><text class="xtitle" x="572.5" y="487" text-anchor="middle" style="opacity: 1; font-family: system-ui, -apple-system, 'Segoe UI', Roboto, 'Helvetica Neue', 'Noto Sans', 'Liberation Sans', Arial, sans-serif, 'Apple Color Emoji', 'Segoe UI Emoji', 'Segoe UI Symbol', 'Noto Color Emoji'; font-size: 14px; fill: rgb(100, 100, 100); fill-opacity: 1; white-space: pre;">Cumulative Coverage (X)</text></g><g class="g-ytitle"><text class="ytitle" transform="rotate(-90,22,242.5)" x="22" y="242.5" text-anchor="middle" style="opacity: 1; font-family: system-ui, -apple-system, 'Segoe UI', Roboto, 'Helvetica Neue', 'Noto Sans', 'Liberation Sans', Arial, sans-serif, 'Apple Color Emoji', 'Segoe UI Emoji', 'Segoe UI Symbol', 'Noto Color Emoji'; font-size: 14px; fill: rgb(100, 100, 100); fill-opacity: 1; white-space: pre;">% bases in genome/regions covered by at least X reads</text></g></g></svg>