<svg class="main-svg" xmlns="http://www.w3.org/2000/svg" xmlns:xlink="http://www.w3.org/1999/xlink" width="2200" height="1000" style="" viewBox="0 0 1100 500"><rect x="0" y="0" width="1100" height="500" style="fill: rgb(255, 255, 255); fill-opacity: 1;"/><defs id="defs-929466"><g class="clips"><clipPath id="clip929466xyplot" class="plotclip"><rect width="983" height="363"/></clipPath><clipPath class="axesclip" id="clip929466x"><rect x="60" y="0" width="983" height="500"/></clipPath><clipPath class="axesclip" id="clip929466y"><rect x="0" y="50" width="1100" height="363"/></clipPath><clipPath class="axesclip" id="clip929466xy"><rect x="60" y="50" width="983" height="363"/></clipPath></g><g class="gradients"/><g class="patterns"/></defs><g class="bglayer"/><g class="layer-below"><g class="imagelayer"/><g class="shapelayer"/></g><g class="cartesianlayer"><g class="subplot xy"><g class="layer-subplot"><g class="shapelayer"/><g class="imagelayer"/></g><g class="minor-gridlayer"><g class="x"/><g class="y"/></g><g class="gridlayer"><g class="x"><path class="xgrid crisp" transform="translate(91.71000000000001,0)" d="M0,50v363" style="stroke: rgb(128, 128, 128); stroke-opacity: 0.15; stroke-width: 1px;"/><path class="xgrid crisp" transform="translate(123.42,0)" d="M0,50v363" style="stroke: rgb(128, 128, 128); stroke-opacity: 0.15; stroke-width: 1px;"/><path class="xgrid crisp" transform="translate(155.13,0)" d="M0,50v363" style="stroke: rgb(128, 128, 128); stroke-opacity: 0.15; stroke-width: 1px;"/><path class="xgrid crisp" transform="translate(186.84,0)" d="M0,50v363" style="stroke: rgb(128, 128, 128); stroke-opacity: 0.15; stroke-width: 1px;"/><path class="xgrid crisp" transform="translate(218.55,0)" d="M0,50v363" style="stroke: rgb(128, 128, 128); stroke-opacity: 0.15; stroke-width: 1px;"/><path class="xgrid crisp" transform="translate(250.26,0)" d="M0,50v363" style="stroke: rgb(128, 128, 128); stroke-opacity: 0.15; stroke-width: 1px;"/><path class="xgrid crisp" transform="translate(281.97,0)" d="M0,50v363" style="stroke: rgb(128, 128, 128); stroke-opacity: 0.15; stroke-width: 1px;"/><path class="xgrid crisp" transform="translate(313.68,0)" d="M0,50v363" style="stroke: rgb(128, 128, 128); stroke-opacity: 0.15; stroke-width: 1px;"/><path class="xgrid crisp" transform="translate(345.39,0)" d="M0,50v363" style="stroke: rgb(128, 128, 128); stroke-opacity: 0.15; stroke-width: 1px;"/><path class="xgrid crisp" transform="translate(377.1,0)" d="M0,50v363" style="stroke: rgb(128, 128, 128); stroke-opacity: 0.15; stroke-width: 1px;"/><path class="xgrid crisp" transform="translate(408.81,0)" d="M0,50v363" style="stroke: rgb(128, 128, 128); stroke-opacity: 0.15; stroke-width: 1px;"/><path class="xgrid crisp" transform="translate(440.52,0)" d="M0,50v363" style="stroke: rgb(128, 128, 128); stroke-opacity: 0.15; stroke-width: 1px;"/><path class="xgrid crisp" transform="translate(472.23,0)" d="M0,50v363" style="stroke: rgb(128, 128, 128); stroke-opacity: 0.15; stroke-width: 1px;"/><path class="xgrid crisp" transform="translate(503.94,0)" d="M0,50v363" style="stroke: rgb(128, 128, 128); stroke-opacity: 0.15; stroke-width: 1px;"/><path class="xgrid crisp" transform="translate(535.65,0)" d="M0,50v363" style="stroke: rgb(128, 128, 128); stroke-opacity: 0.15; stroke-width: 1px;"/><path class="xgrid crisp" transform="translate(567.35,0)" d="M0,50v363" style="stroke: rgb(128, 128, 128); stroke-opacity: 0.15; stroke-width: 1px;"/><path class="xgrid crisp" transform="translate(599.06,0)" d="M0,50v363" style="stroke: rgb(128, 128, 128); stroke-opacity: 0.15; stroke-width: 1px;"/><path class="xgrid crisp" transform="translate(630.77,0)" d="M0,50v363" style="stroke: rgb(128, 128, 128); stroke-opacity: 0.15; stroke-width: 1px;"/><path class="xgrid crisp" transform="translate(662.48,0)" d="M0,50v363" style="stroke: rgb(128, 128, 128); stroke-opacity: 0.15; stroke-width: 1px;"/><path class="xgrid crisp" transform="translate(694.19,0)" d="M0,50v363" style="stroke: rgb(128, 128, 128); stroke-opacity: 0.15; stroke-width: 1px;"/><path class="xgrid crisp" transform="translate(725.9,0)" d="M0,50v363" style="stroke: rgb(128, 128, 128); stroke-opacity: 0.15; stroke-width: 1px;"/><path class="xgrid crisp" transform="translate(757.61,0)" d="M0,50v363" style="stroke: rgb(128, 128, 128); stroke-opacity: 0.15; stroke-width: 1px;"/><path class="xgrid crisp" transform="translate(789.32,0)" d="M0,50v363" style="stroke: rgb(128, 128, 128); stroke-opacity: 0.15; stroke-width: 1px;"/><path class="xgrid crisp" transform="translate(821.03,0)" d="M0,50v363" style="stroke: rgb(128, 128, 128); stroke-opacity: 0.15; stroke-width: 1px;"/><path class="xgrid crisp" transform="translate(852.74,0)" d="M0,50v363" style="stroke: rgb(128, 128, 128); stroke-opacity: 0.15; stroke-width: 1px;"/><path class="xgrid crisp" transform="translate(884.45,0)" d="M0,50v363" style="stroke: rgb(128, 128, 128); stroke-opacity: 0.15; stroke-width: 1px;"/><path class="xgrid crisp" transform="translate(916.16,0)" d="M0,50v363" style="stroke: rgb(128, 128, 128); stroke-opacity: 0.15; stroke-width: 1px;"/><path class="xgrid crisp" transform="translate(947.87,0)" d="M0,50v363" style="stroke: rgb(128, 128, 128); stroke-opacity: 0.15; stroke-width: 1px;"/><path class="xgrid crisp" transform="translate(979.58,0)" d="M0,50v363" style="stroke: rgb(128, 128, 128); stroke-opacity: 0.15; stroke-width: 1px;"/><path class="xgrid crisp" transform="translate(1011.29,0)" d="M0,50v363" style="stroke: rgb(128, 128, 128); stroke-opacity: 0.15; stroke-width: 1px;"/></g><g class="y"><path class="ygrid crisp" transform="translate(0,316.66)" d="M60,0h983" style="stroke: rgb(128, 128, 128); stroke-opacity: 0.15; stroke-width: 1px;"/><path class="ygrid crisp" transform="translate(0,238.44)" d="M60,0h983" style="stroke: rgb(128, 128, 128); stroke-opacity: 0.15; stroke-width: 1px;"/><path class="ygrid crisp" transform="translate(0,160.20999999999998)" d="M60,0h983" style="stroke: rgb(128, 128, 128); stroke-opacity: 0.15; stroke-width: 1px;"/><path class="ygrid crisp" transform="translate(0,81.99)" d="M60,0h983" style="stroke: rgb(128, 128, 128); stroke-opacity: 0.15; stroke-width: 1px;"/></g></g><g class="zerolinelayer"><path class="yzl zl crisp" transform="translate(0,394.88)" d="M60,0h983" style="stroke: rgb(128, 128, 128); stroke-opacity: 0.2; stroke-width: 1px;"/></g><g class="layer-between"><g class="shapelayer"/><g class="imagelayer"/></g><path class="xlines-below"/><path class="ylines-below"/><g class="overlines-below"/><g class="xaxislayer-below"/><g class="yaxislayer-below"/><g class="overaxes-below"/><g class="overplot"><g class="xy" transform="translate(60,50)" clip-path="url(#clip929466xyplot)"><g class="scatterlayer mlayer"><g class="trace scatter tracef7847a" style="stroke-miterlimit: 2; opacity: 1;"><g class="fills"/><g class="errorbars"/><g class="lines"><path class="js-line" d="M0,291.9L31.71,290.06L63.42,289.64L95.13,292.06L126.84,293.04L158.55,292.34L190.26,294.84L221.97,294.39L253.68,295.04L317.1,297.62L348.81,296.48L380.52,298.79L412.23,299.13L475.65,298.77L507.35,301.6L539.06,301.33L570.77,295.97L602.48,302.26L634.19,304.31L665.9,307.77L697.61,312.42L729.32,312.6L761.03,316.29L792.74,319.09L824.45,322.69L856.16,343.85L887.87,344.3L951.29,344.64L983,276.89" style="vector-effect: none; fill: none; stroke: rgb(124, 181, 236); stroke-opacity: 1; stroke-width: 2px; opacity: 1;"/></g><g class="points"/><g class="text"/></g><g class="trace scatter traceb14685" style="stroke-miterlimit: 2; opacity: 1;"><g class="fills"/><g class="errorbars"/><g class="lines"><path class="js-line" d="M0,307.78L31.71,306.07L63.42,305.9L95.13,307.66L126.84,308.25L158.55,307.62L190.26,309.56L221.97,309.22L253.68,309.7L317.1,311.45L348.81,311.04L380.52,312.4L412.23,312.57L475.65,312.2L507.35,314.26L539.06,314.16L570.77,312.7L602.48,314.85L634.19,316.18L665.9,318.61L697.61,321.94L729.32,321.96L761.03,324.68L824.45,330.01L856.16,344.17L951.29,344.71L983,296.85" style="vector-effect: none; fill: none; stroke: rgb(67, 67, 72); stroke-opacity: 1; stroke-width: 2px; opacity: 1;"/></g><g class="points"/><g class="text"/></g><g class="trace scatter trace53cca4" style="stroke-miterlimit: 2; opacity: 1;"><g class="fills"/><g class="errorbars"/><g class="lines"><path class="js-line" d="M0,299.04L31.71,297.36L63.42,296.81L95.13,299.29L126.84,300.33L158.55,299.25L190.26,301.65L221.97,301.27L253.68,301.87L317.1,304.02L348.81,303.92L380.52,305.1L412.23,305.28L475.65,304.94L507.35,307.39L539.06,307.31L570.77,304.92L602.48,308.21L634.19,309.99L665.9,312.85L697.61,316.73L729.32,317.03L761.03,320.36L792.74,322.47L824.45,326.87L856.16,344L887.87,344.37L951.29,344.66L983,286.19" style="vector-effect: none; fill: none; stroke: rgb(144, 237, 125); stroke-opacity: 1; stroke-width: 2px; opacity: 1;"/></g><g class="points"/><g class="text"/></g><g class="trace scatter traced661ac" style="stroke-miterlimit: 2; opacity: 1;"><g class="fills"/><g class="errorbars"/><g class="lines"><path class="js-line" d="M0,307.13L31.71,305.98L63.42,305.59L95.13,307.26L126.84,308.09L158.55,307.77L190.26,309.22L253.68,309.54L285.39,310.69L317.1,311.51L348.81,310.48L380.52,312.4L412.23,312.9L443.94,312.26L475.65,310.83L507.35,314.32L539.06,313.93L570.77,312.55L602.48,314.85L665.9,318.49L697.61,321.84L729.32,321.62L761.03,323.53L824.45,329.66L856.16,344.17L951.29,344.72L983,296.41" style="vector-effect: none; fill: none; stroke: rgb(247, 163, 92); stroke-opacity: 1; stroke-width: 2px; opacity: 1;"/></g><g class="points"/><g class="text"/></g><g class="trace scatter trace85dc2c" style="stroke-miterlimit: 2; opacity: 1;"><g class="fills"/><g class="errorbars"/><g class="lines"><path class="js-line" d="M0,294.88L31.71,292.65L63.42,292.66L95.13,294.83L126.84,295.6L158.55,294.81L190.26,297.54L221.97,297.08L253.68,297.82L317.1,300.04L348.81,298.95L380.52,301.29L412.23,301.68L443.94,301.05L475.65,301.55L507.35,303.88L539.06,303.6L570.77,298L602.48,304.6L634.19,306.23L665.9,309.82L697.61,313.96L729.32,314.52L761.03,318.22L792.74,320.46L824.45,324.39L856.16,334.18L887.87,339.34L919.58,341.54L951.29,342.74L983,309.99" style="vector-effect: none; fill: none; stroke: rgb(128, 133, 233); stroke-opacity: 1; stroke-width: 2px; opacity: 1;"/></g><g class="points"/><g class="text"/></g><g class="trace scatter traceb3fb94" style="stroke-miterlimit: 2; opacity: 1;"><g class="fills"/><g class="errorbars"/><g class="lines"><path class="js-line" d="M0,285.23L63.42,282.63L95.13,285.58L126.84,286.94L158.55,286.35L190.26,288.53L221.97,288.45L253.68,288.51L285.39,290.08L317.1,291.65L348.81,290.95L412.23,293.79L443.94,292.63L475.65,292.3L507.35,296.1L539.06,295.88L570.77,291.92L602.48,296.84L634.19,298.92L697.61,307.29L729.32,308.37L792.74,315.56L824.45,320.22L856.16,331.29L887.87,337.82L919.58,340.67L951.29,342.27L983,303.62" style="vector-effect: none; fill: none; stroke: rgb(241, 92, 128); stroke-opacity: 1; stroke-width: 2px; opacity: 1;"/></g><g class="points"/><g class="text"/></g><g class="trace scatter trace1c3659" style="stroke-miterlimit: 2; opacity: 1;"><g class="fills"/><g class="errorbars"/><g class="lines"><path class="js-line" d="M0,299.86L31.71,298.3L63.42,299.24L95.13,299.79L126.84,301.15L158.55,301.13L190.26,302.53L221.97,302.47L253.68,303.27L317.1,304.74L348.81,303.78L380.52,306.75L412.23,306.5L475.65,305.24L507.35,308.29L539.06,308.22L570.77,304.49L602.48,308.8L634.19,310.21L665.9,313.24L697.61,317.35L729.32,316.95L761.03,319.49L824.45,325.86L856.16,344.01L951.29,344.69L983,287.71" style="vector-effect: none; fill: none; stroke: rgb(228, 211, 84); stroke-opacity: 1; stroke-width: 2px; opacity: 1;"/></g><g class="points"/><g class="text"/></g><g class="trace scatter trace787c16" style="stroke-miterlimit: 2; opacity: 1;"><g class="fills"/><g class="errorbars"/><g class="lines"><path class="js-line" d="M0,294.82L31.71,294.2L63.42,291.19L95.13,295.8L126.84,295.99L158.55,295.42L190.26,297.08L221.97,297.52L253.68,296.51L317.1,300.55L348.81,299.48L380.52,299.54L412.23,302.16L475.65,299.76L507.35,303.39L539.06,303.91L570.77,299.66L602.48,304.69L634.19,306.52L697.61,312.5L729.32,313.42L792.74,319.1L824.45,324.32L856.16,343.88L887.87,344.3L951.29,344.67L983,282" style="vector-effect: none; fill: none; stroke: rgb(43, 144, 143); stroke-opacity: 1; stroke-width: 2px; opacity: 1;"/></g><g class="points"/><g class="text"/></g><g class="trace scatter trace1c8879" style="stroke-miterlimit: 2; opacity: 1;"><g class="fills"/><g class="errorbars"/><g class="lines"><path class="js-line" d="M0,294.34L63.42,291.94L95.13,294.95L126.84,295.56L158.55,295.19L190.26,296.86L221.97,297.26L253.68,297.15L285.39,298.99L317.1,299.49L348.81,298.75L412.23,301.76L443.94,300.75L475.65,300L507.35,303.4L539.06,303.18L570.77,296.85L602.48,304.45L634.19,305.87L697.61,312.67L729.32,313.62L792.74,319.19L824.45,323.43L856.16,333.1L887.87,338.78L919.58,341.27L951.29,342.65L983,310.16" style="vector-effect: none; fill: none; stroke: rgb(244, 91, 91); stroke-opacity: 1; stroke-width: 2px; opacity: 1;"/></g><g class="points"/><g class="text"/></g><g class="trace scatter trace46551e" style="stroke-miterlimit: 2; opacity: 1;"><g class="fills"/><g class="errorbars"/><g class="lines"><path class="js-line" d="M0,301.55L31.71,300.43L63.42,300.19L126.84,302.98L158.55,302.61L221.97,304.02L253.68,304.18L317.1,306.45L348.81,305.2L380.52,307.3L412.23,307.94L475.65,305.78L507.35,309.15L539.06,309.15L570.77,306.54L602.48,309.9L634.19,311.33L697.61,317.04L729.32,317.15L792.74,322.28L824.45,325.54L856.16,343.99L887.87,344.41L951.29,344.7L983,290.75" style="vector-effect: none; fill: none; stroke: rgb(145, 232, 225); stroke-opacity: 1; stroke-width: 2px; opacity: 1;"/></g><g class="points"/><g class="text"/></g><g class="trace scatter trace53a401" style="stroke-miterlimit: 2; opacity: 1;"><g class="fills"/><g class="errorbars"/><g class="lines"><path class="js-line" d="M0,316.27L63.42,314.94L95.13,316.52L126.84,317.08L158.55,316.73L221.97,317.71L253.68,317.82L317.1,319.51L348.81,318.9L412.23,320.45L443.94,320.01L475.65,318.61L507.35,321.16L539.06,321.36L570.77,319.67L602.48,321.79L634.19,322.87L697.61,326.54L729.32,326.46L824.45,331.87L856.16,344.31L951.29,344.76L983,308.51" style="vector-effect: none; fill: none; stroke: rgb(124, 181, 236); stroke-opacity: 1; stroke-width: 2px; opacity: 1;"/></g><g class="points"/><g class="text"/></g><g class="trace scatter trace13a329" style="stroke-miterlimit: 2; opacity: 1;"><g class="fills"/><g class="errorbars"/><g class="lines"><path class="js-line" d="M0,303.04L31.71,301.53L63.42,302.25L126.84,304.02L158.55,303.81L190.26,305.26L221.97,305.12L317.1,307.57L348.81,306.89L380.52,309.39L412.23,308.93L443.94,309.01L475.65,307.97L507.35,311.01L539.06,310.48L570.77,309.28L602.48,311.35L634.19,312.73L665.9,315.3L697.61,319.28L729.32,318.85L792.74,324.14L824.45,327.38L856.16,344.08L887.87,344.42L951.29,344.71L983,291.45" style="vector-effect: none; fill: none; stroke: rgb(67, 67, 72); stroke-opacity: 1; stroke-width: 2px; opacity: 1;"/></g><g class="points"/><g class="text"/></g><g class="trace scatter trace4ae9dd" style="stroke-miterlimit: 2; opacity: 1;"><g class="fills"/><g class="errorbars"/><g class="lines"><path class="js-line" d="M0,296.47L31.71,294.41L63.42,294.71L126.84,297.55L158.55,296.72L190.26,299.27L221.97,298.78L317.1,301.58L348.81,301.06L380.52,303.36L412.23,303.04L443.94,302.94L475.65,301.72L507.35,305.58L539.06,305.18L570.77,302L602.48,305.86L634.19,307.85L665.9,310.9L697.61,315.25L729.32,315.22L824.45,324.37L856.16,343.99L951.29,344.66L983,282.54" style="vector-effect: none; fill: none; stroke: rgb(144, 237, 125); stroke-opacity: 1; stroke-width: 2px; opacity: 1;"/></g><g class="points"/><g class="text"/></g><g class="trace scatter trace22792c" style="stroke-miterlimit: 2; opacity: 1;"><g class="fills"/><g class="errorbars"/><g class="lines"><path class="js-line" d="M0,302.71L31.71,300.8L63.42,300.97L126.84,303.42L158.55,303.05L190.26,305.14L221.97,304.56L317.1,307.03L348.81,306.83L380.52,308.61L412.23,308.52L475.65,308.18L507.35,310.6L539.06,310.16L570.77,306.92L602.48,310.74L634.19,312.65L665.9,315.48L697.61,319.15L729.32,319.35L761.03,322.45L792.74,324.53L824.45,328.18L856.16,344.12L887.87,344.39L951.29,344.67L983,290.14" style="vector-effect: none; fill: none; stroke: rgb(247, 163, 92); stroke-opacity: 1; stroke-width: 2px; opacity: 1;"/></g><g class="points"/><g class="text"/></g><g class="trace scatter trace0f1dcc" style="stroke-miterlimit: 2; opacity: 1;"><g class="fills"/><g class="errorbars"/><g class="lines"><path class="js-line" d="M0,288.87L31.71,287.12L63.42,286.73L95.13,289.51L126.84,290.24L158.55,289.48L190.26,291.91L253.68,292.05L285.39,293.89L317.1,295.02L348.81,294.47L380.52,296.06L412.23,296.81L443.94,295.99L475.65,295.96L507.35,299.06L539.06,298.73L570.77,296.25L602.48,299.82L634.19,302.04L665.9,305.54L697.61,309.74L729.32,310.73L824.45,322.28L856.16,332.08L887.87,338.14L919.58,340.9L951.29,342.4L983,306.06" style="vector-effect: none; fill: none; stroke: rgb(128, 133, 233); stroke-opacity: 1; stroke-width: 2px; opacity: 1;"/></g><g class="points"/><g class="text"/></g><g class="trace scatter tracee5f2f5" style="stroke-miterlimit: 2; opacity: 1;"><g class="fills"/><g class="errorbars"/><g class="lines"><path class="js-line" d="M0,307.8L31.71,306.28L63.42,305.72L95.13,308L126.84,308.48L158.55,307.64L190.26,309.71L253.68,309.75L285.39,310.56L317.1,311.61L348.81,311.66L412.23,312.93L443.94,312.37L475.65,312.55L507.35,314.34L539.06,314.14L570.77,311.41L602.48,314.93L634.19,316.19L697.61,321.88L729.32,322.1L761.03,325.01L792.74,326.59L824.45,329.98L856.16,344.15L951.29,344.7L983,296.87" style="vector-effect: none; fill: none; stroke: rgb(241, 92, 128); stroke-opacity: 1; stroke-width: 2px; opacity: 1;"/></g><g class="points"/><g class="text"/></g><g class="trace scatter trace8c40b7" style="stroke-miterlimit: 2; opacity: 1;"><g class="fills"/><g class="errorbars"/><g class="lines"><path class="js-line" d="M0,305.12L31.71,303.37L63.42,303.76L126.84,305.96L158.55,305.42L190.26,307.5L221.97,306.91L412.23,310.66L443.94,310.14L475.65,310.27L507.35,312.68L539.06,312.14L570.77,310.69L634.19,314.34L665.9,317.19L697.61,320.35L729.32,320.95L761.03,323.78L792.74,325.72L824.45,328.78L856.16,335.63L887.87,340.02L919.58,341.99L951.29,343.04L983,317.03" style="vector-effect: none; fill: none; stroke: rgb(228, 211, 84); stroke-opacity: 1; stroke-width: 2px; opacity: 1;"/></g><g class="points"/><g class="text"/></g><g class="trace scatter trace548fdb" style="stroke-miterlimit: 2; opacity: 1;"><g class="fills"/><g class="errorbars"/><g class="lines"><path class="js-line" d="M0,308.18L31.71,306.58L63.42,306.75L126.84,308.85L158.55,308.47L190.26,310.22L221.97,309.8L317.1,311.77L348.81,311.87L380.52,313.31L412.23,313.06L475.65,312.88L507.35,315.12L570.77,313.02L602.48,315.1L634.19,316.45L665.9,319.17L697.61,322.24L729.32,322.38L761.03,325.09L792.74,326.72L824.45,329.72L856.16,344.17L951.29,344.71L983,297.15" style="vector-effect: none; fill: none; stroke: rgb(43, 144, 143); stroke-opacity: 1; stroke-width: 2px; opacity: 1;"/></g><g class="points"/><g class="text"/></g><g class="trace scatter trace12855c" style="stroke-miterlimit: 2; opacity: 1;"><g class="fills"/><g class="errorbars"/><g class="lines"><path class="js-line" d="M0,303.22L31.71,301.28L63.42,301.07L95.13,303.18L126.84,303.74L158.55,303.21L190.26,305.32L253.68,305.45L285.39,306.72L412.23,309L443.94,308.39L475.65,308.52L507.35,310.81L539.06,310.28L570.77,306.66L602.48,311.17L634.19,313L665.9,315.52L697.61,319.17L729.32,319.72L761.03,322.81L792.74,324.83L824.45,328.14L856.16,334.85L887.87,339.78L919.58,341.77L951.29,342.89L983,315.7" style="vector-effect: none; fill: none; stroke: rgb(244, 91, 91); stroke-opacity: 1; stroke-width: 2px; opacity: 1;"/></g><g class="points"/><g class="text"/></g><g class="trace scatter trace8b8f99" style="stroke-miterlimit: 2; opacity: 1;"><g class="fills"/><g class="errorbars"/><g class="lines"><path class="js-line" d="M0,302.31L31.71,301.01L63.42,300.58L95.13,302.62L126.84,303.45L158.55,302.86L190.26,304.39L253.68,304.71L285.39,306.08L317.1,307.08L348.81,306.59L412.23,308.55L443.94,307.74L475.65,307.3L507.35,309.75L539.06,309.73L570.77,305.54L602.48,310.63L634.19,312.19L697.61,317.56L729.32,317.78L824.45,326.45L856.16,344.09L951.29,344.7L983,291.19" style="vector-effect: none; fill: none; stroke: rgb(145, 232, 225); stroke-opacity: 1; stroke-width: 2px; opacity: 1;"/></g><g class="points"/><g class="text"/></g><g class="trace scatter tracee1bc22" style="stroke-miterlimit: 2; opacity: 1;"><g class="fills"/><g class="errorbars"/><g class="lines"><path class="js-line" d="M0,294.18L31.71,291.92L63.42,292.86L126.84,295.39L158.55,294.98L190.26,296.86L221.97,296.61L317.1,299.46L348.81,298.85L380.52,301.58L412.23,301.41L475.65,300.22L507.35,303.8L539.06,303.03L570.77,299.64L602.48,303.93L634.19,305.57L697.61,313.37L729.32,313.68L792.74,319.76L824.45,323.91L856.16,334.32L887.87,339.43L919.58,341.62L951.29,342.84L983,309.73" style="vector-effect: none; fill: none; stroke: rgb(124, 181, 236); stroke-opacity: 1; stroke-width: 2px; opacity: 1;"/></g><g class="points"/><g class="text"/></g><g class="trace scatter tracee1293d" style="stroke-miterlimit: 2; opacity: 1;"><g class="fills"/><g class="errorbars"/><g class="lines"><path class="js-line" d="M0,336.59L95.13,336.65L126.84,336.88L221.97,337.08L253.68,337.31L443.94,337.85L475.65,337.68L507.35,338.34L539.06,338.15L570.77,337.51L602.48,338.33L792.74,340.84L824.45,341.45L856.16,344.73L887.87,344.79L951.29,344.85L983,334.35" style="vector-effect: none; fill: none; stroke: rgb(67, 67, 72); stroke-opacity: 1; stroke-width: 2px; opacity: 1;"/></g><g class="points"/><g class="text"/></g><g class="trace scatter tracedd662d" style="stroke-miterlimit: 2; opacity: 1;"><g class="fills"/><g class="errorbars"/><g class="lines"><path class="js-line" d="M0,296.89L31.71,294.73L63.42,294.95L95.13,296.98L126.84,297.77L158.55,297.15L190.26,299.38L221.97,299.12L253.68,300.07L317.1,301.82L348.81,301.81L380.52,303.31L412.23,303.43L475.65,303.14L507.35,305.69L539.06,304.93L570.77,302.91L602.48,306.15L634.19,308.08L665.9,311.13L697.61,315.4L729.32,315.6L761.03,319.38L792.74,321.65L824.45,325.65L856.16,343.9L887.87,344.33L951.29,344.65L983,282.79" style="vector-effect: none; fill: none; stroke: rgb(144, 237, 125); stroke-opacity: 1; stroke-width: 2px; opacity: 1;"/></g><g class="points"/><g class="text"/></g><g class="trace scatter trace380c99" style="stroke-miterlimit: 2; opacity: 1;"><g class="fills"/><g class="errorbars"/><g class="lines"><path class="js-line" d="M0,304.26L63.42,301.49L95.13,305.01L126.84,305.3L158.55,304.18L190.26,305.72L221.97,306.23L253.68,305.74L285.39,307.37L317.1,308.75L348.81,308.18L380.52,308.09L412.23,309.97L475.65,308.1L507.35,311.06L539.06,311.23L570.77,309.49L602.48,312.16L634.19,313.52L697.61,318.78L729.32,319.25L761.03,322.01L792.74,323.97L824.45,326.98L856.16,344.18L951.29,344.69L983,293.69" style="vector-effect: none; fill: none; stroke: rgb(247, 163, 92); stroke-opacity: 1; stroke-width: 2px; opacity: 1;"/></g><g class="points"/><g class="text"/></g><g class="trace scatter trace9a523a" style="stroke-miterlimit: 2; opacity: 1;"><g class="fills"/><g class="errorbars"/><g class="lines"><path class="js-line" d="M0,306.49L31.71,304.7L63.42,304.9L95.13,306.41L126.84,307.05L158.55,306.53L190.26,308.52L221.97,308.18L253.68,309.09L317.1,310.37L348.81,310.47L380.52,311.7L412.23,311.73L475.65,311.77L507.35,313.78L539.06,313.11L570.77,311.1L602.48,313.74L634.19,315.46L697.61,321.49L729.32,321.71L761.03,324.78L792.74,326.51L824.45,329.82L856.16,335.79L887.87,340.16L919.58,341.98L951.29,343.08L983,317.96" style="vector-effect: none; fill: none; stroke: rgb(128, 133, 233); stroke-opacity: 1; stroke-width: 2px; opacity: 1;"/></g><g class="points"/><g class="text"/></g><g class="trace scatter trace65b97b" style="stroke-miterlimit: 2; opacity: 1;"><g class="fills"/><g class="errorbars"/><g class="lines"><path class="js-line" d="M0,306.89L31.71,305.1L63.42,305.32L95.13,307.09L126.84,307.6L158.55,307.25L190.26,308.93L221.97,308.67L253.68,309.2L317.1,310.78L348.81,310.77L380.52,311.88L412.23,312.11L475.65,311.39L507.35,313.99L539.06,313.5L570.77,310.41L602.48,314.17L634.19,315.47L697.61,321.63L729.32,322.17L824.45,329.64L856.16,335.98L887.87,340.22L919.58,342.08L951.29,343.13L983,318.26" style="vector-effect: none; fill: none; stroke: rgb(241, 92, 128); stroke-opacity: 1; stroke-width: 2px; opacity: 1;"/></g><g class="points"/><g class="text"/></g><g class="trace scatter trace7afdcd" style="stroke-miterlimit: 2; opacity: 1;"><g class="fills"/><g class="errorbars"/><g class="lines"><path class="js-line" d="M0,286.95L31.71,284.96L63.42,284.29L95.13,287.62L126.84,288.22L158.55,287.72L190.26,290.5L221.97,289.8L253.68,290.27L317.1,293.19L348.81,293.02L412.23,295.03L443.94,294.01L475.65,294.65L507.35,297.56L539.06,297.1L570.77,294.54L602.48,298.48L634.19,300.85L697.61,308.58L729.32,309.93L824.45,322L856.16,332.02L887.87,338.08L919.58,340.84L951.29,342.27L983,304.57" style="vector-effect: none; fill: none; stroke: rgb(228, 211, 84); stroke-opacity: 1; stroke-width: 2px; opacity: 1;"/></g><g class="points"/><g class="text"/></g><g class="trace scatter tracecc6bcd" style="stroke-miterlimit: 2; opacity: 1;"><g class="fills"/><g class="errorbars"/><g class="lines"><path class="js-line" d="M0,289.34L31.71,287.68L63.42,288.25L126.84,290.88L158.55,290.43L190.26,292.34L221.97,292.46L253.68,292.97L285.39,294.73L317.1,295.53L348.81,294.33L380.52,297.39L412.23,297.43L475.65,295.8L507.35,299.97L570.77,298.61L602.48,300.16L634.19,301.67L665.9,305.73L697.61,310.32L729.32,310.7L792.74,317.38L824.45,321.21L856.16,343.81L887.87,344.21L951.29,344.64L983,274.36" style="vector-effect: none; fill: none; stroke: rgb(43, 144, 143); stroke-opacity: 1; stroke-width: 2px; opacity: 1;"/></g><g class="points"/><g class="text"/></g><g class="trace scatter trace1f4175" style="stroke-miterlimit: 2; opacity: 1;"><g class="fills"/><g class="errorbars"/><g class="lines"><path class="js-line" d="M0,299.99L31.71,297.45L63.42,297.86L95.13,299.84L126.84,300.68L158.55,299.96L190.26,302.16L221.97,301.94L253.68,302.59L317.1,304.29L348.81,304.23L380.52,305.79L412.23,306.02L443.94,305.35L475.65,305.83L507.35,307.91L539.06,307.78L570.77,306.02L602.48,308.68L634.19,310.51L665.9,313.42L697.61,317.65L729.32,317.49L761.03,321.19L792.74,323.44L824.45,325.33L856.16,343.96L951.29,344.67L983,286.56" style="vector-effect: none; fill: none; stroke: rgb(244, 91, 91); stroke-opacity: 1; stroke-width: 2px; opacity: 1;"/></g><g class="points"/><g class="text"/></g><g class="trace scatter tracee9ffe0" style="stroke-miterlimit: 2; opacity: 1;"><g class="fills"/><g class="errorbars"/><g class="lines"><path class="js-line" d="M0,292.94L31.71,290.8L63.42,291.01L126.84,294.3L158.55,293.44L190.26,295.82L221.97,295.71L285.39,297.36L317.1,298.45L348.81,298.14L380.52,300L475.65,299.53L507.35,302.47L570.77,300.78L602.48,302.87L634.19,305.2L665.9,308.48L697.61,313.03L729.32,313.49L761.03,317.12L792.74,319.64L824.45,323.94L856.16,343.84L951.29,344.64L983,278.04" style="vector-effect: none; fill: none; stroke: rgb(145, 232, 225); stroke-opacity: 1; stroke-width: 2px; opacity: 1;"/></g><g class="points"/><g class="text"/></g><g class="trace scatter tracebb1726" style="stroke-miterlimit: 2; opacity: 1;"><g class="fills"/><g class="errorbars"/><g class="lines"><path class="js-line" d="M0,298.75L63.42,296.79L95.13,299.2L126.84,299.91L158.55,298.92L190.26,301.48L221.97,301.62L253.68,301.6L285.39,302.68L317.1,303.94L348.81,303.82L412.23,305.58L443.94,304.73L475.65,305.13L507.35,307.23L539.06,307.02L570.77,304.46L602.48,307.98L634.19,309.83L697.61,316.12L729.32,316.7L761.03,320.03L792.74,322.46L824.45,326.05L856.16,334.24L887.87,339.29L919.58,341.53L951.29,342.76L983,313.02" style="vector-effect: none; fill: none; stroke: rgb(124, 181, 236); stroke-opacity: 1; stroke-width: 2px; opacity: 1;"/></g><g class="points"/><g class="text"/></g><g class="trace scatter trace99e019" style="stroke-miterlimit: 2; opacity: 1;"><g class="fills"/><g class="errorbars"/><g class="lines"><path class="js-line" d="M0,299.71L31.71,297.91L63.42,297.7L95.13,299.82L126.84,300.47L158.55,299.86L190.26,302.06L253.68,302.36L285.39,303.25L317.1,303.81L348.81,303.31L380.52,305.31L412.23,305.82L475.65,305.37L507.35,307.79L570.77,306.8L602.48,308.48L634.19,310.22L665.9,313.12L697.61,316.86L729.32,317.12L761.03,320.42L792.74,322.86L824.45,326.25L856.16,344.03L951.29,344.69L983,286.69" style="vector-effect: none; fill: none; stroke: rgb(67, 67, 72); stroke-opacity: 1; stroke-width: 2px; opacity: 1;"/></g><g class="points"/><g class="text"/></g><g class="trace scatter trace8dc696" style="stroke-miterlimit: 2; opacity: 1;"><g class="fills"/><g class="errorbars"/><g class="lines"><path class="js-line" d="M0,289.44L31.71,288.16L63.42,287.92L126.84,291.28L158.55,290.81L190.26,292.47L221.97,292.38L253.68,292.93L285.39,294.62L317.1,295.75L348.81,294.28L380.52,297.09L412.23,297.59L443.94,296.94L475.65,295.5L507.35,299.65L539.06,299.07L570.77,297.91L602.48,300.29L665.9,305.48L697.61,309.54L729.32,309.7L761.03,313.11L824.45,320.77L856.16,343.89L951.29,344.63L983,275.43" style="vector-effect: none; fill: none; stroke: rgb(144, 237, 125); stroke-opacity: 1; stroke-width: 2px; opacity: 1;"/></g><g class="points"/><g class="text"/></g><g class="trace scatter trace857df7" style="stroke-miterlimit: 2; opacity: 1;"><g class="fills"/><g class="errorbars"/><g class="lines"><path class="js-line" d="M0,303.86L31.71,302.44L63.42,302.04L95.13,304.26L126.84,304.79L158.55,304.11L190.26,306.11L253.68,306.22L285.39,307.32L317.1,308.32L348.81,307.76L380.52,309.08L412.23,309.56L475.65,308.84L507.35,311.3L539.06,311.09L570.77,308.76L602.48,311.81L634.19,313.47L697.61,319.43L729.32,319.7L824.45,328.22L856.16,344.13L951.29,344.68L983,292.16" style="vector-effect: none; fill: none; stroke: rgb(247, 163, 92); stroke-opacity: 1; stroke-width: 2px; opacity: 1;"/></g><g class="points"/><g class="text"/></g><g class="trace scatter traceef5d29" style="stroke-miterlimit: 2; opacity: 1;"><g class="fills"/><g class="errorbars"/><g class="lines"><path class="js-line" d="M0,306.05L31.71,304.36L63.42,304.36L95.13,306.31L126.84,306.88L158.55,306.18L190.26,307.86L253.68,308.33L285.39,309.34L317.1,310.03L348.81,309.81L412.23,311.58L443.94,310.96L475.65,311.12L507.35,312.8L539.06,312.9L570.77,308.77L602.48,313.52L634.19,314.98L665.9,317.61L697.61,321.09L729.32,321.07L761.03,324L824.45,328.33L856.16,344.13L951.29,344.7L983,295.05" style="vector-effect: none; fill: none; stroke: rgb(128, 133, 233); stroke-opacity: 1; stroke-width: 2px; opacity: 1;"/></g><g class="points"/><g class="text"/></g><g class="trace scatter tracec007f3" style="stroke-miterlimit: 2; opacity: 1;"><g class="fills"/><g class="errorbars"/><g class="lines"><path class="js-line" d="M0,335.48L63.42,335.04L95.13,335.71L443.94,336.68L475.65,336.44L507.35,337.27L539.06,337.16L634.19,337.84L665.9,338.28L824.45,340.75L856.16,344.72L951.29,344.84L983,333.11" style="vector-effect: none; fill: none; stroke: rgb(241, 92, 128); stroke-opacity: 1; stroke-width: 2px; opacity: 1;"/></g><g class="points"/><g class="text"/></g><g class="trace scatter tracea0703e" style="stroke-miterlimit: 2; opacity: 1;"><g class="fills"/><g class="errorbars"/><g class="lines"><path class="js-line" d="M0,258.4L31.71,254.3L63.42,254.89L95.13,258.53L126.84,259.89L158.55,259.41L190.26,263.5L221.97,262.25L253.68,263.95L285.39,266.06L317.1,266.99L348.81,267.4L380.52,270L412.23,270.15L443.94,269.03L475.65,269.34L507.35,274.21L539.06,273.44L570.77,269.77L602.48,274.84L634.19,278.01L665.9,284.49L697.61,292.55L729.32,293.04L761.03,300.04L792.74,305.21L824.45,309.42L856.16,325.04L887.87,334.61L919.58,338.56L951.29,340.91L983,284.7" style="vector-effect: none; fill: none; stroke: rgb(228, 211, 84); stroke-opacity: 1; stroke-width: 2px; opacity: 1;"/></g><g class="points"/><g class="text"/></g><g class="trace scatter tracecd0b9e" style="stroke-miterlimit: 2; opacity: 1;"><g class="fills"/><g class="errorbars"/><g class="lines"><path class="js-line" d="M0,277.96L31.71,277.93L63.42,271.19L95.13,280.48L126.84,280.19L158.55,278.52L190.26,280.97L221.97,282L253.68,278.58L317.1,286.17L348.81,285.58L380.52,281.61L412.23,288.15L443.94,284.27L475.65,285.51L507.35,289L539.06,290.02L570.77,288.05L602.48,292.02L697.61,300.11L729.32,304.57L761.03,309.12L792.74,312.1L824.45,314.28L856.16,343.64L919.58,344.61L951.29,344.6L983,262.43" style="vector-effect: none; fill: none; stroke: rgb(43, 144, 143); stroke-opacity: 1; stroke-width: 2px; opacity: 1;"/></g><g class="points"/><g class="text"/></g><g class="trace scatter trace5669bd" style="stroke-miterlimit: 2; opacity: 1;"><g class="fills"/><g class="errorbars"/><g class="lines"><path class="js-line" d="M0,284.73L31.71,283.88L63.42,281.26L95.13,286.3L126.84,286.72L158.55,286.15L190.26,288.1L221.97,288.26L253.68,287.31L317.1,291.9L348.81,291.4L380.52,290.61L412.23,293.99L443.94,291.44L475.65,291.91L507.35,295.58L539.06,295.56L570.77,292.61L602.48,297.09L634.19,298.78L665.9,302.27L697.61,306.23L729.32,308.34L824.45,320.28L856.16,343.83L951.29,344.62L983,269.81" style="vector-effect: none; fill: none; stroke: rgb(244, 91, 91); stroke-opacity: 1; stroke-width: 2px; opacity: 1;"/></g><g class="points"/><g class="text"/></g><g class="trace scatter tracec61459" style="stroke-miterlimit: 2; opacity: 1;"><g class="fills"/><g class="errorbars"/><g class="lines"><path class="js-line" d="M0,304.84L31.71,303.13L63.42,302.73L95.13,304.82L126.84,305.44L158.55,304.88L190.26,306.98L221.97,306.63L253.68,307.08L317.1,309.03L348.81,308.82L412.23,310.19L443.94,309.72L475.65,309.27L507.35,312.01L539.06,311.67L570.77,310.5L665.9,316.8L697.61,319.93L729.32,320.4L761.03,323.53L824.45,328.12L856.16,335.6L887.87,340.09L919.58,341.95L951.29,343.04L983,316.75" style="vector-effect: none; fill: none; stroke: rgb(145, 232, 225); stroke-opacity: 1; stroke-width: 2px; opacity: 1;"/></g><g class="points"/><g class="text"/></g><g class="trace scatter traceb6e332" style="stroke-miterlimit: 2; opacity: 1;"><g class="fills"/><g class="errorbars"/><g class="lines"><path class="js-line" d="M0,307L31.71,305.55L63.42,305.19L95.13,307.23L126.84,307.68L158.55,307.22L190.26,309.05L253.68,309.16L285.39,310L317.1,310.98L348.81,310.75L412.23,312.09L443.94,311.71L475.65,312.01L507.35,314L539.06,313.54L570.77,310.99L602.48,314.27L634.19,315.84L697.61,321.18L729.32,321.9L761.03,324.64L792.74,326.41L824.45,329.68L856.16,336.42L887.87,340.43L919.58,342.22L951.29,343.19L983,318.4" style="vector-effect: none; fill: none; stroke: rgb(124, 181, 236); stroke-opacity: 1; stroke-width: 2px; opacity: 1;"/></g><g class="points"/><g class="text"/></g><g class="trace scatter trace42126e" style="stroke-miterlimit: 2; opacity: 1;"><g class="fills"/><g class="errorbars"/><g class="lines"><path class="js-line" d="M0,296.71L31.71,294.91L63.42,294.76L95.13,297.22L126.84,297.99L158.55,297.45L190.26,299.42L221.97,299.21L253.68,299.77L317.1,301.87L348.81,301.84L412.23,303.58L443.94,302.94L475.65,302.92L507.35,305.65L539.06,305.35L570.77,303.56L665.9,311.23L697.61,314.96L729.32,315.66L761.03,319.33L792.74,321.64L824.45,325.74L856.16,333.86L887.87,339.19L919.58,341.4L951.29,342.68L983,311.45" style="vector-effect: none; fill: none; stroke: rgb(67, 67, 72); stroke-opacity: 1; stroke-width: 2px; opacity: 1;"/></g><g class="points"/><g class="text"/></g><g class="trace scatter trace0010ae" style="stroke-miterlimit: 2; opacity: 1;"><g class="fills"/><g class="errorbars"/><g class="lines"><path class="js-line" d="M0,298.88L31.71,297.16L63.42,296.68L95.13,299.05L126.84,299.77L158.55,299.21L190.26,301.44L221.97,300.91L253.68,301.65L317.1,303.72L348.81,303.25L380.52,304.87L412.23,305.34L475.65,304.29L507.35,307.51L570.77,306.15L602.48,307.84L634.19,309.81L665.9,312.65L697.61,316.27L729.32,316.6L761.03,319.96L792.74,322.48L824.45,325.98L856.16,344.04L951.29,344.67L983,285.97" style="vector-effect: none; fill: none; stroke: rgb(144, 237, 125); stroke-opacity: 1; stroke-width: 2px; opacity: 1;"/></g><g class="points"/><g class="text"/></g><g class="trace scatter trace15f69f" style="stroke-miterlimit: 2; opacity: 1;"><g class="fills"/><g class="errorbars"/><g class="lines"><path class="js-line" d="M0,286.36L31.71,284.96L63.42,281.99L95.13,287.39L126.84,287.55L158.55,286.65L190.26,289.07L221.97,289.21L253.68,288.2L317.1,292.83L348.81,291.89L380.52,291.45L412.23,294.65L443.94,292.64L475.65,293.81L507.35,296.26L539.06,296.67L570.77,292.18L602.48,298.04L634.19,300.17L665.9,303.34L729.32,309.13L761.03,313.33L792.74,316.27L824.45,320.19L856.16,332.14L887.87,338.47L919.58,341.03L951.29,342.44L983,304.49" style="vector-effect: none; fill: none; stroke: rgb(247, 163, 92); stroke-opacity: 1; stroke-width: 2px; opacity: 1;"/></g><g class="points"/><g class="text"/></g><g class="trace scatter trace0ccbaa" style="stroke-miterlimit: 2; opacity: 1;"><g class="fills"/><g class="errorbars"/><g class="lines"><path class="js-line" d="M0,292.25L31.71,290.68L63.42,291.87L95.13,292.47L126.84,294.11L158.55,293.57L190.26,295.41L221.97,295.32L253.68,296.31L285.39,297.84L317.1,298.36L348.81,297.22L380.52,300.69L412.23,299.72L443.94,299.96L475.65,297.58L507.35,302.16L570.77,300.77L602.48,302.81L634.19,304.81L665.9,308.01L697.61,312.34L729.32,312.22L792.74,318.7L824.45,321.92L856.16,343.85L887.87,344.3L951.29,344.65L983,278.65" style="vector-effect: none; fill: none; stroke: rgb(128, 133, 233); stroke-opacity: 1; stroke-width: 2px; opacity: 1;"/></g><g class="points"/><g class="text"/></g><g class="trace scatter trace505986" style="stroke-miterlimit: 2; opacity: 1;"><g class="fills"/><g class="errorbars"/><g class="lines"><path class="js-line" d="M0,282.64L31.71,281.75L63.42,282.14L126.84,285.24L158.55,284.99L190.26,286.39L221.97,286.63L253.68,287.19L285.39,289.31L317.1,290.38L348.81,289L380.52,292.17L412.23,291.95L475.65,290.51L507.35,294.52L539.06,294.13L570.77,290.99L602.48,295.58L634.19,297.3L697.61,305.37L729.32,306.28L792.74,314.32L824.45,316.83L856.16,343.68L887.87,344.17L951.29,344.58L983,268.08" style="vector-effect: none; fill: none; stroke: rgb(241, 92, 128); stroke-opacity: 1; stroke-width: 2px; opacity: 1;"/></g><g class="points"/><g class="text"/></g><g class="trace scatter trace7d0f84" style="stroke-miterlimit: 2; opacity: 1;"><g class="fills"/><g class="errorbars"/><g class="lines"><path class="js-line" d="M0,276.58L31.71,274.64L63.42,274.65L95.13,277.17L126.84,278.23L158.55,277.63L190.26,280.49L221.97,280.22L253.68,280.84L317.1,284.13L348.81,283.36L380.52,285.88L412.23,286.25L443.94,285.37L475.65,285.57L507.35,289.53L539.06,288.76L570.77,287.8L602.48,290.2L634.19,293.2L665.9,297.11L697.61,301.95L729.32,304.12L792.74,312.96L824.45,317.34L856.16,329.11L887.87,336.91L919.58,340.1L951.29,341.85L983,298.01" style="vector-effect: none; fill: none; stroke: rgb(228, 211, 84); stroke-opacity: 1; stroke-width: 2px; opacity: 1;"/></g><g class="points"/><g class="text"/></g><g class="trace scatter trace11f6ca" style="stroke-miterlimit: 2; opacity: 1;"><g class="fills"/><g class="errorbars"/><g class="lines"><path class="js-line" d="M0,308.67L63.42,306.88L95.13,309.08L126.84,309.45L158.55,308.95L190.26,310.86L221.97,310.35L412.23,313.79L443.94,313.21L475.65,313.52L507.35,315.31L539.06,315.12L570.77,313.52L602.48,315.94L634.19,317.44L697.61,322.18L729.32,323.04L761.03,325.72L792.74,327.34L824.45,330.21L856.16,337.04L887.87,340.79L919.58,342.43L951.29,343.3L983,319.73" style="vector-effect: none; fill: none; stroke: rgb(43, 144, 143); stroke-opacity: 1; stroke-width: 2px; opacity: 1;"/></g><g class="points"/><g class="text"/></g><g class="trace scatter trace3ca1a1" style="stroke-miterlimit: 2; opacity: 1;"><g class="fills"/><g class="errorbars"/><g class="lines"><path class="js-line" d="M0,291.09L63.42,287.54L95.13,291.65L126.84,292.08L158.55,291.44L190.26,294.03L221.97,293.72L253.68,293.79L285.39,294.88L317.1,296.64L348.81,296.82L412.23,298.38L443.94,297.07L475.65,297.61L507.35,300.77L539.06,300.68L570.77,298.59L602.48,301.78L634.19,303.99L665.9,307.19L697.61,311.89L729.32,313.15L761.03,316.96L824.45,322.93L856.16,343.81L951.29,344.63L983,275.77" style="vector-effect: none; fill: none; stroke: rgb(244, 91, 91); stroke-opacity: 1; stroke-width: 2px; opacity: 1;"/></g><g class="points"/><g class="text"/></g><g class="trace scatter trace6b04ca" style="stroke-miterlimit: 2; opacity: 1;"><g class="fills"/><g class="errorbars"/><g class="lines"><path class="js-line" d="M0,316.62L63.42,315.33L95.13,316.77L158.55,316.96L190.26,318.54L221.97,317.93L253.68,318.41L412.23,320.57L443.94,320.05L475.65,320.23L507.35,322.07L539.06,321.8L570.77,320.11L602.48,322.48L634.19,323.59L697.61,327.81L729.32,328.56L792.74,332.28L824.45,333.36L856.16,338.49L887.87,341.6L951.29,343.61L983,325.17" style="vector-effect: none; fill: none; stroke: rgb(145, 232, 225); stroke-opacity: 1; stroke-width: 2px; opacity: 1;"/></g><g class="points"/><g class="text"/></g><g class="trace scatter trace363bcf" style="stroke-miterlimit: 2; opacity: 1;"><g class="fills"/><g class="errorbars"/><g class="lines"><path class="js-line" d="M0,282.28L31.71,280.77L63.42,280.04L95.13,283.09L126.84,284.06L158.55,283.38L190.26,286.16L221.97,285.57L253.68,285.83L317.1,289.26L348.81,288.86L412.23,291.36L443.94,289.88L475.65,290.8L507.35,294.05L570.77,293.03L602.48,294.75L634.19,296.82L665.9,301.04L761.03,311.61L792.74,315.33L824.45,319.84L856.16,330.27L887.87,337.53L919.58,340.47L951.29,342.04L983,301.51" style="vector-effect: none; fill: none; stroke: rgb(124, 181, 236); stroke-opacity: 1; stroke-width: 2px; opacity: 1;"/></g><g class="points"/><g class="text"/></g><g class="trace scatter trace233595" style="stroke-miterlimit: 2; opacity: 1;"><g class="fills"/><g class="errorbars"/><g class="lines"><path class="js-line" d="M0,280.55L31.71,280.24L63.42,274.97L95.13,282.8L126.84,282.29L158.55,281.35L190.26,283.63L221.97,284.33L253.68,281.69L317.1,287.95L348.81,287.89L380.52,284.8L412.23,290.2L443.94,286.85L475.65,288.72L507.35,291.38L539.06,291.56L570.77,291.31L602.48,293.76L665.9,298.95L697.61,302.45L729.32,305.77L761.03,310.6L792.74,313.3L824.45,319.03L856.16,343.75L887.87,344.19L951.29,344.62L983,265.49" style="vector-effect: none; fill: none; stroke: rgb(67, 67, 72); stroke-opacity: 1; stroke-width: 2px; opacity: 1;"/></g><g class="points"/><g class="text"/></g><g class="trace scatter trace5476e3" style="stroke-miterlimit: 2; opacity: 1;"><g class="fills"/><g class="errorbars"/><g class="lines"><path class="js-line" d="M0,296.51L31.71,294.41L63.42,293.78L95.13,296.76L126.84,297.16L158.55,296.88L190.26,299.07L253.68,299.28L285.39,300.54L317.1,301.55L348.81,300.79L380.52,302.46L412.23,303.33L443.94,302.31L475.65,302.77L507.35,305.35L539.06,304.77L570.77,301.33L602.48,305.95L634.19,307.77L665.9,311.17L697.61,315.24L729.32,315.87L761.03,319.97L792.74,321.94L824.45,325.08L856.16,333.56L887.87,339L919.58,341.28L951.29,342.67L983,310.82" style="vector-effect: none; fill: none; stroke: rgb(144, 237, 125); stroke-opacity: 1; stroke-width: 2px; opacity: 1;"/></g><g class="points"/><g class="text"/></g><g class="trace scatter trace14960e" style="stroke-miterlimit: 2; opacity: 1;"><g class="fills"/><g class="errorbars"/><g class="lines"><path class="js-line" d="M0,282.39L31.71,279.63L63.42,280.04L95.13,282.41L126.84,283.85L158.55,282.7L190.26,286.33L221.97,285.13L253.68,286.57L317.1,289.06L348.81,288.99L380.52,291.06L412.23,290.67L475.65,289.98L507.35,294.3L539.06,293.55L570.77,290.06L602.48,294.58L634.19,297.36L665.9,301.64L697.61,306.71L729.32,307.71L761.03,312.32L792.74,315.41L824.45,320.67L856.16,330.9L887.87,337.7L919.58,340.55L951.29,342.09L983,301.18" style="vector-effect: none; fill: none; stroke: rgb(247, 163, 92); stroke-opacity: 1; stroke-width: 2px; opacity: 1;"/></g><g class="points"/><g class="text"/></g><g class="trace scatter trace9a9c45" style="stroke-miterlimit: 2; opacity: 1;"><g class="fills"/><g class="errorbars"/><g class="lines"><path class="js-line" d="M0,299.7L63.42,296.66L95.13,300.14L126.84,300.68L158.55,300.03L190.26,301.73L221.97,301.95L253.68,301.26L285.39,303.47L317.1,304.28L348.81,304.04L380.52,304.14L412.23,306.1L443.94,304.56L475.65,305.28L507.35,307.22L539.06,307.25L570.77,305.66L602.48,308.41L665.9,312.77L697.61,315.78L729.32,316.76L761.03,320.43L792.74,322.15L824.45,324.98L856.16,335.69L887.87,340.25L951.29,343.14L983,313.62" style="vector-effect: none; fill: none; stroke: rgb(128, 133, 233); stroke-opacity: 1; stroke-width: 2px; opacity: 1;"/></g><g class="points"/><g class="text"/></g><g class="trace scatter trace0fcade" style="stroke-miterlimit: 2; opacity: 1;"><g class="fills"/><g class="errorbars"/><g class="lines"><path class="js-line" d="M0,285.03L31.71,282.82L63.42,282.28L95.13,285.53L126.84,286.22L158.55,285.66L190.26,288.72L221.97,287.92L253.68,288.92L285.39,289.61L317.1,291.35L348.81,291.38L380.52,292.79L412.23,293.27L443.94,292.49L475.65,292.34L507.35,296.37L539.06,295.68L570.77,292.18L602.48,296.92L634.19,299.62L665.9,303.31L697.61,308.51L729.32,309.71L761.03,313.9L824.45,320.85L856.16,343.79L951.29,344.61L983,267.88" style="vector-effect: none; fill: none; stroke: rgb(241, 92, 128); stroke-opacity: 1; stroke-width: 2px; opacity: 1;"/></g><g class="points"/><g class="text"/></g><g class="trace scatter tracecc88fc" style="stroke-miterlimit: 2; opacity: 1;"><g class="fills"/><g class="errorbars"/><g class="lines"><path class="js-line" d="M0,298.32L31.71,296.63L63.42,296.21L95.13,298.4L126.84,299.43L158.55,298.9L190.26,300.93L221.97,300.62L253.68,301.38L317.1,303.19L348.81,303.01L380.52,304.5L412.23,304.9L475.65,303.56L507.35,307.1L539.06,306.7L570.77,304.52L602.48,307.52L634.19,309.22L697.61,316.19L729.32,316.73L824.45,326.57L856.16,344.04L951.29,344.68L983,284.93" style="vector-effect: none; fill: none; stroke: rgb(228, 211, 84); stroke-opacity: 1; stroke-width: 2px; opacity: 1;"/></g><g class="points"/><g class="text"/></g><g class="trace scatter trace9416d9" style="stroke-miterlimit: 2; opacity: 1;"><g class="fills"/><g class="errorbars"/><g class="lines"><path class="js-line" d="M0,92.31L31.71,80.87L63.42,83.91L95.13,93.07L126.84,96.44L158.55,94.9L190.26,105.91L221.97,103.26L253.68,107.89L285.39,114.81L317.1,117.68L348.81,118.09L380.52,126.88L412.23,125.57L443.94,123.38L475.65,128.02L507.35,138.38L539.06,134.86L570.77,118.43L602.48,140.19L634.19,149.76L665.9,167.21L697.61,190.68L729.32,192.01L761.03,212.61L792.74,225.68L824.45,244.98L856.16,340.03L887.87,342.42L919.58,343.74L951.29,343.8L983,18.15" style="vector-effect: none; fill: none; stroke: rgb(43, 144, 143); stroke-opacity: 1; stroke-width: 2px; opacity: 1;"/></g><g class="points"/><g class="text"/></g><g class="trace scatter tracea935e0" style="stroke-miterlimit: 2; opacity: 1;"><g class="fills"/><g class="errorbars"/><g class="lines"><path class="js-line" d="M0,293.36L31.71,290.75L63.42,291.26L95.13,293.18L126.84,294.11L158.55,293.79L190.26,296.05L221.97,295.47L253.68,296.56L317.1,298.62L348.81,298.18L380.52,300.26L412.23,300.37L475.65,300.18L507.35,302.81L570.77,301.19L602.48,303.02L634.19,305.03L665.9,308.86L697.61,313.16L729.32,313.39L761.03,317.5L792.74,320.25L824.45,323.18L856.16,332.97L887.87,338.69L919.58,341.13L951.29,342.49L983,308.76" style="vector-effect: none; fill: none; stroke: rgb(244, 91, 91); stroke-opacity: 1; stroke-width: 2px; opacity: 1;"/></g><g class="points"/><g class="text"/></g><g class="trace scatter trace1d4fb3" style="stroke-miterlimit: 2; opacity: 1;"><g class="fills"/><g class="errorbars"/><g class="lines"><path class="js-line" d="M0,295.54L31.71,294.76L63.42,292.96L95.13,296.41L126.84,297.2L158.55,296.22L190.26,298.02L221.97,298.5L253.68,297.87L317.1,301.35L348.81,299.85L412.23,302.76L443.94,301.79L475.65,300.85L507.35,304.15L539.06,304.31L570.77,302.96L602.48,305.32L634.19,306.92L665.9,309.55L697.61,313.07L729.32,313.6L761.03,316.64L824.45,323.16L856.16,343.9L951.29,344.66L983,283.35" style="vector-effect: none; fill: none; stroke: rgb(145, 232, 225); stroke-opacity: 1; stroke-width: 2px; opacity: 1;"/></g><g class="points"/><g class="text"/></g><g class="trace scatter trace9cb95c" style="stroke-miterlimit: 2; opacity: 1;"><g class="fills"/><g class="errorbars"/><g class="lines"><path class="js-line" d="M0,293.13L31.71,291.51L63.42,290.95L95.13,293.78L126.84,294.62L158.55,293.92L190.26,296.24L253.68,296.58L285.39,297.27L317.1,298.77L348.81,298.47L412.23,300.73L443.94,299.66L475.65,299.56L507.35,302.76L539.06,302.67L570.77,299.81L602.48,303.49L634.19,305.35L665.9,308.77L697.61,313.09L729.32,314.16L761.03,317.64L792.74,320.4L824.45,324.39L856.16,333.08L887.87,338.77L919.58,341.19L951.29,342.5L983,309.21" style="vector-effect: none; fill: none; stroke: rgb(124, 181, 236); stroke-opacity: 1; stroke-width: 2px; opacity: 1;"/></g><g class="points"/><g class="text"/></g><g class="trace scatter tracec1bf1d" style="stroke-miterlimit: 2; opacity: 1;"><g class="fills"/><g class="errorbars"/><g class="lines"><path class="js-line" d="M0,283.4L63.42,279.88L95.13,283.91L126.84,284.75L158.55,283.97L190.26,286.9L221.97,286.39L285.39,287.88L317.1,290L348.81,289.76L380.52,290.8L412.23,291.72L443.94,290.62L475.65,290.51L507.35,294.52L570.77,293.92L602.48,295.58L665.9,301.78L697.61,306.91L729.32,308.07L761.03,312.54L792.74,315.74L824.45,321.08L856.16,343.77L887.87,344.19L951.29,344.61L983,265.98" style="vector-effect: none; fill: none; stroke: rgb(67, 67, 72); stroke-opacity: 1; stroke-width: 2px; opacity: 1;"/></g><g class="points"/><g class="text"/></g><g class="trace scatter trace73f7ea" style="stroke-miterlimit: 2; opacity: 1;"><g class="fills"/><g class="errorbars"/><g class="lines"><path class="js-line" d="M0,286.59L63.42,284.29L95.13,287.44L126.84,288.2L158.55,288.05L190.26,289.76L221.97,289.57L253.68,289.59L285.39,291.43L317.1,293.04L348.81,292.51L380.52,293.4L412.23,295.21L475.65,293.2L507.35,297.32L539.06,296.91L570.77,297.59L602.48,298.33L634.19,301L729.32,309.44L761.03,313.09L792.74,316.34L824.45,321.03L856.16,331.82L887.87,338.26L919.58,340.92L951.29,342.37L983,304.85" style="vector-effect: none; fill: none; stroke: rgb(144, 237, 125); stroke-opacity: 1; stroke-width: 2px; opacity: 1;"/></g><g class="points"/><g class="text"/></g><g class="trace scatter traceb241b4" style="stroke-miterlimit: 2; opacity: 1;"><g class="fills"/><g class="errorbars"/><g class="lines"><path class="js-line" d="M0,335.41L63.42,334.9L95.13,335.48L412.23,336.84L443.94,336.51L602.48,337.26L634.19,337.67L824.45,340.71L856.16,342.76L919.58,344.23L951.29,344.48L983,338.32" style="vector-effect: none; fill: none; stroke: rgb(247, 163, 92); stroke-opacity: 1; stroke-width: 2px; opacity: 1;"/></g><g class="points"/><g class="text"/></g><g class="trace scatter trace87f1b8" style="stroke-miterlimit: 2; opacity: 1;"><g class="fills"/><g class="errorbars"/><g class="lines"><path class="js-line" d="M0,331.26L95.13,331.4L126.84,331.69L253.68,332.11L285.39,332.58L412.23,333.32L443.94,333.14L475.65,332.74L507.35,333.87L602.48,334.11L634.19,334.6L824.45,339.05L856.16,344.62L951.29,344.82L983,327.67" style="vector-effect: none; fill: none; stroke: rgb(128, 133, 233); stroke-opacity: 1; stroke-width: 2px; opacity: 1;"/></g><g class="points"/><g class="text"/></g><g class="trace scatter tracef972ed" style="stroke-miterlimit: 2; opacity: 1;"><g class="fills"/><g class="errorbars"/><g class="lines"><path class="js-line" d="M0,296.33L63.42,294.04L95.13,296.85L126.84,297.66L158.55,296.99L190.26,298.85L221.97,298.85L253.68,298.75L285.39,300.45L317.1,301.72L348.81,301.62L380.52,302.05L412.23,303.37L443.94,302.11L475.65,301.91L507.35,305.18L539.06,304.93L570.77,303.83L602.48,306L665.9,310.46L697.61,314.11L729.32,315.47L761.03,318.9L792.74,321.35L824.45,325.4L856.16,343.98L887.87,344.37L951.29,344.65L983,283.74" style="vector-effect: none; fill: none; stroke: rgb(241, 92, 128); stroke-opacity: 1; stroke-width: 2px; opacity: 1;"/></g><g class="points"/><g class="text"/></g><g class="trace scatter tracea90627" style="stroke-miterlimit: 2; opacity: 1;"><g class="fills"/><g class="errorbars"/><g class="lines"><path class="js-line" d="M0,333.17L95.13,333.23L126.84,333.47L253.68,333.82L285.39,334.33L443.94,334.73L475.65,334.56L507.35,335.41L539.06,335.33L570.77,335.03L602.48,335.59L761.03,338.45L792.74,339.34L824.45,339.71L856.16,342.04L887.87,343.46L919.58,344.02L951.29,344.35L983,336.9" style="vector-effect: none; fill: none; stroke: rgb(228, 211, 84); stroke-opacity: 1; stroke-width: 2px; opacity: 1;"/></g><g class="points"/><g class="text"/></g><g class="trace scatter trace9f3406" style="stroke-miterlimit: 2; opacity: 1;"><g class="fills"/><g class="errorbars"/><g class="lines"><path class="js-line" d="M0,253.47L31.71,249.65L63.42,250.66L95.13,254.06L126.84,255.43L158.55,254.57L190.26,258.24L221.97,258.09L253.68,259.1L285.39,261.64L317.1,263.03L348.81,262.64L380.52,266.07L412.23,266.14L443.94,265.08L475.65,266.38L507.35,270.69L539.06,269.33L570.77,269.57L602.48,270.72L634.19,273.59L697.61,288.58L729.32,289.23L761.03,296.56L792.74,300.88L824.45,306.91L856.16,343.08L919.58,344.49L951.29,344.45L983,227.27" style="vector-effect: none; fill: none; stroke: rgb(43, 144, 143); stroke-opacity: 1; stroke-width: 2px; opacity: 1;"/></g><g class="points"/><g class="text"/></g><g class="trace scatter trace727dae" style="stroke-miterlimit: 2; opacity: 1;"><g class="fills"/><g class="errorbars"/><g class="lines"><path class="js-line" d="M0,306.81L31.71,305.1L63.42,305.3L95.13,306.82L126.84,307.48L158.55,307.25L190.26,309.09L221.97,308.55L253.68,309.41L317.1,310.76L348.81,310.83L380.52,312.08L412.23,312.05L475.65,311.97L507.35,314.04L570.77,313.22L602.48,314.04L634.19,315.79L665.9,318.4L697.61,321.73L729.32,321.71L761.03,324.83L792.74,326.77L824.45,329.5L856.16,344.14L951.29,344.7L983,295.21" style="vector-effect: none; fill: none; stroke: rgb(244, 91, 91); stroke-opacity: 1; stroke-width: 2px; opacity: 1;"/></g><g class="points"/><g class="text"/></g><g class="trace scatter tracecc3b74" style="stroke-miterlimit: 2; opacity: 1;"><g class="fills"/><g class="errorbars"/><g class="lines"><path class="js-line" d="M0,285.59L31.71,283.19L63.42,281.98L95.13,285.79L126.84,286.56L158.55,285.46L190.26,289.1L221.97,287.92L253.68,288.66L285.39,289.73L317.1,291.6L380.52,292.77L412.23,293.62L443.94,292.48L475.65,293.89L507.35,296.39L539.06,295.85L570.77,292.35L602.48,297.23L634.19,299.92L665.9,303.68L697.61,308.01L729.32,309.8L761.03,314.37L792.74,317.07L824.45,321.78L856.16,332.06L887.87,338.21L919.58,340.84L951.29,342.28L983,303.13" style="vector-effect: none; fill: none; stroke: rgb(145, 232, 225); stroke-opacity: 1; stroke-width: 2px; opacity: 1;"/></g><g class="points"/><g class="text"/></g><g class="trace scatter trace17c749" style="stroke-miterlimit: 2; opacity: 1;"><g class="fills"/><g class="errorbars"/><g class="lines"><path class="js-line" d="M0,302.66L31.71,300.86L63.42,300.26L95.13,302.87L126.84,303.15L158.55,302.7L190.26,304.65L253.68,304.49L285.39,305.94L317.1,306.93L348.81,306.5L412.23,308.3L443.94,307.39L475.65,307.85L507.35,309.94L539.06,309.7L570.77,307.92L602.48,310.75L634.19,312.16L697.61,318.14L729.32,318.97L761.03,322.09L792.74,324.27L824.45,327.03L856.16,335.43L887.87,339.98L919.58,341.92L951.29,343L983,315.25" style="vector-effect: none; fill: none; stroke: rgb(124, 181, 236); stroke-opacity: 1; stroke-width: 2px; opacity: 1;"/></g><g class="points"/><g class="text"/></g><g class="trace scatter traceefaf3d" style="stroke-miterlimit: 2; opacity: 1;"><g class="fills"/><g class="errorbars"/><g class="lines"><path class="js-line" d="M0,295.25L63.42,292.48L95.13,295.74L126.84,296.49L158.55,295.68L190.26,297.91L221.97,297.76L253.68,298.08L285.39,299.49L317.1,300.6L348.81,300.42L380.52,301.09L412.23,302.59L443.94,301.12L475.65,301.78L507.35,304L539.06,303.98L570.77,300.89L602.48,304.86L634.19,306.92L665.9,310.15L697.61,314.01L729.32,314.89L761.03,318.64L792.74,321.44L824.45,324.93L856.16,333.38L887.87,338.88L919.58,341.25L951.29,342.61L983,310.31" style="vector-effect: none; fill: none; stroke: rgb(67, 67, 72); stroke-opacity: 1; stroke-width: 2px; opacity: 1;"/></g><g class="points"/><g class="text"/></g><g class="trace scatter trace0831ca" style="stroke-miterlimit: 2; opacity: 1;"><g class="fills"/><g class="errorbars"/><g class="lines"><path class="js-line" d="M0,287.81L31.71,286.81L63.42,284.9L95.13,288.93L126.84,289.47L158.55,288.92L190.26,291.02L253.68,290.42L285.39,292.35L317.1,294.29L348.81,293.79L380.52,293.67L412.23,296.22L443.94,294.59L475.65,295.01L507.35,297.99L539.06,298.13L570.77,295.76L602.48,299.29L634.19,300.95L665.9,304.68L697.61,307.87L729.32,310L792.74,317.05L824.45,321.59L856.16,331.58L887.87,338.14L919.58,340.86L951.29,342.36L983,305.88" style="vector-effect: none; fill: none; stroke: rgb(144, 237, 125); stroke-opacity: 1; stroke-width: 2px; opacity: 1;"/></g><g class="points"/><g class="text"/></g><g class="trace scatter trace834fdc" style="stroke-miterlimit: 2; opacity: 1;"><g class="fills"/><g class="errorbars"/><g class="lines"><path class="js-line" d="M0,278.1L31.71,274.7L63.42,275.65L95.13,277.76L126.84,278.83L158.55,277.86L190.26,281.46L221.97,280.93L253.68,282.39L317.1,284.42L348.81,284.72L380.52,287.21L412.23,286.64L443.94,286.36L475.65,287.31L507.35,290.4L539.06,289.54L570.77,288.46L602.48,290.74L634.19,293.6L665.9,298.29L697.61,304.32L729.32,304.66L761.03,310.23L792.74,313.19L824.45,318.83L856.16,329.68L887.87,336.92L919.58,339.95L951.29,341.81L983,298.14" style="vector-effect: none; fill: none; stroke: rgb(247, 163, 92); stroke-opacity: 1; stroke-width: 2px; opacity: 1;"/></g><g class="points"/><g class="text"/></g><g class="trace scatter traceae5d48" style="stroke-miterlimit: 2; opacity: 1;"><g class="fills"/><g class="errorbars"/><g class="lines"><path class="js-line" d="M0,299.69L63.42,298.18L95.13,300.57L126.84,301.19L158.55,300.98L190.26,302.57L221.97,302.21L253.68,302.11L285.39,303.65L317.1,305.01L348.81,304.57L412.23,306.56L443.94,305.52L475.65,305.7L507.35,308.33L570.77,307.3L602.48,309.1L665.9,313.28L697.61,316.04L729.32,317.98L761.03,320.69L824.45,326.7L856.16,334.65L887.87,339.75L919.58,341.81L951.29,342.96L983,314.13" style="vector-effect: none; fill: none; stroke: rgb(128, 133, 233); stroke-opacity: 1; stroke-width: 2px; opacity: 1;"/></g><g class="points"/><g class="text"/></g><g class="trace scatter trace330740" style="stroke-miterlimit: 2; opacity: 1;"><g class="fills"/><g class="errorbars"/><g class="lines"><path class="js-line" d="M0,320.57L63.42,319.37L95.13,320.93L158.55,320.9L190.26,322.09L253.68,321.89L285.39,322.57L348.81,323.18L380.52,323.48L412.23,324.09L443.94,323.46L475.65,323.85L507.35,325.22L539.06,324.85L570.77,325.51L602.48,325.62L634.19,326.7L729.32,330.73L761.03,332.49L824.45,335.65L856.16,344.42L951.29,344.77L983,313.69" style="vector-effect: none; fill: none; stroke: rgb(241, 92, 128); stroke-opacity: 1; stroke-width: 2px; opacity: 1;"/></g><g class="points"/><g class="text"/></g><g class="trace scatter trace649422" style="stroke-miterlimit: 2; opacity: 1;"><g class="fills"/><g class="errorbars"/><g class="lines"><path class="js-line" d="M0,290.64L31.71,289.52L63.42,287.41L95.13,291.5L126.84,292.23L158.55,291.02L190.26,293.56L253.68,292.84L285.39,294.86L317.1,296.79L348.81,296.73L380.52,296.11L412.23,298.59L443.94,296.91L475.65,297.69L507.35,300.25L539.06,300.11L570.77,299.38L602.48,301.37L634.19,303.69L665.9,306.87L697.61,310.12L729.32,311.91L761.03,316.22L792.74,318.53L824.45,323.4L856.16,332.27L887.87,338.5L919.58,341.06L951.29,342.49L983,307.46" style="vector-effect: none; fill: none; stroke: rgb(228, 211, 84); stroke-opacity: 1; stroke-width: 2px; opacity: 1;"/></g><g class="points"/><g class="text"/></g><g class="trace scatter trace9a7373" style="stroke-miterlimit: 2; opacity: 1;"><g class="fills"/><g class="errorbars"/><g class="lines"><path class="js-line" d="M0,287.47L31.71,285.5L63.42,284.58L95.13,288.19L126.84,288.44L158.55,288.09L190.26,290.92L221.97,290.1L253.68,290.37L317.1,293.4L348.81,293.63L380.52,294.23L412.23,295.66L443.94,294.22L475.65,295.63L507.35,298.07L539.06,297.27L602.48,298.65L634.19,300.89L697.61,308.97L729.32,310.67L761.03,315.27L792.74,318.14L824.45,320.57L856.16,331.65L887.87,338.05L919.58,340.72L951.29,342.33L983,305.03" style="vector-effect: none; fill: none; stroke: rgb(43, 144, 143); stroke-opacity: 1; stroke-width: 2px; opacity: 1;"/></g><g class="points"/><g class="text"/></g><g class="trace scatter trace685c6b" style="stroke-miterlimit: 2; opacity: 1;"><g class="fills"/><g class="errorbars"/><g class="lines"><path class="js-line" d="M0,98.08L31.71,86.5L63.42,88.41L95.13,98.69L126.84,101.93L158.55,101.31L190.26,110.16L221.97,108.52L253.68,111.36L285.39,119.71L317.1,122.85L348.81,122.28L380.52,129.44L412.23,130.59L443.94,127.49L475.65,131.78L507.35,142.14L539.06,139.94L570.77,135.22L602.48,144.2L634.19,155.63L665.9,171.08L697.61,192.63L729.32,196.16L761.03,215.2L792.74,228.25L824.45,243.61L856.16,286.11L887.87,314.6L919.58,326.4L951.29,333.69L983,173.96" style="vector-effect: none; fill: none; stroke: rgb(244, 91, 91); stroke-opacity: 1; stroke-width: 2px; opacity: 1;"/></g><g class="points"/><g class="text"/></g><g class="trace scatter trace0c2b87" style="stroke-miterlimit: 2; opacity: 1;"><g class="fills"/><g class="errorbars"/><g class="lines"><path class="js-line" d="M0,296.59L31.71,296.2L63.42,294.76L95.13,297.55L126.84,298.29L158.55,297.86L190.26,299.47L253.68,299.26L285.39,300.59L317.1,301.76L348.81,300.79L412.23,303.83L443.94,302.99L475.65,302.15L507.35,305.47L539.06,305.72L570.77,304.02L634.19,308.67L665.9,310.9L697.61,314.37L729.32,316L761.03,318.11L792.74,321.83L824.45,322.89L856.16,344.05L951.29,344.7L983,284.63" style="vector-effect: none; fill: none; stroke: rgb(145, 232, 225); stroke-opacity: 1; stroke-width: 2px; opacity: 1;"/></g><g class="points"/><g class="text"/></g><g class="trace scatter tracef7ec64" style="stroke-miterlimit: 2; opacity: 1;"><g class="fills"/><g class="errorbars"/><g class="lines"><path class="js-line" d="M0,332.36L95.13,332.69L126.84,332.93L285.39,333.73L317.1,334.03L348.81,333.75L380.52,334.23L443.94,334.2L475.65,333.98L507.35,334.97L539.06,334.8L634.19,335.69L665.9,336.31L824.45,339.61L856.16,342.04L887.87,343.5L919.58,344.06L951.29,344.37L983,336.35" style="vector-effect: none; fill: none; stroke: rgb(124, 181, 236); stroke-opacity: 1; stroke-width: 2px; opacity: 1;"/></g><g class="points"/><g class="text"/></g><g class="trace scatter trace1772c3" style="stroke-miterlimit: 2; opacity: 1;"><g class="fills"/><g class="errorbars"/><g class="lines"><path class="js-line" d="M0,294.53L31.71,292.41L63.42,292.54L95.13,294.64L126.84,295.33L158.55,294.84L190.26,297.48L221.97,296.74L253.68,297.54L380.52,301.32L412.23,301.21L475.65,301.03L507.35,303.97L570.77,303.1L602.48,304.52L634.19,306.51L665.9,309.82L697.61,313.97L729.32,314.78L761.03,318.86L792.74,321.48L824.45,325.31L856.16,333.76L887.87,339.1L919.58,341.39L951.29,342.62L983,309.59" style="vector-effect: none; fill: none; stroke: rgb(67, 67, 72); stroke-opacity: 1; stroke-width: 2px; opacity: 1;"/></g><g class="points"/><g class="text"/></g><g class="trace scatter trace2291b1" style="stroke-miterlimit: 2; opacity: 1;"><g class="fills"/><g class="errorbars"/><g class="lines"><path class="js-line" d="M0,294.88L31.71,292.69L63.42,293.11L126.84,296.1L158.55,295.13L190.26,297.65L221.97,297.33L285.39,299.54L317.1,299.51L348.81,299.57L380.52,301.58L412.23,301.97L443.94,301.45L475.65,301.44L507.35,304.13L539.06,303.8L570.77,301.51L602.48,304.91L634.19,306.23L665.9,310.04L697.61,314.81L729.32,314.71L761.03,318.62L824.45,324.11L856.16,335.49L887.87,340.19L919.58,341.99L951.29,342.97L983,309.67" style="vector-effect: none; fill: none; stroke: rgb(144, 237, 125); stroke-opacity: 1; stroke-width: 2px; opacity: 1;"/></g><g class="points"/><g class="text"/></g><g class="trace scatter trace17f549" style="stroke-miterlimit: 2; opacity: 1;"><g class="fills"/><g class="errorbars"/><g class="lines"><path class="js-line" d="M0,299.04L31.71,297.03L63.42,296.7L95.13,299.1L126.84,299.71L158.55,298.94L190.26,301.13L253.68,301.55L285.39,302.75L317.1,303.68L348.81,303.13L380.52,304.66L412.23,305.16L443.94,304.71L475.65,305.03L507.35,307.13L539.06,306.87L570.77,305.69L602.48,307.62L634.19,309.53L665.9,312.62L697.61,316.25L729.32,316.9L761.03,320.59L792.74,323.03L824.45,326.32L856.16,334.34L887.87,339.43L919.58,341.58L951.29,342.8L983,312.65" style="vector-effect: none; fill: none; stroke: rgb(247, 163, 92); stroke-opacity: 1; stroke-width: 2px; opacity: 1;"/></g><g class="points"/><g class="text"/></g><g class="trace scatter trace280070" style="stroke-miterlimit: 2; opacity: 1;"><g class="fills"/><g class="errorbars"/><g class="lines"><path class="js-line" d="M0,266.31L31.71,263.15L63.42,262.18L95.13,266.94L126.84,267.91L158.55,266.86L190.26,270.91L221.97,270.33L253.68,270.65L317.1,274.52L348.81,274.71L412.23,277.02L443.94,275.58L475.65,276.26L507.35,280.82L539.06,280.04L570.77,274.97L602.48,281.64L634.19,284.72L665.9,290L697.61,296.59L729.32,298.25L761.03,304.15L792.74,308.36L824.45,314.07L856.16,343.4L887.87,344.02L951.29,344.53L983,243.6" style="vector-effect: none; fill: none; stroke: rgb(128, 133, 233); stroke-opacity: 1; stroke-width: 2px; opacity: 1;"/></g><g class="points"/><g class="text"/></g><g class="trace scatter trace3d6f57" style="stroke-miterlimit: 2; opacity: 1;"><g class="fills"/><g class="errorbars"/><g class="lines"><path class="js-line" d="M0,294.61L31.71,292.42L63.42,292.63L126.84,295.58L158.55,295.02L190.26,297.73L221.97,296.74L317.1,299.9L348.81,299.55L380.52,301.73L412.23,301.45L475.65,300.36L507.35,304.2L539.06,303.46L570.77,303.59L602.48,304.5L634.19,306.71L665.9,310.07L697.61,314.41L729.32,315.17L761.03,318.62L824.45,325.31L856.16,343.95L951.29,344.64L983,279.73" style="vector-effect: none; fill: none; stroke: rgb(241, 92, 128); stroke-opacity: 1; stroke-width: 2px; opacity: 1;"/></g><g class="points"/><g class="text"/></g><g class="trace scatter trace46c56b" style="stroke-miterlimit: 2; opacity: 1;"><g class="fills"/><g class="errorbars"/><g class="lines"><path class="js-line" d="M0,288.85L31.71,287.37L63.42,287.25L95.13,289.59L126.84,290.44L158.55,290.27L190.26,292.27L221.97,291.85L253.68,292.29L317.1,295.12L348.81,294.93L412.23,296.78L443.94,296.06L475.65,296.18L507.35,299.41L539.06,298.88L570.77,299.25L602.48,299.99L634.19,302.38L665.9,305.54L697.61,310.52L729.32,311.7L761.03,315.17L824.45,322.96L856.16,331.38L887.87,338.11L919.58,340.81L951.29,342.33L983,306.42" style="vector-effect: none; fill: none; stroke: rgb(228, 211, 84); stroke-opacity: 1; stroke-width: 2px; opacity: 1;"/></g><g class="points"/><g class="text"/></g><g class="trace scatter trace2d4aa1" style="stroke-miterlimit: 2; opacity: 1;"><g class="fills"/><g class="errorbars"/><g class="lines"><path class="js-line" d="M0,327.91L63.42,326.8L95.13,328.32L285.39,329.28L317.1,329.91L380.52,329.46L412.23,330.61L443.94,329.85L475.65,330.08L539.06,330.98L570.77,330.19L665.9,332.79L697.61,333.71L792.74,336.34L824.45,337.76L856.16,341.02L887.87,342.85L951.29,344.14L983,333.36" style="vector-effect: none; fill: none; stroke: rgb(43, 144, 143); stroke-opacity: 1; stroke-width: 2px; opacity: 1;"/></g><g class="points"/><g class="text"/></g><g class="trace scatter tracea6af17" style="stroke-miterlimit: 2; opacity: 1;"><g class="fills"/><g class="errorbars"/><g class="lines"><path class="js-line" d="M0,337.41L95.13,337.47L126.84,337.7L253.68,337.92L285.39,338.2L634.19,339.24L665.9,339.68L856.16,343.2L887.87,344.02L951.29,344.56L983,339.76" style="vector-effect: none; fill: none; stroke: rgb(244, 91, 91); stroke-opacity: 1; stroke-width: 2px; opacity: 1;"/></g><g class="points"/><g class="text"/></g><g class="trace scatter traceb9b544" style="stroke-miterlimit: 2; opacity: 1;"><g class="fills"/><g class="errorbars"/><g class="lines"><path class="js-line" d="M0,231.55L31.71,227.15L63.42,226.41L95.13,232.5L126.84,233.32L158.55,232.67L190.26,238.09L221.97,237L253.68,237.54L285.39,241.42L317.1,241.89L348.81,242.52L380.52,245.36L412.23,247.7L443.94,245.5L475.65,247.4L507.35,252.32L539.06,250.95L570.77,245.84L602.48,253.81L634.19,258.24L665.9,265.69L697.61,275.23L729.32,277.58L761.03,286.38L824.45,297.53L856.16,317.87L887.87,331.01L919.58,336.37L951.29,339.76L983,266.62" style="vector-effect: none; fill: none; stroke: rgb(145, 232, 225); stroke-opacity: 1; stroke-width: 2px; opacity: 1;"/></g><g class="points"/><g class="text"/></g><g class="trace scatter trace343344" style="stroke-miterlimit: 2; opacity: 1;"><g class="fills"/><g class="errorbars"/><g class="lines"><path class="js-line" d="M0,288.81L31.71,286.36L63.42,284.88L95.13,289.27L126.84,289.74L158.55,288.04L190.26,291.85L221.97,290.92L253.68,291.31L285.39,292.23L317.1,294.04L380.52,294.94L412.23,296.12L443.94,295.3L475.65,296.72L507.35,298.77L539.06,298.86L570.77,295.41L602.48,300.01L634.19,302.07L665.9,306.06L697.61,310.82L729.32,311.88L761.03,316.3L792.74,319.04L824.45,323.3L856.16,343.87L951.29,344.64L983,272.57" style="vector-effect: none; fill: none; stroke: rgb(124, 181, 236); stroke-opacity: 1; stroke-width: 2px; opacity: 1;"/></g><g class="points"/><g class="text"/></g><g class="trace scatter trace4f4f3f" style="stroke-miterlimit: 2; opacity: 1;"><g class="fills"/><g class="errorbars"/><g class="lines"><path class="js-line" d="M0,269.18L63.42,266.36L95.13,270.39L126.84,271.25L158.55,270.94L190.26,273.74L221.97,273.56L253.68,273.51L285.39,275.75L317.1,277.14L348.81,275.78L412.23,280.33L443.94,278.85L475.65,278.6L507.35,283.26L539.06,283.06L570.77,279.98L602.48,284.89L634.19,287.41L665.9,291.73L697.61,298.03L729.32,299.43L761.03,303.47L792.74,309.01L824.45,311.85L856.16,343.48L887.87,344.05L951.29,344.56L983,249.34" style="vector-effect: none; fill: none; stroke: rgb(67, 67, 72); stroke-opacity: 1; stroke-width: 2px; opacity: 1;"/></g><g class="points"/><g class="text"/></g><g class="trace scatter trace8f3938" style="stroke-miterlimit: 2; opacity: 1;"><g class="fills"/><g class="errorbars"/><g class="lines"><path class="js-line" d="M0,284.09L31.71,281.63L63.42,281.52L95.13,283.79L126.84,285.05L158.55,284.22L190.26,287.15L221.97,286.84L253.68,287.61L317.1,290.38L348.81,289.72L380.52,292.05L412.23,292.55L475.65,290.88L507.35,295.07L539.06,294.57L570.77,292.47L634.19,297.91L665.9,302.4L697.61,307.32L729.32,307.2L761.03,311.95L792.74,315.77L824.45,319.06L856.16,343.71L951.29,344.59L983,266.13" style="vector-effect: none; fill: none; stroke: rgb(144, 237, 125); stroke-opacity: 1; stroke-width: 2px; opacity: 1;"/></g><g class="points"/><g class="text"/></g><g class="trace scatter tracebca562" style="stroke-miterlimit: 2; opacity: 1;"><g class="fills"/><g class="errorbars"/><g class="lines"><path class="js-line" d="M0,302.37L31.71,300.7L63.42,300.31L95.13,302.43L126.84,303.1L158.55,302.96L190.26,304.58L253.68,304.67L285.39,305.73L317.1,306.68L348.81,306.36L412.23,308.31L443.94,307.6L475.65,308.03L507.35,309.95L570.77,309.39L602.48,310.53L634.19,312.43L665.9,315.14L697.61,318.61L729.32,319.66L824.45,327.88L856.16,335.08L887.87,339.79L919.58,341.85L951.29,342.92L983,315.23" style="vector-effect: none; fill: none; stroke: rgb(247, 163, 92); stroke-opacity: 1; stroke-width: 2px; opacity: 1;"/></g><g class="points"/><g class="text"/></g></g></g></g><g class="zerolinelayer-above"/><path class="xlines-above crisp" d="M0,0" style="fill: none;"/><path class="ylines-above crisp" d="M0,0" style="fill: none;"/><g class="overlines-above"/><g class="xaxislayer-above"><g class="xtick"><text text-anchor="start" x="0" y="429" transform="translate(60,0) rotate(29.999999999999996,0,424)" style="font-family: system-ui, -apple-system, 'Segoe UI', Roboto, 'Helvetica Neue', 'Noto Sans', 'Liberation Sans', Arial, sans-serif, 'Apple Color Emoji', 'Segoe UI Emoji', 'Segoe UI Symbol', 'Noto Color Emoji'; font-size: 10px; fill: rgb(80, 80, 80); fill-opacity: 1; white-space: pre;">1</text></g><g class="xtick"><text text-anchor="start" x="0" y="429" transform="translate(91.71000000000001,0) rotate(29.999999999999996,0,424)" style="font-family: system-ui, -apple-system, 'Segoe UI', Roboto, 'Helvetica Neue', 'Noto Sans', 'Liberation Sans', Arial, sans-serif, 'Apple Color Emoji', 'Segoe UI Emoji', 'Segoe UI Symbol', 'Noto Color Emoji'; font-size: 10px; fill: rgb(80, 80, 80); fill-opacity: 1; white-space: pre;">2</text></g><g class="xtick"><text text-anchor="start" x="0" y="429" transform="translate(123.42,0) rotate(29.999999999999996,0,424)" style="font-family: system-ui, -apple-system, 'Segoe UI', Roboto, 'Helvetica Neue', 'Noto Sans', 'Liberation Sans', Arial, sans-serif, 'Apple Color Emoji', 'Segoe UI Emoji', 'Segoe UI Symbol', 'Noto Color Emoji'; font-size: 10px; fill: rgb(80, 80, 80); fill-opacity: 1; white-space: pre;">3</text></g><g class="xtick"><text text-anchor="start" x="0" y="429" transform="translate(155.13,0) rotate(29.999999999999996,0,424)" style="font-family: system-ui, -apple-system, 'Segoe UI', Roboto, 'Helvetica Neue', 'Noto Sans', 'Liberation Sans', Arial, sans-serif, 'Apple Color Emoji', 'Segoe UI Emoji', 'Segoe UI Symbol', 'Noto Color Emoji'; font-size: 10px; fill: rgb(80, 80, 80); fill-opacity: 1; white-space: pre;">4</text></g><g class="xtick"><text text-anchor="start" x="0" y="429" transform="translate(186.84,0) rotate(29.999999999999996,0,424)" style="font-family: system-ui, -apple-system, 'Segoe UI', Roboto, 'Helvetica Neue', 'Noto Sans', 'Liberation Sans', Arial, sans-serif, 'Apple Color Emoji', 'Segoe UI Emoji', 'Segoe UI Symbol', 'Noto Color Emoji'; font-size: 10px; fill: rgb(80, 80, 80); fill-opacity: 1; white-space: pre;">5</text></g><g class="xtick"><text text-anchor="start" x="0" y="429" transform="translate(218.55,0) rotate(29.999999999999996,0,424)" style="font-family: system-ui, -apple-system, 'Segoe UI', Roboto, 'Helvetica Neue', 'Noto Sans', 'Liberation Sans', Arial, sans-serif, 'Apple Color Emoji', 'Segoe UI Emoji', 'Segoe UI Symbol', 'Noto Color Emoji'; font-size: 10px; fill: rgb(80, 80, 80); fill-opacity: 1; white-space: pre;">6</text></g><g class="xtick"><text text-anchor="start" x="0" y="429" transform="translate(250.26,0) rotate(29.999999999999996,0,424)" style="font-family: system-ui, -apple-system, 'Segoe UI', Roboto, 'Helvetica Neue', 'Noto Sans', 'Liberation Sans', Arial, sans-serif, 'Apple Color Emoji', 'Segoe UI Emoji', 'Segoe UI Symbol', 'Noto Color Emoji'; font-size: 10px; fill: rgb(80, 80, 80); fill-opacity: 1; white-space: pre;">7</text></g><g class="xtick"><text text-anchor="start" x="0" y="429" transform="translate(281.97,0) rotate(29.999999999999996,0,424)" style="font-family: system-ui, -apple-system, 'Segoe UI', Roboto, 'Helvetica Neue', 'Noto Sans', 'Liberation Sans', Arial, sans-serif, 'Apple Color Emoji', 'Segoe UI Emoji', 'Segoe UI Symbol', 'Noto Color Emoji'; font-size: 10px; fill: rgb(80, 80, 80); fill-opacity: 1; white-space: pre;">8</text></g><g class="xtick"><text text-anchor="start" x="0" y="429" transform="translate(313.68,0) rotate(29.999999999999996,0,424)" style="font-family: system-ui, -apple-system, 'Segoe UI', Roboto, 'Helvetica Neue', 'Noto Sans', 'Liberation Sans', Arial, sans-serif, 'Apple Color Emoji', 'Segoe UI Emoji', 'Segoe UI Symbol', 'Noto Color Emoji'; font-size: 10px; fill: rgb(80, 80, 80); fill-opacity: 1; white-space: pre;">9</text></g><g class="xtick"><text text-anchor="start" x="0" y="429" transform="translate(345.39,0) rotate(29.999999999999996,0,424)" style="font-family: system-ui, -apple-system, 'Segoe UI', Roboto, 'Helvetica Neue', 'Noto Sans', 'Liberation Sans', Arial, sans-serif, 'Apple Color Emoji', 'Segoe UI Emoji', 'Segoe UI Symbol', 'Noto Color Emoji'; font-size: 10px; fill: rgb(80, 80, 80); fill-opacity: 1; white-space: pre;">10</text></g><g class="xtick"><text text-anchor="start" x="0" y="429" transform="translate(377.1,0) rotate(29.999999999999996,0,424)" style="font-family: system-ui, -apple-system, 'Segoe UI', Roboto, 'Helvetica Neue', 'Noto Sans', 'Liberation Sans', Arial, sans-serif, 'Apple Color Emoji', 'Segoe UI Emoji', 'Segoe UI Symbol', 'Noto Color Emoji'; font-size: 10px; fill: rgb(80, 80, 80); fill-opacity: 1; white-space: pre;">11</text></g><g class="xtick"><text text-anchor="start" x="0" y="429" transform="translate(408.81,0) rotate(29.999999999999996,0,424)" style="font-family: system-ui, -apple-system, 'Segoe UI', Roboto, 'Helvetica Neue', 'Noto Sans', 'Liberation Sans', Arial, sans-serif, 'Apple Color Emoji', 'Segoe UI Emoji', 'Segoe UI Symbol', 'Noto Color Emoji'; font-size: 10px; fill: rgb(80, 80, 80); fill-opacity: 1; white-space: pre;">12</text></g><g class="xtick"><text text-anchor="start" x="0" y="429" transform="translate(440.52,0) rotate(29.999999999999996,0,424)" style="font-family: system-ui, -apple-system, 'Segoe UI', Roboto, 'Helvetica Neue', 'Noto Sans', 'Liberation Sans', Arial, sans-serif, 'Apple Color Emoji', 'Segoe UI Emoji', 'Segoe UI Symbol', 'Noto Color Emoji'; font-size: 10px; fill: rgb(80, 80, 80); fill-opacity: 1; white-space: pre;">13</text></g><g class="xtick"><text text-anchor="start" x="0" y="429" transform="translate(472.23,0) rotate(29.999999999999996,0,424)" style="font-family: system-ui, -apple-system, 'Segoe UI', Roboto, 'Helvetica Neue', 'Noto Sans', 'Liberation Sans', Arial, sans-serif, 'Apple Color Emoji', 'Segoe UI Emoji', 'Segoe UI Symbol', 'Noto Color Emoji'; font-size: 10px; fill: rgb(80, 80, 80); fill-opacity: 1; white-space: pre;">14</text></g><g class="xtick"><text text-anchor="start" x="0" y="429" transform="translate(503.94,0) rotate(29.999999999999996,0,424)" style="font-family: system-ui, -apple-system, 'Segoe UI', Roboto, 'Helvetica Neue', 'Noto Sans', 'Liberation Sans', Arial, sans-serif, 'Apple Color Emoji', 'Segoe UI Emoji', 'Segoe UI Symbol', 'Noto Color Emoji'; font-size: 10px; fill: rgb(80, 80, 80); fill-opacity: 1; white-space: pre;">15</text></g><g class="xtick"><text text-anchor="start" x="0" y="429" transform="translate(535.65,0) rotate(29.999999999999996,0,424)" style="font-family: system-ui, -apple-system, 'Segoe UI', Roboto, 'Helvetica Neue', 'Noto Sans', 'Liberation Sans', Arial, sans-serif, 'Apple Color Emoji', 'Segoe UI Emoji', 'Segoe UI Symbol', 'Noto Color Emoji'; font-size: 10px; fill: rgb(80, 80, 80); fill-opacity: 1; white-space: pre;">16</text></g><g class="xtick"><text text-anchor="start" x="0" y="429" transform="translate(567.35,0) rotate(29.999999999999996,0,424)" style="font-family: system-ui, -apple-system, 'Segoe UI', Roboto, 'Helvetica Neue', 'Noto Sans', 'Liberation Sans', Arial, sans-serif, 'Apple Color Emoji', 'Segoe UI Emoji', 'Segoe UI Symbol', 'Noto Color Emoji'; font-size: 10px; fill: rgb(80, 80, 80); fill-opacity: 1; white-space: pre;">17</text></g><g class="xtick"><text text-anchor="start" x="0" y="429" transform="translate(599.06,0) rotate(29.999999999999996,0,424)" style="font-family: system-ui, -apple-system, 'Segoe UI', Roboto, 'Helvetica Neue', 'Noto Sans', 'Liberation Sans', Arial, sans-serif, 'Apple Color Emoji', 'Segoe UI Emoji', 'Segoe UI Symbol', 'Noto Color Emoji'; font-size: 10px; fill: rgb(80, 80, 80); fill-opacity: 1; white-space: pre;">18</text></g><g class="xtick"><text text-anchor="start" x="0" y="429" transform="translate(630.77,0) rotate(29.999999999999996,0,424)" style="font-family: system-ui, -apple-system, 'Segoe UI', Roboto, 'Helvetica Neue', 'Noto Sans', 'Liberation Sans', Arial, sans-serif, 'Apple Color Emoji', 'Segoe UI Emoji', 'Segoe UI Symbol', 'Noto Color Emoji'; font-size: 10px; fill: rgb(80, 80, 80); fill-opacity: 1; white-space: pre;">19</text></g><g class="xtick"><text text-anchor="start" x="0" y="429" transform="translate(662.48,0) rotate(29.999999999999996,0,424)" style="font-family: system-ui, -apple-system, 'Segoe UI', Roboto, 'Helvetica Neue', 'Noto Sans', 'Liberation Sans', Arial, sans-serif, 'Apple Color Emoji', 'Segoe UI Emoji', 'Segoe UI Symbol', 'Noto Color Emoji'; font-size: 10px; fill: rgb(80, 80, 80); fill-opacity: 1; white-space: pre;">20</text></g><g class="xtick"><text text-anchor="start" x="0" y="429" transform="translate(694.19,0) rotate(29.999999999999996,0,424)" style="font-family: system-ui, -apple-system, 'Segoe UI', Roboto, 'Helvetica Neue', 'Noto Sans', 'Liberation Sans', Arial, sans-serif, 'Apple Color Emoji', 'Segoe UI Emoji', 'Segoe UI Symbol', 'Noto Color Emoji'; font-size: 10px; fill: rgb(80, 80, 80); fill-opacity: 1; white-space: pre;">21</text></g><g class="xtick"><text text-anchor="start" x="0" y="429" transform="translate(725.9,0) rotate(29.999999999999996,0,424)" style="font-family: system-ui, -apple-system, 'Segoe UI', Roboto, 'Helvetica Neue', 'Noto Sans', 'Liberation Sans', Arial, sans-serif, 'Apple Color Emoji', 'Segoe UI Emoji', 'Segoe UI Symbol', 'Noto Color Emoji'; font-size: 10px; fill: rgb(80, 80, 80); fill-opacity: 1; white-space: pre;">22</text></g><g class="xtick"><text text-anchor="start" x="0" y="429" transform="translate(757.61,0) rotate(29.999999999999996,0,424)" style="font-family: system-ui, -apple-system, 'Segoe UI', Roboto, 'Helvetica Neue', 'Noto Sans', 'Liberation Sans', Arial, sans-serif, 'Apple Color Emoji', 'Segoe UI Emoji', 'Segoe UI Symbol', 'Noto Color Emoji'; font-size: 10px; fill: rgb(80, 80, 80); fill-opacity: 1; white-space: pre;">23</text></g><g class="xtick"><text text-anchor="start" x="0" y="429" transform="translate(789.32,0) rotate(29.999999999999996,0,424)" style="font-family: system-ui, -apple-system, 'Segoe UI', Roboto, 'Helvetica Neue', 'Noto Sans', 'Liberation Sans', Arial, sans-serif, 'Apple Color Emoji', 'Segoe UI Emoji', 'Segoe UI Symbol', 'Noto Color Emoji'; font-size: 10px; fill: rgb(80, 80, 80); fill-opacity: 1; white-space: pre;">24</text></g><g class="xtick"><text text-anchor="start" x="0" y="429" transform="translate(821.03,0) rotate(29.999999999999996,0,424)" style="font-family: system-ui, -apple-system, 'Segoe UI', Roboto, 'Helvetica Neue', 'Noto Sans', 'Liberation Sans', Arial, sans-serif, 'Apple Color Emoji', 'Segoe UI Emoji', 'Segoe UI Symbol', 'Noto Color Emoji'; font-size: 10px; fill: rgb(80, 80, 80); fill-opacity: 1; white-space: pre;">25</text></g><g class="xtick"><text text-anchor="start" x="0" y="429" transform="translate(852.74,0) rotate(29.999999999999996,0,424)" style="font-family: system-ui, -apple-system, 'Segoe UI', Roboto, 'Helvetica Neue', 'Noto Sans', 'Liberation Sans', Arial, sans-serif, 'Apple Color Emoji', 'Segoe UI Emoji', 'Segoe UI Symbol', 'Noto Color Emoji'; font-size: 10px; fill: rgb(80, 80, 80); fill-opacity: 1; white-space: pre;">26</text></g><g class="xtick"><text text-anchor="start" x="0" y="429" transform="translate(884.45,0) rotate(29.999999999999996,0,424)" style="font-family: system-ui, -apple-system, 'Segoe UI', Roboto, 'Helvetica Neue', 'Noto Sans', 'Liberation Sans', Arial, sans-serif, 'Apple Color Emoji', 'Segoe UI Emoji', 'Segoe UI Symbol', 'Noto Color Emoji'; font-size: 10px; fill: rgb(80, 80, 80); fill-opacity: 1; white-space: pre;">27</text></g><g class="xtick"><text text-anchor="start" x="0" y="429" transform="translate(916.16,0) rotate(29.999999999999996,0,424)" style="font-family: system-ui, -apple-system, 'Segoe UI', Roboto, 'Helvetica Neue', 'Noto Sans', 'Liberation Sans', Arial, sans-serif, 'Apple Color Emoji', 'Segoe UI Emoji', 'Segoe UI Symbol', 'Noto Color Emoji'; font-size: 10px; fill: rgb(80, 80, 80); fill-opacity: 1; white-space: pre;">W</text></g><g class="xtick"><text text-anchor="start" x="0" y="429" transform="translate(947.87,0) rotate(29.999999999999996,0,424)" style="font-family: system-ui, -apple-system, 'Segoe UI', Roboto, 'Helvetica Neue', 'Noto Sans', 'Liberation Sans', Arial, sans-serif, 'Apple Color Emoji', 'Segoe UI Emoji', 'Segoe UI Symbol', 'Noto Color Emoji'; font-size: 10px; fill: rgb(80, 80, 80); fill-opacity: 1; white-space: pre;">NW_024396987.1</text></g><g class="xtick"><text text-anchor="start" x="0" y="429" transform="translate(979.58,0) rotate(29.999999999999996,0,424)" style="font-family: system-ui, -apple-system, 'Segoe UI', Roboto, 'Helvetica Neue', 'Noto Sans', 'Liberation Sans', Arial, sans-serif, 'Apple Color Emoji', 'Segoe UI Emoji', 'Segoe UI Symbol', 'Noto Color Emoji'; font-size: 10px; fill: rgb(80, 80, 80); fill-opacity: 1; white-space: pre;">NW_024396988.1</text></g><g class="xtick"><text text-anchor="start" x="0" y="429" transform="translate(1011.29,0) rotate(29.999999999999996,0,424)" style="font-family: system-ui, -apple-system, 'Segoe UI', Roboto, 'Helvetica Neue', 'Noto Sans', 'Liberation Sans', Arial, sans-serif, 'Apple Color Emoji', 'Segoe UI Emoji', 'Segoe UI Symbol', 'Noto Color Emoji'; font-size: 10px; fill: rgb(80, 80, 80); fill-opacity: 1; white-space: pre;">NW_024396989.1</text></g><g class="xtick"><text text-anchor="start" x="0" y="429" transform="translate(1043,0) rotate(29.999999999999996,0,424)" style="font-family: system-ui, -apple-system, 'Segoe UI', Roboto, 'Helvetica Neue', 'Noto Sans', 'Liberation Sans', Arial, sans-serif, 'Apple Color Emoji', 'Segoe UI Emoji', 'Segoe UI Symbol', 'Noto Color Emoji'; font-size: 10px; fill: rgb(80, 80, 80); fill-opacity: 1; white-space: pre;">Z</text></g></g><g class="yaxislayer-above"><g class="ytick"><text text-anchor="end" x="54" y="3.5" transform="translate(0,394.88)" style="font-family: system-ui, -apple-system, 'Segoe UI', Roboto, 'Helvetica Neue', 'Noto Sans', 'Liberation Sans', Arial, sans-serif, 'Apple Color Emoji', 'Segoe UI Emoji', 'Segoe UI Symbol', 'Noto Color Emoji'; font-size: 10px; fill: rgb(80, 80, 80); fill-opacity: 1; white-space: pre;">0</text></g><g class="ytick"><text text-anchor="end" x="54" y="3.5" style="font-family: system-ui, -apple-system, 'Segoe UI', Roboto, 'Helvetica Neue', 'Noto Sans', 'Liberation Sans', Arial, sans-serif, 'Apple Color Emoji', 'Segoe UI Emoji', 'Segoe UI Symbol', 'Noto Color Emoji'; font-size: 10px; fill: rgb(80, 80, 80); fill-opacity: 1; white-space: pre;" transform="translate(0,316.66)">5M</text></g><g class="ytick"><text text-anchor="end" x="54" y="3.5" style="font-family: system-ui, -apple-system, 'Segoe UI', Roboto, 'Helvetica Neue', 'Noto Sans', 'Liberation Sans', Arial, sans-serif, 'Apple Color Emoji', 'Segoe UI Emoji', 'Segoe UI Symbol', 'Noto Color Emoji'; font-size: 10px; fill: rgb(80, 80, 80); fill-opacity: 1; white-space: pre;" transform="translate(0,238.44)">10M</text></g><g class="ytick"><text text-anchor="end" x="54" y="3.5" style="font-family: system-ui, -apple-system, 'Segoe UI', Roboto, 'Helvetica Neue', 'Noto Sans', 'Liberation Sans', Arial, sans-serif, 'Apple Color Emoji', 'Segoe UI Emoji', 'Segoe UI Symbol', 'Noto Color Emoji'; font-size: 10px; fill: rgb(80, 80, 80); fill-opacity: 1; white-space: pre;" transform="translate(0,160.20999999999998)">15M</text></g><g class="ytick"><text text-anchor="end" x="54" y="3.5" style="font-family: system-ui, -apple-system, 'Segoe UI', Roboto, 'Helvetica Neue', 'Noto Sans', 'Liberation Sans', Arial, sans-serif, 'Apple Color Emoji', 'Segoe UI Emoji', 'Segoe UI Symbol', 'Noto Color Emoji'; font-size: 10px; fill: rgb(80, 80, 80); fill-opacity: 1; white-space: pre;" transform="translate(0,81.99)">20M</text></g></g><g class="overaxes-above"/></g></g><g class="polarlayer"/><g class="smithlayer"/><g class="ternarylayer"/><g class="geolayer"/><g class="funnelarealayer"/><g class="pielayer"/><g class="iciclelayer"/><g class="treemaplayer"/><g class="sunburstlayer"/><g class="glimages"/><defs id="topdefs-929466"><g class="clips"/></defs><g class="layer-above"><g class="imagelayer"/><g class="shapelayer"/></g><g class="infolayer"><g class="g-gtitle"><text class="gtitle" x="550" y="25" text-anchor="middle" dy="0em" style="opacity: 1; font-family: system-ui, -apple-system, 'Segoe UI', Roboto, 'Helvetica Neue', 'Noto Sans', 'Liberation Sans', Arial, sans-serif, 'Apple Color Emoji', 'Segoe UI Emoji', 'Segoe UI Symbol', 'Noto Color Emoji'; font-size: 20px; fill: rgb(60, 60, 60); fill-opacity: 1; white-space: pre;"><tspan class="line" dy="0em" x="550" y="25">Samtools: idxstats: Mapped reads per contig</tspan><tspan class="line" dy="1.3em" x="550" y="25">​<tspan style="font-size:70%" dy="-0.6em">Raw Counts, 94 lines</tspan><tspan dy="0.42em">​</tspan></tspan></text></g><g class="g-xtitle"><text class="xtitle" x="551.5" y="465" text-anchor="middle" style="opacity: 1; font-family: system-ui, -apple-system, 'Segoe UI', Roboto, 'Helvetica Neue', 'Noto Sans', 'Liberation Sans', Arial, sans-serif, 'Apple Color Emoji', 'Segoe UI Emoji', 'Segoe UI Symbol', 'Noto Color Emoji'; font-size: 14px; fill: rgb(100, 100, 100); fill-opacity: 1; white-space: pre;">Chromosome name</text></g><g class="g-ytitle"><text class="ytitle" transform="rotate(-90,22,231.5)" x="22" y="231.5" text-anchor="middle" style="opacity: 1; font-family: system-ui, -apple-system, 'Segoe UI', Roboto, 'Helvetica Neue', 'Noto Sans', 'Liberation Sans', Arial, sans-serif, 'Apple Color Emoji', 'Segoe UI Emoji', 'Segoe UI Symbol', 'Noto Color Emoji'; font-size: 14px; fill: rgb(100, 100, 100); fill-opacity: 1; white-space: pre;"># mapped reads</text></g></g></svg>