<svg class="main-svg" xmlns="http://www.w3.org/2000/svg" xmlns:xlink="http://www.w3.org/1999/xlink" width="2200" height="1000" style="" viewBox="0 0 1100 500"><rect x="0" y="0" width="1100" height="500" style="fill: rgb(255, 255, 255); fill-opacity: 1;"/><defs id="defs-aa0c00"><g class="clips"><clipPath id="clipaa0c00xyplot" class="plotclip"><rect width="983" height="363"/></clipPath><clipPath class="axesclip" id="clipaa0c00x"><rect x="60" y="0" width="983" height="500"/></clipPath><clipPath class="axesclip" id="clipaa0c00y"><rect x="0" y="50" width="1100" height="363"/></clipPath><clipPath class="axesclip" id="clipaa0c00xy"><rect x="60" y="50" width="983" height="363"/></clipPath></g><g class="gradients"/><g class="patterns"/></defs><g class="bglayer"/><g class="layer-below"><g class="imagelayer"/><g class="shapelayer"/></g><g class="cartesianlayer"><g class="subplot xy"><g class="layer-subplot"><g class="shapelayer"/><g class="imagelayer"/></g><g class="minor-gridlayer"><g class="x"/><g class="y"/></g><g class="gridlayer"><g class="x"><path class="xgrid crisp" transform="translate(91.71000000000001,0)" d="M0,50v363" style="stroke: rgb(128, 128, 128); stroke-opacity: 0.15; stroke-width: 1px;"/><path class="xgrid crisp" transform="translate(123.42,0)" d="M0,50v363" style="stroke: rgb(128, 128, 128); stroke-opacity: 0.15; stroke-width: 1px;"/><path class="xgrid crisp" transform="translate(155.13,0)" d="M0,50v363" style="stroke: rgb(128, 128, 128); stroke-opacity: 0.15; stroke-width: 1px;"/><path class="xgrid crisp" transform="translate(186.84,0)" d="M0,50v363" style="stroke: rgb(128, 128, 128); stroke-opacity: 0.15; stroke-width: 1px;"/><path class="xgrid crisp" transform="translate(218.55,0)" d="M0,50v363" style="stroke: rgb(128, 128, 128); stroke-opacity: 0.15; stroke-width: 1px;"/><path class="xgrid crisp" transform="translate(250.26,0)" d="M0,50v363" style="stroke: rgb(128, 128, 128); stroke-opacity: 0.15; stroke-width: 1px;"/><path class="xgrid crisp" transform="translate(281.97,0)" d="M0,50v363" style="stroke: rgb(128, 128, 128); stroke-opacity: 0.15; stroke-width: 1px;"/><path class="xgrid crisp" transform="translate(313.68,0)" d="M0,50v363" style="stroke: rgb(128, 128, 128); stroke-opacity: 0.15; stroke-width: 1px;"/><path class="xgrid crisp" transform="translate(345.39,0)" d="M0,50v363" style="stroke: rgb(128, 128, 128); stroke-opacity: 0.15; stroke-width: 1px;"/><path class="xgrid crisp" transform="translate(377.1,0)" d="M0,50v363" style="stroke: rgb(128, 128, 128); stroke-opacity: 0.15; stroke-width: 1px;"/><path class="xgrid crisp" transform="translate(408.81,0)" d="M0,50v363" style="stroke: rgb(128, 128, 128); stroke-opacity: 0.15; stroke-width: 1px;"/><path class="xgrid crisp" transform="translate(440.52,0)" d="M0,50v363" style="stroke: rgb(128, 128, 128); stroke-opacity: 0.15; stroke-width: 1px;"/><path class="xgrid crisp" transform="translate(472.23,0)" d="M0,50v363" style="stroke: rgb(128, 128, 128); stroke-opacity: 0.15; stroke-width: 1px;"/><path class="xgrid crisp" transform="translate(503.94,0)" d="M0,50v363" style="stroke: rgb(128, 128, 128); stroke-opacity: 0.15; stroke-width: 1px;"/><path class="xgrid crisp" transform="translate(535.65,0)" d="M0,50v363" style="stroke: rgb(128, 128, 128); stroke-opacity: 0.15; stroke-width: 1px;"/><path class="xgrid crisp" transform="translate(567.35,0)" d="M0,50v363" style="stroke: rgb(128, 128, 128); stroke-opacity: 0.15; stroke-width: 1px;"/><path class="xgrid crisp" transform="translate(599.06,0)" d="M0,50v363" style="stroke: rgb(128, 128, 128); stroke-opacity: 0.15; stroke-width: 1px;"/><path class="xgrid crisp" transform="translate(630.77,0)" d="M0,50v363" style="stroke: rgb(128, 128, 128); stroke-opacity: 0.15; stroke-width: 1px;"/><path class="xgrid crisp" transform="translate(662.48,0)" d="M0,50v363" style="stroke: rgb(128, 128, 128); stroke-opacity: 0.15; stroke-width: 1px;"/><path class="xgrid crisp" transform="translate(694.19,0)" d="M0,50v363" style="stroke: rgb(128, 128, 128); stroke-opacity: 0.15; stroke-width: 1px;"/><path class="xgrid crisp" transform="translate(725.9,0)" d="M0,50v363" style="stroke: rgb(128, 128, 128); stroke-opacity: 0.15; stroke-width: 1px;"/><path class="xgrid crisp" transform="translate(757.61,0)" d="M0,50v363" style="stroke: rgb(128, 128, 128); stroke-opacity: 0.15; stroke-width: 1px;"/><path class="xgrid crisp" transform="translate(789.32,0)" d="M0,50v363" style="stroke: rgb(128, 128, 128); stroke-opacity: 0.15; stroke-width: 1px;"/><path class="xgrid crisp" transform="translate(821.03,0)" d="M0,50v363" style="stroke: rgb(128, 128, 128); stroke-opacity: 0.15; stroke-width: 1px;"/><path class="xgrid crisp" transform="translate(852.74,0)" d="M0,50v363" style="stroke: rgb(128, 128, 128); stroke-opacity: 0.15; stroke-width: 1px;"/><path class="xgrid crisp" transform="translate(884.45,0)" d="M0,50v363" style="stroke: rgb(128, 128, 128); stroke-opacity: 0.15; stroke-width: 1px;"/><path class="xgrid crisp" transform="translate(916.16,0)" d="M0,50v363" style="stroke: rgb(128, 128, 128); stroke-opacity: 0.15; stroke-width: 1px;"/><path class="xgrid crisp" transform="translate(947.87,0)" d="M0,50v363" style="stroke: rgb(128, 128, 128); stroke-opacity: 0.15; stroke-width: 1px;"/><path class="xgrid crisp" transform="translate(979.58,0)" d="M0,50v363" style="stroke: rgb(128, 128, 128); stroke-opacity: 0.15; stroke-width: 1px;"/><path class="xgrid crisp" transform="translate(1011.29,0)" d="M0,50v363" style="stroke: rgb(128, 128, 128); stroke-opacity: 0.15; stroke-width: 1px;"/></g><g class="y"><path class="ygrid crisp" transform="translate(0,343.55)" d="M60,0h983" style="stroke: rgb(128, 128, 128); stroke-opacity: 0.15; stroke-width: 1px;"/><path class="ygrid crisp" transform="translate(0,276.05)" d="M60,0h983" style="stroke: rgb(128, 128, 128); stroke-opacity: 0.15; stroke-width: 1px;"/><path class="ygrid crisp" transform="translate(0,208.55)" d="M60,0h983" style="stroke: rgb(128, 128, 128); stroke-opacity: 0.15; stroke-width: 1px;"/><path class="ygrid crisp" transform="translate(0,141.05)" d="M60,0h983" style="stroke: rgb(128, 128, 128); stroke-opacity: 0.15; stroke-width: 1px;"/><path class="ygrid crisp" transform="translate(0,73.55)" d="M60,0h983" style="stroke: rgb(128, 128, 128); stroke-opacity: 0.15; stroke-width: 1px;"/></g></g><g class="zerolinelayer"><path class="yzl zl crisp" transform="translate(0,411.05)" d="M60,0h983" style="stroke: rgb(128, 128, 128); stroke-opacity: 0.2; stroke-width: 1px;"/></g><g class="layer-between"><g class="shapelayer"/><g class="imagelayer"/></g><path class="xlines-below"/><path class="ylines-below"/><g class="overlines-below"/><g class="xaxislayer-below"/><g class="yaxislayer-below"/><g class="overaxes-below"/><g class="overplot"><g class="xy" transform="translate(60,50)" clip-path="url(#clipaa0c00xyplot)"><g class="scatterlayer mlayer"><g class="trace scatter tracef1dc5b" style="stroke-miterlimit: 2; opacity: 1;"><g class="fills"/><g class="errorbars"/><g class="lines"><path class="js-line" d="M0,224.49L31.71,225.72L63.42,221.04L95.13,226.58L126.84,225.42L158.55,222.28L190.26,225.82L221.97,225.13L253.68,223.17L285.39,224.6L317.1,227.45L348.81,223.93L380.52,224.75L412.23,225.43L443.94,223.76L475.65,223.54L507.35,227.01L539.06,224.67L570.77,207.79L602.48,227.32L634.19,231.21L665.9,226.65L697.61,225.87L729.32,225.3L761.03,225.76L792.74,217.63L824.45,225.4L856.16,333.75L887.87,336.88L919.58,341.4L951.29,342.22L983,223.7" style="vector-effect: none; fill: none; stroke: rgb(124, 181, 236); stroke-opacity: 1; stroke-width: 2px; opacity: 1;"/></g><g class="points"/><g class="text"/></g><g class="trace scatter tracef88282" style="stroke-miterlimit: 2; opacity: 1;"><g class="fills"/><g class="errorbars"/><g class="lines"><path class="js-line" d="M0,225.05L31.71,224.81L63.42,220.53L95.13,226.29L126.84,224.74L158.55,221.06L190.26,225.31L221.97,224.52L253.68,222.64L285.39,223.93L317.1,226.66L348.81,224.7L380.52,224.44L412.23,224.81L443.94,223.38L475.65,222.44L507.35,226.21L539.06,224.21L570.77,217.62L602.48,227.05L634.19,230.42L665.9,225.71L697.61,225.17L729.32,223.97L761.03,225.09L792.74,220.51L824.45,231.75L856.16,334.43L887.87,337.48L919.58,342.6L951.29,342.18L983,223.07" style="vector-effect: none; fill: none; stroke: rgb(67, 67, 72); stroke-opacity: 1; stroke-width: 2px; opacity: 1;"/></g><g class="points"/><g class="text"/></g><g class="trace scatter traceaca0d9" style="stroke-miterlimit: 2; opacity: 1;"><g class="fills"/><g class="errorbars"/><g class="lines"><path class="js-line" d="M0,223.8L31.71,224.79L63.42,219.54L95.13,226.22L126.84,225.65L158.55,221.06L190.26,225.35L221.97,224.66L253.68,222.84L285.39,224.03L317.1,226.89L348.81,226.27L380.52,224.42L412.23,224.67L443.94,223.2L475.65,222.7L507.35,226.18L539.06,224.38L570.77,215.58L602.48,227.38L634.19,231.35L665.9,226.28L697.61,224.89L729.32,224.99L761.03,226.24L792.74,216.3L824.45,233.14L856.16,333.98L887.87,336.35L919.58,342.29L951.29,340.78L983,223.33" style="vector-effect: none; fill: none; stroke: rgb(144, 237, 125); stroke-opacity: 1; stroke-width: 2px; opacity: 1;"/></g><g class="points"/><g class="text"/></g><g class="trace scatter trace378b51" style="stroke-miterlimit: 2; opacity: 1;"><g class="fills"/><g class="errorbars"/><g class="lines"><path class="js-line" d="M0,223.8L31.71,225.6L63.42,220.61L95.13,225.95L126.84,225.29L158.55,222.77L190.26,225.12L221.97,225.15L253.68,223.15L317.1,227.99L348.81,223.58L412.23,227.33L443.94,224.33L475.65,217.81L507.35,227.54L539.06,224.34L570.77,218.15L602.48,228.13L634.19,232.44L665.9,226.23L697.61,225.73L729.32,223.09L761.03,218.51L792.74,219.26L824.45,229.77L856.16,334.43L887.87,337.01L919.58,343.3L951.29,343.28L983,222.95" style="vector-effect: none; fill: none; stroke: rgb(247, 163, 92); stroke-opacity: 1; stroke-width: 2px; opacity: 1;"/></g><g class="points"/><g class="text"/></g><g class="trace scatter tracec00155" style="stroke-miterlimit: 2; opacity: 1;"><g class="fills"/><g class="errorbars"/><g class="lines"><path class="js-line" d="M0,224.3L31.71,224.24L63.42,220.61L95.13,225.84L126.84,224.23L158.55,220.7L190.26,225.3L221.97,224.49L253.68,222.89L285.39,223.85L317.1,226.55L348.81,222.98L380.52,224.29L412.23,225.17L443.94,222.88L475.65,223.95L507.35,226.33L539.06,223.88L570.77,205.17L602.48,226.91L634.19,229.8L665.9,226.31L697.61,224.44L761.03,227.2L792.74,216.95L824.45,228.15L856.16,61.94L887.87,119.29L919.58,91.34L951.29,183.03L983,286.26" style="vector-effect: none; fill: none; stroke: rgb(128, 133, 233); stroke-opacity: 1; stroke-width: 2px; opacity: 1;"/></g><g class="points"/><g class="text"/></g><g class="trace scatter trace1d0b94" style="stroke-miterlimit: 2; opacity: 1;"><g class="fills"/><g class="errorbars"/><g class="lines"><path class="js-line" d="M0,223.95L31.71,226.28L63.42,220.37L95.13,226.42L126.84,225.86L158.55,223.18L190.26,225.25L221.97,225.58L253.68,221.96L285.39,223.81L317.1,226.86L380.52,223.23L412.23,225.97L443.94,222.6L475.65,221.22L507.35,226.34L539.06,224.19L570.77,213.05L602.48,226.6L634.19,229.89L665.9,225.1L697.61,221.47L729.32,224.13L761.03,221.83L792.74,215.65L824.45,226.62L856.16,41.81L887.87,102.09L919.58,74.87L951.29,178.67L983,286.73" style="vector-effect: none; fill: none; stroke: rgb(241, 92, 128); stroke-opacity: 1; stroke-width: 2px; opacity: 1;"/></g><g class="points"/><g class="text"/></g><g class="trace scatter tracedf6896" style="stroke-miterlimit: 2; opacity: 1;"><g class="fills"/><g class="errorbars"/><g class="lines"><path class="js-line" d="M0,223.76L31.71,225.03L63.42,224.2L126.84,225.68L158.55,224.34L190.26,225.65L221.97,225.98L253.68,224.84L285.39,226.17L317.1,226.8L348.81,223.3L380.52,227.67L412.23,226.42L443.94,225.03L475.65,221.19L507.35,226.99L539.06,225.21L570.77,211.32L602.48,227.11L634.19,229.76L665.9,225.47L697.61,225.43L729.32,222.1L761.03,218.87L792.74,214.88L824.45,223.5L856.16,333.83L887.87,337.22L919.58,342.98L951.29,342.59L983,224.41" style="vector-effect: none; fill: none; stroke: rgb(228, 211, 84); stroke-opacity: 1; stroke-width: 2px; opacity: 1;"/></g><g class="points"/><g class="text"/></g><g class="trace scatter trace666b8e" style="stroke-miterlimit: 2; opacity: 1;"><g class="fills"/><g class="errorbars"/><g class="lines"><path class="js-line" d="M0,225.57L31.71,229.67L63.42,218.16L95.13,229.83L126.84,226.72L158.55,223.86L190.26,225.39L221.97,227.16L253.68,220.52L285.39,223.96L317.1,229.48L348.81,226L380.52,220.28L412.23,228.06L443.94,223.08L475.65,219.75L507.35,226.14L539.06,226.31L570.77,212.24L602.48,228.62L634.19,232.13L697.61,219.47L729.32,222.15L761.03,218.92L792.74,210.5L824.45,229.1L856.16,333.23L887.87,335.85L919.58,343.12L951.29,343.78L983,227.67" style="vector-effect: none; fill: none; stroke: rgb(43, 144, 143); stroke-opacity: 1; stroke-width: 2px; opacity: 1;"/></g><g class="points"/><g class="text"/></g><g class="trace scatter tracefce2a8" style="stroke-miterlimit: 2; opacity: 1;"><g class="fills"/><g class="errorbars"/><g class="lines"><path class="js-line" d="M0,224.82L31.71,227.67L63.42,220.73L95.13,228.1L126.84,226.08L158.55,223.78L190.26,225.32L221.97,226.97L253.68,222.94L285.39,226.27L317.1,226.84L348.81,224.37L380.52,223.62L412.23,227.34L443.94,223.92L475.65,221.08L507.35,226.71L539.06,224.47L570.77,203.65L602.48,228.34L634.19,230.46L697.61,220.77L729.32,223.56L761.03,219.97L792.74,211.63L824.45,223.93L856.16,36.48L887.87,98.66L919.58,73.72L951.29,178.56L983,287.7" style="vector-effect: none; fill: none; stroke: rgb(244, 91, 91); stroke-opacity: 1; stroke-width: 2px; opacity: 1;"/></g><g class="points"/><g class="text"/></g><g class="trace scatter tracee578ff" style="stroke-miterlimit: 2; opacity: 1;"><g class="fills"/><g class="errorbars"/><g class="lines"><path class="js-line" d="M0,225.1L31.71,227.47L63.42,223.18L95.13,227.53L126.84,227.61L158.55,225.14L190.26,224.57L221.97,227.13L253.68,223.98L285.39,226.97L317.1,228.82L348.81,224.19L380.52,225.77L412.23,227.73L443.94,224.79L475.65,219.09L507.35,226.36L539.06,224.83L570.77,214.78L602.48,227.42L634.19,230.33L697.61,219.94L729.32,219.09L761.03,215.39L792.74,208.08L824.45,217.11L856.16,332.46L887.87,337.14L919.58,343.74L951.29,343.41L983,227.94" style="vector-effect: none; fill: none; stroke: rgb(145, 232, 225); stroke-opacity: 1; stroke-width: 2px; opacity: 1;"/></g><g class="points"/><g class="text"/></g><g class="trace scatter tracefe5554" style="stroke-miterlimit: 2; opacity: 1;"><g class="fills"/><g class="errorbars"/><g class="lines"><path class="js-line" d="M0,225.53L31.71,227.67L63.42,221.6L95.13,228.4L126.84,227.38L158.55,224.4L190.26,225.44L221.97,226.66L253.68,223.49L317.1,229.27L348.81,225.83L380.52,224.54L412.23,227.99L443.94,225.28L475.65,217.08L507.35,226.08L539.06,225.73L570.77,215.88L602.48,227.93L634.19,231.59L665.9,225.72L697.61,220.72L729.32,218.74L792.74,211.55L824.45,214.88L856.16,333.18L887.87,336.7L919.58,342.36L951.29,342.56L983,226.06" style="vector-effect: none; fill: none; stroke: rgb(124, 181, 236); stroke-opacity: 1; stroke-width: 2px; opacity: 1;"/></g><g class="points"/><g class="text"/></g><g class="trace scatter trace9fc3d1" style="stroke-miterlimit: 2; opacity: 1;"><g class="fills"/><g class="errorbars"/><g class="lines"><path class="js-line" d="M0,223.79L31.71,224.84L63.42,223.53L95.13,225.7L126.84,225L158.55,222.99L190.26,224.77L221.97,224.8L253.68,223.87L285.39,225.89L317.1,226.8L348.81,224.09L380.52,227.49L412.23,225.42L443.94,225.42L475.65,220.94L507.35,227.54L539.06,223.93L570.77,219.06L602.48,227.14L634.19,230.1L665.9,224.67L697.61,225.35L729.32,221.74L761.03,219.56L792.74,214.25L824.45,224.92L856.16,334.06L887.87,336.84L919.58,342.78L951.29,343.4L983,223.68" style="vector-effect: none; fill: none; stroke: rgb(67, 67, 72); stroke-opacity: 1; stroke-width: 2px; opacity: 1;"/></g><g class="points"/><g class="text"/></g><g class="trace scatter tracef0bf2c" style="stroke-miterlimit: 2; opacity: 1;"><g class="fills"/><g class="errorbars"/><g class="lines"><path class="js-line" d="M0,224.27L31.71,224.48L63.42,221.65L95.13,225.85L126.84,225.3L158.55,221.59L190.26,225.92L253.68,224.64L285.39,225.03L317.1,226.86L348.81,224.95L380.52,226.45L412.23,225.06L443.94,224.44L475.65,219.93L507.35,227.64L539.06,224.76L570.77,213.75L602.48,226.81L634.19,231.12L665.9,226.11L697.61,225.77L729.32,224.31L761.03,224.28L792.74,216.68L824.45,223.57L856.16,335.33L887.87,335.52L919.58,341.36L951.29,341.72L983,222.98" style="vector-effect: none; fill: none; stroke: rgb(144, 237, 125); stroke-opacity: 1; stroke-width: 2px; opacity: 1;"/></g><g class="points"/><g class="text"/></g><g class="trace scatter tracebc48e5" style="stroke-miterlimit: 2; opacity: 1;"><g class="fills"/><g class="errorbars"/><g class="lines"><path class="js-line" d="M0,224.15L31.71,224.02L63.42,220.89L95.13,225.3L126.84,224.44L158.55,221.9L190.26,225.8L221.97,224.34L253.68,223.97L285.39,224.05L317.1,226.31L348.81,225.3L380.52,226L412.23,225.31L443.94,223.31L475.65,223.19L507.35,227.35L539.06,224.09L570.77,211.25L602.48,226.11L634.19,231.14L665.9,226.92L697.61,226.13L729.32,225.83L761.03,227.37L792.74,218.53L824.45,232.5L856.16,335.61L887.87,335.22L919.58,342.26L951.29,340.13L983,221.79" style="vector-effect: none; fill: none; stroke: rgb(247, 163, 92); stroke-opacity: 1; stroke-width: 2px; opacity: 1;"/></g><g class="points"/><g class="text"/></g><g class="trace scatter traceeff91a" style="stroke-miterlimit: 2; opacity: 1;"><g class="fills"/><g class="errorbars"/><g class="lines"><path class="js-line" d="M0,223.43L31.71,225.12L63.42,220.54L95.13,226.66L126.84,224.76L158.55,221.54L190.26,224.59L221.97,224.33L253.68,221.7L317.1,226.69L348.81,224.89L380.52,223.41L412.23,225.18L443.94,222.58L475.65,221.98L507.35,225.78L539.06,223.27L570.77,215.78L602.48,226.25L634.19,230.33L665.9,225.19L697.61,221.56L729.32,224.14L761.03,225.04L792.74,220.4L824.45,229.35L856.16,39.64L887.87,97.03L919.58,71.74L951.29,175.83L983,286.28" style="vector-effect: none; fill: none; stroke: rgb(128, 133, 233); stroke-opacity: 1; stroke-width: 2px; opacity: 1;"/></g><g class="points"/><g class="text"/></g><g class="trace scatter trace772930" style="stroke-miterlimit: 2; opacity: 1;"><g class="fills"/><g class="errorbars"/><g class="lines"><path class="js-line" d="M0,224.83L31.71,225.25L63.42,219.62L95.13,227.24L126.84,225.31L158.55,220.85L190.26,225.58L221.97,224.97L253.68,222.55L285.39,223.69L317.1,227.03L348.81,226.94L380.52,223.97L412.23,226.07L443.94,223.4L475.65,223.62L507.35,226.27L539.06,223.86L570.77,211.58L602.48,227.1L634.19,230.16L665.9,226.41L697.61,224.54L729.32,224.54L761.03,227.04L792.74,216.14L824.45,231.22L856.16,333.35L887.87,335.12L919.58,340.57L951.29,340.99L983,222.83" style="vector-effect: none; fill: none; stroke: rgb(241, 92, 128); stroke-opacity: 1; stroke-width: 2px; opacity: 1;"/></g><g class="points"/><g class="text"/></g><g class="trace scatter tracede36fa" style="stroke-miterlimit: 2; opacity: 1;"><g class="fills"/><g class="errorbars"/><g class="lines"><path class="js-line" d="M0,223.39L31.71,223.41L63.42,221.07L95.13,225L126.84,224.27L158.55,221.04L190.26,225.35L253.68,222.57L285.39,223.67L317.1,225.76L348.81,225.39L412.23,224.77L443.94,222.41L475.65,222.39L507.35,227.1L539.06,223.31L570.77,217.16L602.48,225.43L634.19,229.74L665.9,226.33L697.61,223.82L729.32,225.88L761.03,226.9L792.74,217.94L824.45,228.84L856.16,33.71L887.87,92.84L919.58,65.25L951.29,167.28L983,285.48" style="vector-effect: none; fill: none; stroke: rgb(228, 211, 84); stroke-opacity: 1; stroke-width: 2px; opacity: 1;"/></g><g class="points"/><g class="text"/></g><g class="trace scatter trace92a1ea" style="stroke-miterlimit: 2; opacity: 1;"><g class="fills"/><g class="errorbars"/><g class="lines"><path class="js-line" d="M0,224.38L31.71,224.48L63.42,221.45L95.13,225.43L126.84,224.86L158.55,222.13L190.26,225.74L253.68,223.71L285.39,224.67L317.1,225.86L348.81,225.97L380.52,226.18L412.23,224.78L475.65,223.18L507.35,227.93L539.06,223.11L570.77,216.82L602.48,226.04L634.19,229.59L665.9,226.53L697.61,224.84L729.32,224.38L761.03,225.76L792.74,215.15L824.45,227.2L856.16,333.71L887.87,335.37L919.58,342.18L951.29,340.79L983,221.76" style="vector-effect: none; fill: none; stroke: rgb(43, 144, 143); stroke-opacity: 1; stroke-width: 2px; opacity: 1;"/></g><g class="points"/><g class="text"/></g><g class="trace scatter trace954a4a" style="stroke-miterlimit: 2; opacity: 1;"><g class="fills"/><g class="errorbars"/><g class="lines"><path class="js-line" d="M0,224.39L31.71,224.07L63.42,219.75L95.13,225.95L126.84,224.07L158.55,220.95L190.26,225L221.97,224.65L253.68,222.21L285.39,224.63L317.1,226.01L348.81,225.9L380.52,223.47L412.23,225.69L443.94,223.06L475.65,223.04L507.35,226.75L539.06,223.14L570.77,208.61L602.48,226.4L634.19,231.18L665.9,225.7L697.61,224.79L761.03,228.14L792.74,219.18L824.45,230.84L856.16,24.84L887.87,94.26L919.58,59.67L951.29,162.86L983,286.02" style="vector-effect: none; fill: none; stroke: rgb(244, 91, 91); stroke-opacity: 1; stroke-width: 2px; opacity: 1;"/></g><g class="points"/><g class="text"/></g><g class="trace scatter trace6b9d3f" style="stroke-miterlimit: 2; opacity: 1;"><g class="fills"/><g class="errorbars"/><g class="lines"><path class="js-line" d="M0,225.1L31.71,226.9L63.42,221.95L95.13,227.75L126.84,226.77L158.55,223.53L190.26,225.49L221.97,226.59L253.68,223.37L317.1,228.67L348.81,226.67L380.52,223.58L412.23,227.6L443.94,224.34L475.65,222.19L507.35,226.26L539.06,224.69L570.77,208.33L602.48,227.88L634.19,231.44L665.9,225.04L697.61,220.09L729.32,219.87L761.03,219L792.74,209.98L824.45,221.45L856.16,335.23L887.87,333.3L919.58,343.56L951.29,342.7L983,226.69" style="vector-effect: none; fill: none; stroke: rgb(145, 232, 225); stroke-opacity: 1; stroke-width: 2px; opacity: 1;"/></g><g class="points"/><g class="text"/></g><g class="trace scatter tracecab3ba" style="stroke-miterlimit: 2; opacity: 1;"><g class="fills"/><g class="errorbars"/><g class="lines"><path class="js-line" d="M0,223.58L31.71,223.54L63.42,222.36L95.13,225.06L126.84,224.83L158.55,222.4L190.26,224.55L221.97,224.36L253.68,223.14L317.1,225.99L348.81,223.89L380.52,226.38L412.23,225.48L443.94,223.83L475.65,220.95L507.35,227.23L539.06,223.2L570.77,211.93L602.48,225.88L634.19,228.71L665.9,225.12L697.61,223.02L729.32,223.06L761.03,220.78L792.74,214.13L824.45,226.23L856.16,68.44L887.87,125.28L919.58,99.8L983,286.36" style="vector-effect: none; fill: none; stroke: rgb(124, 181, 236); stroke-opacity: 1; stroke-width: 2px; opacity: 1;"/></g><g class="points"/><g class="text"/></g><g class="trace scatter trace854276" style="stroke-miterlimit: 2; opacity: 1;"><g class="fills"/><g class="errorbars"/><g class="lines"><path class="js-line" d="M0,222.37L31.71,225.36L63.42,221.98L95.13,225.12L126.84,225.27L158.55,221.75L190.26,225.63L221.97,224.73L253.68,225.11L317.1,227.67L348.81,224.77L380.52,226.85L412.23,226.83L443.94,225.53L475.65,221.65L507.35,229.54L539.06,224.31L570.77,211.11L602.48,227.67L634.19,231.71L665.9,227.02L697.61,223.62L729.32,222.26L761.03,220.64L792.74,215.13L824.45,225.12L856.16,335.24L887.87,336.27L919.58,342.37L951.29,343.48L983,223" style="vector-effect: none; fill: none; stroke: rgb(67, 67, 72); stroke-opacity: 1; stroke-width: 2px; opacity: 1;"/></g><g class="points"/><g class="text"/></g><g class="trace scatter trace1e9b17" style="stroke-miterlimit: 2; opacity: 1;"><g class="fills"/><g class="errorbars"/><g class="lines"><path class="js-line" d="M0,224.1L31.71,224.01L63.42,220.95L95.13,226.06L126.84,224.59L158.55,221.46L190.26,224.92L253.68,223.81L285.39,224.9L317.1,226.31L348.81,225.97L380.52,224.96L412.23,225.01L443.94,223.15L475.65,223.26L507.35,226.69L539.06,222.55L570.77,215.44L602.48,226.49L634.19,230.67L665.9,225.74L729.32,224.76L761.03,227.48L792.74,218.06L824.45,230.93L856.16,332.4L887.87,335.93L919.58,340.6L951.29,340.9L983,222.21" style="vector-effect: none; fill: none; stroke: rgb(144, 237, 125); stroke-opacity: 1; stroke-width: 2px; opacity: 1;"/></g><g class="points"/><g class="text"/></g><g class="trace scatter tracec102e9" style="stroke-miterlimit: 2; opacity: 1;"><g class="fills"/><g class="errorbars"/><g class="lines"><path class="js-line" d="M0,225.71L31.71,226.75L63.42,218.9L95.13,229.85L126.84,227.21L158.55,222.08L190.26,224.25L221.97,226.56L253.68,221.07L317.1,229.03L348.81,226.68L380.52,220.43L412.23,227.27L475.65,219.28L507.35,225.68L539.06,224.83L570.77,217.73L602.48,228.34L634.19,231.33L697.61,220.58L729.32,221.71L761.03,221.18L792.74,210.78L824.45,219.6L856.16,337.07L887.87,337.45L919.58,342.06L951.29,341.82L983,227.41" style="vector-effect: none; fill: none; stroke: rgb(247, 163, 92); stroke-opacity: 1; stroke-width: 2px; opacity: 1;"/></g><g class="points"/><g class="text"/></g><g class="trace scatter trace8ad922" style="stroke-miterlimit: 2; opacity: 1;"><g class="fills"/><g class="errorbars"/><g class="lines"><path class="js-line" d="M0,223.59L31.71,223.26L63.42,220.29L95.13,224.99L126.84,223.53L158.55,220.3L190.26,224.52L253.68,223.47L285.39,224.27L317.1,225.5L348.81,225.61L443.94,222.93L475.65,223.86L507.35,227.24L539.06,222.81L570.77,214.01L602.48,225.28L634.19,230.21L665.9,226.6L697.61,225.73L729.32,225.67L761.03,228.92L792.74,219.11L824.45,233.11L856.16,28.47L887.87,91.63L919.58,53.51L951.29,164.84L983,285.49" style="vector-effect: none; fill: none; stroke: rgb(128, 133, 233); stroke-opacity: 1; stroke-width: 2px; opacity: 1;"/></g><g class="points"/><g class="text"/></g><g class="trace scatter trace125bee" style="stroke-miterlimit: 2; opacity: 1;"><g class="fills"/><g class="errorbars"/><g class="lines"><path class="js-line" d="M0,223.84L31.71,223.45L63.42,220.57L95.13,226.24L126.84,224.39L158.55,221.78L190.26,224.91L221.97,224.44L253.68,222.74L317.1,225.97L348.81,225.64L380.52,224.33L412.23,224.91L443.94,222.31L475.65,221.12L507.35,227L539.06,223.36L570.77,209.7L602.48,226.02L634.19,229.16L665.9,225.9L697.61,225.39L729.32,227.21L761.03,227.67L792.74,222.58L824.45,230.54L856.16,32.7L887.87,92.69L919.58,62.42L951.29,169.18L983,285.7" style="vector-effect: none; fill: none; stroke: rgb(241, 92, 128); stroke-opacity: 1; stroke-width: 2px; opacity: 1;"/></g><g class="points"/><g class="text"/></g><g class="trace scatter trace10eee0" style="stroke-miterlimit: 2; opacity: 1;"><g class="fills"/><g class="errorbars"/><g class="lines"><path class="js-line" d="M0,223.26L31.71,224.55L63.42,219.35L95.13,226.53L126.84,224.24L158.55,221.73L190.26,225.44L221.97,224.2L253.68,221.62L285.39,222.93L317.1,226.21L348.81,225.47L380.52,222.96L412.23,224.67L443.94,221.6L475.65,222.82L507.35,225.82L539.06,222.97L570.77,215.49L602.48,226.67L634.19,231.01L665.9,225.74L697.61,221.55L729.32,225.42L761.03,225.98L792.74,219.36L824.45,232.01L856.16,48.58L887.87,103.03L919.58,77.24L951.29,172.72L983,285.91" style="vector-effect: none; fill: none; stroke: rgb(228, 211, 84); stroke-opacity: 1; stroke-width: 2px; opacity: 1;"/></g><g class="points"/><g class="text"/></g><g class="trace scatter trace1faa9d" style="stroke-miterlimit: 2; opacity: 1;"><g class="fills"/><g class="errorbars"/><g class="lines"><path class="js-line" d="M0,223.71L31.71,225.59L63.42,223.35L95.13,225.36L126.84,225.51L158.55,223.07L190.26,224.83L221.97,225.65L253.68,223.28L285.39,225.92L317.1,227.21L348.81,223.67L380.52,226.32L412.23,226.1L443.94,224.4L475.65,220.63L507.35,227.61L539.06,223.76L570.77,221.95L602.48,226.4L634.19,228.37L665.9,225L697.61,223L729.32,223.17L761.03,219.77L792.74,214.36L824.45,222.26L856.16,333.84L887.87,334.62L919.58,342.1L951.29,342.37L983,224.38" style="vector-effect: none; fill: none; stroke: rgb(43, 144, 143); stroke-opacity: 1; stroke-width: 2px; opacity: 1;"/></g><g class="points"/><g class="text"/></g><g class="trace scatter tracea28707" style="stroke-miterlimit: 2; opacity: 1;"><g class="fills"/><g class="errorbars"/><g class="lines"><path class="js-line" d="M0,224.61L31.71,223L63.42,220.53L95.13,225.83L126.84,224.68L158.55,221.13L190.26,224.91L221.97,224.73L253.68,223.09L317.1,225.75L348.81,225.27L380.52,224.74L412.23,225.22L443.94,222.56L475.65,223.74L507.35,226.05L539.06,224.04L570.77,217.47L602.48,227.09L634.19,231.34L665.9,226.7L697.61,227.35L729.32,225.24L761.03,228.86L792.74,220.5L824.45,220.12L856.16,332.22L887.87,336.54L919.58,342.29L951.29,340.94L983,222.14" style="vector-effect: none; fill: none; stroke: rgb(244, 91, 91); stroke-opacity: 1; stroke-width: 2px; opacity: 1;"/></g><g class="points"/><g class="text"/></g><g class="trace scatter trace0f8fd6" style="stroke-miterlimit: 2; opacity: 1;"><g class="fills"/><g class="errorbars"/><g class="lines"><path class="js-line" d="M0,223.81L31.71,224.19L63.42,221.08L95.13,225.69L126.84,225.37L158.55,221.74L190.26,225.14L221.97,225.33L253.68,223.41L285.39,224.24L317.1,226.51L348.81,225.31L380.52,225L412.23,224.73L443.94,223.53L475.65,222.39L507.35,226.41L539.06,223.3L570.77,219.36L602.48,225.9L634.19,230.84L665.9,225.89L697.61,225.09L761.03,226.4L792.74,217.14L824.45,229.83L856.16,332.79L887.87,334.67L919.58,341.42L951.29,341.05L983,222.63" style="vector-effect: none; fill: none; stroke: rgb(145, 232, 225); stroke-opacity: 1; stroke-width: 2px; opacity: 1;"/></g><g class="points"/><g class="text"/></g><g class="trace scatter trace08f8c7" style="stroke-miterlimit: 2; opacity: 1;"><g class="fills"/><g class="errorbars"/><g class="lines"><path class="js-line" d="M0,223.15L31.71,225.19L63.42,219.7L95.13,226.19L126.84,224.61L158.55,220.27L190.26,225.04L221.97,225.99L253.68,222.19L285.39,223.6L317.1,226.84L348.81,226.16L380.52,223.67L412.23,225.93L443.94,222.73L475.65,223.58L507.35,225.84L539.06,223.56L570.77,214.15L602.48,226.75L634.19,230.96L665.9,225.74L697.61,222.18L761.03,224.66L792.74,216.46L824.45,227.54L856.16,36.14L887.87,94.33L919.58,64.59L951.29,168.28L983,286.4" style="vector-effect: none; fill: none; stroke: rgb(124, 181, 236); stroke-opacity: 1; stroke-width: 2px; opacity: 1;"/></g><g class="points"/><g class="text"/></g><g class="trace scatter trace0f0760" style="stroke-miterlimit: 2; opacity: 1;"><g class="fills"/><g class="errorbars"/><g class="lines"><path class="js-line" d="M0,224.51L31.71,225.06L63.42,220.81L95.13,226.51L126.84,224.77L158.55,221.57L190.26,225.35L221.97,225.15L253.68,223.08L317.1,224.91L348.81,222.95L412.23,225.23L443.94,223.44L475.65,222.86L507.35,226.34L539.06,224.38L570.77,221.11L602.48,227.09L634.19,230.94L665.9,226.12L697.61,224.21L729.32,224.12L761.03,225.29L792.74,217.47L824.45,227.48L856.16,334.66L887.87,335.99L919.58,343.37L951.29,342.94L983,223.19" style="vector-effect: none; fill: none; stroke: rgb(67, 67, 72); stroke-opacity: 1; stroke-width: 2px; opacity: 1;"/></g><g class="points"/><g class="text"/></g><g class="trace scatter trace428b1b" style="stroke-miterlimit: 2; opacity: 1;"><g class="fills"/><g class="errorbars"/><g class="lines"><path class="js-line" d="M0,224.28L31.71,227.03L63.42,222.87L95.13,226.39L126.84,226.81L158.55,224.35L190.26,225.47L221.97,225.77L253.68,223.47L317.1,228.12L348.81,223.83L380.52,225.8L412.23,226.84L443.94,224.71L475.65,220.1L507.35,226.97L539.06,223.73L570.77,220.17L602.48,227.11L634.19,231.59L665.9,224.43L697.61,220.21L729.32,219.43L761.03,217.14L792.74,210.78L824.45,219.98L856.16,336L887.87,337.64L919.58,341.42L951.29,342.1L983,226.76" style="vector-effect: none; fill: none; stroke: rgb(144, 237, 125); stroke-opacity: 1; stroke-width: 2px; opacity: 1;"/></g><g class="points"/><g class="text"/></g><g class="trace scatter trace2bc8b2" style="stroke-miterlimit: 2; opacity: 1;"><g class="fills"/><g class="errorbars"/><g class="lines"><path class="js-line" d="M0,224.31L31.71,225.55L63.42,220.65L95.13,227.32L126.84,225.41L158.55,221.78L190.26,225.57L221.97,225.11L253.68,222.72L285.39,224.63L317.1,227.4L348.81,225.05L380.52,224.14L412.23,225.65L443.94,223.38L475.65,222.05L507.35,226.56L539.06,224.19L570.77,214.67L602.48,226.86L634.19,231.05L665.9,226.14L697.61,223.98L761.03,223.64L792.74,217.47L824.45,229.34L856.16,335.39L887.87,336.77L919.58,342.55L951.29,340.68L983,223.34" style="vector-effect: none; fill: none; stroke: rgb(247, 163, 92); stroke-opacity: 1; stroke-width: 2px; opacity: 1;"/></g><g class="points"/><g class="text"/></g><g class="trace scatter traced07450" style="stroke-miterlimit: 2; opacity: 1;"><g class="fills"/><g class="errorbars"/><g class="lines"><path class="js-line" d="M0,224.68L31.71,224.76L63.42,221.1L95.13,227.23L126.84,225.57L158.55,221.74L190.26,224.72L221.97,225.92L253.68,223.27L317.1,226.79L348.81,225.67L380.52,223.71L412.23,226.53L443.94,223.73L475.65,223.88L507.35,225.69L539.06,224.56L570.77,206.87L602.48,226.96L634.19,230.63L665.9,226.46L697.61,226.06L729.32,224.62L761.03,226.43L792.74,222.01L824.45,223.17L856.16,334.08L887.87,336.5L919.58,342.83L951.29,341.67L983,223.9" style="vector-effect: none; fill: none; stroke: rgb(128, 133, 233); stroke-opacity: 1; stroke-width: 2px; opacity: 1;"/></g><g class="points"/><g class="text"/></g><g class="trace scatter trace067d78" style="stroke-miterlimit: 2; opacity: 1;"><g class="fills"/><g class="errorbars"/><g class="lines"><path class="js-line" d="M0,223.04L31.71,227.24L63.42,219.07L95.13,228.13L126.84,225.86L158.55,224.85L190.26,225.78L221.97,225.65L253.68,221.08L285.39,225.3L317.1,228.16L348.81,225.63L380.52,221.25L412.23,228.14L443.94,222.23L475.65,217.79L507.35,226.79L539.06,223.38L570.77,223.97L634.19,232.7L665.9,224.97L697.61,218.71L729.32,223.33L761.03,220.77L792.74,219.23L824.45,217.29L856.16,336.2L887.87,337.45L919.58,342.52L951.29,343.03L983,225.71" style="vector-effect: none; fill: none; stroke: rgb(241, 92, 128); stroke-opacity: 1; stroke-width: 2px; opacity: 1;"/></g><g class="points"/><g class="text"/></g><g class="trace scatter trace60302c" style="stroke-miterlimit: 2; opacity: 1;"><g class="fills"/><g class="errorbars"/><g class="lines"><path class="js-line" d="M0,223.3L31.71,222.88L63.42,220.12L95.13,225.2L126.84,223.63L158.55,221.53L190.26,225.14L253.68,222.68L285.39,224.26L348.81,225.4L380.52,224.23L412.23,224.14L443.94,221.78L475.65,221.84L507.35,225.81L539.06,222.8L570.77,215.6L602.48,225.22L634.19,228.79L665.9,225.88L697.61,226.41L729.32,226.34L761.03,229.93L792.74,224.73L824.45,227.1L856.16,38.17L887.87,100.13L919.58,63.44L951.29,169.3L983,285.93" style="vector-effect: none; fill: none; stroke: rgb(228, 211, 84); stroke-opacity: 1; stroke-width: 2px; opacity: 1;"/></g><g class="points"/><g class="text"/></g><g class="trace scatter trace341922" style="stroke-miterlimit: 2; opacity: 1;"><g class="fills"/><g class="errorbars"/><g class="lines"><path class="js-line" d="M0,224.87L31.71,230.55L63.42,213.59L95.13,231.59L126.84,227.41L158.55,222.64L190.26,224.67L221.97,227.38L253.68,216.21L285.39,221.74L317.1,230.02L348.81,228.4L380.52,213.34L412.23,228.27L443.94,218.86L475.65,221.26L507.35,224.42L539.06,225.41L570.77,220.44L602.48,230.08L634.19,234.08L665.9,224.86L697.61,213.84L729.32,227.21L761.03,227.43L792.74,217.14L824.45,213.39L856.16,335.16L887.87,340.32L919.58,344.83L951.29,343.21L983,229.54" style="vector-effect: none; fill: none; stroke: rgb(43, 144, 143); stroke-opacity: 1; stroke-width: 2px; opacity: 1;"/></g><g class="points"/><g class="text"/></g><g class="trace scatter trace999de3" style="stroke-miterlimit: 2; opacity: 1;"><g class="fills"/><g class="errorbars"/><g class="lines"><path class="js-line" d="M0,223.77L31.71,227.72L63.42,218.28L95.13,228.99L126.84,226.3L158.55,223.68L190.26,225.18L221.97,226.08L253.68,220.02L285.39,223.55L317.1,228.43L348.81,226.89L380.52,218.96L412.23,227.47L443.94,220.47L475.65,221.17L507.35,225.86L539.06,224.28L570.77,216.02L602.48,228.26L634.19,230.4L697.61,218.54L729.32,224.97L761.03,224.93L792.74,219.34L824.45,227.91L856.16,336.52L887.87,337.35L919.58,343.67L951.29,342.72L983,226.77" style="vector-effect: none; fill: none; stroke: rgb(244, 91, 91); stroke-opacity: 1; stroke-width: 2px; opacity: 1;"/></g><g class="points"/><g class="text"/></g><g class="trace scatter trace883924" style="stroke-miterlimit: 2; opacity: 1;"><g class="fills"/><g class="errorbars"/><g class="lines"><path class="js-line" d="M0,224.27L31.71,224.43L63.42,219.45L95.13,225.86L126.84,224.25L158.55,220.98L190.26,225.3L221.97,224.54L253.68,222.41L317.1,226.7L348.81,225.65L380.52,223.45L412.23,224.72L475.65,220.28L507.35,226.11L539.06,223.19L570.77,218.25L602.48,226.07L634.19,231.31L665.9,226.24L697.61,223.31L729.32,224.6L761.03,227.11L792.74,218.14L824.45,225.22L856.16,36.85L887.87,99.74L919.58,65.48L951.29,169.75L983,285.71" style="vector-effect: none; fill: none; stroke: rgb(145, 232, 225); stroke-opacity: 1; stroke-width: 2px; opacity: 1;"/></g><g class="points"/><g class="text"/></g><g class="trace scatter tracea7c0c7" style="stroke-miterlimit: 2; opacity: 1;"><g class="fills"/><g class="errorbars"/><g class="lines"><path class="js-line" d="M0,223.91L31.71,224.72L63.42,219.78L95.13,226.41L126.84,224.36L158.55,221.34L190.26,225.05L221.97,224.66L253.68,222.27L285.39,223.48L317.1,226.48L380.52,223.58L412.23,224.52L443.94,222.63L475.65,223.38L507.35,226.75L539.06,223.2L570.77,211.88L602.48,226.12L634.19,230.5L665.9,225.65L697.61,222.43L729.32,225.3L761.03,226.56L792.74,216.83L824.45,230.52L856.16,47.94L887.87,104.15L919.58,76.04L951.29,175.45L983,285.91" style="vector-effect: none; fill: none; stroke: rgb(124, 181, 236); stroke-opacity: 1; stroke-width: 2px; opacity: 1;"/></g><g class="points"/><g class="text"/></g><g class="trace scatter trace18f7b1" style="stroke-miterlimit: 2; opacity: 1;"><g class="fills"/><g class="errorbars"/><g class="lines"><path class="js-line" d="M0,223.06L31.71,223.96L63.42,219.88L95.13,226.21L126.84,224.71L158.55,221.81L190.26,224.51L221.97,224.41L253.68,222.36L285.39,224.6L317.1,225.92L348.81,225.54L380.52,223.22L412.23,224.99L443.94,222.55L475.65,221.99L507.35,226.02L539.06,223.47L570.77,217.14L602.48,226.07L634.19,230.04L665.9,225.59L697.61,222.6L761.03,226.69L792.74,217.43L824.45,230.99L856.16,38.52L887.87,100.94L919.58,66.02L951.29,169.5L983,285.99" style="vector-effect: none; fill: none; stroke: rgb(67, 67, 72); stroke-opacity: 1; stroke-width: 2px; opacity: 1;"/></g><g class="points"/><g class="text"/></g><g class="trace scatter trace2376be" style="stroke-miterlimit: 2; opacity: 1;"><g class="fills"/><g class="errorbars"/><g class="lines"><path class="js-line" d="M0,224.19L31.71,225.08L63.42,220.04L95.13,226.36L126.84,224.8L158.55,221.79L190.26,225.55L253.68,222.97L285.39,224.16L317.1,226.73L348.81,224.91L380.52,224.5L412.23,225.73L443.94,223.06L475.65,221.32L507.35,227.44L539.06,223.84L570.77,220.94L602.48,226.87L634.19,231.5L665.9,226.29L697.61,223.53L729.32,223.77L761.03,224.93L792.74,217.25L824.45,227.69L856.16,335.46L887.87,335.71L919.58,341.95L951.29,341.31L983,223.68" style="vector-effect: none; fill: none; stroke: rgb(144, 237, 125); stroke-opacity: 1; stroke-width: 2px; opacity: 1;"/></g><g class="points"/><g class="text"/></g><g class="trace scatter trace0c6b2c" style="stroke-miterlimit: 2; opacity: 1;"><g class="fills"/><g class="errorbars"/><g class="lines"><path class="js-line" d="M0,224.74L31.71,227.36L63.42,217L95.13,228.78L126.84,225.48L158.55,222.04L190.26,224.75L221.97,225.59L253.68,219.31L285.39,222.55L317.1,228.06L348.81,225.37L380.52,218.26L412.23,226.46L443.94,220.77L475.65,223.39L507.35,224.96L539.06,224.59L570.77,211.81L602.48,228.21L634.19,231.72L665.9,225.06L697.61,216.5L729.32,225.18L761.03,226.1L792.74,217.28L824.45,224.62L856.16,57.84L887.87,122.98L919.58,96.01L951.29,188.2L983,287.31" style="vector-effect: none; fill: none; stroke: rgb(247, 163, 92); stroke-opacity: 1; stroke-width: 2px; opacity: 1;"/></g><g class="points"/><g class="text"/></g><g class="trace scatter trace8b6e94" style="stroke-miterlimit: 2; opacity: 1;"><g class="fills"/><g class="errorbars"/><g class="lines"><path class="js-line" d="M0,223.33L31.71,225.23L63.42,224.66L126.84,226.19L158.55,223.47L190.26,225.34L221.97,225.61L253.68,224.63L285.39,226.91L317.1,227.54L348.81,223.97L380.52,228.38L412.23,225.14L443.94,225.56L475.65,217.85L507.35,226.73L539.06,224.14L570.77,220.73L602.48,227.02L634.19,230.86L665.9,225.49L729.32,221.62L761.03,217.96L792.74,213.28L824.45,218.59L856.16,333.44L887.87,336.67L919.58,342.51L951.29,342.33L983,225.23" style="vector-effect: none; fill: none; stroke: rgb(128, 133, 233); stroke-opacity: 1; stroke-width: 2px; opacity: 1;"/></g><g class="points"/><g class="text"/></g><g class="trace scatter tracec21d64" style="stroke-miterlimit: 2; opacity: 1;"><g class="fills"/><g class="errorbars"/><g class="lines"><path class="js-line" d="M0,222.95L31.71,226.9L63.42,224.18L95.13,226.39L126.84,226.73L158.55,224.88L190.26,224.98L221.97,226.06L253.68,223.65L285.39,226.7L317.1,228.43L348.81,224.77L380.52,226.89L443.94,224.6L475.65,221.48L507.35,226.79L539.06,224.24L570.77,215.7L602.48,227.88L634.19,229.96L665.9,224.13L697.61,219.44L729.32,221.32L761.03,219.27L792.74,214.79L824.45,213.46L856.16,333.69L887.87,335.61L919.58,340.19L951.29,340.29L983,227.51" style="vector-effect: none; fill: none; stroke: rgb(241, 92, 128); stroke-opacity: 1; stroke-width: 2px; opacity: 1;"/></g><g class="points"/><g class="text"/></g><g class="trace scatter trace8c15f6" style="stroke-miterlimit: 2; opacity: 1;"><g class="fills"/><g class="errorbars"/><g class="lines"><path class="js-line" d="M0,222.68L31.71,224.78L63.42,221.14L95.13,225.57L126.84,223.99L158.55,221.43L190.26,224.28L221.97,224.22L253.68,221.79L285.39,223.38L317.1,226.08L348.81,224.07L380.52,223.94L412.23,224.45L443.94,222.08L475.65,222.02L507.35,226.32L539.06,222.91L570.77,220.47L602.48,226.17L634.19,231.06L665.9,225.06L697.61,220.54L729.32,226.32L761.03,224.71L792.74,221.56L824.45,228.72L856.16,34.56L887.87,103.47L919.58,74.58L951.29,174.49L983,286.62" style="vector-effect: none; fill: none; stroke: rgb(228, 211, 84); stroke-opacity: 1; stroke-width: 2px; opacity: 1;"/></g><g class="points"/><g class="text"/></g><g class="trace scatter tracea48b1a" style="stroke-miterlimit: 2; opacity: 1;"><g class="fills"/><g class="errorbars"/><g class="lines"><path class="js-line" d="M0,223.22L31.71,224.54L63.42,218.8L95.13,226.45L126.84,224.13L158.55,220.89L190.26,225.25L253.68,222.17L285.39,222.9L317.1,226.05L348.81,225.68L380.52,223.17L412.23,224.93L443.94,222.08L475.65,222.93L507.35,225.82L539.06,223.4L570.77,215.93L602.48,226.92L634.19,231.35L665.9,226.21L697.61,221.43L729.32,225.39L761.03,227.11L792.74,217.04L824.45,228.64L856.16,55.92L887.87,112.61L919.58,85.03L951.29,178.66L983,286" style="vector-effect: none; fill: none; stroke: rgb(43, 144, 143); stroke-opacity: 1; stroke-width: 2px; opacity: 1;"/></g><g class="points"/><g class="text"/></g><g class="trace scatter trace730024" style="stroke-miterlimit: 2; opacity: 1;"><g class="fills"/><g class="errorbars"/><g class="lines"><path class="js-line" d="M0,223.94L31.71,225.26L63.42,217.34L95.13,227.04L126.84,224.43L158.55,221.47L190.26,225.16L221.97,224.86L253.68,221.27L285.39,222.19L317.1,226.2L348.81,226.41L380.52,221.98L412.23,224.74L443.94,220.58L475.65,221.66L507.35,225.97L539.06,224.16L570.77,217.61L602.48,227.3L634.19,231.62L665.9,226.06L697.61,225.21L729.32,229.08L761.03,230.4L792.74,225.67L824.45,228.34L856.16,333.04L887.87,338.29L919.58,343.12L951.29,341.04L983,222.99" style="vector-effect: none; fill: none; stroke: rgb(244, 91, 91); stroke-opacity: 1; stroke-width: 2px; opacity: 1;"/></g><g class="points"/><g class="text"/></g><g class="trace scatter trace850b8c" style="stroke-miterlimit: 2; opacity: 1;"><g class="fills"/><g class="errorbars"/><g class="lines"><path class="js-line" d="M0,222.51L31.71,223.72L63.42,218.59L95.13,224.95L126.84,223.46L158.55,220.79L190.26,225.64L221.97,223.07L253.68,221.74L285.39,221.44L317.1,225.86L348.81,225.64L380.52,222.78L412.23,223.97L443.94,220.75L475.65,221.21L507.35,226.69L539.06,223.57L570.77,213.44L602.48,227.31L634.19,231.46L665.9,226.78L697.61,225.84L729.32,230.49L761.03,231.77L792.74,227.75L824.45,227.04L856.16,40.59L887.87,104.07L919.58,73.17L951.29,171.57L983,285.3" style="vector-effect: none; fill: none; stroke: rgb(145, 232, 225); stroke-opacity: 1; stroke-width: 2px; opacity: 1;"/></g><g class="points"/><g class="text"/></g><g class="trace scatter trace8b53dc" style="stroke-miterlimit: 2; opacity: 1;"><g class="fills"/><g class="errorbars"/><g class="lines"><path class="js-line" d="M0,222.84L31.71,225.48L63.42,220.28L95.13,226.29L126.84,224.73L158.55,221.89L190.26,225.13L221.97,224.28L253.68,221.1L285.39,222.62L317.1,226.37L348.81,225.11L380.52,222.92L412.23,225.13L443.94,221.08L475.65,222.9L507.35,226.2L539.06,223.34L570.77,221.87L602.48,226.3L634.19,229.29L665.9,225.04L697.61,217.15L729.32,226.04L761.03,226.19L792.74,220.29L824.45,229.92L856.16,31.45L887.87,102.3L919.58,73.18L951.29,170.39L983,286" style="vector-effect: none; fill: none; stroke: rgb(124, 181, 236); stroke-opacity: 1; stroke-width: 2px; opacity: 1;"/></g><g class="points"/><g class="text"/></g><g class="trace scatter trace51235d" style="stroke-miterlimit: 2; opacity: 1;"><g class="fills"/><g class="errorbars"/><g class="lines"><path class="js-line" d="M0,224.35L31.71,229.51L63.42,214.97L95.13,230.76L126.84,226.03L158.55,222.71L190.26,224.6L221.97,226.67L253.68,216.92L285.39,221.45L317.1,228.38L348.81,227.95L380.52,214.6L412.23,227.4L443.94,218.92L475.65,222.97L507.35,224.47L570.77,222.66L602.48,228.8L634.19,232.89L665.9,223.9L697.61,215.41L729.32,225.47L761.03,227.3L792.74,216.27L824.45,230.8L856.16,336.38L887.87,337.6L919.58,343.78L951.29,344.03L983,228.83" style="vector-effect: none; fill: none; stroke: rgb(67, 67, 72); stroke-opacity: 1; stroke-width: 2px; opacity: 1;"/></g><g class="points"/><g class="text"/></g><g class="trace scatter traceb1fd58" style="stroke-miterlimit: 2; opacity: 1;"><g class="fills"/><g class="errorbars"/><g class="lines"><path class="js-line" d="M0,223.95L31.71,224.03L63.42,218.61L95.13,226.31L126.84,223.75L158.55,221.61L190.26,224.91L221.97,224.66L253.68,222.29L317.1,226.35L348.81,223.69L380.52,223.11L412.23,225.58L443.94,221.95L475.65,222.95L507.35,226.44L539.06,222.91L570.77,210.97L602.48,226.71L634.19,230.45L665.9,226.75L697.61,225.31L729.32,226.87L761.03,231.39L792.74,220.77L824.45,227.94L856.16,33.12L887.87,95.39L919.58,59.78L951.29,170.5L983,285.38" style="vector-effect: none; fill: none; stroke: rgb(144, 237, 125); stroke-opacity: 1; stroke-width: 2px; opacity: 1;"/></g><g class="points"/><g class="text"/></g><g class="trace scatter tracebdb8c5" style="stroke-miterlimit: 2; opacity: 1;"><g class="fills"/><g class="errorbars"/><g class="lines"><path class="js-line" d="M0,222.97L31.71,222.97L63.42,220.18L95.13,224.71L126.84,224.17L158.55,220.25L190.26,225.42L221.97,223.15L253.68,222.75L285.39,223.16L317.1,225.78L380.52,224.62L412.23,223.28L475.65,220.69L507.35,226.78L539.06,223.24L570.77,213.79L602.48,225.75L634.19,230.68L665.9,226.78L697.61,224.79L761.03,228.95L792.74,220.59L824.45,234.16L856.16,45.4L887.87,107.92L919.58,78.51L951.29,173.81L983,285.36" style="vector-effect: none; fill: none; stroke: rgb(247, 163, 92); stroke-opacity: 1; stroke-width: 2px; opacity: 1;"/></g><g class="points"/><g class="text"/></g><g class="trace scatter traceca43ea" style="stroke-miterlimit: 2; opacity: 1;"><g class="fills"/><g class="errorbars"/><g class="lines"><path class="js-line" d="M0,224.5L31.71,226.85L63.42,217.73L95.13,227.48L126.84,225.45L158.55,222.13L190.26,224.3L221.97,225.53L253.68,219.52L285.39,224.67L317.1,226.48L348.81,225.39L380.52,219.8L412.23,226.24L443.94,220.57L507.35,224.28L539.06,222.87L570.77,216.93L602.48,226.84L634.19,231.84L665.9,224.65L697.61,218.93L729.32,222.38L761.03,225.37L792.74,212.85L824.45,218.41L856.16,77.19L887.87,138.01L919.58,109.93L951.29,201.12L983,286.99" style="vector-effect: none; fill: none; stroke: rgb(128, 133, 233); stroke-opacity: 1; stroke-width: 2px; opacity: 1;"/></g><g class="points"/><g class="text"/></g><g class="trace scatter trace7acbc8" style="stroke-miterlimit: 2; opacity: 1;"><g class="fills"/><g class="errorbars"/><g class="lines"><path class="js-line" d="M0,223.4L31.71,224.36L63.42,219.47L95.13,226.23L126.84,224.09L158.55,221.46L190.26,225.63L253.68,222.9L285.39,222.55L317.1,226.03L348.81,225.82L380.52,223.62L412.23,224.53L443.94,222.17L475.65,221.24L507.35,227L539.06,223.56L570.77,213.68L602.48,226.75L634.19,231.81L665.9,226.7L697.61,225.9L729.32,229.09L761.03,230.23L792.74,224.79L824.45,229.98L856.16,335.35L887.87,337.23L919.58,342.53L951.29,342.11L983,222.26" style="vector-effect: none; fill: none; stroke: rgb(241, 92, 128); stroke-opacity: 1; stroke-width: 2px; opacity: 1;"/></g><g class="points"/><g class="text"/></g><g class="trace scatter trace104820" style="stroke-miterlimit: 2; opacity: 1;"><g class="fills"/><g class="errorbars"/><g class="lines"><path class="js-line" d="M0,223.76L31.71,224.79L63.42,219.94L95.13,225.69L126.84,225.03L158.55,222.11L190.26,225.19L221.97,224.74L253.68,223.37L285.39,223.91L317.1,226.24L380.52,224.47L412.23,225.46L443.94,223.8L475.65,220.09L507.35,227.2L539.06,224.27L570.77,216.38L602.48,226.92L634.19,230.49L665.9,226.65L697.61,224.39L729.32,225.65L761.03,225.6L792.74,220.78L824.45,233.02L856.16,335.72L887.87,336.26L919.58,342.72L951.29,342.44L983,222.53" style="vector-effect: none; fill: none; stroke: rgb(228, 211, 84); stroke-opacity: 1; stroke-width: 2px; opacity: 1;"/></g><g class="points"/><g class="text"/></g><g class="trace scatter trace51fff6" style="stroke-miterlimit: 2; opacity: 1;"><g class="fills"/><g class="errorbars"/><g class="lines"><path class="js-line" d="M0,223.95L31.71,223.8L63.42,221.75L95.13,226.04L126.84,224.16L158.55,221.99L190.26,225.04L253.68,222.96L285.39,224.97L317.1,225.79L348.81,225.75L412.23,224.12L443.94,222.46L475.65,224.85L507.35,226.37L539.06,222.53L570.77,211.61L602.48,225.78L634.19,229.54L665.9,225.53L697.61,225.83L729.32,225.67L761.03,229.24L792.74,221.47L824.45,232.45L856.16,334.11L887.87,339.75L919.58,342.71L951.29,343.26L983,222.05" style="vector-effect: none; fill: none; stroke: rgb(43, 144, 143); stroke-opacity: 1; stroke-width: 2px; opacity: 1;"/></g><g class="points"/><g class="text"/></g><g class="trace scatter traceee1268" style="stroke-miterlimit: 2; opacity: 1;"><g class="fills"/><g class="errorbars"/><g class="lines"><path class="js-line" d="M0,223.85L31.71,222.98L63.42,220.64L95.13,225.03L126.84,223.79L158.55,221.6L190.26,224.69L253.68,222.92L285.39,224.1L317.1,225.92L348.81,224.36L412.23,224.71L443.94,223.36L475.65,223.3L507.35,226.45L570.77,219.58L602.48,225.32L634.19,229.26L665.9,226.24L697.61,224.58L729.32,224.22L761.03,227.16L792.74,219.53L824.45,223.96L856.16,36.87L887.87,97.94L919.58,66.01L951.29,167.75L983,285.66" style="vector-effect: none; fill: none; stroke: rgb(244, 91, 91); stroke-opacity: 1; stroke-width: 2px; opacity: 1;"/></g><g class="points"/><g class="text"/></g><g class="trace scatter trace23ce29" style="stroke-miterlimit: 2; opacity: 1;"><g class="fills"/><g class="errorbars"/><g class="lines"><path class="js-line" d="M0,224.7L31.71,228.4L63.42,219.96L95.13,228.75L126.84,227.31L158.55,223.25L190.26,225.29L221.97,227.17L253.68,221.61L317.1,229.12L348.81,224.29L380.52,222.75L412.23,227.17L475.65,220.28L507.35,225.82L539.06,224.83L570.77,220.22L602.48,227.94L634.19,230.81L665.9,223.83L697.61,219.03L729.32,220.04L761.03,217.79L792.74,210.72L824.45,218.68L856.16,333.29L887.87,335.59L919.58,342.85L951.29,342.27L983,227.79" style="vector-effect: none; fill: none; stroke: rgb(145, 232, 225); stroke-opacity: 1; stroke-width: 2px; opacity: 1;"/></g><g class="points"/><g class="text"/></g><g class="trace scatter trace70c873" style="stroke-miterlimit: 2; opacity: 1;"><g class="fills"/><g class="errorbars"/><g class="lines"><path class="js-line" d="M0,222.84L31.71,224.54L63.42,219.41L95.13,226.23L126.84,224.8L158.55,221.56L190.26,224.85L221.97,224.83L253.68,222.59L285.39,222.48L317.1,225.97L348.81,224.81L380.52,222.88L412.23,225.44L443.94,221.84L475.65,221L507.35,225.89L539.06,224.08L570.77,214.72L602.48,226.46L634.19,229.95L665.9,225.53L697.61,223.88L729.32,227.17L761.03,227.49L792.74,219.99L824.45,231.24L856.16,38.87L887.87,100.81L919.58,69.44L951.29,168.25L983,286.38" style="vector-effect: none; fill: none; stroke: rgb(124, 181, 236); stroke-opacity: 1; stroke-width: 2px; opacity: 1;"/></g><g class="points"/><g class="text"/></g><g class="trace scatter tracea94424" style="stroke-miterlimit: 2; opacity: 1;"><g class="fills"/><g class="errorbars"/><g class="lines"><path class="js-line" d="M0,223.67L31.71,225.56L63.42,218.23L95.13,226.46L126.84,224.64L158.55,221.55L190.26,225.21L221.97,224.52L253.68,221.69L285.39,222.27L317.1,226.55L348.81,225.66L380.52,222.4L412.23,224.41L443.94,221.29L475.65,220.46L507.35,225.83L570.77,222.61L602.48,226.91L634.19,231.97L665.9,225.7L697.61,223.97L729.32,226.84L761.03,228.36L792.74,220.59L824.45,234.9L856.16,335.61L887.87,336.47L919.58,342.42L951.29,342.58L983,222.87" style="vector-effect: none; fill: none; stroke: rgb(67, 67, 72); stroke-opacity: 1; stroke-width: 2px; opacity: 1;"/></g><g class="points"/><g class="text"/></g><g class="trace scatter trace007880" style="stroke-miterlimit: 2; opacity: 1;"><g class="fills"/><g class="errorbars"/><g class="lines"><path class="js-line" d="M0,223.13L31.71,225.82L63.42,220.09L95.13,226.81L126.84,224.93L158.55,223.26L190.26,224.31L221.97,224.37L253.68,220.63L317.1,226.54L348.81,224.87L380.52,221.33L412.23,225.88L443.94,221.95L475.65,219.59L507.35,225.87L539.06,223.15L602.48,226.96L634.19,232.13L697.61,216.64L729.32,224.26L761.03,222.96L792.74,215.36L824.45,227.21L856.16,45.38L887.87,111.35L919.58,83.99L951.29,180.83L983,286.82" style="vector-effect: none; fill: none; stroke: rgb(144, 237, 125); stroke-opacity: 1; stroke-width: 2px; opacity: 1;"/></g><g class="points"/><g class="text"/></g><g class="trace scatter trace9b9bab" style="stroke-miterlimit: 2; opacity: 1;"><g class="fills"/><g class="errorbars"/><g class="lines"><path class="js-line" d="M0,224.11L31.71,226.71L63.42,219.18L95.13,226.77L126.84,225.68L158.55,222.7L190.26,224.51L221.97,225.06L253.68,221.1L285.39,224.73L317.1,227.34L348.81,225.92L380.52,221.31L412.23,227.34L443.94,221.53L475.65,221.24L507.35,224.51L570.77,220.1L602.48,226.81L634.19,231.5L665.9,225.21L697.61,218.49L729.32,223.92L761.03,222.73L792.74,217.66L824.45,218.12L856.16,46.8L887.87,108.45L919.58,80.81L951.29,185.61L983,286.65" style="vector-effect: none; fill: none; stroke: rgb(247, 163, 92); stroke-opacity: 1; stroke-width: 2px; opacity: 1;"/></g><g class="points"/><g class="text"/></g><g class="trace scatter trace942d90" style="stroke-miterlimit: 2; opacity: 1;"><g class="fills"/><g class="errorbars"/><g class="lines"><path class="js-line" d="M0,223.12L31.71,226.92L63.42,221.25L95.13,226.13L126.84,225.43L158.55,223.33L190.26,225.56L221.97,224.97L253.68,222.18L317.1,228.23L348.81,224.12L380.52,224.54L412.23,226.32L443.94,223.96L475.65,218.75L507.35,227L539.06,224.29L570.77,221.89L602.48,228.17L634.19,231.78L665.9,224.94L697.61,223.78L729.32,225.5L761.03,219.27L792.74,220.03L824.45,221.03L856.16,333.98L887.87,338.6L919.58,342.31L951.29,342.21L983,224.39" style="vector-effect: none; fill: none; stroke: rgb(128, 133, 233); stroke-opacity: 1; stroke-width: 2px; opacity: 1;"/></g><g class="points"/><g class="text"/></g><g class="trace scatter tracedca545" style="stroke-miterlimit: 2; opacity: 1;"><g class="fills"/><g class="errorbars"/><g class="lines"><path class="js-line" d="M0,223.81L31.71,225.91L63.42,219.73L95.13,226.93L126.84,225.55L158.55,222.31L190.26,224.62L221.97,225.14L253.68,221.06L317.1,227.24L348.81,226.64L380.52,222.14L412.23,226.09L443.94,221.69L475.65,220.51L507.35,226.2L539.06,223.83L570.77,219.95L602.48,227.23L634.19,232.07L665.9,224.32L697.61,220.49L729.32,225.4L761.03,226.19L792.74,217.54L824.45,230.42L856.16,334.79L887.87,337.73L919.58,343.26L951.29,341.18L983,225.58" style="vector-effect: none; fill: none; stroke: rgb(241, 92, 128); stroke-opacity: 1; stroke-width: 2px; opacity: 1;"/></g><g class="points"/><g class="text"/></g><g class="trace scatter trace9e1f91" style="stroke-miterlimit: 2; opacity: 1;"><g class="fills"/><g class="errorbars"/><g class="lines"><path class="js-line" d="M0,222.94L31.71,226.82L63.42,221.07L95.13,225.25L126.84,224.41L158.55,223.3L190.26,225.18L221.97,224.83L253.68,220.96L285.39,225.48L317.1,227.3L348.81,224.27L380.52,223.06L412.23,225.94L443.94,223.04L475.65,220.17L507.35,226.74L539.06,224.15L570.77,219.79L602.48,227.61L634.19,232.18L665.9,225.93L697.61,220.87L729.32,225.87L761.03,221.66L792.74,220.03L824.45,216.31L856.16,18.15L887.87,92.52L919.58,61.36L951.29,171.25L983,287.3" style="vector-effect: none; fill: none; stroke: rgb(228, 211, 84); stroke-opacity: 1; stroke-width: 2px; opacity: 1;"/></g><g class="points"/><g class="text"/></g><g class="trace scatter trace1dd18e" style="stroke-miterlimit: 2; opacity: 1;"><g class="fills"/><g class="errorbars"/><g class="lines"><path class="js-line" d="M0,223.54L31.71,223.85L63.42,221.68L95.13,226.1L126.84,224.46L158.55,221.82L190.26,224.4L221.97,224.68L253.68,222.54L317.1,226.01L348.81,225.08L412.23,224.81L443.94,222.67L475.65,224.41L507.35,226.95L539.06,222.96L570.77,223.31L634.19,227.88L665.9,225.46L697.61,224.21L729.32,224.47L761.03,227.61L792.74,218.26L824.45,225.57L856.16,333.25L887.87,337.38L919.58,343.45L951.29,341.24L983,222.39" style="vector-effect: none; fill: none; stroke: rgb(43, 144, 143); stroke-opacity: 1; stroke-width: 2px; opacity: 1;"/></g><g class="points"/><g class="text"/></g><g class="trace scatter tracec90287" style="stroke-miterlimit: 2; opacity: 1;"><g class="fills"/><g class="errorbars"/><g class="lines"><path class="js-line" d="M0,223.55L31.71,223.45L63.42,220.46L95.13,225.24L126.84,223.91L158.55,221.76L190.26,225.51L221.97,223.99L253.68,223.5L317.1,225.87L348.81,225.87L412.23,224.64L443.94,223.08L475.65,223.51L507.35,227.22L539.06,222.75L570.77,222.02L602.48,225.44L634.19,230.59L665.9,226.61L697.61,225.94L729.32,224.51L761.03,228.07L792.74,219.92L824.45,229.28L856.16,333.7L887.87,335.99L919.58,341.8L951.29,340.33L983,220.43" style="vector-effect: none; fill: none; stroke: rgb(244, 91, 91); stroke-opacity: 1; stroke-width: 2px; opacity: 1;"/></g><g class="points"/><g class="text"/></g><g class="trace scatter trace5abf83" style="stroke-miterlimit: 2; opacity: 1;"><g class="fills"/><g class="errorbars"/><g class="lines"><path class="js-line" d="M0,223.54L31.71,224.02L63.42,217.59L95.13,225.66L126.84,223.73L158.55,219.81L190.26,225.41L253.68,221.09L285.39,221.66L317.1,225.52L348.81,226.05L380.52,222.39L412.23,224.31L443.94,220.95L475.65,224.22L507.35,225.91L539.06,222.87L570.77,212.91L602.48,226.49L634.19,231.56L665.9,226.75L697.61,222.9L729.32,228.3L761.03,231.14L792.74,221.91L824.45,233.97L856.16,57.2L887.87,114.3L919.58,84.11L951.29,178.13L983,285.15" style="vector-effect: none; fill: none; stroke: rgb(145, 232, 225); stroke-opacity: 1; stroke-width: 2px; opacity: 1;"/></g><g class="points"/><g class="text"/></g><g class="trace scatter trace3fe696" style="stroke-miterlimit: 2; opacity: 1;"><g class="fills"/><g class="errorbars"/><g class="lines"><path class="js-line" d="M0,224.8L31.71,224.99L63.42,219.47L95.13,227.13L126.84,224.35L158.55,221.54L190.26,224.95L221.97,224.87L253.68,221.15L317.1,226.74L348.81,224.91L380.52,222.66L412.23,225.27L443.94,221.59L475.65,222.78L507.35,225.59L539.06,223.11L570.77,216.05L602.48,226.93L634.19,229.93L665.9,225.44L697.61,221.63L729.32,224.61L761.03,226.02L792.74,217.57L824.45,224.42L856.16,49.27L887.87,108.9L919.58,78.83L951.29,176.64L983,286.09" style="vector-effect: none; fill: none; stroke: rgb(124, 181, 236); stroke-opacity: 1; stroke-width: 2px; opacity: 1;"/></g><g class="points"/><g class="text"/></g><g class="trace scatter traceb5ffa5" style="stroke-miterlimit: 2; opacity: 1;"><g class="fills"/><g class="errorbars"/><g class="lines"><path class="js-line" d="M0,223.62L31.71,225.42L63.42,218.39L95.13,226.64L126.84,225.05L158.55,221.43L190.26,224.68L221.97,224.77L253.68,221.95L317.1,226.59L348.81,225.74L380.52,221.94L412.23,226.35L443.94,221.37L475.65,222.98L507.35,225.04L539.06,223.45L570.77,212.95L602.48,226.13L634.19,230.52L665.9,225.92L697.61,222.96L729.32,225.55L761.03,227.67L792.74,221.04L824.45,230.03L856.16,35.55L887.87,95.96L919.58,63.79L951.29,170.2L983,286.03" style="vector-effect: none; fill: none; stroke: rgb(67, 67, 72); stroke-opacity: 1; stroke-width: 2px; opacity: 1;"/></g><g class="points"/><g class="text"/></g><g class="trace scatter trace04660e" style="stroke-miterlimit: 2; opacity: 1;"><g class="fills"/><g class="errorbars"/><g class="lines"><path class="js-line" d="M0,223.68L31.71,227.19L63.42,219.09L95.13,228.02L126.84,225.65L158.55,223.01L190.26,225.12L221.97,225.71L253.68,220.35L285.39,223.27L317.1,227.5L348.81,225.89L380.52,219.62L412.23,226.33L443.94,221.52L475.65,222.16L507.35,225.45L539.06,224.33L570.77,217.3L602.48,227.45L634.19,229.75L665.9,225.06L697.61,217.14L729.32,224.05L761.03,222.74L792.74,216.52L824.45,228.06L856.16,33.82L887.87,102.29L919.58,74.8L951.29,176.71L983,287.47" style="vector-effect: none; fill: none; stroke: rgb(144, 237, 125); stroke-opacity: 1; stroke-width: 2px; opacity: 1;"/></g><g class="points"/><g class="text"/></g><g class="trace scatter trace58015d" style="stroke-miterlimit: 2; opacity: 1;"><g class="fills"/><g class="errorbars"/><g class="lines"><path class="js-line" d="M0,223.42L31.71,222.52L63.42,220.75L95.13,224.4L126.84,222.85L158.55,219.5L190.26,224.01L253.68,222.81L285.39,223.55L348.81,224.76L380.52,224.68L443.94,222.03L475.65,223.76L507.35,226.14L539.06,222.47L570.77,219.67L602.48,225.21L634.19,229.8L665.9,226.13L729.32,225.8L761.03,229.92L792.74,220.16L824.45,233.74L856.16,40.84L887.87,99.51L919.58,61.05L951.29,168.71L983,285.56" style="vector-effect: none; fill: none; stroke: rgb(247, 163, 92); stroke-opacity: 1; stroke-width: 2px; opacity: 1;"/></g><g class="points"/><g class="text"/></g><g class="trace scatter trace2b9c1f" style="stroke-miterlimit: 2; opacity: 1;"><g class="fills"/><g class="errorbars"/><g class="lines"><path class="js-line" d="M0,222.23L31.71,226.11L63.42,219.98L95.13,226.6L126.84,224.8L158.55,222.83L190.26,224.78L221.97,224.14L253.68,220.01L317.1,226.73L348.81,224.94L380.52,221.33L412.23,225.64L443.94,221.67L475.65,221.8L507.35,226.15L539.06,223.57L570.77,220.68L602.48,227.22L634.19,231.17L665.9,224.63L697.61,217.9L729.32,226.24L761.03,224.64L792.74,218.14L824.45,228.61L856.16,39.8L887.87,109.49L919.58,82.31L951.29,181.67L983,287.02" style="vector-effect: none; fill: none; stroke: rgb(128, 133, 233); stroke-opacity: 1; stroke-width: 2px; opacity: 1;"/></g><g class="points"/><g class="text"/></g><g class="trace scatter trace316b3f" style="stroke-miterlimit: 2; opacity: 1;"><g class="fills"/><g class="errorbars"/><g class="lines"><path class="js-line" d="M0,222.5L31.71,224.98L63.42,218.08L95.13,226.19L126.84,224.04L158.55,220.98L190.26,224.84L221.97,223.34L253.68,220.37L285.39,222.46L317.1,225.71L348.81,225.08L380.52,221.1L412.23,224.73L443.94,220.31L475.65,222.35L507.35,226.38L539.06,222.34L570.77,226.83L602.48,227.36L634.19,232.35L665.9,225.36L697.61,222.8L729.32,229.45L761.03,231.33L792.74,224.07L824.45,236.28L856.16,334.19L887.87,338.08L919.58,343.61L951.29,341.49L983,221.74" style="vector-effect: none; fill: none; stroke: rgb(241, 92, 128); stroke-opacity: 1; stroke-width: 2px; opacity: 1;"/></g><g class="points"/><g class="text"/></g><g class="trace scatter trace142f89" style="stroke-miterlimit: 2; opacity: 1;"><g class="fills"/><g class="errorbars"/><g class="lines"><path class="js-line" d="M0,223.43L31.71,226.54L63.42,217.68L95.13,227.28L126.84,225.45L158.55,221.01L190.26,224.52L221.97,224.35L253.68,219.32L285.39,222.76L317.1,227.24L348.81,226.77L380.52,219.09L412.23,225.96L443.94,220.75L507.35,225.01L539.06,223.05L570.77,220.69L602.48,226.66L634.19,231.29L665.9,225.55L697.61,218.57L729.32,224.59L761.03,227.56L792.74,216.8L824.45,231.8L856.16,34.06L887.87,102.87L919.58,74.74L951.29,177L983,286.63" style="vector-effect: none; fill: none; stroke: rgb(228, 211, 84); stroke-opacity: 1; stroke-width: 2px; opacity: 1;"/></g><g class="points"/><g class="text"/></g><g class="trace scatter trace5c7b74" style="stroke-miterlimit: 2; opacity: 1;"><g class="fills"/><g class="errorbars"/><g class="lines"><path class="js-line" d="M0,223.16L31.71,224.46L63.42,218.64L95.13,226.56L126.84,223.45L158.55,221.28L190.26,225.17L221.97,223.62L253.68,220.52L317.1,225.46L348.81,225.77L380.52,221.49L412.23,225.09L443.94,220.81L475.65,224.2L507.35,225.97L539.06,222.11L570.77,223.44L602.48,225.86L634.19,229.85L665.9,225.27L697.61,221.71L729.32,226.99L761.03,230.5L792.74,222.5L824.45,222.58L856.16,36.32L887.87,99.56L919.58,65.91L983,286.03" style="vector-effect: none; fill: none; stroke: rgb(43, 144, 143); stroke-opacity: 1; stroke-width: 2px; opacity: 1;"/></g><g class="points"/><g class="text"/></g><g class="trace scatter traceed1b0b" style="stroke-miterlimit: 2; opacity: 1;"><g class="fills"/><g class="errorbars"/><g class="lines"><path class="js-line" d="M0,223.7L31.71,223.33L63.42,220.69L95.13,225.71L126.84,223.79L158.55,222.13L190.26,224.08L221.97,223.65L253.68,221.55L285.39,224.5L317.1,225.53L380.52,223.5L412.23,223.88L443.94,221.59L475.65,223.83L507.35,225.48L539.06,222.46L570.77,219.19L602.48,225.07L634.19,230.27L665.9,225.12L697.61,224.16L729.32,226.01L761.03,228.55L792.74,221.03L824.45,227.4L856.16,26.85L887.87,92.45L919.58,57.28L983,286.49" style="vector-effect: none; fill: none; stroke: rgb(244, 91, 91); stroke-opacity: 1; stroke-width: 2px; opacity: 1;"/></g><g class="points"/><g class="text"/></g><g class="trace scatter trace60696e" style="stroke-miterlimit: 2; opacity: 1;"><g class="fills"/><g class="errorbars"/><g class="lines"><path class="js-line" d="M0,223.57L31.71,228.3L63.42,220.74L95.13,227.96L126.84,226.39L158.55,223.84L190.26,225.5L221.97,226.1L253.68,221.63L317.1,226.42L348.81,223.09L380.52,222.28L412.23,226.61L475.65,220.28L507.35,226.24L539.06,225.58L570.77,219.61L602.48,228.54L634.19,233.04L665.9,225.09L697.61,220.72L729.32,226.92L761.03,221.13L792.74,219.47L824.45,212.6L856.16,336.8L887.87,337.84L919.58,343.72L951.29,344.85L983,226.62" style="vector-effect: none; fill: none; stroke: rgb(145, 232, 225); stroke-opacity: 1; stroke-width: 2px; opacity: 1;"/></g><g class="points"/><g class="text"/></g><g class="trace scatter trace169197" style="stroke-miterlimit: 2; opacity: 1;"><g class="fills"/><g class="errorbars"/><g class="lines"><path class="js-line" d="M0,220.18L31.71,225.62L63.42,220.23L95.13,225.6L126.84,224.51L158.55,223.61L190.26,225.85L221.97,222.84L253.68,220.87L285.39,224.41L317.1,227.17L348.81,223.43L380.52,223.61L412.23,226.58L443.94,222.57L475.65,219.19L507.35,227.08L539.06,223.3L570.77,225.89L602.48,227.73L634.19,232.65L697.61,217.65L729.32,227.4L761.03,220.66L792.74,222.94L824.45,220.26L856.16,34.67L887.87,112.6L919.58,86.02L983,285.86" style="vector-effect: none; fill: none; stroke: rgb(124, 181, 236); stroke-opacity: 1; stroke-width: 2px; opacity: 1;"/></g><g class="points"/><g class="text"/></g><g class="trace scatter tracef81ac8" style="stroke-miterlimit: 2; opacity: 1;"><g class="fills"/><g class="errorbars"/><g class="lines"><path class="js-line" d="M0,222.82L31.71,223.09L63.42,219.76L95.13,224.82L126.84,222.97L158.55,220.27L190.26,224.62L253.68,221.56L285.39,222.14L317.1,224.77L348.81,225L443.94,221.9L475.65,221.76L507.35,226.1L539.06,222.66L570.77,221.59L602.48,226.16L634.19,230.26L665.9,225.8L697.61,223.95L729.32,226.22L761.03,229.92L792.74,222.44L824.45,233.64L856.16,49.17L887.87,108.03L919.58,77.4L951.29,172.2L983,285.12" style="vector-effect: none; fill: none; stroke: rgb(67, 67, 72); stroke-opacity: 1; stroke-width: 2px; opacity: 1;"/></g><g class="points"/><g class="text"/></g><g class="trace scatter traceb4fe16" style="stroke-miterlimit: 2; opacity: 1;"><g class="fills"/><g class="errorbars"/><g class="lines"><path class="js-line" d="M0,222.74L31.71,222.79L63.42,220.24L95.13,224.08L126.84,224.07L158.55,220.02L190.26,224.06L221.97,223.66L253.68,222.18L285.39,224.39L317.1,223.4L380.52,223.64L412.23,224.51L443.94,222.57L475.65,222.01L507.35,225.61L539.06,222.97L570.77,215.19L602.48,226.44L634.19,228.29L665.9,225.59L697.61,226.67L729.32,224.88L761.03,227.65L792.74,219.81L824.45,224.79L856.16,95.44L887.87,154.1L919.58,124.87L951.29,200.33L983,284.71" style="vector-effect: none; fill: none; stroke: rgb(144, 237, 125); stroke-opacity: 1; stroke-width: 2px; opacity: 1;"/></g><g class="points"/><g class="text"/></g><g class="trace scatter trace4567d3" style="stroke-miterlimit: 2; opacity: 1;"><g class="fills"/><g class="errorbars"/><g class="lines"><path class="js-line" d="M0,224.12L31.71,224.16L63.42,219.54L95.13,225.97L126.84,224.1L158.55,220.41L190.26,224.01L221.97,224.45L253.68,222.13L317.1,226.09L348.81,223.98L380.52,223.23L412.23,224.59L443.94,222.73L475.65,223.31L507.35,225.55L539.06,223.11L570.77,218.72L602.48,225.54L634.19,229.94L665.9,225.62L697.61,222.9L729.32,224.69L761.03,227.83L792.74,220.26L824.45,229.56L856.16,39.36L887.87,101.56L919.58,69.64L951.29,172.73L983,285.59" style="vector-effect: none; fill: none; stroke: rgb(247, 163, 92); stroke-opacity: 1; stroke-width: 2px; opacity: 1;"/></g><g class="points"/><g class="text"/></g><g class="trace scatter trace27bd6f" style="stroke-miterlimit: 2; opacity: 1;"><g class="fills"/><g class="errorbars"/><g class="lines"><path class="js-line" d="M0,223.84L31.71,224.35L63.42,219.04L95.13,226.6L126.84,224.6L158.55,221.43L190.26,225.61L221.97,225.06L253.68,221.9L285.39,222.82L317.1,226.29L348.81,226.36L380.52,223.31L412.23,224.74L443.94,221.54L475.65,222.41L507.35,226.65L539.06,223.48L570.77,212.62L602.48,226.6L634.19,230.59L665.9,226.37L697.61,224.82L729.32,228.2L761.03,230.45L792.74,223.45L824.45,233.44L856.16,334.5L887.87,336.96L919.58,343.13L951.29,342.3L983,222.43" style="vector-effect: none; fill: none; stroke: rgb(128, 133, 233); stroke-opacity: 1; stroke-width: 2px; opacity: 1;"/></g><g class="points"/><g class="text"/></g><g class="trace scatter trace03f86e" style="stroke-miterlimit: 2; opacity: 1;"><g class="fills"/><g class="errorbars"/><g class="lines"><path class="js-line" d="M0,223.25L31.71,223.33L63.42,220.23L95.13,224.57L126.84,223.89L158.55,220.99L190.26,225.54L221.97,223.22L253.68,222.49L285.39,223.71L317.1,225.84L348.81,224.5L380.52,225.37L443.94,222.34L475.65,219.87L507.35,227.07L539.06,223.12L570.77,223.44L602.48,226.28L634.19,231.13L665.9,226.99L697.61,226.11L729.32,228.16L761.03,228.9L792.74,223.7L824.45,233.81L856.16,334.9L887.87,336.31L919.58,342.02L951.29,340.67L983,221.11" style="vector-effect: none; fill: none; stroke: rgb(241, 92, 128); stroke-opacity: 1; stroke-width: 2px; opacity: 1;"/></g><g class="points"/><g class="text"/></g><g class="trace scatter tracecbc9b9" style="stroke-miterlimit: 2; opacity: 1;"><g class="fills"/><g class="errorbars"/><g class="lines"><path class="js-line" d="M0,222.3L31.71,224.65L63.42,220.74L95.13,225.81L126.84,224.2L158.55,222.46L190.26,224.45L221.97,223.89L253.68,221.27L317.1,225.93L348.81,225.1L380.52,222.76L412.23,224.05L443.94,221.71L475.65,221.53L507.35,225.77L539.06,222.64L570.77,223.68L602.48,225.71L634.19,230.37L665.9,224.16L697.61,223.61L729.32,227L761.03,225.97L792.74,221.59L824.45,232.34L856.16,19.41L887.87,93.72L919.58,63.34L951.29,169.48L983,286.41" style="vector-effect: none; fill: none; stroke: rgb(228, 211, 84); stroke-opacity: 1; stroke-width: 2px; opacity: 1;"/></g><g class="points"/><g class="text"/></g><g class="trace scatter trace49e1b8" style="stroke-miterlimit: 2; opacity: 1;"><g class="fills"/><g class="errorbars"/><g class="lines"><path class="js-line" d="M0,224.02L31.71,227.72L63.42,217.5L95.13,228.98L126.84,226.38L158.55,223.45L190.26,224.19L221.97,226.7L253.68,219.21L317.1,228.53L348.81,226.52L380.52,218.27L412.23,228.55L443.94,221.22L475.65,222.79L507.35,225.19L539.06,224.74L570.77,216.86L602.48,227.22L634.19,231.54L665.9,223.87L697.61,215.38L729.32,223.72L761.03,223.25L792.74,212.29L824.45,224.6L856.16,42.53L887.87,99.57L919.58,76.92L951.29,178.81L983,288.13" style="vector-effect: none; fill: none; stroke: rgb(43, 144, 143); stroke-opacity: 1; stroke-width: 2px; opacity: 1;"/></g><g class="points"/><g class="text"/></g><g class="trace scatter tracec7651d" style="stroke-miterlimit: 2; opacity: 1;"><g class="fills"/><g class="errorbars"/><g class="lines"><path class="js-line" d="M0,222.3L31.71,223.96L63.42,220.51L95.13,224.96L126.84,225.62L158.55,222.15L190.26,225.22L253.68,222.11L285.39,225.82L317.1,226.7L348.81,223.82L412.23,225.32L443.94,222.59L475.65,219.42L507.35,226.16L539.06,223.04L570.77,222.47L602.48,225.41L634.19,230.91L665.9,225.28L697.61,221.82L729.32,225.39L761.03,220.69L792.74,218.96L824.45,230.75L856.16,41.08L887.87,105.57L919.58,86.12L951.29,180.61L983,286.39" style="vector-effect: none; fill: none; stroke: rgb(244, 91, 91); stroke-opacity: 1; stroke-width: 2px; opacity: 1;"/></g><g class="points"/><g class="text"/></g><g class="trace scatter tracec3e462" style="stroke-miterlimit: 2; opacity: 1;"><g class="fills"/><g class="errorbars"/><g class="lines"><path class="js-line" d="M0,223.48L31.71,224.18L63.42,219.64L95.13,226.3L126.84,223.59L158.55,221.45L190.26,225.14L221.97,224.26L253.68,221.19L285.39,224.2L317.1,223.93L348.81,224.49L380.52,222.45L412.23,225.36L443.94,221.99L507.35,226.05L539.06,222.51L570.77,214.89L602.48,226.46L634.19,230.46L665.9,225.97L697.61,224.46L729.32,227.76L761.03,230.68L792.74,222.31L824.45,224.75L856.16,26.02L887.87,92.6L919.58,56L983,286.6" style="vector-effect: none; fill: none; stroke: rgb(145, 232, 225); stroke-opacity: 1; stroke-width: 2px; opacity: 1;"/></g><g class="points"/><g class="text"/></g><g class="trace scatter traceba25c1" style="stroke-miterlimit: 2; opacity: 1;"><g class="fills"/><g class="errorbars"/><g class="lines"><path class="js-line" d="M0,224.25L31.71,224.3L63.42,217.1L95.13,227.01L126.84,224.47L158.55,218.91L190.26,225.39L221.97,223.52L253.68,220.75L285.39,221.07L317.1,225.02L348.81,225.31L380.52,221.25L412.23,224.21L443.94,221.61L475.65,225.1L507.35,225.86L539.06,224.61L570.77,214.31L602.48,227.76L634.19,231.34L665.9,227.93L697.61,226.8L761.03,233.03L792.74,225.05L824.45,236.18L856.16,335.76L887.87,337.02L919.58,342.75L951.29,342.6L983,222.78" style="vector-effect: none; fill: none; stroke: rgb(124, 181, 236); stroke-opacity: 1; stroke-width: 2px; opacity: 1;"/></g><g class="points"/><g class="text"/></g><g class="trace scatter trace2a9a42" style="stroke-miterlimit: 2; opacity: 1;"><g class="fills"/><g class="errorbars"/><g class="lines"><path class="js-line" d="M0,223.55L31.71,227.26L63.42,220.83L95.13,227.42L126.84,225.3L158.55,223.42L190.26,225.59L221.97,225.75L253.68,221.9L317.1,226.12L348.81,223.11L380.52,222.51L412.23,226.2L443.94,222.82L475.65,221.78L507.35,226.59L539.06,224.62L570.77,217.75L602.48,228.39L634.19,231.45L665.9,225.39L697.61,223.6L729.32,226.38L761.03,222.96L792.74,220.51L824.45,218.78L856.16,335.07L887.87,337.02L919.58,343.33L951.29,343.27L983,225.05" style="vector-effect: none; fill: none; stroke: rgb(67, 67, 72); stroke-opacity: 1; stroke-width: 2px; opacity: 1;"/></g><g class="points"/><g class="text"/></g><g class="trace scatter trace451bb9" style="stroke-miterlimit: 2; opacity: 1;"><g class="fills"/><g class="errorbars"/><g class="lines"><path class="js-line" d="M0,224.6L31.71,225.09L63.42,221.21L95.13,225.6L126.84,224.73L158.55,221.52L190.26,225.19L221.97,224.97L253.68,223.07L317.1,226.88L348.81,224.98L380.52,225.01L412.23,225.96L443.94,224.38L475.65,220.81L507.35,226.72L539.06,223.85L570.77,218.04L602.48,226.18L634.19,230.14L665.9,227.05L729.32,223.06L761.03,225.34L792.74,220.1L824.45,223.62L856.16,334.1L887.87,337.45L919.58,341.95L951.29,341.16L983,222.52" style="vector-effect: none; fill: none; stroke: rgb(144, 237, 125); stroke-opacity: 1; stroke-width: 2px; opacity: 1;"/></g><g class="points"/><g class="text"/></g><g class="trace scatter tracec306c9" style="stroke-miterlimit: 2; opacity: 1;"><g class="fills"/><g class="errorbars"/><g class="lines"><path class="js-line" d="M0,223.32L31.71,223.98L63.42,219.05L95.13,225.19L126.84,223.65L158.55,221.87L190.26,224.16L221.97,224.2L253.68,221.21L285.39,222.83L317.1,225.31L380.52,222.71L412.23,224.77L443.94,221.84L475.65,222.93L507.35,225.09L539.06,223.18L570.77,221.27L602.48,225.58L634.19,230.51L665.9,225.64L697.61,223.53L729.32,227.76L761.03,228.15L792.74,222.44L824.45,230.42L856.16,36.5L887.87,98.09L919.58,70.33L951.29,168.22L983,285.77" style="vector-effect: none; fill: none; stroke: rgb(247, 163, 92); stroke-opacity: 1; stroke-width: 2px; opacity: 1;"/></g><g class="points"/><g class="text"/></g></g></g></g><g class="zerolinelayer-above"/><path class="xlines-above crisp" d="M0,0" style="fill: none;"/><path class="ylines-above crisp" d="M0,0" style="fill: none;"/><g class="overlines-above"/><g class="xaxislayer-above"><g class="xtick"><text text-anchor="start" x="0" y="429" transform="translate(60,0) rotate(29.999999999999996,0,424)" style="font-family: system-ui, -apple-system, 'Segoe UI', Roboto, 'Helvetica Neue', 'Noto Sans', 'Liberation Sans', Arial, sans-serif, 'Apple Color Emoji', 'Segoe UI Emoji', 'Segoe UI Symbol', 'Noto Color Emoji'; font-size: 10px; fill: rgb(80, 80, 80); fill-opacity: 1; white-space: pre;">1</text></g><g class="xtick"><text text-anchor="start" x="0" y="429" transform="translate(91.71000000000001,0) rotate(29.999999999999996,0,424)" style="font-family: system-ui, -apple-system, 'Segoe UI', Roboto, 'Helvetica Neue', 'Noto Sans', 'Liberation Sans', Arial, sans-serif, 'Apple Color Emoji', 'Segoe UI Emoji', 'Segoe UI Symbol', 'Noto Color Emoji'; font-size: 10px; fill: rgb(80, 80, 80); fill-opacity: 1; white-space: pre;">2</text></g><g class="xtick"><text text-anchor="start" x="0" y="429" transform="translate(123.42,0) rotate(29.999999999999996,0,424)" style="font-family: system-ui, -apple-system, 'Segoe UI', Roboto, 'Helvetica Neue', 'Noto Sans', 'Liberation Sans', Arial, sans-serif, 'Apple Color Emoji', 'Segoe UI Emoji', 'Segoe UI Symbol', 'Noto Color Emoji'; font-size: 10px; fill: rgb(80, 80, 80); fill-opacity: 1; white-space: pre;">3</text></g><g class="xtick"><text text-anchor="start" x="0" y="429" transform="translate(155.13,0) rotate(29.999999999999996,0,424)" style="font-family: system-ui, -apple-system, 'Segoe UI', Roboto, 'Helvetica Neue', 'Noto Sans', 'Liberation Sans', Arial, sans-serif, 'Apple Color Emoji', 'Segoe UI Emoji', 'Segoe UI Symbol', 'Noto Color Emoji'; font-size: 10px; fill: rgb(80, 80, 80); fill-opacity: 1; white-space: pre;">4</text></g><g class="xtick"><text text-anchor="start" x="0" y="429" transform="translate(186.84,0) rotate(29.999999999999996,0,424)" style="font-family: system-ui, -apple-system, 'Segoe UI', Roboto, 'Helvetica Neue', 'Noto Sans', 'Liberation Sans', Arial, sans-serif, 'Apple Color Emoji', 'Segoe UI Emoji', 'Segoe UI Symbol', 'Noto Color Emoji'; font-size: 10px; fill: rgb(80, 80, 80); fill-opacity: 1; white-space: pre;">5</text></g><g class="xtick"><text text-anchor="start" x="0" y="429" transform="translate(218.55,0) rotate(29.999999999999996,0,424)" style="font-family: system-ui, -apple-system, 'Segoe UI', Roboto, 'Helvetica Neue', 'Noto Sans', 'Liberation Sans', Arial, sans-serif, 'Apple Color Emoji', 'Segoe UI Emoji', 'Segoe UI Symbol', 'Noto Color Emoji'; font-size: 10px; fill: rgb(80, 80, 80); fill-opacity: 1; white-space: pre;">6</text></g><g class="xtick"><text text-anchor="start" x="0" y="429" transform="translate(250.26,0) rotate(29.999999999999996,0,424)" style="font-family: system-ui, -apple-system, 'Segoe UI', Roboto, 'Helvetica Neue', 'Noto Sans', 'Liberation Sans', Arial, sans-serif, 'Apple Color Emoji', 'Segoe UI Emoji', 'Segoe UI Symbol', 'Noto Color Emoji'; font-size: 10px; fill: rgb(80, 80, 80); fill-opacity: 1; white-space: pre;">7</text></g><g class="xtick"><text text-anchor="start" x="0" y="429" transform="translate(281.97,0) rotate(29.999999999999996,0,424)" style="font-family: system-ui, -apple-system, 'Segoe UI', Roboto, 'Helvetica Neue', 'Noto Sans', 'Liberation Sans', Arial, sans-serif, 'Apple Color Emoji', 'Segoe UI Emoji', 'Segoe UI Symbol', 'Noto Color Emoji'; font-size: 10px; fill: rgb(80, 80, 80); fill-opacity: 1; white-space: pre;">8</text></g><g class="xtick"><text text-anchor="start" x="0" y="429" transform="translate(313.68,0) rotate(29.999999999999996,0,424)" style="font-family: system-ui, -apple-system, 'Segoe UI', Roboto, 'Helvetica Neue', 'Noto Sans', 'Liberation Sans', Arial, sans-serif, 'Apple Color Emoji', 'Segoe UI Emoji', 'Segoe UI Symbol', 'Noto Color Emoji'; font-size: 10px; fill: rgb(80, 80, 80); fill-opacity: 1; white-space: pre;">9</text></g><g class="xtick"><text text-anchor="start" x="0" y="429" transform="translate(345.39,0) rotate(29.999999999999996,0,424)" style="font-family: system-ui, -apple-system, 'Segoe UI', Roboto, 'Helvetica Neue', 'Noto Sans', 'Liberation Sans', Arial, sans-serif, 'Apple Color Emoji', 'Segoe UI Emoji', 'Segoe UI Symbol', 'Noto Color Emoji'; font-size: 10px; fill: rgb(80, 80, 80); fill-opacity: 1; white-space: pre;">10</text></g><g class="xtick"><text text-anchor="start" x="0" y="429" transform="translate(377.1,0) rotate(29.999999999999996,0,424)" style="font-family: system-ui, -apple-system, 'Segoe UI', Roboto, 'Helvetica Neue', 'Noto Sans', 'Liberation Sans', Arial, sans-serif, 'Apple Color Emoji', 'Segoe UI Emoji', 'Segoe UI Symbol', 'Noto Color Emoji'; font-size: 10px; fill: rgb(80, 80, 80); fill-opacity: 1; white-space: pre;">11</text></g><g class="xtick"><text text-anchor="start" x="0" y="429" transform="translate(408.81,0) rotate(29.999999999999996,0,424)" style="font-family: system-ui, -apple-system, 'Segoe UI', Roboto, 'Helvetica Neue', 'Noto Sans', 'Liberation Sans', Arial, sans-serif, 'Apple Color Emoji', 'Segoe UI Emoji', 'Segoe UI Symbol', 'Noto Color Emoji'; font-size: 10px; fill: rgb(80, 80, 80); fill-opacity: 1; white-space: pre;">12</text></g><g class="xtick"><text text-anchor="start" x="0" y="429" transform="translate(440.52,0) rotate(29.999999999999996,0,424)" style="font-family: system-ui, -apple-system, 'Segoe UI', Roboto, 'Helvetica Neue', 'Noto Sans', 'Liberation Sans', Arial, sans-serif, 'Apple Color Emoji', 'Segoe UI Emoji', 'Segoe UI Symbol', 'Noto Color Emoji'; font-size: 10px; fill: rgb(80, 80, 80); fill-opacity: 1; white-space: pre;">13</text></g><g class="xtick"><text text-anchor="start" x="0" y="429" transform="translate(472.23,0) rotate(29.999999999999996,0,424)" style="font-family: system-ui, -apple-system, 'Segoe UI', Roboto, 'Helvetica Neue', 'Noto Sans', 'Liberation Sans', Arial, sans-serif, 'Apple Color Emoji', 'Segoe UI Emoji', 'Segoe UI Symbol', 'Noto Color Emoji'; font-size: 10px; fill: rgb(80, 80, 80); fill-opacity: 1; white-space: pre;">14</text></g><g class="xtick"><text text-anchor="start" x="0" y="429" transform="translate(503.94,0) rotate(29.999999999999996,0,424)" style="font-family: system-ui, -apple-system, 'Segoe UI', Roboto, 'Helvetica Neue', 'Noto Sans', 'Liberation Sans', Arial, sans-serif, 'Apple Color Emoji', 'Segoe UI Emoji', 'Segoe UI Symbol', 'Noto Color Emoji'; font-size: 10px; fill: rgb(80, 80, 80); fill-opacity: 1; white-space: pre;">15</text></g><g class="xtick"><text text-anchor="start" x="0" y="429" transform="translate(535.65,0) rotate(29.999999999999996,0,424)" style="font-family: system-ui, -apple-system, 'Segoe UI', Roboto, 'Helvetica Neue', 'Noto Sans', 'Liberation Sans', Arial, sans-serif, 'Apple Color Emoji', 'Segoe UI Emoji', 'Segoe UI Symbol', 'Noto Color Emoji'; font-size: 10px; fill: rgb(80, 80, 80); fill-opacity: 1; white-space: pre;">16</text></g><g class="xtick"><text text-anchor="start" x="0" y="429" transform="translate(567.35,0) rotate(29.999999999999996,0,424)" style="font-family: system-ui, -apple-system, 'Segoe UI', Roboto, 'Helvetica Neue', 'Noto Sans', 'Liberation Sans', Arial, sans-serif, 'Apple Color Emoji', 'Segoe UI Emoji', 'Segoe UI Symbol', 'Noto Color Emoji'; font-size: 10px; fill: rgb(80, 80, 80); fill-opacity: 1; white-space: pre;">17</text></g><g class="xtick"><text text-anchor="start" x="0" y="429" transform="translate(599.06,0) rotate(29.999999999999996,0,424)" style="font-family: system-ui, -apple-system, 'Segoe UI', Roboto, 'Helvetica Neue', 'Noto Sans', 'Liberation Sans', Arial, sans-serif, 'Apple Color Emoji', 'Segoe UI Emoji', 'Segoe UI Symbol', 'Noto Color Emoji'; font-size: 10px; fill: rgb(80, 80, 80); fill-opacity: 1; white-space: pre;">18</text></g><g class="xtick"><text text-anchor="start" x="0" y="429" transform="translate(630.77,0) rotate(29.999999999999996,0,424)" style="font-family: system-ui, -apple-system, 'Segoe UI', Roboto, 'Helvetica Neue', 'Noto Sans', 'Liberation Sans', Arial, sans-serif, 'Apple Color Emoji', 'Segoe UI Emoji', 'Segoe UI Symbol', 'Noto Color Emoji'; font-size: 10px; fill: rgb(80, 80, 80); fill-opacity: 1; white-space: pre;">19</text></g><g class="xtick"><text text-anchor="start" x="0" y="429" transform="translate(662.48,0) rotate(29.999999999999996,0,424)" style="font-family: system-ui, -apple-system, 'Segoe UI', Roboto, 'Helvetica Neue', 'Noto Sans', 'Liberation Sans', Arial, sans-serif, 'Apple Color Emoji', 'Segoe UI Emoji', 'Segoe UI Symbol', 'Noto Color Emoji'; font-size: 10px; fill: rgb(80, 80, 80); fill-opacity: 1; white-space: pre;">20</text></g><g class="xtick"><text text-anchor="start" x="0" y="429" transform="translate(694.19,0) rotate(29.999999999999996,0,424)" style="font-family: system-ui, -apple-system, 'Segoe UI', Roboto, 'Helvetica Neue', 'Noto Sans', 'Liberation Sans', Arial, sans-serif, 'Apple Color Emoji', 'Segoe UI Emoji', 'Segoe UI Symbol', 'Noto Color Emoji'; font-size: 10px; fill: rgb(80, 80, 80); fill-opacity: 1; white-space: pre;">21</text></g><g class="xtick"><text text-anchor="start" x="0" y="429" transform="translate(725.9,0) rotate(29.999999999999996,0,424)" style="font-family: system-ui, -apple-system, 'Segoe UI', Roboto, 'Helvetica Neue', 'Noto Sans', 'Liberation Sans', Arial, sans-serif, 'Apple Color Emoji', 'Segoe UI Emoji', 'Segoe UI Symbol', 'Noto Color Emoji'; font-size: 10px; fill: rgb(80, 80, 80); fill-opacity: 1; white-space: pre;">22</text></g><g class="xtick"><text text-anchor="start" x="0" y="429" transform="translate(757.61,0) rotate(29.999999999999996,0,424)" style="font-family: system-ui, -apple-system, 'Segoe UI', Roboto, 'Helvetica Neue', 'Noto Sans', 'Liberation Sans', Arial, sans-serif, 'Apple Color Emoji', 'Segoe UI Emoji', 'Segoe UI Symbol', 'Noto Color Emoji'; font-size: 10px; fill: rgb(80, 80, 80); fill-opacity: 1; white-space: pre;">23</text></g><g class="xtick"><text text-anchor="start" x="0" y="429" transform="translate(789.32,0) rotate(29.999999999999996,0,424)" style="font-family: system-ui, -apple-system, 'Segoe UI', Roboto, 'Helvetica Neue', 'Noto Sans', 'Liberation Sans', Arial, sans-serif, 'Apple Color Emoji', 'Segoe UI Emoji', 'Segoe UI Symbol', 'Noto Color Emoji'; font-size: 10px; fill: rgb(80, 80, 80); fill-opacity: 1; white-space: pre;">24</text></g><g class="xtick"><text text-anchor="start" x="0" y="429" transform="translate(821.03,0) rotate(29.999999999999996,0,424)" style="font-family: system-ui, -apple-system, 'Segoe UI', Roboto, 'Helvetica Neue', 'Noto Sans', 'Liberation Sans', Arial, sans-serif, 'Apple Color Emoji', 'Segoe UI Emoji', 'Segoe UI Symbol', 'Noto Color Emoji'; font-size: 10px; fill: rgb(80, 80, 80); fill-opacity: 1; white-space: pre;">25</text></g><g class="xtick"><text text-anchor="start" x="0" y="429" transform="translate(852.74,0) rotate(29.999999999999996,0,424)" style="font-family: system-ui, -apple-system, 'Segoe UI', Roboto, 'Helvetica Neue', 'Noto Sans', 'Liberation Sans', Arial, sans-serif, 'Apple Color Emoji', 'Segoe UI Emoji', 'Segoe UI Symbol', 'Noto Color Emoji'; font-size: 10px; fill: rgb(80, 80, 80); fill-opacity: 1; white-space: pre;">26</text></g><g class="xtick"><text text-anchor="start" x="0" y="429" transform="translate(884.45,0) rotate(29.999999999999996,0,424)" style="font-family: system-ui, -apple-system, 'Segoe UI', Roboto, 'Helvetica Neue', 'Noto Sans', 'Liberation Sans', Arial, sans-serif, 'Apple Color Emoji', 'Segoe UI Emoji', 'Segoe UI Symbol', 'Noto Color Emoji'; font-size: 10px; fill: rgb(80, 80, 80); fill-opacity: 1; white-space: pre;">27</text></g><g class="xtick"><text text-anchor="start" x="0" y="429" transform="translate(916.16,0) rotate(29.999999999999996,0,424)" style="font-family: system-ui, -apple-system, 'Segoe UI', Roboto, 'Helvetica Neue', 'Noto Sans', 'Liberation Sans', Arial, sans-serif, 'Apple Color Emoji', 'Segoe UI Emoji', 'Segoe UI Symbol', 'Noto Color Emoji'; font-size: 10px; fill: rgb(80, 80, 80); fill-opacity: 1; white-space: pre;">W</text></g><g class="xtick"><text text-anchor="start" x="0" y="429" transform="translate(947.87,0) rotate(29.999999999999996,0,424)" style="font-family: system-ui, -apple-system, 'Segoe UI', Roboto, 'Helvetica Neue', 'Noto Sans', 'Liberation Sans', Arial, sans-serif, 'Apple Color Emoji', 'Segoe UI Emoji', 'Segoe UI Symbol', 'Noto Color Emoji'; font-size: 10px; fill: rgb(80, 80, 80); fill-opacity: 1; white-space: pre;">NW_024396987.1</text></g><g class="xtick"><text text-anchor="start" x="0" y="429" transform="translate(979.58,0) rotate(29.999999999999996,0,424)" style="font-family: system-ui, -apple-system, 'Segoe UI', Roboto, 'Helvetica Neue', 'Noto Sans', 'Liberation Sans', Arial, sans-serif, 'Apple Color Emoji', 'Segoe UI Emoji', 'Segoe UI Symbol', 'Noto Color Emoji'; font-size: 10px; fill: rgb(80, 80, 80); fill-opacity: 1; white-space: pre;">NW_024396988.1</text></g><g class="xtick"><text text-anchor="start" x="0" y="429" transform="translate(1011.29,0) rotate(29.999999999999996,0,424)" style="font-family: system-ui, -apple-system, 'Segoe UI', Roboto, 'Helvetica Neue', 'Noto Sans', 'Liberation Sans', Arial, sans-serif, 'Apple Color Emoji', 'Segoe UI Emoji', 'Segoe UI Symbol', 'Noto Color Emoji'; font-size: 10px; fill: rgb(80, 80, 80); fill-opacity: 1; white-space: pre;">NW_024396989.1</text></g><g class="xtick"><text text-anchor="start" x="0" y="429" transform="translate(1043,0) rotate(29.999999999999996,0,424)" style="font-family: system-ui, -apple-system, 'Segoe UI', Roboto, 'Helvetica Neue', 'Noto Sans', 'Liberation Sans', Arial, sans-serif, 'Apple Color Emoji', 'Segoe UI Emoji', 'Segoe UI Symbol', 'Noto Color Emoji'; font-size: 10px; fill: rgb(80, 80, 80); fill-opacity: 1; white-space: pre;">Z</text></g></g><g class="yaxislayer-above"><g class="ytick"><text text-anchor="end" x="54" y="3.5" transform="translate(0,411.05)" style="font-family: system-ui, -apple-system, 'Segoe UI', Roboto, 'Helvetica Neue', 'Noto Sans', 'Liberation Sans', Arial, sans-serif, 'Apple Color Emoji', 'Segoe UI Emoji', 'Segoe UI Symbol', 'Noto Color Emoji'; font-size: 10px; fill: rgb(80, 80, 80); fill-opacity: 1; white-space: pre;">0</text></g><g class="ytick"><text text-anchor="end" x="54" y="3.5" style="font-family: system-ui, -apple-system, 'Segoe UI', Roboto, 'Helvetica Neue', 'Noto Sans', 'Liberation Sans', Arial, sans-serif, 'Apple Color Emoji', 'Segoe UI Emoji', 'Segoe UI Symbol', 'Noto Color Emoji'; font-size: 10px; fill: rgb(80, 80, 80); fill-opacity: 1; white-space: pre;" transform="translate(0,343.55)">0.5</text></g><g class="ytick"><text text-anchor="end" x="54" y="3.5" style="font-family: system-ui, -apple-system, 'Segoe UI', Roboto, 'Helvetica Neue', 'Noto Sans', 'Liberation Sans', Arial, sans-serif, 'Apple Color Emoji', 'Segoe UI Emoji', 'Segoe UI Symbol', 'Noto Color Emoji'; font-size: 10px; fill: rgb(80, 80, 80); fill-opacity: 1; white-space: pre;" transform="translate(0,276.05)">1</text></g><g class="ytick"><text text-anchor="end" x="54" y="3.5" style="font-family: system-ui, -apple-system, 'Segoe UI', Roboto, 'Helvetica Neue', 'Noto Sans', 'Liberation Sans', Arial, sans-serif, 'Apple Color Emoji', 'Segoe UI Emoji', 'Segoe UI Symbol', 'Noto Color Emoji'; font-size: 10px; fill: rgb(80, 80, 80); fill-opacity: 1; white-space: pre;" transform="translate(0,208.55)">1.5</text></g><g class="ytick"><text text-anchor="end" x="54" y="3.5" style="font-family: system-ui, -apple-system, 'Segoe UI', Roboto, 'Helvetica Neue', 'Noto Sans', 'Liberation Sans', Arial, sans-serif, 'Apple Color Emoji', 'Segoe UI Emoji', 'Segoe UI Symbol', 'Noto Color Emoji'; font-size: 10px; fill: rgb(80, 80, 80); fill-opacity: 1; white-space: pre;" transform="translate(0,141.05)">2</text></g><g class="ytick"><text text-anchor="end" x="54" y="3.5" style="font-family: system-ui, -apple-system, 'Segoe UI', Roboto, 'Helvetica Neue', 'Noto Sans', 'Liberation Sans', Arial, sans-serif, 'Apple Color Emoji', 'Segoe UI Emoji', 'Segoe UI Symbol', 'Noto Color Emoji'; font-size: 10px; fill: rgb(80, 80, 80); fill-opacity: 1; white-space: pre;" transform="translate(0,73.55)">2.5</text></g></g><g class="overaxes-above"/></g></g><g class="polarlayer"/><g class="smithlayer"/><g class="ternarylayer"/><g class="geolayer"/><g class="funnelarealayer"/><g class="pielayer"/><g class="iciclelayer"/><g class="treemaplayer"/><g class="sunburstlayer"/><g class="glimages"/><defs id="topdefs-aa0c00"><g class="clips"/></defs><g class="layer-above"><g class="imagelayer"/><g class="shapelayer"/></g><g class="infolayer"><g class="g-gtitle"><text class="gtitle" x="550" y="25" text-anchor="middle" dy="0em" style="opacity: 1; font-family: system-ui, -apple-system, 'Segoe UI', Roboto, 'Helvetica Neue', 'Noto Sans', 'Liberation Sans', Arial, sans-serif, 'Apple Color Emoji', 'Segoe UI Emoji', 'Segoe UI Symbol', 'Noto Color Emoji'; font-size: 20px; fill: rgb(60, 60, 60); fill-opacity: 1; white-space: pre;"><tspan class="line" dy="0em" x="550" y="25">Samtools: idxstats: Mapped reads per contig</tspan><tspan class="line" dy="1.3em" x="550" y="25">​<tspan style="font-size:70%" dy="-0.6em">Observed over Expected Counts, 94 lines</tspan><tspan dy="0.42em">​</tspan></tspan></text></g><g class="g-xtitle"><text class="xtitle" x="551.5" y="465" text-anchor="middle" style="opacity: 1; font-family: system-ui, -apple-system, 'Segoe UI', Roboto, 'Helvetica Neue', 'Noto Sans', 'Liberation Sans', Arial, sans-serif, 'Apple Color Emoji', 'Segoe UI Emoji', 'Segoe UI Symbol', 'Noto Color Emoji'; font-size: 14px; fill: rgb(100, 100, 100); fill-opacity: 1; white-space: pre;">Chromosome name</text></g><g class="g-ytitle"><text class="ytitle" transform="rotate(-90,22,231.5)" x="22" y="231.5" text-anchor="middle" style="opacity: 1; font-family: system-ui, -apple-system, 'Segoe UI', Roboto, 'Helvetica Neue', 'Noto Sans', 'Liberation Sans', Arial, sans-serif, 'Apple Color Emoji', 'Segoe UI Emoji', 'Segoe UI Symbol', 'Noto Color Emoji'; font-size: 14px; fill: rgb(100, 100, 100); fill-opacity: 1; white-space: pre;">log10 ( Observed over expected counts )</text></g></g></svg>