<svg class="main-svg" xmlns="http://www.w3.org/2000/svg" xmlns:xlink="http://www.w3.org/1999/xlink" width="2200" height="1000" style="" viewBox="0 0 1100 500"><rect x="0" y="0" width="1100" height="500" style="fill: rgb(255, 255, 255); fill-opacity: 1;"/><defs id="defs-0af6d2"><g class="clips"><clipPath id="clip0af6d2xyplot" class="plotclip"><rect width="983" height="363"/></clipPath><clipPath class="axesclip" id="clip0af6d2x"><rect x="60" y="0" width="983" height="500"/></clipPath><clipPath class="axesclip" id="clip0af6d2y"><rect x="0" y="50" width="1100" height="363"/></clipPath><clipPath class="axesclip" id="clip0af6d2xy"><rect x="60" y="50" width="983" height="363"/></clipPath></g><g class="gradients"/><g class="patterns"/></defs><g class="bglayer"/><g class="layer-below"><g class="imagelayer"/><g class="shapelayer"/></g><g class="cartesianlayer"><g class="subplot xy"><g class="layer-subplot"><g class="shapelayer"/><g class="imagelayer"/></g><g class="minor-gridlayer"><g class="x"/><g class="y"/></g><g class="gridlayer"><g class="x"><path class="xgrid crisp" transform="translate(91.71000000000001,0)" d="M0,50v363" style="stroke: rgb(128, 128, 128); stroke-opacity: 0.15; stroke-width: 1px;"/><path class="xgrid crisp" transform="translate(123.42,0)" d="M0,50v363" style="stroke: rgb(128, 128, 128); stroke-opacity: 0.15; stroke-width: 1px;"/><path class="xgrid crisp" transform="translate(155.13,0)" d="M0,50v363" style="stroke: rgb(128, 128, 128); stroke-opacity: 0.15; stroke-width: 1px;"/><path class="xgrid crisp" transform="translate(186.84,0)" d="M0,50v363" style="stroke: rgb(128, 128, 128); stroke-opacity: 0.15; stroke-width: 1px;"/><path class="xgrid crisp" transform="translate(218.55,0)" d="M0,50v363" style="stroke: rgb(128, 128, 128); stroke-opacity: 0.15; stroke-width: 1px;"/><path class="xgrid crisp" transform="translate(250.26,0)" d="M0,50v363" style="stroke: rgb(128, 128, 128); stroke-opacity: 0.15; stroke-width: 1px;"/><path class="xgrid crisp" transform="translate(281.97,0)" d="M0,50v363" style="stroke: rgb(128, 128, 128); stroke-opacity: 0.15; stroke-width: 1px;"/><path class="xgrid crisp" transform="translate(313.68,0)" d="M0,50v363" style="stroke: rgb(128, 128, 128); stroke-opacity: 0.15; stroke-width: 1px;"/><path class="xgrid crisp" transform="translate(345.39,0)" d="M0,50v363" style="stroke: rgb(128, 128, 128); stroke-opacity: 0.15; stroke-width: 1px;"/><path class="xgrid crisp" transform="translate(377.1,0)" d="M0,50v363" style="stroke: rgb(128, 128, 128); stroke-opacity: 0.15; stroke-width: 1px;"/><path class="xgrid crisp" transform="translate(408.81,0)" d="M0,50v363" style="stroke: rgb(128, 128, 128); stroke-opacity: 0.15; stroke-width: 1px;"/><path class="xgrid crisp" transform="translate(440.52,0)" d="M0,50v363" style="stroke: rgb(128, 128, 128); stroke-opacity: 0.15; stroke-width: 1px;"/><path class="xgrid crisp" transform="translate(472.23,0)" d="M0,50v363" style="stroke: rgb(128, 128, 128); stroke-opacity: 0.15; stroke-width: 1px;"/><path class="xgrid crisp" transform="translate(503.94,0)" d="M0,50v363" style="stroke: rgb(128, 128, 128); stroke-opacity: 0.15; stroke-width: 1px;"/><path class="xgrid crisp" transform="translate(535.65,0)" d="M0,50v363" style="stroke: rgb(128, 128, 128); stroke-opacity: 0.15; stroke-width: 1px;"/><path class="xgrid crisp" transform="translate(567.35,0)" d="M0,50v363" style="stroke: rgb(128, 128, 128); stroke-opacity: 0.15; stroke-width: 1px;"/><path class="xgrid crisp" transform="translate(599.06,0)" d="M0,50v363" style="stroke: rgb(128, 128, 128); stroke-opacity: 0.15; stroke-width: 1px;"/><path class="xgrid crisp" transform="translate(630.77,0)" d="M0,50v363" style="stroke: rgb(128, 128, 128); stroke-opacity: 0.15; stroke-width: 1px;"/><path class="xgrid crisp" transform="translate(662.48,0)" d="M0,50v363" style="stroke: rgb(128, 128, 128); stroke-opacity: 0.15; stroke-width: 1px;"/><path class="xgrid crisp" transform="translate(694.19,0)" d="M0,50v363" style="stroke: rgb(128, 128, 128); stroke-opacity: 0.15; stroke-width: 1px;"/><path class="xgrid crisp" transform="translate(725.9,0)" d="M0,50v363" style="stroke: rgb(128, 128, 128); stroke-opacity: 0.15; stroke-width: 1px;"/><path class="xgrid crisp" transform="translate(757.61,0)" d="M0,50v363" style="stroke: rgb(128, 128, 128); stroke-opacity: 0.15; stroke-width: 1px;"/><path class="xgrid crisp" transform="translate(789.32,0)" d="M0,50v363" style="stroke: rgb(128, 128, 128); stroke-opacity: 0.15; stroke-width: 1px;"/><path class="xgrid crisp" transform="translate(821.03,0)" d="M0,50v363" style="stroke: rgb(128, 128, 128); stroke-opacity: 0.15; stroke-width: 1px;"/><path class="xgrid crisp" transform="translate(852.74,0)" d="M0,50v363" style="stroke: rgb(128, 128, 128); stroke-opacity: 0.15; stroke-width: 1px;"/><path class="xgrid crisp" transform="translate(884.45,0)" d="M0,50v363" style="stroke: rgb(128, 128, 128); stroke-opacity: 0.15; stroke-width: 1px;"/><path class="xgrid crisp" transform="translate(916.16,0)" d="M0,50v363" style="stroke: rgb(128, 128, 128); stroke-opacity: 0.15; stroke-width: 1px;"/><path class="xgrid crisp" transform="translate(947.87,0)" d="M0,50v363" style="stroke: rgb(128, 128, 128); stroke-opacity: 0.15; stroke-width: 1px;"/><path class="xgrid crisp" transform="translate(979.58,0)" d="M0,50v363" style="stroke: rgb(128, 128, 128); stroke-opacity: 0.15; stroke-width: 1px;"/><path class="xgrid crisp" transform="translate(1011.29,0)" d="M0,50v363" style="stroke: rgb(128, 128, 128); stroke-opacity: 0.15; stroke-width: 1px;"/></g><g class="y"><path class="ygrid crisp" transform="translate(0,398.51)" d="M60,0h983" style="stroke: rgb(128, 128, 128); stroke-opacity: 0.15; stroke-width: 1px;"/><path class="ygrid crisp" transform="translate(0,365.8)" d="M60,0h983" style="stroke: rgb(128, 128, 128); stroke-opacity: 0.15; stroke-width: 1px;"/><path class="ygrid crisp" transform="translate(0,341.05)" d="M60,0h983" style="stroke: rgb(128, 128, 128); stroke-opacity: 0.15; stroke-width: 1px;"/><path class="ygrid crisp" transform="translate(0,316.31)" d="M60,0h983" style="stroke: rgb(128, 128, 128); stroke-opacity: 0.15; stroke-width: 1px;"/><path class="ygrid crisp" transform="translate(0,283.6)" d="M60,0h983" style="stroke: rgb(128, 128, 128); stroke-opacity: 0.15; stroke-width: 1px;"/><path class="ygrid crisp" transform="translate(0,258.85)" d="M60,0h983" style="stroke: rgb(128, 128, 128); stroke-opacity: 0.15; stroke-width: 1px;"/><path class="ygrid crisp" transform="translate(0,234.1)" d="M60,0h983" style="stroke: rgb(128, 128, 128); stroke-opacity: 0.15; stroke-width: 1px;"/><path class="ygrid crisp" transform="translate(0,201.39)" d="M60,0h983" style="stroke: rgb(128, 128, 128); stroke-opacity: 0.15; stroke-width: 1px;"/><path class="ygrid crisp" transform="translate(0,176.65)" d="M60,0h983" style="stroke: rgb(128, 128, 128); stroke-opacity: 0.15; stroke-width: 1px;"/><path class="ygrid crisp" transform="translate(0,151.9)" d="M60,0h983" style="stroke: rgb(128, 128, 128); stroke-opacity: 0.15; stroke-width: 1px;"/><path class="ygrid crisp" transform="translate(0,119.19)" d="M60,0h983" style="stroke: rgb(128, 128, 128); stroke-opacity: 0.15; stroke-width: 1px;"/><path class="ygrid crisp" transform="translate(0,94.44)" d="M60,0h983" style="stroke: rgb(128, 128, 128); stroke-opacity: 0.15; stroke-width: 1px;"/><path class="ygrid crisp" transform="translate(0,69.7)" d="M60,0h983" style="stroke: rgb(128, 128, 128); stroke-opacity: 0.15; stroke-width: 1px;"/></g></g><g class="zerolinelayer"/><g class="layer-between"><g class="shapelayer"/><g class="imagelayer"/></g><path class="xlines-below"/><path class="ylines-below"/><g class="overlines-below"/><g class="xaxislayer-below"/><g class="yaxislayer-below"/><g class="overaxes-below"/><g class="overplot"><g class="xy" transform="translate(60,50)" clip-path="url(#clip0af6d2xyplot)"><g class="scatterlayer mlayer"><g class="trace scatter tracecace4b" style="stroke-miterlimit: 2; opacity: 1;"><g class="fills"/><g class="errorbars"/><g class="lines"><path class="js-line" d="M0,83.09L31.71,81.88L63.42,81.6L95.13,83.2L126.84,83.87L158.55,83.4L190.26,85.13L221.97,84.82L253.68,85.28L317.1,87.17L348.81,86.32L380.52,88.07L412.23,88.34L475.65,88.05L507.35,90.31L539.06,90.09L570.77,85.95L602.48,90.87L634.19,92.62L665.9,95.81L697.61,100.58L729.32,100.78L761.03,105.12L792.74,108.79L824.45,114.16L856.16,223.54L887.87,243.77L919.58,273.16L951.29,275.64L983,74.19" style="vector-effect: none; fill: none; stroke: rgb(124, 181, 236); stroke-opacity: 1; stroke-width: 2px; opacity: 1;"/></g><g class="points"/><g class="text"/></g><g class="trace scatter trace7ec994" style="stroke-miterlimit: 2; opacity: 1;"><g class="fills"/><g class="errorbars"/><g class="lines"><path class="js-line" d="M0,95.81L31.71,94.21L63.42,94.05L95.13,95.7L126.84,96.27L158.55,95.66L190.26,97.57L221.97,97.23L253.68,97.72L317.1,99.53L348.81,99.1L380.52,100.56L412.23,100.74L475.65,100.34L507.35,102.67L539.06,102.55L570.77,100.89L602.48,103.37L634.19,104.98L665.9,108.13L697.61,112.97L729.32,113.01L761.03,117.51L792.74,122.09L824.45,128.44L856.16,237.01L887.87,257.24L919.58,287.98L951.29,288.13L983,86.6" style="vector-effect: none; fill: none; stroke: rgb(67, 67, 72); stroke-opacity: 1; stroke-width: 2px; opacity: 1;"/></g><g class="points"/><g class="text"/></g><g class="trace scatter traceb505ee" style="stroke-miterlimit: 2; opacity: 1;"><g class="fills"/><g class="errorbars"/><g class="lines"><path class="js-line" d="M0,88.26L31.71,86.98L63.42,86.57L95.13,88.46L126.84,89.28L158.55,88.43L190.26,90.36L221.97,90.04L253.68,90.54L317.1,92.37L348.81,92.28L380.52,93.33L412.23,93.48L475.65,93.18L507.35,95.44L539.06,95.37L570.77,93.16L602.48,96.23L634.19,98.01L665.9,101.06L697.61,105.67L729.32,106.05L761.03,110.59L792.74,113.81L824.45,121.6L856.16,229.19L887.87,248.33L919.58,280.17L951.29,278.35L983,79.44" style="vector-effect: none; fill: none; stroke: rgb(144, 237, 125); stroke-opacity: 1; stroke-width: 2px; opacity: 1;"/></g><g class="points"/><g class="text"/></g><g class="trace scatter trace863f64" style="stroke-miterlimit: 2; opacity: 1;"><g class="fills"/><g class="errorbars"/><g class="lines"><path class="js-line" d="M0,95.19L63.42,93.77L95.13,95.32L126.84,96.12L158.55,95.8L190.26,97.23L221.97,97.1L285.39,98.73L317.1,99.6L348.81,98.51L380.52,100.56L412.23,101.12L443.94,100.4L475.65,98.87L507.35,102.73L539.06,102.28L570.77,100.73L665.9,107.97L697.61,112.82L729.32,112.48L761.03,115.53L824.45,127.61L856.16,236.71L887.87,256.23L919.58,289.07L951.29,289.98L983,86.27" style="vector-effect: none; fill: none; stroke: rgb(247, 163, 92); stroke-opacity: 1; stroke-width: 2px; opacity: 1;"/></g><g class="points"/><g class="text"/></g><g class="trace scatter trace696d75" style="stroke-miterlimit: 2; opacity: 1;"><g class="fills"/><g class="errorbars"/><g class="lines"><path class="js-line" d="M0,85.16L31.71,83.6L63.42,83.61L95.13,85.13L126.84,85.68L158.55,85.11L190.26,87.11L221.97,86.77L253.68,87.33L317.1,89.05L348.81,88.19L380.52,90.06L412.23,90.38L443.94,89.86L475.65,90.28L507.35,92.25L539.06,92L570.77,87.46L602.48,92.88L634.19,94.35L665.9,97.84L697.61,102.32L729.32,102.98L761.03,107.62L792.74,110.74L824.45,117.01L856.16,140.19L887.87,163.66L919.58,181.77L951.29,197.55L983,98.01" style="vector-effect: none; fill: none; stroke: rgb(128, 133, 233); stroke-opacity: 1; stroke-width: 2px; opacity: 1;"/></g><g class="points"/><g class="text"/></g><g class="trace scatter trace8d197e" style="stroke-miterlimit: 2; opacity: 1;"><g class="fills"/><g class="errorbars"/><g class="lines"><path class="js-line" d="M0,78.86L63.42,77.34L95.13,79.07L126.84,79.9L158.55,79.54L190.26,80.89L221.97,80.84L253.68,80.88L285.39,81.89L317.1,82.93L348.81,82.46L412.23,84.39L443.94,83.59L475.65,83.37L507.35,86.04L539.06,85.88L570.77,83.11L602.48,86.59L634.19,88.17L665.9,91.31L697.61,95.35L729.32,96.38L761.03,100L792.74,104.21L824.45,110.39L856.16,131.66L887.87,155L919.58,173.45L951.29,190.48L983,92.02" style="vector-effect: none; fill: none; stroke: rgb(241, 92, 128); stroke-opacity: 1; stroke-width: 2px; opacity: 1;"/></g><g class="points"/><g class="text"/></g><g class="trace scatter tracee44b5a" style="stroke-miterlimit: 2; opacity: 1;"><g class="fills"/><g class="errorbars"/><g class="lines"><path class="js-line" d="M0,88.9L31.71,87.69L63.42,88.42L158.55,89.93L190.26,91.09L253.68,91.72L285.39,92.6L317.1,93L348.81,92.16L380.52,94.84L412.23,94.6L475.65,93.45L507.35,96.31L539.06,96.24L570.77,92.78L602.48,96.81L634.19,98.23L665.9,101.5L697.61,106.46L729.32,105.95L761.03,109.35L792.74,114.11L824.45,119.66L856.16,229.64L887.87,250.27L919.58,282.16L951.29,282.35L983,80.38" style="vector-effect: none; fill: none; stroke: rgb(228, 211, 84); stroke-opacity: 1; stroke-width: 2px; opacity: 1;"/></g><g class="points"/><g class="text"/></g><g class="trace scatter trace952cc7" style="stroke-miterlimit: 2; opacity: 1;"><g class="fills"/><g class="errorbars"/><g class="lines"><path class="js-line" d="M0,85.12L31.71,84.68L63.42,82.62L95.13,85.82L126.84,85.96L158.55,85.55L190.26,86.76L221.97,87.1L253.68,86.34L317.1,89.46L348.81,88.61L380.52,88.66L412.23,90.78L475.65,88.83L507.35,91.82L539.06,92.27L570.77,88.74L602.48,92.96L634.19,94.62L697.61,100.67L729.32,101.71L792.74,108.8L824.45,116.89L856.16,224.61L887.87,244.02L919.58,278.19L951.29,280.47L983,76.98" style="vector-effect: none; fill: none; stroke: rgb(43, 144, 143); stroke-opacity: 1; stroke-width: 2px; opacity: 1;"/></g><g class="points"/><g class="text"/></g><g class="trace scatter tracebee4be" style="stroke-miterlimit: 2; opacity: 1;"><g class="fills"/><g class="errorbars"/><g class="lines"><path class="js-line" d="M0,84.78L63.42,83.12L95.13,85.21L158.55,85.38L190.26,86.6L253.68,86.82L285.39,88.23L317.1,88.61L348.81,88.04L412.23,90.44L443.94,89.62L475.65,89.02L507.35,91.83L539.06,91.64L570.77,86.6L602.48,92.74L634.19,94.02L665.9,97.05L697.61,100.86L729.32,101.93L761.03,105.22L792.74,108.93L824.45,115.37L856.16,136.76L887.87,160.22L919.58,179L951.29,196.15L983,98.19" style="vector-effect: none; fill: none; stroke: rgb(244, 91, 91); stroke-opacity: 1; stroke-width: 2px; opacity: 1;"/></g><g class="points"/><g class="text"/></g><g class="trace scatter trace8f384d" style="stroke-miterlimit: 2; opacity: 1;"><g class="fills"/><g class="errorbars"/><g class="lines"><path class="js-line" d="M0,90.27L63.42,89.17L95.13,90.48L126.84,91.47L158.55,91.16L317.1,94.56L348.81,93.41L380.52,95.35L412.23,95.97L475.65,93.94L507.35,97.16L539.06,97.16L570.77,94.64L602.48,97.91L634.19,99.4L697.61,106.07L729.32,106.2L792.74,113.51L824.45,119.06L856.16,228.92L887.87,251.17L919.58,284.71L951.29,284.99L983,82.33" style="vector-effect: none; fill: none; stroke: rgb(145, 232, 225); stroke-opacity: 1; stroke-width: 2px; opacity: 1;"/></g><g class="points"/><g class="text"/></g><g class="trace scatter trace58c7d6" style="stroke-miterlimit: 2; opacity: 1;"><g class="fills"/><g class="errorbars"/><g class="lines"><path class="js-line" d="M0,105.09L63.42,103.46L95.13,105.41L126.84,106.11L158.55,105.66L190.26,106.75L221.97,106.94L253.68,107.08L285.39,108.35L317.1,109.38L348.81,108.54L412.23,110.73L443.94,110.09L475.65,108.13L507.35,111.78L539.06,112.09L570.77,109.6L602.48,112.75L634.19,114.44L665.9,117.28L697.61,120.96L729.32,120.81L761.03,124.1L824.45,133.21L856.16,244.52L887.87,265.22L919.58,296.68L951.29,298L983,96.52" style="vector-effect: none; fill: none; stroke: rgb(124, 181, 236); stroke-opacity: 1; stroke-width: 2px; opacity: 1;"/></g><g class="points"/><g class="text"/></g><g class="trace scatter trace1dd574" style="stroke-miterlimit: 2; opacity: 1;"><g class="fills"/><g class="errorbars"/><g class="lines"><path class="js-line" d="M0,91.52L31.71,90.25L63.42,90.85L126.84,92.37L158.55,92.19L190.26,93.47L221.97,93.34L317.1,95.61L348.81,94.97L380.52,97.4L412.23,96.94L443.94,97.02L475.65,95.99L507.35,99.06L539.06,98.51L570.77,97.29L602.48,99.43L634.19,100.93L665.9,103.89L697.61,109.05L729.32,108.47L761.03,112.12L792.74,116.57L824.45,122.64L856.16,232.56L887.87,252.31L919.58,284.39L951.29,286.54L983,82.79" style="vector-effect: none; fill: none; stroke: rgb(67, 67, 72); stroke-opacity: 1; stroke-width: 2px; opacity: 1;"/></g><g class="points"/><g class="text"/></g><g class="trace scatter trace4c4db1" style="stroke-miterlimit: 2; opacity: 1;"><g class="fills"/><g class="errorbars"/><g class="lines"><path class="js-line" d="M0,86.32L31.71,84.83L63.42,85.04L126.84,87.12L158.55,86.5L190.26,88.44L221.97,88.06L317.1,90.3L348.81,89.87L380.52,91.8L412.23,91.52L443.94,91.44L475.65,90.41L507.35,93.76L539.06,93.4L570.77,90.65L602.48,94.01L634.19,95.88L665.9,98.95L697.61,103.84L729.32,103.8L792.74,111.84L824.45,116.96L856.16,228.95L887.87,245.09L919.58,276.38L951.29,277.98L983,77.28" style="vector-effect: none; fill: none; stroke: rgb(144, 237, 125); stroke-opacity: 1; stroke-width: 2px; opacity: 1;"/></g><g class="points"/><g class="text"/></g><g class="trace scatter trace1db8ca" style="stroke-miterlimit: 2; opacity: 1;"><g class="fills"/><g class="errorbars"/><g class="lines"><path class="js-line" d="M0,91.24L31.71,89.66L63.42,89.8L126.84,91.85L158.55,91.53L190.26,93.36L221.97,92.84L317.1,95.1L348.81,94.91L380.52,96.63L412.23,96.54L475.65,96.2L507.35,98.64L539.06,98.18L570.77,95L602.48,98.78L634.19,100.84L665.9,104.11L697.61,108.88L729.32,109.15L761.03,113.78L792.74,117.25L824.45,124.31L856.16,234.29L887.87,249.63L919.58,282.99L951.29,280.11L983,81.93" style="vector-effect: none; fill: none; stroke: rgb(247, 163, 92); stroke-opacity: 1; stroke-width: 2px; opacity: 1;"/></g><g class="points"/><g class="text"/></g><g class="trace scatter trace7b531e" style="stroke-miterlimit: 2; opacity: 1;"><g class="fills"/><g class="errorbars"/><g class="lines"><path class="js-line" d="M0,81.11L31.71,80.01L63.42,79.77L95.13,81.52L126.84,82L158.55,81.5L190.26,83.1L253.68,83.2L285.39,84.46L317.1,85.26L348.81,84.87L412.23,86.57L443.94,85.97L475.65,85.94L507.35,88.28L539.06,88.02L570.77,86.15L602.48,88.88L634.19,90.68L665.9,93.72L697.61,97.75L729.32,98.77L761.03,103.22L792.74,107.78L824.45,113.51L856.16,133.8L887.87,156.7L919.58,175.44L951.29,192.31L983,94.2" style="vector-effect: none; fill: none; stroke: rgb(128, 133, 233); stroke-opacity: 1; stroke-width: 2px; opacity: 1;"/></g><g class="points"/><g class="text"/></g><g class="trace scatter trace64cf94" style="stroke-miterlimit: 2; opacity: 1;"><g class="fills"/><g class="errorbars"/><g class="lines"><path class="js-line" d="M0,95.83L31.71,94.4L63.42,93.89L95.13,96.03L126.84,96.49L158.55,95.68L190.26,97.72L253.68,97.77L285.39,98.6L317.1,99.71L348.81,99.76L412.23,101.15L443.94,100.53L475.65,100.72L507.35,102.76L539.06,102.53L570.77,99.49L602.48,103.45L634.19,104.98L665.9,108.39L697.61,112.88L729.32,113.23L761.03,118.1L792.74,121.07L824.45,128.37L856.16,235.66L887.87,253.9L919.58,284.34L951.29,286.03L983,86.61" style="vector-effect: none; fill: none; stroke: rgb(241, 92, 128); stroke-opacity: 1; stroke-width: 2px; opacity: 1;"/></g><g class="points"/><g class="text"/></g><g class="trace scatter trace90e7e8" style="stroke-miterlimit: 2; opacity: 1;"><g class="fills"/><g class="errorbars"/><g class="lines"><path class="js-line" d="M0,93.34L31.71,91.8L63.42,92.14L126.84,94.11L158.55,93.61L190.26,95.54L221.97,94.98L348.81,97.24L380.52,98.72L475.65,98.29L507.35,100.87L539.06,100.27L570.77,98.73L634.19,102.75L665.9,106.25L697.61,110.58L729.32,111.47L761.03,115.95L792.74,119.4L824.45,125.61L856.16,145.38L887.87,168.37L919.58,186.89L951.29,202.94L983,106.05" style="vector-effect: none; fill: none; stroke: rgb(228, 211, 84); stroke-opacity: 1; stroke-width: 2px; opacity: 1;"/></g><g class="points"/><g class="text"/></g><g class="trace scatter tracefaba23" style="stroke-miterlimit: 2; opacity: 1;"><g class="fills"/><g class="errorbars"/><g class="lines"><path class="js-line" d="M0,96.2L31.71,94.68L63.42,94.84L126.84,96.86L158.55,96.49L190.26,98.24L221.97,97.81L317.1,99.88L348.81,99.99L380.52,101.57L412.23,101.3L475.65,101.09L507.35,103.69L570.77,101.25L602.48,103.66L634.19,105.31L665.9,108.91L697.61,113.44L729.32,113.67L761.03,118.25L792.74,121.31L824.45,127.77L856.16,236.62L887.87,254.74L919.58,287.74L951.29,286.15L983,86.82" style="vector-effect: none; fill: none; stroke: rgb(43, 144, 143); stroke-opacity: 1; stroke-width: 2px; opacity: 1;"/></g><g class="points"/><g class="text"/></g><g class="trace scatter traced63f9c" style="stroke-miterlimit: 2; opacity: 1;"><g class="fills"/><g class="errorbars"/><g class="lines"><path class="js-line" d="M0,91.67L31.71,90.05L63.42,89.88L95.13,91.64L126.84,92.13L158.55,91.66L190.26,93.52L253.68,93.64L285.39,94.8L412.23,97.01L443.94,96.4L475.65,96.53L507.35,98.85L539.06,98.3L570.77,94.75L602.48,99.23L634.19,101.22L665.9,104.17L697.61,108.9L729.32,109.67L761.03,114.36L792.74,117.79L824.45,124.23L856.16,142.5L887.87,166.64L919.58,184.3L951.29,200.21L983,104.38" style="vector-effect: none; fill: none; stroke: rgb(244, 91, 91); stroke-opacity: 1; stroke-width: 2px; opacity: 1;"/></g><g class="points"/><g class="text"/></g><g class="trace scatter trace55dbd4" style="stroke-miterlimit: 2; opacity: 1;"><g class="fills"/><g class="errorbars"/><g class="lines"><path class="js-line" d="M0,90.9L63.42,89.48L95.13,91.16L126.84,91.88L158.55,91.37L190.26,92.69L221.97,92.85L253.68,92.98L285.39,94.21L317.1,95.14L348.81,94.69L412.23,96.56L443.94,95.77L475.65,95.35L507.35,97.76L539.06,97.74L570.77,93.72L602.48,98.66L634.19,100.33L665.9,103.03L697.61,106.73L729.32,107.03L761.03,111.02L792.74,114.58L824.45,120.78L856.16,233.18L887.87,246.48L919.58,284.98L951.29,284.2L983,82.62" style="vector-effect: none; fill: none; stroke: rgb(145, 232, 225); stroke-opacity: 1; stroke-width: 2px; opacity: 1;"/></g><g class="points"/><g class="text"/></g><g class="trace scatter trace06a36a" style="stroke-miterlimit: 2; opacity: 1;"><g class="fills"/><g class="errorbars"/><g class="lines"><path class="js-line" d="M0,84.66L31.71,83.11L63.42,83.75L126.84,85.52L158.55,85.23L190.26,86.6L221.97,86.42L317.1,88.59L348.81,88.12L380.52,90.3L412.23,90.15L475.65,89.19L507.35,92.17L539.06,91.52L570.77,88.73L602.48,92.29L634.19,93.75L665.9,97.21L697.61,101.64L729.32,102L761.03,105.63L792.74,109.73L824.45,116.18L887.87,164.25L919.58,182.6L951.29,199.22L983,97.74" style="vector-effect: none; fill: none; stroke: rgb(124, 181, 236); stroke-opacity: 1; stroke-width: 2px; opacity: 1;"/></g><g class="points"/><g class="text"/></g><g class="trace scatter traced87407" style="stroke-miterlimit: 2; opacity: 1;"><g class="fills"/><g class="errorbars"/><g class="lines"><path class="js-line" d="M0,149.29L31.71,148.52L63.42,148.58L126.84,150.58L158.55,150L190.26,151.83L221.97,151.45L317.1,153.97L348.81,153.28L380.52,155.36L412.23,155.45L475.65,154.31L507.35,157.73L539.06,156.74L570.77,153.47L602.48,157.7L634.19,159.5L665.9,162.65L697.61,166.73L729.32,166.73L761.03,170.53L792.74,174.92L824.45,180.83L856.16,292.28L887.87,309.62L919.58,341.72L951.29,344.85L983,140.75" style="vector-effect: none; fill: none; stroke: rgb(67, 67, 72); stroke-opacity: 1; stroke-width: 2px; opacity: 1;"/></g><g class="points"/><g class="text"/></g><g class="trace scatter trace0a68e1" style="stroke-miterlimit: 2; opacity: 1;"><g class="fills"/><g class="errorbars"/><g class="lines"><path class="js-line" d="M0,86.62L31.71,85.06L63.42,85.21L95.13,86.7L126.84,87.28L158.55,86.82L190.26,88.53L221.97,88.33L253.68,89.08L317.1,90.5L348.81,90.48L380.52,91.75L412.23,91.86L475.65,91.61L507.35,93.86L539.06,93.17L570.77,91.41L602.48,94.28L634.19,96.11L665.9,99.2L697.61,104.02L729.32,104.27L761.03,109.2L792.74,112.53L824.45,119.28L856.16,225.45L887.87,246.02L919.58,275.37L951.29,276.85L983,77.43" style="vector-effect: none; fill: none; stroke: rgb(144, 237, 125); stroke-opacity: 1; stroke-width: 2px; opacity: 1;"/></g><g class="points"/><g class="text"/></g><g class="trace scatter trace8a674e" style="stroke-miterlimit: 2; opacity: 1;"><g class="fills"/><g class="errorbars"/><g class="lines"><path class="js-line" d="M0,92.58L63.42,90.22L95.13,93.25L126.84,93.51L158.55,92.5L190.26,93.88L221.97,94.35L253.68,93.9L285.39,95.42L317.1,96.76L348.81,96.2L380.52,96.11L412.23,97.98L475.65,96.12L507.35,99.12L539.06,99.29L570.77,97.5L602.48,100.3L634.19,101.82L665.9,104.71L697.61,108.37L729.32,109.01L761.03,113.09L792.74,116.28L824.45,121.82L856.16,237.33L887.87,253.78L919.58,283.55L951.29,284.04L983,84.32" style="vector-effect: none; fill: none; stroke: rgb(247, 163, 92); stroke-opacity: 1; stroke-width: 2px; opacity: 1;"/></g><g class="points"/><g class="text"/></g><g class="trace scatter trace745eb5" style="stroke-miterlimit: 2; opacity: 1;"><g class="fills"/><g class="errorbars"/><g class="lines"><path class="js-line" d="M0,94.6L31.71,92.97L63.42,93.15L95.13,94.52L126.84,95.11L158.55,94.63L190.26,96.53L221.97,96.2L253.68,97.09L317.1,98.39L348.81,98.5L380.52,99.8L412.23,99.83L475.65,99.87L507.35,102.11L539.06,101.35L570.77,99.16L602.48,102.06L634.19,104.09L665.9,107.53L697.61,112.28L729.32,112.61L761.03,117.7L792.74,120.9L824.45,127.98L856.16,146.02L887.87,169.42L951.29,203.69L983,107.26" style="vector-effect: none; fill: none; stroke: rgb(128, 133, 233); stroke-opacity: 1; stroke-width: 2px; opacity: 1;"/></g><g class="points"/><g class="text"/></g><g class="trace scatter trace610e87" style="stroke-miterlimit: 2; opacity: 1;"><g class="fills"/><g class="errorbars"/><g class="lines"><path class="js-line" d="M0,94.96L31.71,93.32L63.42,93.52L95.13,95.16L126.84,95.64L158.55,95.31L190.26,96.93L221.97,96.68L253.68,97.21L317.1,98.82L348.81,98.81L380.52,100L412.23,100.24L475.65,99.47L507.35,102.35L539.06,101.79L570.77,98.44L602.48,102.56L634.19,104.11L665.9,107.65L697.61,112.49L729.32,113.33L761.03,117.66L792.74,122.08L824.45,127.58L856.16,146.78L887.87,169.86L919.58,188.06L951.29,204.8L983,107.67" style="vector-effect: none; fill: none; stroke: rgb(241, 92, 128); stroke-opacity: 1; stroke-width: 2px; opacity: 1;"/></g><g class="points"/><g class="text"/></g><g class="trace scatter tracee330d4" style="stroke-miterlimit: 2; opacity: 1;"><g class="fills"/><g class="errorbars"/><g class="lines"><path class="js-line" d="M0,79.9L31.71,78.7L63.42,78.3L95.13,80.32L126.84,80.7L158.55,80.39L190.26,82.16L221.97,81.7L253.68,82.01L317.1,83.97L348.81,83.86L412.23,85.27L443.94,84.55L475.65,85L507.35,87.13L539.06,86.78L570.77,84.92L602.48,87.83L634.19,89.7L665.9,92.7L697.61,96.59L729.32,97.94L761.03,102.3L792.74,106.35L824.45,113.07L856.16,133.64L887.87,156.35L919.58,174.97L951.29,190.55L983,92.85" style="vector-effect: none; fill: none; stroke: rgb(228, 211, 84); stroke-opacity: 1; stroke-width: 2px; opacity: 1;"/></g><g class="points"/><g class="text"/></g><g class="trace scatter tracee50d1f" style="stroke-miterlimit: 2; opacity: 1;"><g class="fills"/><g class="errorbars"/><g class="lines"><path class="js-line" d="M0,81.41L31.71,80.36L63.42,80.71L126.84,82.42L158.55,82.12L190.26,83.39L221.97,83.47L253.68,83.83L285.39,85.05L317.1,85.63L348.81,84.77L380.52,87L412.23,87.03L475.65,85.82L507.35,88.99L570.77,87.93L602.48,89.14L634.19,90.37L665.9,93.89L697.61,98.35L729.32,98.74L761.03,102.09L792.74,106.5L824.45,111.86L856.16,222.17L887.87,239.09L919.58,272.99L951.29,274.43L983,72.88" style="vector-effect: none; fill: none; stroke: rgb(43, 144, 143); stroke-opacity: 1; stroke-width: 2px; opacity: 1;"/></g><g class="points"/><g class="text"/></g><g class="trace scatter traceee0452" style="stroke-miterlimit: 2; opacity: 1;"><g class="fills"/><g class="errorbars"/><g class="lines"><path class="js-line" d="M0,89.01L31.71,87.05L63.42,87.36L95.13,88.89L126.84,89.56L158.55,88.98L190.26,90.78L253.68,91.14L285.39,92.1L348.81,92.55L380.52,93.95L412.23,94.16L443.94,93.55L475.65,93.99L507.35,95.94L539.06,95.81L570.77,94.16L665.9,101.7L697.61,106.86L729.32,106.65L761.03,111.83L824.45,118.68L856.16,227.47L887.87,249.15L919.58,280.7L951.29,279.17L983,79.67" style="vector-effect: none; fill: none; stroke: rgb(244, 91, 91); stroke-opacity: 1; stroke-width: 2px; opacity: 1;"/></g><g class="points"/><g class="text"/></g><g class="trace scatter trace697d0f" style="stroke-miterlimit: 2; opacity: 1;"><g class="fills"/><g class="errorbars"/><g class="lines"><path class="js-line" d="M0,83.8L31.71,82.36L63.42,82.5L126.84,84.75L158.55,84.15L190.26,85.84L221.97,85.76L348.81,87.57L380.52,89.02L475.65,88.64L507.35,91.04L570.77,89.64L602.48,91.38L634.19,93.41L665.9,96.49L697.61,101.26L729.32,101.78L761.03,106.17L792.74,109.56L824.45,116.23L856.16,223.19L887.87,241.53L919.58,274.1L951.29,274.38L983,74.8" style="vector-effect: none; fill: none; stroke: rgb(145, 232, 225); stroke-opacity: 1; stroke-width: 2px; opacity: 1;"/></g><g class="points"/><g class="text"/></g><g class="trace scatter trace6659cc" style="stroke-miterlimit: 2; opacity: 1;"><g class="fills"/><g class="errorbars"/><g class="lines"><path class="js-line" d="M0,88.03L63.42,86.55L95.13,88.39L126.84,88.95L158.55,88.17L190.26,90.22L221.97,90.33L253.68,90.32L285.39,91.21L317.1,92.3L348.81,92.19L412.23,93.76L443.94,93L475.65,93.35L507.35,95.29L539.06,95.09L570.77,92.75L602.48,96L634.19,97.84L665.9,100.86L697.61,104.91L729.32,105.63L761.03,110.12L792.74,113.79L824.45,120.02L856.16,140.41L887.87,163.33L919.58,181.57L951.29,197.88L983,101.25" style="vector-effect: none; fill: none; stroke: rgb(124, 181, 236); stroke-opacity: 1; stroke-width: 2px; opacity: 1;"/></g><g class="points"/><g class="text"/></g><g class="trace scatter traceb2b201" style="stroke-miterlimit: 2; opacity: 1;"><g class="fills"/><g class="errorbars"/><g class="lines"><path class="js-line" d="M0,88.79L31.71,87.39L63.42,87.23L95.13,88.88L126.84,89.39L158.55,88.9L190.26,90.7L253.68,90.95L285.39,91.7L317.1,92.19L348.81,91.76L380.52,93.51L412.23,93.97L475.65,93.57L507.35,95.82L570.77,94.89L602.48,96.5L634.19,98.24L665.9,101.36L697.61,105.83L729.32,106.16L761.03,110.68L792.74,114.44L824.45,120.4L856.16,230.45L887.87,248.17L919.58,282.62L951.29,282.72L983,79.75" style="vector-effect: none; fill: none; stroke: rgb(67, 67, 72); stroke-opacity: 1; stroke-width: 2px; opacity: 1;"/></g><g class="points"/><g class="text"/></g><g class="trace scatter trace7ed6a3" style="stroke-miterlimit: 2; opacity: 1;"><g class="fills"/><g class="errorbars"/><g class="lines"><path class="js-line" d="M0,81.48L63.42,80.51L95.13,81.59L126.84,82.68L158.55,82.37L190.26,83.48L221.97,83.42L253.68,83.8L285.39,84.97L317.1,85.79L348.81,84.73L380.52,86.78L412.23,87.15L475.65,85.61L507.35,88.74L570.77,87.39L602.48,89.25L665.9,93.66L697.61,97.55L729.32,97.71L761.03,101.35L792.74,105.56L824.45,111.2L856.16,225.05L887.87,243.34L919.58,271.64L951.29,273.84L983,73.43" style="vector-effect: none; fill: none; stroke: rgb(144, 237, 125); stroke-opacity: 1; stroke-width: 2px; opacity: 1;"/></g><g class="points"/><g class="text"/></g><g class="trace scatter trace1e35bb" style="stroke-miterlimit: 2; opacity: 1;"><g class="fills"/><g class="errorbars"/><g class="lines"><path class="js-line" d="M0,92.23L31.71,91.01L63.42,90.68L95.13,92.58L126.84,93.05L158.55,92.45L190.26,94.25L253.68,94.34L285.39,95.38L317.1,96.34L348.81,95.79L380.52,97.08L412.23,97.57L475.65,96.85L507.35,99.37L539.06,99.15L570.77,96.77L602.48,99.92L634.19,101.76L665.9,104.85L697.61,109.26L729.32,109.64L761.03,113.74L792.74,117.93L824.45,124.39L856.16,234.93L887.87,252.79L919.58,284.5L951.29,282L983,83.27" style="vector-effect: none; fill: none; stroke: rgb(247, 163, 92); stroke-opacity: 1; stroke-width: 2px; opacity: 1;"/></g><g class="points"/><g class="text"/></g><g class="trace scatter trace63b53f" style="stroke-miterlimit: 2; opacity: 1;"><g class="fills"/><g class="errorbars"/><g class="lines"><path class="js-line" d="M0,94.19L31.71,92.67L63.42,92.66L95.13,94.42L126.84,94.96L158.55,94.3L190.26,95.89L253.68,96.35L285.39,97.35L317.1,98.04L348.81,97.82L412.23,99.67L443.94,99.01L475.65,99.19L507.35,101.01L539.06,101.11L570.77,96.78L602.48,101.82L634.19,103.51L665.9,106.8L697.61,111.68L729.32,111.65L761.03,116.34L792.74,120.95L824.45,124.62L856.16,235.01L887.87,254.25L919.58,286.92L951.29,285.65L983,85.29" style="vector-effect: none; fill: none; stroke: rgb(128, 133, 233); stroke-opacity: 1; stroke-width: 2px; opacity: 1;"/></g><g class="points"/><g class="text"/></g><g class="trace scatter trace0e421a" style="stroke-miterlimit: 2; opacity: 1;"><g class="fills"/><g class="errorbars"/><g class="lines"><path class="js-line" d="M0,144.8L63.42,143.19L95.13,145.7L221.97,147.04L253.68,146.83L317.1,149.45L348.81,148.85L380.52,149.25L412.23,151.14L475.65,148.68L507.35,152.34L570.77,152.02L602.48,153.26L665.9,157.45L697.61,160.82L729.32,162.35L761.03,165.91L792.74,171.28L824.45,174.17L856.16,288.99L887.87,306.7L919.58,337.35L951.29,339.28L983,136.8" style="vector-effect: none; fill: none; stroke: rgb(241, 92, 128); stroke-opacity: 1; stroke-width: 2px; opacity: 1;"/></g><g class="points"/><g class="text"/></g><g class="trace scatter trace5e524c" style="stroke-miterlimit: 2; opacity: 1;"><g class="fills"/><g class="errorbars"/><g class="lines"><path class="js-line" d="M0,65.6L31.71,63.95L63.42,64.18L95.13,65.66L126.84,66.22L158.55,66.02L190.26,67.77L221.97,67.23L253.68,67.97L317.1,69.34L348.81,69.52L380.52,70.75L412.23,70.81L475.65,70.43L507.35,72.81L539.06,72.42L570.77,70.63L602.48,73.13L634.19,74.78L665.9,78.42L697.61,83.54L729.32,83.87L761.03,89.05L824.45,97.43L856.16,118.16L887.87,141.64L919.58,158.96L951.29,175.59L983,78.55" style="vector-effect: none; fill: none; stroke: rgb(228, 211, 84); stroke-opacity: 1; stroke-width: 2px; opacity: 1;"/></g><g class="points"/><g class="text"/></g><g class="trace scatter trace3d7f03" style="stroke-miterlimit: 2; opacity: 1;"><g class="fills"/><g class="errorbars"/><g class="lines"><path class="js-line" d="M0,74.76L31.71,74.74L63.42,71.32L95.13,76.13L126.84,75.97L158.55,75.06L190.26,76.4L221.97,76.98L253.68,75.09L317.1,79.43L348.81,79.07L380.52,76.76L412.23,80.66L443.94,78.29L475.65,79.03L507.35,81.19L539.06,81.85L570.77,80.59L602.48,83.18L697.61,89.1L729.32,92.85L761.03,97.13L792.74,100.23L824.45,102.7L856.16,217L887.87,240.81L919.58,271.59L951.29,269.12L983,67.31" style="vector-effect: none; fill: none; stroke: rgb(43, 144, 143); stroke-opacity: 1; stroke-width: 2px; opacity: 1;"/></g><g class="points"/><g class="text"/></g><g class="trace scatter trace5e69d9" style="stroke-miterlimit: 2; opacity: 1;"><g class="fills"/><g class="errorbars"/><g class="lines"><path class="js-line" d="M0,78.56L31.71,78.07L63.42,76.56L95.13,79.51L126.84,79.76L158.55,79.42L190.26,80.62L253.68,80.13L285.39,81.57L317.1,83.09L348.81,82.76L380.52,82.24L412.23,84.53L443.94,82.79L475.65,83.1L507.35,85.66L539.06,85.65L570.77,83.58L602.48,86.78L634.19,88.06L665.9,90.87L697.61,94.35L729.32,96.35L792.74,104.88L824.45,110.48L856.16,223.02L887.87,240.12L919.58,273.21L951.29,272.25L983,70.65" style="vector-effect: none; fill: none; stroke: rgb(244, 91, 91); stroke-opacity: 1; stroke-width: 2px; opacity: 1;"/></g><g class="points"/><g class="text"/></g><g class="trace scatter tracedaab83" style="stroke-miterlimit: 2; opacity: 1;"><g class="fills"/><g class="errorbars"/><g class="lines"><path class="js-line" d="M0,93.1L31.71,91.59L63.42,91.26L95.13,93.07L126.84,93.63L158.55,93.12L190.26,95.05L253.68,95.14L285.39,96.18L317.1,97.03L348.81,96.83L412.23,98.21L443.94,97.73L475.65,97.28L507.35,100.13L539.06,99.77L570.77,98.53L634.19,102.71L665.9,105.76L697.61,109.97L729.32,110.66L761.03,115.53L792.74,118.98L824.45,124.17L856.16,145.26L887.87,168.83L919.58,186.45L951.29,202.92L983,105.69" style="vector-effect: none; fill: none; stroke: rgb(145, 232, 225); stroke-opacity: 1; stroke-width: 2px; opacity: 1;"/></g><g class="points"/><g class="text"/></g><g class="trace scatter trace21d894" style="stroke-miterlimit: 2; opacity: 1;"><g class="fills"/><g class="errorbars"/><g class="lines"><path class="js-line" d="M0,95.07L31.71,93.73L63.42,93.41L95.13,95.28L126.84,95.72L158.55,95.28L190.26,97.05L253.68,97.17L285.39,98.02L317.1,99.04L348.81,98.79L412.23,100.22L443.94,99.81L475.65,100.14L507.35,102.37L539.06,101.84L570.77,99.04L602.48,102.67L634.19,104.55L665.9,107.67L697.61,111.81L729.32,112.91L761.03,117.45L792.74,120.72L824.45,127.66L856.16,148.56L887.87,171.5L919.58,189.81L951.29,206.07L983,107.85" style="vector-effect: none; fill: none; stroke: rgb(124, 181, 236); stroke-opacity: 1; stroke-width: 2px; opacity: 1;"/></g><g class="points"/><g class="text"/></g><g class="trace scatter trace92b0cc" style="stroke-miterlimit: 2; opacity: 1;"><g class="fills"/><g class="errorbars"/><g class="lines"><path class="js-line" d="M0,86.49L31.71,85.18L63.42,85.08L95.13,86.88L126.84,87.46L158.55,87.04L190.26,88.56L253.68,88.84L285.39,89.96L412.23,91.99L443.94,91.43L475.65,91.42L507.35,93.82L539.06,93.55L570.77,91.97L634.19,96.07L665.9,99.3L697.61,103.49L729.32,104.34L761.03,109.13L792.74,112.51L824.45,119.43L856.16,139.15L887.87,162.7L919.58,180.22L951.29,196.58L983,99.53" style="vector-effect: none; fill: none; stroke: rgb(67, 67, 72); stroke-opacity: 1; stroke-width: 2px; opacity: 1;"/></g><g class="points"/><g class="text"/></g><g class="trace scatter trace0429a8" style="stroke-miterlimit: 2; opacity: 1;"><g class="fills"/><g class="errorbars"/><g class="lines"><path class="js-line" d="M0,88.14L31.71,86.83L63.42,86.47L95.13,88.27L126.84,88.83L158.55,88.39L190.26,90.18L221.97,89.75L253.68,90.35L317.1,92.1L348.81,91.7L380.52,93.12L412.23,93.54L475.65,92.6L507.35,95.55L570.77,94.28L602.48,95.87L634.19,97.83L665.9,100.84L697.61,105.09L729.32,105.5L792.74,113.82L824.45,119.89L856.16,230.98L887.87,247.2L919.58,279.3L951.29,279.08L983,79.31" style="vector-effect: none; fill: none; stroke: rgb(144, 237, 125); stroke-opacity: 1; stroke-width: 2px; opacity: 1;"/></g><g class="points"/><g class="text"/></g><g class="trace scatter tracef7d4d5" style="stroke-miterlimit: 2; opacity: 1;"><g class="fills"/><g class="errorbars"/><g class="lines"><path class="js-line" d="M0,79.55L31.71,78.7L63.42,76.98L95.13,80.18L126.84,80.28L158.55,79.72L190.26,81.24L253.68,80.68L285.39,82.04L317.1,83.72L348.81,83.09L380.52,82.79L412.23,85L443.94,83.6L475.65,84.4L507.35,86.16L539.06,86.46L570.77,83.29L602.48,87.49L634.19,89.15L665.9,91.78L729.32,97.14L761.03,101.6L792.74,105.09L824.45,110.34L887.87,158.48L919.58,176.67L951.29,192.87L983,92.78" style="vector-effect: none; fill: none; stroke: rgb(247, 163, 92); stroke-opacity: 1; stroke-width: 2px; opacity: 1;"/></g><g class="points"/><g class="text"/></g><g class="trace scatter trace618faf" style="stroke-miterlimit: 2; opacity: 1;"><g class="fills"/><g class="errorbars"/><g class="lines"><path class="js-line" d="M0,83.33L31.71,82.28L63.42,83.08L126.84,84.61L158.55,84.24L190.26,85.55L221.97,85.48L317.1,87.74L348.81,86.87L380.52,89.57L412.23,88.8L443.94,88.99L475.65,87.14L507.35,90.78L539.06,90.49L570.77,89.64L602.48,91.32L634.19,93.07L665.9,96.04L697.61,100.5L729.32,100.37L761.03,103.65L792.74,108.26L824.45,112.95L856.16,223.68L887.87,243.99L919.58,275.78L951.29,276.38L983,75.13" style="vector-effect: none; fill: none; stroke: rgb(128, 133, 233); stroke-opacity: 1; stroke-width: 2px; opacity: 1;"/></g><g class="points"/><g class="text"/></g><g class="trace scatter trace659fa6" style="stroke-miterlimit: 2; opacity: 1;"><g class="fills"/><g class="errorbars"/><g class="lines"><path class="js-line" d="M0,77.34L63.42,77.06L95.13,77.8L126.84,78.87L158.55,78.72L221.97,79.71L253.68,80.05L317.1,82.08L348.81,81.19L380.52,83.28L412.23,83.13L475.65,82.17L507.35,84.9L539.06,84.63L570.77,82.49L602.48,85.67L634.19,86.93L665.9,89.79L697.61,93.57L729.32,94.4L761.03,98.09L792.74,102.74L824.45,105.8L856.16,218.11L887.87,236.58L919.58,265.68L951.29,266.81L983,69.84" style="vector-effect: none; fill: none; stroke: rgb(241, 92, 128); stroke-opacity: 1; stroke-width: 2px; opacity: 1;"/></g><g class="points"/><g class="text"/></g><g class="trace scatter tracec2d620" style="stroke-miterlimit: 2; opacity: 1;"><g class="fills"/><g class="errorbars"/><g class="lines"><path class="js-line" d="M0,74.03L31.71,73.03L63.42,73.03L126.84,74.9L158.55,74.58L190.26,76.13L221.97,75.98L285.39,77.27L317.1,78.21L348.81,77.76L380.52,79.26L412.23,79.48L443.94,78.94L475.65,79.06L507.35,81.53L570.77,80.44L602.48,81.97L634.19,83.98L665.9,86.79L697.61,90.6L729.32,92.45L761.03,96.24L792.74,101.18L824.45,106.45L856.16,126.35L887.87,150.69L919.58,168.9L951.29,185.16L983,87.47" style="vector-effect: none; fill: none; stroke: rgb(228, 211, 84); stroke-opacity: 1; stroke-width: 2px; opacity: 1;"/></g><g class="points"/><g class="text"/></g><g class="trace scatter tracefb214a" style="stroke-miterlimit: 2; opacity: 1;"><g class="fills"/><g class="errorbars"/><g class="lines"><path class="js-line" d="M0,96.68L63.42,94.96L95.13,97.09L126.84,97.45L158.55,96.96L190.26,98.9L221.97,98.38L412.23,102.12L443.94,101.46L475.65,101.81L507.35,103.92L539.06,103.68L570.77,101.82L602.48,104.68L634.19,106.58L697.61,113.34L729.32,114.73L761.03,119.4L792.74,122.56L824.45,128.94L856.16,151.28L887.87,174.49L919.58,192.75L951.29,208.48L983,109.69" style="vector-effect: none; fill: none; stroke: rgb(43, 144, 143); stroke-opacity: 1; stroke-width: 2px; opacity: 1;"/></g><g class="points"/><g class="text"/></g><g class="trace scatter tracef30cb3" style="stroke-miterlimit: 2; opacity: 1;"><g class="fills"/><g class="errorbars"/><g class="lines"><path class="js-line" d="M0,82.55L63.42,80.27L95.13,82.93L158.55,82.79L190.26,84.56L253.68,84.39L285.39,85.16L317.1,86.44L348.81,86.57L412.23,87.75L443.94,86.76L475.65,87.17L507.35,89.63L539.06,89.56L570.77,87.91L665.9,95.25L697.61,100.01L729.32,101.39L761.03,105.96L824.45,114.54L856.16,222.22L887.87,245.51L919.58,276.04L951.29,273.07L983,73.61" style="vector-effect: none; fill: none; stroke: rgb(244, 91, 91); stroke-opacity: 1; stroke-width: 2px; opacity: 1;"/></g><g class="points"/><g class="text"/></g><g class="trace scatter trace2179cd" style="stroke-miterlimit: 2; opacity: 1;"><g class="fills"/><g class="errorbars"/><g class="lines"><path class="js-line" d="M0,105.53L31.71,104.3L63.42,103.93L95.13,105.73L126.84,106.31L158.55,105.96L190.26,108.04L221.97,107.23L253.68,107.86L285.39,108.32L317.1,109.7L348.81,109.72L380.52,110.5L412.23,110.9L443.94,110.15L475.65,110.4L507.35,113.18L539.06,112.76L570.77,110.24L602.48,113.82L634.19,115.64L665.9,118.79L697.61,123.52L729.32,125.12L761.03,129.69L792.74,134.35L824.45,137.54L856.16,158.56L887.87,182.32L919.58,200.28L951.29,216.15L983,118.38" style="vector-effect: none; fill: none; stroke: rgb(145, 232, 225); stroke-opacity: 1; stroke-width: 2px; opacity: 1;"/></g><g class="points"/><g class="text"/></g><g class="trace scatter tracedf006b" style="stroke-miterlimit: 2; opacity: 1;"><g class="fills"/><g class="errorbars"/><g class="lines"><path class="js-line" d="M0,77.14L63.42,75.88L95.13,77.6L126.84,78.17L158.55,77.77L190.26,79.43L221.97,79.07L253.68,79.22L285.39,80.15L317.1,81.36L348.81,81.1L412.23,82.73L443.94,81.76L475.65,82.36L507.35,84.57L570.77,83.86L602.48,85.07L634.19,86.57L665.9,89.86L729.32,95.45L761.03,99.7L792.74,103.93L824.45,109.84L856.16,129.08L887.87,153.6L919.58,171.8L951.29,187.46L983,90.24" style="vector-effect: none; fill: none; stroke: rgb(124, 181, 236); stroke-opacity: 1; stroke-width: 2px; opacity: 1;"/></g><g class="points"/><g class="text"/></g><g class="trace scatter tracea42ca6" style="stroke-miterlimit: 2; opacity: 1;"><g class="fills"/><g class="errorbars"/><g class="lines"><path class="js-line" d="M0,76.16L31.71,75.99L63.42,73.19L95.13,77.44L126.84,77.14L158.55,76.61L190.26,77.92L221.97,78.33L253.68,76.8L317.1,80.53L348.81,80.49L380.52,78.61L412.23,81.96L443.94,79.85L475.65,81.01L507.35,82.75L539.06,82.86L570.77,82.7L602.48,84.37L665.9,88.19L697.61,91.03L729.32,93.93L761.03,98.63L792.74,101.56L824.45,108.71L856.16,220.27L887.87,237.95L919.58,270.88L951.29,272.34L983,68.65" style="vector-effect: none; fill: none; stroke: rgb(67, 67, 72); stroke-opacity: 1; stroke-width: 2px; opacity: 1;"/></g><g class="points"/><g class="text"/></g><g class="trace scatter traceda0ca4" style="stroke-miterlimit: 2; opacity: 1;"><g class="fills"/><g class="errorbars"/><g class="lines"><path class="js-line" d="M0,86.35L31.71,84.83L63.42,84.38L95.13,86.53L126.84,86.83L158.55,86.62L190.26,88.29L253.68,88.45L285.39,89.45L317.1,90.27L348.81,89.65L412.23,91.77L443.94,90.9L475.65,91.29L507.35,93.55L539.06,93.03L570.77,90.09L602.48,94.1L634.19,95.81L665.9,99.23L697.61,103.83L729.32,104.59L761.03,110.03L792.74,112.98L824.45,118.23L856.16,138.18L887.87,161.58L951.29,196.4L983,98.86" style="vector-effect: none; fill: none; stroke: rgb(144, 237, 125); stroke-opacity: 1; stroke-width: 2px; opacity: 1;"/></g><g class="points"/><g class="text"/></g><g class="trace scatter trace13dc5c" style="stroke-miterlimit: 2; opacity: 1;"><g class="fills"/><g class="errorbars"/><g class="lines"><path class="js-line" d="M0,77.2L31.71,75.66L63.42,75.89L126.84,78.05L158.55,77.38L190.26,79.53L221.97,78.8L317.1,81.23L348.81,81.19L380.52,82.53L412.23,82.28L475.65,81.82L507.35,84.75L539.06,84.22L570.77,81.88L602.48,84.95L634.19,86.98L665.9,90.34L697.61,94.8L729.32,95.75L761.03,100.47L792.74,104.04L824.45,111.04L856.16,130.65L887.87,154.41L919.58,172.5L951.29,188.13L983,89.97" style="vector-effect: none; fill: none; stroke: rgb(247, 163, 92); stroke-opacity: 1; stroke-width: 2px; opacity: 1;"/></g><g class="points"/><g class="text"/></g><g class="trace scatter trace8a2b8c" style="stroke-miterlimit: 2; opacity: 1;"><g class="fills"/><g class="errorbars"/><g class="lines"><path class="js-line" d="M0,88.78L63.42,86.45L95.13,89.13L126.84,89.57L158.55,89.04L190.26,90.42L221.97,90.61L253.68,90.03L285.39,91.89L317.1,92.6L348.81,92.39L380.52,92.48L412.23,94.23L443.94,92.84L475.65,93.48L507.35,95.28L539.06,95.31L570.77,93.83L602.48,96.42L665.9,100.97L697.61,104.48L729.32,105.71L761.03,110.7L792.74,113.31L824.45,118.05L856.16,145.62L887.87,170.11L951.29,204.94L983,101.93" style="vector-effect: none; fill: none; stroke: rgb(128, 133, 233); stroke-opacity: 1; stroke-width: 2px; opacity: 1;"/></g><g class="points"/><g class="text"/></g><g class="trace scatter tracea2d834" style="stroke-miterlimit: 2; opacity: 1;"><g class="fills"/><g class="errorbars"/><g class="lines"><path class="js-line" d="M0,78.74L31.71,77.45L63.42,77.14L95.13,79.04L126.84,79.46L158.55,79.12L190.26,81.02L221.97,80.51L253.68,81.14L348.81,82.75L380.52,83.7L412.23,84.03L443.94,83.5L475.65,83.39L507.35,86.24L539.06,85.74L570.77,83.28L602.48,86.65L634.19,88.72L665.9,91.75L697.61,96.52L729.32,97.72L761.03,102.25L824.45,111.32L856.16,221.62L887.87,240.22L919.58,271.21L951.29,271.36L983,69.75" style="vector-effect: none; fill: none; stroke: rgb(241, 92, 128); stroke-opacity: 1; stroke-width: 2px; opacity: 1;"/></g><g class="points"/><g class="text"/></g><g class="trace scatter tracebe4013" style="stroke-miterlimit: 2; opacity: 1;"><g class="fills"/><g class="errorbars"/><g class="lines"><path class="js-line" d="M0,87.7L31.71,86.43L63.42,86.12L95.13,87.77L126.84,88.57L158.55,88.15L190.26,89.77L221.97,89.51L253.68,90.13L317.1,91.65L348.81,91.49L380.52,92.79L412.23,93.14L475.65,91.97L507.35,95.16L539.06,94.79L570.77,92.81L602.48,95.56L634.19,97.23L665.9,100.61L697.61,104.99L729.32,105.67L761.03,109.87L792.74,114.38L824.45,121.02L856.16,231.01L887.87,247.66L919.58,280.46L951.29,280.85L983,78.68" style="vector-effect: none; fill: none; stroke: rgb(228, 211, 84); stroke-opacity: 1; stroke-width: 2px; opacity: 1;"/></g><g class="points"/><g class="text"/></g><g class="trace scatter tracedda89d" style="stroke-miterlimit: 2; opacity: 1;"><g class="fills"/><g class="errorbars"/><g class="lines"><path class="js-line" d="M0,27.34L31.71,25.76L63.42,26.17L95.13,27.45L126.84,27.93L158.55,27.71L190.26,29.32L221.97,28.92L253.68,29.61L317.1,31.12L348.81,31.18L380.52,32.6L412.23,32.38L443.94,32.03L475.65,32.78L507.35,34.53L539.06,33.93L570.77,31.24L602.48,34.85L634.19,36.55L665.9,39.9L697.61,44.96L729.32,45.27L761.03,50.43L792.74,54.15L824.45,60.45L856.16,168.4L887.87,192.67L919.58,220.02L951.29,222.04L983,18.15" style="vector-effect: none; fill: none; stroke: rgb(43, 144, 143); stroke-opacity: 1; stroke-width: 2px; opacity: 1;"/></g><g class="points"/><g class="text"/></g><g class="trace scatter trace06616b" style="stroke-miterlimit: 2; opacity: 1;"><g class="fills"/><g class="errorbars"/><g class="lines"><path class="js-line" d="M0,84.09L31.71,82.33L63.42,82.67L126.84,84.61L158.55,84.39L190.26,86L221.97,85.58L317.1,87.93L348.81,87.6L380.52,89.23L412.23,89.31L475.65,89.16L507.35,91.33L570.77,89.98L602.48,91.51L634.19,93.26L665.9,96.87L697.61,101.41L729.32,101.67L761.03,106.66L792.74,110.44L824.45,114.95L856.16,136.37L887.87,159.69L919.58,177.62L951.29,193.66L983,96.77" style="vector-effect: none; fill: none; stroke: rgb(244, 91, 91); stroke-opacity: 1; stroke-width: 2px; opacity: 1;"/></g><g class="points"/><g class="text"/></g><g class="trace scatter tracef9cc88" style="stroke-miterlimit: 2; opacity: 1;"><g class="fills"/><g class="errorbars"/><g class="lines"><path class="js-line" d="M0,85.63L63.42,83.81L95.13,86.27L126.84,86.86L158.55,86.13L190.26,87.48L221.97,87.84L253.68,87.36L285.39,88.94L317.1,90.11L348.81,88.9L412.23,91.28L443.94,90.47L475.65,89.7L507.35,92.48L539.06,92.62L570.77,91.45L665.9,97.55L697.61,101.3L729.32,101.91L761.03,105.56L792.74,109.6L824.45,114.92L856.16,225.43L887.87,244.39L919.58,278.38L951.29,278.21L983,77.75" style="vector-effect: none; fill: none; stroke: rgb(145, 232, 225); stroke-opacity: 1; stroke-width: 2px; opacity: 1;"/></g><g class="points"/><g class="text"/></g><g class="trace scatter tracecf5f80" style="stroke-miterlimit: 2; opacity: 1;"><g class="fills"/><g class="errorbars"/><g class="lines"><path class="js-line" d="M0,83.93L63.42,82.46L95.13,84.38L126.84,84.98L158.55,84.48L190.26,86.15L221.97,86.01L285.39,86.91L317.1,88.05L348.81,87.82L380.52,88.85L412.23,89.61L443.94,88.75L475.65,88.67L507.35,91.28L539.06,91.21L570.77,88.87L602.48,91.91L634.19,93.55L665.9,96.78L697.61,101.33L729.32,102.55L761.03,106.85L792.74,110.65L824.45,117L856.16,136.69L887.87,160.19L919.58,178.14L951.29,193.85L983,97.21" style="vector-effect: none; fill: none; stroke: rgb(124, 181, 236); stroke-opacity: 1; stroke-width: 2px; opacity: 1;"/></g><g class="points"/><g class="text"/></g><g class="trace scatter trace0775f0" style="stroke-miterlimit: 2; opacity: 1;"><g class="fills"/><g class="errorbars"/><g class="lines"><path class="js-line" d="M0,77.78L63.42,75.8L95.13,78.08L126.84,78.57L158.55,78.11L190.26,79.88L221.97,79.56L285.39,80.49L317.1,81.84L348.81,81.68L380.52,82.36L412.23,82.97L443.94,82.24L475.65,82.17L507.35,84.9L570.77,84.48L602.48,85.66L665.9,90.46L697.61,94.99L729.32,96.09L761.03,100.71L792.74,104.44L824.45,111.66L856.16,220.97L887.87,238.07L919.58,269.97L951.29,271.23L983,68.88" style="vector-effect: none; fill: none; stroke: rgb(67, 67, 72); stroke-opacity: 1; stroke-width: 2px; opacity: 1;"/></g><g class="points"/><g class="text"/></g><g class="trace scatter trace842e5b" style="stroke-miterlimit: 2; opacity: 1;"><g class="fills"/><g class="errorbars"/><g class="lines"><path class="js-line" d="M0,79.68L63.42,78.3L95.13,80.21L221.97,81.56L253.68,81.57L317.1,83.87L348.81,83.51L412.23,85.4L443.94,84.45L475.65,83.98L507.35,86.95L539.06,86.64L570.77,87.15L602.48,87.71L634.19,89.82L729.32,97.45L761.03,101.33L792.74,105.17L824.45,111.58L856.16,133.09L887.87,157.34L919.58,175.64L951.29,191.93L983,93.1" style="vector-effect: none; fill: none; stroke: rgb(144, 237, 125); stroke-opacity: 1; stroke-width: 2px; opacity: 1;"/></g><g class="points"/><g class="text"/></g><g class="trace scatter trace83e2a3" style="stroke-miterlimit: 2; opacity: 1;"><g class="fills"/><g class="errorbars"/><g class="lines"><path class="js-line" d="M0,144.55L63.42,142.68L95.13,144.81L126.84,145.5L158.55,145.06L190.26,146.34L221.97,146.35L253.68,146.3L285.39,147.77L317.1,148.7L348.81,148.4L380.52,148.73L412.23,150.39L443.94,148.95L475.65,149.01L507.35,151.21L539.06,151.05L570.77,150.49L602.48,152.29L665.9,156.98L697.61,160.24L729.32,161.97L761.03,165.88L792.74,170.35L824.45,173.85L887.87,221.54L919.58,239.84L951.29,257.5L983,157.63" style="vector-effect: none; fill: none; stroke: rgb(247, 163, 92); stroke-opacity: 1; stroke-width: 2px; opacity: 1;"/></g><g class="points"/><g class="text"/></g><g class="trace scatter trace66f030" style="stroke-miterlimit: 2; opacity: 1;"><g class="fills"/><g class="errorbars"/><g class="lines"><path class="js-line" d="M0,131.59L63.42,130.51L95.13,131.94L126.84,132.73L158.55,132.52L190.26,133.92L221.97,133.63L253.68,133.88L285.39,135.21L317.1,136.24L348.81,135.23L380.52,136.87L412.23,137.43L475.65,135.69L507.35,139.17L570.77,138.25L602.48,139.95L634.19,141.64L665.9,144.21L697.61,148.89L729.32,149.69L761.03,152.3L792.74,158.25L824.45,161.88L856.16,272.69L887.87,295.25L919.58,323.72L951.29,324.48L983,123.22" style="vector-effect: none; fill: none; stroke: rgb(128, 133, 233); stroke-opacity: 1; stroke-width: 2px; opacity: 1;"/></g><g class="points"/><g class="text"/></g><g class="trace scatter traceb0aa77" style="stroke-miterlimit: 2; opacity: 1;"><g class="fills"/><g class="errorbars"/><g class="lines"><path class="js-line" d="M0,86.21L63.42,84.57L95.13,86.6L126.84,87.21L158.55,86.7L190.26,88.12L221.97,88.12L253.68,88.04L285.39,89.38L317.1,90.41L348.81,90.33L380.52,90.69L412.23,91.81L443.94,90.74L475.65,90.57L507.35,93.39L539.06,93.17L570.77,92.2L602.48,94.14L665.9,98.49L697.61,102.49L729.32,104.11L761.03,108.53L792.74,112.07L824.45,118.8L856.16,228.22L887.87,248.34L919.58,280.02L951.29,277.01L983,77.98" style="vector-effect: none; fill: none; stroke: rgb(241, 92, 128); stroke-opacity: 1; stroke-width: 2px; opacity: 1;"/></g><g class="points"/><g class="text"/></g><g class="trace scatter traced919fe" style="stroke-miterlimit: 2; opacity: 1;"><g class="fills"/><g class="errorbars"/><g class="lines"><path class="js-line" d="M0,136.98L63.42,135.9L95.13,137.15L190.26,139.26L221.97,139.03L253.68,139L285.39,140.71L317.1,141.42L348.81,140.7L412.23,142.76L443.94,142.08L475.65,141.48L507.35,144.53L539.06,144.25L570.77,143.15L665.9,149.91L697.61,153.58L729.32,155.22L761.03,158.34L792.74,163.68L824.45,166.13L856.16,187.49L887.87,212.09L951.29,247.43L983,150.68" style="vector-effect: none; fill: none; stroke: rgb(228, 211, 84); stroke-opacity: 1; stroke-width: 2px; opacity: 1;"/></g><g class="points"/><g class="text"/></g><g class="trace scatter trace49e307" style="stroke-miterlimit: 2; opacity: 1;"><g class="fills"/><g class="errorbars"/><g class="lines"><path class="js-line" d="M0,63.63L31.71,62.16L63.42,62.54L95.13,63.85L126.84,64.4L158.55,64.06L190.26,65.54L253.68,65.89L285.39,66.97L317.1,67.57L348.81,67.4L380.52,68.92L412.23,68.95L443.94,68.47L475.65,69.06L507.35,71.07L539.06,70.43L602.48,71.09L634.19,72.5L665.9,76.27L697.61,80.92L729.32,81.34L761.03,86.38L792.74,89.73L824.45,94.98L856.16,203.66L887.87,225.29L919.58,257.87L951.29,254.6L983,54.63" style="vector-effect: none; fill: none; stroke: rgb(43, 144, 143); stroke-opacity: 1; stroke-width: 2px; opacity: 1;"/></g><g class="points"/><g class="text"/></g><g class="trace scatter trace97796c" style="stroke-miterlimit: 2; opacity: 1;"><g class="fills"/><g class="errorbars"/><g class="lines"><path class="js-line" d="M0,94.89L31.71,93.33L63.42,93.5L95.13,94.9L126.84,95.52L158.55,95.31L190.26,97.1L221.97,96.56L253.68,97.41L317.1,98.8L348.81,98.88L380.52,100.21L412.23,100.17L475.65,100.09L507.35,102.41L570.77,101.48L602.48,102.42L634.19,104.5L665.9,107.84L697.61,112.65L729.32,112.62L761.03,117.78L792.74,121.41L824.45,127.24L856.16,235.52L887.87,254.51L919.58,285.95L951.29,284.27L983,85.4" style="vector-effect: none; fill: none; stroke: rgb(244, 91, 91); stroke-opacity: 1; stroke-width: 2px; opacity: 1;"/></g><g class="points"/><g class="text"/></g><g class="trace scatter tracefa1526" style="stroke-miterlimit: 2; opacity: 1;"><g class="fills"/><g class="errorbars"/><g class="lines"><path class="js-line" d="M0,79.08L63.42,76.97L95.13,79.2L126.84,79.67L158.55,79L190.26,81.26L221.97,80.51L285.39,81.66L317.1,82.89L412.23,84.28L443.94,83.49L475.65,84.46L507.35,86.25L539.06,85.86L570.77,83.4L602.48,86.88L634.19,88.95L665.9,92.07L697.61,96.04L729.32,97.81L761.03,102.8L792.74,106.11L824.45,112.72L856.16,133.74L887.87,157.05L919.58,174.94L951.29,190.69L983,91.6" style="vector-effect: none; fill: none; stroke: rgb(145, 232, 225); stroke-opacity: 1; stroke-width: 2px; opacity: 1;"/></g><g class="points"/><g class="text"/></g><g class="trace scatter trace696445" style="stroke-miterlimit: 2; opacity: 1;"><g class="fills"/><g class="errorbars"/><g class="lines"><path class="js-line" d="M0,91.2L31.71,89.71L63.42,89.23L95.13,91.38L126.84,91.62L158.55,91.23L190.26,92.93L253.68,92.78L285.39,94.09L317.1,95.01L348.81,94.6L412.23,96.32L443.94,95.44L475.65,95.88L507.35,97.96L539.06,97.71L570.77,95.95L602.48,98.79L634.19,100.3L665.9,103.51L697.61,107.5L729.32,108.62L761.03,113.21L792.74,116.8L824.45,121.93L887.87,168.07L919.58,186.06L951.29,202.19L983,103.83" style="vector-effect: none; fill: none; stroke: rgb(124, 181, 236); stroke-opacity: 1; stroke-width: 2px; opacity: 1;"/></g><g class="points"/><g class="text"/></g><g class="trace scatter tracec17432" style="stroke-miterlimit: 2; opacity: 1;"><g class="fills"/><g class="errorbars"/><g class="lines"><path class="js-line" d="M0,85.42L63.42,83.49L95.13,85.78L126.84,86.33L158.55,85.74L190.26,87.39L221.97,87.28L253.68,87.52L285.39,88.62L317.1,89.5L348.81,89.35L412.23,91.14L443.94,89.92L475.65,90.46L507.35,92.35L539.06,92.33L570.77,89.73L602.48,93.11L634.19,94.99L665.9,98.17L697.61,102.38L729.32,103.4L761.03,108.18L792.74,112.21L824.45,117.96L856.16,137.61L887.87,160.82L919.58,178.74L951.29,195.5L983,98.34" style="vector-effect: none; fill: none; stroke: rgb(67, 67, 72); stroke-opacity: 1; stroke-width: 2px; opacity: 1;"/></g><g class="points"/><g class="text"/></g><g class="trace scatter trace593c16" style="stroke-miterlimit: 2; opacity: 1;"><g class="fills"/><g class="errorbars"/><g class="lines"><path class="js-line" d="M0,80.44L63.42,78.67L95.13,81.15L158.55,81.14L190.26,82.51L253.68,82.11L285.39,83.4L317.1,84.74L348.81,84.39L380.52,84.3L412.23,86.13L443.94,84.96L475.65,85.26L507.35,87.46L539.06,87.56L570.77,85.79L602.48,88.46L634.19,89.78L665.9,92.95L697.61,95.9L729.32,98.01L792.74,106.07L824.45,112.43L856.16,132.42L887.87,156.68L919.58,175.09L951.29,191.74L983,94.03" style="vector-effect: none; fill: none; stroke: rgb(144, 237, 125); stroke-opacity: 1; stroke-width: 2px; opacity: 1;"/></g><g class="points"/><g class="text"/></g><g class="trace scatter trace3d9fe7" style="stroke-miterlimit: 2; opacity: 1;"><g class="fills"/><g class="errorbars"/><g class="lines"><path class="js-line" d="M0,74.83L31.71,73.06L63.42,73.54L126.84,75.22L158.55,74.7L190.26,76.68L221.97,76.38L317.1,78.38L348.81,78.56L380.52,80.06L412.23,79.71L475.65,80.13L507.35,82.1L570.77,80.85L602.48,82.32L634.19,84.26L665.9,87.69L697.61,92.63L729.32,92.93L761.03,98.25L792.74,101.44L824.45,108.44L856.16,127.66L887.87,150.76L919.58,167.87L951.29,184.68L983,87.57" style="vector-effect: none; fill: none; stroke: rgb(247, 163, 92); stroke-opacity: 1; stroke-width: 2px; opacity: 1;"/></g><g class="points"/><g class="text"/></g><g class="trace scatter traceca1b8f" style="stroke-miterlimit: 2; opacity: 1;"><g class="fills"/><g class="errorbars"/><g class="lines"><path class="js-line" d="M0,88.77L63.42,87.6L95.13,89.47L158.55,89.8L190.26,91.12L253.68,90.73L285.39,92.05L317.1,93.24L348.81,92.85L412.23,94.66L443.94,93.7L475.65,93.87L507.35,96.35L570.77,95.35L602.48,97.11L634.19,98.88L665.9,101.54L697.61,104.8L729.32,107.29L792.74,115.18L824.45,121.28L856.16,141.79L887.87,166.39L919.58,184.74L951.29,201.42L983,102.52" style="vector-effect: none; fill: none; stroke: rgb(128, 133, 233); stroke-opacity: 1; stroke-width: 2px; opacity: 1;"/></g><g class="points"/><g class="text"/></g><g class="trace scatter tracee6947b" style="stroke-miterlimit: 2; opacity: 1;"><g class="fills"/><g class="errorbars"/><g class="lines"><path class="js-line" d="M0,110.9L63.42,109.18L95.13,111.43L126.84,111.84L158.55,111.39L190.26,113.2L221.97,112.68L253.68,112.89L285.39,113.96L317.1,115.04L348.81,114.95L412.23,116.48L443.94,115.42L475.65,116.07L507.35,118.47L539.06,117.82L570.77,119.01L602.48,119.21L634.19,121.27L665.9,123.8L697.61,128.11L729.32,130.22L761.03,134.95L792.74,138.76L824.45,145.47L856.16,252.45L887.87,273.92L919.58,305.76L951.29,302.61L983,102.01" style="vector-effect: none; fill: none; stroke: rgb(241, 92, 128); stroke-opacity: 1; stroke-width: 2px; opacity: 1;"/></g><g class="points"/><g class="text"/></g><g class="trace scatter trace7ebd68" style="stroke-miterlimit: 2; opacity: 1;"><g class="fills"/><g class="errorbars"/><g class="lines"><path class="js-line" d="M0,82.25L63.42,80.19L95.13,82.83L126.84,83.32L158.55,82.51L190.26,84.23L221.97,84.05L253.68,83.73L285.39,85.15L317.1,86.55L348.81,86.5L380.52,86.05L412.23,87.91L443.94,86.64L475.65,87.22L507.35,89.22L539.06,89.11L570.77,88.53L602.48,90.13L634.19,92.08L665.9,94.95L697.61,98.14L729.32,100.03L761.03,105.03L792.74,108.02L824.45,115.32L856.16,134.33L887.87,158.64L919.58,176.96L951.29,193.68L983,95.5" style="vector-effect: none; fill: none; stroke: rgb(228, 211, 84); stroke-opacity: 1; stroke-width: 2px; opacity: 1;"/></g><g class="points"/><g class="text"/></g><g class="trace scatter trace842ce0" style="stroke-miterlimit: 2; opacity: 1;"><g class="fills"/><g class="errorbars"/><g class="lines"><path class="js-line" d="M0,80.23L63.42,78.47L95.13,80.68L158.55,80.62L190.26,82.44L253.68,82.08L285.39,83.26L348.81,84.28L380.52,84.7L412.23,85.72L443.94,84.7L475.65,85.7L507.35,87.51L539.06,86.91L570.77,87.27L602.48,87.96L634.19,89.73L665.9,92.92L697.61,96.98L729.32,98.71L761.03,103.87L824.45,110.9L856.16,132.62L887.87,156.23L919.58,173.92L951.29,191.37L983,93.26" style="vector-effect: none; fill: none; stroke: rgb(43, 144, 143); stroke-opacity: 1; stroke-width: 2px; opacity: 1;"/></g><g class="points"/><g class="text"/></g><g class="trace scatter tracee74370" style="stroke-miterlimit: 2; opacity: 1;"><g class="fills"/><g class="errorbars"/><g class="lines"><path class="js-line" d="M0,28.17L31.71,26.53L63.42,26.79L95.13,28.25L126.84,28.73L158.55,28.64L190.26,29.96L253.68,30.14L285.39,31.44L412.23,33.21L443.94,32.7L475.65,33.41L507.35,35.19L570.77,33.99L602.48,35.55L634.19,37.64L665.9,40.68L697.61,45.41L729.32,46.25L761.03,51.14L792.74,54.93L824.45,59.97L856.16,79.39L887.87,103.07L919.58,120.69L951.29,138.6L983,41.28" style="vector-effect: none; fill: none; stroke: rgb(244, 91, 91); stroke-opacity: 1; stroke-width: 2px; opacity: 1;"/></g><g class="points"/><g class="text"/></g><g class="trace scatter trace153f3e" style="stroke-miterlimit: 2; opacity: 1;"><g class="fills"/><g class="errorbars"/><g class="lines"><path class="js-line" d="M0,86.41L63.42,85.08L95.13,87.12L126.84,87.68L158.55,87.35L190.26,88.6L221.97,88.62L253.68,88.43L285.39,89.49L317.1,90.45L348.81,89.65L412.23,92.2L443.94,91.48L475.65,90.77L507.35,93.66L539.06,93.88L570.77,92.37L665.9,98.95L697.61,102.8L761.03,107.47L792.74,112.8L824.45,114.49L856.16,231.33L887.87,248.77L919.58,281.2L951.29,284.56L983,78.51" style="vector-effect: none; fill: none; stroke: rgb(145, 232, 225); stroke-opacity: 1; stroke-width: 2px; opacity: 1;"/></g><g class="points"/><g class="text"/></g><g class="trace scatter trace0c6589" style="stroke-miterlimit: 2; opacity: 1;"><g class="fills"/><g class="errorbars"/><g class="lines"><path class="js-line" d="M0,134.58L63.42,134L95.13,135.54L190.26,137.74L221.97,136.82L253.68,137.29L285.39,138.74L317.1,139.7L348.81,138.79L412.23,141.24L443.94,140.27L475.65,139.54L507.35,142.93L539.06,142.34L570.77,143.03L602.48,143.58L634.19,145.62L697.61,151.07L729.32,153.94L761.03,156.39L792.74,162.74L824.45,165.43L856.16,187.56L887.87,213.17L919.58,231.56L951.29,248.7L983,148.3" style="vector-effect: none; fill: none; stroke: rgb(124, 181, 236); stroke-opacity: 1; stroke-width: 2px; opacity: 1;"/></g><g class="points"/><g class="text"/></g><g class="trace scatter trace629e78" style="stroke-miterlimit: 2; opacity: 1;"><g class="fills"/><g class="errorbars"/><g class="lines"><path class="js-line" d="M0,84.91L31.71,83.44L63.42,83.53L95.13,84.99L126.84,85.48L158.55,85.13L190.26,87.07L221.97,86.52L253.68,87.12L380.52,90.08L412.23,89.99L475.65,89.84L507.35,92.32L570.77,91.57L602.48,92.81L634.19,94.61L665.9,97.83L697.61,102.33L729.32,103.27L761.03,108.48L792.74,112.26L824.45,118.65L856.16,138.83L887.87,162.17L919.58,180.11L951.29,195.57L983,97.6" style="vector-effect: none; fill: none; stroke: rgb(67, 67, 72); stroke-opacity: 1; stroke-width: 2px; opacity: 1;"/></g><g class="points"/><g class="text"/></g><g class="trace scatter trace1337cf" style="stroke-miterlimit: 2; opacity: 1;"><g class="fills"/><g class="errorbars"/><g class="lines"><path class="js-line" d="M0,85.16L31.71,83.63L63.42,83.92L126.84,86.04L158.55,85.34L190.26,87.2L221.97,86.96L317.1,88.63L348.81,88.68L380.52,90.3L412.23,90.62L475.65,90.18L507.35,92.47L539.06,92.18L570.77,90.24L602.48,93.16L634.19,94.35L665.9,98.05L697.61,103.32L729.32,103.2L761.03,108.14L792.74,111.86L824.45,116.52L856.16,144.84L887.87,169.62L919.58,186.92L951.29,201.6L983,97.68" style="vector-effect: none; fill: none; stroke: rgb(144, 237, 125); stroke-opacity: 1; stroke-width: 2px; opacity: 1;"/></g><g class="points"/><g class="text"/></g><g class="trace scatter trace1d517d" style="stroke-miterlimit: 2; opacity: 1;"><g class="fills"/><g class="errorbars"/><g class="lines"><path class="js-line" d="M0,88.26L31.71,86.73L63.42,86.49L95.13,88.31L126.84,88.79L158.55,88.18L190.26,89.92L253.68,90.28L285.39,91.27L317.1,92.07L348.81,91.6L380.52,92.93L412.23,93.38L475.65,93.26L507.35,95.19L539.06,94.95L570.77,93.85L634.19,97.54L665.9,100.8L697.61,105.07L729.32,105.88L761.03,110.93L792.74,114.72L824.45,120.54L856.16,140.74L887.87,164.29L919.58,182.16L951.29,198.69L983,100.84" style="vector-effect: none; fill: none; stroke: rgb(247, 163, 92); stroke-opacity: 1; stroke-width: 2px; opacity: 1;"/></g><g class="points"/><g class="text"/></g><g class="trace scatter traceaa940f" style="stroke-miterlimit: 2; opacity: 1;"><g class="fills"/><g class="errorbars"/><g class="lines"><path class="js-line" d="M0,69.03L31.71,67.62L63.42,67.2L95.13,69.31L126.84,69.76L158.55,69.28L190.26,71.18L253.68,71.06L285.39,71.83L317.1,72.97L348.81,73.06L412.23,74.26L443.94,73.51L475.65,73.86L507.35,76.32L539.06,75.89L570.77,73.19L602.48,76.78L634.19,78.56L665.9,81.84L697.61,86.41L729.32,87.66L761.03,92.48L792.74,96.37L824.45,102.44L856.16,210.63L887.87,229.98L919.58,262.57L951.29,261.89L983,59.96" style="vector-effect: none; fill: none; stroke: rgb(128, 133, 233); stroke-opacity: 1; stroke-width: 2px; opacity: 1;"/></g><g class="points"/><g class="text"/></g><g class="trace scatter trace230157" style="stroke-miterlimit: 2; opacity: 1;"><g class="fills"/><g class="errorbars"/><g class="lines"><path class="js-line" d="M0,84.97L31.71,83.44L63.42,83.59L126.84,85.67L158.55,85.26L190.26,87.25L221.97,86.51L317.1,88.94L348.81,88.67L380.52,90.42L412.23,90.19L475.65,89.31L507.35,92.52L570.77,91.99L602.48,92.79L634.19,94.8L665.9,98.09L697.61,102.84L729.32,103.74L792.74,112.53L824.45,118.64L856.16,227.27L887.87,245.12L919.58,276.5L951.29,275L983,75.72" style="vector-effect: none; fill: none; stroke: rgb(241, 92, 128); stroke-opacity: 1; stroke-width: 2px; opacity: 1;"/></g><g class="points"/><g class="text"/></g><g class="trace scatter trace0e5f22" style="stroke-miterlimit: 2; opacity: 1;"><g class="fills"/><g class="errorbars"/><g class="lines"><path class="js-line" d="M0,81.09L31.71,80.16L63.42,80.09L95.13,81.57L126.84,82.12L158.55,82.01L190.26,83.34L253.68,83.36L285.39,84.59L317.1,85.34L348.81,85.2L412.23,86.54L443.94,86.01L475.65,86.1L507.35,88.55L570.77,88.43L602.48,89.01L634.19,90.96L665.9,93.72L697.61,98.56L729.32,99.8L792.74,108.36L824.45,114.6L856.16,131.89L887.87,156.53L919.58,174.7L951.29,191.38L983,94.53" style="vector-effect: none; fill: none; stroke: rgb(228, 211, 84); stroke-opacity: 1; stroke-width: 2px; opacity: 1;"/></g><g class="points"/><g class="text"/></g><g class="trace scatter trace4abbed" style="stroke-miterlimit: 2; opacity: 1;"><g class="fills"/><g class="errorbars"/><g class="lines"><path class="js-line" d="M0,123.72L31.71,123.16L63.42,121.46L95.13,124.6L126.84,124.88L158.55,124.45L190.26,125.46L221.97,125.99L253.68,125.02L317.1,128.22L348.81,127.76L380.52,127.16L412.23,129.92L443.94,128.08L475.65,128.61L507.35,130.58L539.06,130.87L570.77,128.88L602.48,131.59L665.9,135.83L697.61,138.67L729.32,141.12L761.03,145.22L792.74,148.24L824.45,154.7L856.16,176.58L887.87,199.5L919.58,218.55L951.29,235.35L983,137.55" style="vector-effect: none; fill: none; stroke: rgb(43, 144, 143); stroke-opacity: 1; stroke-width: 2px; opacity: 1;"/></g><g class="points"/><g class="text"/></g><g class="trace scatter trace30b205" style="stroke-miterlimit: 2; opacity: 1;"><g class="fills"/><g class="errorbars"/><g class="lines"><path class="js-line" d="M0,153.03L31.71,151.92L63.42,151.98L126.84,154.43L158.55,153.87L190.26,155.48L221.97,154.93L253.68,155.51L285.39,157.02L317.1,157.48L348.81,156.8L380.52,158.54L412.23,158.81L475.65,157.51L507.35,160.6L570.77,160.05L602.48,160.87L665.9,165.96L697.61,170.03L729.32,171.31L761.03,174.31L792.74,179.63L824.45,186.11L856.16,206.17L887.87,230.09L919.58,249.48L951.29,265.46L983,166.46" style="vector-effect: none; fill: none; stroke: rgb(244, 91, 91); stroke-opacity: 1; stroke-width: 2px; opacity: 1;"/></g><g class="points"/><g class="text"/></g><g class="trace scatter traceebaf9e" style="stroke-miterlimit: 2; opacity: 1;"><g class="fills"/><g class="errorbars"/><g class="lines"><path class="js-line" d="M0,55.95L31.71,54.59L63.42,54.37L95.13,56.25L126.84,56.51L158.55,56.3L190.26,58.07L253.68,57.89L285.39,59.2L348.81,59.59L380.52,60.59L412.23,61.44L443.94,60.64L475.65,61.33L507.35,63.18L539.06,62.65L570.77,60.76L602.48,63.76L634.19,65.54L665.9,68.75L697.61,73.33L729.32,74.55L761.03,79.56L824.45,87.11L856.16,107.14L887.87,130.93L919.58,148.38L951.29,166.49L983,69.17" style="vector-effect: none; fill: none; stroke: rgb(145, 232, 225); stroke-opacity: 1; stroke-width: 2px; opacity: 1;"/></g><g class="points"/><g class="text"/></g><g class="trace scatter trace63436d" style="stroke-miterlimit: 2; opacity: 1;"><g class="fills"/><g class="errorbars"/><g class="lines"><path class="js-line" d="M0,81.07L63.42,78.66L95.13,81.36L126.84,81.67L158.55,80.58L190.26,83.06L221.97,82.44L285.39,83.32L317.1,84.57L380.52,85.2L412.23,86.06L443.94,85.47L475.65,86.5L507.35,88.05L539.06,88.12L570.77,85.55L602.48,89.03L634.19,90.7L665.9,94.19L697.61,98.87L729.32,99.99L761.03,105.13L792.74,108.73L824.45,115.16L856.16,224.31L887.87,242.02L919.58,273.76L951.29,274.4L983,71.99" style="vector-effect: none; fill: none; stroke: rgb(124, 181, 236); stroke-opacity: 1; stroke-width: 2px; opacity: 1;"/></g><g class="points"/><g class="text"/></g><g class="trace scatter trace07b2e5" style="stroke-miterlimit: 2; opacity: 1;"><g class="fills"/><g class="errorbars"/><g class="lines"><path class="js-line" d="M0,70.35L63.42,69.05L95.13,70.93L158.55,71.19L190.26,72.58L253.68,72.46L285.39,73.6L317.1,74.32L348.81,73.61L412.23,76.04L443.94,75.24L475.65,75.1L507.35,77.7L539.06,77.58L570.77,75.85L602.48,78.66L634.19,80.19L665.9,82.98L697.61,87.49L729.32,88.57L761.03,91.89L792.74,97.02L824.45,99.96L856.16,212.82L887.87,231.47L919.58,264.37L951.29,265.18L983,62.05" style="vector-effect: none; fill: none; stroke: rgb(67, 67, 72); stroke-opacity: 1; stroke-width: 2px; opacity: 1;"/></g><g class="points"/><g class="text"/></g><g class="trace scatter traceb1d855" style="stroke-miterlimit: 2; opacity: 1;"><g class="fills"/><g class="errorbars"/><g class="lines"><path class="js-line" d="M0,78.19L31.71,76.77L63.42,76.71L126.84,78.75L158.55,78.26L190.26,80.03L221.97,79.84L285.39,81.36L317.1,82.08L348.81,81.66L380.52,83.2L443.94,83.2L475.65,82.41L507.35,85.3L539.06,84.94L570.77,83.48L602.48,85.63L634.19,87.39L665.9,90.98L697.61,95.37L729.32,95.26L792.74,104.47L824.45,108.76L856.16,219.07L887.87,239.68L919.58,269.25L951.29,268.75L983,68.94" style="vector-effect: none; fill: none; stroke: rgb(144, 237, 125); stroke-opacity: 1; stroke-width: 2px; opacity: 1;"/></g><g class="points"/><g class="text"/></g><g class="trace scatter trace49644e" style="stroke-miterlimit: 2; opacity: 1;"><g class="fills"/><g class="errorbars"/><g class="lines"><path class="js-line" d="M0,90.95L31.71,89.58L63.42,89.26L95.13,91L126.84,91.57L158.55,91.45L190.26,92.86L253.68,92.94L285.39,93.89L317.1,94.77L348.81,94.47L412.23,96.33L443.94,95.64L475.65,96.06L507.35,97.97L570.77,97.4L602.48,98.57L634.19,100.59L665.9,103.7L697.61,108.13L729.32,109.6L792.74,118.17L824.45,123.67L856.16,143.32L887.87,166.71L919.58,185.14L951.29,200.74L983,103.82" style="vector-effect: none; fill: none; stroke: rgb(247, 163, 92); stroke-opacity: 1; stroke-width: 2px; opacity: 1;"/></g><g class="points"/><g class="text"/></g></g></g></g><g class="zerolinelayer-above"/><path class="xlines-above crisp" d="M0,0" style="fill: none;"/><path class="ylines-above crisp" d="M0,0" style="fill: none;"/><g class="overlines-above"/><g class="xaxislayer-above"><g class="xtick"><text text-anchor="start" x="0" y="429" transform="translate(60,0) rotate(29.999999999999996,0,424)" style="font-family: system-ui, -apple-system, 'Segoe UI', Roboto, 'Helvetica Neue', 'Noto Sans', 'Liberation Sans', Arial, sans-serif, 'Apple Color Emoji', 'Segoe UI Emoji', 'Segoe UI Symbol', 'Noto Color Emoji'; font-size: 10px; fill: rgb(80, 80, 80); fill-opacity: 1; white-space: pre;">1</text></g><g class="xtick"><text text-anchor="start" x="0" y="429" transform="translate(91.71000000000001,0) rotate(29.999999999999996,0,424)" style="font-family: system-ui, -apple-system, 'Segoe UI', Roboto, 'Helvetica Neue', 'Noto Sans', 'Liberation Sans', Arial, sans-serif, 'Apple Color Emoji', 'Segoe UI Emoji', 'Segoe UI Symbol', 'Noto Color Emoji'; font-size: 10px; fill: rgb(80, 80, 80); fill-opacity: 1; white-space: pre;">2</text></g><g class="xtick"><text text-anchor="start" x="0" y="429" transform="translate(123.42,0) rotate(29.999999999999996,0,424)" style="font-family: system-ui, -apple-system, 'Segoe UI', Roboto, 'Helvetica Neue', 'Noto Sans', 'Liberation Sans', Arial, sans-serif, 'Apple Color Emoji', 'Segoe UI Emoji', 'Segoe UI Symbol', 'Noto Color Emoji'; font-size: 10px; fill: rgb(80, 80, 80); fill-opacity: 1; white-space: pre;">3</text></g><g class="xtick"><text text-anchor="start" x="0" y="429" transform="translate(155.13,0) rotate(29.999999999999996,0,424)" style="font-family: system-ui, -apple-system, 'Segoe UI', Roboto, 'Helvetica Neue', 'Noto Sans', 'Liberation Sans', Arial, sans-serif, 'Apple Color Emoji', 'Segoe UI Emoji', 'Segoe UI Symbol', 'Noto Color Emoji'; font-size: 10px; fill: rgb(80, 80, 80); fill-opacity: 1; white-space: pre;">4</text></g><g class="xtick"><text text-anchor="start" x="0" y="429" transform="translate(186.84,0) rotate(29.999999999999996,0,424)" style="font-family: system-ui, -apple-system, 'Segoe UI', Roboto, 'Helvetica Neue', 'Noto Sans', 'Liberation Sans', Arial, sans-serif, 'Apple Color Emoji', 'Segoe UI Emoji', 'Segoe UI Symbol', 'Noto Color Emoji'; font-size: 10px; fill: rgb(80, 80, 80); fill-opacity: 1; white-space: pre;">5</text></g><g class="xtick"><text text-anchor="start" x="0" y="429" transform="translate(218.55,0) rotate(29.999999999999996,0,424)" style="font-family: system-ui, -apple-system, 'Segoe UI', Roboto, 'Helvetica Neue', 'Noto Sans', 'Liberation Sans', Arial, sans-serif, 'Apple Color Emoji', 'Segoe UI Emoji', 'Segoe UI Symbol', 'Noto Color Emoji'; font-size: 10px; fill: rgb(80, 80, 80); fill-opacity: 1; white-space: pre;">6</text></g><g class="xtick"><text text-anchor="start" x="0" y="429" transform="translate(250.26,0) rotate(29.999999999999996,0,424)" style="font-family: system-ui, -apple-system, 'Segoe UI', Roboto, 'Helvetica Neue', 'Noto Sans', 'Liberation Sans', Arial, sans-serif, 'Apple Color Emoji', 'Segoe UI Emoji', 'Segoe UI Symbol', 'Noto Color Emoji'; font-size: 10px; fill: rgb(80, 80, 80); fill-opacity: 1; white-space: pre;">7</text></g><g class="xtick"><text text-anchor="start" x="0" y="429" transform="translate(281.97,0) rotate(29.999999999999996,0,424)" style="font-family: system-ui, -apple-system, 'Segoe UI', Roboto, 'Helvetica Neue', 'Noto Sans', 'Liberation Sans', Arial, sans-serif, 'Apple Color Emoji', 'Segoe UI Emoji', 'Segoe UI Symbol', 'Noto Color Emoji'; font-size: 10px; fill: rgb(80, 80, 80); fill-opacity: 1; white-space: pre;">8</text></g><g class="xtick"><text text-anchor="start" x="0" y="429" transform="translate(313.68,0) rotate(29.999999999999996,0,424)" style="font-family: system-ui, -apple-system, 'Segoe UI', Roboto, 'Helvetica Neue', 'Noto Sans', 'Liberation Sans', Arial, sans-serif, 'Apple Color Emoji', 'Segoe UI Emoji', 'Segoe UI Symbol', 'Noto Color Emoji'; font-size: 10px; fill: rgb(80, 80, 80); fill-opacity: 1; white-space: pre;">9</text></g><g class="xtick"><text text-anchor="start" x="0" y="429" transform="translate(345.39,0) rotate(29.999999999999996,0,424)" style="font-family: system-ui, -apple-system, 'Segoe UI', Roboto, 'Helvetica Neue', 'Noto Sans', 'Liberation Sans', Arial, sans-serif, 'Apple Color Emoji', 'Segoe UI Emoji', 'Segoe UI Symbol', 'Noto Color Emoji'; font-size: 10px; fill: rgb(80, 80, 80); fill-opacity: 1; white-space: pre;">10</text></g><g class="xtick"><text text-anchor="start" x="0" y="429" transform="translate(377.1,0) rotate(29.999999999999996,0,424)" style="font-family: system-ui, -apple-system, 'Segoe UI', Roboto, 'Helvetica Neue', 'Noto Sans', 'Liberation Sans', Arial, sans-serif, 'Apple Color Emoji', 'Segoe UI Emoji', 'Segoe UI Symbol', 'Noto Color Emoji'; font-size: 10px; fill: rgb(80, 80, 80); fill-opacity: 1; white-space: pre;">11</text></g><g class="xtick"><text text-anchor="start" x="0" y="429" transform="translate(408.81,0) rotate(29.999999999999996,0,424)" style="font-family: system-ui, -apple-system, 'Segoe UI', Roboto, 'Helvetica Neue', 'Noto Sans', 'Liberation Sans', Arial, sans-serif, 'Apple Color Emoji', 'Segoe UI Emoji', 'Segoe UI Symbol', 'Noto Color Emoji'; font-size: 10px; fill: rgb(80, 80, 80); fill-opacity: 1; white-space: pre;">12</text></g><g class="xtick"><text text-anchor="start" x="0" y="429" transform="translate(440.52,0) rotate(29.999999999999996,0,424)" style="font-family: system-ui, -apple-system, 'Segoe UI', Roboto, 'Helvetica Neue', 'Noto Sans', 'Liberation Sans', Arial, sans-serif, 'Apple Color Emoji', 'Segoe UI Emoji', 'Segoe UI Symbol', 'Noto Color Emoji'; font-size: 10px; fill: rgb(80, 80, 80); fill-opacity: 1; white-space: pre;">13</text></g><g class="xtick"><text text-anchor="start" x="0" y="429" transform="translate(472.23,0) rotate(29.999999999999996,0,424)" style="font-family: system-ui, -apple-system, 'Segoe UI', Roboto, 'Helvetica Neue', 'Noto Sans', 'Liberation Sans', Arial, sans-serif, 'Apple Color Emoji', 'Segoe UI Emoji', 'Segoe UI Symbol', 'Noto Color Emoji'; font-size: 10px; fill: rgb(80, 80, 80); fill-opacity: 1; white-space: pre;">14</text></g><g class="xtick"><text text-anchor="start" x="0" y="429" transform="translate(503.94,0) rotate(29.999999999999996,0,424)" style="font-family: system-ui, -apple-system, 'Segoe UI', Roboto, 'Helvetica Neue', 'Noto Sans', 'Liberation Sans', Arial, sans-serif, 'Apple Color Emoji', 'Segoe UI Emoji', 'Segoe UI Symbol', 'Noto Color Emoji'; font-size: 10px; fill: rgb(80, 80, 80); fill-opacity: 1; white-space: pre;">15</text></g><g class="xtick"><text text-anchor="start" x="0" y="429" transform="translate(535.65,0) rotate(29.999999999999996,0,424)" style="font-family: system-ui, -apple-system, 'Segoe UI', Roboto, 'Helvetica Neue', 'Noto Sans', 'Liberation Sans', Arial, sans-serif, 'Apple Color Emoji', 'Segoe UI Emoji', 'Segoe UI Symbol', 'Noto Color Emoji'; font-size: 10px; fill: rgb(80, 80, 80); fill-opacity: 1; white-space: pre;">16</text></g><g class="xtick"><text text-anchor="start" x="0" y="429" transform="translate(567.35,0) rotate(29.999999999999996,0,424)" style="font-family: system-ui, -apple-system, 'Segoe UI', Roboto, 'Helvetica Neue', 'Noto Sans', 'Liberation Sans', Arial, sans-serif, 'Apple Color Emoji', 'Segoe UI Emoji', 'Segoe UI Symbol', 'Noto Color Emoji'; font-size: 10px; fill: rgb(80, 80, 80); fill-opacity: 1; white-space: pre;">17</text></g><g class="xtick"><text text-anchor="start" x="0" y="429" transform="translate(599.06,0) rotate(29.999999999999996,0,424)" style="font-family: system-ui, -apple-system, 'Segoe UI', Roboto, 'Helvetica Neue', 'Noto Sans', 'Liberation Sans', Arial, sans-serif, 'Apple Color Emoji', 'Segoe UI Emoji', 'Segoe UI Symbol', 'Noto Color Emoji'; font-size: 10px; fill: rgb(80, 80, 80); fill-opacity: 1; white-space: pre;">18</text></g><g class="xtick"><text text-anchor="start" x="0" y="429" transform="translate(630.77,0) rotate(29.999999999999996,0,424)" style="font-family: system-ui, -apple-system, 'Segoe UI', Roboto, 'Helvetica Neue', 'Noto Sans', 'Liberation Sans', Arial, sans-serif, 'Apple Color Emoji', 'Segoe UI Emoji', 'Segoe UI Symbol', 'Noto Color Emoji'; font-size: 10px; fill: rgb(80, 80, 80); fill-opacity: 1; white-space: pre;">19</text></g><g class="xtick"><text text-anchor="start" x="0" y="429" transform="translate(662.48,0) rotate(29.999999999999996,0,424)" style="font-family: system-ui, -apple-system, 'Segoe UI', Roboto, 'Helvetica Neue', 'Noto Sans', 'Liberation Sans', Arial, sans-serif, 'Apple Color Emoji', 'Segoe UI Emoji', 'Segoe UI Symbol', 'Noto Color Emoji'; font-size: 10px; fill: rgb(80, 80, 80); fill-opacity: 1; white-space: pre;">20</text></g><g class="xtick"><text text-anchor="start" x="0" y="429" transform="translate(694.19,0) rotate(29.999999999999996,0,424)" style="font-family: system-ui, -apple-system, 'Segoe UI', Roboto, 'Helvetica Neue', 'Noto Sans', 'Liberation Sans', Arial, sans-serif, 'Apple Color Emoji', 'Segoe UI Emoji', 'Segoe UI Symbol', 'Noto Color Emoji'; font-size: 10px; fill: rgb(80, 80, 80); fill-opacity: 1; white-space: pre;">21</text></g><g class="xtick"><text text-anchor="start" x="0" y="429" transform="translate(725.9,0) rotate(29.999999999999996,0,424)" style="font-family: system-ui, -apple-system, 'Segoe UI', Roboto, 'Helvetica Neue', 'Noto Sans', 'Liberation Sans', Arial, sans-serif, 'Apple Color Emoji', 'Segoe UI Emoji', 'Segoe UI Symbol', 'Noto Color Emoji'; font-size: 10px; fill: rgb(80, 80, 80); fill-opacity: 1; white-space: pre;">22</text></g><g class="xtick"><text text-anchor="start" x="0" y="429" transform="translate(757.61,0) rotate(29.999999999999996,0,424)" style="font-family: system-ui, -apple-system, 'Segoe UI', Roboto, 'Helvetica Neue', 'Noto Sans', 'Liberation Sans', Arial, sans-serif, 'Apple Color Emoji', 'Segoe UI Emoji', 'Segoe UI Symbol', 'Noto Color Emoji'; font-size: 10px; fill: rgb(80, 80, 80); fill-opacity: 1; white-space: pre;">23</text></g><g class="xtick"><text text-anchor="start" x="0" y="429" transform="translate(789.32,0) rotate(29.999999999999996,0,424)" style="font-family: system-ui, -apple-system, 'Segoe UI', Roboto, 'Helvetica Neue', 'Noto Sans', 'Liberation Sans', Arial, sans-serif, 'Apple Color Emoji', 'Segoe UI Emoji', 'Segoe UI Symbol', 'Noto Color Emoji'; font-size: 10px; fill: rgb(80, 80, 80); fill-opacity: 1; white-space: pre;">24</text></g><g class="xtick"><text text-anchor="start" x="0" y="429" transform="translate(821.03,0) rotate(29.999999999999996,0,424)" style="font-family: system-ui, -apple-system, 'Segoe UI', Roboto, 'Helvetica Neue', 'Noto Sans', 'Liberation Sans', Arial, sans-serif, 'Apple Color Emoji', 'Segoe UI Emoji', 'Segoe UI Symbol', 'Noto Color Emoji'; font-size: 10px; fill: rgb(80, 80, 80); fill-opacity: 1; white-space: pre;">25</text></g><g class="xtick"><text text-anchor="start" x="0" y="429" transform="translate(852.74,0) rotate(29.999999999999996,0,424)" style="font-family: system-ui, -apple-system, 'Segoe UI', Roboto, 'Helvetica Neue', 'Noto Sans', 'Liberation Sans', Arial, sans-serif, 'Apple Color Emoji', 'Segoe UI Emoji', 'Segoe UI Symbol', 'Noto Color Emoji'; font-size: 10px; fill: rgb(80, 80, 80); fill-opacity: 1; white-space: pre;">26</text></g><g class="xtick"><text text-anchor="start" x="0" y="429" transform="translate(884.45,0) rotate(29.999999999999996,0,424)" style="font-family: system-ui, -apple-system, 'Segoe UI', Roboto, 'Helvetica Neue', 'Noto Sans', 'Liberation Sans', Arial, sans-serif, 'Apple Color Emoji', 'Segoe UI Emoji', 'Segoe UI Symbol', 'Noto Color Emoji'; font-size: 10px; fill: rgb(80, 80, 80); fill-opacity: 1; white-space: pre;">27</text></g><g class="xtick"><text text-anchor="start" x="0" y="429" transform="translate(916.16,0) rotate(29.999999999999996,0,424)" style="font-family: system-ui, -apple-system, 'Segoe UI', Roboto, 'Helvetica Neue', 'Noto Sans', 'Liberation Sans', Arial, sans-serif, 'Apple Color Emoji', 'Segoe UI Emoji', 'Segoe UI Symbol', 'Noto Color Emoji'; font-size: 10px; fill: rgb(80, 80, 80); fill-opacity: 1; white-space: pre;">W</text></g><g class="xtick"><text text-anchor="start" x="0" y="429" transform="translate(947.87,0) rotate(29.999999999999996,0,424)" style="font-family: system-ui, -apple-system, 'Segoe UI', Roboto, 'Helvetica Neue', 'Noto Sans', 'Liberation Sans', Arial, sans-serif, 'Apple Color Emoji', 'Segoe UI Emoji', 'Segoe UI Symbol', 'Noto Color Emoji'; font-size: 10px; fill: rgb(80, 80, 80); fill-opacity: 1; white-space: pre;">NW_024396987.1</text></g><g class="xtick"><text text-anchor="start" x="0" y="429" transform="translate(979.58,0) rotate(29.999999999999996,0,424)" style="font-family: system-ui, -apple-system, 'Segoe UI', Roboto, 'Helvetica Neue', 'Noto Sans', 'Liberation Sans', Arial, sans-serif, 'Apple Color Emoji', 'Segoe UI Emoji', 'Segoe UI Symbol', 'Noto Color Emoji'; font-size: 10px; fill: rgb(80, 80, 80); fill-opacity: 1; white-space: pre;">NW_024396988.1</text></g><g class="xtick"><text text-anchor="start" x="0" y="429" transform="translate(1011.29,0) rotate(29.999999999999996,0,424)" style="font-family: system-ui, -apple-system, 'Segoe UI', Roboto, 'Helvetica Neue', 'Noto Sans', 'Liberation Sans', Arial, sans-serif, 'Apple Color Emoji', 'Segoe UI Emoji', 'Segoe UI Symbol', 'Noto Color Emoji'; font-size: 10px; fill: rgb(80, 80, 80); fill-opacity: 1; white-space: pre;">NW_024396989.1</text></g><g class="xtick"><text text-anchor="start" x="0" y="429" transform="translate(1043,0) rotate(29.999999999999996,0,424)" style="font-family: system-ui, -apple-system, 'Segoe UI', Roboto, 'Helvetica Neue', 'Noto Sans', 'Liberation Sans', Arial, sans-serif, 'Apple Color Emoji', 'Segoe UI Emoji', 'Segoe UI Symbol', 'Noto Color Emoji'; font-size: 10px; fill: rgb(80, 80, 80); fill-opacity: 1; white-space: pre;">Z</text></g></g><g class="yaxislayer-above"><g class="ytick"><text text-anchor="end" x="54" y="2.625" transform="translate(0,398.51)" style="font-family: system-ui, -apple-system, 'Segoe UI', Roboto, 'Helvetica Neue', 'Noto Sans', 'Liberation Sans', Arial, sans-serif, 'Apple Color Emoji', 'Segoe UI Emoji', 'Segoe UI Symbol', 'Noto Color Emoji'; font-size: 7.5px; fill: rgb(80, 80, 80); fill-opacity: 1; white-space: pre;">2</text></g><g class="ytick"><text text-anchor="end" x="54" y="2.625" style="font-family: system-ui, -apple-system, 'Segoe UI', Roboto, 'Helvetica Neue', 'Noto Sans', 'Liberation Sans', Arial, sans-serif, 'Apple Color Emoji', 'Segoe UI Emoji', 'Segoe UI Symbol', 'Noto Color Emoji'; font-size: 7.5px; fill: rgb(80, 80, 80); fill-opacity: 1; white-space: pre;" transform="translate(0,365.8)">5</text></g><g class="ytick"><text text-anchor="end" x="54" y="3.5" style="font-family: system-ui, -apple-system, 'Segoe UI', Roboto, 'Helvetica Neue', 'Noto Sans', 'Liberation Sans', Arial, sans-serif, 'Apple Color Emoji', 'Segoe UI Emoji', 'Segoe UI Symbol', 'Noto Color Emoji'; font-size: 10px; fill: rgb(80, 80, 80); fill-opacity: 1; white-space: pre;" transform="translate(0,341.05)">10k</text></g><g class="ytick"><text text-anchor="end" x="54" y="2.625" style="font-family: system-ui, -apple-system, 'Segoe UI', Roboto, 'Helvetica Neue', 'Noto Sans', 'Liberation Sans', Arial, sans-serif, 'Apple Color Emoji', 'Segoe UI Emoji', 'Segoe UI Symbol', 'Noto Color Emoji'; font-size: 7.5px; fill: rgb(80, 80, 80); fill-opacity: 1; white-space: pre;" transform="translate(0,316.31)">2</text></g><g class="ytick"><text text-anchor="end" x="54" y="2.625" style="font-family: system-ui, -apple-system, 'Segoe UI', Roboto, 'Helvetica Neue', 'Noto Sans', 'Liberation Sans', Arial, sans-serif, 'Apple Color Emoji', 'Segoe UI Emoji', 'Segoe UI Symbol', 'Noto Color Emoji'; font-size: 7.5px; fill: rgb(80, 80, 80); fill-opacity: 1; white-space: pre;" transform="translate(0,283.6)">5</text></g><g class="ytick"><text text-anchor="end" x="54" y="3.5" style="font-family: system-ui, -apple-system, 'Segoe UI', Roboto, 'Helvetica Neue', 'Noto Sans', 'Liberation Sans', Arial, sans-serif, 'Apple Color Emoji', 'Segoe UI Emoji', 'Segoe UI Symbol', 'Noto Color Emoji'; font-size: 10px; fill: rgb(80, 80, 80); fill-opacity: 1; white-space: pre;" transform="translate(0,258.85)">100k</text></g><g class="ytick"><text text-anchor="end" x="54" y="2.625" style="font-family: system-ui, -apple-system, 'Segoe UI', Roboto, 'Helvetica Neue', 'Noto Sans', 'Liberation Sans', Arial, sans-serif, 'Apple Color Emoji', 'Segoe UI Emoji', 'Segoe UI Symbol', 'Noto Color Emoji'; font-size: 7.5px; fill: rgb(80, 80, 80); fill-opacity: 1; white-space: pre;" transform="translate(0,234.1)">2</text></g><g class="ytick"><text text-anchor="end" x="54" y="2.625" style="font-family: system-ui, -apple-system, 'Segoe UI', Roboto, 'Helvetica Neue', 'Noto Sans', 'Liberation Sans', Arial, sans-serif, 'Apple Color Emoji', 'Segoe UI Emoji', 'Segoe UI Symbol', 'Noto Color Emoji'; font-size: 7.5px; fill: rgb(80, 80, 80); fill-opacity: 1; white-space: pre;" transform="translate(0,201.39)">5</text></g><g class="ytick"><text text-anchor="end" x="54" y="3.5" style="font-family: system-ui, -apple-system, 'Segoe UI', Roboto, 'Helvetica Neue', 'Noto Sans', 'Liberation Sans', Arial, sans-serif, 'Apple Color Emoji', 'Segoe UI Emoji', 'Segoe UI Symbol', 'Noto Color Emoji'; font-size: 10px; fill: rgb(80, 80, 80); fill-opacity: 1; white-space: pre;" transform="translate(0,176.65)">1M</text></g><g class="ytick"><text text-anchor="end" x="54" y="2.625" style="font-family: system-ui, -apple-system, 'Segoe UI', Roboto, 'Helvetica Neue', 'Noto Sans', 'Liberation Sans', Arial, sans-serif, 'Apple Color Emoji', 'Segoe UI Emoji', 'Segoe UI Symbol', 'Noto Color Emoji'; font-size: 7.5px; fill: rgb(80, 80, 80); fill-opacity: 1; white-space: pre;" transform="translate(0,151.9)">2</text></g><g class="ytick"><text text-anchor="end" x="54" y="2.625" style="font-family: system-ui, -apple-system, 'Segoe UI', Roboto, 'Helvetica Neue', 'Noto Sans', 'Liberation Sans', Arial, sans-serif, 'Apple Color Emoji', 'Segoe UI Emoji', 'Segoe UI Symbol', 'Noto Color Emoji'; font-size: 7.5px; fill: rgb(80, 80, 80); fill-opacity: 1; white-space: pre;" transform="translate(0,119.19)">5</text></g><g class="ytick"><text text-anchor="end" x="54" y="3.5" style="font-family: system-ui, -apple-system, 'Segoe UI', Roboto, 'Helvetica Neue', 'Noto Sans', 'Liberation Sans', Arial, sans-serif, 'Apple Color Emoji', 'Segoe UI Emoji', 'Segoe UI Symbol', 'Noto Color Emoji'; font-size: 10px; fill: rgb(80, 80, 80); fill-opacity: 1; white-space: pre;" transform="translate(0,94.44)">10M</text></g><g class="ytick"><text text-anchor="end" x="54" y="2.625" style="font-family: system-ui, -apple-system, 'Segoe UI', Roboto, 'Helvetica Neue', 'Noto Sans', 'Liberation Sans', Arial, sans-serif, 'Apple Color Emoji', 'Segoe UI Emoji', 'Segoe UI Symbol', 'Noto Color Emoji'; font-size: 7.5px; fill: rgb(80, 80, 80); fill-opacity: 1; white-space: pre;" transform="translate(0,69.7)">2</text></g></g><g class="overaxes-above"/></g></g><g class="polarlayer"/><g class="smithlayer"/><g class="ternarylayer"/><g class="geolayer"/><g class="funnelarealayer"/><g class="pielayer"/><g class="iciclelayer"/><g class="treemaplayer"/><g class="sunburstlayer"/><g class="glimages"/><defs id="topdefs-0af6d2"><g class="clips"/></defs><g class="layer-above"><g class="imagelayer"/><g class="shapelayer"/></g><g class="infolayer"><g class="g-gtitle"><text class="gtitle" x="550" y="25" text-anchor="middle" dy="0em" style="opacity: 1; font-family: system-ui, -apple-system, 'Segoe UI', Roboto, 'Helvetica Neue', 'Noto Sans', 'Liberation Sans', Arial, sans-serif, 'Apple Color Emoji', 'Segoe UI Emoji', 'Segoe UI Symbol', 'Noto Color Emoji'; font-size: 20px; fill: rgb(60, 60, 60); fill-opacity: 1; white-space: pre;"><tspan class="line" dy="0em" x="550" y="25">Samtools: idxstats: Mapped reads per contig</tspan><tspan class="line" dy="1.3em" x="550" y="25">​<tspan style="font-size:70%" dy="-0.6em">Raw Counts, 94 lines</tspan><tspan dy="0.42em">​</tspan></tspan></text></g><g class="g-xtitle"><text class="xtitle" x="551.5" y="465" text-anchor="middle" style="opacity: 1; font-family: system-ui, -apple-system, 'Segoe UI', Roboto, 'Helvetica Neue', 'Noto Sans', 'Liberation Sans', Arial, sans-serif, 'Apple Color Emoji', 'Segoe UI Emoji', 'Segoe UI Symbol', 'Noto Color Emoji'; font-size: 14px; fill: rgb(100, 100, 100); fill-opacity: 1; white-space: pre;">Chromosome name</text></g><g class="g-ytitle"><text class="ytitle" transform="rotate(-90,22,231.5)" x="22" y="231.5" text-anchor="middle" style="opacity: 1; font-family: system-ui, -apple-system, 'Segoe UI', Roboto, 'Helvetica Neue', 'Noto Sans', 'Liberation Sans', Arial, sans-serif, 'Apple Color Emoji', 'Segoe UI Emoji', 'Segoe UI Symbol', 'Noto Color Emoji'; font-size: 14px; fill: rgb(100, 100, 100); fill-opacity: 1; white-space: pre;"># mapped reads</text></g></g></svg>