<svg class="main-svg" xmlns="http://www.w3.org/2000/svg" xmlns:xlink="http://www.w3.org/1999/xlink" width="2200" height="1000" style="" viewBox="0 0 1100 500"><rect x="0" y="0" width="1100" height="500" style="fill: rgb(255, 255, 255); fill-opacity: 1;"/><defs id="defs-5ae718"><g class="clips"><clipPath id="clip5ae718xyplot" class="plotclip"><rect width="983" height="363"/></clipPath><clipPath class="axesclip" id="clip5ae718x"><rect x="60" y="0" width="983" height="500"/></clipPath><clipPath class="axesclip" id="clip5ae718y"><rect x="0" y="50" width="1100" height="363"/></clipPath><clipPath class="axesclip" id="clip5ae718xy"><rect x="60" y="50" width="983" height="363"/></clipPath></g><g class="gradients"/><g class="patterns"/></defs><g class="bglayer"/><g class="layer-below"><g class="imagelayer"/><g class="shapelayer"/></g><g class="cartesianlayer"><g class="subplot xy"><g class="layer-subplot"><g class="shapelayer"/><g class="imagelayer"/></g><g class="minor-gridlayer"><g class="x"/><g class="y"/></g><g class="gridlayer"><g class="x"><path class="xgrid crisp" transform="translate(91.71000000000001,0)" d="M0,50v363" style="stroke: rgb(128, 128, 128); stroke-opacity: 0.15; stroke-width: 1px;"/><path class="xgrid crisp" transform="translate(123.42,0)" d="M0,50v363" style="stroke: rgb(128, 128, 128); stroke-opacity: 0.15; stroke-width: 1px;"/><path class="xgrid crisp" transform="translate(155.13,0)" d="M0,50v363" style="stroke: rgb(128, 128, 128); stroke-opacity: 0.15; stroke-width: 1px;"/><path class="xgrid crisp" transform="translate(186.84,0)" d="M0,50v363" style="stroke: rgb(128, 128, 128); stroke-opacity: 0.15; stroke-width: 1px;"/><path class="xgrid crisp" transform="translate(218.55,0)" d="M0,50v363" style="stroke: rgb(128, 128, 128); stroke-opacity: 0.15; stroke-width: 1px;"/><path class="xgrid crisp" transform="translate(250.26,0)" d="M0,50v363" style="stroke: rgb(128, 128, 128); stroke-opacity: 0.15; stroke-width: 1px;"/><path class="xgrid crisp" transform="translate(281.97,0)" d="M0,50v363" style="stroke: rgb(128, 128, 128); stroke-opacity: 0.15; stroke-width: 1px;"/><path class="xgrid crisp" transform="translate(313.68,0)" d="M0,50v363" style="stroke: rgb(128, 128, 128); stroke-opacity: 0.15; stroke-width: 1px;"/><path class="xgrid crisp" transform="translate(345.39,0)" d="M0,50v363" style="stroke: rgb(128, 128, 128); stroke-opacity: 0.15; stroke-width: 1px;"/><path class="xgrid crisp" transform="translate(377.1,0)" d="M0,50v363" style="stroke: rgb(128, 128, 128); stroke-opacity: 0.15; stroke-width: 1px;"/><path class="xgrid crisp" transform="translate(408.81,0)" d="M0,50v363" style="stroke: rgb(128, 128, 128); stroke-opacity: 0.15; stroke-width: 1px;"/><path class="xgrid crisp" transform="translate(440.52,0)" d="M0,50v363" style="stroke: rgb(128, 128, 128); stroke-opacity: 0.15; stroke-width: 1px;"/><path class="xgrid crisp" transform="translate(472.23,0)" d="M0,50v363" style="stroke: rgb(128, 128, 128); stroke-opacity: 0.15; stroke-width: 1px;"/><path class="xgrid crisp" transform="translate(503.94,0)" d="M0,50v363" style="stroke: rgb(128, 128, 128); stroke-opacity: 0.15; stroke-width: 1px;"/><path class="xgrid crisp" transform="translate(535.65,0)" d="M0,50v363" style="stroke: rgb(128, 128, 128); stroke-opacity: 0.15; stroke-width: 1px;"/><path class="xgrid crisp" transform="translate(567.35,0)" d="M0,50v363" style="stroke: rgb(128, 128, 128); stroke-opacity: 0.15; stroke-width: 1px;"/><path class="xgrid crisp" transform="translate(599.06,0)" d="M0,50v363" style="stroke: rgb(128, 128, 128); stroke-opacity: 0.15; stroke-width: 1px;"/><path class="xgrid crisp" transform="translate(630.77,0)" d="M0,50v363" style="stroke: rgb(128, 128, 128); stroke-opacity: 0.15; stroke-width: 1px;"/><path class="xgrid crisp" transform="translate(662.48,0)" d="M0,50v363" style="stroke: rgb(128, 128, 128); stroke-opacity: 0.15; stroke-width: 1px;"/><path class="xgrid crisp" transform="translate(694.19,0)" d="M0,50v363" style="stroke: rgb(128, 128, 128); stroke-opacity: 0.15; stroke-width: 1px;"/><path class="xgrid crisp" transform="translate(725.9,0)" d="M0,50v363" style="stroke: rgb(128, 128, 128); stroke-opacity: 0.15; stroke-width: 1px;"/><path class="xgrid crisp" transform="translate(757.61,0)" d="M0,50v363" style="stroke: rgb(128, 128, 128); stroke-opacity: 0.15; stroke-width: 1px;"/><path class="xgrid crisp" transform="translate(789.32,0)" d="M0,50v363" style="stroke: rgb(128, 128, 128); stroke-opacity: 0.15; stroke-width: 1px;"/><path class="xgrid crisp" transform="translate(821.03,0)" d="M0,50v363" style="stroke: rgb(128, 128, 128); stroke-opacity: 0.15; stroke-width: 1px;"/><path class="xgrid crisp" transform="translate(852.74,0)" d="M0,50v363" style="stroke: rgb(128, 128, 128); stroke-opacity: 0.15; stroke-width: 1px;"/><path class="xgrid crisp" transform="translate(884.45,0)" d="M0,50v363" style="stroke: rgb(128, 128, 128); stroke-opacity: 0.15; stroke-width: 1px;"/><path class="xgrid crisp" transform="translate(916.16,0)" d="M0,50v363" style="stroke: rgb(128, 128, 128); stroke-opacity: 0.15; stroke-width: 1px;"/><path class="xgrid crisp" transform="translate(947.87,0)" d="M0,50v363" style="stroke: rgb(128, 128, 128); stroke-opacity: 0.15; stroke-width: 1px;"/><path class="xgrid crisp" transform="translate(979.58,0)" d="M0,50v363" style="stroke: rgb(128, 128, 128); stroke-opacity: 0.15; stroke-width: 1px;"/><path class="xgrid crisp" transform="translate(1011.29,0)" d="M0,50v363" style="stroke: rgb(128, 128, 128); stroke-opacity: 0.15; stroke-width: 1px;"/></g><g class="y"><path class="ygrid crisp" transform="translate(0,336.02)" d="M60,0h983" style="stroke: rgb(128, 128, 128); stroke-opacity: 0.15; stroke-width: 1px;"/><path class="ygrid crisp" transform="translate(0,276.21000000000004)" d="M60,0h983" style="stroke: rgb(128, 128, 128); stroke-opacity: 0.15; stroke-width: 1px;"/><path class="ygrid crisp" transform="translate(0,216.4)" d="M60,0h983" style="stroke: rgb(128, 128, 128); stroke-opacity: 0.15; stroke-width: 1px;"/><path class="ygrid crisp" transform="translate(0,156.6)" d="M60,0h983" style="stroke: rgb(128, 128, 128); stroke-opacity: 0.15; stroke-width: 1px;"/><path class="ygrid crisp" transform="translate(0,96.78999999999999)" d="M60,0h983" style="stroke: rgb(128, 128, 128); stroke-opacity: 0.15; stroke-width: 1px;"/></g></g><g class="zerolinelayer"><path class="yzl zl crisp" transform="translate(0,395.83)" d="M60,0h983" style="stroke: rgb(128, 128, 128); stroke-opacity: 0.2; stroke-width: 1px;"/></g><g class="layer-between"><g class="shapelayer"/><g class="imagelayer"/></g><path class="xlines-below"/><path class="ylines-below"/><g class="overlines-below"/><g class="xaxislayer-below"/><g class="yaxislayer-below"/><g class="overaxes-below"/><g class="overplot"><g class="xy" transform="translate(60,50)" clip-path="url(#clip5ae718xyplot)"><g class="scatterlayer mlayer"><g class="trace scatter trace0b9d69" style="stroke-miterlimit: 2; opacity: 1;"><g class="fills"/><g class="errorbars"/><g class="lines"><path class="js-line" d="M0,96.43L31.71,87.77L63.42,85.78L95.13,97.2L126.84,101.82L158.55,98.52L190.26,110.27L221.97,108.17L253.68,111.23L317.1,123.35L348.81,117.98L380.52,128.85L412.23,130.48L443.94,128.3L475.65,128.77L507.35,142.07L539.06,140.84L570.77,115.59L602.48,145.22L634.19,154.86L665.9,171.15L697.61,193L729.32,193.86L761.03,211.25L792.74,224.4L824.45,241.35L856.16,340.95L919.58,344.61L951.29,344.69L983,25.77" style="vector-effect: none; fill: none; stroke: rgb(124, 181, 236); stroke-opacity: 1; stroke-width: 2px; opacity: 1;"/></g><g class="points"/><g class="text"/></g><g class="trace scatter trace173b40" style="stroke-miterlimit: 2; opacity: 1;"><g class="fills"/><g class="errorbars"/><g class="lines"><path class="js-line" d="M0,97.44L31.71,86.03L63.42,84.85L95.13,96.66L126.84,100.59L158.55,96.35L190.26,109.39L221.97,107.1L253.68,110.34L317.1,122.02L348.81,119.27L380.52,128.35L412.23,129.49L443.94,127.7L475.65,127.03L507.35,140.86L539.06,140.14L570.77,130.37L602.48,144.81L634.19,153.69L665.9,169.94L697.61,192.21L729.32,192.38L761.03,210.57L792.74,226.84L824.45,246.25L856.16,341.07L919.58,344.68L951.29,344.69L983,24.31" style="vector-effect: none; fill: none; stroke: rgb(67, 67, 72); stroke-opacity: 1; stroke-width: 2px; opacity: 1;"/></g><g class="points"/><g class="text"/></g><g class="trace scatter trace465cab" style="stroke-miterlimit: 2; opacity: 1;"><g class="fills"/><g class="errorbars"/><g class="lines"><path class="js-line" d="M0,95.16L31.71,85.98L63.42,83L95.13,96.54L126.84,102.23L158.55,96.35L190.26,109.46L221.97,107.35L253.68,110.67L317.1,122.41L348.81,121.86L380.52,128.32L412.23,129.28L443.94,127.41L475.65,127.44L507.35,140.81L539.06,140.4L570.77,127.31L602.48,145.32L634.19,155.06L665.9,170.67L697.61,191.89L729.32,193.52L761.03,211.72L792.74,223.28L824.45,247.31L856.16,340.99L919.58,344.67L951.29,344.6L983,24.9" style="vector-effect: none; fill: none; stroke: rgb(144, 237, 125); stroke-opacity: 1; stroke-width: 2px; opacity: 1;"/></g><g class="points"/><g class="text"/></g><g class="trace scatter tracea74b25" style="stroke-miterlimit: 2; opacity: 1;"><g class="fills"/><g class="errorbars"/><g class="lines"><path class="js-line" d="M0,95.16L31.71,87.54L63.42,84.98L95.13,96.04L126.84,101.57L158.55,99.39L190.26,109.05L221.97,108.21L253.68,111.2L285.39,118.82L317.1,124.25L348.81,117.4L380.52,130.18L412.23,133.5L443.94,129.21L475.65,119.73L507.35,142.89L539.06,140.33L570.77,131.16L602.48,146.44L634.19,156.66L665.9,170.6L697.61,192.84L729.32,191.39L761.03,204.03L792.74,225.79L824.45,244.72L856.16,341.07L887.87,343.07L919.58,344.73L951.29,344.76L983,24.02" style="vector-effect: none; fill: none; stroke: rgb(247, 163, 92); stroke-opacity: 1; stroke-width: 2px; opacity: 1;"/></g><g class="points"/><g class="text"/></g><g class="trace scatter tracea3a810" style="stroke-miterlimit: 2; opacity: 1;"><g class="fills"/><g class="errorbars"/><g class="lines"><path class="js-line" d="M0,96.08L31.71,84.94L63.42,84.99L95.13,95.83L126.84,99.67L158.55,95.71L190.26,109.37L221.97,107.06L253.68,110.77L285.39,115.86L317.1,121.84L348.81,116.4L380.52,128.11L412.23,130.06L443.94,126.91L475.65,129.42L507.35,141.04L539.06,139.64L570.77,111.66L602.48,144.62L634.19,152.78L665.9,170.71L697.61,191.39L729.32,194.2L761.03,212.67L792.74,223.83L824.45,243.47L856.16,292.36L887.87,318.12L919.58,329.14L951.29,335.1L983,171.55" style="vector-effect: none; fill: none; stroke: rgb(128, 133, 233); stroke-opacity: 1; stroke-width: 2px; opacity: 1;"/></g><g class="points"/><g class="text"/></g><g class="trace scatter trace173742" style="stroke-miterlimit: 2; opacity: 1;"><g class="fills"/><g class="errorbars"/><g class="lines"><path class="js-line" d="M0,95.44L31.71,88.83L63.42,84.54L95.13,96.91L126.84,102.6L158.55,100.13L190.26,109.28L253.68,109.19L285.39,115.8L317.1,122.37L348.81,119.44L380.52,126.43L412.23,131.34L443.94,126.47L475.65,125.11L507.35,141.06L539.06,140.12L570.77,123.49L602.48,144.15L634.19,152.91L665.9,169.14L697.61,188.03L729.32,192.55L792.74,222.72L824.45,242.29L856.16,288.76L887.87,316.15L919.58,328.12L951.29,334.84L983,172.63" style="vector-effect: none; fill: none; stroke: rgb(241, 92, 128); stroke-opacity: 1; stroke-width: 2px; opacity: 1;"/></g><g class="points"/><g class="text"/></g><g class="trace scatter tracefb6322" style="stroke-miterlimit: 2; opacity: 1;"><g class="fills"/><g class="errorbars"/><g class="lines"><path class="js-line" d="M0,95.08L31.71,86.44L63.42,91.66L95.13,94.7L126.84,102.28L158.55,102.2L190.26,109.98L221.97,109.65L253.68,114.08L285.39,119.76L317.1,122.26L348.81,116.94L380.52,133.49L443.94,130.32L475.65,125.06L507.35,142.04L539.06,141.64L570.77,120.9L602.48,144.91L634.19,152.72L665.9,169.62L697.61,192.5L729.32,190.28L761.03,204.39L792.74,222.08L824.45,239.89L856.16,340.96L919.58,344.71L951.29,344.71L983,27.42" style="vector-effect: none; fill: none; stroke: rgb(228, 211, 84); stroke-opacity: 1; stroke-width: 2px; opacity: 1;"/></g><g class="points"/><g class="text"/></g><g class="trace scatter trace4c83a1" style="stroke-miterlimit: 2; opacity: 1;"><g class="fills"/><g class="errorbars"/><g class="lines"><path class="js-line" d="M0,98.4L31.71,95.29L63.42,80.43L95.13,103.21L126.84,104.14L158.55,101.35L190.26,109.53L221.97,111.72L253.68,106.73L285.39,116.05L317.1,126.73L348.81,121.43L380.52,121.73L412.23,134.66L443.94,127.22L475.65,122.79L507.35,140.76L539.06,143.3L570.77,122.28L602.48,147.17L634.19,156.21L665.9,170.22L697.61,185.77L729.32,190.33L761.03,204.44L792.74,218.36L824.45,244.21L856.16,340.85L887.87,342.94L919.58,344.72L951.29,344.79L983,35.03" style="vector-effect: none; fill: none; stroke: rgb(43, 144, 143); stroke-opacity: 1; stroke-width: 2px; opacity: 1;"/></g><g class="points"/><g class="text"/></g><g class="trace scatter trace3bd37b" style="stroke-miterlimit: 2; opacity: 1;"><g class="fills"/><g class="errorbars"/><g class="lines"><path class="js-line" d="M0,97.03L63.42,85.21L95.13,100.01L126.84,103L158.55,101.2L190.26,109.39L221.97,111.38L253.68,110.84L285.39,119.92L317.1,122.34L348.81,118.71L380.52,127.04L412.23,133.52L443.94,128.55L475.65,124.89L507.35,141.62L539.06,140.53L570.77,109.39L602.48,146.76L634.19,153.75L665.9,169.37L697.61,187.24L729.32,191.92L792.74,219.32L824.45,240.22L856.16,287.81L887.87,315.76L919.58,328.05L951.29,334.83L983,174.91" style="vector-effect: none; fill: none; stroke: rgb(244, 91, 91); stroke-opacity: 1; stroke-width: 2px; opacity: 1;"/></g><g class="points"/><g class="text"/></g><g class="trace scatter trace44cc54" style="stroke-miterlimit: 2; opacity: 1;"><g class="fills"/><g class="errorbars"/><g class="lines"><path class="js-line" d="M0,97.53L31.71,91.1L63.42,89.75L95.13,98.96L126.84,105.75L158.55,103.63L190.26,108.1L221.97,111.66L253.68,112.62L285.39,121.09L317.1,125.62L348.81,118.42L380.52,130.46L412.23,134.13L443.94,129.93L475.65,121.75L507.35,141.09L539.06,141.08L570.77,126.1L602.48,145.37L634.19,153.56L665.9,169.17L697.61,186.31L729.32,186.91L761.03,200.92L792.74,216.32L824.45,234.97L856.16,340.72L887.87,343.09L919.58,344.75L951.29,344.76L983,35.65" style="vector-effect: none; fill: none; stroke: rgb(145, 232, 225); stroke-opacity: 1; stroke-width: 2px; opacity: 1;"/></g><g class="points"/><g class="text"/></g><g class="trace scatter trace9650ac" style="stroke-miterlimit: 2; opacity: 1;"><g class="fills"/><g class="errorbars"/><g class="lines"><path class="js-line" d="M0,98.33L31.71,91.48L63.42,86.82L95.13,100.57L126.84,105.34L158.55,102.3L190.26,109.62L253.68,111.78L285.39,119.96L317.1,126.37L348.81,121.14L380.52,128.51L412.23,134.55L443.94,130.7L475.65,118.57L507.35,140.66L539.06,142.42L570.77,127.76L602.48,146.14L634.19,155.41L665.9,169.95L697.61,187.19L729.32,186.52L761.03,200.53L792.74,219.25L824.45,233.26L856.16,340.84L919.58,344.67L951.29,344.71L983,31.26" style="vector-effect: none; fill: none; stroke: rgb(124, 181, 236); stroke-opacity: 1; stroke-width: 2px; opacity: 1;"/></g><g class="points"/><g class="text"/></g><g class="trace scatter trace782323" style="stroke-miterlimit: 2; opacity: 1;"><g class="fills"/><g class="errorbars"/><g class="lines"><path class="js-line" d="M0,95.15L31.71,86.09L63.42,90.4L126.84,101.05L158.55,99.79L190.26,108.45L221.97,107.59L253.68,112.43L285.39,119.29L317.1,122.27L348.81,118.24L380.52,133.2L412.23,130.46L443.94,130.93L475.65,124.67L507.35,142.88L539.06,139.73L570.77,132.53L602.48,144.95L634.19,153.22L665.9,168.57L697.61,192.42L729.32,189.88L761.03,205.07L792.74,221.54L824.45,240.98L856.16,341L919.58,344.7L951.29,344.76L983,25.71" style="vector-effect: none; fill: none; stroke: rgb(67, 67, 72); stroke-opacity: 1; stroke-width: 2px; opacity: 1;"/></g><g class="points"/><g class="text"/></g><g class="trace scatter trace459fa7" style="stroke-miterlimit: 2; opacity: 1;"><g class="fills"/><g class="errorbars"/><g class="lines"><path class="js-line" d="M0,96.01L31.71,85.39L63.42,86.91L95.13,95.85L126.84,101.6L158.55,97.29L190.26,110.45L221.97,107.9L253.68,113.73L317.1,122.37L348.81,119.68L380.52,131.55L412.23,129.9L443.94,129.38L475.65,123.07L507.35,143.03L539.06,140.97L570.77,124.56L602.48,144.46L634.19,154.72L665.9,170.45L697.61,192.89L729.32,192.76L761.03,209.76L792.74,223.6L824.45,239.94L856.16,341.23L919.58,344.61L951.29,344.66L983,24.1" style="vector-effect: none; fill: none; stroke: rgb(144, 237, 125); stroke-opacity: 1; stroke-width: 2px; opacity: 1;"/></g><g class="points"/><g class="text"/></g><g class="trace scatter trace7d14f9" style="stroke-miterlimit: 2; opacity: 1;"><g class="fills"/><g class="errorbars"/><g class="lines"><path class="js-line" d="M0,95.81L31.71,84.52L63.42,85.5L95.13,94.84L126.84,100.05L158.55,97.85L190.26,110.24L221.97,106.78L253.68,112.59L285.39,116.2L317.1,121.46L348.81,120.27L380.52,130.83L412.23,130.29L443.94,127.6L475.65,128.23L507.35,142.6L539.06,139.96L570.77,120.8L602.48,143.4L634.19,154.75L665.9,171.5L697.61,193.3L729.32,194.46L761.03,212.84L792.74,225.17L824.45,246.82L856.16,341.28L887.87,342.87L919.58,344.66L951.29,344.57L983,21.32" style="vector-effect: none; fill: none; stroke: rgb(247, 163, 92); stroke-opacity: 1; stroke-width: 2px; opacity: 1;"/></g><g class="points"/><g class="text"/></g><g class="trace scatter traceb39e66" style="stroke-miterlimit: 2; opacity: 1;"><g class="fills"/><g class="errorbars"/><g class="lines"><path class="js-line" d="M0,94.48L31.71,86.63L63.42,84.86L95.13,97.35L126.84,100.63L158.55,97.21L190.26,108.14L221.97,106.77L253.68,108.74L285.39,117.01L317.1,122.08L348.81,119.58L380.52,126.71L412.23,130.09L443.94,126.44L475.65,126.31L507.35,140.2L539.06,138.72L570.77,127.59L602.48,143.61L634.19,153.56L665.9,169.26L697.61,188.14L729.32,192.57L761.03,210.53L792.74,226.75L824.45,244.4L856.16,288.37L887.87,315.57L919.58,327.93L951.29,334.67L983,171.61" style="vector-effect: none; fill: none; stroke: rgb(128, 133, 233); stroke-opacity: 1; stroke-width: 2px; opacity: 1;"/></g><g class="points"/><g class="text"/></g><g class="trace scatter trace6fe1ac" style="stroke-miterlimit: 2; opacity: 1;"><g class="fills"/><g class="errorbars"/><g class="lines"><path class="js-line" d="M0,97.05L31.71,86.86L63.42,83.14L95.13,98.42L126.84,101.61L158.55,95.99L190.26,109.85L221.97,107.89L253.68,110.18L285.39,115.6L317.1,122.65L348.81,122.99L380.52,127.61L412.23,131.49L443.94,127.73L475.65,128.9L507.35,140.94L539.06,139.61L570.77,121.29L602.48,144.89L634.19,153.31L665.9,170.84L697.61,191.5L729.32,193.01L761.03,212.51L792.74,223.14L824.45,245.84L856.16,340.87L887.87,342.86L919.58,344.56L951.29,344.62L983,23.73" style="vector-effect: none; fill: none; stroke: rgb(241, 92, 128); stroke-opacity: 1; stroke-width: 2px; opacity: 1;"/></g><g class="points"/><g class="text"/></g><g class="trace scatter trace83efa3" style="stroke-miterlimit: 2; opacity: 1;"><g class="fills"/><g class="errorbars"/><g class="lines"><path class="js-line" d="M0,94.41L31.71,83.35L63.42,85.84L95.13,94.28L126.84,99.75L158.55,96.32L190.26,109.45L221.97,105.73L253.68,110.22L317.1,120.53L348.81,120.41L380.52,129.61L412.23,129.43L443.94,126.17L475.65,126.96L507.35,142.22L539.06,138.79L570.77,129.67L602.48,142.38L634.19,152.69L665.9,170.73L697.61,190.69L729.32,194.51L761.03,212.38L792.74,224.66L824.45,244.01L856.16,287.31L887.87,315.09L919.58,327.53L951.29,334.15L983,169.73" style="vector-effect: none; fill: none; stroke: rgb(228, 211, 84); stroke-opacity: 1; stroke-width: 2px; opacity: 1;"/></g><g class="points"/><g class="text"/></g><g class="trace scatter trace6068b4" style="stroke-miterlimit: 2; opacity: 1;"><g class="fills"/><g class="errorbars"/><g class="lines"><path class="js-line" d="M0,96.23L31.71,85.4L63.42,86.54L95.13,95.07L126.84,100.81L158.55,98.26L190.26,110.13L221.97,107.25L253.68,112.15L285.39,117.24L317.1,120.7L348.81,121.37L380.52,131.12L412.23,129.45L443.94,128.87L475.65,128.19L507.35,143.47L539.06,138.49L570.77,129.17L602.48,143.3L634.19,152.47L665.9,170.99L697.61,191.84L729.32,192.83L761.03,211.24L792.74,222.3L824.45,242.74L856.16,340.94L887.87,342.88L919.58,344.66L951.29,344.61L983,21.24" style="vector-effect: none; fill: none; stroke: rgb(43, 144, 143); stroke-opacity: 1; stroke-width: 2px; opacity: 1;"/></g><g class="points"/><g class="text"/></g><g class="trace scatter tracee9ecb1" style="stroke-miterlimit: 2; opacity: 1;"><g class="fills"/><g class="errorbars"/><g class="lines"><path class="js-line" d="M0,96.24L31.71,84.61L63.42,83.38L95.13,96.03L126.84,99.38L158.55,96.16L190.26,108.84L221.97,107.34L253.68,109.61L285.39,117.18L317.1,120.95L348.81,121.26L380.52,126.81L412.23,130.9L443.94,127.2L475.65,127.98L507.35,141.68L539.06,138.53L570.77,116.82L602.48,143.85L634.19,154.81L665.9,169.92L697.61,191.78L729.32,195.07L761.03,213.61L792.74,225.71L824.45,245.55L856.16,285.72L887.87,315.25L919.58,327.19L951.29,333.89L983,170.99" style="vector-effect: none; fill: none; stroke: rgb(244, 91, 91); stroke-opacity: 1; stroke-width: 2px; opacity: 1;"/></g><g class="points"/><g class="text"/></g><g class="trace scatter tracef295ab" style="stroke-miterlimit: 2; opacity: 1;"><g class="fills"/><g class="errorbars"/><g class="lines"><path class="js-line" d="M0,97.54L31.71,90L63.42,87.48L95.13,99.37L126.84,104.24L158.55,100.77L190.26,109.69L253.68,111.58L285.39,119.55L317.1,125.37L348.81,122.53L380.52,126.98L412.23,133.92L443.94,129.22L475.65,126.64L507.35,140.93L539.06,140.85L570.77,116.42L602.48,146.07L634.19,155.19L665.9,169.06L697.61,186.47L729.32,187.78L761.03,204.52L792.74,217.93L824.45,238.32L856.16,341.21L919.58,344.74L951.29,344.72L983,32.73" style="vector-effect: none; fill: none; stroke: rgb(145, 232, 225); stroke-opacity: 1; stroke-width: 2px; opacity: 1;"/></g><g class="points"/><g class="text"/></g><g class="trace scatter tracef0a59d" style="stroke-miterlimit: 2; opacity: 1;"><g class="fills"/><g class="errorbars"/><g class="lines"><path class="js-line" d="M0,94.77L31.71,83.6L63.42,88.24L126.84,100.76L158.55,98.75L190.26,108.06L221.97,106.83L253.68,111.19L285.39,117.37L317.1,120.91L348.81,117.92L380.52,131.43L412.23,130.56L443.94,128.41L475.65,124.68L507.35,142.41L539.06,138.62L570.77,121.82L602.48,143.07L634.19,151.18L665.9,169.16L697.61,189.79L729.32,191.35L792.74,221.44L824.45,241.99L856.16,293.52L887.87,318.81L919.58,329.67L951.29,335.68L983,171.79" style="vector-effect: none; fill: none; stroke: rgb(124, 181, 236); stroke-opacity: 1; stroke-width: 2px; opacity: 1;"/></g><g class="points"/><g class="text"/></g><g class="trace scatter trace6ea74a" style="stroke-miterlimit: 2; opacity: 1;"><g class="fills"/><g class="errorbars"/><g class="lines"><path class="js-line" d="M0,92.55L31.71,87.07L63.42,87.52L126.84,101.54L158.55,97.59L190.26,109.95L221.97,107.47L253.68,114.55L285.39,120.62L317.1,123.71L348.81,119.38L380.52,132.19L412.23,132.71L443.94,131.1L475.65,125.79L507.35,145.92L539.06,140.3L570.77,120.59L602.48,145.75L634.19,155.59L665.9,171.63L697.61,190.46L729.32,190.46L792.74,222.29L824.45,241.14L856.16,341.21L887.87,342.99L919.58,344.67L951.29,344.77L983,24.13" style="vector-effect: none; fill: none; stroke: rgb(67, 67, 72); stroke-opacity: 1; stroke-width: 2px; opacity: 1;"/></g><g class="points"/><g class="text"/></g><g class="trace scatter trace248399" style="stroke-miterlimit: 2; opacity: 1;"><g class="fills"/><g class="errorbars"/><g class="lines"><path class="js-line" d="M0,95.72L31.71,84.49L63.42,85.62L95.13,96.23L126.84,100.31L158.55,97.08L190.26,108.7L221.97,107.37L253.68,112.33L285.39,117.63L317.1,121.45L348.81,121.36L380.52,129.17L412.23,129.81L443.94,127.33L475.65,128.33L507.35,141.58L539.06,137.65L570.77,127.1L602.48,143.98L634.19,154.07L665.9,169.96L697.61,192.18L729.32,193.26L761.03,212.95L792.74,224.77L824.45,245.62L856.16,340.7L887.87,342.95L919.58,344.56L951.29,344.61L983,22.29" style="vector-effect: none; fill: none; stroke: rgb(144, 237, 125); stroke-opacity: 1; stroke-width: 2px; opacity: 1;"/></g><g class="points"/><g class="text"/></g><g class="trace scatter trace178b95" style="stroke-miterlimit: 2; opacity: 1;"><g class="fills"/><g class="errorbars"/><g class="lines"><path class="js-line" d="M0,98.66L31.71,89.72L63.42,81.82L95.13,103.26L126.84,105.02L158.55,98.17L190.26,107.53L221.97,110.67L253.68,107.67L285.39,117.61L317.1,125.98L348.81,122.54L380.52,121.97L412.23,133.41L443.94,127.45L475.65,122.05L507.35,140.05L539.06,141.06L570.77,130.52L602.48,146.76L634.19,155.03L665.9,169.88L697.61,187.02L729.32,189.84L761.03,206.69L792.74,218.6L824.45,236.89L856.16,341.54L887.87,343.12L919.58,344.65L951.29,344.67L983,34.4" style="vector-effect: none; fill: none; stroke: rgb(247, 163, 92); stroke-opacity: 1; stroke-width: 2px; opacity: 1;"/></g><g class="points"/><g class="text"/></g><g class="trace scatter tracec6da5a" style="stroke-miterlimit: 2; opacity: 1;"><g class="fills"/><g class="errorbars"/><g class="lines"><path class="js-line" d="M0,94.78L31.71,83.06L63.42,84.4L95.13,94.26L126.84,98.4L158.55,95L190.26,108.01L221.97,105.84L253.68,111.75L285.39,116.58L317.1,120.11L348.81,120.77L380.52,128.85L412.23,129L443.94,126.98L475.65,129.28L507.35,142.43L539.06,138.03L570.77,124.94L602.48,142.16L634.19,153.39L665.9,171.08L697.61,192.85L729.32,194.28L761.03,214.38L792.74,225.66L824.45,247.29L856.16,286.37L887.87,314.95L919.58,326.8L951.29,334.01L983,169.76" style="vector-effect: none; fill: none; stroke: rgb(128, 133, 233); stroke-opacity: 1; stroke-width: 2px; opacity: 1;"/></g><g class="points"/><g class="text"/></g><g class="trace scatter trace056587" style="stroke-miterlimit: 2; opacity: 1;"><g class="fills"/><g class="errorbars"/><g class="lines"><path class="js-line" d="M0,95.23L31.71,83.44L63.42,84.92L95.13,96.58L126.84,99.96L158.55,97.64L190.26,108.69L221.97,106.97L253.68,110.51L285.39,116.27L317.1,120.88L348.81,120.82L380.52,128.18L412.23,129.65L443.94,126.01L475.65,124.95L507.35,142.06L539.06,138.85L570.77,118.47L602.48,143.27L634.19,151.84L665.9,170.18L697.61,192.46L729.32,196L761.03,213.14L792.74,228.59L824.45,245.31L856.16,287.13L887.87,315.08L919.58,327.36L951.29,334.27L983,170.25" style="vector-effect: none; fill: none; stroke: rgb(241, 92, 128); stroke-opacity: 1; stroke-width: 2px; opacity: 1;"/></g><g class="points"/><g class="text"/></g><g class="trace scatter trace29d807" style="stroke-miterlimit: 2; opacity: 1;"><g class="fills"/><g class="errorbars"/><g class="lines"><path class="js-line" d="M0,94.17L31.71,85.53L63.42,82.64L95.13,97.1L126.84,99.69L158.55,97.55L190.26,109.61L221.97,106.55L253.68,108.6L285.39,114.33L317.1,121.29L348.81,120.54L380.52,125.99L412.23,129.27L443.94,124.88L475.65,127.63L507.35,140.26L539.06,138.27L570.77,127.16L602.48,144.25L634.19,154.56L665.9,169.97L697.61,188.12L729.32,194L761.03,211.46L792.74,225.87L824.45,246.45L856.16,289.97L887.87,316.26L919.58,328.27L951.29,334.48L983,170.73" style="vector-effect: none; fill: none; stroke: rgb(228, 211, 84); stroke-opacity: 1; stroke-width: 2px; opacity: 1;"/></g><g class="points"/><g class="text"/></g><g class="trace scatter trace146392" style="stroke-miterlimit: 2; opacity: 1;"><g class="fills"/><g class="errorbars"/><g class="lines"><path class="js-line" d="M0,94.99L31.71,87.51L63.42,90.07L95.13,94.95L126.84,101.97L158.55,99.94L190.26,108.56L221.97,109.08L253.68,111.42L285.39,119.34L317.1,122.94L348.81,117.55L380.52,131.34L412.23,131.55L443.94,129.32L475.65,124.17L507.35,142.99L539.06,139.46L570.77,136.88L634.19,150.67L665.9,169.01L697.61,189.76L729.32,191.48L761.03,205.28L792.74,221.63L824.45,238.94L856.16,340.96L919.58,344.65L951.29,344.7L983,27.35" style="vector-effect: none; fill: none; stroke: rgb(43, 144, 143); stroke-opacity: 1; stroke-width: 2px; opacity: 1;"/></g><g class="points"/><g class="text"/></g><g class="trace scatter trace8dc724" style="stroke-miterlimit: 2; opacity: 1;"><g class="fills"/><g class="errorbars"/><g class="lines"><path class="js-line" d="M0,96.63L31.71,82.57L63.42,84.84L95.13,95.81L126.84,100.47L158.55,96.48L190.26,108.7L221.97,107.47L253.68,111.1L285.39,117.31L317.1,120.52L348.81,120.21L380.52,128.83L412.23,130.15L443.94,126.4L475.65,129.08L507.35,140.62L539.06,139.89L570.77,130.13L602.48,144.88L634.19,155.04L665.9,171.21L697.61,194.68L729.32,193.8L761.03,214.33L792.74,226.83L824.45,237.29L856.16,340.67L887.87,343.02L919.58,344.67L951.29,344.61L983,22.13" style="vector-effect: none; fill: none; stroke: rgb(244, 91, 91); stroke-opacity: 1; stroke-width: 2px; opacity: 1;"/></g><g class="points"/><g class="text"/></g><g class="trace scatter tracef44e40" style="stroke-miterlimit: 2; opacity: 1;"><g class="fills"/><g class="errorbars"/><g class="lines"><path class="js-line" d="M0,95.18L31.71,84.84L63.42,85.86L95.13,95.55L126.84,101.71L158.55,97.57L190.26,109.09L221.97,108.53L253.68,111.65L317.1,121.77L348.81,120.27L380.52,129.25L412.23,129.37L475.65,126.95L507.35,141.17L539.06,138.77L570.77,132.98L602.48,143.1L634.19,154.31L665.9,170.16L697.61,192.12L729.32,194.34L761.03,211.87L792.74,223.99L824.45,244.76L856.16,340.77L887.87,342.8L919.58,344.61L951.29,344.62L983,23.28" style="vector-effect: none; fill: none; stroke: rgb(145, 232, 225); stroke-opacity: 1; stroke-width: 2px; opacity: 1;"/></g><g class="points"/><g class="text"/></g><g class="trace scatter trace9abeb4" style="stroke-miterlimit: 2; opacity: 1;"><g class="fills"/><g class="errorbars"/><g class="lines"><path class="js-line" d="M0,93.99L31.71,86.76L63.42,83.29L95.13,96.48L126.84,100.36L158.55,94.95L190.26,108.91L221.97,109.68L253.68,109.57L285.39,115.45L317.1,122.34L348.81,121.68L380.52,127.13L412.23,131.27L443.94,126.66L475.65,128.83L507.35,140.29L539.06,139.16L570.77,125.16L602.48,144.36L634.19,154.49L665.9,169.97L697.61,188.83L729.32,191.98L761.03,210.15L792.74,223.41L824.45,243L856.16,287.74L887.87,315.26L919.58,327.49L951.29,334.21L983,171.88" style="vector-effect: none; fill: none; stroke: rgb(124, 181, 236); stroke-opacity: 1; stroke-width: 2px; opacity: 1;"/></g><g class="points"/><g class="text"/></g><g class="trace scatter traceba2bca" style="stroke-miterlimit: 2; opacity: 1;"><g class="fills"/><g class="errorbars"/><g class="lines"><path class="js-line" d="M0,96.46L31.71,86.51L63.42,85.35L95.13,97.08L126.84,100.63L158.55,97.26L190.26,109.45L221.97,108.21L253.68,111.08L285.39,116.02L317.1,119.11L348.81,116.35L380.52,127.37L412.23,130.17L443.94,127.79L475.65,127.7L507.35,141.06L539.06,140.39L570.77,135.61L634.19,154.46L665.9,170.46L697.61,191.13L729.32,192.55L761.03,210.78L792.74,224.27L824.45,242.96L856.16,341.11L919.58,344.73L951.29,344.73L983,24.57" style="vector-effect: none; fill: none; stroke: rgb(67, 67, 72); stroke-opacity: 1; stroke-width: 2px; opacity: 1;"/></g><g class="points"/><g class="text"/></g><g class="trace scatter traceb0af2a" style="stroke-miterlimit: 2; opacity: 1;"><g class="fills"/><g class="errorbars"/><g class="lines"><path class="js-line" d="M0,96.04L31.71,90.26L63.42,89.19L126.84,104.31L158.55,102.21L190.26,109.67L221.97,109.29L253.68,111.75L285.39,119.35L317.1,124.46L348.81,117.82L380.52,130.51L412.23,132.73L443.94,129.81L475.65,123.33L507.35,142.02L539.06,139.42L570.77,134.19L602.48,144.91L634.19,155.41L665.9,168.27L697.61,186.6L729.32,187.29L792.74,218.6L824.45,237.18L856.16,341.35L887.87,343.14L919.58,344.61L951.29,344.68L983,32.89" style="vector-effect: none; fill: none; stroke: rgb(144, 237, 125); stroke-opacity: 1; stroke-width: 2px; opacity: 1;"/></g><g class="points"/><g class="text"/></g><g class="trace scatter tracee10ccf" style="stroke-miterlimit: 2; opacity: 1;"><g class="fills"/><g class="errorbars"/><g class="lines"><path class="js-line" d="M0,96.09L31.71,87.44L63.42,85.06L95.13,98.56L126.84,101.8L158.55,97.63L190.26,109.83L221.97,108.14L253.68,110.47L317.1,123.26L348.81,119.84L380.52,127.87L412.23,130.83L443.94,127.7L475.65,126.43L507.35,141.39L539.06,140.11L570.77,125.93L602.48,144.53L634.19,154.61L665.9,170.49L697.61,190.87L729.32,192.5L761.03,209.13L792.74,224.27L824.45,244.39L856.16,341.24L919.58,344.68L951.29,344.6L983,24.92" style="vector-effect: none; fill: none; stroke: rgb(247, 163, 92); stroke-opacity: 1; stroke-width: 2px; opacity: 1;"/></g><g class="points"/><g class="text"/></g><g class="trace scatter trace5a2be0" style="stroke-miterlimit: 2; opacity: 1;"><g class="fills"/><g class="errorbars"/><g class="lines"><path class="js-line" d="M0,96.77L31.71,85.92L63.42,85.89L95.13,98.4L126.84,102.09L158.55,97.56L190.26,108.35L253.68,111.41L285.39,117.86L317.1,122.25L348.81,120.86L380.52,127.18L412.23,132.23L443.94,128.25L475.65,129.3L507.35,140.06L539.06,140.67L570.77,114.21L602.48,144.68L634.19,154L665.9,170.9L697.61,193.21L729.32,193.1L761.03,211.91L792.74,228.11L824.45,239.64L856.16,341L919.58,344.7L951.29,344.66L983,26.23" style="vector-effect: none; fill: none; stroke: rgb(128, 133, 233); stroke-opacity: 1; stroke-width: 2px; opacity: 1;"/></g><g class="points"/><g class="text"/></g><g class="trace scatter traceecf976" style="stroke-miterlimit: 2; opacity: 1;"><g class="fills"/><g class="errorbars"/><g class="lines"><path class="js-line" d="M0,93.77L31.71,90.66L63.42,82.12L95.13,100.06L126.84,102.6L158.55,103.11L190.26,110.2L253.68,107.68L285.39,118.31L317.1,124.53L348.81,120.81L380.52,123.27L412.23,134.78L443.94,125.88L475.65,119.69L507.35,141.74L539.06,138.89L570.77,139.9L602.48,146.96L634.19,157.05L665.9,168.97L697.61,184.91L729.32,191.65L761.03,206.28L792.74,225.76L824.45,235.11L856.16,341.38L919.58,344.68L951.29,344.74L983,30.44" style="vector-effect: none; fill: none; stroke: rgb(241, 92, 128); stroke-opacity: 1; stroke-width: 2px; opacity: 1;"/></g><g class="points"/><g class="text"/></g><g class="trace scatter trace91b461" style="stroke-miterlimit: 2; opacity: 1;"><g class="fills"/><g class="errorbars"/><g class="lines"><path class="js-line" d="M0,94.26L31.71,82.34L63.42,84.07L95.13,94.65L126.84,98.6L158.55,97.19L190.26,109.08L221.97,105.46L253.68,110.4L285.39,116.55L317.1,119.24L348.81,120.43L380.52,128.01L412.23,128.43L443.94,125.17L475.65,126.08L507.35,140.25L539.06,138.02L570.77,127.32L602.48,142.07L634.19,151.29L665.9,170.15L697.61,193.61L729.32,195.03L761.03,215.39L792.74,230.42L824.45,242.66L856.16,288.11L887.87,315.93L919.58,327.42L951.29,334.27L983,170.77" style="vector-effect: none; fill: none; stroke: rgb(228, 211, 84); stroke-opacity: 1; stroke-width: 2px; opacity: 1;"/></g><g class="points"/><g class="text"/></g><g class="trace scatter trace93f8ab" style="stroke-miterlimit: 2; opacity: 1;"><g class="fills"/><g class="errorbars"/><g class="lines"><path class="js-line" d="M0,97.11L31.71,96.98L63.42,71.94L95.13,106.46L126.84,105.4L158.55,99.18L190.26,108.27L221.97,112.11L253.68,99.4L285.39,112.32L317.1,127.62L348.81,125.41L380.52,110.68L412.23,134.98L443.94,120.54L475.65,125.17L507.35,138.14L539.06,141.94L570.77,134.6L602.48,149.36L634.19,159.08L665.9,168.82L697.61,179.41L761.03,212.9L792.74,223.99L824.45,232.1L856.16,341.2L887.87,343.45L919.58,344.82L951.29,344.75L983,39.38" style="vector-effect: none; fill: none; stroke: rgb(43, 144, 143); stroke-opacity: 1; stroke-width: 2px; opacity: 1;"/></g><g class="points"/><g class="text"/></g><g class="trace scatter trace9357e5" style="stroke-miterlimit: 2; opacity: 1;"><g class="fills"/><g class="errorbars"/><g class="lines"><path class="js-line" d="M0,95.11L31.71,91.58L63.42,80.66L95.13,101.66L126.84,103.4L158.55,101.03L190.26,109.16L221.97,109.83L253.68,105.87L317.1,124.97L348.81,122.91L380.52,119.62L412.23,133.71L443.94,123.09L475.65,125.03L507.35,140.32L539.06,140.24L570.77,127.96L602.48,146.63L634.19,153.66L665.9,168.19L697.61,184.72L729.32,193.5L761.03,210.41L792.74,225.85L824.45,243.29L856.16,341.44L919.58,344.75L951.29,344.72L983,32.91" style="vector-effect: none; fill: none; stroke: rgb(244, 91, 91); stroke-opacity: 1; stroke-width: 2px; opacity: 1;"/></g><g class="points"/><g class="text"/></g><g class="trace scatter trace508e57" style="stroke-miterlimit: 2; opacity: 1;"><g class="fills"/><g class="errorbars"/><g class="lines"><path class="js-line" d="M0,96.02L31.71,85.3L63.42,82.84L95.13,95.86L126.84,99.71L158.55,96.22L190.26,109.36L221.97,107.15L253.68,109.95L285.39,116.69L317.1,122.1L348.81,120.84L380.52,126.78L412.23,129.35L443.94,126.44L475.65,123.62L507.35,140.71L539.06,138.6L570.77,131.31L634.19,155L665.9,170.62L697.61,190.11L729.32,193.09L761.03,212.58L792.74,224.84L824.45,241.22L856.16,287.87L887.87,315.88L919.58,327.54L951.29,334.3L983,170.28" style="vector-effect: none; fill: none; stroke: rgb(145, 232, 225); stroke-opacity: 1; stroke-width: 2px; opacity: 1;"/></g><g class="points"/><g class="text"/></g><g class="trace scatter trace7ce3d0" style="stroke-miterlimit: 2; opacity: 1;"><g class="fills"/><g class="errorbars"/><g class="lines"><path class="js-line" d="M0,95.37L31.71,85.85L63.42,83.44L95.13,96.9L126.84,99.91L158.55,96.86L190.26,108.92L221.97,107.34L253.68,109.7L285.39,115.25L317.1,121.73L348.81,120.2L380.52,126.98L412.23,129.04L443.94,126.51L475.65,128.52L507.35,141.68L539.06,138.63L570.77,121.74L602.48,143.43L634.19,153.82L665.9,169.85L697.61,189.11L729.32,193.87L761.03,212.03L792.74,223.72L824.45,245.3L856.16,289.85L887.87,316.39L919.58,328.2L951.29,334.65L983,170.73" style="vector-effect: none; fill: none; stroke: rgb(124, 181, 236); stroke-opacity: 1; stroke-width: 2px; opacity: 1;"/></g><g class="points"/><g class="text"/></g><g class="trace scatter trace8a2eb3" style="stroke-miterlimit: 2; opacity: 1;"><g class="fills"/><g class="errorbars"/><g class="lines"><path class="js-line" d="M0,93.81L31.71,84.41L63.42,83.62L95.13,96.51L126.84,100.54L158.55,97.68L190.26,107.99L221.97,106.92L253.68,109.86L285.39,117.13L317.1,120.8L348.81,120.66L380.52,126.41L412.23,129.78L443.94,126.39L475.65,126.32L507.35,140.57L539.06,139.02L570.77,129.65L602.48,143.34L634.19,153.14L665.9,169.77L697.61,189.31L729.32,192.95L761.03,212.17L792.74,224.23L824.45,245.66L856.16,288.17L887.87,316.02L919.58,327.58L951.29,334.29L983,170.93" style="vector-effect: none; fill: none; stroke: rgb(67, 67, 72); stroke-opacity: 1; stroke-width: 2px; opacity: 1;"/></g><g class="points"/><g class="text"/></g><g class="trace scatter tracea0b3fd" style="stroke-miterlimit: 2; opacity: 1;"><g class="fills"/><g class="errorbars"/><g class="lines"><path class="js-line" d="M0,95.87L31.71,86.53L63.42,83.92L95.13,96.8L126.84,100.7L158.55,97.66L190.26,109.8L221.97,106.89L253.68,110.9L317.1,122.15L348.81,119.61L380.52,128.44L412.23,130.96L443.94,127.19L475.65,125.27L507.35,142.74L539.06,139.59L570.77,135.36L602.48,144.54L634.19,155.28L665.9,170.68L697.61,190.36L729.32,192.15L761.03,210.41L792.74,224.08L824.45,243.12L856.16,341.25L919.58,344.64L951.29,344.64L983,25.72" style="vector-effect: none; fill: none; stroke: rgb(144, 237, 125); stroke-opacity: 1; stroke-width: 2px; opacity: 1;"/></g><g class="points"/><g class="text"/></g><g class="trace scatter trace9aa1bb" style="stroke-miterlimit: 2; opacity: 1;"><g class="fills"/><g class="errorbars"/><g class="lines"><path class="js-line" d="M0,96.88L31.71,90.89L63.42,78.29L95.13,101.26L126.84,101.91L158.55,98.11L190.26,108.41L221.97,108.97L253.68,104.67L285.39,113.69L317.1,124.37L348.81,120.37L380.52,118.51L412.23,132.11L443.94,123.57L475.65,128.54L507.35,138.96L539.06,140.72L570.77,121.63L602.48,146.56L634.19,155.6L697.61,182.41L729.32,193.74L761.03,211.58L792.74,224.1L824.45,240.76L856.16,291.62L887.87,318.55L919.58,329.43L951.29,335.41L983,173.99" style="vector-effect: none; fill: none; stroke: rgb(247, 163, 92); stroke-opacity: 1; stroke-width: 2px; opacity: 1;"/></g><g class="points"/><g class="text"/></g><g class="trace scatter trace84a289" style="stroke-miterlimit: 2; opacity: 1;"><g class="fills"/><g class="errorbars"/><g class="lines"><path class="js-line" d="M0,94.3L31.71,86.83L63.42,92.52L95.13,95.38L126.84,103.19L158.55,100.64L190.26,109.44L221.97,109.01L253.68,113.73L285.39,121L317.1,123.5L348.81,118.05L380.52,134.62L412.23,130.02L443.94,131.16L475.65,119.79L507.35,141.65L539.06,140.03L570.77,135.03L634.19,154.34L665.9,169.64L697.61,190.32L729.32,189.75L761.03,203.48L792.74,220.72L824.45,236.11L856.16,340.89L919.58,344.68L951.29,344.7L983,29.34" style="vector-effect: none; fill: none; stroke: rgb(128, 133, 233); stroke-opacity: 1; stroke-width: 2px; opacity: 1;"/></g><g class="points"/><g class="text"/></g><g class="trace scatter traceb36457" style="stroke-miterlimit: 2; opacity: 1;"><g class="fills"/><g class="errorbars"/><g class="lines"><path class="js-line" d="M0,93.62L31.71,90.02L63.42,91.61L95.13,96.86L126.84,104.17L158.55,103.17L190.26,108.81L221.97,109.8L253.68,112.06L285.39,120.65L317.1,124.97L348.81,119.38L380.52,132.25L412.23,131.34L443.94,129.63L475.65,125.51L507.35,141.74L539.06,140.18L570.77,127.48L602.48,146.06L634.19,153.02L665.9,167.87L697.61,185.74L729.32,189.41L761.03,204.78L792.74,222L824.45,232.16L856.16,340.94L887.87,342.91L919.58,344.54L951.29,344.58L983,34.64" style="vector-effect: none; fill: none; stroke: rgb(241, 92, 128); stroke-opacity: 1; stroke-width: 2px; opacity: 1;"/></g><g class="points"/><g class="text"/></g><g class="trace scatter traceb900f3" style="stroke-miterlimit: 2; opacity: 1;"><g class="fills"/><g class="errorbars"/><g class="lines"><path class="js-line" d="M0,93.13L31.71,85.97L63.42,85.97L95.13,95.33L126.84,99.24L158.55,97.01L190.26,107.59L221.97,106.59L253.68,108.88L317.1,121.07L348.81,118.21L380.52,127.55L412.23,128.92L443.94,125.64L475.65,126.37L507.35,141.02L539.06,138.18L570.77,134.65L602.48,143.5L634.19,154.63L665.9,169.08L697.61,186.98L729.32,195.01L761.03,210.2L792.74,227.73L824.45,243.91L856.16,287.46L887.87,316.31L919.58,328.11L951.29,334.59L983,172.4" style="vector-effect: none; fill: none; stroke: rgb(228, 211, 84); stroke-opacity: 1; stroke-width: 2px; opacity: 1;"/></g><g class="points"/><g class="text"/></g><g class="trace scatter tracebc67a4" style="stroke-miterlimit: 2; opacity: 1;"><g class="fills"/><g class="errorbars"/><g class="lines"><path class="js-line" d="M0,94.11L31.71,85.5L63.42,81.63L95.13,96.97L126.84,99.49L158.55,96.05L190.26,109.28L221.97,105.76L253.68,109.54L285.39,114.27L317.1,121.02L348.81,120.88L380.52,126.33L412.23,129.69L443.94,125.65L475.65,127.81L507.35,140.27L539.06,138.93L570.77,127.83L602.48,144.62L634.19,155.06L665.9,170.58L697.61,187.98L729.32,193.97L761.03,212.59L792.74,223.9L824.45,243.85L856.16,291.28L887.87,317.36L919.58,328.75L951.29,334.84L983,170.94" style="vector-effect: none; fill: none; stroke: rgb(43, 144, 143); stroke-opacity: 1; stroke-width: 2px; opacity: 1;"/></g><g class="points"/><g class="text"/></g><g class="trace scatter trace40e59e" style="stroke-miterlimit: 2; opacity: 1;"><g class="fills"/><g class="errorbars"/><g class="lines"><path class="js-line" d="M0,95.42L63.42,78.9L95.13,98.06L126.84,100.03L158.55,97.09L190.26,109.13L221.97,107.7L253.68,108.01L285.39,113.08L317.1,121.27L348.81,122.1L380.52,124.43L412.23,129.38L443.94,123.26L475.65,125.81L507.35,140.49L539.06,140.07L570.77,130.35L602.48,145.19L634.19,155.46L665.9,170.39L697.61,192.26L729.32,198.1L761.03,215.85L792.74,231.21L824.45,243.62L856.16,340.82L887.87,343.22L919.58,344.72L951.29,344.62L983,24.12" style="vector-effect: none; fill: none; stroke: rgb(244, 91, 91); stroke-opacity: 1; stroke-width: 2px; opacity: 1;"/></g><g class="points"/><g class="text"/></g><g class="trace scatter trace5c7483" style="stroke-miterlimit: 2; opacity: 1;"><g class="fills"/><g class="errorbars"/><g class="lines"><path class="js-line" d="M0,92.81L31.71,83.95L63.42,81.24L95.13,94.19L126.84,98.28L158.55,95.87L190.26,109.96L221.97,104.57L253.68,108.81L285.39,111.83L317.1,120.69L348.81,120.83L380.52,125.71L412.23,128.16L443.94,123.53L475.65,125.09L507.35,141.58L539.06,139.17L570.77,124.08L602.48,145.21L634.19,155.22L665.9,171.32L697.61,192.98L729.32,199.68L761.03,217.22L792.74,232.98L824.45,242.62L856.16,288.54L887.87,316.38L919.58,328.02L951.29,334.41L983,169.31" style="vector-effect: none; fill: none; stroke: rgb(145, 232, 225); stroke-opacity: 1; stroke-width: 2px; opacity: 1;"/></g><g class="points"/><g class="text"/></g><g class="trace scatter tracea90d27" style="stroke-miterlimit: 2; opacity: 1;"><g class="fills"/><g class="errorbars"/><g class="lines"><path class="js-line" d="M0,93.42L31.71,87.31L63.42,84.37L95.13,96.67L126.84,100.57L158.55,97.83L190.26,109.07L221.97,106.68L253.68,107.72L285.39,113.8L317.1,121.54L348.81,119.94L380.52,125.93L412.23,130L443.94,124.05L475.65,127.77L507.35,140.85L570.77,136.75L602.48,143.7L634.19,152.03L665.9,169.05L697.61,183.14L729.32,194.69L761.03,211.67L792.74,226.65L824.45,244.84L856.16,286.91L887.87,316.18L919.58,328.02L951.29,334.34L983,170.93" style="vector-effect: none; fill: none; stroke: rgb(124, 181, 236); stroke-opacity: 1; stroke-width: 2px; opacity: 1;"/></g><g class="points"/><g class="text"/></g><g class="trace scatter tracecc3ac0" style="stroke-miterlimit: 2; opacity: 1;"><g class="fills"/><g class="errorbars"/><g class="lines"><path class="js-line" d="M0,96.17L31.71,94.98L63.42,74.51L95.13,104.93L126.84,102.92L158.55,99.29L190.26,108.15L221.97,110.86L253.68,100.6L285.39,111.85L317.1,124.89L348.81,124.67L380.52,112.68L412.23,133.61L443.94,120.63L475.65,127.87L507.35,138.21L539.06,138.89L570.77,137.94L634.19,157.32L665.9,167.58L729.32,194.06L761.03,212.77L792.74,223.25L824.45,245.51L856.16,341.42L887.87,343.14L919.58,344.76L951.29,344.8L983,37.73" style="vector-effect: none; fill: none; stroke: rgb(67, 67, 72); stroke-opacity: 1; stroke-width: 2px; opacity: 1;"/></g><g class="points"/><g class="text"/></g><g class="trace scatter trace146498" style="stroke-miterlimit: 2; opacity: 1;"><g class="fills"/><g class="errorbars"/><g class="lines"><path class="js-line" d="M0,95.43L31.71,84.54L63.42,81.27L95.13,96.7L126.84,98.8L158.55,97.33L190.26,108.68L221.97,107.36L253.68,109.75L285.39,116.26L317.1,121.51L348.81,117.59L380.52,126.23L412.23,130.72L443.94,125.44L475.65,127.83L507.35,141.2L539.06,138.19L570.77,120.38L602.48,144.3L634.19,153.73L665.9,171.28L697.61,192.37L729.32,195.62L761.03,216.84L792.74,227.06L824.45,243.31L856.16,287.21L887.87,315.38L919.58,327.19L951.29,334.35L983,169.49" style="vector-effect: none; fill: none; stroke: rgb(144, 237, 125); stroke-opacity: 1; stroke-width: 2px; opacity: 1;"/></g><g class="points"/><g class="text"/></g><g class="trace scatter tracec132f1" style="stroke-miterlimit: 2; opacity: 1;"><g class="fills"/><g class="errorbars"/><g class="lines"><path class="js-line" d="M0,93.64L31.71,82.52L63.42,84.19L95.13,93.75L126.84,99.56L158.55,94.92L190.26,109.57L221.97,104.71L253.68,110.53L285.39,114.71L317.1,120.57L348.81,120.3L380.52,128.64L475.65,124.28L507.35,141.72L539.06,138.68L570.77,124.61L602.48,142.86L634.19,154.08L665.9,171.32L697.61,191.78L729.32,195.83L761.03,214.41L792.74,226.91L824.45,248.1L856.16,289.4L887.87,316.82L919.58,328.35L951.29,334.55L983,169.46" style="vector-effect: none; fill: none; stroke: rgb(247, 163, 92); stroke-opacity: 1; stroke-width: 2px; opacity: 1;"/></g><g class="points"/><g class="text"/></g><g class="trace scatter tracee8be6b" style="stroke-miterlimit: 2; opacity: 1;"><g class="fills"/><g class="errorbars"/><g class="lines"><path class="js-line" d="M0,96.44L31.71,89.92L63.42,79.64L95.13,98.86L126.84,101.86L158.55,98.26L190.26,107.63L221.97,108.87L253.68,105.03L285.39,117.24L317.1,121.73L348.81,120.4L380.52,120.96L412.23,131.76L443.94,123.25L475.65,127.22L507.35,137.92L539.06,138.12L570.77,129.33L602.48,144.5L634.19,155.78L665.9,168.56L697.61,185.16L729.32,190.6L761.03,210.86L792.74,220.36L824.45,235.97L856.16,295.08L887.87,320.27L919.58,330.29L951.29,336.19L983,173.26" style="vector-effect: none; fill: none; stroke: rgb(128, 133, 233); stroke-opacity: 1; stroke-width: 2px; opacity: 1;"/></g><g class="points"/><g class="text"/></g><g class="trace scatter tracea0d78c" style="stroke-miterlimit: 2; opacity: 1;"><g class="fills"/><g class="errorbars"/><g class="lines"><path class="js-line" d="M0,94.43L31.71,85.16L63.42,82.87L95.13,96.55L126.84,99.41L158.55,97.07L190.26,109.94L221.97,106.56L253.68,110.78L285.39,113.69L317.1,120.98L348.81,121.12L380.52,127.04L412.23,129.05L443.94,125.78L475.65,125.14L507.35,142.06L539.06,139.16L570.77,124.45L602.48,144.36L634.19,155.73L665.9,171.21L697.61,193.04L729.32,198.1L761.03,215.69L824.45,244.88L856.16,341.23L919.58,344.68L951.29,344.68L983,22.41" style="vector-effect: none; fill: none; stroke: rgb(241, 92, 128); stroke-opacity: 1; stroke-width: 2px; opacity: 1;"/></g><g class="points"/><g class="text"/></g><g class="trace scatter tracea99e70" style="stroke-miterlimit: 2; opacity: 1;"><g class="fills"/><g class="errorbars"/><g class="lines"><path class="js-line" d="M0,95.09L31.71,85.99L63.42,83.73L95.13,95.55L126.84,101.1L158.55,98.23L190.26,109.18L221.97,107.49L253.68,111.58L285.39,115.97L317.1,121.33L348.81,120.34L380.52,128.39L412.23,130.52L443.94,128.37L475.65,123.33L507.35,142.37L539.06,140.23L570.77,128.51L602.48,144.62L634.19,153.8L665.9,171.15L697.61,191.34L729.32,194.25L761.03,211.08L792.74,227.07L824.45,247.23L856.16,341.3L887.87,342.99L919.58,344.69L951.29,344.7L983,23.03" style="vector-effect: none; fill: none; stroke: rgb(228, 211, 84); stroke-opacity: 1; stroke-width: 2px; opacity: 1;"/></g><g class="points"/><g class="text"/></g><g class="trace scatter trace38b911" style="stroke-miterlimit: 2; opacity: 1;"><g class="fills"/><g class="errorbars"/><g class="lines"><path class="js-line" d="M0,95.44L31.71,84.1L63.42,87.11L95.13,96.19L126.84,99.54L158.55,98.01L190.26,108.92L221.97,106.3L253.68,110.88L285.39,117.75L317.1,120.59L348.81,121L380.52,129.71L412.23,128.41L443.94,126.24L475.65,130.85L507.35,141.11L539.06,137.62L570.77,121.34L602.48,142.91L634.19,152.39L665.9,169.7L697.61,192.96L729.32,194.27L761.03,214.7L792.74,227.66L824.45,246.78L856.16,341.01L887.87,343.39L919.58,344.69L951.29,344.75L983,21.92" style="vector-effect: none; fill: none; stroke: rgb(43, 144, 143); stroke-opacity: 1; stroke-width: 2px; opacity: 1;"/></g><g class="points"/><g class="text"/></g><g class="trace scatter tracefa055d" style="stroke-miterlimit: 2; opacity: 1;"><g class="fills"/><g class="errorbars"/><g class="lines"><path class="js-line" d="M0,95.26L31.71,82.54L63.42,85.03L95.13,94.34L126.84,98.88L158.55,97.32L190.26,108.31L221.97,105.49L253.68,110.81L285.39,116.29L317.1,120.8L348.81,118.69L380.52,128.8L412.23,129.34L443.94,127.68L475.65,128.39L507.35,141.22L539.06,138.69L570.77,133.31L602.48,142.23L634.19,151.98L665.9,170.62L697.61,191.55L729.32,192.65L761.03,212.64L792.74,226.02L824.45,240.24L856.16,287.88L887.87,315.68L919.58,327.58L951.29,334.18L983,170.16" style="vector-effect: none; fill: none; stroke: rgb(244, 91, 91); stroke-opacity: 1; stroke-width: 2px; opacity: 1;"/></g><g class="points"/><g class="text"/></g><g class="trace scatter tracee6125b" style="stroke-miterlimit: 2; opacity: 1;"><g class="fills"/><g class="errorbars"/><g class="lines"><path class="js-line" d="M0,96.8L31.71,92.87L63.42,83.79L95.13,101.21L126.84,105.2L158.55,100.26L190.26,109.35L221.97,111.74L253.68,108.59L285.39,118.82L317.1,126.13L348.81,118.57L380.52,125.66L412.23,133.25L443.94,128.34L475.65,123.63L507.35,140.26L539.06,141.08L570.77,134.26L602.48,146.16L634.19,154.26L665.9,167.49L697.61,185.28L729.32,187.97L761.03,203.31L792.74,218.55L824.45,236.18L856.16,340.86L887.87,342.91L919.58,344.7L951.29,344.69L983,35.3" style="vector-effect: none; fill: none; stroke: rgb(145, 232, 225); stroke-opacity: 1; stroke-width: 2px; opacity: 1;"/></g><g class="points"/><g class="text"/></g><g class="trace scatter trace0d1719" style="stroke-miterlimit: 2; opacity: 1;"><g class="fills"/><g class="errorbars"/><g class="lines"><path class="js-line" d="M0,93.41L31.71,85.5L63.42,82.75L95.13,96.56L126.84,100.7L158.55,97.24L190.26,108.58L221.97,107.64L253.68,110.25L285.39,113.58L317.1,120.89L348.81,119.45L380.52,125.86L412.23,130.49L443.94,125.26L475.65,124.76L507.35,140.38L539.06,139.94L570.77,126L602.48,143.93L634.19,153.01L665.9,169.69L697.61,190.75L729.32,195.96L761.03,212.97L792.74,226.4L824.45,245.85L856.16,288.23L887.87,316.01L919.58,327.79L951.29,334.21L983,171.82" style="vector-effect: none; fill: none; stroke: rgb(124, 181, 236); stroke-opacity: 1; stroke-width: 2px; opacity: 1;"/></g><g class="points"/><g class="text"/></g><g class="trace scatter traceb0ba68" style="stroke-miterlimit: 2; opacity: 1;"><g class="fills"/><g class="errorbars"/><g class="lines"><path class="js-line" d="M0,94.92L63.42,80.57L95.13,96.98L126.84,100.41L158.55,97.22L190.26,109.22L221.97,107.11L253.68,108.72L285.39,113.21L317.1,121.85L348.81,120.85L412.23,128.86L443.94,124.39L475.65,123.92L507.35,140.28L539.06,139.62L570.77,137.86L602.48,144.61L634.19,155.97L665.9,169.92L697.61,190.86L729.32,195.58L761.03,213.83L792.74,226.91L824.45,248.67L856.16,341.28L887.87,343.01L919.58,344.67L951.29,344.71L983,23.84" style="vector-effect: none; fill: none; stroke: rgb(67, 67, 72); stroke-opacity: 1; stroke-width: 2px; opacity: 1;"/></g><g class="points"/><g class="text"/></g><g class="trace scatter traceb1803c" style="stroke-miterlimit: 2; opacity: 1;"><g class="fills"/><g class="errorbars"/><g class="lines"><path class="js-line" d="M0,93.95L31.71,87.95L63.42,84.02L95.13,97.63L126.84,100.94L158.55,100.28L190.26,107.64L221.97,106.85L253.68,106.91L285.39,114.86L317.1,121.83L348.81,119.54L380.52,123.4L412.23,131.19L443.94,125.43L475.65,122.54L507.35,140.33L539.06,138.55L570.77,141.5L602.48,144.68L634.19,156.2L665.9,168.53L697.61,182.57L729.32,192.7L761.03,208.46L792.74,222.48L824.45,242.75L856.16,289.4L887.87,317.21L919.58,328.69L951.29,334.97L983,172.84" style="vector-effect: none; fill: none; stroke: rgb(144, 237, 125); stroke-opacity: 1; stroke-width: 2px; opacity: 1;"/></g><g class="points"/><g class="text"/></g><g class="trace scatter trace8a06e2" style="stroke-miterlimit: 2; opacity: 1;"><g class="fills"/><g class="errorbars"/><g class="lines"><path class="js-line" d="M0,95.74L31.71,89.64L63.42,82.32L95.13,97.54L126.84,102.28L158.55,99.28L190.26,107.99L253.68,107.72L285.39,117.34L317.1,123.17L348.81,121.3L380.52,123.36L412.23,133.51L443.94,124.77L475.65,125.14L507.35,138.28L539.06,137.38L570.77,134.09L602.48,144.46L634.19,155.28L665.9,169.28L697.61,184.66L729.32,192.32L792.74,224.43L824.45,235.75L856.16,289.65L887.87,316.88L919.58,328.49L951.29,335.26L983,172.47" style="vector-effect: none; fill: none; stroke: rgb(247, 163, 92); stroke-opacity: 1; stroke-width: 2px; opacity: 1;"/></g><g class="points"/><g class="text"/></g><g class="trace scatter trace4b47b2" style="stroke-miterlimit: 2; opacity: 1;"><g class="fills"/><g class="errorbars"/><g class="lines"><path class="js-line" d="M0,93.92L63.42,86.17L95.13,96.37L126.84,101.83L158.55,100.4L190.26,109.82L221.97,107.89L253.68,109.56L285.39,118.19L317.1,124.65L348.81,118.29L380.52,128.51L412.23,131.89L443.94,128.61L475.65,121.21L507.35,142.06L539.06,140.27L570.77,136.78L602.48,146.5L634.19,155.69L665.9,168.92L697.61,190.64L729.32,194.08L761.03,204.78L792.74,226.44L824.45,237.99L856.16,340.99L887.87,343.25L919.58,344.67L951.29,344.69L983,27.37" style="vector-effect: none; fill: none; stroke: rgb(128, 133, 233); stroke-opacity: 1; stroke-width: 2px; opacity: 1;"/></g><g class="points"/><g class="text"/></g><g class="trace scatter trace42cf9d" style="stroke-miterlimit: 2; opacity: 1;"><g class="fills"/><g class="errorbars"/><g class="lines"><path class="js-line" d="M0,95.18L31.71,88.12L63.42,83.35L95.13,97.85L126.84,102.04L158.55,98.58L190.26,108.19L253.68,107.65L285.39,116.44L317.1,123L348.81,122.48L380.52,124.69L412.23,131.52L443.94,125.02L475.65,123.99L507.35,140.84L539.06,139.57L570.77,133.86L602.48,145.09L634.19,156.13L665.9,168.12L697.61,186.93L729.32,193.98L761.03,211.67L792.74,224.33L824.45,245.22L856.16,341.13L919.58,344.73L951.29,344.63L983,30.16" style="vector-effect: none; fill: none; stroke: rgb(241, 92, 128); stroke-opacity: 1; stroke-width: 2px; opacity: 1;"/></g><g class="points"/><g class="text"/></g><g class="trace scatter trace93f816" style="stroke-miterlimit: 2; opacity: 1;"><g class="fills"/><g class="errorbars"/><g class="lines"><path class="js-line" d="M0,93.6L63.42,85.84L95.13,94.75L126.84,99.99L158.55,100.35L190.26,109.16L221.97,107.64L253.68,107.48L285.39,118.59L317.1,123.1L348.81,118.54L380.52,126.15L412.23,131.29L475.65,123.46L507.35,141.67L539.06,140.06L570.77,133.62L602.48,145.67L634.19,156.28L665.9,170.21L697.61,187.36L729.32,194.51L761.03,207.16L792.74,226.43L824.45,234.35L856.16,284.53L887.87,315.06L919.58,327.29L951.29,334.39L983,173.96" style="vector-effect: none; fill: none; stroke: rgb(228, 211, 84); stroke-opacity: 1; stroke-width: 2px; opacity: 1;"/></g><g class="points"/><g class="text"/></g><g class="trace scatter traceced493" style="stroke-miterlimit: 2; opacity: 1;"><g class="fills"/><g class="errorbars"/><g class="lines"><path class="js-line" d="M0,94.7L31.71,84.19L63.42,86.98L95.13,96.31L126.84,100.08L158.55,97.71L190.26,107.8L221.97,107.39L253.68,110.16L285.39,117.13L317.1,120.95L348.81,119.89L380.52,129.31L412.23,129.49L443.94,126.58L475.65,130.14L507.35,141.99L539.06,138.26L570.77,138.92L602.48,142.07L634.19,149.96L665.9,169.6L697.61,191.13L729.32,192.94L761.03,213.08L792.74,224.94L824.45,241.49L856.16,340.86L887.87,343.11L919.58,344.74L951.29,344.63L983,22.71" style="vector-effect: none; fill: none; stroke: rgb(43, 144, 143); stroke-opacity: 1; stroke-width: 2px; opacity: 1;"/></g><g class="points"/><g class="text"/></g><g class="trace scatter tracece69c6" style="stroke-miterlimit: 2; opacity: 1;"><g class="fills"/><g class="errorbars"/><g class="lines"><path class="js-line" d="M0,94.7L31.71,83.44L63.42,84.7L95.13,94.73L126.84,99.09L158.55,97.61L190.26,109.74L221.97,106.17L253.68,111.81L285.39,116.75L317.1,120.71L348.81,121.21L380.52,129.44L412.23,129.22L443.94,127.22L475.65,128.72L507.35,142.4L539.06,137.95L570.77,136.98L602.48,142.4L634.19,153.94L665.9,171.1L697.61,193.09L729.32,192.98L761.03,213.53L792.74,226.34L824.45,244.35L856.16,340.94L887.87,342.95L919.58,344.64L951.29,344.58L983,18.15" style="vector-effect: none; fill: none; stroke: rgb(244, 91, 91); stroke-opacity: 1; stroke-width: 2px; opacity: 1;"/></g><g class="points"/><g class="text"/></g><g class="trace scatter trace3915c7" style="stroke-miterlimit: 2; opacity: 1;"><g class="fills"/><g class="errorbars"/><g class="lines"><path class="js-line" d="M0,94.68L31.71,84.52L63.42,79.37L95.13,95.5L126.84,98.78L158.55,94.12L190.26,109.55L221.97,104.55L253.68,107.7L285.39,112.2L317.1,120.13L348.81,121.51L380.52,125.08L412.23,128.7L443.94,123.85L475.65,129.84L507.35,140.4L539.06,138.12L570.77,123.29L602.48,143.98L634.19,155.37L665.9,171.28L697.61,189.65L729.32,197.22L761.03,216.59L792.74,228.03L824.45,247.95L856.16,291.51L887.87,317.55L919.58,328.7L951.29,334.81L983,168.95" style="vector-effect: none; fill: none; stroke: rgb(145, 232, 225); stroke-opacity: 1; stroke-width: 2px; opacity: 1;"/></g><g class="points"/><g class="text"/></g><g class="trace scatter traceeb50b1" style="stroke-miterlimit: 2; opacity: 1;"><g class="fills"/><g class="errorbars"/><g class="lines"><path class="js-line" d="M0,97L31.71,86.38L63.42,82.86L95.13,98.23L126.84,99.89L158.55,97.21L190.26,108.75L221.97,107.71L253.68,107.8L285.39,116.32L317.1,122.17L348.81,119.62L380.52,125.52L412.23,130.23L443.94,124.86L475.65,127.57L507.35,139.92L539.06,138.49L570.77,128L602.48,144.64L634.19,152.97L665.9,169.58L697.61,188.21L729.32,193.09L761.03,211.5L792.74,224.35L824.45,240.6L856.16,290.09L887.87,316.93L919.58,328.37L951.29,334.72L983,171.16" style="vector-effect: none; fill: none; stroke: rgb(124, 181, 236); stroke-opacity: 1; stroke-width: 2px; opacity: 1;"/></g><g class="points"/><g class="text"/></g><g class="trace scatter trace2a0896" style="stroke-miterlimit: 2; opacity: 1;"><g class="fills"/><g class="errorbars"/><g class="lines"><path class="js-line" d="M0,94.83L31.71,87.18L63.42,80.87L95.13,97.31L126.84,101.14L158.55,97.01L190.26,108.29L221.97,107.54L253.68,109.16L285.39,116.3L317.1,121.91L348.81,120.99L380.52,124.38L412.23,131.94L443.94,124.52L475.65,127.88L507.35,139.07L539.06,139L570.77,123.35L602.48,143.45L634.19,153.84L665.9,170.21L697.61,189.71L729.32,194.14L761.03,213.14L792.74,227.29L824.45,244.92L856.16,287.64L887.87,315.45L919.58,327.44L951.29,334.33L983,171.01" style="vector-effect: none; fill: none; stroke: rgb(67, 67, 72); stroke-opacity: 1; stroke-width: 2px; opacity: 1;"/></g><g class="points"/><g class="text"/></g><g class="trace scatter tracef68242" style="stroke-miterlimit: 2; opacity: 1;"><g class="fills"/><g class="errorbars"/><g class="lines"><path class="js-line" d="M0,94.94L31.71,90.56L63.42,82.15L95.13,99.87L126.84,102.22L158.55,99.83L190.26,109.05L221.97,109.18L253.68,106.43L317.1,123.42L348.81,121.24L380.52,120.68L412.23,131.92L443.94,124.75L475.65,126.6L507.35,139.71L539.06,140.31L570.77,129.88L602.48,145.42L634.19,152.71L665.9,169.09L697.61,183.13L729.32,192.47L792.74,223.46L824.45,243.41L856.16,287.33L887.87,316.18L919.58,328.12L951.29,334.72L983,174.37" style="vector-effect: none; fill: none; stroke: rgb(144, 237, 125); stroke-opacity: 1; stroke-width: 2px; opacity: 1;"/></g><g class="points"/><g class="text"/></g><g class="trace scatter traceecea55" style="stroke-miterlimit: 2; opacity: 1;"><g class="fills"/><g class="errorbars"/><g class="lines"><path class="js-line" d="M0,94.47L31.71,81.65L63.42,85.24L95.13,93.17L126.84,97.19L158.55,93.57L190.26,107.12L221.97,105.1L253.68,110.63L285.39,115.36L317.1,118.27L348.81,119.36L380.52,128.74L412.23,126.59L443.94,125.56L475.65,129.12L507.35,140.75L539.06,137.52L570.77,133.45L602.48,142.05L634.19,152.78L665.9,170.47L697.61,193.16L729.32,194.43L761.03,215.38L792.74,226.55L824.45,247.78L856.16,288.59L887.87,315.86L919.58,327.27L951.29,334.24L983,169.91" style="vector-effect: none; fill: none; stroke: rgb(247, 163, 92); stroke-opacity: 1; stroke-width: 2px; opacity: 1;"/></g><g class="points"/><g class="text"/></g><g class="trace scatter tracef13984" style="stroke-miterlimit: 2; opacity: 1;"><g class="fills"/><g class="errorbars"/><g class="lines"><path class="js-line" d="M0,92.3L31.71,88.5L63.42,83.81L95.13,97.24L126.84,100.7L158.55,99.52L190.26,108.47L221.97,106.44L253.68,105.86L285.39,114.53L317.1,122.14L348.81,119.66L380.52,123.39L412.23,130.82L443.94,125L475.65,126.03L507.35,140.76L539.06,139.17L570.77,134.97L634.19,154.8L665.9,168.53L697.61,184L729.32,194.92L792.74,224.84L824.45,243.83L856.16,288.4L887.87,317L919.58,328.59L951.29,335.02L983,173.32" style="vector-effect: none; fill: none; stroke: rgb(128, 133, 233); stroke-opacity: 1; stroke-width: 2px; opacity: 1;"/></g><g class="points"/><g class="text"/></g><g class="trace scatter trace195df1" style="stroke-miterlimit: 2; opacity: 1;"><g class="fills"/><g class="errorbars"/><g class="lines"><path class="js-line" d="M0,92.78L63.42,80.29L95.13,96.48L126.84,99.33L158.55,96.2L190.26,108.56L221.97,105.04L253.68,106.47L285.39,113.55L317.1,120.45L348.81,119.9L380.52,123.04L412.23,129.38L443.94,122.83L475.65,126.9L507.35,141.12L539.06,137.33L570.77,144.2L602.48,145.28L634.19,156.53L665.9,169.47L697.61,189.53L729.32,198.51L761.03,216.78L792.74,229.86L824.45,249.73L856.16,341.02L919.58,344.75L951.29,344.65L983,21.21" style="vector-effect: none; fill: none; stroke: rgb(241, 92, 128); stroke-opacity: 1; stroke-width: 2px; opacity: 1;"/></g><g class="points"/><g class="text"/></g><g class="trace scatter trace3d53b6" style="stroke-miterlimit: 2; opacity: 1;"><g class="fills"/><g class="errorbars"/><g class="lines"><path class="js-line" d="M0,94.48L31.71,89.32L63.42,79.54L95.13,98.49L126.84,101.86L158.55,96.26L190.26,108.02L221.97,106.8L253.68,104.68L317.1,122.99L348.81,122.7L380.52,119.84L412.23,131.32L443.94,123.54L475.65,127.15L507.35,139.03L539.06,138.39L570.77,134.98L602.48,144.24L634.19,154.97L665.9,169.72L697.61,184.75L729.32,193.07L761.03,213.03L792.74,223.7L824.45,246.29L856.16,287.37L887.87,316.24L919.58,328.12L951.29,334.74L983,172.42" style="vector-effect: none; fill: none; stroke: rgb(228, 211, 84); stroke-opacity: 1; stroke-width: 2px; opacity: 1;"/></g><g class="points"/><g class="text"/></g><g class="trace scatter tracedd186e" style="stroke-miterlimit: 2; opacity: 1;"><g class="fills"/><g class="errorbars"/><g class="lines"><path class="js-line" d="M0,94L31.71,85.37L63.42,81.33L95.13,97.17L126.84,98.27L158.55,96.74L190.26,109.14L221.97,105.54L253.68,106.72L285.39,114.48L317.1,120.04L348.81,121.04L380.52,123.66L412.23,129.94L443.94,123.63L475.65,129.82L507.35,140.5L539.06,136.98L570.77,139.11L602.48,143.04L634.19,152.85L665.9,169.36L697.61,188.31L729.32,195.75L761.03,215.96L792.74,228.52L824.45,239.18L856.16,287.78L887.87,315.86L919.58,327.57L951.29,334.63L983,171.02" style="vector-effect: none; fill: none; stroke: rgb(43, 144, 143); stroke-opacity: 1; stroke-width: 2px; opacity: 1;"/></g><g class="points"/><g class="text"/></g><g class="trace scatter trace2f7060" style="stroke-miterlimit: 2; opacity: 1;"><g class="fills"/><g class="errorbars"/><g class="lines"><path class="js-line" d="M0,94.98L31.71,83.21L63.42,85.14L95.13,95.59L126.84,98.88L158.55,98.25L190.26,107.25L221.97,105.58L253.68,108.48L285.39,116.96L317.1,120.15L348.81,119.57L380.52,126.85L412.23,128.02L443.94,124.86L475.65,129.23L507.35,139.75L539.06,137.52L570.77,132.72L602.48,141.85L634.19,153.47L665.9,169.17L697.61,191.07L729.32,194.66L761.03,214.01L792.74,227.28L824.45,242.89L856.16,286.08L887.87,315.05L919.58,327.04L951.29,334.45L983,172.09" style="vector-effect: none; fill: none; stroke: rgb(244, 91, 91); stroke-opacity: 1; stroke-width: 2px; opacity: 1;"/></g><g class="points"/><g class="text"/></g><g class="trace scatter tracef21439" style="stroke-miterlimit: 2; opacity: 1;"><g class="fills"/><g class="errorbars"/><g class="lines"><path class="js-line" d="M0,94.75L31.71,92.69L63.42,85.23L95.13,99.75L126.84,103.56L158.55,101.31L190.26,109.72L221.97,109.88L253.68,108.61L285.39,115.54L317.1,121.64L348.81,116.59L380.52,124.91L412.23,132.36L443.94,128.01L475.65,123.62L507.35,140.9L539.06,142.19L570.77,133.35L602.48,147.06L634.19,157.55L665.9,169.12L697.61,187.18L729.32,195.68L761.03,206.64L792.74,225.96L824.45,231.5L856.16,341.49L887.87,343.17L919.58,344.75L951.29,344.85L983,32.58" style="vector-effect: none; fill: none; stroke: rgb(145, 232, 225); stroke-opacity: 1; stroke-width: 2px; opacity: 1;"/></g><g class="points"/><g class="text"/></g><g class="trace scatter trace5caf67" style="stroke-miterlimit: 2; opacity: 1;"><g class="fills"/><g class="errorbars"/><g class="lines"><path class="js-line" d="M0,88.55L31.71,87.58L63.42,84.28L95.13,95.39L126.84,100.18L158.55,100.9L190.26,110.33L221.97,104.17L253.68,107.33L285.39,116.8L317.1,122.88L348.81,117.15L380.52,127.02L412.23,132.31L443.94,126.42L475.65,121.91L507.35,142.18L539.06,138.78L570.77,142.78L602.48,145.84L634.19,156.97L665.9,169.62L697.61,183.71L729.32,196.21L761.03,206.16L792.74,228.9L824.45,237.39L856.16,287.48L887.87,317.36L919.58,328.81L951.29,335.3L983,170.61" style="vector-effect: none; fill: none; stroke: rgb(124, 181, 236); stroke-opacity: 1; stroke-width: 2px; opacity: 1;"/></g><g class="points"/><g class="text"/></g><g class="trace scatter trace8bd2c6" style="stroke-miterlimit: 2; opacity: 1;"><g class="fills"/><g class="errorbars"/><g class="lines"><path class="js-line" d="M0,93.37L31.71,82.74L63.42,83.41L95.13,93.95L126.84,97.39L158.55,94.95L190.26,108.18L221.97,104.48L253.68,108.5L285.39,113.01L317.1,118.88L348.81,119.76L380.52,127.42L412.23,126.86L443.94,125.35L475.65,125.96L507.35,140.69L539.06,137.81L570.77,136.34L602.48,143.49L634.19,153.46L665.9,170.05L697.61,190.83L729.32,194.89L761.03,215.38L792.74,228.47L824.45,247.7L856.16,290.07L887.87,316.83L919.58,328.28L951.29,334.45L983,168.9" style="vector-effect: none; fill: none; stroke: rgb(67, 67, 72); stroke-opacity: 1; stroke-width: 2px; opacity: 1;"/></g><g class="points"/><g class="text"/></g><g class="trace scatter trace8ddaa6" style="stroke-miterlimit: 2; opacity: 1;"><g class="fills"/><g class="errorbars"/><g class="lines"><path class="js-line" d="M0,93.23L31.71,82.18L63.42,84.3L95.13,92.59L126.84,99.38L158.55,94.5L190.26,107.21L221.97,105.6L253.68,109.56L285.39,116.77L317.1,116.61L348.81,116.9L380.52,127.08L412.23,129.02L443.94,126.41L475.65,126.36L507.35,139.95L539.06,138.28L570.77,126.71L602.48,143.9L634.19,150.56L665.9,169.78L697.61,193.91L729.32,193.4L761.03,213.12L792.74,226.25L824.45,240.88L856.16,298.35L887.87,322.11L919.58,331.22L951.29,336.14L983,167.94" style="vector-effect: none; fill: none; stroke: rgb(144, 237, 125); stroke-opacity: 1; stroke-width: 2px; opacity: 1;"/></g><g class="points"/><g class="text"/></g><g class="trace scatter trace8523f8" style="stroke-miterlimit: 2; opacity: 1;"><g class="fills"/><g class="errorbars"/><g class="lines"><path class="js-line" d="M0,95.75L31.71,84.78L63.42,83L95.13,96.07L126.84,99.43L158.55,95.19L190.26,107.13L221.97,106.98L253.68,109.47L285.39,115.98L317.1,121.08L348.81,118.07L380.52,126.43L412.23,129.14L443.94,126.68L475.65,128.4L507.35,139.86L539.06,138.48L570.77,132.01L634.19,152.98L665.9,169.82L697.61,189.65L729.32,193.18L761.03,213.3L792.74,226.63L824.45,244.56L856.16,288.32L887.87,316.09L919.58,327.8L951.29,334.48L983,169.98" style="vector-effect: none; fill: none; stroke: rgb(247, 163, 92); stroke-opacity: 1; stroke-width: 2px; opacity: 1;"/></g><g class="points"/><g class="text"/></g><g class="trace scatter traceec6a5b" style="stroke-miterlimit: 2; opacity: 1;"><g class="fills"/><g class="errorbars"/><g class="lines"><path class="js-line" d="M0,95.23L31.71,85.15L63.42,82.06L95.13,97.24L126.84,100.33L158.55,97.01L190.26,109.92L221.97,108.05L253.68,109.09L285.39,114.14L317.1,121.42L348.81,122.02L380.52,126.55L412.23,129.39L443.94,124.79L475.65,126.99L507.35,141.52L539.06,139.04L570.77,122.85L602.48,144.14L634.19,153.94L665.9,170.79L697.61,191.82L729.32,197.11L761.03,215.9L792.74,229.33L824.45,247.55L856.16,341.08L887.87,343.07L919.58,344.72L951.29,344.7L983,22.81" style="vector-effect: none; fill: none; stroke: rgb(128, 133, 233); stroke-opacity: 1; stroke-width: 2px; opacity: 1;"/></g><g class="points"/><g class="text"/></g><g class="trace scatter tracee8315a" style="stroke-miterlimit: 2; opacity: 1;"><g class="fills"/><g class="errorbars"/><g class="lines"><path class="js-line" d="M0,94.17L31.71,83.21L63.42,84.27L95.13,93.48L126.84,99.05L158.55,96.23L190.26,109.78L221.97,104.82L253.68,110.08L317.1,120.66L348.81,118.94L380.52,129.82L412.23,128.44L475.65,122.98L507.35,142.17L539.06,138.51L570.77,139.11L602.48,143.67L634.19,154.74L665.9,171.59L697.61,193.27L729.32,197.07L761.03,214.37L792.74,229.54L824.45,247.83L856.16,341.15L887.87,342.99L919.58,344.65L951.29,344.6L983,19.72" style="vector-effect: none; fill: none; stroke: rgb(241, 92, 128); stroke-opacity: 1; stroke-width: 2px; opacity: 1;"/></g><g class="points"/><g class="text"/></g><g class="trace scatter traceba0654" style="stroke-miterlimit: 2; opacity: 1;"><g class="fills"/><g class="errorbars"/><g class="lines"><path class="js-line" d="M0,92.43L31.71,85.73L63.42,85.23L95.13,95.79L126.84,99.61L158.55,98.84L190.26,107.89L221.97,106L253.68,108.01L285.39,116.07L317.1,120.81L348.81,119.93L380.52,125.67L412.23,128.28L443.94,125.05L475.65,125.6L507.35,140.2L539.06,137.79L570.77,139.47L602.48,142.81L634.19,153.62L665.9,167.92L697.61,190.45L729.32,195.77L761.03,211.45L792.74,227.76L824.45,246.7L856.16,284.75L887.87,315.19L919.58,327.41L951.29,334.29L983,171.89" style="vector-effect: none; fill: none; stroke: rgb(228, 211, 84); stroke-opacity: 1; stroke-width: 2px; opacity: 1;"/></g><g class="points"/><g class="text"/></g><g class="trace scatter trace0d3eaa" style="stroke-miterlimit: 2; opacity: 1;"><g class="fills"/><g class="errorbars"/><g class="lines"><path class="js-line" d="M0,95.56L31.71,91.58L63.42,79.2L95.13,101.64L126.84,103.55L158.55,100.61L190.26,107.44L221.97,110.91L253.68,104.5L285.39,115.83L317.1,125.15L348.81,122.28L380.52,118.52L412.23,135.43L443.94,124.27L475.65,127.59L507.35,139.31L539.06,140.93L570.77,129.23L602.48,145.07L634.19,155.35L665.9,167.54L697.61,181.14L729.32,192.1L761.03,208.75L792.74,219.88L824.45,240.74L856.16,288.89L887.87,315.86L919.58,328.25L951.29,334.85L983,175.9" style="vector-effect: none; fill: none; stroke: rgb(43, 144, 143); stroke-opacity: 1; stroke-width: 2px; opacity: 1;"/></g><g class="points"/><g class="text"/></g><g class="trace scatter tracedef629" style="stroke-miterlimit: 2; opacity: 1;"><g class="fills"/><g class="errorbars"/><g class="lines"><path class="js-line" d="M0,92.42L31.71,84.4L63.42,84.8L95.13,94.21L126.84,102.17L158.55,98.29L190.26,109.23L221.97,105.56L253.68,109.43L285.39,119.17L317.1,122.1L348.81,117.81L380.52,128.61L412.23,130.3L443.94,126.44L475.65,122.27L507.35,140.79L539.06,138.38L570.77,137.66L602.48,142.36L634.19,154.41L665.9,169.38L697.61,188.42L729.32,193.97L761.03,206.2L824.45,245.48L856.16,288.63L887.87,316.55L919.58,328.82L951.29,334.96L983,171.86" style="vector-effect: none; fill: none; stroke: rgb(244, 91, 91); stroke-opacity: 1; stroke-width: 2px; opacity: 1;"/></g><g class="points"/><g class="text"/></g><g class="trace scatter tracef1454c" style="stroke-miterlimit: 2; opacity: 1;"><g class="fills"/><g class="errorbars"/><g class="lines"><path class="js-line" d="M0,94.58L31.71,84.83L63.42,83.19L95.13,96.68L126.84,98.51L158.55,97.05L190.26,109.08L221.97,106.66L253.68,107.87L285.39,116.46L317.1,117.49L348.81,118.9L380.52,125.19L412.23,130.38L443.94,125.5L475.65,129.72L507.35,140.62L539.06,137.58L570.77,126.27L602.48,143.94L634.19,153.75L665.9,170.27L697.61,191.41L729.32,196.62L761.03,216.14L824.45,240.86L856.16,285.94L887.87,315.06L919.58,326.96L951.29,334.47L983,172.33" style="vector-effect: none; fill: none; stroke: rgb(145, 232, 225); stroke-opacity: 1; stroke-width: 2px; opacity: 1;"/></g><g class="points"/><g class="text"/></g><g class="trace scatter trace36d702" style="stroke-miterlimit: 2; opacity: 1;"><g class="fills"/><g class="errorbars"/><g class="lines"><path class="js-line" d="M0,95.99L31.71,85.04L63.42,78.47L95.13,98L126.84,100.1L158.55,92.53L190.26,109.53L221.97,105.36L253.68,107.12L285.39,111.21L317.1,119.29L348.81,120.28L380.52,123.28L412.23,128.55L443.94,124.9L475.65,131.23L507.35,140.33L539.06,140.73L570.77,125.4L602.48,145.88L634.19,155.05L665.9,172.82L697.61,194.06L729.32,198.76L761.03,218.47L792.74,230.68L824.45,249.65L856.16,341.3L887.87,343.07L919.58,344.69L951.29,344.71L983,23.62" style="vector-effect: none; fill: none; stroke: rgb(124, 181, 236); stroke-opacity: 1; stroke-width: 2px; opacity: 1;"/></g><g class="points"/><g class="text"/></g><g class="trace scatter tracee9ea58" style="stroke-miterlimit: 2; opacity: 1;"><g class="fills"/><g class="errorbars"/><g class="lines"><path class="js-line" d="M0,94.71L31.71,90.69L63.42,85.39L95.13,98.75L126.84,101.59L158.55,100.55L190.26,109.87L253.68,109.08L285.39,116.53L317.1,121.14L348.81,116.62L380.52,125.27L412.23,131.7L443.94,126.81L475.65,125.99L507.35,141.44L539.06,140.75L570.77,130.56L602.48,146.83L634.19,155.21L665.9,169.51L697.61,190.43L729.32,195.07L761.03,208.46L792.74,226.84L824.45,236.26L856.16,341.18L919.58,344.73L951.29,344.75L983,28.92" style="vector-effect: none; fill: none; stroke: rgb(67, 67, 72); stroke-opacity: 1; stroke-width: 2px; opacity: 1;"/></g><g class="points"/><g class="text"/></g><g class="trace scatter traced4792a" style="stroke-miterlimit: 2; opacity: 1;"><g class="fills"/><g class="errorbars"/><g class="lines"><path class="js-line" d="M0,96.63L31.71,86.56L63.42,86.09L95.13,95.4L126.84,100.57L158.55,97.17L190.26,109.17L221.97,107.89L253.68,111.07L285.39,117.82L317.1,122.4L348.81,119.72L380.52,129.26L412.23,131.33L443.94,129.29L475.65,124.46L507.35,141.63L539.06,139.61L570.77,131L602.48,143.51L634.19,153.28L665.9,171.67L697.61,191.85L729.32,191.35L761.03,210.82L792.74,226.49L824.45,239.98L856.16,341.01L887.87,343.12L919.58,344.64L951.29,344.63L983,23.01" style="vector-effect: none; fill: none; stroke: rgb(144, 237, 125); stroke-opacity: 1; stroke-width: 2px; opacity: 1;"/></g><g class="points"/><g class="text"/></g><g class="trace scatter tracee0acb9" style="stroke-miterlimit: 2; opacity: 1;"><g class="fills"/><g class="errorbars"/><g class="lines"><path class="js-line" d="M0,94.28L31.71,84.45L63.42,82.09L95.13,94.64L126.84,98.62L158.55,97.81L190.26,107.39L221.97,106.55L253.68,107.9L317.1,119.79L348.81,117.91L380.52,125.6L412.23,129.43L443.94,125.26L475.65,127.81L507.35,139.16L539.06,138.59L570.77,135.85L602.48,142.61L634.19,153.82L665.9,169.83L697.61,190.35L729.32,196.62L761.03,213.62L792.74,228.47L824.45,245.22L856.16,287.81L887.87,315.69L919.58,327.84L951.29,334.21L983,170.41" style="vector-effect: none; fill: none; stroke: rgb(247, 163, 92); stroke-opacity: 1; stroke-width: 2px; opacity: 1;"/></g><g class="points"/><g class="text"/></g></g></g></g><g class="zerolinelayer-above"/><path class="xlines-above crisp" d="M0,0" style="fill: none;"/><path class="ylines-above crisp" d="M0,0" style="fill: none;"/><g class="overlines-above"/><g class="xaxislayer-above"><g class="xtick"><text text-anchor="start" x="0" y="429" transform="translate(60,0) rotate(29.999999999999996,0,424)" style="font-family: system-ui, -apple-system, 'Segoe UI', Roboto, 'Helvetica Neue', 'Noto Sans', 'Liberation Sans', Arial, sans-serif, 'Apple Color Emoji', 'Segoe UI Emoji', 'Segoe UI Symbol', 'Noto Color Emoji'; font-size: 10px; fill: rgb(80, 80, 80); fill-opacity: 1; white-space: pre;">1</text></g><g class="xtick"><text text-anchor="start" x="0" y="429" transform="translate(91.71000000000001,0) rotate(29.999999999999996,0,424)" style="font-family: system-ui, -apple-system, 'Segoe UI', Roboto, 'Helvetica Neue', 'Noto Sans', 'Liberation Sans', Arial, sans-serif, 'Apple Color Emoji', 'Segoe UI Emoji', 'Segoe UI Symbol', 'Noto Color Emoji'; font-size: 10px; fill: rgb(80, 80, 80); fill-opacity: 1; white-space: pre;">2</text></g><g class="xtick"><text text-anchor="start" x="0" y="429" transform="translate(123.42,0) rotate(29.999999999999996,0,424)" style="font-family: system-ui, -apple-system, 'Segoe UI', Roboto, 'Helvetica Neue', 'Noto Sans', 'Liberation Sans', Arial, sans-serif, 'Apple Color Emoji', 'Segoe UI Emoji', 'Segoe UI Symbol', 'Noto Color Emoji'; font-size: 10px; fill: rgb(80, 80, 80); fill-opacity: 1; white-space: pre;">3</text></g><g class="xtick"><text text-anchor="start" x="0" y="429" transform="translate(155.13,0) rotate(29.999999999999996,0,424)" style="font-family: system-ui, -apple-system, 'Segoe UI', Roboto, 'Helvetica Neue', 'Noto Sans', 'Liberation Sans', Arial, sans-serif, 'Apple Color Emoji', 'Segoe UI Emoji', 'Segoe UI Symbol', 'Noto Color Emoji'; font-size: 10px; fill: rgb(80, 80, 80); fill-opacity: 1; white-space: pre;">4</text></g><g class="xtick"><text text-anchor="start" x="0" y="429" transform="translate(186.84,0) rotate(29.999999999999996,0,424)" style="font-family: system-ui, -apple-system, 'Segoe UI', Roboto, 'Helvetica Neue', 'Noto Sans', 'Liberation Sans', Arial, sans-serif, 'Apple Color Emoji', 'Segoe UI Emoji', 'Segoe UI Symbol', 'Noto Color Emoji'; font-size: 10px; fill: rgb(80, 80, 80); fill-opacity: 1; white-space: pre;">5</text></g><g class="xtick"><text text-anchor="start" x="0" y="429" transform="translate(218.55,0) rotate(29.999999999999996,0,424)" style="font-family: system-ui, -apple-system, 'Segoe UI', Roboto, 'Helvetica Neue', 'Noto Sans', 'Liberation Sans', Arial, sans-serif, 'Apple Color Emoji', 'Segoe UI Emoji', 'Segoe UI Symbol', 'Noto Color Emoji'; font-size: 10px; fill: rgb(80, 80, 80); fill-opacity: 1; white-space: pre;">6</text></g><g class="xtick"><text text-anchor="start" x="0" y="429" transform="translate(250.26,0) rotate(29.999999999999996,0,424)" style="font-family: system-ui, -apple-system, 'Segoe UI', Roboto, 'Helvetica Neue', 'Noto Sans', 'Liberation Sans', Arial, sans-serif, 'Apple Color Emoji', 'Segoe UI Emoji', 'Segoe UI Symbol', 'Noto Color Emoji'; font-size: 10px; fill: rgb(80, 80, 80); fill-opacity: 1; white-space: pre;">7</text></g><g class="xtick"><text text-anchor="start" x="0" y="429" transform="translate(281.97,0) rotate(29.999999999999996,0,424)" style="font-family: system-ui, -apple-system, 'Segoe UI', Roboto, 'Helvetica Neue', 'Noto Sans', 'Liberation Sans', Arial, sans-serif, 'Apple Color Emoji', 'Segoe UI Emoji', 'Segoe UI Symbol', 'Noto Color Emoji'; font-size: 10px; fill: rgb(80, 80, 80); fill-opacity: 1; white-space: pre;">8</text></g><g class="xtick"><text text-anchor="start" x="0" y="429" transform="translate(313.68,0) rotate(29.999999999999996,0,424)" style="font-family: system-ui, -apple-system, 'Segoe UI', Roboto, 'Helvetica Neue', 'Noto Sans', 'Liberation Sans', Arial, sans-serif, 'Apple Color Emoji', 'Segoe UI Emoji', 'Segoe UI Symbol', 'Noto Color Emoji'; font-size: 10px; fill: rgb(80, 80, 80); fill-opacity: 1; white-space: pre;">9</text></g><g class="xtick"><text text-anchor="start" x="0" y="429" transform="translate(345.39,0) rotate(29.999999999999996,0,424)" style="font-family: system-ui, -apple-system, 'Segoe UI', Roboto, 'Helvetica Neue', 'Noto Sans', 'Liberation Sans', Arial, sans-serif, 'Apple Color Emoji', 'Segoe UI Emoji', 'Segoe UI Symbol', 'Noto Color Emoji'; font-size: 10px; fill: rgb(80, 80, 80); fill-opacity: 1; white-space: pre;">10</text></g><g class="xtick"><text text-anchor="start" x="0" y="429" transform="translate(377.1,0) rotate(29.999999999999996,0,424)" style="font-family: system-ui, -apple-system, 'Segoe UI', Roboto, 'Helvetica Neue', 'Noto Sans', 'Liberation Sans', Arial, sans-serif, 'Apple Color Emoji', 'Segoe UI Emoji', 'Segoe UI Symbol', 'Noto Color Emoji'; font-size: 10px; fill: rgb(80, 80, 80); fill-opacity: 1; white-space: pre;">11</text></g><g class="xtick"><text text-anchor="start" x="0" y="429" transform="translate(408.81,0) rotate(29.999999999999996,0,424)" style="font-family: system-ui, -apple-system, 'Segoe UI', Roboto, 'Helvetica Neue', 'Noto Sans', 'Liberation Sans', Arial, sans-serif, 'Apple Color Emoji', 'Segoe UI Emoji', 'Segoe UI Symbol', 'Noto Color Emoji'; font-size: 10px; fill: rgb(80, 80, 80); fill-opacity: 1; white-space: pre;">12</text></g><g class="xtick"><text text-anchor="start" x="0" y="429" transform="translate(440.52,0) rotate(29.999999999999996,0,424)" style="font-family: system-ui, -apple-system, 'Segoe UI', Roboto, 'Helvetica Neue', 'Noto Sans', 'Liberation Sans', Arial, sans-serif, 'Apple Color Emoji', 'Segoe UI Emoji', 'Segoe UI Symbol', 'Noto Color Emoji'; font-size: 10px; fill: rgb(80, 80, 80); fill-opacity: 1; white-space: pre;">13</text></g><g class="xtick"><text text-anchor="start" x="0" y="429" transform="translate(472.23,0) rotate(29.999999999999996,0,424)" style="font-family: system-ui, -apple-system, 'Segoe UI', Roboto, 'Helvetica Neue', 'Noto Sans', 'Liberation Sans', Arial, sans-serif, 'Apple Color Emoji', 'Segoe UI Emoji', 'Segoe UI Symbol', 'Noto Color Emoji'; font-size: 10px; fill: rgb(80, 80, 80); fill-opacity: 1; white-space: pre;">14</text></g><g class="xtick"><text text-anchor="start" x="0" y="429" transform="translate(503.94,0) rotate(29.999999999999996,0,424)" style="font-family: system-ui, -apple-system, 'Segoe UI', Roboto, 'Helvetica Neue', 'Noto Sans', 'Liberation Sans', Arial, sans-serif, 'Apple Color Emoji', 'Segoe UI Emoji', 'Segoe UI Symbol', 'Noto Color Emoji'; font-size: 10px; fill: rgb(80, 80, 80); fill-opacity: 1; white-space: pre;">15</text></g><g class="xtick"><text text-anchor="start" x="0" y="429" transform="translate(535.65,0) rotate(29.999999999999996,0,424)" style="font-family: system-ui, -apple-system, 'Segoe UI', Roboto, 'Helvetica Neue', 'Noto Sans', 'Liberation Sans', Arial, sans-serif, 'Apple Color Emoji', 'Segoe UI Emoji', 'Segoe UI Symbol', 'Noto Color Emoji'; font-size: 10px; fill: rgb(80, 80, 80); fill-opacity: 1; white-space: pre;">16</text></g><g class="xtick"><text text-anchor="start" x="0" y="429" transform="translate(567.35,0) rotate(29.999999999999996,0,424)" style="font-family: system-ui, -apple-system, 'Segoe UI', Roboto, 'Helvetica Neue', 'Noto Sans', 'Liberation Sans', Arial, sans-serif, 'Apple Color Emoji', 'Segoe UI Emoji', 'Segoe UI Symbol', 'Noto Color Emoji'; font-size: 10px; fill: rgb(80, 80, 80); fill-opacity: 1; white-space: pre;">17</text></g><g class="xtick"><text text-anchor="start" x="0" y="429" transform="translate(599.06,0) rotate(29.999999999999996,0,424)" style="font-family: system-ui, -apple-system, 'Segoe UI', Roboto, 'Helvetica Neue', 'Noto Sans', 'Liberation Sans', Arial, sans-serif, 'Apple Color Emoji', 'Segoe UI Emoji', 'Segoe UI Symbol', 'Noto Color Emoji'; font-size: 10px; fill: rgb(80, 80, 80); fill-opacity: 1; white-space: pre;">18</text></g><g class="xtick"><text text-anchor="start" x="0" y="429" transform="translate(630.77,0) rotate(29.999999999999996,0,424)" style="font-family: system-ui, -apple-system, 'Segoe UI', Roboto, 'Helvetica Neue', 'Noto Sans', 'Liberation Sans', Arial, sans-serif, 'Apple Color Emoji', 'Segoe UI Emoji', 'Segoe UI Symbol', 'Noto Color Emoji'; font-size: 10px; fill: rgb(80, 80, 80); fill-opacity: 1; white-space: pre;">19</text></g><g class="xtick"><text text-anchor="start" x="0" y="429" transform="translate(662.48,0) rotate(29.999999999999996,0,424)" style="font-family: system-ui, -apple-system, 'Segoe UI', Roboto, 'Helvetica Neue', 'Noto Sans', 'Liberation Sans', Arial, sans-serif, 'Apple Color Emoji', 'Segoe UI Emoji', 'Segoe UI Symbol', 'Noto Color Emoji'; font-size: 10px; fill: rgb(80, 80, 80); fill-opacity: 1; white-space: pre;">20</text></g><g class="xtick"><text text-anchor="start" x="0" y="429" transform="translate(694.19,0) rotate(29.999999999999996,0,424)" style="font-family: system-ui, -apple-system, 'Segoe UI', Roboto, 'Helvetica Neue', 'Noto Sans', 'Liberation Sans', Arial, sans-serif, 'Apple Color Emoji', 'Segoe UI Emoji', 'Segoe UI Symbol', 'Noto Color Emoji'; font-size: 10px; fill: rgb(80, 80, 80); fill-opacity: 1; white-space: pre;">21</text></g><g class="xtick"><text text-anchor="start" x="0" y="429" transform="translate(725.9,0) rotate(29.999999999999996,0,424)" style="font-family: system-ui, -apple-system, 'Segoe UI', Roboto, 'Helvetica Neue', 'Noto Sans', 'Liberation Sans', Arial, sans-serif, 'Apple Color Emoji', 'Segoe UI Emoji', 'Segoe UI Symbol', 'Noto Color Emoji'; font-size: 10px; fill: rgb(80, 80, 80); fill-opacity: 1; white-space: pre;">22</text></g><g class="xtick"><text text-anchor="start" x="0" y="429" transform="translate(757.61,0) rotate(29.999999999999996,0,424)" style="font-family: system-ui, -apple-system, 'Segoe UI', Roboto, 'Helvetica Neue', 'Noto Sans', 'Liberation Sans', Arial, sans-serif, 'Apple Color Emoji', 'Segoe UI Emoji', 'Segoe UI Symbol', 'Noto Color Emoji'; font-size: 10px; fill: rgb(80, 80, 80); fill-opacity: 1; white-space: pre;">23</text></g><g class="xtick"><text text-anchor="start" x="0" y="429" transform="translate(789.32,0) rotate(29.999999999999996,0,424)" style="font-family: system-ui, -apple-system, 'Segoe UI', Roboto, 'Helvetica Neue', 'Noto Sans', 'Liberation Sans', Arial, sans-serif, 'Apple Color Emoji', 'Segoe UI Emoji', 'Segoe UI Symbol', 'Noto Color Emoji'; font-size: 10px; fill: rgb(80, 80, 80); fill-opacity: 1; white-space: pre;">24</text></g><g class="xtick"><text text-anchor="start" x="0" y="429" transform="translate(821.03,0) rotate(29.999999999999996,0,424)" style="font-family: system-ui, -apple-system, 'Segoe UI', Roboto, 'Helvetica Neue', 'Noto Sans', 'Liberation Sans', Arial, sans-serif, 'Apple Color Emoji', 'Segoe UI Emoji', 'Segoe UI Symbol', 'Noto Color Emoji'; font-size: 10px; fill: rgb(80, 80, 80); fill-opacity: 1; white-space: pre;">25</text></g><g class="xtick"><text text-anchor="start" x="0" y="429" transform="translate(852.74,0) rotate(29.999999999999996,0,424)" style="font-family: system-ui, -apple-system, 'Segoe UI', Roboto, 'Helvetica Neue', 'Noto Sans', 'Liberation Sans', Arial, sans-serif, 'Apple Color Emoji', 'Segoe UI Emoji', 'Segoe UI Symbol', 'Noto Color Emoji'; font-size: 10px; fill: rgb(80, 80, 80); fill-opacity: 1; white-space: pre;">26</text></g><g class="xtick"><text text-anchor="start" x="0" y="429" transform="translate(884.45,0) rotate(29.999999999999996,0,424)" style="font-family: system-ui, -apple-system, 'Segoe UI', Roboto, 'Helvetica Neue', 'Noto Sans', 'Liberation Sans', Arial, sans-serif, 'Apple Color Emoji', 'Segoe UI Emoji', 'Segoe UI Symbol', 'Noto Color Emoji'; font-size: 10px; fill: rgb(80, 80, 80); fill-opacity: 1; white-space: pre;">27</text></g><g class="xtick"><text text-anchor="start" x="0" y="429" transform="translate(916.16,0) rotate(29.999999999999996,0,424)" style="font-family: system-ui, -apple-system, 'Segoe UI', Roboto, 'Helvetica Neue', 'Noto Sans', 'Liberation Sans', Arial, sans-serif, 'Apple Color Emoji', 'Segoe UI Emoji', 'Segoe UI Symbol', 'Noto Color Emoji'; font-size: 10px; fill: rgb(80, 80, 80); fill-opacity: 1; white-space: pre;">W</text></g><g class="xtick"><text text-anchor="start" x="0" y="429" transform="translate(947.87,0) rotate(29.999999999999996,0,424)" style="font-family: system-ui, -apple-system, 'Segoe UI', Roboto, 'Helvetica Neue', 'Noto Sans', 'Liberation Sans', Arial, sans-serif, 'Apple Color Emoji', 'Segoe UI Emoji', 'Segoe UI Symbol', 'Noto Color Emoji'; font-size: 10px; fill: rgb(80, 80, 80); fill-opacity: 1; white-space: pre;">NW_024396987.1</text></g><g class="xtick"><text text-anchor="start" x="0" y="429" transform="translate(979.58,0) rotate(29.999999999999996,0,424)" style="font-family: system-ui, -apple-system, 'Segoe UI', Roboto, 'Helvetica Neue', 'Noto Sans', 'Liberation Sans', Arial, sans-serif, 'Apple Color Emoji', 'Segoe UI Emoji', 'Segoe UI Symbol', 'Noto Color Emoji'; font-size: 10px; fill: rgb(80, 80, 80); fill-opacity: 1; white-space: pre;">NW_024396988.1</text></g><g class="xtick"><text text-anchor="start" x="0" y="429" transform="translate(1011.29,0) rotate(29.999999999999996,0,424)" style="font-family: system-ui, -apple-system, 'Segoe UI', Roboto, 'Helvetica Neue', 'Noto Sans', 'Liberation Sans', Arial, sans-serif, 'Apple Color Emoji', 'Segoe UI Emoji', 'Segoe UI Symbol', 'Noto Color Emoji'; font-size: 10px; fill: rgb(80, 80, 80); fill-opacity: 1; white-space: pre;">NW_024396989.1</text></g><g class="xtick"><text text-anchor="start" x="0" y="429" transform="translate(1043,0) rotate(29.999999999999996,0,424)" style="font-family: system-ui, -apple-system, 'Segoe UI', Roboto, 'Helvetica Neue', 'Noto Sans', 'Liberation Sans', Arial, sans-serif, 'Apple Color Emoji', 'Segoe UI Emoji', 'Segoe UI Symbol', 'Noto Color Emoji'; font-size: 10px; fill: rgb(80, 80, 80); fill-opacity: 1; white-space: pre;">Z</text></g></g><g class="yaxislayer-above"><g class="ytick"><text text-anchor="end" x="54" y="3.5" transform="translate(0,395.83)" style="font-family: system-ui, -apple-system, 'Segoe UI', Roboto, 'Helvetica Neue', 'Noto Sans', 'Liberation Sans', Arial, sans-serif, 'Apple Color Emoji', 'Segoe UI Emoji', 'Segoe UI Symbol', 'Noto Color Emoji'; font-size: 10px; fill: rgb(80, 80, 80); fill-opacity: 1; white-space: pre;">0</text></g><g class="ytick"><text text-anchor="end" x="54" y="3.5" style="font-family: system-ui, -apple-system, 'Segoe UI', Roboto, 'Helvetica Neue', 'Noto Sans', 'Liberation Sans', Arial, sans-serif, 'Apple Color Emoji', 'Segoe UI Emoji', 'Segoe UI Symbol', 'Noto Color Emoji'; font-size: 10px; fill: rgb(80, 80, 80); fill-opacity: 1; white-space: pre;" transform="translate(0,336.02)">0.01</text></g><g class="ytick"><text text-anchor="end" x="54" y="3.5" style="font-family: system-ui, -apple-system, 'Segoe UI', Roboto, 'Helvetica Neue', 'Noto Sans', 'Liberation Sans', Arial, sans-serif, 'Apple Color Emoji', 'Segoe UI Emoji', 'Segoe UI Symbol', 'Noto Color Emoji'; font-size: 10px; fill: rgb(80, 80, 80); fill-opacity: 1; white-space: pre;" transform="translate(0,276.21000000000004)">0.02</text></g><g class="ytick"><text text-anchor="end" x="54" y="3.5" style="font-family: system-ui, -apple-system, 'Segoe UI', Roboto, 'Helvetica Neue', 'Noto Sans', 'Liberation Sans', Arial, sans-serif, 'Apple Color Emoji', 'Segoe UI Emoji', 'Segoe UI Symbol', 'Noto Color Emoji'; font-size: 10px; fill: rgb(80, 80, 80); fill-opacity: 1; white-space: pre;" transform="translate(0,216.4)">0.03</text></g><g class="ytick"><text text-anchor="end" x="54" y="3.5" style="font-family: system-ui, -apple-system, 'Segoe UI', Roboto, 'Helvetica Neue', 'Noto Sans', 'Liberation Sans', Arial, sans-serif, 'Apple Color Emoji', 'Segoe UI Emoji', 'Segoe UI Symbol', 'Noto Color Emoji'; font-size: 10px; fill: rgb(80, 80, 80); fill-opacity: 1; white-space: pre;" transform="translate(0,156.6)">0.04</text></g><g class="ytick"><text text-anchor="end" x="54" y="3.5" style="font-family: system-ui, -apple-system, 'Segoe UI', Roboto, 'Helvetica Neue', 'Noto Sans', 'Liberation Sans', Arial, sans-serif, 'Apple Color Emoji', 'Segoe UI Emoji', 'Segoe UI Symbol', 'Noto Color Emoji'; font-size: 10px; fill: rgb(80, 80, 80); fill-opacity: 1; white-space: pre;" transform="translate(0,96.78999999999999)">0.05</text></g></g><g class="overaxes-above"/></g></g><g class="polarlayer"/><g class="smithlayer"/><g class="ternarylayer"/><g class="geolayer"/><g class="funnelarealayer"/><g class="pielayer"/><g class="iciclelayer"/><g class="treemaplayer"/><g class="sunburstlayer"/><g class="glimages"/><defs id="topdefs-5ae718"><g class="clips"/></defs><g class="layer-above"><g class="imagelayer"/><g class="shapelayer"/></g><g class="infolayer"><g class="g-gtitle"><text class="gtitle" x="550" y="25" text-anchor="middle" dy="0em" style="opacity: 1; font-family: system-ui, -apple-system, 'Segoe UI', Roboto, 'Helvetica Neue', 'Noto Sans', 'Liberation Sans', Arial, sans-serif, 'Apple Color Emoji', 'Segoe UI Emoji', 'Segoe UI Symbol', 'Noto Color Emoji'; font-size: 20px; fill: rgb(60, 60, 60); fill-opacity: 1; white-space: pre;"><tspan class="line" dy="0em" x="550" y="25">Samtools: idxstats: Mapped reads per contig</tspan><tspan class="line" dy="1.3em" x="550" y="25">​<tspan style="font-size:70%" dy="-0.6em">Normalised Counts, 94 lines</tspan><tspan dy="0.42em">​</tspan></tspan></text></g><g class="g-xtitle"><text class="xtitle" x="551.5" y="465" text-anchor="middle" style="opacity: 1; font-family: system-ui, -apple-system, 'Segoe UI', Roboto, 'Helvetica Neue', 'Noto Sans', 'Liberation Sans', Arial, sans-serif, 'Apple Color Emoji', 'Segoe UI Emoji', 'Segoe UI Symbol', 'Noto Color Emoji'; font-size: 14px; fill: rgb(100, 100, 100); fill-opacity: 1; white-space: pre;">Chromosome name</text></g><g class="g-ytitle"><text class="ytitle" transform="rotate(-90,22,231.5)" x="22" y="231.5" text-anchor="middle" style="opacity: 1; font-family: system-ui, -apple-system, 'Segoe UI', Roboto, 'Helvetica Neue', 'Noto Sans', 'Liberation Sans', Arial, sans-serif, 'Apple Color Emoji', 'Segoe UI Emoji', 'Segoe UI Symbol', 'Noto Color Emoji'; font-size: 14px; fill: rgb(100, 100, 100); fill-opacity: 1; white-space: pre;">Fraction of total count</text></g></g></svg>