<svg class="main-svg" xmlns="http://www.w3.org/2000/svg" xmlns:xlink="http://www.w3.org/1999/xlink" width="2200" height="1000" style="" viewBox="0 0 1100 500"><rect x="0" y="0" width="1100" height="500" style="fill: rgb(255, 255, 255); fill-opacity: 1;"/><defs id="defs-fe8e32"><g class="clips"><clipPath id="clipfe8e32xyplot" class="plotclip"><rect width="983" height="363"/></clipPath><clipPath class="axesclip" id="clipfe8e32x"><rect x="60" y="0" width="983" height="500"/></clipPath><clipPath class="axesclip" id="clipfe8e32y"><rect x="0" y="50" width="1100" height="363"/></clipPath><clipPath class="axesclip" id="clipfe8e32xy"><rect x="60" y="50" width="983" height="363"/></clipPath></g><g class="gradients"/><g class="patterns"/></defs><g class="bglayer"/><g class="layer-below"><g class="imagelayer"/><g class="shapelayer"/></g><g class="cartesianlayer"><g class="subplot xy"><g class="layer-subplot"><g class="shapelayer"/><g class="imagelayer"/></g><g class="minor-gridlayer"><g class="x"/><g class="y"/></g><g class="gridlayer"><g class="x"><path class="xgrid crisp" transform="translate(91.71000000000001,0)" d="M0,50v363" style="stroke: rgb(128, 128, 128); stroke-opacity: 0.15; stroke-width: 1px;"/><path class="xgrid crisp" transform="translate(123.42,0)" d="M0,50v363" style="stroke: rgb(128, 128, 128); stroke-opacity: 0.15; stroke-width: 1px;"/><path class="xgrid crisp" transform="translate(155.13,0)" d="M0,50v363" style="stroke: rgb(128, 128, 128); stroke-opacity: 0.15; stroke-width: 1px;"/><path class="xgrid crisp" transform="translate(186.84,0)" d="M0,50v363" style="stroke: rgb(128, 128, 128); stroke-opacity: 0.15; stroke-width: 1px;"/><path class="xgrid crisp" transform="translate(218.55,0)" d="M0,50v363" style="stroke: rgb(128, 128, 128); stroke-opacity: 0.15; stroke-width: 1px;"/><path class="xgrid crisp" transform="translate(250.26,0)" d="M0,50v363" style="stroke: rgb(128, 128, 128); stroke-opacity: 0.15; stroke-width: 1px;"/><path class="xgrid crisp" transform="translate(281.97,0)" d="M0,50v363" style="stroke: rgb(128, 128, 128); stroke-opacity: 0.15; stroke-width: 1px;"/><path class="xgrid crisp" transform="translate(313.68,0)" d="M0,50v363" style="stroke: rgb(128, 128, 128); stroke-opacity: 0.15; stroke-width: 1px;"/><path class="xgrid crisp" transform="translate(345.39,0)" d="M0,50v363" style="stroke: rgb(128, 128, 128); stroke-opacity: 0.15; stroke-width: 1px;"/><path class="xgrid crisp" transform="translate(377.1,0)" d="M0,50v363" style="stroke: rgb(128, 128, 128); stroke-opacity: 0.15; stroke-width: 1px;"/><path class="xgrid crisp" transform="translate(408.81,0)" d="M0,50v363" style="stroke: rgb(128, 128, 128); stroke-opacity: 0.15; stroke-width: 1px;"/><path class="xgrid crisp" transform="translate(440.52,0)" d="M0,50v363" style="stroke: rgb(128, 128, 128); stroke-opacity: 0.15; stroke-width: 1px;"/><path class="xgrid crisp" transform="translate(472.23,0)" d="M0,50v363" style="stroke: rgb(128, 128, 128); stroke-opacity: 0.15; stroke-width: 1px;"/><path class="xgrid crisp" transform="translate(503.94,0)" d="M0,50v363" style="stroke: rgb(128, 128, 128); stroke-opacity: 0.15; stroke-width: 1px;"/><path class="xgrid crisp" transform="translate(535.65,0)" d="M0,50v363" style="stroke: rgb(128, 128, 128); stroke-opacity: 0.15; stroke-width: 1px;"/><path class="xgrid crisp" transform="translate(567.35,0)" d="M0,50v363" style="stroke: rgb(128, 128, 128); stroke-opacity: 0.15; stroke-width: 1px;"/><path class="xgrid crisp" transform="translate(599.06,0)" d="M0,50v363" style="stroke: rgb(128, 128, 128); stroke-opacity: 0.15; stroke-width: 1px;"/><path class="xgrid crisp" transform="translate(630.77,0)" d="M0,50v363" style="stroke: rgb(128, 128, 128); stroke-opacity: 0.15; stroke-width: 1px;"/><path class="xgrid crisp" transform="translate(662.48,0)" d="M0,50v363" style="stroke: rgb(128, 128, 128); stroke-opacity: 0.15; stroke-width: 1px;"/><path class="xgrid crisp" transform="translate(694.19,0)" d="M0,50v363" style="stroke: rgb(128, 128, 128); stroke-opacity: 0.15; stroke-width: 1px;"/><path class="xgrid crisp" transform="translate(725.9,0)" d="M0,50v363" style="stroke: rgb(128, 128, 128); stroke-opacity: 0.15; stroke-width: 1px;"/><path class="xgrid crisp" transform="translate(757.61,0)" d="M0,50v363" style="stroke: rgb(128, 128, 128); stroke-opacity: 0.15; stroke-width: 1px;"/><path class="xgrid crisp" transform="translate(789.32,0)" d="M0,50v363" style="stroke: rgb(128, 128, 128); stroke-opacity: 0.15; stroke-width: 1px;"/><path class="xgrid crisp" transform="translate(821.03,0)" d="M0,50v363" style="stroke: rgb(128, 128, 128); stroke-opacity: 0.15; stroke-width: 1px;"/><path class="xgrid crisp" transform="translate(852.74,0)" d="M0,50v363" style="stroke: rgb(128, 128, 128); stroke-opacity: 0.15; stroke-width: 1px;"/><path class="xgrid crisp" transform="translate(884.45,0)" d="M0,50v363" style="stroke: rgb(128, 128, 128); stroke-opacity: 0.15; stroke-width: 1px;"/><path class="xgrid crisp" transform="translate(916.16,0)" d="M0,50v363" style="stroke: rgb(128, 128, 128); stroke-opacity: 0.15; stroke-width: 1px;"/><path class="xgrid crisp" transform="translate(947.87,0)" d="M0,50v363" style="stroke: rgb(128, 128, 128); stroke-opacity: 0.15; stroke-width: 1px;"/><path class="xgrid crisp" transform="translate(979.58,0)" d="M0,50v363" style="stroke: rgb(128, 128, 128); stroke-opacity: 0.15; stroke-width: 1px;"/><path class="xgrid crisp" transform="translate(1011.29,0)" d="M0,50v363" style="stroke: rgb(128, 128, 128); stroke-opacity: 0.15; stroke-width: 1px;"/></g><g class="y"><path class="ygrid crisp" transform="translate(0,340.16)" d="M60,0h983" style="stroke: rgb(128, 128, 128); stroke-opacity: 0.15; stroke-width: 1px;"/><path class="ygrid crisp" transform="translate(0,296.77)" d="M60,0h983" style="stroke: rgb(128, 128, 128); stroke-opacity: 0.15; stroke-width: 1px;"/><path class="ygrid crisp" transform="translate(0,265.98)" d="M60,0h983" style="stroke: rgb(128, 128, 128); stroke-opacity: 0.15; stroke-width: 1px;"/><path class="ygrid crisp" transform="translate(0,242.1)" d="M60,0h983" style="stroke: rgb(128, 128, 128); stroke-opacity: 0.15; stroke-width: 1px;"/><path class="ygrid crisp" transform="translate(0,222.59)" d="M60,0h983" style="stroke: rgb(128, 128, 128); stroke-opacity: 0.15; stroke-width: 1px;"/><path class="ygrid crisp" transform="translate(0,206.09)" d="M60,0h983" style="stroke: rgb(128, 128, 128); stroke-opacity: 0.15; stroke-width: 1px;"/><path class="ygrid crisp" transform="translate(0,191.8)" d="M60,0h983" style="stroke: rgb(128, 128, 128); stroke-opacity: 0.15; stroke-width: 1px;"/><path class="ygrid crisp" transform="translate(0,179.19)" d="M60,0h983" style="stroke: rgb(128, 128, 128); stroke-opacity: 0.15; stroke-width: 1px;"/><path class="ygrid crisp" transform="translate(0,167.92000000000002)" d="M60,0h983" style="stroke: rgb(128, 128, 128); stroke-opacity: 0.15; stroke-width: 1px;"/><path class="ygrid crisp" transform="translate(0,93.72999999999999)" d="M60,0h983" style="stroke: rgb(128, 128, 128); stroke-opacity: 0.15; stroke-width: 1px;"/></g></g><g class="zerolinelayer"/><g class="layer-between"><g class="shapelayer"/><g class="imagelayer"/></g><path class="xlines-below"/><path class="ylines-below"/><g class="overlines-below"/><g class="xaxislayer-below"/><g class="yaxislayer-below"/><g class="overaxes-below"/><g class="overplot"><g class="xy" transform="translate(60,50)" clip-path="url(#clipfe8e32xyplot)"><g class="scatterlayer mlayer"><g class="trace scatter tracee8464e" style="stroke-miterlimit: 2; opacity: 1;"><g class="fills"/><g class="errorbars"/><g class="lines"><path class="js-line" d="M0,116.69L31.71,117.66L63.42,114.02L95.13,118.33L126.84,117.42L158.55,114.97L190.26,117.73L221.97,117.19L253.68,115.65L285.39,116.78L317.1,119.03L348.81,116.25L380.52,116.89L412.23,117.42L443.94,116.11L475.65,115.94L507.35,118.68L539.06,116.83L570.77,104.33L602.48,118.92L634.19,122.09L665.9,118.39L697.61,117.77L729.32,117.32L761.03,117.69L792.74,111.44L824.45,117.4L856.16,289L887.87,302.04L919.58,324.17L951.29,328.77L983,116.07" style="vector-effect: none; fill: none; stroke: rgb(124, 181, 236); stroke-opacity: 1; stroke-width: 2px; opacity: 1;"/></g><g class="points"/><g class="text"/></g><g class="trace scatter trace3659f0" style="stroke-miterlimit: 2; opacity: 1;"><g class="fills"/><g class="errorbars"/><g class="lines"><path class="js-line" d="M0,117.12L31.71,116.94L63.42,113.63L95.13,118.1L126.84,116.88L158.55,114.03L190.26,117.33L221.97,116.71L253.68,115.25L285.39,116.25L317.1,118.4L348.81,116.85L380.52,116.65L412.23,116.93L443.94,115.82L475.65,115.09L507.35,118.04L539.06,116.47L570.77,111.44L602.48,118.71L634.19,121.44L665.9,117.65L697.61,117.22L729.32,116.28L761.03,117.16L792.74,113.61L824.45,122.54L856.16,291.69L887.87,304.73L919.58,330.9L951.29,328.51L983,115.58" style="vector-effect: none; fill: none; stroke: rgb(67, 67, 72); stroke-opacity: 1; stroke-width: 2px; opacity: 1;"/></g><g class="points"/><g class="text"/></g><g class="trace scatter trace525d88" style="stroke-miterlimit: 2; opacity: 1;"><g class="fills"/><g class="errorbars"/><g class="lines"><path class="js-line" d="M0,116.15L31.71,116.92L63.42,112.87L95.13,118.05L126.84,117.6L158.55,114.03L190.26,117.37L221.97,116.82L253.68,115.4L285.39,116.33L317.1,118.58L348.81,118.09L380.52,116.63L412.23,116.83L443.94,115.68L475.65,115.29L507.35,118.02L539.06,116.6L570.77,109.92L602.48,118.98L634.19,122.2L665.9,118.1L697.61,117L729.32,117.08L761.03,118.06L792.74,110.45L824.45,123.69L856.16,289.89L887.87,299.69L919.58,329.14L951.29,320.86L983,115.78" style="vector-effect: none; fill: none; stroke: rgb(144, 237, 125); stroke-opacity: 1; stroke-width: 2px; opacity: 1;"/></g><g class="points"/><g class="text"/></g><g class="trace scatter tracec71219" style="stroke-miterlimit: 2; opacity: 1;"><g class="fills"/><g class="errorbars"/><g class="lines"><path class="js-line" d="M0,116.14L31.71,117.56L63.42,113.69L95.13,117.84L126.84,117.31L158.55,115.34L190.26,117.18L221.97,117.21L253.68,115.64L317.1,119.47L348.81,115.97L412.23,118.94L443.94,116.56L475.65,111.57L507.35,119.11L539.06,116.57L570.77,111.83L602.48,119.58L634.19,123.1L665.9,118.06L697.61,117.66L729.32,115.6L761.03,112.1L792.74,112.67L824.45,120.9L856.16,291.68L887.87,302.58L919.58,335.06L951.29,334.96L983,115.49" style="vector-effect: none; fill: none; stroke: rgb(247, 163, 92); stroke-opacity: 1; stroke-width: 2px; opacity: 1;"/></g><g class="points"/><g class="text"/></g><g class="trace scatter traceab0678" style="stroke-miterlimit: 2; opacity: 1;"><g class="fills"/><g class="errorbars"/><g class="lines"><path class="js-line" d="M0,116.54L31.71,116.49L63.42,113.69L95.13,117.75L126.84,116.48L158.55,113.76L190.26,117.32L253.68,115.44L285.39,116.18L317.1,118.31L348.81,115.51L412.23,117.22L443.94,115.43L475.65,116.26L507.35,118.14L539.06,116.21L570.77,102.52L602.48,118.6L634.19,120.93L665.9,118.12L697.61,116.65L761.03,118.83L792.74,110.93L824.45,119.59L856.16,32.77L887.87,55.56L919.58,43.84L951.29,88.31L983,181.13" style="vector-effect: none; fill: none; stroke: rgb(128, 133, 233); stroke-opacity: 1; stroke-width: 2px; opacity: 1;"/></g><g class="points"/><g class="text"/></g><g class="trace scatter trace4a72ce" style="stroke-miterlimit: 2; opacity: 1;"><g class="fills"/><g class="errorbars"/><g class="lines"><path class="js-line" d="M0,116.27L31.71,118.1L63.42,113.5L95.13,118.21L126.84,117.77L158.55,115.66L190.26,117.28L221.97,117.54L253.68,114.72L285.39,116.15L317.1,118.56L380.52,115.71L412.23,117.85L443.94,115.22L475.65,114.15L507.35,118.15L539.06,116.45L570.77,108.07L602.48,118.35L634.19,121L665.9,117.17L697.61,114.34L729.32,116.4L761.03,114.62L792.74,109.97L824.45,118.37L856.16,25.8L887.87,48.2L919.58,37.5L951.29,85.72L983,181.79" style="vector-effect: none; fill: none; stroke: rgb(241, 92, 128); stroke-opacity: 1; stroke-width: 2px; opacity: 1;"/></g><g class="points"/><g class="text"/></g><g class="trace scatter tracedbce7d" style="stroke-miterlimit: 2; opacity: 1;"><g class="fills"/><g class="errorbars"/><g class="lines"><path class="js-line" d="M0,116.11L31.71,117.11L63.42,116.46L126.84,117.62L158.55,116.57L190.26,117.6L221.97,117.86L253.68,116.96L285.39,118.01L317.1,118.51L348.81,115.76L380.52,119.21L412.23,118.21L443.94,117.11L475.65,114.13L507.35,118.66L539.06,117.25L570.77,106.83L602.48,118.76L634.19,120.9L665.9,117.46L697.61,117.42L729.32,114.83L792.74,109.41L824.45,115.91L856.16,289.29L887.87,303.55L919.58,333.13L951.29,330.88L983,116.62" style="vector-effect: none; fill: none; stroke: rgb(228, 211, 84); stroke-opacity: 1; stroke-width: 2px; opacity: 1;"/></g><g class="points"/><g class="text"/></g><g class="trace scatter trace0af4a4" style="stroke-miterlimit: 2; opacity: 1;"><g class="fills"/><g class="errorbars"/><g class="lines"><path class="js-line" d="M0,117.54L31.71,120.82L63.42,111.84L95.13,120.96L126.84,118.45L158.55,116.19L190.26,117.39L221.97,118.8L253.68,113.62L285.39,116.27L317.1,120.67L348.81,117.88L380.52,113.44L412.23,119.52L443.94,115.59L475.65,113.03L507.35,117.99L539.06,118.12L570.77,107.49L602.48,119.97L634.19,122.85L697.61,112.82L729.32,114.86L761.03,112.41L792.74,106.25L824.45,120.36L856.16,286.96L887.87,297.55L919.58,334.01L951.29,338.03L983,119.21" style="vector-effect: none; fill: none; stroke: rgb(43, 144, 143); stroke-opacity: 1; stroke-width: 2px; opacity: 1;"/></g><g class="points"/><g class="text"/></g><g class="trace scatter trace50b592" style="stroke-miterlimit: 2; opacity: 1;"><g class="fills"/><g class="errorbars"/><g class="lines"><path class="js-line" d="M0,116.95L31.71,119.21L63.42,113.78L95.13,119.55L126.84,117.94L158.55,116.13L190.26,117.33L221.97,118.64L253.68,115.48L285.39,118.09L317.1,118.55L348.81,116.59L380.52,116L412.23,118.95L443.94,116.24L475.65,114.05L507.35,118.44L539.06,116.67L570.77,101.49L602.48,119.75L634.19,121.47L697.61,113.81L729.32,115.96L761.03,113.2L792.74,107.05L824.45,116.25L856.16,24.03L887.87,46.79L919.58,37.07L951.29,85.66L983,183.21" style="vector-effect: none; fill: none; stroke: rgb(244, 91, 91); stroke-opacity: 1; stroke-width: 2px; opacity: 1;"/></g><g class="points"/><g class="text"/></g><g class="trace scatter trace5379fe" style="stroke-miterlimit: 2; opacity: 1;"><g class="fills"/><g class="errorbars"/><g class="lines"><path class="js-line" d="M0,117.16L31.71,119.05L63.42,115.66L95.13,119.1L126.84,119.16L158.55,117.2L190.26,116.75L221.97,118.77L253.68,116.29L285.39,118.64L317.1,120.13L348.81,116.45L380.52,117.69L412.23,119.25L443.94,116.92L475.65,112.54L507.35,118.16L539.06,116.95L570.77,109.34L602.48,119.01L634.19,121.36L697.61,113.18L729.32,112.53L761.03,109.78L792.74,104.54L824.45,111.05L856.16,284.07L887.87,303.19L919.58,337.73L951.29,335.76L983,119.42" style="vector-effect: none; fill: none; stroke: rgb(145, 232, 225); stroke-opacity: 1; stroke-width: 2px; opacity: 1;"/></g><g class="points"/><g class="text"/></g><g class="trace scatter trace0dcd94" style="stroke-miterlimit: 2; opacity: 1;"><g class="fills"/><g class="errorbars"/><g class="lines"><path class="js-line" d="M0,117.51L31.71,119.21L63.42,114.44L95.13,119.79L126.84,118.98L158.55,116.61L190.26,117.44L221.97,118.4L253.68,115.9L317.1,120.5L348.81,117.74L380.52,116.72L412.23,119.47L443.94,117.3L475.65,111.03L507.35,117.94L539.06,117.66L570.77,110.15L602.48,119.42L634.19,122.4L665.9,117.66L697.61,113.77L729.32,112.27L792.74,106.99L824.45,109.41L856.16,286.79L887.87,301.24L919.58,329.57L951.29,330.7L983,117.92" style="vector-effect: none; fill: none; stroke: rgb(124, 181, 236); stroke-opacity: 1; stroke-width: 2px; opacity: 1;"/></g><g class="points"/><g class="text"/></g><g class="trace scatter trace325054" style="stroke-miterlimit: 2; opacity: 1;"><g class="fills"/><g class="errorbars"/><g class="lines"><path class="js-line" d="M0,116.14L31.71,116.96L63.42,115.93L95.13,117.64L126.84,117.08L158.55,115.51L190.26,116.91L253.68,116.2L285.39,117.79L317.1,118.51L348.81,116.37L380.52,119.06L412.23,117.42L443.94,117.42L475.65,113.94L507.35,119.1L539.06,116.25L570.77,112.52L602.48,118.78L634.19,121.17L665.9,116.82L697.61,117.36L729.32,114.55L761.03,112.89L792.74,108.95L824.45,117.02L856.16,290.21L887.87,301.83L919.58,332L951.29,335.65L983,116.05" style="vector-effect: none; fill: none; stroke: rgb(67, 67, 72); stroke-opacity: 1; stroke-width: 2px; opacity: 1;"/></g><g class="points"/><g class="text"/></g><g class="trace scatter traceadd43c" style="stroke-miterlimit: 2; opacity: 1;"><g class="fills"/><g class="errorbars"/><g class="lines"><path class="js-line" d="M0,116.51L31.71,116.68L63.42,114.48L95.13,117.76L126.84,117.32L158.55,114.43L190.26,117.81L253.68,116.8L285.39,117.11L317.1,118.56L348.81,117.05L380.52,118.23L412.23,117.14L443.94,116.65L475.65,113.17L507.35,119.18L539.06,116.9L570.77,108.59L602.48,118.52L634.19,122.01L665.9,117.96L697.61,117.69L729.32,116.54L761.03,116.52L792.74,110.73L824.45,115.97L856.16,295.37L887.87,296.15L919.58,323.96L951.29,325.94L983,115.51" style="vector-effect: none; fill: none; stroke: rgb(144, 237, 125); stroke-opacity: 1; stroke-width: 2px; opacity: 1;"/></g><g class="points"/><g class="text"/></g><g class="trace scatter tracee3369e" style="stroke-miterlimit: 2; opacity: 1;"><g class="fills"/><g class="errorbars"/><g class="lines"><path class="js-line" d="M0,116.42L31.71,116.32L63.42,113.9L95.13,117.33L126.84,116.65L158.55,114.67L190.26,117.72L221.97,116.56L253.68,116.28L285.39,116.34L317.1,118.13L348.81,117.33L380.52,117.87L412.23,117.33L443.94,115.77L475.65,115.68L507.35,118.95L539.06,116.37L570.77,106.78L602.48,117.96L634.19,122.03L665.9,118.6L697.61,117.98L729.32,117.74L761.03,118.97L792.74,112.12L824.45,123.15L856.16,296.54L887.87,294.93L919.58,328.95L951.29,317.49L983,114.59" style="vector-effect: none; fill: none; stroke: rgb(247, 163, 92); stroke-opacity: 1; stroke-width: 2px; opacity: 1;"/></g><g class="points"/><g class="text"/></g><g class="trace scatter trace075d89" style="stroke-miterlimit: 2; opacity: 1;"><g class="fills"/><g class="errorbars"/><g class="lines"><path class="js-line" d="M0,115.86L31.71,117.18L63.42,113.63L95.13,118.4L126.84,116.9L158.55,114.4L190.26,116.77L221.97,116.56L253.68,114.52L317.1,118.43L348.81,117L380.52,115.85L412.23,117.23L443.94,115.2L475.65,114.74L507.35,117.7L539.06,115.73L570.77,110.06L602.48,118.07L634.19,121.36L665.9,117.24L697.61,114.42L729.32,116.41L761.03,117.12L792.74,113.53L824.45,120.57L856.16,25.08L887.87,46.13L919.58,36.34L951.29,84.07L983,181.16" style="vector-effect: none; fill: none; stroke: rgb(128, 133, 233); stroke-opacity: 1; stroke-width: 2px; opacity: 1;"/></g><g class="points"/><g class="text"/></g><g class="trace scatter traced5083d" style="stroke-miterlimit: 2; opacity: 1;"><g class="fills"/><g class="errorbars"/><g class="lines"><path class="js-line" d="M0,116.96L31.71,117.28L63.42,112.93L95.13,118.86L126.84,117.33L158.55,113.87L190.26,117.54L221.97,117.06L253.68,115.18L285.39,116.06L317.1,118.7L348.81,118.63L380.52,116.28L412.23,117.93L443.94,115.83L475.65,116.01L507.35,118.09L539.06,116.19L570.77,107.01L602.48,118.75L634.19,121.23L665.9,118.2L697.61,116.72L729.32,116.73L761.03,118.7L792.74,110.33L824.45,122.09L856.16,287.41L887.87,294.51L919.58,319.77L951.29,321.99L983,115.39" style="vector-effect: none; fill: none; stroke: rgb(241, 92, 128); stroke-opacity: 1; stroke-width: 2px; opacity: 1;"/></g><g class="points"/><g class="text"/></g><g class="trace scatter trace0cad80" style="stroke-miterlimit: 2; opacity: 1;"><g class="fills"/><g class="errorbars"/><g class="lines"><path class="js-line" d="M0,115.82L31.71,115.84L63.42,114.04L95.13,117.09L126.84,116.52L158.55,114.02L190.26,117.36L253.68,115.19L285.39,116.04L317.1,117.68L348.81,117.39L412.23,116.9L443.94,115.07L475.65,115.05L507.35,118.75L539.06,115.77L570.77,111.09L602.48,117.42L634.19,120.88L665.9,118.13L697.61,116.16L729.32,117.78L761.03,118.59L792.74,111.67L824.45,120.15L856.16,23.12L887.87,44.44L919.58,33.96L951.29,79.24L983,180.01" style="vector-effect: none; fill: none; stroke: rgb(228, 211, 84); stroke-opacity: 1; stroke-width: 2px; opacity: 1;"/></g><g class="points"/><g class="text"/></g><g class="trace scatter trace802c9c" style="stroke-miterlimit: 2; opacity: 1;"><g class="fills"/><g class="errorbars"/><g class="lines"><path class="js-line" d="M0,116.6L31.71,116.68L63.42,114.33L95.13,117.42L126.84,116.98L158.55,114.85L190.26,117.67L253.68,116.07L285.39,116.83L317.1,117.76L348.81,117.85L380.52,118.02L412.23,116.91L475.65,115.66L507.35,119.41L539.06,115.61L570.77,110.84L602.48,117.91L634.19,120.76L665.9,118.29L697.61,116.96L729.32,116.6L761.03,117.68L792.74,109.61L824.45,118.83L856.16,288.83L887.87,295.56L919.58,328.49L951.29,320.9L983,114.57" style="vector-effect: none; fill: none; stroke: rgb(43, 144, 143); stroke-opacity: 1; stroke-width: 2px; opacity: 1;"/></g><g class="points"/><g class="text"/></g><g class="trace scatter trace4fba6c" style="stroke-miterlimit: 2; opacity: 1;"><g class="fills"/><g class="errorbars"/><g class="lines"><path class="js-line" d="M0,116.61L31.71,116.35L63.42,113.03L95.13,117.83L126.84,116.36L158.55,113.95L190.26,117.08L221.97,116.81L253.68,114.92L285.39,116.8L317.1,117.88L348.81,117.8L380.52,115.89L412.23,117.63L443.94,115.57L475.65,115.56L507.35,118.47L539.06,115.63L570.77,104.91L602.48,118.19L634.19,122.06L665.9,117.64L697.61,116.92L761.03,119.58L792.74,112.6L824.45,121.78L856.16,20.26L887.87,45.01L919.58,31.96L951.29,76.83L983,180.78" style="vector-effect: none; fill: none; stroke: rgb(244, 91, 91); stroke-opacity: 1; stroke-width: 2px; opacity: 1;"/></g><g class="points"/><g class="text"/></g><g class="trace scatter trace0d3f33" style="stroke-miterlimit: 2; opacity: 1;"><g class="fills"/><g class="errorbars"/><g class="lines"><path class="js-line" d="M0,117.17L31.71,118.59L63.42,114.72L95.13,119.27L126.84,118.49L158.55,115.94L190.26,117.47L221.97,118.34L253.68,115.81L317.1,120.01L348.81,118.41L380.52,115.97L412.23,119.15L443.94,116.57L475.65,114.9L507.35,118.08L539.06,116.84L570.77,104.72L602.48,119.38L634.19,122.28L665.9,117.12L697.61,113.29L729.32,113.12L761.03,112.47L792.74,105.88L824.45,114.33L856.16,294.97L887.87,287.25L919.58,336.66L951.29,331.5L983,118.42" style="vector-effect: none; fill: none; stroke: rgb(145, 232, 225); stroke-opacity: 1; stroke-width: 2px; opacity: 1;"/></g><g class="points"/><g class="text"/></g><g class="trace scatter tracec661a9" style="stroke-miterlimit: 2; opacity: 1;"><g class="fills"/><g class="errorbars"/><g class="lines"><path class="js-line" d="M0,115.98L31.71,115.94L63.42,115.03L95.13,117.14L126.84,116.96L158.55,115.06L190.26,116.73L221.97,116.59L253.68,115.64L317.1,117.86L348.81,116.22L380.52,118.17L412.23,117.47L443.94,116.17L475.65,113.95L507.35,118.85L539.06,115.68L570.77,107.27L602.48,117.78L634.19,120.05L665.9,117.18L697.61,115.54L729.32,115.57L761.03,113.82L792.74,108.86L824.45,118.06L856.16,35.12L887.87,58.24L919.58,47.25L951.29,94.26L983,181.27" style="vector-effect: none; fill: none; stroke: rgb(124, 181, 236); stroke-opacity: 1; stroke-width: 2px; opacity: 1;"/></g><g class="points"/><g class="text"/></g><g class="trace scatter traceb7fc29" style="stroke-miterlimit: 2; opacity: 1;"><g class="fills"/><g class="errorbars"/><g class="lines"><path class="js-line" d="M0,115.03L31.71,117.37L63.42,114.73L95.13,117.18L126.84,117.3L158.55,114.56L190.26,117.58L221.97,116.87L253.68,117.18L317.1,119.21L348.81,116.91L380.52,118.55L412.23,118.54L443.94,117.5L475.65,114.48L507.35,120.72L539.06,116.55L570.77,106.68L602.48,119.21L634.19,122.5L665.9,118.69L697.61,116.01L729.32,114.95L761.03,113.71L792.74,109.59L824.45,117.18L856.16,294.99L887.87,299.36L919.58,329.61L951.29,336.16L983,115.52" style="vector-effect: none; fill: none; stroke: rgb(67, 67, 72); stroke-opacity: 1; stroke-width: 2px; opacity: 1;"/></g><g class="points"/><g class="text"/></g><g class="trace scatter traceb0f02c" style="stroke-miterlimit: 2; opacity: 1;"><g class="fills"/><g class="errorbars"/><g class="lines"><path class="js-line" d="M0,116.38L31.71,116.31L63.42,113.95L95.13,117.92L126.84,116.76L158.55,114.34L190.26,117.02L253.68,116.16L285.39,117.01L317.1,118.12L348.81,117.85L380.52,117.05L412.23,117.09L443.94,115.64L475.65,115.72L507.35,118.42L539.06,115.18L570.77,109.82L602.48,118.26L634.19,121.65L665.9,117.67L729.32,116.9L761.03,119.06L792.74,111.76L824.45,121.86L856.16,283.82L887.87,297.9L919.58,319.89L951.29,321.5L983,114.91" style="vector-effect: none; fill: none; stroke: rgb(144, 237, 125); stroke-opacity: 1; stroke-width: 2px; opacity: 1;"/></g><g class="points"/><g class="text"/></g><g class="trace scatter trace294712" style="stroke-miterlimit: 2; opacity: 1;"><g class="fills"/><g class="errorbars"/><g class="lines"><path class="js-line" d="M0,117.65L31.71,118.47L63.42,112.4L95.13,120.97L126.84,118.84L158.55,114.81L190.26,116.5L221.97,118.32L253.68,114.04L317.1,120.3L348.81,118.41L380.52,113.55L412.23,118.89L475.65,112.68L507.35,117.62L539.06,116.95L570.77,111.51L602.48,119.75L634.19,122.18L697.61,113.66L729.32,114.53L761.03,114.13L792.74,106.44L824.45,112.92L856.16,302.88L887.87,304.59L919.58,327.85L951.29,326.48L983,119" style="vector-effect: none; fill: none; stroke: rgb(247, 163, 92); stroke-opacity: 1; stroke-width: 2px; opacity: 1;"/></g><g class="points"/><g class="text"/></g><g class="trace scatter tracea406d3" style="stroke-miterlimit: 2; opacity: 1;"><g class="fills"/><g class="errorbars"/><g class="lines"><path class="js-line" d="M0,115.98L31.71,115.72L63.42,113.45L95.13,117.08L126.84,115.93L158.55,113.45L190.26,116.71L253.68,115.89L285.39,116.52L317.1,117.48L348.81,117.57L443.94,115.47L475.65,116.2L507.35,118.87L539.06,115.37L570.77,108.77L602.48,117.31L634.19,121.27L665.9,118.35L729.32,117.61L761.03,120.21L792.74,112.55L824.45,123.66L856.16,21.42L887.87,43.96L919.58,29.8L951.29,77.9L983,180.03" style="vector-effect: none; fill: none; stroke: rgb(128, 133, 233); stroke-opacity: 1; stroke-width: 2px; opacity: 1;"/></g><g class="points"/><g class="text"/></g><g class="trace scatter trace81c2f7" style="stroke-miterlimit: 2; opacity: 1;"><g class="fills"/><g class="errorbars"/><g class="lines"><path class="js-line" d="M0,116.17L31.71,115.88L63.42,113.66L95.13,118.07L126.84,116.61L158.55,114.58L190.26,117.01L221.97,116.65L253.68,115.32L317.1,117.85L348.81,117.59L380.52,116.56L412.23,117.02L443.94,114.99L475.65,114.08L507.35,118.67L539.06,115.8L570.77,105.68L602.48,117.89L634.19,120.41L665.9,117.8L697.61,117.39L729.32,118.84L761.03,119.21L792.74,115.2L824.45,121.53L856.16,22.79L887.87,44.38L919.58,32.95L951.29,80.29L983,180.33" style="vector-effect: none; fill: none; stroke: rgb(241, 92, 128); stroke-opacity: 1; stroke-width: 2px; opacity: 1;"/></g><g class="points"/><g class="text"/></g><g class="trace scatter tracefada6b" style="stroke-miterlimit: 2; opacity: 1;"><g class="fills"/><g class="errorbars"/><g class="lines"><path class="js-line" d="M0,115.72L31.71,116.73L63.42,112.73L95.13,118.29L126.84,116.49L158.55,114.55L190.26,117.43L221.97,116.46L253.68,114.46L285.39,115.47L317.1,118.05L348.81,117.46L380.52,115.49L412.23,116.82L443.94,114.44L475.65,115.38L507.35,117.73L539.06,115.5L570.77,109.85L602.48,118.41L634.19,121.92L665.9,117.67L697.61,114.41L729.32,117.42L761.03,117.86L792.74,112.74L824.45,122.75L856.16,28.1L887.87,48.59L919.58,38.39L951.29,82.28L983,180.62" style="vector-effect: none; fill: none; stroke: rgb(228, 211, 84); stroke-opacity: 1; stroke-width: 2px; opacity: 1;"/></g><g class="points"/><g class="text"/></g><g class="trace scatter trace195d50" style="stroke-miterlimit: 2; opacity: 1;"><g class="fills"/><g class="errorbars"/><g class="lines"><path class="js-line" d="M0,116.07L31.71,117.55L63.42,115.79L95.13,117.37L126.84,117.49L158.55,115.58L190.26,116.95L221.97,117.6L253.68,115.74L285.39,117.81L317.1,118.84L348.81,116.05L380.52,118.13L412.23,117.96L443.94,116.62L475.65,113.7L507.35,119.16L539.06,116.11L570.77,114.72L602.48,118.19L634.19,119.77L665.9,117.09L697.61,115.53L729.32,115.65L761.03,113.05L792.74,109.02L824.45,114.96L856.16,289.32L887.87,292.46L919.58,328.08L951.29,329.59L983,116.6" style="vector-effect: none; fill: none; stroke: rgb(43, 144, 143); stroke-opacity: 1; stroke-width: 2px; opacity: 1;"/></g><g class="points"/><g class="text"/></g><g class="trace scatter tracecefec7" style="stroke-miterlimit: 2; opacity: 1;"><g class="fills"/><g class="errorbars"/><g class="lines"><path class="js-line" d="M0,116.78L63.42,113.63L95.13,117.74L126.84,116.83L158.55,114.08L190.26,117.02L221.97,116.87L253.68,115.59L285.39,116.86L317.1,117.68L348.81,117.3L380.52,116.89L412.23,117.26L443.94,115.18L475.65,116.1L507.35,117.92L539.06,116.34L570.77,111.32L602.48,118.74L634.19,122.19L665.9,118.43L697.61,118.95L729.32,117.28L761.03,120.17L792.74,113.6L824.45,113.32L856.16,283.14L887.87,300.52L919.58,329.14L951.29,321.72L983,114.86" style="vector-effect: none; fill: none; stroke: rgb(244, 91, 91); stroke-opacity: 1; stroke-width: 2px; opacity: 1;"/></g><g class="points"/><g class="text"/></g><g class="trace scatter trace949898" style="stroke-miterlimit: 2; opacity: 1;"><g class="fills"/><g class="errorbars"/><g class="lines"><path class="js-line" d="M0,116.15L31.71,116.45L63.42,114.05L95.13,117.63L126.84,117.37L158.55,114.56L190.26,117.2L221.97,117.35L253.68,115.84L285.39,116.49L317.1,118.28L380.52,117.09L412.23,116.88L475.65,115.05L507.35,118.2L570.77,112.74L602.48,117.8L634.19,121.78L665.9,117.79L697.61,117.16L729.32,117.66L761.03,118.19L792.74,111.08L824.45,120.95L856.16,285.29L887.87,292.66L919.58,324.31L951.29,322.32L983,115.24" style="vector-effect: none; fill: none; stroke: rgb(145, 232, 225); stroke-opacity: 1; stroke-width: 2px; opacity: 1;"/></g><g class="points"/><g class="text"/></g><g class="trace scatter tracedec81b" style="stroke-miterlimit: 2; opacity: 1;"><g class="fills"/><g class="errorbars"/><g class="lines"><path class="js-line" d="M0,115.64L31.71,117.24L63.42,112.99L95.13,118.03L126.84,116.78L158.55,113.43L190.26,117.12L221.97,117.87L253.68,114.9L285.39,115.99L317.1,118.55L348.81,118L380.52,116.05L412.23,117.82L443.94,115.31L475.65,115.97L507.35,117.75L539.06,115.96L570.77,108.88L602.48,118.47L634.19,121.88L665.9,117.67L697.61,114.89L761.03,116.82L792.74,110.57L824.45,119.1L856.16,23.92L887.87,45.04L919.58,33.72L951.29,79.79L983,181.33" style="vector-effect: none; fill: none; stroke: rgb(124, 181, 236); stroke-opacity: 1; stroke-width: 2px; opacity: 1;"/></g><g class="points"/><g class="text"/></g><g class="trace scatter trace0ba0e4" style="stroke-miterlimit: 2; opacity: 1;"><g class="fills"/><g class="errorbars"/><g class="lines"><path class="js-line" d="M0,116.7L31.71,117.14L63.42,113.84L95.13,118.28L126.84,116.9L158.55,114.42L190.26,117.36L221.97,117.2L253.68,115.59L317.1,117.01L348.81,115.48L412.23,117.27L443.94,115.86L475.65,115.42L507.35,118.15L539.06,116.6L570.77,114.07L602.48,118.74L634.19,121.86L665.9,117.97L697.61,116.46L729.32,116.4L761.03,117.32L792.74,111.32L824.45,119.06L856.16,292.63L887.87,298.17L919.58,335.47L951.29,332.92L983,115.67" style="vector-effect: none; fill: none; stroke: rgb(67, 67, 72); stroke-opacity: 1; stroke-width: 2px; opacity: 1;"/></g><g class="points"/><g class="text"/></g><g class="trace scatter trace63f7f2" style="stroke-miterlimit: 2; opacity: 1;"><g class="fills"/><g class="errorbars"/><g class="lines"><path class="js-line" d="M0,116.52L31.71,118.7L63.42,115.43L95.13,118.19L126.84,118.52L158.55,116.57L190.26,117.46L221.97,117.69L253.68,115.89L317.1,119.57L348.81,116.17L412.23,118.55L443.94,116.86L475.65,113.3L507.35,118.65L570.77,113.35L602.48,118.76L634.19,122.4L665.9,116.64L697.61,113.38L729.32,112.79L761.03,111.08L792.74,106.45L824.45,113.21L856.16,298.21L887.87,305.44L919.58,324.28L951.29,328.05L983,118.48" style="vector-effect: none; fill: none; stroke: rgb(144, 237, 125); stroke-opacity: 1; stroke-width: 2px; opacity: 1;"/></g><g class="points"/><g class="text"/></g><g class="trace scatter trace58a11c" style="stroke-miterlimit: 2; opacity: 1;"><g class="fills"/><g class="errorbars"/><g class="lines"><path class="js-line" d="M0,116.54L31.71,117.52L63.42,113.72L95.13,118.92L126.84,117.41L158.55,114.58L190.26,117.53L221.97,117.18L253.68,115.31L317.1,118.99L348.81,117.12L380.52,116.41L412.23,117.6L475.65,114.79L507.35,118.32L539.06,116.45L570.77,109.25L602.48,118.56L634.19,121.95L665.9,117.99L697.61,116.28L761.03,116.02L792.74,111.32L824.45,120.56L856.16,295.63L887.87,301.56L919.58,330.64L951.29,320.32L983,115.79" style="vector-effect: none; fill: none; stroke: rgb(247, 163, 92); stroke-opacity: 1; stroke-width: 2px; opacity: 1;"/></g><g class="points"/><g class="text"/></g><g class="trace scatter trace02e856" style="stroke-miterlimit: 2; opacity: 1;"><g class="fills"/><g class="errorbars"/><g class="lines"><path class="js-line" d="M0,116.83L31.71,116.9L63.42,114.06L95.13,118.85L126.84,117.54L158.55,114.55L190.26,116.86L221.97,117.81L253.68,115.73L317.1,118.51L348.81,117.61L380.52,116.07L412.23,118.3L443.94,116.09L475.65,116.21L507.35,117.63L539.06,116.74L570.77,103.7L602.48,118.64L634.19,121.61L665.9,118.24L697.61,117.92L729.32,116.79L761.03,118.22L792.74,114.76L824.45,115.65L856.16,290.27L887.87,300.35L919.58,332.29L951.29,325.65L983,116.22" style="vector-effect: none; fill: none; stroke: rgb(128, 133, 233); stroke-opacity: 1; stroke-width: 2px; opacity: 1;"/></g><g class="points"/><g class="text"/></g><g class="trace scatter tracebe22d1" style="stroke-miterlimit: 2; opacity: 1;"><g class="fills"/><g class="errorbars"/><g class="lines"><path class="js-line" d="M0,115.55L31.71,118.86L63.42,112.52L95.13,119.57L126.84,117.76L158.55,116.97L190.26,117.7L221.97,117.6L253.68,114.04L285.39,117.33L317.1,119.6L348.81,117.58L380.52,114.18L412.23,119.58L443.94,114.93L475.65,111.56L507.35,118.5L539.06,115.82L570.77,116.28L634.19,123.32L665.9,117.06L697.61,112.25L729.32,115.78L761.03,113.81L792.74,112.64L824.45,111.18L856.16,299.08L887.87,304.56L919.58,330.47L951.29,333.43L983,117.64" style="vector-effect: none; fill: none; stroke: rgb(241, 92, 128); stroke-opacity: 1; stroke-width: 2px; opacity: 1;"/></g><g class="points"/><g class="text"/></g><g class="trace scatter tracefb7c23" style="stroke-miterlimit: 2; opacity: 1;"><g class="fills"/><g class="errorbars"/><g class="lines"><path class="js-line" d="M0,115.76L31.71,115.43L63.42,113.31L95.13,117.24L126.84,116.02L158.55,114.39L190.26,117.19L253.68,115.27L285.39,116.5L348.81,117.41L380.52,116.48L412.23,116.41L443.94,114.58L475.65,114.63L507.35,117.72L539.06,115.37L570.77,109.93L602.48,117.26L634.19,120.11L665.9,117.78L697.61,118.2L729.32,118.14L761.03,121.03L792.74,116.88L824.45,118.75L856.16,24.59L887.87,47.39L919.58,33.31L951.29,80.36L983,180.65" style="vector-effect: none; fill: none; stroke: rgb(228, 211, 84); stroke-opacity: 1; stroke-width: 2px; opacity: 1;"/></g><g class="points"/><g class="text"/></g><g class="trace scatter trace568940" style="stroke-miterlimit: 2; opacity: 1;"><g class="fills"/><g class="errorbars"/><g class="lines"><path class="js-line" d="M0,116.98L31.71,121.55L63.42,108.47L95.13,122.4L126.84,119L158.55,115.25L190.26,116.83L221.97,118.97L253.68,110.39L285.39,114.55L317.1,121.11L348.81,119.8L380.52,108.29L412.23,119.69L443.94,112.36L507.35,116.63L539.06,117.41L570.77,113.56L602.48,121.16L634.19,124.48L665.9,116.97L697.61,108.65L729.32,118.84L761.03,119.02L792.74,111.08L824.45,108.32L856.16,294.67L887.87,318.45L919.58,344.74L951.29,334.5L983,120.72" style="vector-effect: none; fill: none; stroke: rgb(43, 144, 143); stroke-opacity: 1; stroke-width: 2px; opacity: 1;"/></g><g class="points"/><g class="text"/></g><g class="trace scatter tracefc7758" style="stroke-miterlimit: 2; opacity: 1;"><g class="fills"/><g class="errorbars"/><g class="lines"><path class="js-line" d="M0,116.12L31.71,119.25L63.42,111.93L95.13,120.27L126.84,118.11L158.55,116.06L190.26,117.23L221.97,117.94L253.68,113.23L285.39,115.95L317.1,119.82L348.81,118.59L380.52,112.44L412.23,119.04L443.94,113.58L475.65,114.12L507.35,117.76L539.06,116.52L570.77,110.25L602.48,119.68L634.19,121.42L697.61,112.12L729.32,117.07L761.03,117.03L792.74,112.72L824.45,119.4L856.16,300.46L887.87,304.11L919.58,337.33L951.29,331.63L983,118.48" style="vector-effect: none; fill: none; stroke: rgb(244, 91, 91); stroke-opacity: 1; stroke-width: 2px; opacity: 1;"/></g><g class="points"/><g class="text"/></g><g class="trace scatter tracefa43fa" style="stroke-miterlimit: 2; opacity: 1;"><g class="fills"/><g class="errorbars"/><g class="lines"><path class="js-line" d="M0,116.51L31.71,116.64L63.42,112.81L95.13,117.76L126.84,116.5L158.55,113.97L190.26,117.32L221.97,116.73L253.68,115.07L317.1,118.43L348.81,117.6L380.52,115.88L412.23,116.86L475.65,113.44L507.35,117.96L539.06,115.67L570.77,111.9L602.48,117.93L634.19,122.17L665.9,118.07L697.61,115.77L729.32,116.78L761.03,118.76L792.74,111.82L824.45,117.26L856.16,24.15L887.87,47.23L919.58,34.05L951.29,80.61L983,180.35" style="vector-effect: none; fill: none; stroke: rgb(145, 232, 225); stroke-opacity: 1; stroke-width: 2px; opacity: 1;"/></g><g class="points"/><g class="text"/></g><g class="trace scatter trace6e500b" style="stroke-miterlimit: 2; opacity: 1;"><g class="fills"/><g class="errorbars"/><g class="lines"><path class="js-line" d="M0,116.23L31.71,116.86L63.42,113.06L95.13,118.2L126.84,116.59L158.55,114.25L190.26,117.12L221.97,116.82L253.68,114.96L285.39,115.9L317.1,118.26L380.52,115.97L412.23,116.71L443.94,115.24L475.65,115.82L507.35,118.47L539.06,115.68L570.77,107.23L602.48,117.97L634.19,121.51L665.9,117.6L697.61,115.08L729.32,117.32L761.03,118.32L792.74,110.84L824.45,121.52L856.16,27.88L887.87,49.05L919.58,37.94L951.29,83.85L983,180.63" style="vector-effect: none; fill: none; stroke: rgb(124, 181, 236); stroke-opacity: 1; stroke-width: 2px; opacity: 1;"/></g><g class="points"/><g class="text"/></g><g class="trace scatter trace451a13" style="stroke-miterlimit: 2; opacity: 1;"><g class="fills"/><g class="errorbars"/><g class="lines"><path class="js-line" d="M0,115.57L31.71,116.27L63.42,113.13L95.13,118.04L126.84,116.86L158.55,114.6L190.26,116.7L221.97,116.63L253.68,115.03L317.1,117.81L348.81,117.52L380.52,115.7L412.23,117.08L443.94,115.18L475.65,114.74L507.35,117.89L539.06,115.89L570.77,111.08L602.48,117.93L634.19,121.13L665.9,117.55L697.61,115.21L729.32,116.68L761.03,118.43L792.74,111.29L824.45,121.9L856.16,24.7L887.87,47.73L919.58,34.24L951.29,80.47L983,180.74" style="vector-effect: none; fill: none; stroke: rgb(67, 67, 72); stroke-opacity: 1; stroke-width: 2px; opacity: 1;"/></g><g class="points"/><g class="text"/></g><g class="trace scatter tracef2c874" style="stroke-miterlimit: 2; opacity: 1;"><g class="fills"/><g class="errorbars"/><g class="lines"><path class="js-line" d="M0,116.45L31.71,117.15L63.42,113.25L95.13,118.16L126.84,116.93L158.55,114.59L190.26,117.52L253.68,115.5L285.39,116.43L317.1,118.46L348.81,117.01L380.52,116.69L412.23,117.67L443.94,115.57L475.65,114.23L507.35,119.03L539.06,116.18L570.77,113.94L602.48,118.56L634.19,122.32L665.9,118.1L697.61,115.94L729.32,116.12L761.03,117.03L792.74,111.16L824.45,119.22L856.16,295.93L887.87,296.98L919.58,327.2L951.29,323.71L983,116.05" style="vector-effect: none; fill: none; stroke: rgb(144, 237, 125); stroke-opacity: 1; stroke-width: 2px; opacity: 1;"/></g><g class="points"/><g class="text"/></g><g class="trace scatter trace31857b" style="stroke-miterlimit: 2; opacity: 1;"><g class="fills"/><g class="errorbars"/><g class="lines"><path class="js-line" d="M0,116.88L31.71,118.96L63.42,110.97L95.13,120.1L126.84,117.46L158.55,114.79L190.26,116.89L221.97,117.55L253.68,112.7L285.39,115.18L317.1,119.52L348.81,117.38L380.52,111.91L412.23,118.24L443.94,113.81L475.65,115.83L507.35,117.06L539.06,116.77L570.77,107.18L602.48,119.64L634.19,122.51L665.9,117.13L697.61,110.6L729.32,117.23L761.03,117.96L792.74,111.18L824.45,116.79L856.16,31.32L887.87,57.2L919.58,45.72L951.29,91.47L983,182.63" style="vector-effect: none; fill: none; stroke: rgb(247, 163, 92); stroke-opacity: 1; stroke-width: 2px; opacity: 1;"/></g><g class="points"/><g class="text"/></g><g class="trace scatter trace73d7fa" style="stroke-miterlimit: 2; opacity: 1;"><g class="fills"/><g class="errorbars"/><g class="lines"><path class="js-line" d="M0,115.78L31.71,117.27L63.42,116.82L126.84,118.02L158.55,115.89L190.26,117.35L221.97,117.57L253.68,116.8L285.39,118.6L317.1,119.11L348.81,116.28L380.52,119.78L412.23,117.2L443.94,117.53L475.65,111.61L507.35,118.46L539.06,116.41L570.77,113.78L602.48,118.68L634.19,121.8L665.9,117.47L729.32,114.46L761.03,111.69L792.74,108.25L824.45,112.16L856.16,287.78L887.87,301.08L919.58,330.4L951.29,329.37L983,117.27" style="vector-effect: none; fill: none; stroke: rgb(128, 133, 233); stroke-opacity: 1; stroke-width: 2px; opacity: 1;"/></g><g class="points"/><g class="text"/></g><g class="trace scatter trace00ce82" style="stroke-miterlimit: 2; opacity: 1;"><g class="fills"/><g class="errorbars"/><g class="lines"><path class="js-line" d="M0,115.49L31.71,118.6L63.42,116.44L95.13,118.19L126.84,118.46L158.55,116.99L190.26,117.07L221.97,117.93L253.68,116.03L285.39,118.43L317.1,119.82L348.81,116.91L380.52,118.58L443.94,116.77L475.65,114.35L507.35,118.51L539.06,116.49L570.77,110.01L602.48,119.38L634.19,121.06L665.9,116.4L697.61,112.8L729.32,114.23L761.03,112.67L792.74,109.34L824.45,108.38L856.16,288.75L887.87,296.54L919.58,317.76L951.29,318.32L983,119.08" style="vector-effect: none; fill: none; stroke: rgb(241, 92, 128); stroke-opacity: 1; stroke-width: 2px; opacity: 1;"/></g><g class="points"/><g class="text"/></g><g class="trace scatter trace39ebf3" style="stroke-miterlimit: 2; opacity: 1;"><g class="fills"/><g class="errorbars"/><g class="lines"><path class="js-line" d="M0,115.28L31.71,116.91L63.42,114.09L95.13,117.53L126.84,116.3L158.55,114.31L190.26,116.52L221.97,116.48L253.68,114.59L285.39,115.82L317.1,117.94L348.81,116.35L380.52,116.25L412.23,116.65L443.94,114.82L475.65,114.77L507.35,118.13L539.06,115.45L570.77,113.58L634.19,121.96L665.9,117.13L697.61,113.64L729.32,118.13L761.03,116.86L792.74,114.41L824.45,120.05L856.16,23.4L887.87,48.77L919.58,37.39L951.29,83.29L983,181.65" style="vector-effect: none; fill: none; stroke: rgb(228, 211, 84); stroke-opacity: 1; stroke-width: 2px; opacity: 1;"/></g><g class="points"/><g class="text"/></g><g class="trace scatter trace6ba3d9" style="stroke-miterlimit: 2; opacity: 1;"><g class="fills"/><g class="errorbars"/><g class="lines"><path class="js-line" d="M0,115.7L31.71,116.72L63.42,112.32L95.13,118.24L126.84,116.4L158.55,113.9L190.26,117.28L253.68,114.88L285.39,115.44L317.1,117.92L348.81,117.62L380.52,115.66L412.23,117.03L443.94,114.82L475.65,115.47L507.35,117.74L539.06,115.84L570.77,110.18L602.48,118.61L634.19,122.2L665.9,118.04L697.61,114.31L729.32,117.4L761.03,118.76L792.74,111L824.45,119.99L856.16,30.64L887.87,52.64L919.58,41.37L951.29,85.71L983,180.75" style="vector-effect: none; fill: none; stroke: rgb(43, 144, 143); stroke-opacity: 1; stroke-width: 2px; opacity: 1;"/></g><g class="points"/><g class="text"/></g><g class="trace scatter tracefbb310" style="stroke-miterlimit: 2; opacity: 1;"><g class="fills"/><g class="errorbars"/><g class="lines"><path class="js-line" d="M0,116.26L31.71,117.29L63.42,111.22L95.13,118.71L126.84,116.64L158.55,114.35L190.26,117.22L221.97,116.97L253.68,114.19L285.39,114.9L317.1,118.04L348.81,118.2L380.52,114.73L412.23,116.88L443.94,113.66L475.65,114.49L507.35,117.85L539.06,116.43L570.77,111.42L602.48,118.91L634.19,122.43L665.9,117.92L697.61,117.25L729.32,120.35L761.03,121.42L792.74,117.61L824.45,119.75L856.16,286.24L887.87,308.46L919.58,334L951.29,322.25L983,115.52" style="vector-effect: none; fill: none; stroke: rgb(244, 91, 91); stroke-opacity: 1; stroke-width: 2px; opacity: 1;"/></g><g class="points"/><g class="text"/></g><g class="trace scatter traceb8fd88" style="stroke-miterlimit: 2; opacity: 1;"><g class="fills"/><g class="errorbars"/><g class="lines"><path class="js-line" d="M0,115.15L31.71,116.09L63.42,112.16L95.13,117.05L126.84,115.88L158.55,113.82L190.26,117.59L221.97,115.58L253.68,114.55L285.39,114.32L317.1,117.76L348.81,117.59L380.52,115.36L412.23,116.28L443.94,113.79L475.65,114.14L507.35,118.42L539.06,115.97L570.77,108.35L602.48,118.92L634.19,122.29L665.9,118.49L697.61,117.75L729.32,121.5L761.03,122.55L792.74,119.28L824.45,118.7L856.16,25.39L887.87,49.02L919.58,36.87L951.29,81.63L983,179.76" style="vector-effect: none; fill: none; stroke: rgb(145, 232, 225); stroke-opacity: 1; stroke-width: 2px; opacity: 1;"/></g><g class="points"/><g class="text"/></g><g class="trace scatter trace5fe8b5" style="stroke-miterlimit: 2; opacity: 1;"><g class="fills"/><g class="errorbars"/><g class="lines"><path class="js-line" d="M0,115.4L31.71,117.47L63.42,113.43L95.13,118.11L126.84,116.87L158.55,114.67L190.26,117.19L221.97,116.52L253.68,114.06L285.39,115.23L317.1,118.17L380.52,115.46L412.23,117.19L443.94,114.04L475.65,115.45L507.35,118.04L539.06,115.79L570.77,114.65L602.48,118.12L634.19,120.52L665.9,117.12L697.61,111.08L729.32,117.91L761.03,118.03L792.74,113.44L824.45,121.03L856.16,22.39L887.87,48.29L919.58,36.87L951.29,80.97L983,180.75" style="vector-effect: none; fill: none; stroke: rgb(124, 181, 236); stroke-opacity: 1; stroke-width: 2px; opacity: 1;"/></g><g class="points"/><g class="text"/></g><g class="trace scatter trace9bb57c" style="stroke-miterlimit: 2; opacity: 1;"><g class="fills"/><g class="errorbars"/><g class="lines"><path class="js-line" d="M0,116.58L31.71,120.69L63.42,109.48L95.13,121.71L126.84,117.9L158.55,115.3L190.26,116.77L221.97,118.41L253.68,110.91L285.39,114.33L317.1,119.78L348.81,119.44L380.52,109.2L412.23,118.99L443.94,112.41L475.65,115.5L507.35,116.67L570.77,115.26L602.48,120.11L634.19,123.48L665.9,116.23L697.61,109.8L729.32,117.46L761.03,118.91L792.74,110.43L824.45,121.75L856.16,299.85L887.87,305.26L919.58,337.97L951.29,339.54L983,120.14" style="vector-effect: none; fill: none; stroke: rgb(67, 67, 72); stroke-opacity: 1; stroke-width: 2px; opacity: 1;"/></g><g class="points"/><g class="text"/></g><g class="trace scatter trace3abcb8" style="stroke-miterlimit: 2; opacity: 1;"><g class="fills"/><g class="errorbars"/><g class="lines"><path class="js-line" d="M0,116.26L31.71,116.33L63.42,112.18L95.13,118.12L126.84,116.11L158.55,114.45L190.26,117.01L221.97,116.82L253.68,114.98L317.1,118.15L348.81,116.06L380.52,115.61L412.23,117.54L443.94,114.72L475.65,115.48L507.35,118.22L539.06,115.46L570.77,106.59L602.48,118.44L634.19,121.46L665.9,118.47L697.61,117.33L729.32,118.57L761.03,122.23L792.74,113.81L824.45,119.43L856.16,22.93L887.87,45.46L919.58,32L951.29,81.03L983,179.87" style="vector-effect: none; fill: none; stroke: rgb(144, 237, 125); stroke-opacity: 1; stroke-width: 2px; opacity: 1;"/></g><g class="points"/><g class="text"/></g><g class="trace scatter trace09452d" style="stroke-miterlimit: 2; opacity: 1;"><g class="fills"/><g class="errorbars"/><g class="lines"><path class="js-line" d="M0,115.5L31.71,115.5L63.42,113.36L95.13,116.86L126.84,116.44L158.55,113.42L190.26,117.41L221.97,115.64L253.68,115.33L285.39,115.65L317.1,117.7L380.52,116.79L412.23,115.75L475.65,113.75L507.35,118.5L539.06,115.71L570.77,108.61L602.48,117.67L634.19,121.65L665.9,118.5L697.61,116.92L761.03,120.24L792.74,113.67L824.45,124.55L856.16,27.01L887.87,50.63L919.58,38.87L951.29,82.91L983,179.85" style="vector-effect: none; fill: none; stroke: rgb(247, 163, 92); stroke-opacity: 1; stroke-width: 2px; opacity: 1;"/></g><g class="points"/><g class="text"/></g><g class="trace scatter trace49a477" style="stroke-miterlimit: 2; opacity: 1;"><g class="fills"/><g class="errorbars"/><g class="lines"><path class="js-line" d="M0,116.69L31.71,118.55L63.42,111.52L95.13,119.05L126.84,117.44L158.55,114.85L190.26,116.54L221.97,117.5L253.68,112.86L285.39,116.82L317.1,118.26L348.81,117.39L380.52,113.07L412.23,118.06L443.94,113.66L507.35,116.52L539.06,115.42L570.77,110.92L602.48,118.54L634.19,122.61L665.9,116.81L697.61,112.42L729.32,115.05L761.03,117.38L792.74,107.93L824.45,112.03L856.16,38.37L887.87,64.18L919.58,51.49L951.29,99.78L983,182.18" style="vector-effect: none; fill: none; stroke: rgb(128, 133, 233); stroke-opacity: 1; stroke-width: 2px; opacity: 1;"/></g><g class="points"/><g class="text"/></g><g class="trace scatter trace47e1ac" style="stroke-miterlimit: 2; opacity: 1;"><g class="fills"/><g class="errorbars"/><g class="lines"><path class="js-line" d="M0,115.83L31.71,116.58L63.42,112.82L95.13,118.06L126.84,116.37L158.55,114.34L190.26,117.58L253.68,115.45L285.39,115.17L317.1,117.9L348.81,117.73L380.52,116.01L412.23,116.72L443.94,114.88L475.65,114.17L507.35,118.67L539.06,115.96L570.77,108.54L602.48,118.47L634.19,122.58L665.9,118.43L697.61,117.8L729.32,120.35L761.03,121.28L792.74,116.92L824.45,121.08L856.16,295.44L887.87,303.6L919.58,330.5L951.29,328.12L983,114.95" style="vector-effect: none; fill: none; stroke: rgb(241, 92, 128); stroke-opacity: 1; stroke-width: 2px; opacity: 1;"/></g><g class="points"/><g class="text"/></g><g class="trace scatter trace18c318" style="stroke-miterlimit: 2; opacity: 1;"><g class="fills"/><g class="errorbars"/><g class="lines"><path class="js-line" d="M0,116.12L31.71,116.92L63.42,113.17L95.13,117.63L126.84,117.11L158.55,114.84L190.26,117.24L253.68,115.81L285.39,116.23L317.1,118.07L348.81,117.36L380.52,116.67L412.23,117.45L443.94,116.15L475.65,113.29L507.35,118.83L539.06,116.52L570.77,110.51L602.48,118.6L634.19,121.5L665.9,118.39L697.61,116.61L729.32,117.6L761.03,117.56L792.74,113.81L824.45,123.59L856.16,297.01L887.87,299.32L919.58,331.64L951.29,330L983,115.16" style="vector-effect: none; fill: none; stroke: rgb(228, 211, 84); stroke-opacity: 1; stroke-width: 2px; opacity: 1;"/></g><g class="points"/><g class="text"/></g><g class="trace scatter trace04768b" style="stroke-miterlimit: 2; opacity: 1;"><g class="fills"/><g class="errorbars"/><g class="lines"><path class="js-line" d="M0,116.27L31.71,116.15L63.42,114.56L95.13,117.9L126.84,116.43L158.55,114.74L190.26,117.12L253.68,115.49L285.39,117.06L348.81,117.68L380.52,117.32L443.94,115.1L475.65,116.97L507.35,118.17L539.06,115.16L570.77,107.04L602.48,117.7L634.19,120.72L665.9,117.5L729.32,117.61L761.03,120.47L792.74,114.35L824.45,123.11L856.16,290.39L887.87,315.57L919.58,331.57L951.29,334.81L983,114.79" style="vector-effect: none; fill: none; stroke: rgb(43, 144, 143); stroke-opacity: 1; stroke-width: 2px; opacity: 1;"/></g><g class="points"/><g class="text"/></g><g class="trace scatter trace36a2cc" style="stroke-miterlimit: 2; opacity: 1;"><g class="fills"/><g class="errorbars"/><g class="lines"><path class="js-line" d="M0,116.19L31.71,115.51L63.42,113.71L95.13,117.11L126.84,116.14L158.55,114.44L190.26,116.84L253.68,115.46L285.39,116.38L317.1,117.81L348.81,116.58L412.23,116.86L443.94,115.81L475.65,115.76L507.35,118.23L570.77,112.91L602.48,117.34L634.19,120.49L665.9,118.07L697.61,116.76L729.32,116.47L761.03,118.8L792.74,112.87L824.45,116.27L856.16,24.16L887.87,46.5L919.58,34.24L951.29,79.49L983,180.27" style="vector-effect: none; fill: none; stroke: rgb(244, 91, 91); stroke-opacity: 1; stroke-width: 2px; opacity: 1;"/></g><g class="points"/><g class="text"/></g><g class="trace scatter trace200cb4" style="stroke-miterlimit: 2; opacity: 1;"><g class="fills"/><g class="errorbars"/><g class="lines"><path class="js-line" d="M0,116.85L31.71,119.79L63.42,113.2L95.13,120.08L126.84,118.92L158.55,115.72L190.26,117.31L221.97,118.81L253.68,114.45L317.1,120.38L348.81,116.53L380.52,115.33L412.23,118.81L475.65,113.44L507.35,117.73L539.06,116.96L570.77,113.39L602.48,119.43L634.19,121.75L665.9,116.17L697.61,112.49L729.32,113.25L761.03,111.56L792.74,106.4L824.45,112.23L856.16,287.21L887.87,296.44L919.58,332.37L951.29,329.02L983,119.3" style="vector-effect: none; fill: none; stroke: rgb(145, 232, 225); stroke-opacity: 1; stroke-width: 2px; opacity: 1;"/></g><g class="points"/><g class="text"/></g><g class="trace scatter tracea1c9c1" style="stroke-miterlimit: 2; opacity: 1;"><g class="fills"/><g class="errorbars"/><g class="lines"><path class="js-line" d="M0,115.4L31.71,116.72L63.42,112.78L95.13,118.06L126.84,116.93L158.55,114.41L190.26,116.97L221.97,116.95L253.68,115.2L285.39,115.13L317.1,117.86L380.52,115.43L412.23,117.43L443.94,114.63L475.65,113.98L507.35,117.79L539.06,116.36L570.77,109.29L602.48,118.24L634.19,121.06L665.9,117.5L697.61,116.21L729.32,118.81L761.03,119.07L792.74,113.21L824.45,122.11L856.16,24.82L887.87,47.67L919.58,35.49L951.29,79.77L983,181.29" style="vector-effect: none; fill: none; stroke: rgb(124, 181, 236); stroke-opacity: 1; stroke-width: 2px; opacity: 1;"/></g><g class="points"/><g class="text"/></g><g class="trace scatter trace7758b8" style="stroke-miterlimit: 2; opacity: 1;"><g class="fills"/><g class="errorbars"/><g class="lines"><path class="js-line" d="M0,116.04L31.71,117.53L63.42,111.89L95.13,118.24L126.84,116.8L158.55,114.4L190.26,117.25L221.97,116.71L253.68,114.51L285.39,114.96L317.1,118.32L348.81,117.61L380.52,115.06L412.23,116.62L443.94,114.21L475.65,113.58L507.35,117.74L570.77,115.22L602.48,118.6L634.19,122.71L665.9,117.64L697.61,116.28L729.32,118.54L761.03,119.76L792.74,113.67L824.45,125.17L856.16,296.55L887.87,300.24L919.58,329.88L951.29,330.81L983,115.42" style="vector-effect: none; fill: none; stroke: rgb(67, 67, 72); stroke-opacity: 1; stroke-width: 2px; opacity: 1;"/></g><g class="points"/><g class="text"/></g><g class="trace scatter trace344ded" style="stroke-miterlimit: 2; opacity: 1;"><g class="fills"/><g class="errorbars"/><g class="lines"><path class="js-line" d="M0,115.63L31.71,117.73L63.42,113.29L95.13,118.52L126.84,117.03L158.55,115.73L190.26,116.55L221.97,116.59L253.68,113.7L317.1,118.3L348.81,116.98L380.52,114.24L412.23,117.78L443.94,114.71L475.65,112.91L507.35,117.77L539.06,115.64L602.48,118.64L634.19,122.85L697.61,110.71L729.32,116.5L761.03,115.5L792.74,109.76L824.45,118.84L856.16,27.01L887.87,52.1L919.58,40.97L951.29,87L983,181.92" style="vector-effect: none; fill: none; stroke: rgb(144, 237, 125); stroke-opacity: 1; stroke-width: 2px; opacity: 1;"/></g><g class="points"/><g class="text"/></g><g class="trace scatter tracea5c6cd" style="stroke-miterlimit: 2; opacity: 1;"><g class="fills"/><g class="errorbars"/><g class="lines"><path class="js-line" d="M0,116.39L31.71,118.44L63.42,112.6L95.13,118.48L126.84,117.62L158.55,115.29L190.26,116.7L221.97,117.14L253.68,114.06L317.1,118.94L348.81,117.82L380.52,114.22L412.23,118.94L443.94,114.39L475.65,114.17L507.35,116.7L539.06,115.04L570.77,113.3L602.48,118.52L634.19,122.33L665.9,117.25L697.61,112.08L729.32,116.24L761.03,115.31L792.74,111.46L824.45,111.8L856.16,27.49L887.87,50.86L919.58,39.75L951.29,89.87L983,181.69" style="vector-effect: none; fill: none; stroke: rgb(247, 163, 92); stroke-opacity: 1; stroke-width: 2px; opacity: 1;"/></g><g class="points"/><g class="text"/></g><g class="trace scatter tracee5b7dd" style="stroke-miterlimit: 2; opacity: 1;"><g class="fills"/><g class="errorbars"/><g class="lines"><path class="js-line" d="M0,115.62L31.71,118.61L63.42,114.17L95.13,117.98L126.84,117.43L158.55,115.78L190.26,117.53L221.97,117.06L253.68,114.89L317.1,119.66L348.81,116.39L380.52,116.73L412.23,118.13L443.94,116.27L475.65,112.28L507.35,118.67L539.06,116.53L570.77,114.67L602.48,119.61L634.19,122.56L665.9,117.04L697.61,116.13L729.32,117.48L761.03,112.67L792.74,113.25L824.45,114.01L856.16,289.88L919.58,329.26L951.29,328.71L983,116.61" style="vector-effect: none; fill: none; stroke: rgb(128, 133, 233); stroke-opacity: 1; stroke-width: 2px; opacity: 1;"/></g><g class="points"/><g class="text"/></g><g class="trace scatter trace046c91" style="stroke-miterlimit: 2; opacity: 1;"><g class="fills"/><g class="errorbars"/><g class="lines"><path class="js-line" d="M0,116.15L31.71,117.8L63.42,113.02L95.13,118.62L126.84,117.52L158.55,114.99L190.26,116.79L221.97,117.2L253.68,114.03L317.1,118.86L348.81,118.38L380.52,114.86L412.23,117.94L443.94,114.51L475.65,113.61L507.35,118.03L539.06,116.17L570.77,113.18L602.48,118.85L634.19,122.8L665.9,116.55L697.61,113.6L729.32,117.4L761.03,118.02L792.74,111.37L824.45,121.44L856.16,293.14L887.87,305.87L919.58,334.84L951.29,322.97L983,117.55" style="vector-effect: none; fill: none; stroke: rgb(241, 92, 128); stroke-opacity: 1; stroke-width: 2px; opacity: 1;"/></g><g class="points"/><g class="text"/></g><g class="trace scatter trace783871" style="stroke-miterlimit: 2; opacity: 1;"><g class="fills"/><g class="errorbars"/><g class="lines"><path class="js-line" d="M0,115.48L31.71,118.52L63.42,114.04L95.13,117.29L126.84,116.62L158.55,115.76L190.26,117.23L221.97,116.95L253.68,113.96L285.39,117.46L317.1,118.91L348.81,116.51L380.52,115.57L412.23,117.83L443.94,115.55L475.65,113.36L507.35,118.47L539.06,116.42L570.77,113.06L602.48,119.16L634.19,122.89L665.9,117.82L697.61,113.89L729.32,117.78L761.03,114.49L792.74,113.24L824.45,110.46L856.16,18.15L887.87,44.32L919.58,32.57L951.29,81.45L983,182.62" style="vector-effect: none; fill: none; stroke: rgb(228, 211, 84); stroke-opacity: 1; stroke-width: 2px; opacity: 1;"/></g><g class="points"/><g class="text"/></g><g class="trace scatter traceeaaee6" style="stroke-miterlimit: 2; opacity: 1;"><g class="fills"/><g class="errorbars"/><g class="lines"><path class="js-line" d="M0,115.95L31.71,116.19L63.42,114.51L95.13,117.95L126.84,116.66L158.55,114.61L190.26,116.62L221.97,116.84L253.68,115.17L317.1,117.88L348.81,117.15L412.23,116.94L443.94,115.27L507.35,118.63L539.06,115.49L570.77,115.77L602.48,117.26L634.19,119.38L665.9,117.45L697.61,116.47L729.32,116.67L761.03,119.16L792.74,111.91L824.45,117.54L856.16,287.03L887.87,304.26L919.58,335.95L951.29,323.33L983,115.05" style="vector-effect: none; fill: none; stroke: rgb(43, 144, 143); stroke-opacity: 1; stroke-width: 2px; opacity: 1;"/></g><g class="points"/><g class="text"/></g><g class="trace scatter tracea9540f" style="stroke-miterlimit: 2; opacity: 1;"><g class="fills"/><g class="errorbars"/><g class="lines"><path class="js-line" d="M0,115.95L31.71,115.88L63.42,113.57L95.13,117.28L126.84,116.23L158.55,114.57L190.26,117.49L221.97,116.29L253.68,115.92L348.81,117.78L380.52,117.19L412.23,116.8L443.94,115.58L475.65,115.92L507.35,118.85L539.06,115.33L570.77,114.77L602.48,117.43L634.19,121.57L665.9,118.36L697.61,117.83L729.32,116.7L761.03,119.53L792.74,113.16L824.45,120.51L856.16,288.79L887.87,298.14L919.58,326.37L951.29,318.52L983,113.55" style="vector-effect: none; fill: none; stroke: rgb(244, 91, 91); stroke-opacity: 1; stroke-width: 2px; opacity: 1;"/></g><g class="points"/><g class="text"/></g><g class="trace scatter trace35528a" style="stroke-miterlimit: 2; opacity: 1;"><g class="fills"/><g class="errorbars"/><g class="lines"><path class="js-line" d="M0,115.94L31.71,116.32L63.42,111.41L95.13,117.61L126.84,116.09L158.55,113.08L190.26,117.41L253.68,114.05L285.39,114.49L317.1,117.49L348.81,117.92L380.52,115.05L412.23,116.54L443.94,113.95L475.65,116.47L507.35,117.8L539.06,115.42L570.77,107.97L602.48,118.26L634.19,122.38L665.9,118.47L697.61,115.45L729.32,119.71L761.03,122.03L792.74,114.68L824.45,124.39L856.16,31.09L887.87,53.37L919.58,41.01L951.29,85.4L983,179.54" style="vector-effect: none; fill: none; stroke: rgb(145, 232, 225); stroke-opacity: 1; stroke-width: 2px; opacity: 1;"/></g><g class="points"/><g class="text"/></g><g class="trace scatter tracec0a9c2" style="stroke-miterlimit: 2; opacity: 1;"><g class="fills"/><g class="errorbars"/><g class="lines"><path class="js-line" d="M0,116.93L31.71,117.08L63.42,112.82L95.13,118.78L126.84,116.58L158.55,114.4L190.26,117.04L221.97,116.98L253.68,114.1L317.1,118.47L348.81,117.02L380.52,115.26L412.23,117.3L443.94,114.43L475.65,115.35L507.35,117.55L539.06,115.61L570.77,110.27L602.48,118.62L634.19,121.03L665.9,117.43L697.61,114.47L729.32,116.78L761.03,117.89L792.74,111.4L824.45,116.63L856.16,28.33L887.87,51.05L919.58,38.99L951.29,84.54L983,180.89" style="vector-effect: none; fill: none; stroke: rgb(124, 181, 236); stroke-opacity: 1; stroke-width: 2px; opacity: 1;"/></g><g class="points"/><g class="text"/></g><g class="trace scatter traceba5b50" style="stroke-miterlimit: 2; opacity: 1;"><g class="fills"/><g class="errorbars"/><g class="lines"><path class="js-line" d="M0,116.01L31.71,117.41L63.42,112.01L95.13,118.38L126.84,117.12L158.55,114.31L190.26,116.84L221.97,116.9L253.68,114.71L317.1,118.34L348.81,117.67L380.52,114.71L412.23,118.15L443.94,114.27L475.65,115.51L507.35,117.11L539.06,115.87L570.77,108.01L602.48,117.98L634.19,121.52L665.9,117.81L697.61,115.49L729.32,117.52L761.03,119.21L792.74,114.01L824.45,121.12L856.16,23.72L887.87,45.69L919.58,33.44L951.29,80.86L983,180.79" style="vector-effect: none; fill: none; stroke: rgb(67, 67, 72); stroke-opacity: 1; stroke-width: 2px; opacity: 1;"/></g><g class="points"/><g class="text"/></g><g class="trace scatter traceee6173" style="stroke-miterlimit: 2; opacity: 1;"><g class="fills"/><g class="errorbars"/><g class="lines"><path class="js-line" d="M0,116.05L31.71,118.82L63.42,112.53L95.13,119.49L126.84,117.6L158.55,115.53L190.26,117.18L221.97,117.64L253.68,113.49L285.39,115.74L317.1,119.07L348.81,117.79L380.52,112.94L412.23,118.14L443.94,114.38L475.65,114.88L507.35,117.44L539.06,116.56L570.77,111.19L602.48,119.03L634.19,120.89L665.9,117.14L697.61,111.07L729.32,116.34L761.03,115.32L792.74,110.61L824.45,119.52L856.16,23.16L887.87,48.28L919.58,37.48L951.29,84.58L983,182.87" style="vector-effect: none; fill: none; stroke: rgb(144, 237, 125); stroke-opacity: 1; stroke-width: 2px; opacity: 1;"/></g><g class="points"/><g class="text"/></g><g class="trace scatter trace53d14e" style="stroke-miterlimit: 2; opacity: 1;"><g class="fills"/><g class="errorbars"/><g class="lines"><path class="js-line" d="M0,115.85L63.42,113.79L95.13,116.61L126.84,115.41L158.55,112.84L190.26,116.31L221.97,115.82L253.68,115.38L285.39,115.95L348.81,116.9L380.52,116.84L443.94,114.77L475.65,116.12L507.35,117.99L539.06,115.11L570.77,112.97L602.48,117.25L634.19,120.93L665.9,117.98L729.32,117.72L761.03,121.03L792.74,113.35L824.45,124.19L856.16,25.48L887.87,47.14L919.58,32.45L951.29,80.03L983,180.12" style="vector-effect: none; fill: none; stroke: rgb(247, 163, 92); stroke-opacity: 1; stroke-width: 2px; opacity: 1;"/></g><g class="points"/><g class="text"/></g><g class="trace scatter tracec14424" style="stroke-miterlimit: 2; opacity: 1;"><g class="fills"/><g class="errorbars"/><g class="lines"><path class="js-line" d="M0,114.93L31.71,117.96L63.42,113.21L95.13,118.36L126.84,116.93L158.55,115.4L190.26,116.92L221.97,116.41L253.68,113.23L317.1,118.45L348.81,117.04L380.52,114.23L412.23,117.59L443.94,114.5L475.65,114.6L507.35,117.99L539.06,115.97L570.77,113.74L602.48,118.85L634.19,122.06L665.9,116.8L697.61,111.64L729.32,118.07L761.03,116.8L792.74,111.82L824.45,119.97L856.16,25.13L887.87,51.3L919.58,40.32L951.29,87.49L983,182.22" style="vector-effect: none; fill: none; stroke: rgb(128, 133, 233); stroke-opacity: 1; stroke-width: 2px; opacity: 1;"/></g><g class="points"/><g class="text"/></g><g class="trace scatter trace6b3df2" style="stroke-miterlimit: 2; opacity: 1;"><g class="fills"/><g class="errorbars"/><g class="lines"><path class="js-line" d="M0,115.13L31.71,117.07L63.42,111.78L95.13,118.03L126.84,116.34L158.55,113.97L190.26,116.96L221.97,115.79L253.68,113.5L285.39,115.11L317.1,117.65L348.81,117.15L380.52,114.06L412.23,116.88L443.94,113.46L475.65,115.03L507.35,118.18L539.06,115.02L570.77,118.53L602.48,118.96L634.19,123.03L665.9,117.37L697.61,115.37L729.32,120.64L761.03,122.18L792.74,116.36L824.45,126.35L856.16,290.73L887.87,307.49L919.58,336.97L951.29,324.7L983,114.55" style="vector-effect: none; fill: none; stroke: rgb(241, 92, 128); stroke-opacity: 1; stroke-width: 2px; opacity: 1;"/></g><g class="points"/><g class="text"/></g><g class="trace scatter traceda32e1" style="stroke-miterlimit: 2; opacity: 1;"><g class="fills"/><g class="errorbars"/><g class="lines"><path class="js-line" d="M0,115.86L31.71,118.3L63.42,111.48L95.13,118.89L126.84,117.44L158.55,113.99L190.26,116.71L221.97,116.57L253.68,112.71L285.39,115.34L317.1,118.86L348.81,118.49L380.52,112.54L412.23,117.84L443.94,113.8L507.35,117.09L539.06,115.56L570.77,113.75L602.48,118.4L634.19,122.15L665.9,117.52L697.61,112.14L729.32,116.76L761.03,119.12L792.74,110.82L824.45,122.58L856.16,23.24L887.87,48.52L919.58,37.45L951.29,84.74L983,181.66" style="vector-effect: none; fill: none; stroke: rgb(228, 211, 84); stroke-opacity: 1; stroke-width: 2px; opacity: 1;"/></g><g class="points"/><g class="text"/></g><g class="trace scatter tracef3d72e" style="stroke-miterlimit: 2; opacity: 1;"><g class="fills"/><g class="errorbars"/><g class="lines"><path class="js-line" d="M0,115.65L31.71,116.67L63.42,112.2L95.13,118.32L126.84,115.87L158.55,114.2L190.26,117.22L221.97,116.01L253.68,113.62L317.1,117.45L348.81,117.7L380.52,114.36L412.23,117.15L443.94,113.84L475.65,116.46L507.35,117.85L539.06,114.84L570.77,115.87L602.48,117.77L634.19,120.97L665.9,117.3L697.61,114.53L729.32,118.66L761.03,121.51L792.74,115.13L824.45,115.2L856.16,23.98L887.87,47.16L919.58,34.2L951.29,83.7L983,180.8" style="vector-effect: none; fill: none; stroke: rgb(43, 144, 143); stroke-opacity: 1; stroke-width: 2px; opacity: 1;"/></g><g class="points"/><g class="text"/></g><g class="trace scatter trace974e9d" style="stroke-miterlimit: 2; opacity: 1;"><g class="fills"/><g class="errorbars"/><g class="lines"><path class="js-line" d="M0,116.07L31.71,115.78L63.42,113.75L95.13,117.65L126.84,116.14L158.55,114.85L190.26,116.37L221.97,116.03L253.68,114.4L285.39,116.69L317.1,117.5L380.52,115.91L412.23,116.21L443.94,114.44L475.65,116.17L507.35,117.47L539.06,115.11L570.77,112.61L602.48,117.14L634.19,121.31L665.9,117.18L697.61,116.43L729.32,117.89L761.03,119.91L792.74,114L824.45,118.99L856.16,20.9L887.87,44.29L919.58,31.12L951.29,82L983,181.46" style="vector-effect: none; fill: none; stroke: rgb(244, 91, 91); stroke-opacity: 1; stroke-width: 2px; opacity: 1;"/></g><g class="points"/><g class="text"/></g><g class="trace scatter tracea80485" style="stroke-miterlimit: 2; opacity: 1;"><g class="fills"/><g class="errorbars"/><g class="lines"><path class="js-line" d="M0,115.97L31.71,119.72L63.42,113.79L95.13,119.44L126.84,118.19L158.55,116.18L190.26,117.48L221.97,117.96L253.68,114.46L317.1,118.21L348.81,115.59L380.52,114.97L412.23,118.36L475.65,113.44L507.35,118.06L539.06,117.54L570.77,112.93L602.48,119.91L634.19,123.61L665.9,117.16L697.61,113.77L729.32,118.61L761.03,114.09L792.74,112.83L824.45,107.75L856.16,301.69L887.87,306.38L919.58,337.63L951.29,344.85L983,118.37" style="vector-effect: none; fill: none; stroke: rgb(145, 232, 225); stroke-opacity: 1; stroke-width: 2px; opacity: 1;"/></g><g class="points"/><g class="text"/></g><g class="trace scatter trace089615" style="stroke-miterlimit: 2; opacity: 1;"><g class="fills"/><g class="errorbars"/><g class="lines"><path class="js-line" d="M0,113.36L31.71,117.58L63.42,113.4L95.13,117.56L126.84,116.7L158.55,116L190.26,117.76L221.97,115.4L253.68,113.89L317.1,118.8L348.81,115.86L380.52,116L412.23,118.34L475.65,112.61L507.35,118.74L539.06,115.76L570.77,117.78L602.48,119.25L634.19,123.28L697.61,111.45L729.32,118.99L761.03,113.72L792.74,115.48L824.45,113.42L856.16,23.43L887.87,52.63L919.58,41.76L951.29,90.31L983,180.55" style="vector-effect: none; fill: none; stroke: rgb(124, 181, 236); stroke-opacity: 1; stroke-width: 2px; opacity: 1;"/></g><g class="points"/><g class="text"/></g><g class="trace scatter tracea94d62" style="stroke-miterlimit: 2; opacity: 1;"><g class="fills"/><g class="errorbars"/><g class="lines"><path class="js-line" d="M0,115.38L31.71,115.59L63.42,113.04L95.13,116.95L126.84,115.5L158.55,113.43L190.26,116.78L253.68,114.41L285.39,114.86L317.1,116.91L348.81,117.08L443.94,114.67L475.65,114.56L507.35,117.95L539.06,115.26L570.77,114.44L602.48,118L634.19,121.31L665.9,117.72L697.61,116.26L729.32,118.05L761.03,121.03L792.74,115.09L824.45,124.11L856.16,28.3L887.87,50.68L919.58,38.45L951.29,81.99L983,179.51" style="vector-effect: none; fill: none; stroke: rgb(67, 67, 72); stroke-opacity: 1; stroke-width: 2px; opacity: 1;"/></g><g class="points"/><g class="text"/></g><g class="trace scatter trace9d7ebd" style="stroke-miterlimit: 2; opacity: 1;"><g class="fills"/><g class="errorbars"/><g class="lines"><path class="js-line" d="M0,115.32L31.71,115.36L63.42,113.41L95.13,116.37L126.84,116.36L158.55,113.24L190.26,116.35L221.97,116.04L253.68,114.89L285.39,116.61L317.1,115.84L380.52,116.02L412.23,116.7L443.94,115.19L475.65,114.76L507.35,117.57L539.06,115.5L570.77,109.63L602.48,118.22L634.19,119.71L665.9,117.56L697.61,118.41L729.32,116.99L761.03,119.19L792.74,113.08L824.45,116.92L856.16,45.49L887.87,72.2L919.58,58.05L951.29,99.25L983,178.93" style="vector-effect: none; fill: none; stroke: rgb(144, 237, 125); stroke-opacity: 1; stroke-width: 2px; opacity: 1;"/></g><g class="points"/><g class="text"/></g><g class="trace scatter trace046276" style="stroke-miterlimit: 2; opacity: 1;"><g class="fills"/><g class="errorbars"/><g class="lines"><path class="js-line" d="M0,116.4L31.71,116.43L63.42,112.88L95.13,117.85L126.84,116.38L158.55,113.53L190.26,116.31L221.97,116.65L253.68,114.85L317.1,117.94L348.81,116.29L380.52,115.71L412.23,116.76L443.94,115.32L475.65,115.76L507.35,117.52L539.06,115.61L570.77,112.25L602.48,117.52L634.19,121.04L665.9,117.58L697.61,115.45L729.32,116.84L761.03,119.34L792.74,113.42L824.45,120.74L856.16,24.98L887.87,47.98L919.58,35.56L951.29,82.29L983,180.17" style="vector-effect: none; fill: none; stroke: rgb(247, 163, 92); stroke-opacity: 1; stroke-width: 2px; opacity: 1;"/></g><g class="points"/><g class="text"/></g><g class="trace scatter trace30db5e" style="stroke-miterlimit: 2; opacity: 1;"><g class="fills"/><g class="errorbars"/><g class="lines"><path class="js-line" d="M0,116.18L31.71,116.58L63.42,112.49L95.13,118.35L126.84,116.77L158.55,114.31L190.26,117.57L221.97,117.13L253.68,114.68L285.39,115.38L317.1,118.11L348.81,118.16L380.52,115.77L412.23,116.88L443.94,114.4L475.65,115.07L507.35,118.39L539.06,115.9L570.77,107.76L602.48,118.35L634.19,121.58L665.9,118.17L697.61,116.94L729.32,119.64L761.03,121.46L792.74,115.87L824.45,123.94L856.16,291.97L887.87,302.38L919.58,334.06L951.29,329.2L983,115.08" style="vector-effect: none; fill: none; stroke: rgb(128, 133, 233); stroke-opacity: 1; stroke-width: 2px; opacity: 1;"/></g><g class="points"/><g class="text"/></g><g class="trace scatter trace89e883" style="stroke-miterlimit: 2; opacity: 1;"><g class="fills"/><g class="errorbars"/><g class="lines"><path class="js-line" d="M0,115.72L31.71,115.78L63.42,113.39L95.13,116.75L126.84,116.21L158.55,113.98L190.26,117.51L221.97,115.69L253.68,115.13L317.1,117.75L348.81,116.7L380.52,117.37L412.23,116.42L475.65,113.13L507.35,118.73L539.06,115.62L570.77,115.87L602.48,118.1L634.19,122.02L665.9,118.66L697.61,117.96L729.32,119.6L761.03,120.2L792.74,116.07L824.45,124.25L856.16,293.59L887.87,299.52L919.58,327.59L951.29,320.28L983,114.07" style="vector-effect: none; fill: none; stroke: rgb(241, 92, 128); stroke-opacity: 1; stroke-width: 2px; opacity: 1;"/></g><g class="points"/><g class="text"/></g><g class="trace scatter traceff05b3" style="stroke-miterlimit: 2; opacity: 1;"><g class="fills"/><g class="errorbars"/><g class="lines"><path class="js-line" d="M0,114.98L31.71,116.81L63.42,113.79L95.13,117.73L126.84,116.46L158.55,115.1L190.26,116.65L221.97,116.22L253.68,114.19L317.1,117.82L348.81,117.16L380.52,115.33L412.23,116.34L443.94,114.53L475.65,114.39L507.35,117.7L539.06,115.25L570.77,116.06L602.48,117.65L634.19,121.4L665.9,116.43L697.61,116L729.32,118.67L761.03,117.85L792.74,114.44L824.45,123.02L856.16,18.55L887.87,44.79L919.58,33.27L951.29,80.46L983,181.33" style="vector-effect: none; fill: none; stroke: rgb(228, 211, 84); stroke-opacity: 1; stroke-width: 2px; opacity: 1;"/></g><g class="points"/><g class="text"/></g><g class="trace scatter trace76e171" style="stroke-miterlimit: 2; opacity: 1;"><g class="fills"/><g class="errorbars"/><g class="lines"><path class="js-line" d="M0,116.31L31.71,119.25L63.42,111.34L95.13,120.26L126.84,118.18L158.55,115.87L190.26,116.45L221.97,118.43L253.68,112.63L317.1,119.9L348.81,118.29L380.52,111.92L412.23,119.92L443.94,114.15L475.65,115.36L507.35,117.23L539.06,116.88L570.77,110.87L602.48,118.84L634.19,122.36L665.9,116.2L697.61,109.77L729.32,116.08L761.03,115.72L792.74,107.53L824.45,116.77L856.16,26.04L887.87,47.16L919.58,38.27L951.29,85.8L983,183.83" style="vector-effect: none; fill: none; stroke: rgb(43, 144, 143); stroke-opacity: 1; stroke-width: 2px; opacity: 1;"/></g><g class="points"/><g class="text"/></g><g class="trace scatter tracec53343" style="stroke-miterlimit: 2; opacity: 1;"><g class="fills"/><g class="errorbars"/><g class="lines"><path class="js-line" d="M0,114.98L31.71,116.27L63.42,113.61L95.13,117.05L126.84,117.58L158.55,114.86L190.26,117.26L253.68,114.83L285.39,117.73L317.1,118.43L348.81,116.17L412.23,117.34L443.94,115.2L475.65,112.79L507.35,118.01L539.06,115.55L570.77,115.12L602.48,117.41L634.19,121.84L665.9,117.31L697.61,114.61L729.32,117.4L761.03,113.75L792.74,112.44L824.45,121.71L856.16,25.56L887.87,49.65L919.58,41.79L951.29,86.87L983,181.31" style="vector-effect: none; fill: none; stroke: rgb(244, 91, 91); stroke-opacity: 1; stroke-width: 2px; opacity: 1;"/></g><g class="points"/><g class="text"/></g><g class="trace scatter tracec9a502" style="stroke-miterlimit: 2; opacity: 1;"><g class="fills"/><g class="errorbars"/><g class="lines"><path class="js-line" d="M0,115.9L31.71,116.44L63.42,112.95L95.13,118.11L126.84,115.98L158.55,114.33L190.26,117.19L221.97,116.51L253.68,114.13L285.39,116.46L317.1,116.25L348.81,116.68L380.52,115.1L412.23,117.37L443.94,114.74L507.35,117.92L539.06,115.14L570.77,109.42L602.48,118.24L634.19,121.47L665.9,117.85L697.61,116.66L729.32,119.28L761.03,121.65L792.74,114.99L824.45,116.89L856.16,20.64L887.87,44.35L919.58,30.67L951.29,82.14L983,181.61" style="vector-effect: none; fill: none; stroke: rgb(145, 232, 225); stroke-opacity: 1; stroke-width: 2px; opacity: 1;"/></g><g class="points"/><g class="text"/></g><g class="trace scatter traceabc9f4" style="stroke-miterlimit: 2; opacity: 1;"><g class="fills"/><g class="errorbars"/><g class="lines"><path class="js-line" d="M0,116.5L31.71,116.53L63.42,111.05L95.13,118.68L126.84,116.67L158.55,112.4L190.26,117.39L253.68,113.79L285.39,114.04L317.1,117.1L348.81,117.33L380.52,114.18L412.23,116.47L443.94,114.45L475.65,117.16L507.35,117.76L539.06,116.78L570.77,108.99L602.48,119.28L634.19,122.19L665.9,119.42L697.61,118.51L729.32,120.83L761.03,123.6L792.74,117.12L824.45,126.26L856.16,297.16L887.87,302.65L919.58,331.82L951.29,330.91L983,115.35" style="vector-effect: none; fill: none; stroke: rgb(124, 181, 236); stroke-opacity: 1; stroke-width: 2px; opacity: 1;"/></g><g class="points"/><g class="text"/></g><g class="trace scatter trace561238" style="stroke-miterlimit: 2; opacity: 1;"><g class="fills"/><g class="errorbars"/><g class="lines"><path class="js-line" d="M0,115.95L31.71,118.88L63.42,113.85L95.13,119.01L126.84,117.32L158.55,115.85L190.26,117.55L221.97,117.68L253.68,114.68L317.1,117.97L348.81,115.61L380.52,115.14L412.23,118.03L443.94,115.38L475.65,114.58L507.35,118.35L539.06,116.79L570.77,111.53L602.48,119.79L634.19,122.29L665.9,117.39L697.61,115.99L729.32,118.18L761.03,115.5L792.74,113.61L824.45,112.3L856.16,294.31L887.87,302.64L919.58,335.27L951.29,334.86L983,117.13" style="vector-effect: none; fill: none; stroke: rgb(67, 67, 72); stroke-opacity: 1; stroke-width: 2px; opacity: 1;"/></g><g class="points"/><g class="text"/></g><g class="trace scatter tracec8a98e" style="stroke-miterlimit: 2; opacity: 1;"><g class="fills"/><g class="errorbars"/><g class="lines"><path class="js-line" d="M0,116.77L31.71,117.16L63.42,114.14L95.13,117.56L126.84,116.87L158.55,114.38L190.26,117.23L221.97,117.06L253.68,115.58L317.1,118.58L348.81,117.07L412.23,117.85L443.94,116.6L475.65,113.84L507.35,118.45L539.06,116.19L570.77,111.75L602.48,118.02L634.19,121.21L665.9,118.71L697.61,116.97L729.32,115.57L761.03,117.35L792.74,113.3L824.45,116.01L856.16,290.38L887.87,304.57L919.58,327.23L951.29,322.91L983,115.15" style="vector-effect: none; fill: none; stroke: rgb(144, 237, 125); stroke-opacity: 1; stroke-width: 2px; opacity: 1;"/></g><g class="points"/><g class="text"/></g><g class="trace scatter tracee3a184" style="stroke-miterlimit: 2; opacity: 1;"><g class="fills"/><g class="errorbars"/><g class="lines"><path class="js-line" d="M0,115.77L31.71,116.29L63.42,112.51L95.13,117.24L126.84,116.03L158.55,114.65L190.26,116.43L221.97,116.46L253.68,114.15L317.1,117.33L348.81,116.21L380.52,115.3L412.23,116.91L443.94,114.63L475.65,115.47L507.35,117.16L539.06,115.66L570.77,114.19L602.48,117.54L634.19,121.51L665.9,117.59L697.61,115.93L729.32,119.28L761.03,119.6L792.74,115.09L824.45,121.43L856.16,24.03L887.87,46.56L919.58,35.82L951.29,79.76L983,180.43" style="vector-effect: none; fill: none; stroke: rgb(247, 163, 92); stroke-opacity: 1; stroke-width: 2px; opacity: 1;"/></g><g class="points"/><g class="text"/></g></g></g></g><g class="zerolinelayer-above"/><path class="xlines-above crisp" d="M0,0" style="fill: none;"/><path class="ylines-above crisp" d="M0,0" style="fill: none;"/><g class="overlines-above"/><g class="xaxislayer-above"><g class="xtick"><text text-anchor="start" x="0" y="429" transform="translate(60,0) rotate(29.999999999999996,0,424)" style="font-family: system-ui, -apple-system, 'Segoe UI', Roboto, 'Helvetica Neue', 'Noto Sans', 'Liberation Sans', Arial, sans-serif, 'Apple Color Emoji', 'Segoe UI Emoji', 'Segoe UI Symbol', 'Noto Color Emoji'; font-size: 10px; fill: rgb(80, 80, 80); fill-opacity: 1; white-space: pre;">1</text></g><g class="xtick"><text text-anchor="start" x="0" y="429" transform="translate(91.71000000000001,0) rotate(29.999999999999996,0,424)" style="font-family: system-ui, -apple-system, 'Segoe UI', Roboto, 'Helvetica Neue', 'Noto Sans', 'Liberation Sans', Arial, sans-serif, 'Apple Color Emoji', 'Segoe UI Emoji', 'Segoe UI Symbol', 'Noto Color Emoji'; font-size: 10px; fill: rgb(80, 80, 80); fill-opacity: 1; white-space: pre;">2</text></g><g class="xtick"><text text-anchor="start" x="0" y="429" transform="translate(123.42,0) rotate(29.999999999999996,0,424)" style="font-family: system-ui, -apple-system, 'Segoe UI', Roboto, 'Helvetica Neue', 'Noto Sans', 'Liberation Sans', Arial, sans-serif, 'Apple Color Emoji', 'Segoe UI Emoji', 'Segoe UI Symbol', 'Noto Color Emoji'; font-size: 10px; fill: rgb(80, 80, 80); fill-opacity: 1; white-space: pre;">3</text></g><g class="xtick"><text text-anchor="start" x="0" y="429" transform="translate(155.13,0) rotate(29.999999999999996,0,424)" style="font-family: system-ui, -apple-system, 'Segoe UI', Roboto, 'Helvetica Neue', 'Noto Sans', 'Liberation Sans', Arial, sans-serif, 'Apple Color Emoji', 'Segoe UI Emoji', 'Segoe UI Symbol', 'Noto Color Emoji'; font-size: 10px; fill: rgb(80, 80, 80); fill-opacity: 1; white-space: pre;">4</text></g><g class="xtick"><text text-anchor="start" x="0" y="429" transform="translate(186.84,0) rotate(29.999999999999996,0,424)" style="font-family: system-ui, -apple-system, 'Segoe UI', Roboto, 'Helvetica Neue', 'Noto Sans', 'Liberation Sans', Arial, sans-serif, 'Apple Color Emoji', 'Segoe UI Emoji', 'Segoe UI Symbol', 'Noto Color Emoji'; font-size: 10px; fill: rgb(80, 80, 80); fill-opacity: 1; white-space: pre;">5</text></g><g class="xtick"><text text-anchor="start" x="0" y="429" transform="translate(218.55,0) rotate(29.999999999999996,0,424)" style="font-family: system-ui, -apple-system, 'Segoe UI', Roboto, 'Helvetica Neue', 'Noto Sans', 'Liberation Sans', Arial, sans-serif, 'Apple Color Emoji', 'Segoe UI Emoji', 'Segoe UI Symbol', 'Noto Color Emoji'; font-size: 10px; fill: rgb(80, 80, 80); fill-opacity: 1; white-space: pre;">6</text></g><g class="xtick"><text text-anchor="start" x="0" y="429" transform="translate(250.26,0) rotate(29.999999999999996,0,424)" style="font-family: system-ui, -apple-system, 'Segoe UI', Roboto, 'Helvetica Neue', 'Noto Sans', 'Liberation Sans', Arial, sans-serif, 'Apple Color Emoji', 'Segoe UI Emoji', 'Segoe UI Symbol', 'Noto Color Emoji'; font-size: 10px; fill: rgb(80, 80, 80); fill-opacity: 1; white-space: pre;">7</text></g><g class="xtick"><text text-anchor="start" x="0" y="429" transform="translate(281.97,0) rotate(29.999999999999996,0,424)" style="font-family: system-ui, -apple-system, 'Segoe UI', Roboto, 'Helvetica Neue', 'Noto Sans', 'Liberation Sans', Arial, sans-serif, 'Apple Color Emoji', 'Segoe UI Emoji', 'Segoe UI Symbol', 'Noto Color Emoji'; font-size: 10px; fill: rgb(80, 80, 80); fill-opacity: 1; white-space: pre;">8</text></g><g class="xtick"><text text-anchor="start" x="0" y="429" transform="translate(313.68,0) rotate(29.999999999999996,0,424)" style="font-family: system-ui, -apple-system, 'Segoe UI', Roboto, 'Helvetica Neue', 'Noto Sans', 'Liberation Sans', Arial, sans-serif, 'Apple Color Emoji', 'Segoe UI Emoji', 'Segoe UI Symbol', 'Noto Color Emoji'; font-size: 10px; fill: rgb(80, 80, 80); fill-opacity: 1; white-space: pre;">9</text></g><g class="xtick"><text text-anchor="start" x="0" y="429" transform="translate(345.39,0) rotate(29.999999999999996,0,424)" style="font-family: system-ui, -apple-system, 'Segoe UI', Roboto, 'Helvetica Neue', 'Noto Sans', 'Liberation Sans', Arial, sans-serif, 'Apple Color Emoji', 'Segoe UI Emoji', 'Segoe UI Symbol', 'Noto Color Emoji'; font-size: 10px; fill: rgb(80, 80, 80); fill-opacity: 1; white-space: pre;">10</text></g><g class="xtick"><text text-anchor="start" x="0" y="429" transform="translate(377.1,0) rotate(29.999999999999996,0,424)" style="font-family: system-ui, -apple-system, 'Segoe UI', Roboto, 'Helvetica Neue', 'Noto Sans', 'Liberation Sans', Arial, sans-serif, 'Apple Color Emoji', 'Segoe UI Emoji', 'Segoe UI Symbol', 'Noto Color Emoji'; font-size: 10px; fill: rgb(80, 80, 80); fill-opacity: 1; white-space: pre;">11</text></g><g class="xtick"><text text-anchor="start" x="0" y="429" transform="translate(408.81,0) rotate(29.999999999999996,0,424)" style="font-family: system-ui, -apple-system, 'Segoe UI', Roboto, 'Helvetica Neue', 'Noto Sans', 'Liberation Sans', Arial, sans-serif, 'Apple Color Emoji', 'Segoe UI Emoji', 'Segoe UI Symbol', 'Noto Color Emoji'; font-size: 10px; fill: rgb(80, 80, 80); fill-opacity: 1; white-space: pre;">12</text></g><g class="xtick"><text text-anchor="start" x="0" y="429" transform="translate(440.52,0) rotate(29.999999999999996,0,424)" style="font-family: system-ui, -apple-system, 'Segoe UI', Roboto, 'Helvetica Neue', 'Noto Sans', 'Liberation Sans', Arial, sans-serif, 'Apple Color Emoji', 'Segoe UI Emoji', 'Segoe UI Symbol', 'Noto Color Emoji'; font-size: 10px; fill: rgb(80, 80, 80); fill-opacity: 1; white-space: pre;">13</text></g><g class="xtick"><text text-anchor="start" x="0" y="429" transform="translate(472.23,0) rotate(29.999999999999996,0,424)" style="font-family: system-ui, -apple-system, 'Segoe UI', Roboto, 'Helvetica Neue', 'Noto Sans', 'Liberation Sans', Arial, sans-serif, 'Apple Color Emoji', 'Segoe UI Emoji', 'Segoe UI Symbol', 'Noto Color Emoji'; font-size: 10px; fill: rgb(80, 80, 80); fill-opacity: 1; white-space: pre;">14</text></g><g class="xtick"><text text-anchor="start" x="0" y="429" transform="translate(503.94,0) rotate(29.999999999999996,0,424)" style="font-family: system-ui, -apple-system, 'Segoe UI', Roboto, 'Helvetica Neue', 'Noto Sans', 'Liberation Sans', Arial, sans-serif, 'Apple Color Emoji', 'Segoe UI Emoji', 'Segoe UI Symbol', 'Noto Color Emoji'; font-size: 10px; fill: rgb(80, 80, 80); fill-opacity: 1; white-space: pre;">15</text></g><g class="xtick"><text text-anchor="start" x="0" y="429" transform="translate(535.65,0) rotate(29.999999999999996,0,424)" style="font-family: system-ui, -apple-system, 'Segoe UI', Roboto, 'Helvetica Neue', 'Noto Sans', 'Liberation Sans', Arial, sans-serif, 'Apple Color Emoji', 'Segoe UI Emoji', 'Segoe UI Symbol', 'Noto Color Emoji'; font-size: 10px; fill: rgb(80, 80, 80); fill-opacity: 1; white-space: pre;">16</text></g><g class="xtick"><text text-anchor="start" x="0" y="429" transform="translate(567.35,0) rotate(29.999999999999996,0,424)" style="font-family: system-ui, -apple-system, 'Segoe UI', Roboto, 'Helvetica Neue', 'Noto Sans', 'Liberation Sans', Arial, sans-serif, 'Apple Color Emoji', 'Segoe UI Emoji', 'Segoe UI Symbol', 'Noto Color Emoji'; font-size: 10px; fill: rgb(80, 80, 80); fill-opacity: 1; white-space: pre;">17</text></g><g class="xtick"><text text-anchor="start" x="0" y="429" transform="translate(599.06,0) rotate(29.999999999999996,0,424)" style="font-family: system-ui, -apple-system, 'Segoe UI', Roboto, 'Helvetica Neue', 'Noto Sans', 'Liberation Sans', Arial, sans-serif, 'Apple Color Emoji', 'Segoe UI Emoji', 'Segoe UI Symbol', 'Noto Color Emoji'; font-size: 10px; fill: rgb(80, 80, 80); fill-opacity: 1; white-space: pre;">18</text></g><g class="xtick"><text text-anchor="start" x="0" y="429" transform="translate(630.77,0) rotate(29.999999999999996,0,424)" style="font-family: system-ui, -apple-system, 'Segoe UI', Roboto, 'Helvetica Neue', 'Noto Sans', 'Liberation Sans', Arial, sans-serif, 'Apple Color Emoji', 'Segoe UI Emoji', 'Segoe UI Symbol', 'Noto Color Emoji'; font-size: 10px; fill: rgb(80, 80, 80); fill-opacity: 1; white-space: pre;">19</text></g><g class="xtick"><text text-anchor="start" x="0" y="429" transform="translate(662.48,0) rotate(29.999999999999996,0,424)" style="font-family: system-ui, -apple-system, 'Segoe UI', Roboto, 'Helvetica Neue', 'Noto Sans', 'Liberation Sans', Arial, sans-serif, 'Apple Color Emoji', 'Segoe UI Emoji', 'Segoe UI Symbol', 'Noto Color Emoji'; font-size: 10px; fill: rgb(80, 80, 80); fill-opacity: 1; white-space: pre;">20</text></g><g class="xtick"><text text-anchor="start" x="0" y="429" transform="translate(694.19,0) rotate(29.999999999999996,0,424)" style="font-family: system-ui, -apple-system, 'Segoe UI', Roboto, 'Helvetica Neue', 'Noto Sans', 'Liberation Sans', Arial, sans-serif, 'Apple Color Emoji', 'Segoe UI Emoji', 'Segoe UI Symbol', 'Noto Color Emoji'; font-size: 10px; fill: rgb(80, 80, 80); fill-opacity: 1; white-space: pre;">21</text></g><g class="xtick"><text text-anchor="start" x="0" y="429" transform="translate(725.9,0) rotate(29.999999999999996,0,424)" style="font-family: system-ui, -apple-system, 'Segoe UI', Roboto, 'Helvetica Neue', 'Noto Sans', 'Liberation Sans', Arial, sans-serif, 'Apple Color Emoji', 'Segoe UI Emoji', 'Segoe UI Symbol', 'Noto Color Emoji'; font-size: 10px; fill: rgb(80, 80, 80); fill-opacity: 1; white-space: pre;">22</text></g><g class="xtick"><text text-anchor="start" x="0" y="429" transform="translate(757.61,0) rotate(29.999999999999996,0,424)" style="font-family: system-ui, -apple-system, 'Segoe UI', Roboto, 'Helvetica Neue', 'Noto Sans', 'Liberation Sans', Arial, sans-serif, 'Apple Color Emoji', 'Segoe UI Emoji', 'Segoe UI Symbol', 'Noto Color Emoji'; font-size: 10px; fill: rgb(80, 80, 80); fill-opacity: 1; white-space: pre;">23</text></g><g class="xtick"><text text-anchor="start" x="0" y="429" transform="translate(789.32,0) rotate(29.999999999999996,0,424)" style="font-family: system-ui, -apple-system, 'Segoe UI', Roboto, 'Helvetica Neue', 'Noto Sans', 'Liberation Sans', Arial, sans-serif, 'Apple Color Emoji', 'Segoe UI Emoji', 'Segoe UI Symbol', 'Noto Color Emoji'; font-size: 10px; fill: rgb(80, 80, 80); fill-opacity: 1; white-space: pre;">24</text></g><g class="xtick"><text text-anchor="start" x="0" y="429" transform="translate(821.03,0) rotate(29.999999999999996,0,424)" style="font-family: system-ui, -apple-system, 'Segoe UI', Roboto, 'Helvetica Neue', 'Noto Sans', 'Liberation Sans', Arial, sans-serif, 'Apple Color Emoji', 'Segoe UI Emoji', 'Segoe UI Symbol', 'Noto Color Emoji'; font-size: 10px; fill: rgb(80, 80, 80); fill-opacity: 1; white-space: pre;">25</text></g><g class="xtick"><text text-anchor="start" x="0" y="429" transform="translate(852.74,0) rotate(29.999999999999996,0,424)" style="font-family: system-ui, -apple-system, 'Segoe UI', Roboto, 'Helvetica Neue', 'Noto Sans', 'Liberation Sans', Arial, sans-serif, 'Apple Color Emoji', 'Segoe UI Emoji', 'Segoe UI Symbol', 'Noto Color Emoji'; font-size: 10px; fill: rgb(80, 80, 80); fill-opacity: 1; white-space: pre;">26</text></g><g class="xtick"><text text-anchor="start" x="0" y="429" transform="translate(884.45,0) rotate(29.999999999999996,0,424)" style="font-family: system-ui, -apple-system, 'Segoe UI', Roboto, 'Helvetica Neue', 'Noto Sans', 'Liberation Sans', Arial, sans-serif, 'Apple Color Emoji', 'Segoe UI Emoji', 'Segoe UI Symbol', 'Noto Color Emoji'; font-size: 10px; fill: rgb(80, 80, 80); fill-opacity: 1; white-space: pre;">27</text></g><g class="xtick"><text text-anchor="start" x="0" y="429" transform="translate(916.16,0) rotate(29.999999999999996,0,424)" style="font-family: system-ui, -apple-system, 'Segoe UI', Roboto, 'Helvetica Neue', 'Noto Sans', 'Liberation Sans', Arial, sans-serif, 'Apple Color Emoji', 'Segoe UI Emoji', 'Segoe UI Symbol', 'Noto Color Emoji'; font-size: 10px; fill: rgb(80, 80, 80); fill-opacity: 1; white-space: pre;">W</text></g><g class="xtick"><text text-anchor="start" x="0" y="429" transform="translate(947.87,0) rotate(29.999999999999996,0,424)" style="font-family: system-ui, -apple-system, 'Segoe UI', Roboto, 'Helvetica Neue', 'Noto Sans', 'Liberation Sans', Arial, sans-serif, 'Apple Color Emoji', 'Segoe UI Emoji', 'Segoe UI Symbol', 'Noto Color Emoji'; font-size: 10px; fill: rgb(80, 80, 80); fill-opacity: 1; white-space: pre;">NW_024396987.1</text></g><g class="xtick"><text text-anchor="start" x="0" y="429" transform="translate(979.58,0) rotate(29.999999999999996,0,424)" style="font-family: system-ui, -apple-system, 'Segoe UI', Roboto, 'Helvetica Neue', 'Noto Sans', 'Liberation Sans', Arial, sans-serif, 'Apple Color Emoji', 'Segoe UI Emoji', 'Segoe UI Symbol', 'Noto Color Emoji'; font-size: 10px; fill: rgb(80, 80, 80); fill-opacity: 1; white-space: pre;">NW_024396988.1</text></g><g class="xtick"><text text-anchor="start" x="0" y="429" transform="translate(1011.29,0) rotate(29.999999999999996,0,424)" style="font-family: system-ui, -apple-system, 'Segoe UI', Roboto, 'Helvetica Neue', 'Noto Sans', 'Liberation Sans', Arial, sans-serif, 'Apple Color Emoji', 'Segoe UI Emoji', 'Segoe UI Symbol', 'Noto Color Emoji'; font-size: 10px; fill: rgb(80, 80, 80); fill-opacity: 1; white-space: pre;">NW_024396989.1</text></g><g class="xtick"><text text-anchor="start" x="0" y="429" transform="translate(1043,0) rotate(29.999999999999996,0,424)" style="font-family: system-ui, -apple-system, 'Segoe UI', Roboto, 'Helvetica Neue', 'Noto Sans', 'Liberation Sans', Arial, sans-serif, 'Apple Color Emoji', 'Segoe UI Emoji', 'Segoe UI Symbol', 'Noto Color Emoji'; font-size: 10px; fill: rgb(80, 80, 80); fill-opacity: 1; white-space: pre;">Z</text></g></g><g class="yaxislayer-above"><g class="ytick"><text text-anchor="end" x="54" y="2.625" transform="translate(0,340.16)" style="font-family: system-ui, -apple-system, 'Segoe UI', Roboto, 'Helvetica Neue', 'Noto Sans', 'Liberation Sans', Arial, sans-serif, 'Apple Color Emoji', 'Segoe UI Emoji', 'Segoe UI Symbol', 'Noto Color Emoji'; font-size: 7.5px; fill: rgb(80, 80, 80); fill-opacity: 1; white-space: pre;">2</text></g><g class="ytick"><text text-anchor="end" x="54" y="2.625" style="font-family: system-ui, -apple-system, 'Segoe UI', Roboto, 'Helvetica Neue', 'Noto Sans', 'Liberation Sans', Arial, sans-serif, 'Apple Color Emoji', 'Segoe UI Emoji', 'Segoe UI Symbol', 'Noto Color Emoji'; font-size: 7.5px; fill: rgb(80, 80, 80); fill-opacity: 1; white-space: pre;" transform="translate(0,296.77)">3</text></g><g class="ytick"><text text-anchor="end" x="54" y="2.625" style="font-family: system-ui, -apple-system, 'Segoe UI', Roboto, 'Helvetica Neue', 'Noto Sans', 'Liberation Sans', Arial, sans-serif, 'Apple Color Emoji', 'Segoe UI Emoji', 'Segoe UI Symbol', 'Noto Color Emoji'; font-size: 7.5px; fill: rgb(80, 80, 80); fill-opacity: 1; white-space: pre;" transform="translate(0,265.98)">4</text></g><g class="ytick"><text text-anchor="end" x="54" y="2.625" style="font-family: system-ui, -apple-system, 'Segoe UI', Roboto, 'Helvetica Neue', 'Noto Sans', 'Liberation Sans', Arial, sans-serif, 'Apple Color Emoji', 'Segoe UI Emoji', 'Segoe UI Symbol', 'Noto Color Emoji'; font-size: 7.5px; fill: rgb(80, 80, 80); fill-opacity: 1; white-space: pre;" transform="translate(0,242.1)">5</text></g><g class="ytick"><text text-anchor="end" x="54" y="2.625" style="font-family: system-ui, -apple-system, 'Segoe UI', Roboto, 'Helvetica Neue', 'Noto Sans', 'Liberation Sans', Arial, sans-serif, 'Apple Color Emoji', 'Segoe UI Emoji', 'Segoe UI Symbol', 'Noto Color Emoji'; font-size: 7.5px; fill: rgb(80, 80, 80); fill-opacity: 1; white-space: pre;" transform="translate(0,222.59)">6</text></g><g class="ytick"><text text-anchor="end" x="54" y="2.625" style="font-family: system-ui, -apple-system, 'Segoe UI', Roboto, 'Helvetica Neue', 'Noto Sans', 'Liberation Sans', Arial, sans-serif, 'Apple Color Emoji', 'Segoe UI Emoji', 'Segoe UI Symbol', 'Noto Color Emoji'; font-size: 7.5px; fill: rgb(80, 80, 80); fill-opacity: 1; white-space: pre;" transform="translate(0,206.09)">7</text></g><g class="ytick"><text text-anchor="end" x="54" y="2.625" style="font-family: system-ui, -apple-system, 'Segoe UI', Roboto, 'Helvetica Neue', 'Noto Sans', 'Liberation Sans', Arial, sans-serif, 'Apple Color Emoji', 'Segoe UI Emoji', 'Segoe UI Symbol', 'Noto Color Emoji'; font-size: 7.5px; fill: rgb(80, 80, 80); fill-opacity: 1; white-space: pre;" transform="translate(0,191.8)">8</text></g><g class="ytick"><text text-anchor="end" x="54" y="2.625" style="font-family: system-ui, -apple-system, 'Segoe UI', Roboto, 'Helvetica Neue', 'Noto Sans', 'Liberation Sans', Arial, sans-serif, 'Apple Color Emoji', 'Segoe UI Emoji', 'Segoe UI Symbol', 'Noto Color Emoji'; font-size: 7.5px; fill: rgb(80, 80, 80); fill-opacity: 1; white-space: pre;" transform="translate(0,179.19)">9</text></g><g class="ytick"><text text-anchor="end" x="51.5" y="1.8333333333333333" style="font-family: system-ui, -apple-system, 'Segoe UI', Roboto, 'Helvetica Neue', 'Noto Sans', 'Liberation Sans', Arial, sans-serif, 'Apple Color Emoji', 'Segoe UI Emoji', 'Segoe UI Symbol', 'Noto Color Emoji'; font-size: 10px; fill: rgb(80, 80, 80); fill-opacity: 1; white-space: pre;" transform="translate(0,167.92000000000002)">1</text></g><g class="ytick"><text text-anchor="end" x="54" y="2.625" style="font-family: system-ui, -apple-system, 'Segoe UI', Roboto, 'Helvetica Neue', 'Noto Sans', 'Liberation Sans', Arial, sans-serif, 'Apple Color Emoji', 'Segoe UI Emoji', 'Segoe UI Symbol', 'Noto Color Emoji'; font-size: 7.5px; fill: rgb(80, 80, 80); fill-opacity: 1; white-space: pre;" transform="translate(0,93.72999999999999)">2</text></g><g class="ytick"><text text-anchor="end" x="54" y="2.625" style="font-family: system-ui, -apple-system, 'Segoe UI', Roboto, 'Helvetica Neue', 'Noto Sans', 'Liberation Sans', Arial, sans-serif, 'Apple Color Emoji', 'Segoe UI Emoji', 'Segoe UI Symbol', 'Noto Color Emoji'; font-size: 7.5px; fill: rgb(80, 80, 80); fill-opacity: 1; white-space: pre;" transform="translate(0,50.34)">3</text></g></g><g class="overaxes-above"/></g></g><g class="polarlayer"/><g class="smithlayer"/><g class="ternarylayer"/><g class="geolayer"/><g class="funnelarealayer"/><g class="pielayer"/><g class="iciclelayer"/><g class="treemaplayer"/><g class="sunburstlayer"/><g class="glimages"/><defs id="topdefs-fe8e32"><g class="clips"/></defs><g class="layer-above"><g class="imagelayer"/><g class="shapelayer"/></g><g class="infolayer"><g class="g-gtitle"><text class="gtitle" x="550" y="25" text-anchor="middle" dy="0em" style="opacity: 1; font-family: system-ui, -apple-system, 'Segoe UI', Roboto, 'Helvetica Neue', 'Noto Sans', 'Liberation Sans', Arial, sans-serif, 'Apple Color Emoji', 'Segoe UI Emoji', 'Segoe UI Symbol', 'Noto Color Emoji'; font-size: 20px; fill: rgb(60, 60, 60); fill-opacity: 1; white-space: pre;"><tspan class="line" dy="0em" x="550" y="25">Samtools: idxstats: Mapped reads per contig</tspan><tspan class="line" dy="1.3em" x="550" y="25">​<tspan style="font-size:70%" dy="-0.6em">Observed over Expected Counts, 94 lines</tspan><tspan dy="0.42em">​</tspan></tspan></text></g><g class="g-xtitle"><text class="xtitle" x="551.5" y="465" text-anchor="middle" style="opacity: 1; font-family: system-ui, -apple-system, 'Segoe UI', Roboto, 'Helvetica Neue', 'Noto Sans', 'Liberation Sans', Arial, sans-serif, 'Apple Color Emoji', 'Segoe UI Emoji', 'Segoe UI Symbol', 'Noto Color Emoji'; font-size: 14px; fill: rgb(100, 100, 100); fill-opacity: 1; white-space: pre;">Chromosome name</text></g><g class="g-ytitle"><text class="ytitle" transform="rotate(-90,22,231.5)" x="22" y="231.5" text-anchor="middle" style="opacity: 1; font-family: system-ui, -apple-system, 'Segoe UI', Roboto, 'Helvetica Neue', 'Noto Sans', 'Liberation Sans', Arial, sans-serif, 'Apple Color Emoji', 'Segoe UI Emoji', 'Segoe UI Symbol', 'Noto Color Emoji'; font-size: 14px; fill: rgb(100, 100, 100); fill-opacity: 1; white-space: pre;">log10 ( Observed over expected counts )</text></g></g></svg>